<?xml version="1.0" standalone="no"?>
<!DOCTYPE svg PUBLIC "-//W3C//DTD SVG 20010904//EN"
 "http://www.w3.org/TR/2001/REC-SVG-20010904/DTD/svg10.dtd">
<svg version="1.0" xmlns="http://www.w3.org/2000/svg"
 width="2560.000000pt" height="1062.000000pt" viewBox="0 0 2560.000000 1062.000000"
 preserveAspectRatio="xMidYMid meet">
<metadata>
Created by potrace 1.16, written by Peter Selinger 2001-2019
</metadata>
<g transform="translate(0.000000,1062.000000) scale(0.100000,-0.100000)"
fill="#000000" stroke="none">
<path d="M1915 7959 c-726 -1161 -1331 -2129 -1344 -2150 l-23 -39 855 0 854
0 220 373 220 372 1539 3 1539 2 234 -375 234 -375 853 0 853 0 -144 228 c-80
125 -693 1091 -1363 2147 l-1218 1920 -994 3 -995 2 -1320 -2111z m2798 293
c263 -430 477 -785 477 -787 0 -3 -430 -5 -956 -5 -527 0 -954 4 -952 9 15 38
944 1579 949 1573 3 -4 220 -359 482 -790z"/>
<path d="M8480 7920 l0 -2150 765 0 765 0 0 820 0 820 333 -1 332 0 1090 -819
1090 -820 1085 0 c908 0 1082 2 1070 13 -8 8 -674 494 -1480 1082 -806 587
-1473 1075 -1482 1084 -17 15 66 82 1322 1061 736 575 1339 1048 1339 1053 1
4 -466 7 -1037 7 l-1038 0 -959 -790 -959 -790 -353 0 -353 0 0 790 0 790
-765 0 -765 0 0 -2150z"/>
<path d="M16853 7926 c-739 -1179 -1343 -2147 -1343 -2150 0 -3 384 -6 854 -6
l854 0 219 375 218 375 1541 0 1540 0 234 -375 233 -375 853 0 854 0 -66 103
c-36 56 -651 1023 -1366 2150 l-1301 2047 -991 0 -991 0 -1342 -2144z m3297
-461 c0 -3 -430 -5 -955 -5 -525 0 -955 2 -955 4 0 3 154 262 794 1339 l147
248 485 -790 c266 -435 484 -793 484 -796z"/>
<path d="M23520 7915 l0 -2155 765 0 765 0 0 2155 0 2155 -765 0 -765 0 0
-2155z"/>
<path d="M6637 5148 c-57 -84 -160 -235 -228 -335 l-123 -183 -2868 0 -2868 0
1 -1742 0 -1743 302 -292 302 -292 835 0 835 0 454 545 455 544 10340 0 10341
0 303 291 302 290 0 1535 0 1534 -1137 0 -1138 -1 -225 -334 -225 -334 -2297
-1 -2297 0 -223 333 -223 332 -1141 3 -1141 2 -227 -335 -227 -335 -2447 0
-2447 0 -225 333 -225 332 -1217 3 -1217 2 -104 -152z m9653 -553 l0 -195
-215 0 -215 0 0 195 0 195 215 0 215 0 0 -195z m7730 37 l205 -78 3 -1147 2
-1147 -215 0 -215 0 0 1225 c0 674 3 1225 8 1225 4 -1 99 -36 212 -78z
m-15682 -137 l-203 -164 -147 -1 -148 0 0 -160 0 -160 235 0 c129 0 235 -3
235 -6 0 -4 -43 -78 -96 -165 l-96 -159 -139 0 -139 0 0 -710 0 -710 -215 0
-215 0 0 710 0 710 -130 0 -130 0 0 165 0 164 128 3 127 3 3 200 4 200 146
122 147 121 418 1 419 1 -204 -165z m-5256 -613 l147 -127 1 -620 0 -620 -163
-127 -162 -128 -562 0 -563 0 0 -525 0 -525 -215 0 -215 0 0 1400 0 1400 793
0 792 0 147 -128z m1663 119 c-6 -5 -97 -79 -203 -165 l-194 -156 -149 0 -149
0 0 -710 0 -710 -215 0 -215 0 0 748 0 747 153 127 152 128 415 0 c248 0 410
-4 405 -9z m1924 -118 l151 -128 0 -620 0 -621 -154 -127 -155 -127 -654 0
-654 0 -157 130 -156 130 2 617 3 617 150 128 150 127 661 1 662 0 151 -127z
m3680 0 l151 -126 0 -389 0 -388 -745 0 -745 0 0 -195 0 -195 756 0 756 0
-204 -165 -203 -165 -615 0 -615 0 -153 126 -152 125 0 623 0 624 148 125 147
126 662 0 661 1 151 -127z m2755 118 c-5 -4 -97 -79 -205 -165 l-196 -156
-647 0 -646 0 0 -180 0 -180 573 0 572 0 120 -101 c66 -56 135 -114 153 -131
l32 -29 -2 -272 -3 -272 -150 -127 -150 -128 -913 0 -914 0 204 165 203 164
643 1 642 0 0 200 0 200 -568 0 -567 0 -153 126 -152 126 0 257 0 256 151 128
151 127 916 0 c511 0 912 -4 906 -9z m2356 -5 c-8 -8 -100 -82 -204 -165
l-188 -151 -649 0 -649 0 2 -177 3 -178 572 -5 572 -5 150 -124 151 -124 0
-276 0 -277 -154 -127 -155 -127 -912 0 -911 0 206 165 205 165 643 2 643 3 3
198 2 197 -570 0 -571 0 -155 127 -154 127 0 256 1 255 152 127 152 127 915 1
c792 0 912 -2 900 -14z m830 -861 l0 -875 -215 0 -215 0 0 875 0 875 215 0
215 0 0 -875z m2204 745 l156 -131 -2 -617 -3 -616 -153 -128 -154 -128 -655
0 -654 0 -155 127 -154 127 0 621 0 620 152 128 152 127 657 0 657 0 156 -130z
m2364 3 l152 -128 0 -747 0 -748 -215 0 -215 0 0 710 0 710 -535 0 -535 0 0
-710 0 -710 -215 0 -215 0 1 748 0 747 150 128 150 127 663 0 662 0 152 -127z
m2362 1 l150 -127 0 -622 0 -623 -152 -126 -153 -126 -657 0 -657 0 -155 128
-155 127 -1 277 0 277 155 125 155 126 595 0 595 0 0 180 0 180 -744 2 -743 3
201 162 201 163 608 0 608 0 149 -126z"/>
<path d="M1782 3138 l3 -543 505 0 505 0 3 543 2 542 -510 0 -510 0 2 -542z"/>
<path d="M5330 3135 l0 -545 528 2 527 3 3 543 2 542 -530 0 -530 0 0 -545z"/>
<path d="M9010 3500 l0 -180 530 0 530 0 0 180 0 180 -530 0 -530 0 0 -180z"/>
<path d="M17150 3135 l0 -545 530 0 530 0 0 545 0 545 -530 0 -530 0 0 -545z"/>
<path d="M21874 2977 c-2 -7 -3 -96 -2 -197 l3 -185 533 -3 532 -2 0 200 0
200 -530 0 c-422 0 -532 -3 -536 -13z"/>
</g>
</svg>
