<?xml version="1.0" standalone="no"?>
<!DOCTYPE svg PUBLIC "-//W3C//DTD SVG 20010904//EN"
 "http://www.w3.org/TR/2001/REC-SVG-20010904/DTD/svg10.dtd">
<svg version="1.0" xmlns="http://www.w3.org/2000/svg"
 width="420.000000pt" height="73.000000pt" viewBox="0 0 420.000000 73.000000"
 preserveAspectRatio="xMidYMid meet">
<metadata>
Created by potrace 1.16, written by Peter Selinger 2001-2019
</metadata>
<g transform="translate(0.000000,73.000000) scale(0.100000,-0.100000)"
fill="#000000" stroke="none">
<path d="M169 677 c-91 -34 -139 -102 -139 -195 0 -65 18 -107 61 -149 44 -41
77 -53 146 -53 168 0 258 191 156 328 -47 63 -153 95 -224 69z m137 -26 c122
-55 150 -208 55 -302 -83 -83 -212 -73 -280 22 -71 98 -36 230 74 280 51 24
99 24 151 0z"/>
<path d="M173 495 l-52 -155 110 0 c61 0 109 4 107 9 -1 5 -25 75 -53 155 -27
80 -52 146 -55 146 -3 -1 -28 -70 -57 -155z"/>
<path d="M1180 626 l0 -65 -27 15 c-36 18 -57 18 -93 -1 -111 -57 -55 -271 63
-241 14 3 33 13 41 22 15 14 16 14 16 0 0 -12 10 -16 35 -16 l35 0 0 175 0
175 -35 0 -35 0 0 -64z"/>
<path d="M2500 515 l0 -175 40 0 40 0 0 84 c0 90 11 116 50 116 30 0 40 -31
40 -119 l0 -81 40 0 40 0 0 98 c0 90 -2 100 -23 120 -32 30 -79 38 -116 19
l-31 -15 0 64 0 64 -40 0 -40 0 0 -175z"/>
<path d="M1858 638 c-20 -7 -28 -17 -28 -34 0 -20 -5 -24 -30 -24 -25 0 -30
-4 -30 -25 0 -21 5 -25 30 -25 l30 0 0 -83 c0 -101 11 -117 83 -117 43 0 47 2
47 25 0 20 -5 25 -25 25 -24 0 -25 2 -25 75 0 72 1 75 24 75 17 0 25 7 28 25
5 22 2 25 -23 25 -26 0 -29 3 -29 35 0 37 -6 40 -52 23z"/>
<path d="M545 583 c-29 -8 -55 -33 -55 -55 0 -14 8 -18 35 -18 19 0 35 4 35
10 0 5 9 14 21 20 24 13 49 -2 49 -30 0 -14 -11 -18 -56 -22 -62 -5 -90 -26
-100 -73 -12 -63 68 -105 135 -72 17 9 31 11 31 6 0 -5 16 -9 35 -9 l35 0 0
94 c0 85 -2 98 -23 122 -18 21 -34 27 -73 30 -27 1 -58 0 -69 -3z"/>
<path d="M1455 576 c-47 -21 -67 -51 -72 -103 -5 -58 10 -89 56 -120 62 -42
166 -22 196 38 22 42 19 111 -7 144 -39 50 -113 68 -173 41z"/>
<path d="M2033 575 c-41 -17 -63 -61 -63 -124 0 -42 5 -56 29 -83 27 -31 34
-33 94 -33 55 0 69 4 91 24 14 14 26 30 26 38 0 18 -64 17 -80 -2 -25 -30 -80
-12 -80 27 0 16 10 18 85 18 l85 0 0 30 c0 92 -95 145 -187 105z"/>
<path d="M2314 581 c-79 -34 -95 -159 -28 -222 37 -34 121 -34 158 0 14 14 26
35 26 48 0 19 -5 23 -33 23 -26 0 -36 -6 -45 -25 -7 -14 -20 -25 -31 -25 -29
0 -47 70 -32 122 13 43 43 52 61 18 8 -15 21 -20 50 -20 36 0 39 2 31 22 -18
48 -105 81 -157 59z"/>
<path d="M2880 573 c-17 -12 -25 -13 -28 -5 -2 7 -21 12 -42 12 l-38 0 0 -120
-1 -120 43 0 42 0 0 85 c-1 96 13 123 57 111 30 -7 37 -29 37 -123 l0 -73 40
0 40 0 0 84 c0 101 -9 130 -49 151 -39 20 -71 19 -101 -2z"/>
<path d="M3224 576 c-56 -25 -82 -122 -49 -186 22 -42 68 -63 124 -57 49 5 91
41 91 78 0 15 -7 19 -35 19 -29 0 -37 -5 -45 -25 -13 -35 -47 -33 -61 3 -12
31 -6 109 9 124 13 13 52 1 52 -17 0 -8 15 -14 40 -17 43 -4 49 6 29 44 -12
22 -67 48 -101 48 -13 -1 -37 -7 -54 -14z"/>
<path d="M3485 583 c-29 -8 -55 -33 -55 -55 0 -14 8 -18 35 -18 19 0 35 4 35
10 0 5 9 14 21 20 24 14 49 -2 49 -31 0 -16 -8 -19 -42 -19 -52 0 -103 -29
-112 -63 -18 -73 62 -122 137 -83 15 8 27 11 27 5 0 -5 16 -9 35 -9 l35 0 0
94 c0 85 -2 98 -23 122 -18 21 -34 27 -73 30 -27 1 -58 0 -69 -3z"/>
<path d="M730 486 c0 -79 3 -97 20 -119 28 -36 84 -46 124 -23 20 11 32 14 34
7 2 -6 20 -11 40 -11 l37 0 -3 120 -3 120 -40 0 -39 0 0 -88 c0 -90 -8 -112
-41 -112 -37 0 -49 27 -49 116 l0 84 -40 0 -40 0 0 -94z"/>
<path d="M1290 460 l0 -120 40 0 40 0 0 120 0 120 -40 0 -40 0 0 -120z"/>
<path d="M3050 460 l0 -120 40 0 40 0 0 120 0 120 -40 0 -40 0 0 -120z"/>
</g>
</svg>
