<?xml version="1.0" standalone="no"?>
<!DOCTYPE svg PUBLIC "-//W3C//DTD SVG 20010904//EN"
 "http://www.w3.org/TR/2001/REC-SVG-20010904/DTD/svg10.dtd">
<svg version="1.0" xmlns="http://www.w3.org/2000/svg"
 width="940.000000pt" height="788.000000pt" viewBox="0 0 940.000000 788.000000"
 preserveAspectRatio="xMidYMid meet">
<metadata>
Created by potrace 1.16, written by Peter Selinger 2001-2019
</metadata>
<g transform="translate(0.000000,788.000000) scale(0.100000,-0.100000)"
fill="#000000" stroke="none">
<path d="M4245 7345 c-33 -9 -73 -22 -90 -29 -16 -8 -33 -12 -37 -10 -4 3 -8
1 -8 -4 0 -5 -26 -23 -57 -40 -32 -17 -67 -39 -78 -49 -11 -10 -38 -31 -60
-48 -79 -59 -221 -211 -254 -273 -6 -11 -17 -26 -23 -34 -17 -17 -98 -135 -98
-141 0 -3 -23 -45 -51 -94 -65 -111 -209 -395 -209 -412 0 -6 -9 -31 -20 -53
-11 -23 -20 -50 -20 -59 0 -10 -4 -21 -10 -24 -5 -3 -10 -15 -10 -26 0 -10 -4
-27 -9 -37 -16 -28 -91 -270 -91 -292 0 -11 -4 -20 -8 -20 -5 0 -9 -6 -10 -12
-1 -21 -10 -56 -38 -151 -14 -49 -27 -94 -28 -100 -1 -7 -5 -21 -9 -32 -6 -20
-12 -47 -22 -102 -3 -16 -9 -53 -15 -83 -39 -214 -39 -213 -24 -248 22 -54 19
-74 -11 -66 -38 9 -40 1 -80 -321 -3 -22 -5 -110 -5 -195 -2 -293 -2 -289 20
-307 20 -17 20 -17 -1 -40 -21 -21 -21 -28 -15 -250 3 -125 8 -241 10 -258 3
-16 7 -49 10 -73 7 -54 34 -101 63 -108 20 -5 17 -11 -41 -70 -35 -35 -76 -83
-92 -107 -16 -23 -31 -44 -35 -47 -3 -3 -11 -20 -18 -37 -8 -18 -17 -33 -22
-33 -5 0 -9 -10 -9 -23 0 -12 -7 -33 -16 -45 -9 -13 -17 -33 -18 -45 -6 -51
-20 -92 -33 -102 -23 -17 -53 -75 -89 -170 -4 -11 -6 -24 -5 -29 1 -4 -6 -20
-16 -35 -9 -14 -18 -33 -19 -41 -1 -8 -9 -48 -18 -88 -9 -40 -16 -84 -16 -98
0 -13 -5 -24 -11 -24 -5 0 -7 -5 -4 -11 9 -13 -14 -210 -26 -225 -5 -6 -14
-46 -19 -88 -5 -43 -17 -98 -26 -124 -9 -26 -18 -65 -19 -87 -2 -22 -1 -33 2
-25 3 8 13 23 21 33 12 13 17 15 24 5 4 -8 8 15 9 52 l1 65 13 -97 c24 -177
78 -333 172 -498 24 -43 45 -89 45 -102 2 -24 26 -62 93 -143 66 -80 234 -245
250 -245 2 0 38 -22 79 -50 41 -27 79 -50 84 -50 6 0 12 -4 14 -9 6 -16 204
-109 303 -142 55 -19 102 -36 105 -39 3 -3 21 -7 40 -8 19 -2 37 -7 40 -10 3
-4 21 -8 40 -10 19 -2 50 -8 69 -14 60 -19 525 -15 537 4 3 5 13 8 23 8 36 0
165 46 253 91 35 17 43 17 165 3 159 -19 272 -13 478 26 33 7 72 14 88 17 15
3 30 9 33 14 3 5 14 9 24 9 11 0 44 11 75 25 30 13 83 27 118 31 67 7 67 7
112 18 95 22 152 40 212 67 24 11 48 19 55 19 22 0 246 130 279 163 8 7 34 27
59 44 72 50 290 274 290 299 0 2 5 10 11 17 12 14 92 139 94 147 1 3 21 48 46
100 39 81 52 118 75 198 2 7 20 12 42 12 25 0 45 6 54 18 40 45 73 323 38 317
-8 -1 -14 -10 -14 -19 1 -9 -2 -16 -8 -16 -5 0 -6 -4 -3 -10 3 -5 3 -16 -2
-22 -8 -14 -9 -19 -11 -56 -1 -15 -10 -26 -22 -29 -14 -4 -19 -11 -15 -23 3
-11 0 -17 -10 -17 -13 0 -15 26 -14 181 0 100 -2 199 -6 221 -4 22 -8 48 -8
58 -1 9 -4 17 -7 17 -3 0 -7 11 -8 24 -1 13 -11 45 -22 70 -11 26 -20 52 -20
58 0 19 -34 83 -51 95 -9 7 -22 26 -29 43 -7 16 -16 30 -21 30 -4 0 -20 21
-35 46 -26 45 -27 47 -9 60 14 10 15 17 7 27 -12 15 -5 58 12 69 8 6 8 8 0 8
-7 0 -19 16 -29 36 -9 20 -20 32 -24 26 -4 -6 -11 -5 -19 4 -7 8 -10 14 -6 14
4 0 -10 16 -32 35 -26 24 -31 32 -15 24 51 -24 9 8 -53 41 l-65 35 4 43 c2 25
0 40 -6 37 -5 -4 -5 5 1 21 6 15 8 35 5 45 -4 11 -2 19 5 19 6 0 10 6 7 13 -2
6 0 20 5 30 5 10 11 39 13 65 6 87 18 152 26 152 5 0 9 -3 9 -7 0 -5 19 -17
41 -28 51 -24 169 -132 218 -200 48 -65 90 -139 112 -195 10 -25 18 -39 19
-32 0 25 -82 211 -96 216 -8 3 -14 12 -14 21 0 8 -4 15 -10 15 -5 0 -10 4 -10
9 0 21 -165 166 -231 204 -21 12 -39 25 -39 30 0 13 33 7 54 -10 20 -17 20
-17 4 1 -15 17 -14 21 16 61 37 47 51 119 50 256 -1 106 -20 134 -104 143 -45
5 -62 12 -66 24 -12 38 -23 47 -65 54 -24 4 -53 9 -64 12 -11 2 -24 5 -28 5
-5 1 2 14 15 30 22 28 25 28 99 23 42 -2 87 -2 101 1 32 8 58 56 63 119 2 29
11 70 20 91 13 32 16 77 16 238 0 110 -3 204 -5 208 -3 5 -6 50 -7 100 -1 94
-11 121 -45 121 -12 0 -11 6 6 27 19 24 21 39 19 123 -1 52 -8 128 -16 169 -7
41 -11 76 -9 78 2 2 -2 24 -9 48 -8 24 -11 53 -8 66 4 14 2 20 -5 15 -6 -4
-14 13 -21 45 -6 28 -27 84 -47 125 -19 40 -35 76 -35 78 0 3 -12 18 -27 34
-15 16 -32 43 -39 61 -10 28 -9 31 7 31 14 0 30 18 30 34 0 9 -78 105 -82 100
-3 -2 -3 7 0 22 3 15 1 24 -4 21 -5 -3 -10 6 -11 20 0 14 -6 29 -13 33 -6 4
-11 10 -10 14 3 14 -41 94 -55 100 -8 3 -12 12 -9 20 3 9 -1 22 -10 31 -9 9
-12 23 -9 33 6 14 4 15 -9 4 -13 -11 -16 -10 -14 5 0 10 -5 17 -12 15 -8 -1
-11 2 -8 7 4 5 -8 23 -26 40 -18 17 -28 31 -21 31 6 0 13 -6 16 -12 2 -7 7
-10 11 -7 14 13 -6 37 -27 32 -16 -3 -18 -2 -8 5 11 8 11 11 0 18 -7 4 -14 3
-17 -4 -7 -21 -23 -13 -22 11 1 12 2 27 1 34 -1 13 -69 36 -82 28 -4 -3 -6 6
-4 20 2 22 0 23 -13 13 -13 -11 -14 -11 -8 0 8 13 -15 42 -33 42 -6 0 -11 5
-11 11 0 6 -7 17 -15 25 -8 9 -15 27 -15 42 0 21 -2 24 -10 12 -8 -13 -10 -12
-10 3 0 10 -5 15 -10 12 -6 -4 -8 -10 -5 -15 3 -5 1 -11 -5 -15 -5 -3 -10 -1
-10 5 0 6 -4 8 -10 5 -5 -3 -10 -1 -10 4 0 6 5 11 10 11 6 0 10 7 10 16 0 10
-5 14 -16 10 -8 -3 -12 -2 -9 3 3 5 1 12 -5 16 -5 3 -10 1 -10 -4 0 -6 -4 -11
-10 -11 -5 0 -9 6 -7 13 1 6 -4 11 -11 9 -9 -1 -11 8 -9 33 3 19 0 32 -5 29
-5 -3 -7 -12 -4 -20 3 -8 0 -11 -9 -8 -8 3 -14 9 -13 12 3 25 -5 33 -12 12 -8
-24 -8 -24 -9 -2 -1 12 -5 22 -11 22 -5 0 -10 8 -10 18 0 14 -2 15 -10 2 -5
-8 -10 -10 -10 -5 0 16 -48 35 -54 21 -2 -6 -5 -1 -5 12 -1 12 -5 22 -11 22
-5 0 -7 -6 -4 -14 3 -9 -6 -18 -27 -25 -90 -31 -311 12 -434 84 -72 42 -95 95
-42 95 28 0 12 13 -38 29 -22 7 -47 19 -55 26 -16 13 -71 28 -165 45 -147 27
-172 32 -208 41 -69 18 -296 20 -362 4z m596 -872 c19 -32 45 -80 58 -108 14
-27 28 -51 33 -53 4 -2 8 -10 8 -17 0 -13 114 -239 133 -262 6 -9 1 -30 -18
-68 -30 -59 -29 -76 10 -175 32 -83 56 -153 96 -280 23 -74 44 -142 47 -150 6
-18 10 -33 16 -57 3 -10 5 -19 6 -20 2 -2 3 -7 4 -12 0 -5 4 -13 9 -17 4 -4 7
-20 7 -35 0 -49 42 -49 75 1 12 17 23 26 29 20 5 -5 -6 -23 -28 -43 -42 -40
-45 -58 -13 -88 13 -12 17 -23 11 -26 -11 -4 6 -102 34 -208 6 -22 13 -59 14
-82 2 -24 6 -43 9 -43 6 0 14 -50 24 -136 1 -17 6 -40 9 -51 4 -12 8 -39 11
-61 5 -47 38 -121 69 -155 22 -24 49 -28 234 -41 12 0 22 -6 22 -13 0 -6 9
-15 20 -18 11 -3 20 -13 20 -21 0 -11 -20 -14 -97 -14 -168 -1 -216 -22 -252
-107 -12 -28 -17 -31 -99 -42 -123 -17 -260 -52 -337 -86 -16 -7 -55 -23 -85
-35 -30 -12 -75 -32 -99 -46 -24 -13 -51 -24 -59 -24 -17 0 -126 -72 -232
-153 -36 -27 -117 -103 -180 -168 l-115 -119 -55 20 c-30 12 -62 24 -70 27
-16 7 -24 9 -87 19 -24 4 -43 9 -43 13 0 3 -10 7 -22 8 -13 1 -40 3 -60 4 -21
2 -38 5 -39 8 0 4 -2 15 -4 25 -2 11 1 43 7 70 5 28 10 58 10 66 0 26 25 174
32 191 4 10 1 23 -8 32 -21 21 -20 26 8 37 23 8 44 54 51 110 1 8 9 44 19 80
9 36 20 85 25 110 5 25 14 70 20 100 7 30 14 71 17 90 3 19 10 42 15 51 4 9 6
18 4 20 -2 3 1 22 6 44 6 22 12 51 14 65 2 14 6 39 9 56 5 25 2 33 -19 44 -14
7 -25 17 -25 22 0 4 -7 8 -15 8 -18 0 -18 1 -1 42 8 18 24 65 36 103 11 39 24
77 27 85 13 32 63 211 73 265 9 43 22 90 40 145 6 19 13 46 16 60 3 13 9 29
13 35 4 5 31 80 61 165 29 85 65 183 81 218 16 34 29 68 29 75 0 6 9 23 20 37
11 14 20 32 20 40 0 29 127 225 180 280 14 15 46 48 71 76 25 27 60 60 77 73
18 13 32 30 32 37 0 24 8 16 41 -43z m1474 -1860 c-4 -136 -8 -254 -10 -263
-1 -9 -14 -16 -32 -18 l-29 -3 3 162 c1 90 5 169 7 176 3 7 1 13 -5 13 -6 0
-7 5 -4 10 3 6 -1 10 -9 10 -23 0 -20 21 4 27 16 4 20 14 20 45 0 43 24 88 47
88 14 0 15 -30 8 -247z m-753 -454 c54 -29 78 -200 40 -298 -23 -59 -40 -68
-93 -51 -26 9 -37 16 -26 18 11 2 17 13 17 33 0 25 4 29 26 29 23 0 25 2 13
16 -7 9 -12 39 -12 72 1 31 -1 48 -4 37 -8 -31 -18 -37 -46 -26 -21 8 -27 17
-27 41 0 39 33 104 62 124 27 19 24 19 50 5z m-142 -317 c0 -9 -116 -72 -132
-72 -16 0 -333 -161 -336 -171 -2 -5 -8 -9 -13 -9 -12 0 -93 -52 -97 -62 -2
-5 -10 -8 -18 -8 -8 0 -14 -4 -14 -9 0 -12 -28 -22 -34 -12 -7 11 30 52 79 87
23 16 47 35 55 42 18 16 149 90 245 139 114 59 265 101 265 75z m-17 -112 c-4
-5 -50 -27 -101 -49 -87 -37 -228 -111 -352 -183 -43 -25 -51 -27 -37 -11 48
55 293 196 415 239 61 21 95 23 75 4z m1050 -955 c-1 -6 7 -11 17 -11 10 0 16
4 14 8 -11 17 16 6 72 -30 79 -52 171 -153 217 -240 44 -83 87 -240 87 -320 0
-64 -8 -65 -15 -1 -9 80 -14 111 -19 117 -3 3 -6 0 -6 -7 0 -7 -4 -10 -10 -6
-5 3 -3 -7 5 -21 14 -28 12 -44 -6 -44 -5 0 -9 7 -9 15 0 8 -4 15 -9 15 -5 0
-7 23 -4 50 4 46 3 50 -17 50 -12 0 -30 -5 -41 -11 -16 -8 -23 -7 -33 7 -7 9
-18 14 -24 10 -6 -3 -13 6 -17 24 -6 25 -9 29 -21 19 -9 -7 -14 -8 -14 -1 0 6
5 14 10 17 16 10 -10 37 -29 30 -9 -3 -5 4 9 16 14 11 19 18 13 14 -8 -4 -13
0 -13 9 0 11 -9 16 -26 16 -21 0 -25 -4 -20 -17 5 -15 3 -15 -12 2 -30 34
-111 96 -160 122 -25 14 -52 33 -60 44 -7 10 -21 19 -30 19 -14 1 -12 5 8 22
l25 21 -35 -6 c-19 -3 -29 -3 -22 0 10 4 10 8 1 19 -9 11 -9 14 0 14 7 0 9 5
6 10 -3 6 -1 10 5 10 7 0 10 -6 7 -14 -5 -12 21 -33 28 -24 40 61 43 64 87 63
24 0 42 -5 41 -10z m-328 -96 c262 -32 452 -187 531 -434 36 -109 38 -269 5
-399 -23 -95 -85 -237 -143 -327 -41 -62 -100 -129 -115 -129 -6 0 -16 -7 -23
-15 -7 -8 -15 -13 -19 -10 -4 2 -15 -7 -25 -20 -10 -13 -31 -27 -47 -30 -16
-4 -29 -12 -29 -20 0 -7 -11 -20 -25 -29 -14 -9 -25 -21 -25 -27 0 -22 -51
-83 -102 -122 -190 -144 -509 -217 -740 -169 -333 69 -522 315 -505 656 6 132
31 227 88 337 33 63 43 76 54 66 7 -7 9 -14 5 -17 -4 -3 -8 -35 -8 -72 0 -37
-6 -111 -12 -165 -35 -286 73 -514 295 -624 108 -53 203 -72 330 -66 201 11
420 99 579 234 21 18 43 30 49 26 6 -3 7 -1 4 4 -4 6 9 28 29 49 256 274 339
616 214 871 -32 64 -106 153 -128 153 -6 0 -12 4 -12 9 0 5 -17 19 -37 31 -21
12 -33 16 -26 10 6 -7 9 -19 6 -26 -4 -11 -8 -10 -21 2 -12 13 -13 20 -4 35
11 17 10 18 -14 9 -35 -14 -41 -12 -19 3 14 11 15 16 5 22 -9 5 -11 4 -6 -3 8
-14 5 -15 -19 -6 -11 5 -13 9 -5 14 6 4 -17 15 -52 26 -49 15 -92 19 -198 18
-117 -1 -147 -4 -225 -28 -104 -31 -222 -86 -315 -146 -35 -23 -89 -54 -120
-68 -30 -14 -57 -29 -60 -33 -5 -8 -34 -12 -65 -10 -15 1 -3 18 55 77 125 126
235 201 390 267 176 74 330 97 505 76z m-2128 -205 c-103 -242 -177 -546 -177
-726 0 -78 -16 -74 -23 6 -18 192 46 447 185 734 50 106 62 96 15 -14z m341
-91 c1 -16 2 -63 2 -106 1 -46 6 -82 14 -90 10 -10 7 -32 -15 -112 -16 -55
-33 -118 -38 -140 -15 -59 -35 -83 -58 -69 -82 49 -63 245 47 478 34 71 47 82
48 39z m-1785 -44 c6 -4 5 -14 -1 -26 -6 -11 -9 -73 -7 -153 5 -176 12 -243
31 -310 9 -30 18 -67 21 -83 3 -15 14 -34 25 -41 14 -10 18 -20 13 -36 -9 -29
2 -70 19 -70 17 0 26 -22 26 -61 0 -16 5 -29 11 -29 5 0 7 -4 4 -10 -3 -5 -1
-10 4 -10 6 0 19 -27 28 -60 13 -42 22 -59 32 -55 10 4 12 -1 7 -21 -5 -17 -3
-23 4 -19 6 4 9 -2 7 -14 -7 -49 -21 -39 -92 64 -85 124 -153 291 -175 433
-19 116 -8 457 17 522 5 13 6 13 11 0 3 -8 9 -18 15 -21z m1448 -131 c-76
-207 -120 -412 -121 -558 -1 -38 -2 -42 -12 -26 -14 25 -4 215 17 314 8 41 27
108 40 150 27 80 114 266 122 259 2 -3 -18 -65 -46 -139z m2116 67 c65 -29
147 -104 175 -161 61 -120 44 -304 -42 -447 -36 -59 -34 -41 6 53 36 84 45
219 20 303 -17 59 -75 141 -126 177 -57 40 -138 62 -232 62 -165 -1 -310 -65
-451 -202 -48 -47 -92 -86 -98 -88 -22 -6 54 89 121 151 81 75 196 139 302
167 107 29 241 23 325 -15z m-184 -346 c2 -70 2 -131 -2 -137 -17 -28 -29 12
-35 118 -10 168 -14 174 -63 97 -31 -49 -52 -72 -60 -64 -5 6 69 149 116 222
l26 40 6 -75 c4 -41 9 -132 12 -201z"/>
<path d="M5077 7183 c-11 -17 23 -53 76 -80 100 -50 266 -84 338 -68 l34 8
-40 14 c-47 16 -229 58 -297 68 -79 12 -54 25 50 26 l97 1 -50 14 c-67 18
-201 29 -208 17z"/>
<path d="M6460 3346 c-10 -75 -10 -101 -2 -104 27 -9 159 -102 186 -130 16
-17 33 -29 37 -26 4 2 10 0 14 -6 9 -15 -17 -12 -45 6 -14 8 -7 1 15 -18 51
-42 111 -102 153 -153 19 -22 30 -33 26 -25 -7 15 -63 90 -74 100 -20 18 -49
64 -44 71 3 5 -1 9 -8 9 -9 0 -9 3 2 10 8 5 10 10 3 10 -6 0 -9 8 -7 18 7 24
-24 94 -37 86 -6 -3 -8 -15 -6 -26 5 -18 4 -19 -12 -4 -13 12 -20 13 -29 4 -8
-8 -9 -5 -5 10 4 17 -1 24 -18 31 -13 5 -27 7 -31 4 -5 -2 -9 1 -9 6 -1 6 -2
17 -3 24 0 6 -6 12 -12 12 -33 0 -66 93 -36 103 9 3 5 11 -12 27 -13 12 -26
31 -28 41 -2 10 -10 -26 -18 -80z"/>
</g>
</svg>
