<?xml version="1.0" standalone="no"?>
<!DOCTYPE svg PUBLIC "-//W3C//DTD SVG 20010904//EN"
 "http://www.w3.org/TR/2001/REC-SVG-20010904/DTD/svg10.dtd">
<svg version="1.0" xmlns="http://www.w3.org/2000/svg"
 width="800.000000pt" height="800.000000pt" viewBox="0 0 800.000000 800.000000"
 preserveAspectRatio="xMidYMid meet">
<metadata>
Created by potrace 1.16, written by Peter Selinger 2001-2019
</metadata>
<g transform="translate(0.000000,800.000000) scale(0.100000,-0.100000)"
fill="#000000" stroke="none">
<path d="M3435 7769 c-248 -25 -408 -148 -591 -455 -144 -240 -294 -687 -378
-1119 -27 -139 -79 -564 -74 -605 2 -19 -2 -26 -18 -28 -20 -3 -22 -10 -28
-170 -6 -152 5 -526 20 -680 10 -97 21 -106 146 -113 l103 -6 -119 -1 -119 -2
6 -150 c4 -83 12 -204 18 -270 l11 -120 -64 -62 c-72 -71 -157 -194 -215 -313
-38 -77 -103 -280 -103 -323 0 -11 -14 -58 -31 -104 -29 -80 -47 -176 -53
-283 -7 -129 -20 -225 -27 -213 -5 7 -9 8 -9 3 0 -6 4 -15 9 -20 4 -6 5 -67 0
-140 -10 -151 -5 -234 22 -364 10 -52 17 -96 15 -98 -7 -7 -48 174 -56 249
l-9 73 4 -86 c7 -126 46 -266 110 -394 186 -375 558 -650 1008 -747 123 -26
415 -32 533 -10 71 13 72 13 175 -22 125 -41 263 -66 375 -66 l83 0 16 55 c8
30 23 86 31 125 10 42 21 70 29 70 10 0 10 -10 -2 -48 -8 -26 -16 -73 -18
-104 -2 -32 -6 -62 -9 -67 -4 -5 0 -12 6 -14 10 -4 10 -6 0 -6 -10 -1 -10 -6
-2 -21 8 -15 8 -18 -4 -14 -10 4 -17 -15 -30 -83 -8 -48 -23 -128 -32 -178 -9
-49 -16 -109 -16 -133 0 -23 -3 -42 -8 -42 -5 0 -9 -25 -9 -55 0 -30 -2 -63
-5 -72 -11 -39 -15 -155 -5 -171 8 -13 1 -61 -25 -185 -20 -93 -36 -173 -36
-178 0 -6 23 -9 52 -7 l52 3 17 70 c9 39 27 114 39 167 17 73 28 99 41 103 11
4 23 23 30 48 6 23 15 50 20 59 5 10 9 27 9 37 0 11 4 23 10 26 9 6 30 71 35
111 2 12 10 32 18 45 9 13 37 110 62 214 28 110 55 198 65 210 10 11 21 34 24
51 7 31 12 34 124 70 116 37 287 119 393 187 192 123 419 362 520 547 l34 61
66 -6 c40 -4 75 -3 86 3 28 15 89 152 120 268 22 82 27 125 29 254 3 116 9
175 24 235 59 230 42 480 -49 695 -43 102 -115 220 -176 289 -30 33 -63 80
-75 103 -44 91 -126 200 -199 264 -29 26 -33 34 -23 46 15 18 34 500 25 636
-6 92 -6 93 -34 99 l-28 5 27 23 27 23 3 174 c6 291 -34 843 -61 860 -7 4 -20
8 -29 8 -11 0 -15 5 -12 14 3 7 -13 104 -36 216 -80 393 -159 604 -372 995
-131 239 -276 390 -452 470 -124 57 -141 59 -606 75 -162 6 -306 12 -320 14
-14 1 -61 -1 -105 -5z m995 -234 c6 -8 9 -18 7 -22 -3 -5 6 -14 21 -21 64 -28
59 -77 -7 -75 -48 2 -86 21 -126 62 -16 17 -40 31 -52 31 -33 0 -28 -19 7 -32
26 -9 50 -34 50 -52 0 -4 -17 1 -37 9 -59 25 -112 82 -98 105 3 6 55 10 114
10 83 0 111 -3 121 -15z m32 -146 c101 -22 196 -81 234 -145 28 -47 30 -74 9
-113 -50 -98 -268 -71 -398 49 -78 71 -98 142 -51 185 38 35 111 44 206 24z
m-432 -129 c4 0 10 -9 13 -20 3 -11 13 -20 22 -20 9 0 14 -4 10 -9 -3 -5 1
-15 8 -23 15 -15 31 -49 29 -61 -1 -4 9 -13 23 -19 16 -7 25 -19 25 -35 0 -12
5 -23 12 -23 20 0 48 -32 48 -56 0 -18 4 -22 16 -17 14 5 16 1 12 -20 -3 -15
-1 -27 3 -27 5 0 9 -6 9 -14 0 -8 12 -19 28 -24 15 -6 20 -11 12 -11 -13 -1
-13 -2 0 -11 10 -6 11 -10 3 -10 -7 0 -13 -7 -13 -16 0 -8 5 -12 10 -9 6 3 10
0 11 -7 3 -44 8 -60 24 -78 14 -16 16 -23 7 -32 -7 -7 -12 -17 -12 -22 0 -6 5
-4 10 4 7 11 10 11 10 2 0 -7 5 -10 10 -7 12 8 13 3 1 -29 -9 -21 -7 -24 8
-21 14 3 17 -2 14 -23 -4 -21 -2 -24 6 -12 12 17 13 12 13 -40 -1 -32 0 -33 7
-10 7 19 9 13 9 -30 0 -30 5 -56 11 -58 6 -2 9 -13 7 -25 -1 -12 -1 -16 1 -9
3 6 9 12 13 12 6 0 6 -11 0 -25 -6 -16 -6 -25 0 -25 16 0 11 -42 -7 -63 -17
-19 -17 -19 3 -13 16 5 20 2 19 -12 0 -9 -4 -23 -8 -29 -4 -6 -2 -13 5 -15 8
-3 2 -11 -13 -22 -30 -19 -72 -30 -64 -15 4 5 -3 22 -14 38 -12 16 -21 32 -21
36 0 3 -12 32 -26 63 -15 31 -44 104 -64 162 -117 324 -152 412 -250 616 -32
67 -62 139 -65 160 l-7 39 42 -42 c23 -24 45 -43 50 -43z m-140 -367 c95 -179
217 -525 285 -808 15 -60 29 -118 31 -127 4 -15 11 -12 40 17 19 19 40 35 46
35 7 0 -5 -17 -25 -38 -20 -21 -37 -42 -37 -46 0 -4 -14 -25 -30 -46 l-30 -38
24 -103 c42 -181 63 -319 106 -712 9 -91 30 -121 88 -132 l37 -8 -35 -9 c-19
-6 -36 -11 -38 -13 -8 -8 0 -440 8 -445 5 -3 5 -11 0 -20 -8 -13 -10 -12 -10
3 0 21 -23 22 -123 3 -125 -24 -322 -101 -406 -159 l-34 -23 -50 24 c-53 26
-228 65 -342 77 -58 7 -68 11 -76 32 -5 13 -8 27 -8 31 1 4 1 53 0 109 l-1
103 -41 6 -41 7 51 25 c65 32 67 41 75 274 3 99 17 262 31 369 l26 192 -21 22
-21 22 19 94 c11 52 23 119 27 149 10 85 110 513 150 645 20 65 47 137 60 159
13 23 44 93 70 156 52 129 123 270 135 270 5 0 32 -44 60 -97z m1485 -2530
c-9 -222 1 -203 -100 -203 -74 0 -86 -2 -95 -20 -10 -18 -21 -20 -118 -20 -59
0 -102 4 -95 8 7 4 31 6 55 5 55 -4 91 4 82 18 -4 8 -9 7 -14 -2 -6 -9 -12
-10 -22 -2 -7 6 -26 9 -43 7 -17 -2 -24 0 -17 5 13 8 6 41 -8 41 -5 0 -11 -9
-15 -19 -3 -11 -12 -22 -20 -24 -10 -4 -12 2 -10 24 3 23 0 29 -15 29 -16 0
-18 -6 -16 -36 2 -20 10 -40 17 -45 9 -5 -12 -9 -56 -10 -38 0 -87 -2 -107 -5
-28 -3 -38 -1 -38 9 0 18 34 57 49 57 6 0 11 5 11 10 0 6 18 10 41 10 22 0 38
4 35 9 -4 5 3 7 14 4 11 -3 26 0 33 6 8 6 17 8 21 4 4 -4 11 -1 15 6 5 7 30
15 57 17 27 2 43 1 37 -2 -15 -7 -17 -34 -3 -34 6 0 19 9 31 21 12 12 27 18
39 14 10 -3 21 -2 24 4 3 5 23 8 44 6 20 -1 45 1 54 6 13 7 21 3 32 -18 l15
-28 -5 31 c-5 26 -2 32 18 39 19 6 20 8 6 12 -10 2 -18 8 -18 13 0 10 40 7 58
-4 17 -10 15 3 -4 22 -15 14 -15 17 -1 27 9 6 16 20 16 31 0 10 2 28 5 39 2
11 5 37 5 58 1 20 3 37 6 37 3 0 3 -71 0 -157z m-677 -279 c4 -2 -33 -363 -43
-434 -10 -65 -10 -65 235 -65 205 0 223 1 235 19 16 21 21 60 44 304 l16 173
84 3 83 2 -8 -105 c-5 -58 -9 -180 -9 -271 1 -146 3 -171 23 -219 11 -30 19
-58 16 -63 -3 -5 0 -7 7 -6 6 2 14 -3 17 -11 3 -9 0 -11 -8 -6 -9 5 -11 4 -6
-4 4 -6 10 -9 14 -7 4 2 27 -14 52 -36 30 -27 35 -33 13 -19 -18 12 -35 26
-38 31 -4 6 -11 10 -16 10 -6 0 -7 -4 -4 -10 10 -17 -7 -11 -22 8 -14 16 -14
16 -9 -3 6 -19 5 -19 -8 -2 -7 9 -20 17 -29 17 -9 0 -19 5 -23 11 -4 8 -9 8
-17 0 -15 -15 -27 -14 -27 4 0 9 -10 15 -26 15 -14 0 -23 4 -19 10 3 6 -4 10
-17 10 -21 1 -22 2 -5 14 16 13 16 15 -8 30 -23 15 -25 15 -25 -1 -1 -17 -2
-16 -15 1 -10 13 -15 15 -15 6 0 -9 -5 -8 -20 5 -11 10 -17 22 -13 28 3 6 1 7
-6 3 -6 -4 -9 -12 -6 -17 4 -5 2 -9 -4 -9 -5 0 -13 5 -16 10 -3 6 -12 10 -18
10 -9 0 -9 -2 0 -8 8 -5 7 -12 -4 -27 -13 -16 -15 -17 -10 -2 5 12 1 17 -14
17 -15 0 -19 5 -16 15 4 8 2 17 -4 20 -5 4 -9 3 -8 -2 3 -18 -2 -24 -13 -17
-22 14 -132 12 -160 -2 -30 -16 -49 -2 -21 15 10 6 13 11 6 11 -6 0 -18 -8
-25 -17 -15 -21 -79 -27 -90 -10 -10 16 -48 18 -48 2 0 -6 -7 -12 -15 -12 -8
0 -12 5 -8 10 3 5 -4 6 -17 2 -14 -4 -20 -3 -16 3 8 14 -29 22 -45 10 -11 -8
-10 -9 3 -4 10 3 20 1 23 -4 4 -6 -3 -10 -14 -10 -11 0 -27 -10 -35 -22 -15
-21 -16 -21 -17 -3 0 18 -1 17 -10 -3 -5 -13 -13 -21 -18 -18 -5 3 -11 -3 -14
-14 -3 -13 -13 -20 -29 -19 -22 0 -22 1 -3 9 18 8 17 9 -8 9 -20 1 -26 5 -21
14 4 6 -4 2 -18 -11 -13 -12 -27 -20 -30 -17 -3 3 -11 -2 -19 -12 -12 -15 -12
-16 5 -10 16 6 17 5 6 -8 -7 -9 -16 -12 -19 -7 -3 5 -40 -13 -81 -40 -41 -27
-113 -74 -159 -104 -46 -31 -80 -51 -77 -45 4 6 71 53 149 104 83 55 161 114
185 142 50 57 106 166 127 250 11 43 44 330 45 393 0 4 174 -10 178 -14z m457
-2 c-5 -4 -11 -45 -12 -92 -1 -47 -4 -104 -8 -128 l-6 -42 -207 2 c-162 2
-206 6 -204 16 1 7 5 66 9 132 l6 120 216 0 c119 0 212 -4 206 -8z m-2452 -81
c4 -15 0 -19 -15 -16 -14 3 -18 0 -14 -10 3 -8 2 -14 -2 -13 -14 3 -42 -14
-36 -23 3 -5 1 -9 -5 -9 -5 0 -18 -18 -27 -41 -17 -36 -20 -39 -31 -23 -8 11
-13 13 -13 5 0 -7 -6 -9 -12 -6 -7 4 -4 -1 6 -9 18 -15 18 -16 2 -16 -9 0 -14
-4 -11 -10 3 -5 0 -10 -7 -11 -10 0 -11 -2 0 -6 9 -3 7 -10 -9 -24 -12 -10
-17 -19 -11 -19 18 0 10 -23 -13 -37 -18 -11 -18 -12 -2 -13 10 0 15 -5 12
-10 -4 -6 -11 -8 -16 -5 -5 4 -9 0 -9 -7 0 -9 -3 -9 -10 2 -6 9 -10 10 -10 3
0 -6 5 -15 11 -18 7 -5 5 -13 -5 -24 -12 -13 -13 -20 -4 -29 9 -9 9 -12 0 -12
-6 0 -9 -7 -6 -15 3 -8 -1 -22 -10 -31 -9 -8 -14 -20 -11 -25 4 -5 0 -9 -7 -9
-11 0 -10 -2 0 -9 11 -7 10 -9 -3 -15 -9 -3 -13 -11 -10 -16 4 -6 4 -19 0 -28
-4 -9 -9 -30 -10 -47 -1 -16 -3 -30 -4 -30 -5 0 -20 -74 -23 -107 -1 -16 -6
-28 -10 -28 -4 0 -8 -5 -8 -11 0 -5 5 -7 10 -4 6 3 10 1 10 -4 0 -6 -6 -11
-12 -11 -7 0 -5 -5 4 -11 17 -9 17 -12 2 -34 -15 -23 -15 -25 2 -25 12 0 15
-3 8 -8 -12 -8 -14 -133 -1 -125 4 2 7 -1 7 -6 0 -6 -6 -11 -12 -11 -9 0 -9
-3 1 -9 11 -7 10 -10 -5 -15 -10 -3 -5 -4 12 -2 31 2 31 1 23 -28 -11 -38 -11
-38 0 -32 11 7 9 -13 -3 -33 -6 -9 -5 -12 2 -7 6 4 11 -1 11 -11 1 -40 5 -53
14 -53 5 0 3 -8 -4 -17 -9 -11 -10 -14 -2 -10 9 6 12 -2 11 -28 -1 -24 5 -40
18 -50 11 -8 14 -15 7 -15 -21 0 -15 -34 8 -48 13 -8 18 -19 15 -29 -5 -11 -2
-14 11 -9 11 5 14 4 8 -2 -5 -5 -25 -14 -42 -20 -28 -9 -34 -8 -43 7 -7 15 -5
22 13 35 22 16 22 17 0 6 -29 -13 -33 -13 -27 4 4 11 -1 13 -18 10 -17 -4 -16
-2 7 9 26 12 27 14 10 20 -11 5 -22 3 -27 -5 -6 -10 -8 -8 -8 5 0 9 -8 18 -17
18 -16 1 -16 2 -1 6 9 2 19 11 22 20 5 11 2 14 -10 9 -14 -6 -15 -4 -4 10 11
13 11 17 0 24 -10 6 -8 9 6 13 16 4 16 5 -3 6 -30 1 -38 19 -18 41 16 18 16
18 -4 13 -16 -4 -19 -1 -16 16 3 15 -1 21 -13 22 -12 0 -10 3 7 10 19 8 21 12
11 24 -7 8 -17 12 -24 9 -6 -3 -2 2 8 10 15 12 16 16 5 16 -12 0 -12 2 1 10
13 8 8 14 -10 12 -3 0 -6 8 -6 18 0 12 4 16 11 10 7 -6 11 -2 11 11 0 10 -6
19 -13 19 -14 0 -17 12 -6 24 9 9 13 36 5 36 -4 0 -13 9 -20 21 -11 17 -11 20
0 13 10 -6 10 -4 -1 9 -8 11 -9 17 -3 17 7 0 9 7 5 17 -4 11 -3 14 5 9 8 -5
10 -2 6 8 -3 9 -9 14 -13 12 -4 -3 -7 8 -6 24 0 15 3 26 6 24 4 -2 10 3 13 12
3 8 2 12 -4 9 -15 -9 -12 22 5 55 9 18 11 31 5 35 -13 8 -13 45 0 45 12 0 9
22 -5 32 -6 4 -2 8 8 8 9 0 17 5 17 11 0 5 -4 8 -8 5 -4 -2 -8 4 -8 14 0 10 3
18 6 18 18 -2 23 4 10 12 -12 8 -10 10 8 10 13 0 21 4 17 10 -3 5 -13 7 -23 4
-15 -5 -15 -4 1 6 15 10 16 14 5 28 -10 12 -10 14 0 8 7 -4 12 -1 12 8 0 9 -6
16 -12 17 -7 0 -4 4 7 9 12 5 14 9 6 9 -11 1 -10 4 4 15 10 7 16 19 13 27 -6
16 16 41 28 31 5 -4 2 1 -5 10 -11 15 -11 19 2 24 9 3 13 12 10 20 -3 9 2 14
18 15 17 1 19 3 7 6 -10 2 -18 9 -18 14 0 6 5 7 10 4 6 -3 10 -1 10 5 0 6 7
18 15 27 8 8 13 18 10 23 -3 5 3 7 12 6 23 -4 46 26 30 36 -7 5 -2 8 13 9 23
0 24 1 5 10 -17 8 -17 9 7 6 18 -3 25 0 21 9 -2 6 0 15 6 19 6 3 11 0 11 -7 0
-10 3 -9 9 2 6 8 7 19 3 25 -3 5 1 4 10 -3 14 -11 18 -11 25 1 4 8 17 19 28
25 11 6 14 12 7 12 -7 0 -10 5 -7 10 4 6 10 8 15 5 5 -3 11 4 15 15 7 23 20
19 28 -9z m1437 -105 c0 -2 -15 -13 -32 -25 -18 -11 -42 -28 -54 -39 -11 -11
-30 -25 -42 -31 -12 -6 -22 -17 -22 -23 0 -7 4 -7 14 1 8 7 17 8 20 3 3 -6 -4
-12 -15 -15 -12 -3 -18 -10 -14 -16 3 -7 0 -8 -10 -5 -11 5 -14 2 -9 -10 4
-12 2 -15 -9 -10 -8 3 -18 1 -22 -5 -3 -6 -1 -11 6 -11 8 0 8 -4 -1 -15 -7 -8
-20 -15 -29 -15 -14 0 -14 -2 -1 -11 12 -8 8 -9 -15 -6 -16 2 -24 2 -17 0 18
-7 15 -23 -5 -23 -15 0 -16 -2 -3 -10 12 -8 11 -10 -7 -10 -12 0 -25 -5 -28
-10 -4 -6 -11 -8 -16 -5 -5 4 -9 0 -9 -8 0 -13 -30 -44 -60 -62 -13 -7 -13 -6
-2 7 11 14 10 16 -8 11 -13 -4 -19 -11 -16 -20 4 -11 1 -13 -14 -8 -15 5 -18
3 -14 -9 3 -9 1 -16 -6 -16 -6 0 -8 5 -5 10 3 6 1 10 -4 10 -6 0 -11 -4 -11
-10 0 -5 -9 -10 -20 -10 -10 0 -23 -6 -27 -12 -4 -7 -19 -22 -32 -33 -30 -25
-20 -5 25 50 110 136 274 269 439 357 75 40 75 40 75 34z m970 -675 c210 -61
383 -189 480 -354 17 -28 19 -41 11 -51 -6 -7 -8 -16 -4 -20 4 -4 0 -4 -10 -1
-9 4 -26 22 -37 40 -33 54 -176 182 -248 222 -144 81 -279 113 -470 113 -114
0 -235 -17 -327 -45 -16 -4 -15 -3 3 6 25 13 27 22 12 49 -13 25 -7 28 98 51
123 27 383 21 492 -10z m-1823 -178 c-204 -446 -257 -629 -258 -879 0 -151 37
-341 82 -426 6 -10 7 -18 4 -18 -21 0 -93 212 -111 325 -3 21 -10 49 -15 62
-5 14 -9 47 -9 74 0 27 -4 49 -10 49 -13 0 -37 39 -46 75 l-7 30 22 -27 c12
-16 27 -28 32 -28 5 0 9 24 9 54 0 73 32 224 70 326 17 47 30 85 30 85 1 0 3
10 6 23 4 12 10 22 15 22 5 0 8 3 8 8 -1 4 0 9 1 12 1 3 3 12 5 20 1 8 19 49
38 91 19 41 37 84 39 95 1 10 11 26 20 35 10 9 21 30 24 47 4 18 10 29 15 27
14 -9 6 -49 -15 -67 -10 -10 -14 -18 -8 -18 7 0 12 -7 12 -15 0 -8 -7 -15 -15
-15 -9 0 -15 -6 -14 -12 3 -25 -1 -39 -10 -34 -5 4 -7 -3 -4 -14 4 -16 2 -19
-11 -14 -9 3 -16 1 -16 -5 0 -6 6 -11 13 -12 10 0 10 -2 0 -6 -7 -2 -13 -12
-13 -22 0 -9 -5 -22 -12 -29 -7 -7 -8 -12 -2 -12 5 0 4 -4 -3 -8 -6 -4 -14
-20 -17 -36 -3 -15 -10 -34 -17 -42 -6 -8 -9 -14 -5 -14 3 0 -8 -37 -24 -82
-48 -131 -29 -100 34 55 63 153 196 431 203 423 3 -3 -15 -49 -40 -103z m-223
-210 c7 -23 -18 -40 -30 -21 -5 7 -2 8 7 3 8 -5 11 -4 6 1 -5 5 -12 9 -15 9
-4 0 -14 4 -22 10 -13 8 -13 7 -1 -9 13 -16 12 -17 -15 -11 -26 5 -27 4 -8 -6
12 -6 27 -22 33 -35 6 -13 15 -24 19 -24 5 0 7 -11 5 -25 -5 -23 -7 -24 -32
-11 -63 33 -87 106 -55 167 7 15 10 30 6 34 -4 5 -1 4 7 0 11 -6 13 -4 8 8 -3
9 14 -3 37 -27 24 -23 46 -52 50 -63z m911 57 c-3 -10 -1 -28 4 -39 9 -16 -2
-36 -67 -123 -89 -119 -161 -257 -194 -373 -20 -68 -23 -102 -22 -235 0 -112
5 -170 16 -210 10 -34 13 -59 7 -65 -6 -5 -9 -4 -9 4 0 10 -3 11 -14 2 -11 -9
-17 -4 -29 27 -58 144 -66 328 -24 493 27 102 84 227 150 323 39 58 173 216
183 216 3 0 3 -9 -1 -20z m987 -129 c186 -65 297 -230 286 -425 -15 -253 -221
-483 -503 -562 -61 -17 -317 -28 -292 -12 9 6 8 8 -3 8 -21 0 -156 65 -164 79
-10 15 -29 14 -20 -1 4 -7 4 -10 0 -6 -4 3 -8 10 -8 15 0 4 -16 25 -35 47 -60
66 -97 158 -101 253 -5 100 9 166 50 249 87 175 256 309 459 364 95 26 245 22
331 -9z m-2504 -688 l-23 -14 24 7 c20 5 23 3 17 -12 -6 -18 -5 -18 9 0 11 14
15 16 15 5 0 -11 2 -11 8 -1 6 8 9 1 9 -20 0 -17 5 -34 11 -36 7 -2 10 -7 8
-11 -3 -4 7 -7 22 -6 19 0 27 -6 31 -23 3 -13 10 -23 14 -22 4 0 15 -6 23 -15
14 -13 14 -15 0 -15 -9 0 -16 -4 -16 -8 0 -5 14 -7 30 -4 23 3 30 0 30 -12 0
-10 4 -15 9 -11 6 3 15 -3 20 -14 9 -16 7 -20 -14 -25 -14 -4 -25 -11 -25 -16
0 -5 -7 -7 -15 -4 -8 4 -13 9 -11 13 2 3 -2 15 -10 26 -12 16 -14 16 -14 3 0
-9 -4 -19 -9 -23 -6 -3 -8 3 -6 13 3 15 -2 18 -28 15 -26 -3 -28 -1 -12 6 15
7 16 10 5 11 -8 2 -19 2 -23 1 -5 -1 -7 4 -4 11 2 7 9 12 15 11 6 -2 9 4 5 12
-4 12 -9 13 -19 4 -20 -16 -35 -1 -29 29 3 15 2 21 -1 15 -3 -7 -15 -13 -27
-13 -18 0 -19 2 -7 10 13 8 13 10 -2 10 -18 0 -42 33 -31 44 3 3 -1 6 -10 6
-9 0 -17 5 -17 10 0 6 -8 10 -17 10 -16 1 -16 2 1 15 19 15 19 15 -3 15 -12 0
-19 4 -16 10 4 6 10 8 15 5 4 -3 10 1 13 9 4 10 -1 13 -16 10 -20 -4 -20 -4
-2 4 12 6 33 3 58 -6 38 -16 38 -16 15 -29z m2018 -744 c3 -6 -2 -58 -11 -115
l-18 -104 -34 0 c-18 0 -33 3 -33 7 0 20 32 182 40 201 10 23 44 30 56 11z"/>
<path d="M4312 7365 c-47 -21 -58 -57 -32 -111 47 -97 227 -182 329 -154 43
11 81 50 81 82 0 120 -247 240 -378 183z m314 -126 c23 -41 40 -76 38 -78 -5
-5 -364 83 -364 90 0 4 26 12 58 18 31 6 91 20 132 30 41 11 80 18 85 17 6 -1
29 -36 51 -77z"/>
<path d="M4611 2684 c-91 -24 -171 -73 -251 -154 -192 -191 -209 -441 -41
-592 73 -66 142 -90 269 -96 90 -4 112 -1 185 22 177 55 319 190 372 354 25
77 17 210 -15 277 -29 59 -93 126 -147 154 -98 49 -261 65 -372 35z m275 -164
c55 -27 111 -91 125 -144 48 -177 -102 -372 -314 -409 -265 -45 -417 213 -252
429 37 49 122 106 195 132 80 28 177 25 246 -8z"/>
<path d="M4658 2506 c-146 -42 -250 -165 -250 -296 0 -141 105 -227 265 -218
165 10 302 137 314 292 10 133 -75 221 -222 231 -34 3 -81 -1 -107 -9z m130
-228 c23 -116 39 -214 36 -217 -3 -3 -77 -7 -165 -9 l-160 -4 56 103 c30 57
83 157 118 222 34 64 64 117 67 117 4 0 25 -95 48 -212z"/>
<path d="M4647 2263 c-41 -76 -80 -148 -86 -160 -11 -22 -10 -23 31 -23 l43 0
58 106 58 105 -11 55 c-6 30 -13 54 -15 54 -2 0 -37 -62 -78 -137z"/>
</g>
</svg>
