<?xml version="1.0" standalone="no"?>
<!DOCTYPE svg PUBLIC "-//W3C//DTD SVG 20010904//EN"
 "http://www.w3.org/TR/2001/REC-SVG-20010904/DTD/svg10.dtd">
<svg version="1.0" xmlns="http://www.w3.org/2000/svg"
 width="1920.000000pt" height="1280.000000pt" viewBox="0 0 1920.000000 1280.000000"
 preserveAspectRatio="xMidYMid meet">
<metadata>
Created by potrace 1.16, written by Peter Selinger 2001-2019
</metadata>
<g transform="translate(0.000000,1280.000000) scale(0.100000,-0.100000)"
fill="#000000" stroke="none">
<path d="M6925 11570 c-11 -3 -65 -8 -120 -9 -55 -2 -106 -6 -115 -10 -8 -4
-55 -8 -103 -9 -48 -1 -92 -4 -97 -7 -4 -3 -11 1 -13 7 -4 9 -8 9 -14 3 -4 -5
-48 -11 -98 -12 -49 -1 -116 -3 -148 -5 -33 -2 -57 1 -57 7 0 6 -4 5 -8 -1 -4
-6 -24 -11 -45 -10 -20 0 -37 -1 -37 -4 0 -3 -26 -6 -57 -8 -32 -2 -62 -7 -68
-12 -5 -4 -31 -5 -57 -1 -37 6 -51 4 -64 -8 -9 -9 -14 -11 -11 -5 4 7 -9 11
-38 10 -25 0 -45 -5 -46 -11 0 -5 -3 -2 -7 7 -6 16 -10 16 -33 4 -16 -8 -33
-10 -47 -5 -12 5 -22 5 -22 1 0 -4 -10 -7 -22 -8 -58 -3 -123 -16 -130 -27 -6
-9 -8 -9 -8 1 0 9 -7 11 -22 6 -13 -4 -42 -8 -66 -9 -24 -2 -45 -5 -48 -8 -3
-3 -12 -3 -20 0 -8 3 -14 1 -14 -5 0 -5 -13 -8 -30 -7 -16 1 -30 -1 -30 -6 0
-4 -8 -8 -17 -7 -29 0 -144 -19 -208 -35 -33 -9 -71 -15 -85 -15 -30 0 -133
-23 -140 -31 -3 -3 -16 -8 -30 -10 -33 -4 -55 -9 -55 -11 0 -1 -9 -3 -20 -5
-11 -2 -38 -9 -60 -15 -22 -6 -52 -12 -67 -15 -15 -2 -36 -9 -48 -15 -11 -6
-40 -13 -65 -15 -26 -3 -54 -9 -63 -14 -16 -8 -79 -23 -114 -26 -9 -1 -25 -6
-35 -10 -22 -10 -37 -13 -80 -19 -18 -3 -41 -10 -51 -15 -11 -6 -22 -8 -25 -4
-4 3 -13 1 -21 -6 -8 -6 -38 -14 -67 -17 -30 -3 -61 -8 -69 -11 -8 -4 -21 -5
-27 -4 -7 1 -13 -3 -13 -9 0 -5 -18 -10 -40 -10 -22 0 -40 -4 -40 -10 0 -5
-13 -10 -29 -10 -17 0 -32 -4 -35 -9 -4 -5 -29 -12 -56 -16 -28 -4 -50 -11
-50 -16 0 -4 -7 -6 -15 -2 -9 3 -24 -2 -34 -11 -11 -10 -21 -13 -22 -7 -2 5
-22 1 -44 -10 -22 -11 -49 -22 -60 -23 -23 -4 -50 -13 -82 -28 -11 -6 -26 -8
-31 -4 -6 3 -13 2 -16 -3 -4 -5 -24 -12 -46 -16 -22 -4 -40 -11 -40 -17 0 -6
-7 -8 -15 -5 -8 4 -17 1 -21 -4 -3 -6 -17 -9 -31 -6 -15 3 -27 -1 -30 -10 -3
-8 -13 -11 -23 -8 -9 3 -30 -1 -46 -10 -16 -8 -41 -15 -56 -15 -16 0 -28 -5
-28 -11 0 -6 -10 -9 -23 -7 -13 2 -28 -1 -35 -8 -7 -8 -20 -10 -29 -7 -12 5
-15 2 -11 -9 5 -11 1 -14 -18 -10 -13 2 -24 0 -24 -5 0 -9 -6 -11 -49 -15 -11
-1 -18 -5 -15 -9 2 -4 -6 -11 -18 -14 -13 -4 -36 -13 -53 -20 -56 -24 -77 -31
-95 -34 -5 0 -7 -9 -4 -18 5 -16 4 -16 -8 -3 -13 16 -53 16 -43 0 6 -9 -53
-32 -65 -25 -4 3 -10 -1 -13 -9 -3 -8 -21 -17 -39 -21 -18 -4 -41 -14 -50 -22
-9 -8 -32 -16 -50 -18 -21 -1 -34 -8 -36 -19 -2 -9 -8 -17 -13 -17 -18 -3 -25
-5 -73 -27 -27 -12 -55 -22 -62 -22 -8 0 -14 -4 -14 -10 0 -5 -5 -10 -10 -10
-6 0 -28 -12 -50 -26 -22 -15 -44 -23 -51 -18 -8 4 -9 3 -5 -4 4 -7 1 -12 -7
-12 -8 0 -20 -7 -27 -15 -7 -9 -15 -13 -18 -10 -3 2 -11 -3 -19 -13 -9 -10
-11 -11 -7 -2 5 8 -7 3 -25 -12 -18 -16 -37 -28 -43 -28 -5 0 -23 -9 -39 -21
-16 -11 -29 -17 -29 -14 0 4 -7 0 -15 -9 -8 -8 -15 -19 -15 -24 0 -6 -9 -8
-20 -5 -14 4 -20 0 -20 -11 0 -10 -6 -13 -15 -10 -8 4 -15 1 -15 -6 0 -6 -4
-8 -10 -5 -5 3 -10 2 -10 -4 0 -13 -55 -42 -64 -34 -3 4 -6 -1 -6 -10 0 -9 -4
-17 -10 -17 -5 0 -23 -14 -40 -30 -17 -17 -35 -28 -40 -25 -4 3 -10 -2 -14
-10 -3 -8 -12 -15 -21 -15 -9 0 -15 -9 -15 -22 0 -18 -2 -20 -10 -8 -7 12 -13
10 -34 -13 -14 -15 -32 -27 -41 -27 -8 0 -15 -4 -15 -10 0 -15 -50 -61 -61
-55 -5 4 -9 -1 -9 -9 0 -9 -3 -15 -8 -13 -4 1 -16 -7 -28 -18 -31 -29 -63 -55
-70 -55 -8 0 -30 -23 -33 -35 -2 -5 -7 -17 -12 -25 -7 -13 -8 -13 -9 0 0 9 -6
5 -17 -10 -26 -39 -72 -90 -80 -90 -5 0 -8 -8 -8 -18 0 -10 -7 -16 -18 -14
-11 2 -17 -4 -17 -16 0 -10 -11 -24 -24 -31 -13 -7 -23 -20 -22 -28 0 -9 -6
-18 -14 -20 -13 -4 -13 -3 0 7 13 10 13 11 0 7 -8 -2 -16 -9 -16 -15 -1 -7 -3
-15 -4 -19 -1 -5 -2 -11 -1 -15 0 -5 -5 -7 -11 -5 -7 1 -14 -8 -16 -20 -2 -16
-8 -20 -20 -16 -14 5 -15 3 -5 -7 10 -11 6 -19 -17 -42 -16 -15 -28 -28 -25
-28 2 0 -11 -29 -30 -64 -19 -35 -36 -72 -38 -82 -7 -33 -29 -84 -36 -84 -4 0
-8 -14 -9 -32 -1 -17 -9 -45 -16 -62 -23 -51 -48 -155 -40 -167 3 -6 2 -14 -4
-18 -9 -5 -18 -46 -27 -118 -1 -13 1 -23 5 -23 7 0 6 -27 -3 -50 -7 -17 -4
-100 3 -100 3 0 5 -17 6 -37 1 -50 15 -176 20 -184 2 -4 -2 -29 -10 -57 -7
-28 -9 -55 -4 -60 4 -4 9 -27 10 -50 1 -22 4 -40 7 -38 3 2 6 -11 6 -30 0 -19
-4 -34 -9 -34 -5 0 -3 -7 4 -15 6 -8 9 -19 5 -25 -3 -5 -2 -10 4 -10 9 0 24
-46 26 -85 1 -11 7 -38 13 -60 6 -22 9 -53 6 -70 -2 -16 -4 -52 -4 -78 0 -27
-4 -46 -9 -43 -5 3 -14 -1 -21 -9 -7 -8 -21 -15 -31 -15 -11 0 -19 -3 -19 -7
0 -5 -44 -8 -98 -8 -53 1 -105 -3 -114 -7 -10 -5 -18 -5 -18 -1 0 12 -163 10
-173 -2 -6 -6 -10 -6 -14 3 -2 6 -10 9 -16 5 -17 -11 -51 -9 -59 2 -5 6 -8 5
-8 -2 0 -15 -36 -17 -45 -3 -4 6 -13 7 -23 1 -9 -5 -29 -8 -44 -6 l-28 3 0
-428 c0 -331 3 -430 12 -436 12 -8 35 -10 48 -4 3 1 57 3 120 4 63 1 121 5
128 9 7 5 12 4 12 -2 0 -7 17 -9 48 -4 26 3 57 6 70 6 12 -1 22 4 22 9 0 6 8
7 18 3 9 -4 33 -7 52 -5 19 1 42 2 50 2 8 1 21 5 27 11 9 6 13 6 13 -1 0 -6
17 -5 47 4 31 9 50 11 58 4 6 -5 15 -7 18 -3 11 10 57 12 57 2 0 -5 16 -9 35
-9 19 0 35 -4 35 -9 0 -5 15 -19 34 -32 37 -25 69 -85 73 -137 1 -19 11 -50
21 -70 10 -21 22 -54 26 -75 4 -21 11 -35 16 -32 5 3 14 -19 21 -50 7 -30 15
-52 20 -50 4 3 14 -14 22 -37 8 -24 20 -42 26 -40 6 1 11 -9 11 -23 0 -13 15
-41 33 -61 17 -21 31 -40 31 -43 -1 -3 2 -5 7 -3 5 1 9 -2 9 -8 0 -17 54 -124
72 -144 10 -11 18 -23 18 -28 0 -4 7 -8 15 -8 8 0 15 -4 15 -8 0 -5 20 -30 45
-58 24 -27 44 -57 45 -67 0 -10 6 -20 14 -23 9 -3 12 -12 9 -21 -4 -11 -2 -14
5 -9 8 4 10 2 6 -8 -3 -8 2 -16 13 -19 16 -4 16 -5 1 -6 -25 -1 -23 -21 2 -21
11 0 20 -7 20 -15 0 -8 5 -15 11 -15 5 0 8 -4 5 -9 -3 -4 4 -17 15 -27 11 -10
17 -24 15 -31 -8 -19 4 -43 21 -43 8 0 13 -8 11 -17 -2 -12 3 -17 14 -15 13 2
16 -2 11 -14 -4 -12 -3 -15 6 -10 8 6 11 2 9 -10 -2 -11 2 -18 10 -16 6 1 12
-5 12 -14 0 -8 -4 -13 -8 -10 -4 2 -8 -4 -8 -15 0 -12 5 -18 13 -15 15 6 18
-10 3 -19 -5 -3 -10 -9 -10 -13 0 -15 60 -72 84 -82 15 -5 26 -17 26 -25 0 -9
4 -14 9 -10 5 3 12 1 16 -5 3 -5 0 -10 -7 -10 -8 0 -6 -5 5 -11 10 -6 17 -22
17 -39 0 -17 9 -39 20 -50 11 -11 20 -25 20 -31 0 -6 8 -8 19 -4 12 3 21 0 25
-10 3 -9 10 -13 16 -10 5 3 10 1 10 -5 0 -15 26 -41 34 -33 3 3 9 -8 12 -25 4
-18 10 -29 15 -27 17 11 21 -19 4 -31 -16 -12 -15 -14 9 -20 15 -3 31 -15 37
-25 5 -10 13 -18 17 -18 23 3 50 -14 45 -29 -5 -11 -2 -14 10 -9 10 4 17 2 17
-4 0 -6 9 -9 20 -6 15 4 20 0 20 -15 0 -13 5 -18 14 -15 10 4 13 1 9 -9 -3 -9
4 -28 16 -44 25 -34 27 -48 6 -30 -10 9 -15 9 -15 1 0 -6 3 -11 8 -11 4 0 23
-10 42 -22 19 -12 43 -21 53 -19 10 1 17 -4 17 -13 0 -10 9 -16 25 -16 16 0
25 -6 25 -15 0 -16 20 -16 33 0 5 6 6 -2 3 -17 -4 -16 -1 -29 7 -32 9 -5 9 -7
0 -12 -7 -3 -13 -12 -13 -20 0 -12 4 -12 21 -3 16 8 24 8 33 -2 8 -9 7 -11 -9
-5 -18 6 -18 5 2 -13 12 -10 19 -21 16 -25 -4 -3 3 -6 15 -6 12 0 22 -5 22
-11 0 -6 9 -8 20 -4 11 3 20 2 20 -2 0 -7 79 -34 110 -38 10 -1 60 -49 60 -57
0 -5 -4 -6 -10 -3 -5 3 -10 2 -10 -3 0 -6 7 -12 15 -16 8 -3 15 -11 15 -19 0
-21 44 -57 75 -63 16 -3 32 -7 37 -10 4 -3 8 2 8 11 0 13 2 14 14 3 8 -7 11
-17 8 -22 -3 -5 0 -6 7 -2 6 4 18 0 27 -9 9 -9 24 -13 35 -10 13 4 19 2 19 -9
0 -9 6 -16 14 -16 19 0 30 -31 14 -42 -8 -6 -4 -7 12 -3 l25 6 -23 -20 c-15
-13 -18 -21 -10 -24 10 -4 10 -6 0 -6 -19 -1 12 -31 32 -31 9 0 16 -4 16 -9 0
-4 11 -6 25 -3 15 2 25 0 25 -7 0 -6 7 -11 15 -11 8 0 15 -7 15 -15 0 -8 5
-15 10 -15 6 0 10 5 10 11 0 6 7 3 16 -5 8 -9 22 -16 30 -16 8 0 13 -4 9 -9
-3 -5 3 -11 12 -14 15 -3 14 -6 -7 -14 -24 -11 -24 -11 -5 -20 13 -5 21 -19
23 -41 2 -24 -1 -31 -10 -26 -10 5 -10 4 -2 -5 6 -6 26 -13 44 -16 18 -2 37
-10 41 -17 5 -7 9 -9 9 -4 0 5 7 3 15 -4 8 -6 19 -9 25 -5 5 3 10 2 10 -3 0
-5 10 -9 23 -8 12 1 27 -5 33 -13 7 -9 35 -14 90 -15 43 0 82 -5 86 -11 13
-17 9 -28 -5 -17 -8 7 -18 7 -27 1 -13 -8 -13 -10 -1 -18 8 -5 21 -7 30 -3 9
3 13 2 10 -2 -9 -10 -71 -17 -65 -8 2 4 -4 8 -15 8 -15 0 -19 -7 -19 -37 0
-39 15 -52 58 -52 12 0 20 -2 17 -5 -8 -9 77 -32 88 -25 6 3 7 1 4 -4 -8 -12
47 -12 59 0 4 4 12 7 18 7 7 0 7 -3 -1 -8 -8 -5 -3 -11 14 -19 21 -10 24 -10
19 3 -8 20 11 18 23 -3 10 -17 10 -17 11 1 0 13 5 16 16 12 9 -4 23 -1 30 5
11 9 14 7 14 -7 1 -18 1 -18 14 -2 7 10 16 15 19 11 4 -3 7 0 7 8 0 12 2 11
11 -1 8 -11 9 -3 4 30 -6 46 -23 64 -60 66 -30 2 -75 15 -75 23 0 3 -17 7 -37
9 -20 1 -41 8 -45 15 -5 8 -8 7 -8 -5 0 -21 -16 -24 -23 -5 -3 6 -6 7 -6 1 -1
-6 -14 -9 -32 -6 -22 3 -27 7 -18 13 11 7 10 9 -3 9 -10 0 -18 7 -18 15 0 8 7
15 15 15 8 0 15 -4 15 -10 0 -19 30 3 31 24 1 15 3 16 6 4 4 -14 7 -15 31 -2
15 7 29 21 32 30 6 15 7 15 23 0 17 -18 22 -11 17 23 -1 13 1 13 14 2 14 -12
16 -10 16 8 0 11 6 21 13 21 6 1 1 7 -13 14 -21 12 -26 12 -37 -3 -11 -14 -12
-14 -13 -1 0 23 -32 45 -63 44 -19 -1 -26 3 -23 12 3 7 1 16 -5 19 -5 4 -8 1
-7 -7 2 -7 -3 -12 -11 -10 -7 1 -19 -3 -27 -9 -12 -10 -13 -9 -8 5 7 18 -7 21
-23 5 -8 -8 -13 -7 -18 2 -5 8 -4 10 3 5 7 -4 12 -3 12 3 0 5 -6 12 -12 14 -8
3 -5 6 5 6 10 1 15 5 12 11 -3 6 1 7 10 3 12 -4 13 -8 5 -13 -8 -5 -6 -9 6
-14 9 -3 19 -4 22 -1 3 3 1 5 -5 5 -6 0 -9 9 -6 20 5 17 8 18 21 8 13 -11 14
-9 8 14 -7 31 -4 33 24 16 10 -7 23 -8 27 -4 4 5 3 11 -4 13 -10 4 -10 7 0 18
7 7 15 11 19 9 4 -3 16 1 27 8 26 16 10 52 -20 43 -18 -6 -28 9 -11 18 4 2 2
2 -5 1 -7 -2 -15 1 -18 7 -4 5 -11 7 -16 4 -5 -4 -9 -2 -9 4 0 6 -6 8 -13 5
-8 -3 -20 2 -27 11 -9 11 -16 12 -26 5 -10 -9 -11 -7 -7 9 6 23 18 27 28 11 3
-6 12 -10 18 -9 7 0 2 7 -10 16 -28 19 -29 29 -3 29 11 0 20 -5 20 -10 0 -5 3
-6 6 -3 4 4 1 13 -6 22 -7 9 -10 19 -6 22 4 4 11 2 15 -6 6 -10 10 -9 14 4 4
9 3 13 -3 10 -6 -3 -10 -1 -10 4 0 14 1 14 38 -5 40 -20 66 -53 88 -112 10
-26 27 -58 39 -72 12 -14 39 -54 61 -89 21 -35 53 -74 70 -88 41 -31 121 -40
206 -24 59 11 229 61 273 81 38 17 181 59 255 75 44 10 123 17 190 18 113 1
117 0 152 -27 34 -28 36 -32 41 -109 4 -59 10 -85 24 -98 31 -31 110 -43 593
-89 270 -26 271 -26 298 -93 13 -30 25 -64 27 -77 2 -13 9 -28 15 -34 5 -5 10
-18 10 -28 0 -10 4 -26 9 -36 27 -51 50 -102 46 -102 -7 0 61 -124 139 -254
36 -60 66 -114 66 -119 0 -6 7 -17 16 -26 23 -24 84 -121 84 -134 0 -7 11 -24
24 -38 13 -14 42 -52 65 -85 134 -189 364 -432 611 -644 28 -25 58 -51 65 -57
8 -7 16 -13 20 -13 4 0 28 -21 55 -46 88 -83 125 -114 137 -114 6 0 22 -13 35
-29 14 -16 34 -33 45 -39 22 -12 50 -34 118 -95 23 -20 46 -37 50 -37 4 0 22
-12 41 -28 18 -15 52 -40 75 -57 23 -16 57 -45 76 -62 19 -18 39 -33 43 -33 5
0 28 -15 52 -32 24 -18 59 -42 78 -52 31 -18 64 -43 96 -73 7 -7 17 -13 23
-13 6 0 11 -5 11 -10 0 -12 -24 -23 -54 -24 -12 -1 -27 -5 -34 -10 -20 -12
-147 -40 -227 -50 -21 -3 -48 -9 -60 -15 -40 -19 -100 -37 -120 -37 -11 1 -22
-2 -25 -6 -3 -4 -19 -9 -35 -12 -17 -2 -30 -5 -30 -6 0 -2 -25 -8 -64 -16 -19
-3 -55 -14 -80 -24 -25 -10 -50 -18 -56 -19 -5 -1 -35 -8 -65 -17 -71 -21
-650 -167 -794 -200 -181 -42 -263 -61 -421 -99 -82 -19 -181 -42 -220 -50
-38 -8 -101 -22 -140 -30 -106 -23 -406 -85 -440 -90 -16 -3 -97 -19 -180 -35
-154 -30 -688 -124 -760 -134 -22 -3 -65 -10 -95 -16 -30 -6 -70 -13 -88 -15
-18 -2 -74 -11 -125 -19 -160 -27 -341 -54 -722 -112 -403 -60 -540 -82 -715
-114 -63 -11 -140 -25 -170 -30 -30 -5 -122 -21 -205 -35 -82 -14 -204 -35
-270 -46 -205 -35 -219 -38 -245 -44 -27 -6 -56 -11 -105 -20 -16 -3 -46 -10
-65 -15 -19 -4 -60 -11 -90 -15 -30 -3 -83 -13 -117 -21 -35 -8 -80 -17 -100
-20 -85 -12 -185 -32 -191 -39 -10 -10 1943 -5 1983 5 22 5 101 19 175 30 74
12 149 23 165 26 17 3 39 5 50 5 11 0 37 4 58 10 21 6 64 12 95 15 31 3 78 9
105 14 26 6 51 9 55 9 4 -1 9 -1 12 0 3 2 21 4 40 7 19 2 49 6 65 9 17 3 55
10 85 15 30 5 82 14 115 20 90 17 232 40 306 50 37 5 87 14 110 19 24 5 89 17
144 26 55 10 125 23 155 31 30 7 80 16 110 19 30 4 57 8 60 10 4 2 58 14 121
25 229 42 266 49 369 69 58 11 137 28 175 36 39 9 133 29 210 45 77 16 205 45
285 64 80 19 156 37 170 40 14 2 48 10 75 16 28 5 61 13 75 16 14 2 71 16 126
29 56 14 139 32 185 41 46 8 131 27 189 40 58 14 125 29 150 35 60 14 104 25
170 42 30 9 100 25 155 38 55 12 104 26 110 31 5 4 19 8 32 8 12 0 78 13 145
30 68 16 139 32 158 35 53 9 204 44 306 71 106 28 134 30 134 10 0 -8 4 -17 9
-20 5 -4 7 2 4 12 -2 10 3 24 11 31 9 8 16 11 16 7 0 -3 16 0 35 8 19 8 35 12
35 9 0 -3 6 0 13 6 9 7 24 8 46 1 27 -7 32 -7 27 5 -4 11 2 15 18 15 14 0 27
-6 29 -12 3 -8 6 -6 6 5 1 9 5 17 10 17 5 0 16 3 25 6 9 3 16 1 16 -5 0 -6 -8
-11 -17 -11 -14 0 -15 -2 -4 -9 10 -6 21 -1 37 16 13 14 24 22 24 18 0 -4 6
-2 14 4 10 8 16 9 21 1 3 -5 2 -10 -3 -10 -6 0 -13 -7 -16 -16 -6 -15 -4 -15
10 -3 13 11 18 11 21 2 3 -9 10 -10 22 -4 13 7 20 5 29 -9 10 -16 9 -21 -8
-30 -11 -6 -18 -16 -14 -21 3 -6 8 -22 10 -37 3 -15 6 -36 9 -47 2 -11 4 -23
4 -27 1 -5 5 -8 10 -8 5 0 3 27 -4 60 -8 39 -9 62 -3 66 6 4 13 3 17 -2 3 -5
12 -9 20 -9 8 0 16 -6 19 -12 2 -7 -3 -13 -12 -13 -17 0 -20 -17 -10 -44 3 -9
10 -13 16 -10 5 3 5 11 -2 19 -8 9 -8 15 0 20 17 11 31 -5 24 -28 -5 -17 2
-14 34 16 39 38 39 38 46 15 3 -13 6 -33 6 -44 0 -12 6 -26 13 -32 17 -14 57
-4 57 14 0 7 9 18 20 24 20 11 30 -3 10 -15 -6 -4 -7 -11 -4 -17 4 -7 9 -6 14
2 5 8 12 7 24 -5 13 -14 19 -15 31 -5 11 9 15 9 15 1 0 -6 11 -11 24 -11 30 0
38 -11 25 -30 -8 -13 -12 -12 -24 4 -8 11 -17 17 -20 14 -3 -3 1 -12 9 -20 19
-19 5 -42 -22 -34 -18 6 -19 3 -13 -25 4 -18 12 -34 18 -36 7 -3 9 3 6 15 -2
11 0 23 6 26 6 4 11 0 11 -9 0 -17 28 -51 35 -43 6 6 -18 58 -27 58 -4 0 -5 7
-2 15 9 22 33 18 44 -7 7 -18 9 -19 9 -5 1 21 31 23 31 1 0 -8 5 -12 10 -9 6
3 8 18 4 33 l-5 27 15 -25 c8 -14 12 -28 9 -32 -6 -12 7 -48 18 -48 5 0 9 9 9
20 0 11 7 20 15 20 18 0 20 -17 3 -23 -7 -2 -10 -8 -6 -12 4 -4 16 3 26 16
l19 23 7 -22 c4 -12 5 -26 2 -30 -3 -5 2 -9 10 -9 8 0 13 6 10 14 -3 7 1 13
10 13 10 0 14 -6 11 -14 -3 -7 0 -19 6 -25 8 -8 8 -14 -1 -23 -9 -9 -12 -8
-12 5 0 9 -4 17 -10 17 -13 0 -13 -17 1 -26 6 -3 9 -15 6 -25 -3 -10 -1 -22 4
-25 11 -6 2 -24 -12 -24 -5 0 -9 9 -9 20 0 13 -5 18 -15 14 -18 -7 -45 12 -45
32 0 8 7 14 16 14 11 0 15 -6 11 -20 -6 -24 -1 -25 19 -6 18 19 18 26 -1 26
-8 0 -15 6 -15 14 0 8 -4 18 -10 21 -6 3 -7 -1 -4 -9 7 -18 -7 -21 -23 -5 -6
6 -17 8 -23 4 -9 -6 -8 -10 4 -17 9 -5 16 -14 16 -19 0 -6 -6 -7 -12 -3 -7 4
-5 -2 5 -13 21 -24 22 -33 3 -33 -7 0 -16 9 -19 20 -3 11 -10 20 -16 20 -7 0
-7 -8 -1 -26 14 -35 13 -44 -5 -44 -20 0 -20 -73 0 -90 8 -7 12 -17 8 -23 -3
-6 -1 -7 5 -3 9 5 9 13 2 26 -5 10 -7 25 -4 33 3 8 1 18 -5 22 -8 4 -6 11 4
22 13 13 18 13 33 1 38 -29 41 -45 10 -51 -23 -4 -23 -4 0 -6 15 0 26 -9 29
-21 3 -11 9 -20 13 -20 4 0 5 -11 2 -25 -5 -30 14 -34 23 -5 5 14 12 19 24 15
12 -3 18 0 18 10 0 18 -2 18 -27 5 -16 -9 -21 -3 -36 43 -22 66 -25 100 -7 85
7 -6 13 -21 13 -34 0 -12 5 -26 11 -29 6 -4 8 -13 5 -20 -2 -7 1 -16 9 -18 18
-7 56 3 50 13 -3 5 -1 11 5 15 6 3 10 -4 10 -17 0 -19 2 -20 11 -8 9 13 10 13
6 -2 -3 -9 -1 -18 6 -21 6 -2 2 -6 -10 -9 -16 -4 -20 -2 -16 8 3 8 0 14 -7 14
-8 0 -10 -8 -6 -22 4 -13 8 -30 10 -37 4 -19 28 -28 25 -10 -3 28 1 39 16 39
18 0 18 -1 0 44 -15 36 -15 38 7 56 27 23 42 25 35 6 -3 -7 0 -19 6 -25 8 -8
8 -11 -1 -11 -7 0 -12 5 -12 10 0 6 -7 10 -16 10 -12 0 -14 -7 -9 -32 4 -18
11 -34 16 -36 5 -2 9 -9 9 -16 0 -7 9 -30 19 -52 19 -38 19 -38 17 -8 -2 17
-7 37 -12 45 -12 19 -16 49 -6 49 9 0 37 -68 36 -85 0 -5 8 -19 18 -30 19 -19
19 -19 25 3 3 12 9 19 14 16 5 -3 6 9 3 26 -5 23 -3 30 10 30 9 0 16 -5 16
-11 0 -5 5 -7 10 -4 8 5 7 11 -1 21 -6 8 -8 14 -4 14 11 0 34 -32 35 -47 0 -6
-9 -15 -21 -18 -16 -6 -18 -10 -9 -18 10 -9 14 -9 17 1 3 6 12 12 20 12 11 0
14 7 9 25 -5 18 -2 25 8 25 8 0 21 3 29 6 10 3 18 -5 26 -27 6 -17 9 -34 7
-38 -3 -4 4 -12 15 -19 10 -7 19 -8 19 -3 0 6 -5 13 -10 16 -6 4 -8 10 -5 15
7 12 -20 72 -29 63 -5 -5 -5 2 -2 15 4 12 3 22 -2 22 -5 0 -9 8 -8 18 1 12 -6
17 -23 17 -13 0 -26 6 -29 14 -3 10 1 12 17 8 24 -6 28 11 10 45 -14 27 -5 33
17 11 12 -13 19 -14 22 -5 2 6 8 12 14 12 6 0 7 -7 4 -16 -3 -8 3 -25 14 -36
11 -12 20 -31 20 -43 0 -12 7 -30 15 -41 14 -19 14 -18 15 4 0 12 -4 22 -10
22 -5 0 -7 6 -4 14 3 8 -2 26 -11 40 -19 29 -12 54 10 36 8 -7 19 -9 24 -6 5
4 13 2 16 -4 4 -6 15 -8 25 -5 10 3 21 1 24 -4 4 -6 13 -8 20 -5 8 3 17 1 21
-5 3 -6 17 -8 31 -5 15 4 24 2 24 -6 0 -6 4 -8 10 -5 5 3 15 3 21 -1 7 -4 26
-8 43 -10 90 -7 140 -15 145 -22 4 -4 20 -8 36 -9 83 -5 105 -8 105 -13 0 -3
8 -6 18 -7 23 -3 66 -10 72 -13 3 -1 22 -1 42 0 21 1 43 -2 50 -6 14 -9 20
-10 103 -19 33 -4 67 -9 75 -13 8 -3 20 -7 25 -8 6 -1 12 -3 15 -4 3 -1 25 -3
50 -5 25 -2 59 -6 75 -9 17 -3 71 -10 122 -15 51 -5 96 -12 101 -14 8 -6 78
-13 201 -22 34 -3 68 -8 73 -11 10 -6 62 -14 111 -17 9 -1 17 -4 17 -8 0 -3
16 -5 35 -3 20 1 33 -2 29 -7 -3 -5 0 -9 5 -9 6 0 11 4 11 9 0 8 24 8 85 -1
11 -2 23 -7 28 -13 4 -6 10 -6 15 2 5 8 19 9 47 3 22 -5 42 -5 45 0 7 12 47
-22 53 -46 4 -17 5 -17 6 2 1 28 28 38 47 19 20 -20 32 -19 36 2 3 15 6 15 24
-5 l21 -22 18 20 c24 26 33 25 45 -5 5 -14 17 -25 27 -25 15 0 15 2 -3 16 -18
15 -18 15 9 9 16 -3 27 -1 27 6 0 6 6 9 13 6 6 -2 17 3 23 12 10 12 15 13 27
3 11 -9 17 -10 22 -2 5 8 11 7 22 -1 11 -9 16 -10 22 -1 8 13 25 3 34 -21 5
-14 11 -16 26 -8 10 6 22 7 26 3 4 -4 5 2 1 13 -6 19 -2 21 54 21 40 1 57 -3
53 -10 -4 -6 0 -5 8 1 17 14 41 -1 33 -21 -2 -6 6 -17 18 -25 21 -13 22 -13 9
3 -12 14 -12 19 -1 29 10 9 13 9 17 0 3 -7 11 -13 20 -13 10 0 12 6 8 22 -6
17 -4 20 9 15 9 -4 16 -3 16 2 0 4 8 8 18 9 40 5 134 2 143 -3 5 -4 9 0 9 7 0
8 5 6 11 -4 11 -20 39 -25 39 -7 0 5 4 7 10 4 5 -3 19 -1 31 6 17 9 20 8 14
-2 -6 -9 -2 -11 13 -7 12 4 22 2 22 -3 0 -4 13 -7 29 -6 16 1 29 6 28 11 -5
22 23 14 37 -11 15 -28 16 -28 13 -3 -1 18 2 24 13 21 8 -2 22 -4 30 -4 8 0
22 -5 30 -11 13 -10 13 -9 1 7 -8 9 -11 21 -7 25 4 4 13 -1 20 -11 16 -21 26
-22 26 -2 0 21 9 19 31 -7 14 -17 17 -18 13 -5 -7 20 -1 21 26 5 16 -11 22 -9
33 6 10 14 21 17 41 12 21 -5 26 -4 20 6 -5 10 -4 11 7 1 7 -7 22 -13 34 -13
16 0 17 2 5 10 -12 8 -11 10 7 10 32 0 53 -10 53 -27 0 -12 3 -12 16 2 14 13
19 14 25 3 7 -11 11 -10 20 2 8 11 12 12 16 3 7 -18 24 -16 17 2 -5 11 1 15
24 15 17 0 33 -4 37 -9 3 -6 14 -8 25 -6 11 2 20 -1 20 -6 0 -6 5 -7 10 -4 6
4 8 11 5 16 -4 5 -1 9 4 9 6 0 11 -8 11 -17 0 -15 2 -14 14 3 13 16 18 17 35
7 16 -10 23 -10 35 3 14 14 15 12 12 -13 -2 -15 -1 -22 1 -15 2 6 14 12 25 12
21 0 20 -1 -3 -23 -25 -25 -39 -25 -39 -2 0 8 -6 12 -14 9 -9 -3 -12 -12 -8
-22 5 -14 4 -15 -10 -2 -8 8 -14 20 -11 26 2 7 0 15 -5 18 -5 3 -12 -6 -15
-19 -2 -14 0 -28 4 -31 14 -8 10 -24 -6 -24 -8 0 -15 9 -15 19 0 11 -5 23 -11
27 -12 7 -10 -11 6 -63 4 -13 3 -23 -2 -23 -5 0 -15 21 -22 46 -12 41 -16 45
-26 30 -7 -9 -17 -16 -24 -16 -6 0 -11 -12 -11 -27 1 -24 2 -25 11 -11 12 22
39 24 39 3 0 -9 -6 -12 -17 -8 -13 5 -15 2 -10 -11 4 -10 7 -21 7 -24 0 -4 4
0 10 8 5 8 12 11 16 7 4 -4 2 -13 -4 -19 -10 -10 -17 -10 -32 0 -12 7 -20 8
-20 2 0 -5 5 -10 11 -10 5 0 7 -5 4 -10 -5 -8 -11 -7 -21 1 -12 10 -13 9 -7
-7 6 -17 5 -17 -10 -5 -15 12 -17 10 -17 -18 0 -17 5 -31 10 -31 6 0 10 -11
10 -25 0 -14 4 -25 8 -25 11 0 33 -61 26 -72 -3 -5 -12 -1 -19 9 -7 10 -17 14
-21 10 -5 -4 -4 -11 2 -15 10 -6 23 -45 26 -79 1 -7 6 -9 12 -6 16 10 41 47
38 56 -1 4 2 7 7 7 17 0 19 -25 3 -42 -10 -12 -11 -18 -4 -18 7 0 12 4 12 9 0
5 9 13 21 16 19 6 19 8 5 24 -9 10 -16 23 -16 29 0 7 -5 12 -11 12 -5 0 -7 -5
-4 -10 3 -6 -1 -10 -9 -10 -8 0 -26 24 -40 54 -31 66 -31 66 -6 66 16 0 20 7
21 38 l1 37 13 -32 c11 -23 19 -30 34 -26 13 3 20 -1 23 -13 3 -16 4 -16 20
-1 14 14 17 14 22 2 3 -8 11 -15 17 -15 8 0 8 4 0 14 -7 8 -14 28 -16 45 -4
29 -2 31 23 25 35 -8 47 -20 32 -29 -7 -4 -16 -1 -21 6 -4 7 -11 10 -14 7 -12
-11 18 -35 37 -30 12 3 18 -1 18 -13 0 -15 2 -16 17 -4 13 11 17 11 20 1 3 -6
8 -10 13 -7 4 3 6 -4 3 -16 -3 -12 0 -25 7 -29 7 -4 9 -13 6 -19 -10 -15 -26
-4 -26 18 0 11 -9 21 -21 24 -20 5 -20 5 -3 -14 15 -17 15 -19 1 -19 -9 0 -19
-5 -23 -11 -4 -7 0 -9 14 -5 18 6 23 1 32 -33 12 -45 30 -64 30 -32 0 27 17
27 25 0 4 -11 13 -18 20 -16 7 3 18 0 25 -6 10 -10 11 -6 6 15 -3 15 -2 30 4
33 5 3 11 1 11 -4 3 -23 5 -27 22 -51 13 -19 17 -21 17 -7 0 9 -5 17 -11 17
-7 0 -9 9 -5 24 4 15 1 26 -6 28 -6 2 -8 10 -4 16 11 18 26 14 26 -7 0 -11 5
-23 10 -26 6 -3 10 -17 10 -30 0 -12 7 -25 15 -29 8 -3 15 -1 15 3 0 5 -6 11
-12 14 -10 3 -9 9 3 22 15 16 17 14 23 -19 4 -20 11 -34 17 -31 5 4 9 1 9 -6
0 -7 3 -9 7 -6 3 4 -2 16 -12 27 -18 19 -17 20 3 20 13 0 22 -6 22 -15 0 -8 5
-15 10 -15 6 0 10 10 10 22 0 20 1 20 19 4 11 -10 24 -15 30 -12 5 4 14 -2 20
-11 8 -14 12 -16 22 -5 10 9 10 12 1 12 -7 0 -12 9 -12 19 0 11 -4 23 -10 26
-5 3 -10 15 -10 26 0 12 4 17 11 14 6 -4 8 -13 5 -21 -3 -8 -1 -14 4 -14 5 0
12 -9 15 -20 3 -11 11 -20 17 -20 6 0 7 7 3 18 -4 9 -10 26 -13 37 -5 17 -3
18 11 7 22 -18 32 -69 17 -87 -9 -11 -9 -15 -1 -15 6 0 11 5 11 10 0 6 7 10
15 10 8 0 15 5 15 11 0 5 5 7 11 3 6 -3 33 -9 60 -11 46 -4 49 -3 49 18 0 22
0 22 16 3 8 -10 13 -13 9 -6 -8 16 21 16 32 0 4 -7 8 -17 8 -22 0 -5 6 -11 13
-13 6 -3 12 3 12 12 0 9 5 13 10 10 6 -3 10 1 10 9 0 8 6 21 14 28 8 8 16 23
18 34 5 18 5 18 13 1 5 -12 1 -23 -15 -37 -13 -11 -18 -20 -12 -20 5 0 8 -9 5
-20 -3 -11 0 -20 6 -20 6 0 11 6 11 13 0 7 3 8 8 2 10 -15 45 -12 58 4 9 12
12 12 17 -1 4 -12 23 -15 76 -16 39 0 69 4 66 8 -3 5 -1 11 5 15 5 3 10 0 10
-8 0 -11 18 -15 79 -16 77 -1 79 -1 75 21 -4 21 -4 21 4 3 7 -16 20 -20 66
-22 49 -1 55 1 45 13 -8 10 -8 14 0 14 6 0 14 -7 17 -15 4 -8 16 -15 28 -15
17 0 18 2 6 10 -13 8 -12 10 3 10 9 0 17 -4 17 -9 0 -5 20 -9 45 -9 32 -1 47
3 54 16 9 16 10 16 16 0 10 -25 175 -24 176 1 0 14 1 14 7 0 9 -21 121 -27
133 -7 7 10 9 10 9 1 0 -7 10 -13 23 -12 21 0 21 1 2 9 -19 8 -19 9 3 9 12 1
22 -3 22 -9 0 -5 13 -10 30 -10 23 0 28 4 24 18 -5 15 -4 15 8 1 10 -12 39
-16 150 -17 127 -2 137 -1 132 16 -5 16 -5 16 5 0 10 -15 41 -17 321 -17 249
1 310 3 310 14 0 7 -6 15 -14 18 -8 3 -17 20 -21 38 -7 29 -8 30 -18 13 -6
-10 -16 -23 -24 -27 -7 -4 -13 -15 -13 -24 0 -14 -2 -15 -12 -4 -10 11 -10 14
0 18 6 3 12 11 12 19 0 17 -20 19 -20 2 -1 -7 -8 -2 -16 12 -8 14 -13 17 -10
8 3 -9 -2 -19 -10 -22 -23 -9 -24 -8 -24 16 0 12 -3 18 -7 14 -5 -4 -8 -13 -8
-19 0 -17 -22 -19 -28 -2 -4 8 -2 15 4 15 6 0 7 5 4 10 -9 15 -27 1 -21 -16 6
-16 -10 -19 -20 -3 -3 6 -15 9 -25 6 -14 -4 -21 2 -28 26 -5 18 -10 25 -10 16
-1 -11 -12 -18 -31 -21 -31 -5 -50 7 -50 29 0 7 -4 13 -10 13 -5 0 -10 -7 -10
-16 0 -8 -5 -12 -11 -8 -6 3 -15 0 -20 -7 -4 -7 -11 -10 -16 -6 -4 5 3 16 16
26 24 19 22 41 -5 41 -17 0 -19 -20 -1 -21 6 0 3 -4 -8 -8 -11 -5 -22 -5 -25
-1 -3 5 -16 10 -30 13 -25 4 -25 4 -2 12 12 4 22 11 22 16 0 5 -6 6 -14 3 -8
-3 -17 -1 -21 5 -3 6 -12 11 -18 11 -7 0 -4 -7 6 -14 16 -12 15 -14 -14 -20
-25 -5 -30 -10 -26 -26 3 -11 1 -20 -4 -20 -15 0 -10 40 6 46 12 5 12 11 -2
45 -15 40 -10 67 7 39 8 -13 10 -12 10 3 0 13 -7 17 -29 15 -26 -2 -28 -4 -16
-23 24 -36 23 -60 -3 -60 -12 0 -27 -7 -32 -15 -8 -12 -10 -11 -10 7 0 29 -11
34 -49 23 -19 -5 -31 -5 -31 1 0 5 5 9 10 9 6 0 10 11 10 25 0 14 -5 25 -11
25 -6 0 -9 -9 -6 -20 6 -23 -3 -26 -21 -8 -12 12 -17 1 -13 -31 2 -7 -4 -11
-11 -9 -7 3 -12 12 -10 20 1 8 -6 22 -15 31 -16 14 -21 14 -56 -3 -44 -22 -67
-17 -67 14 0 23 -17 46 -34 46 -6 0 -5 -5 2 -12 15 -15 16 -38 2 -38 -6 0 -17
15 -25 32 -14 32 -19 31 -16 -4 2 -12 -3 -16 -13 -12 -9 3 -16 14 -16 24 0 11
-3 21 -7 23 -5 3 -7 -16 -6 -41 0 -26 -1 -35 -4 -19 -4 28 -23 38 -23 13 0 -8
-5 -18 -10 -21 -7 -4 -9 3 -5 22 3 15 3 23 0 16 -4 -7 -15 -2 -31 14 -21 21
-27 23 -41 11 -14 -11 -16 -11 -8 1 5 10 4 12 -4 7 -14 -9 -51 2 -51 15 0 5 8
9 18 9 14 0 12 4 -8 20 -27 21 -66 27 -55 9 4 -6 13 -8 21 -5 10 4 14 -2 14
-21 0 -23 -2 -24 -17 -12 -15 13 -16 11 -9 -14 6 -26 5 -27 -13 -17 -12 6 -18
16 -15 25 4 9 0 15 -9 15 -11 0 -13 -6 -9 -22 5 -20 4 -21 -9 -8 -8 9 -19 25
-25 35 -6 11 -15 20 -20 20 -5 0 -14 4 -21 8 -6 4 -15 2 -19 -4 -3 -6 0 -15 7
-20 11 -7 11 -9 -3 -9 -9 0 -20 5 -23 10 -5 8 -11 8 -20 0 -15 -12 -41 13 -30
30 3 5 -1 10 -9 10 -9 0 -16 7 -16 15 0 8 5 15 10 15 6 0 10 5 10 10 0 17 -21
11 -40 -12 -10 -13 -22 -20 -26 -15 -12 12 38 59 58 54 20 -6 22 1 8 23 -8 12
-10 12 -10 1 0 -10 -3 -11 -14 -2 -11 9 -15 7 -19 -9 -3 -11 -12 -20 -20 -20
-9 0 -18 -8 -20 -17 -4 -16 -5 -16 -6 -1 0 9 6 24 15 32 15 16 11 41 -6 31 -5
-3 -16 2 -24 11 -9 8 -16 11 -16 5 0 -5 7 -17 16 -25 14 -15 13 -17 -8 -25
-13 -4 -22 -12 -21 -17 1 -5 -10 -7 -26 -6 -16 2 -32 -1 -36 -7 -4 -7 4 -11
19 -11 18 0 24 -5 23 -18 -1 -17 -3 -16 -40 2 -37 18 -38 20 -21 33 10 7 30
13 46 13 30 0 38 14 13 24 -8 3 -15 1 -15 -4 0 -6 -4 -10 -9 -10 -5 0 -7 10
-4 23 4 18 3 19 -6 7 -10 -13 -12 -13 -20 0 -6 8 -13 11 -18 7 -4 -5 -1 -12 6
-16 16 -10 5 -34 -12 -28 -7 2 -12 12 -12 22 0 10 -6 20 -14 23 -10 3 -11 -2
-6 -18 5 -16 4 -21 -6 -18 -8 3 -13 13 -13 22 1 9 -5 16 -13 16 -9 0 -13 8
-11 23 1 12 -2 23 -7 24 -5 2 -10 -5 -10 -14 0 -9 -13 -26 -30 -38 -22 -15
-29 -26 -26 -45 1 -14 8 -28 14 -32 6 -3 12 -19 13 -35 1 -15 0 -21 -2 -12 -3
9 -14 15 -27 14 -14 -1 -15 -1 -4 2 12 3 15 8 9 16 -17 21 -21 98 -5 104 11 4
10 8 -6 20 -12 8 -18 20 -15 31 5 14 4 14 -4 3 -7 -10 -7 -21 -1 -33 6 -12 6
-18 -1 -18 -5 0 -10 -6 -10 -14 0 -8 -7 -16 -15 -20 -8 -3 -15 -1 -15 5 0 5
-5 15 -10 22 -6 7 -17 21 -25 32 -7 11 -17 16 -21 12 -5 -4 -2 -12 5 -17 8 -4
16 -22 18 -40 2 -19 -1 -29 -7 -25 -6 3 -10 13 -10 21 0 8 -5 14 -11 14 -7 0
-8 -7 -4 -17 17 -43 18 -53 1 -47 -9 3 -16 15 -16 25 0 29 -30 69 -51 69 -10
0 -20 4 -24 9 -3 6 7 8 22 5 18 -3 23 -1 15 4 -7 5 -10 16 -6 25 5 14 8 14 20
2 8 -7 14 -25 14 -39 0 -14 4 -26 8 -26 5 0 8 24 6 52 -1 42 0 49 8 31 6 -12
21 -24 34 -27 13 -4 23 -10 22 -14 -4 -11 28 -53 35 -46 9 9 -4 35 -14 28 -5
-3 -9 2 -9 10 0 9 5 16 12 16 6 0 20 7 30 17 17 15 18 15 18 0 0 -10 5 -17 10
-17 6 0 10 5 10 11 0 6 9 8 20 4 22 -7 26 5 9 22 -8 8 -7 13 1 18 8 5 16 1 22
-9 12 -21 25 -20 31 2 4 16 4 16 12 -1 5 -12 2 -22 -11 -32 -15 -11 -16 -14
-4 -15 9 0 23 8 32 19 15 17 14 20 -6 41 l-21 22 23 -12 c30 -15 35 -9 23 24
-7 17 -7 26 -1 26 6 0 10 -6 10 -13 0 -8 6 -14 13 -14 7 0 24 -3 39 -6 15 -4
30 -3 33 3 11 18 27 11 22 -10 -3 -13 0 -20 9 -20 8 0 14 -7 14 -15 0 -8 -7
-15 -15 -15 -8 0 -15 -7 -15 -15 0 -18 16 -20 23 -2 4 9 8 9 16 -3 5 -8 7 -19
3 -25 -3 -5 2 -4 11 4 17 14 24 37 8 27 -13 -9 -21 48 -8 57 7 5 4 6 -8 3 -16
-5 -21 -1 -22 14 -1 12 4 20 14 20 9 0 13 6 9 15 -3 8 -1 15 4 15 6 0 10 -6
10 -12 0 -9 3 -9 9 1 10 16 41 8 41 -11 0 -9 -3 -9 -10 2 -5 8 -12 11 -17 7
-9 -9 17 -28 29 -21 4 2 12 -4 17 -15 13 -24 14 -64 2 -57 -10 6 -25 -24 -16
-32 3 -3 5 1 5 8 0 7 3 11 6 7 3 -3 15 4 26 15 16 16 22 17 34 7 13 -10 17
-10 24 2 8 11 2 15 -25 17 -27 2 -35 8 -35 23 0 10 5 19 10 19 6 0 10 7 10 15
0 8 -4 15 -10 15 -5 0 -9 -3 -7 -7 1 -5 -3 -9 -8 -10 -6 -2 -10 2 -10 8 0 6
-8 17 -18 24 -12 8 -14 15 -8 20 6 3 19 -2 29 -11 16 -17 17 -17 20 6 l4 24
14 -24 c7 -14 13 -20 14 -15 0 6 10 11 23 12 22 2 22 2 2 -15 -11 -9 -21 -26
-23 -36 -3 -14 6 -9 31 17 19 21 40 37 47 37 10 0 10 3 0 14 -9 12 -8 15 8 13
11 0 18 -6 15 -13 -2 -7 0 -15 6 -19 6 -3 11 -14 11 -23 -1 -13 -3 -12 -13 5
-13 24 -34 18 -34 -10 0 -11 6 -16 14 -13 19 8 16 -21 -3 -32 -15 -8 -15 -10
0 -15 12 -5 15 -3 10 5 -5 8 -2 9 9 5 10 -3 17 -2 17 3 0 6 7 10 15 10 8 0 15
-5 15 -12 0 -6 2 -9 5 -6 3 3 -1 21 -10 40 -13 33 -13 37 5 58 10 12 24 19 30
15 6 -4 17 -1 25 5 8 7 16 9 16 4 4 -30 3 -40 -6 -46 -6 -5 -6 -8 2 -8 6 0 15
5 18 10 10 16 45 12 52 -6 3 -8 0 -21 -7 -27 -10 -9 -12 -8 -7 5 3 10 0 19 -9
22 -12 5 -14 1 -8 -17 5 -12 8 -32 9 -45 0 -20 1 -21 13 -5 6 9 12 21 12 26 0
4 4 5 10 2 6 -4 9 6 6 26 -2 18 -10 35 -19 38 -14 5 -14 9 4 31 11 15 17 18
13 7 -3 -9 -1 -24 6 -32 6 -8 9 -18 6 -23 -3 -6 3 -12 14 -15 15 -4 22 1 26
21 8 32 32 62 51 62 7 0 13 6 13 14 0 8 6 16 14 19 23 9 26 -4 5 -22 -13 -10
-18 -22 -14 -34 9 -23 28 -22 21 1 -4 12 -1 19 8 19 8 0 17 -13 20 -29 3 -15
10 -28 16 -28 6 0 6 9 -1 26 -5 15 -7 29 -4 32 3 3 5 0 5 -6 0 -7 5 -12 11
-12 5 0 9 8 8 18 -1 9 0 26 1 37 l2 20 7 -20 c4 -11 13 -32 20 -47 13 -25 12
-30 -4 -48 -16 -18 -16 -20 -2 -20 10 0 17 7 17 15 0 18 12 19 27 4 9 -9 11
-7 6 9 -3 12 -17 34 -32 48 -18 20 -21 26 -8 21 11 -4 20 -1 23 8 9 22 34 18
34 -4 0 -10 7 -22 16 -25 8 -3 12 -2 9 4 -3 6 -1 10 4 10 6 0 11 -9 11 -20 0
-29 30 -22 43 10 4 8 4 -3 1 -25 -4 -27 -2 -36 4 -26 6 8 15 10 23 5 21 -12
82 -13 70 -1 -9 9 -27 13 -68 16 -7 1 -13 6 -13 12 0 5 5 7 10 4 13 -8 50 4
50 16 0 6 -4 8 -8 5 -5 -3 -9 1 -9 9 0 25 16 17 23 -11 6 -22 8 -24 16 -10 14
25 29 19 22 -8 -5 -21 -3 -24 15 -19 12 3 21 1 21 -6 0 -6 -7 -11 -15 -11 -8
0 -15 -7 -15 -15 0 -19 18 -16 44 8 11 10 27 15 34 12 10 -3 12 0 8 10 -4 11
1 15 19 15 14 0 25 5 25 10 0 6 -4 10 -9 10 -5 0 -11 6 -14 14 -5 12 -2 12 21
0 24 -12 27 -12 34 7 5 12 6 25 3 30 -4 5 1 6 10 3 12 -5 14 -14 10 -34 -6
-26 -4 -28 17 -23 13 3 29 10 36 16 6 5 13 7 13 3 3 -13 6 -22 17 -46 8 -18
11 -20 11 -8 1 12 8 17 24 15 18 -2 22 3 20 23 -1 14 0 18 3 8 3 -10 8 -18 10
-18 12 0 33 28 26 35 -4 4 -2 6 3 5 6 -1 20 -2 33 -1 19 1 22 5 17 21 -4 12
-2 20 5 20 6 0 8 5 5 10 -3 6 -2 10 3 10 5 0 9 -15 8 -32 -1 -27 -6 -34 -26
-36 -24 -4 -60 -33 -60 -49 0 -5 8 -16 18 -24 17 -15 20 -15 30 0 10 14 11 14
11 -1 1 -10 6 -18 11 -18 14 0 13 13 -5 46 -8 15 -12 31 -8 34 3 3 8 -1 10 -8
8 -21 38 29 34 57 -2 15 1 21 8 17 6 -4 11 -14 11 -22 0 -8 5 -14 11 -14 6 0
8 8 5 18 -4 12 3 21 25 31 27 12 33 11 47 -4 16 -16 16 -17 -5 -6 -22 11 -22
10 -11 -14 6 -14 15 -25 19 -25 4 0 1 -16 -7 -36 -8 -20 -13 -41 -11 -47 2 -7
7 3 11 21 6 26 11 32 27 27 20 -7 27 9 9 20 -5 3 -10 10 -10 16 0 5 5 9 10 9
6 0 10 -6 10 -14 0 -25 28 -40 53 -28 22 11 22 11 1 11 -12 1 -27 8 -34 16
-15 18 1 20 18 3 10 -10 15 -10 22 1 7 12 12 12 23 3 8 -7 21 -10 29 -7 10 4
17 -1 21 -14 3 -14 0 -21 -9 -21 -8 0 -14 5 -14 12 0 6 -3 8 -7 4 -5 -4 1 -15
12 -23 19 -15 19 -15 -7 -11 -20 4 -28 1 -28 -9 0 -8 5 -11 10 -8 6 3 10 1 10
-4 0 -6 9 -11 20 -11 24 0 26 -9 4 -24 -11 -9 -13 -18 -6 -35 7 -21 10 -22 15
-7 4 10 5 22 1 27 -3 5 1 9 9 9 10 0 13 7 10 20 -3 12 -14 20 -26 20 -20 0
-20 0 -1 14 13 10 21 11 26 3 8 -14 47 -17 55 -4 3 5 0 13 -7 17 -11 7 -10 12
3 25 10 9 17 22 17 28 0 7 -5 4 -10 -5 -14 -22 -46 -15 -75 16 -25 27 -15 47
12 24 15 -11 16 -11 10 6 -7 19 8 46 25 46 6 0 7 -7 4 -15 -3 -8 -9 -23 -12
-33 -5 -15 -4 -15 6 -2 9 12 10 10 6 -12 -4 -16 -2 -28 4 -28 5 0 10 7 10 15
0 21 11 18 38 -9 23 -25 30 -42 12 -31 -5 3 -10 2 -10 -4 0 -5 4 -12 9 -15 5
-3 7 -16 4 -29 -4 -21 -4 -21 10 -4 14 16 15 16 21 1 4 -10 2 -21 -5 -24 -8
-6 -8 -9 0 -14 6 -4 11 -2 11 5 0 7 3 9 6 6 8 -8 64 24 64 36 0 5 -7 3 -16 -4
-15 -12 -16 -11 -9 11 7 22 6 23 -8 12 -9 -8 -13 -20 -10 -28 3 -8 1 -14 -5
-14 -18 0 -21 29 -5 46 16 15 15 16 -15 9 -27 -6 -31 -4 -26 10 4 9 13 14 21
11 8 -3 11 -1 8 4 -3 6 -13 10 -21 10 -8 0 -14 5 -14 10 0 6 5 10 10 10 7 0 7
6 0 19 -14 28 -12 35 5 17 9 -9 23 -12 33 -9 15 6 15 5 3 -10 -8 -10 -9 -17
-3 -17 6 0 15 7 20 16 6 10 12 12 16 6 3 -5 -1 -15 -9 -22 -8 -7 -15 -20 -15
-29 1 -14 2 -14 14 2 8 10 20 15 30 11 12 -5 15 -2 10 10 -3 9 -2 16 3 16 16
0 45 -38 38 -49 -8 -14 5 -14 25 -1 13 9 13 10 0 10 -12 1 -12 3 2 13 23 18
16 51 -12 55 -15 3 -20 0 -15 -8 4 -6 13 -9 20 -6 8 3 11 -2 8 -14 -5 -17 -33
-18 -33 -1 0 4 -22 14 -50 21 -51 14 -67 30 -27 27 12 -1 28 -8 35 -17 11 -13
12 -13 10 5 -1 11 1 25 5 32 5 8 -1 15 -19 19 -14 4 -22 9 -17 13 6 3 15 15
21 26 11 19 11 18 12 -7 0 -30 26 -38 48 -16 6 6 15 8 19 4 4 -4 -6 -18 -22
-31 -17 -13 -27 -27 -23 -31 5 -4 17 1 27 10 18 17 19 17 24 -1 3 -11 5 -7 6
12 1 23 3 27 11 15 8 -13 10 -12 10 4 0 15 3 16 15 6 10 -9 15 -9 15 -1 0 8 5
8 19 -1 11 -7 18 -15 15 -19 -2 -4 1 -9 8 -11 9 -3 8 -12 -5 -31 -10 -15 -13
-27 -9 -27 5 0 8 -11 7 -25 -2 -14 2 -25 8 -25 7 0 19 -5 27 -10 13 -9 13 -11
0 -20 -12 -8 -11 -10 8 -10 12 0 25 0 29 -1 4 0 9 5 12 12 2 8 -2 10 -13 6
-11 -5 -16 -1 -16 13 0 11 5 20 10 20 6 0 10 7 10 16 0 9 -6 14 -12 11 -7 -2
-13 -10 -13 -18 0 -8 -7 -14 -15 -14 -8 0 -14 6 -12 14 1 7 -2 19 -7 25 -8 9
-6 18 5 32 15 18 15 18 10 -4 -4 -21 -2 -23 17 -18 12 3 26 6 30 6 5 0 5 5 2
10 -3 6 2 10 12 11 13 1 11 3 -7 9 -23 7 -22 8 9 9 33 1 34 2 15 15 -16 13
-21 12 -36 -1 -9 -8 -14 -22 -11 -31 4 -10 2 -13 -6 -8 -6 4 -10 23 -9 43 2
21 -2 38 -9 40 -7 3 -9 -3 -6 -16 3 -12 1 -21 -4 -21 -11 0 -11 95 0 106 4 4
7 -1 7 -12 0 -10 4 -25 9 -33 6 -9 8 -3 6 20 -1 21 -9 35 -20 39 -13 4 -6 9
24 19 54 16 66 8 44 -32 -10 -18 -21 -34 -25 -37 -13 -10 4 -50 21 -49 10 0
11 2 4 6 -15 5 -18 33 -4 33 16 0 31 -27 26 -46 -3 -11 1 -6 8 10 10 20 16 25
20 15 4 -10 6 -11 6 -1 1 7 5 11 11 7 5 -3 7 -12 3 -20 -3 -10 1 -15 13 -14
11 0 14 3 6 6 -24 10 -1 22 31 16 30 -6 31 -5 15 10 -9 9 -28 17 -42 17 -14 0
-26 5 -26 11 0 6 7 9 15 5 8 -3 25 -2 37 3 l21 8 -23 16 c-13 9 -27 14 -32 11
-4 -3 -8 0 -8 7 0 7 10 9 25 7 13 -3 22 -1 19 3 -3 5 2 9 10 9 9 0 16 7 16 16
0 8 -4 13 -9 10 -18 -11 -42 6 -36 25 4 11 2 19 -6 19 -8 0 -8 4 -1 13 7 8 6
18 -4 32 -15 20 -15 20 -33 -4 l-18 -23 2 30 c1 17 -1 31 -4 30 -13 -1 -27 3
-40 11 -10 7 -11 13 -1 31 10 18 9 21 -1 15 -8 -6 -10 -4 -4 5 4 7 2 16 -6 21
-12 7 -12 10 -1 18 11 6 10 10 -3 15 -24 9 -25 8 -25 -19 0 -16 -6 -25 -16
-25 -13 0 -14 3 -4 15 6 8 9 18 6 24 -3 5 0 12 6 15 10 3 8 8 -4 16 -11 6 -15
19 -12 35 3 15 0 25 -7 25 -7 0 -9 3 -6 6 4 4 13 1 22 -6 20 -17 32 -5 15 15
-10 12 -10 15 1 15 11 0 11 2 -1 10 -8 5 -11 12 -8 15 15 15 27 -8 24 -45 -3
-27 0 -40 11 -44 11 -4 13 -1 8 14 -8 24 -2 25 31 4 22 -15 24 -15 18 0 -8 20
3 21 22 1 19 -19 38 -19 31 -1 -3 8 -1 17 6 20 7 3 0 3 -15 0 -18 -4 -28 -2
-28 6 0 6 -4 8 -10 5 -6 -3 -7 1 -4 10 4 11 13 14 28 9 28 -9 43 -12 34 -7 -5
3 -8 13 -8 24 0 10 -4 19 -10 19 -5 0 -10 -5 -10 -11 0 -5 -5 -7 -10 -4 -7 4
-2 15 12 27 19 17 20 20 4 14 -19 -7 -46 9 -46 26 0 6 11 8 25 6 13 -3 22 -2
20 3 -3 4 -1 10 5 14 5 3 10 -1 10 -9 0 -19 16 -21 23 -3 2 6 4 0 3 -15 0 -16
-5 -28 -9 -28 -5 0 -5 -5 -2 -10 10 -16 35 8 35 31 0 11 5 19 10 19 6 0 10 -8
10 -17 0 -14 2 -15 9 -4 5 7 14 10 20 7 7 -5 11 1 11 13 0 17 -7 21 -32 22
l-33 1 35 9 c69 17 109 19 103 3 -6 -16 -20 -19 -25 -4 -1 5 -14 7 -26 3 l-24
-6 29 -25 c25 -22 26 -24 6 -18 -18 6 -22 4 -17 -8 3 -9 12 -16 20 -16 8 0 14
-7 14 -15 0 -8 5 -15 11 -15 7 0 9 10 7 25 -4 21 -2 24 13 20 22 -7 35 26 20
53 -8 15 -5 20 20 29 29 11 30 11 27 -15 -1 -15 4 -46 11 -69 14 -44 31 -53
61 -33 12 8 10 10 -9 8 -20 -2 -27 3 -35 26 -8 22 -8 30 2 33 6 3 12 12 11 21
0 11 -2 12 -6 5 -5 -15 -23 -18 -23 -5 0 5 11 14 25 20 15 7 25 8 25 2 0 -6
10 -10 22 -10 l21 0 -21 23 c-12 13 -19 27 -15 30 3 4 2 7 -4 7 -6 0 -13 -9
-16 -20 -7 -29 -31 -25 -44 7 -10 26 -11 26 -12 6 -1 -16 -7 -23 -20 -23 -11
0 -22 -4 -25 -9 -3 -4 -17 -6 -31 -4 -13 3 -22 10 -19 15 4 6 -5 8 -22 6 -15
-2 -29 2 -31 10 -3 7 1 10 11 6 9 -3 16 -1 16 6 0 6 -5 8 -12 4 -8 -5 -9 -2
-5 10 4 10 7 25 7 33 0 13 3 13 15 3 8 -7 12 -17 8 -23 -4 -6 0 -8 10 -4 9 3
19 2 22 -3 4 -6 -2 -10 -12 -11 -14 0 -15 -2 -3 -6 8 -3 21 -13 29 -22 12 -14
13 -13 8 12 -3 21 -1 27 9 23 8 -3 14 1 14 8 0 16 59 19 77 4 7 -6 13 -6 13
-1 0 5 -15 16 -34 24 -30 14 -33 14 -28 1 3 -10 1 -13 -6 -8 -7 4 -22 0 -33
-8 -20 -13 -24 -13 -50 7 -35 26 -36 37 -4 65 15 13 25 17 25 9 0 -8 4 -7 10
3 6 9 10 10 10 3 0 -6 10 -15 22 -19 13 -4 28 -14 35 -23 7 -10 12 -11 13 -4
0 6 -5 15 -10 18 -6 4 -8 11 -5 16 4 5 -5 9 -19 9 -19 0 -26 5 -26 19 0 26
-32 22 -48 -7 -7 -12 -17 -20 -22 -17 -6 4 -10 1 -10 -5 0 -7 -7 -10 -15 -6
-18 6 -20 -5 -4 -21 8 -8 5 -14 -11 -23 -20 -11 -22 -10 -17 4 7 18 -4 28 -20
18 -15 -10 -27 -52 -15 -52 6 0 12 5 14 11 3 9 10 9 26 0 13 -7 20 -16 17 -22
-4 -5 -11 -7 -16 -4 -5 4 -9 -1 -9 -9 0 -9 -4 -16 -10 -16 -5 0 -10 7 -10 16
0 8 -4 13 -9 10 -5 -3 -16 5 -25 19 -19 29 -20 36 -3 32 7 -1 11 6 9 17 -2 10
1 15 7 12 5 -4 13 -2 16 4 8 13 -40 9 -52 -5 -4 -4 -2 -5 5 -1 12 7 17 -6 5
-17 -7 -8 -33 11 -33 24 0 5 7 9 15 9 8 0 15 4 15 9 0 10 46 8 73 -4 11 -5 17
-3 17 6 0 11 2 11 8 1 6 -9 14 0 25 29 l17 43 -21 -23 c-19 -20 -23 -21 -36
-9 -16 17 -8 48 13 48 8 0 14 5 14 10 0 6 -4 10 -10 10 -5 0 -7 7 -3 15 3 9 8
13 11 11 3 -3 12 0 20 7 13 10 14 7 8 -23 -4 -24 -3 -31 4 -24 6 6 12 24 14
40 2 15 8 30 15 32 6 2 9 -3 5 -12 -5 -12 -2 -15 10 -10 9 3 16 2 16 -4 0 -5
10 -8 23 -8 12 1 27 -2 34 -6 6 -5 14 -5 18 2 3 5 0 10 -8 10 -8 0 -20 7 -27
15 -7 9 -21 13 -31 10 -19 -6 -20 -5 -24 46 -1 14 -5 31 -9 37 -4 7 -2 10 6 7
7 -3 24 4 37 14 20 15 21 19 7 24 -9 4 -16 2 -16 -3 0 -6 -11 -10 -25 -10 -18
0 -25 -5 -25 -20 0 -14 -7 -20 -22 -20 -21 0 -21 0 -2 -14 19 -15 19 -15 -2
-13 -25 1 -31 37 -6 37 14 0 14 2 3 9 -8 5 -11 16 -8 24 4 10 -1 18 -14 22
-15 5 -17 10 -9 20 11 13 4 45 -10 45 -4 0 -11 7 -14 16 -3 8 -2 13 3 10 5 -3
11 1 15 9 3 8 10 15 16 15 7 0 8 -6 2 -16 -11 -19 -4 -54 9 -54 5 0 9 4 9 9 0
5 7 12 16 15 12 5 14 1 8 -16 -6 -21 -5 -22 11 -8 17 14 18 13 12 -3 -5 -12
-3 -16 4 -11 7 4 10 1 7 -7 -3 -8 -12 -12 -19 -10 -8 2 -22 6 -31 8 -10 3 -18
0 -18 -6 0 -7 5 -9 10 -6 6 3 10 1 10 -4 0 -20 57 -13 62 7 6 22 -15 66 -25
56 -4 -4 -7 -2 -7 4 0 7 5 12 10 12 6 0 10 5 10 10 0 16 -27 12 -34 -5 -9 -23
-35 -19 -29 5 3 11 8 18 12 16 3 -2 17 2 31 11 24 13 24 14 3 10 -15 -4 -23 0
-23 9 0 8 -8 14 -17 13 -11 0 -13 -3 -5 -6 6 -2 12 -9 12 -14 0 -4 -7 -6 -15
-3 -8 4 -15 14 -15 23 0 9 -4 23 -10 31 -6 11 -9 7 -8 -15 1 -48 -3 -62 -11
-35 -5 15 -3 38 5 57 14 35 10 38 -36 34 -11 -1 -11 1 3 9 13 9 15 15 7 31 -7
13 -7 19 0 19 5 0 10 -7 10 -15 0 -8 5 -15 11 -15 5 0 8 -4 5 -9 -3 -4 6 -7
20 -5 24 2 25 1 10 -15 -20 -22 -20 -26 0 -45 21 -22 34 -20 34 4 0 22 -15 27
-23 8 -4 -10 -6 -10 -6 0 -1 7 6 15 14 18 10 4 13 13 10 25 -5 14 -2 17 9 13
11 -4 16 -1 16 10 0 20 17 21 36 2 20 -20 18 -33 -8 -47 -47 -25 -49 -44 -5
-63 17 -8 26 -15 20 -15 -22 -2 -14 -21 8 -21 16 0 19 4 14 19 -4 12 0 23 9
28 10 5 13 16 10 31 -4 12 -11 19 -17 15 -7 -4 -8 5 -4 25 5 24 2 34 -11 41
-9 5 -14 12 -11 15 10 10 39 -5 39 -19 0 -7 7 -18 15 -25 17 -14 20 -35 4 -24
-7 4 -10 2 -8 -5 3 -7 7 -11 9 -9 3 2 13 -4 21 -12 17 -15 15 -40 -3 -40 -5 0
-6 4 -3 10 3 5 1 10 -4 10 -6 0 -11 -7 -11 -15 0 -8 5 -15 10 -15 6 0 10 -5
10 -11 0 -6 -7 -9 -15 -5 -8 3 -15 1 -15 -4 0 -6 5 -10 10 -10 16 0 11 -17 -7
-25 -10 -3 -19 -1 -21 4 -3 8 -10 8 -23 0 -19 -10 -19 -12 -5 -34 9 -13 13
-32 9 -41 -6 -15 -4 -15 13 2 16 15 17 21 7 27 -21 13 -15 27 12 27 14 0 29 8
36 21 7 14 17 19 30 16 10 -3 17 -1 13 4 -3 5 -11 9 -18 9 -9 0 -12 9 -8 25 2
14 8 25 12 25 4 0 6 19 6 43 -1 44 -15 67 -48 80 -25 9 -23 30 2 22 24 -8 26
4 5 31 -13 16 -14 16 -9 2 5 -14 1 -18 -20 -18 -14 0 -26 -4 -26 -10 0 -5 -5
-10 -10 -10 -6 0 -5 8 2 20 11 17 11 22 0 29 -8 4 -10 15 -6 26 5 13 4 16 -5
11 -7 -5 -11 -16 -8 -26 5 -20 -9 -50 -24 -50 -5 0 -4 9 3 20 10 15 10 22 0
32 -6 6 -15 8 -19 3 -5 -4 -2 -10 5 -12 6 -3 9 -9 6 -15 -4 -6 -10 -5 -16 3
-7 10 -8 8 -5 -8 3 -13 1 -25 -3 -28 -5 -3 -10 5 -12 17 -2 15 -9 22 -19 20
-19 -3 -33 24 -19 33 6 4 10 -1 10 -9 0 -18 30 -10 43 10 4 7 14 11 21 8 8 -3
17 0 22 7 5 9 2 10 -9 6 -10 -3 -17 -3 -17 2 0 16 -40 19 -55 4 -13 -13 -15
-13 -15 2 0 9 7 23 15 31 22 22 19 37 -4 24 -25 -13 -28 -13 -28 4 0 8 5 12
11 10 6 -2 12 7 12 21 2 22 -2 25 -32 25 -25 0 -34 4 -34 16 0 14 3 14 15 4 9
-7 19 -10 22 -6 4 4 1 11 -7 16 -9 6 -10 10 -3 10 7 0 16 -8 22 -17 9 -17 11
-17 24 1 8 10 16 15 20 10 3 -5 26 -8 51 -6 43 4 44 5 36 28 -6 15 -6 24 0 24
6 0 10 -6 10 -14 0 -11 10 -13 43 -9 52 7 61 13 19 13 -18 0 -32 5 -32 11 0 5
-4 7 -10 4 -6 -3 -7 1 -4 10 4 10 1 14 -7 12 -8 -2 -11 -2 -6 0 4 3 7 11 7 19
0 8 5 14 11 14 5 0 8 -4 5 -9 -10 -16 29 -54 49 -49 18 4 17 6 -7 16 -16 6
-28 14 -28 17 0 4 5 3 11 -1 8 -4 9 0 4 15 -3 11 -2 21 3 21 5 0 12 9 15 20 6
24 3 25 -28 4 -18 -12 -25 -13 -25 -4 0 9 -3 10 -14 1 -10 -9 -16 -8 -26 4 -7
8 -16 12 -21 9 -5 -3 -6 2 -3 10 4 11 0 16 -10 16 -9 0 -16 8 -15 18 0 11 2
12 6 4 4 -10 8 -10 19 -1 15 12 20 34 5 25 -5 -3 -11 1 -15 9 -3 8 -12 15 -21
15 -9 0 -15 6 -14 13 2 21 -13 57 -22 51 -5 -3 -17 0 -26 5 -17 10 -17 10 0
11 16 0 16 2 -3 22 -11 12 -20 27 -21 32 0 6 -3 36 -5 66 -2 30 -6 83 -7 117
-1 35 -6 63 -10 63 -5 0 -5 5 -1 11 3 6 2 28 -4 48 -16 57 -37 155 -36 168 1
7 -1 13 -5 13 -4 0 -8 8 -9 18 -6 57 -11 82 -17 93 -5 6 -9 26 -11 43 -2 17
-19 65 -38 106 -51 111 -68 151 -76 179 -4 14 -12 25 -18 24 -5 -1 -8 7 -5 18
3 11 -1 27 -8 37 -8 9 -23 35 -34 57 -11 22 -25 43 -32 48 -7 4 -9 15 -6 24 4
9 0 21 -9 27 -19 14 -49 72 -42 79 3 3 -3 16 -15 28 -12 13 -21 28 -21 35 0 6
-7 14 -15 18 -8 3 -15 13 -15 21 0 10 -5 13 -12 9 -8 -5 -9 -2 -5 10 4 9 -2
30 -13 49 -11 17 -20 28 -20 22 -1 -5 -7 5 -15 22 -8 18 -19 33 -25 33 -6 0
-9 4 -6 9 3 5 -1 11 -9 15 -9 3 -12 12 -8 23 3 10 2 15 -2 10 -9 -7 -75 58
-75 75 0 5 -13 22 -30 38 -16 16 -30 34 -30 40 0 6 -4 9 -9 5 -5 -3 -12 4 -16
15 -3 11 -11 20 -17 20 -6 0 -9 3 -6 6 3 3 -12 23 -34 44 -48 46 -48 59 8 178
57 122 125 386 139 537 7 83 7 204 0 260 -3 22 -8 60 -11 85 -3 25 -7 54 -8
66 -1 11 -5 24 -8 30 -3 5 -9 25 -13 44 -16 79 -195 400 -237 427 -19 12 -36
54 -33 83 14 131 17 208 19 415 2 152 -2 286 -11 365 -30 275 -27 476 7 455
11 -7 44 22 53 48 4 11 1 20 -8 24 -10 3 -13 12 -9 25 4 14 2 18 -5 14 -15
-10 -39 15 -33 34 5 13 3 13 -11 1 -15 -12 -17 -11 -17 2 0 11 -7 15 -22 12
-28 -6 -49 17 -72 80 -10 28 -27 64 -36 80 -17 28 -40 125 -40 167 0 10 9 27
21 39 27 27 17 50 -34 74 -35 17 -138 105 -122 105 9 0 -58 114 -83 140 -13
14 -44 66 -68 117 -25 50 -49 93 -53 95 -3 2 -38 39 -75 83 -38 44 -99 112
-135 151 -36 40 -76 85 -88 100 -61 79 -317 326 -404 390 -18 13 -35 28 -38
32 -11 16 -150 122 -160 122 -5 0 -11 3 -13 8 -3 8 -8 11 -122 90 -42 28 -78
52 -81 52 -2 0 -44 24 -92 53 -91 54 -161 90 -248 128 -27 12 -68 29 -90 39
-121 53 -157 67 -195 74 -3 1 -9 4 -15 7 -20 12 -309 92 -380 105 -22 4 -42 8
-45 9 -5 1 -135 23 -180 31 -42 6 -258 17 -395 19 -142 2 -144 2 -195 30 -19
10 -42 20 -50 22 -26 5 -133 4 -175 -1 -22 -3 -54 -7 -71 -10 -17 -2 -44 -7
-60 -10 -51 -11 -108 -18 -134 -18 -14 0 -30 -4 -37 -9 -11 -10 -55 -18 -133
-23 -25 -2 -45 -4 -45 -5 0 -4 -164 -12 -200 -10 -22 1 -58 2 -80 3 -23 0 -45
7 -52 16 -7 8 -13 11 -13 7 0 -5 -7 -1 -16 8 -19 18 -11 65 11 65 7 0 17 9 20
20 3 11 11 20 16 20 5 0 9 9 9 20 0 11 5 20 10 20 6 0 10 8 10 17 0 9 -2 14
-5 11 -3 -3 -20 8 -36 23 -17 16 -35 26 -40 23 -5 -3 -8 0 -7 7 2 7 -7 18 -20
24 -12 7 -33 22 -46 34 -12 11 -27 21 -33 21 -7 0 -21 14 -33 30 -12 17 -28
30 -36 30 -7 0 -19 9 -26 20 -7 11 -18 20 -25 20 -7 0 -13 5 -13 11 0 5 -4 7
-10 4 -5 -3 -10 -1 -10 4 0 6 -9 11 -19 11 -11 0 -22 4 -26 10 -3 5 -12 7 -20
4 -8 -4 -28 -1 -44 4 -16 6 -33 6 -37 2 -5 -5 -25 -11 -44 -13 -19 -2 -53 -12
-75 -21 -22 -10 -48 -19 -58 -20 -10 0 -22 -8 -27 -16 -5 -8 -10 -10 -10 -5 0
6 -13 -5 -29 -24 -20 -24 -29 -44 -29 -72 -1 -44 -28 -109 -46 -109 -7 0 -18
-11 -26 -24 -8 -15 -25 -27 -46 -31 -19 -3 -34 -10 -34 -15 0 -11 -28 -9 -47
3 -6 4 -14 1 -16 -5 -4 -10 -6 -10 -6 0 -1 7 -14 12 -31 12 -17 0 -30 5 -30
13 0 9 -3 8 -9 -2 -5 -8 -10 -9 -12 -2 -2 6 -22 13 -43 17 -49 7 -82 20 -91
34 -3 5 -11 8 -16 5 -5 -4 -12 1 -15 9 -3 9 -12 16 -20 16 -7 0 -23 14 -36 30
-12 17 -28 30 -35 30 -8 0 -12 4 -8 9 3 5 -1 16 -9 24 -8 8 -12 17 -9 21 4 3
-1 6 -9 6 -11 0 -14 6 -11 20 3 12 0 20 -6 20 -7 0 -9 4 -6 10 3 5 0 22 -7 37
-8 15 -13 42 -13 58 0 17 -3 32 -7 35 -5 4 -18 92 -21 138 0 6 -4 12 -9 12 -4
0 -8 9 -8 21 0 11 -4 17 -10 14 -5 -3 -10 -1 -10 5 0 12 -83 100 -95 100 -5 0
-16 6 -24 14 -16 13 -49 23 -161 51 -55 13 -232 63 -260 73 -8 3 -21 4 -27 3
-7 -1 -13 3 -13 9 0 6 -4 8 -10 5 -5 -3 -29 -1 -52 6 -24 6 -47 12 -53 13 -5
1 -14 4 -20 7 -5 3 -25 6 -44 8 -19 1 -41 7 -48 13 -8 6 -35 13 -61 15 -26 2
-55 5 -64 6 -10 1 -18 5 -18 10 0 4 -4 6 -8 3 -9 -5 -47 3 -162 36 -30 9 -71
19 -90 22 -48 8 -70 13 -105 24 -16 5 -40 8 -52 6 -12 -2 -25 0 -28 5 -3 6
-20 7 -38 5 -17 -3 -57 1 -87 9 -30 8 -71 13 -90 10 -74 -9 -110 -9 -110 0 0
6 -5 5 -12 -1 -7 -5 -50 -9 -95 -8 -54 1 -80 -2 -76 -9 3 -5 0 -4 -8 3 -7 6
-26 12 -41 12 -15 0 -28 4 -28 10 0 5 -3 9 -7 8 -5 -1 -28 2 -53 7 -25 5 -49
8 -53 7 -4 -1 -16 2 -26 7 -10 6 -41 11 -70 12 -29 2 -59 9 -66 16 -9 9 -16
10 -20 3 -5 -8 -11 -7 -21 1 -11 9 -18 9 -26 1 -8 -8 -17 -8 -30 -1 -11 6 -22
8 -25 5 -3 -3 -20 1 -38 9 -19 7 -35 11 -38 9 -9 -9 -47 -13 -47 -5 0 5 -12 8
-27 9 -123 3 -171 7 -167 14 3 4 -6 3 -20 -3 -20 -9 -29 -9 -41 1 -10 8 -15 9
-15 2 0 -6 -6 -9 -12 -7 -7 3 -65 7 -128 9 -63 2 -115 5 -115 6 0 1 -21 3 -47
4 -27 0 -48 -3 -48 -7 0 -5 -5 -5 -12 -1 -12 7 -76 8 -150 0 -21 -2 -38 0 -38
5 0 4 -14 3 -30 -3 -23 -7 -34 -7 -45 2 -11 9 -15 9 -15 1 0 -8 -6 -9 -17 -3
-10 6 -27 6 -38 2z m3801 -1351 c67 -13 86 -25 64 -39 -13 -9 -13 -10 0 -10
11 0 9 -4 -5 -12 -11 -7 -31 -22 -45 -35 -14 -13 -30 -23 -37 -23 -7 0 -13 -4
-13 -10 0 -13 -90 -13 -109 -1 -9 6 -15 25 -15 45 0 36 11 49 69 83 26 15 23
15 91 2z m-3606 -712 c61 6 494 5 517 0 13 -3 25 -1 28 4 4 5 11 6 17 3 5 -3
99 -7 209 -8 109 -2 202 -5 205 -9 4 -4 11 -4 17 0 8 5 102 7 110 3 11 -7 37
-7 37 0 0 10 20 8 38 -3 7 -5 12 -3 12 3 0 6 4 9 8 6 4 -2 50 -7 101 -10 59
-4 108 -13 134 -25 23 -11 45 -20 50 -20 11 -1 47 -40 47 -50 0 -5 7 -11 15
-15 8 -3 14 -10 13 -17 -2 -6 6 -16 17 -22 11 -7 31 -23 45 -37 63 -62 66 -63
305 -75 61 -3 137 -8 170 -10 33 -3 77 -5 98 -5 22 1 45 -4 53 -11 8 -6 14 -8
14 -4 0 4 7 2 15 -5 8 -6 18 -9 23 -6 13 8 28 -14 30 -44 3 -58 -73 -208 -150
-295 -21 -23 -56 -50 -78 -60 -22 -10 -40 -22 -40 -27 0 -4 -9 -8 -21 -8 -11
0 -17 -4 -14 -10 10 -16 -78 -12 -103 6 -12 8 -22 12 -22 8 0 -4 -10 1 -22 12
-18 16 -21 17 -15 2 4 -12 2 -15 -9 -11 -7 3 -14 9 -14 14 0 4 -27 13 -60 20
-33 6 -63 16 -66 20 -3 5 -14 9 -25 9 -10 0 -19 5 -19 11 0 7 -11 8 -30 4 -16
-4 -30 -3 -30 2 0 7 -57 34 -80 38 -3 0 -22 7 -42 14 -21 7 -51 14 -67 16 -17
2 -39 8 -49 14 -10 5 -42 13 -71 17 -37 5 -49 10 -39 16 9 7 2 8 -19 4 -22 -4
-33 -2 -33 7 0 8 -4 7 -10 -3 -7 -12 -10 -12 -10 -1 0 7 -6 11 -15 7 -8 -3
-20 1 -27 8 -7 7 -20 11 -30 8 -11 -2 -18 1 -18 9 0 11 -3 11 -11 -1 -8 -11
-12 -12 -16 -2 -2 6 -20 12 -38 12 -19 0 -36 4 -40 10 -3 5 -11 7 -18 4 -7 -2
-30 3 -51 11 -21 9 -41 14 -44 11 -3 -3 -11 -1 -19 5 -7 6 -13 8 -13 4 0 -4
-6 -3 -13 4 -8 6 -23 9 -35 6 -12 -2 -24 0 -27 6 -4 5 -22 9 -41 9 -20 0 -34
5 -35 13 0 9 -2 9 -6 0 -3 -10 -8 -9 -19 2 -11 11 -20 12 -34 5 -13 -7 -21 -5
-31 6 -7 8 -18 13 -25 10 -7 -3 -15 0 -18 7 -3 8 -7 9 -13 2 -10 -12 -43 -12
-63 0 -8 5 -23 8 -32 7 -10 -2 -18 1 -18 6 0 5 -14 8 -31 6 -17 -2 -40 1 -52
8 -12 6 -40 10 -64 9 -23 0 -45 3 -48 9 -4 6 -10 8 -15 5 -4 -3 -25 1 -46 8
-22 6 -55 11 -74 11 -19 -1 -41 3 -47 8 -7 6 -13 7 -13 3 0 -4 -7 -2 -15 5
-12 10 -15 10 -15 0 0 -10 -3 -10 -14 -1 -8 7 -30 13 -49 15 -19 2 -40 7 -46
10 -6 4 -11 1 -11 -6 0 -9 -3 -9 -10 2 -9 13 -11 13 -19 0 -9 -12 -11 -12 -16
2 -5 12 -18 15 -56 14 -27 -1 -50 2 -51 6 -3 6 -20 10 -114 22 -11 2 -26 6
-32 10 -7 4 -12 2 -12 -3 0 -11 -35 -10 -46 2 -4 4 -13 2 -21 -5 -11 -9 -12
-7 -6 8 5 15 4 17 -8 9 -14 -11 -78 -13 -95 -3 -5 3 -26 8 -46 12 -21 4 -40
12 -44 17 -4 7 1 9 14 5 12 -4 22 -1 25 7 4 10 -2 13 -20 9 -23 -4 -24 -2 -18
19 4 13 14 27 21 32 7 4 11 14 8 22 -5 11 1 15 21 15 15 0 24 4 20 10 -3 6 1
10 9 10 9 0 16 6 16 13 0 8 4 7 10 -3 8 -13 10 -12 10 3 0 19 20 24 20 5 0
-10 2 -10 9 0 4 8 12 14 16 14 4 0 12 -6 16 -14 5 -7 9 -8 9 -3 0 6 30 12 67
13 37 2 70 7 73 11 3 4 37 7 75 8 142 2 225 8 225 18 0 6 3 6 8 -1 4 -5 23 -9
42 -7z m3630 -830 c0 7 17 7 48 1 26 -5 59 -7 75 -4 15 3 38 1 52 -4 15 -6 26
-6 30 1 8 13 25 2 25 -17 0 -11 -15 -14 -64 -14 -37 0 -68 5 -72 11 -4 8 -9 7
-15 -2 -6 -11 -40 -14 -146 -12 -76 0 -154 1 -173 1 -130 -1 -195 6 -198 22
-2 13 23 15 175 15 98 0 192 3 208 6 17 3 36 1 43 -4 8 -6 12 -6 12 0z m665
-135 c31 -5 -65 -9 -259 -10 -169 0 -336 -3 -370 -6 -33 -3 -169 -8 -301 -11
-132 -3 -337 -7 -455 -10 -448 -11 -538 -15 -845 -39 l-50 -4 54 19 c117 41
269 49 1291 65 217 4 397 9 400 11 8 8 477 -6 535 -15z m-4268 -258 c5 -13 7
-13 14 -2 7 10 9 10 9 0 0 -9 5 -10 18 -3 27 14 162 7 173 -10 6 -11 9 -8 9
10 0 19 3 21 14 12 7 -6 34 -13 59 -15 25 -2 50 -7 56 -11 7 -4 18 -1 26 5 12
10 18 10 31 -1 13 -10 17 -10 25 2 5 8 9 9 9 3 0 -6 23 -9 59 -8 46 1 58 -2
54 -12 -6 -17 13 -19 20 -1 4 9 8 8 16 -3 7 -10 11 -11 11 -2 0 6 9 12 20 12
11 0 20 -4 20 -8 0 -5 15 -8 34 -8 19 1 32 4 29 9 -7 12 7 8 22 -6 7 -7 15
-22 18 -33 4 -17 5 -17 6 3 0 12 5 24 9 27 12 7 12 -36 0 -51 -6 -8 -7 -13 0
-13 17 0 33 27 26 46 -6 16 -5 17 7 6 12 -11 11 -17 -4 -44 -17 -30 -17 -30 5
-26 22 4 23 1 22 -44 -2 -48 -20 -83 -47 -86 -77 -12 -121 -19 -114 -21 5 0 5
-6 1 -12 -4 -8 -12 -3 -20 12 -11 20 -13 21 -14 5 0 -13 -3 -16 -12 -9 -7 6
-20 11 -28 11 -26 2 -64 9 -87 16 -15 5 -23 3 -23 -4 0 -7 -8 -6 -22 3 -25 14
-77 15 -147 2 -32 -6 -42 -5 -37 3 5 8 1 10 -9 6 -9 -4 -14 -13 -10 -22 4 -12
3 -13 -10 -2 -8 7 -15 9 -15 6 0 -4 -8 -2 -18 3 -11 6 -24 6 -36 -1 -14 -8
-21 -7 -27 3 -7 11 -9 11 -9 -2 0 -14 -12 -16 -92 -14 -50 2 -101 -1 -113 -5
-12 -5 -29 -4 -39 2 -13 7 -20 7 -25 0 -3 -6 -23 -9 -44 -8 -21 1 -40 -1 -42
-5 -2 -3 -20 -4 -39 -3 -23 2 -36 -1 -36 -9 0 -8 -4 -7 -11 3 -8 11 -12 12
-16 2 -2 -6 -10 -9 -15 -5 -20 11 -73 11 -80 0 -6 -9 -8 -9 -8 0 0 8 -10 9
-36 1 -28 -7 -39 -7 -45 4 -8 11 -11 11 -18 -1 -5 -8 -19 -12 -35 -9 -14 3
-27 0 -30 -6 -3 -7 -7 -7 -14 2 -6 9 -18 11 -38 6 -16 -5 -42 -8 -59 -7 -16 0
-38 -3 -47 -8 -9 -5 -19 -5 -22 -1 -3 5 -47 7 -97 6 -57 -2 -98 1 -106 7 -7 7
-13 8 -13 3 0 -13 -54 -14 -62 -1 -4 8 -11 7 -22 -2 -8 -7 -20 -10 -26 -6 -5
3 -10 2 -10 -4 0 -6 -11 -6 -30 -1 -16 5 -30 6 -30 3 0 -3 -6 0 -14 6 -9 7
-17 8 -20 2 -3 -5 -17 -8 -31 -6 -14 1 -25 -3 -25 -9 0 -7 -3 -7 -8 1 -6 9
-17 10 -40 4 -19 -6 -34 -6 -37 0 -4 5 -16 9 -28 9 -18 0 -20 -2 -7 -11 12 -8
9 -9 -10 -4 -47 12 -101 15 -95 5 3 -6 -2 -11 -12 -11 -10 -1 -22 -2 -28 -4
-5 -1 -20 -3 -33 -3 -13 -1 -20 -6 -17 -12 3 -5 -1 -10 -9 -10 -9 0 -16 5 -16
10 0 6 -5 10 -11 10 -5 0 -8 -3 -6 -7 14 -22 -61 -38 -90 -20 -6 4 -14 3 -18
-3 -4 -6 -16 -3 -33 7 -26 17 -26 17 -13 0 8 -10 11 -20 7 -24 -3 -3 -6 -1 -6
5 0 6 -9 14 -20 17 -11 3 -20 14 -20 23 0 15 -2 15 -10 2 -8 -13 -10 -12 -10
3 0 10 -4 15 -10 12 -5 -3 -10 1 -10 9 0 9 -5 16 -11 16 -5 0 -8 4 -5 9 10 15
-25 6 -35 -10 -7 -9 -7 -5 -3 15 6 23 4 27 -7 20 -21 -13 -51 -16 -44 -4 8 13
-8 13 -23 0 -6 -6 -10 -7 -7 -4 2 4 -6 15 -18 25 -18 15 -19 18 -5 19 9 0 18
5 20 12 3 8 9 8 24 0 18 -11 18 -11 -3 -12 -13 0 -23 -4 -23 -9 0 -5 11 -8 25
-7 31 1 33 21 4 37 -17 9 -19 13 -8 20 8 4 16 4 20 -3 4 -7 9 -7 14 1 4 7 16
9 27 5 16 -5 20 -3 15 9 -4 11 2 14 26 14 18 -1 35 -5 38 -11 4 -5 12 1 19 13
11 22 12 22 31 5 18 -16 19 -16 19 1 0 12 6 16 20 12 11 -3 20 -1 20 5 0 5 15
9 33 7 17 -1 40 2 50 6 10 4 21 5 24 1 3 -3 12 2 20 12 14 16 14 16 9 -2 -5
-14 -3 -17 11 -11 10 4 32 9 48 12 17 3 35 9 41 14 6 5 26 6 44 3 21 -5 35 -3
40 6 6 10 15 10 38 2 25 -8 33 -7 43 4 10 12 14 12 20 2 7 -10 9 -9 9 4 0 16
8 17 68 13 44 -3 62 -2 52 5 -10 6 5 8 48 7 34 -1 62 2 62 7 0 5 3 6 6 3 4 -3
15 -2 25 4 11 5 19 6 19 2 0 -4 22 -8 50 -9 27 -1 47 3 44 8 -8 12 19 5 28 -7
5 -6 8 -6 8 2 0 7 18 11 50 10 28 -1 50 2 50 7 0 5 18 6 40 3 22 -3 40 -1 40
3 0 5 23 7 50 5 28 -1 50 1 50 6 0 7 39 4 68 -6 7 -2 22 -1 35 4 13 5 30 5 39
0 11 -6 19 -5 23 1 4 6 10 8 15 5 7 -4 37 -5 125 -4 17 0 45 -2 63 -4 18 -2
35 0 38 4 6 11 84 7 84 -4 0 -6 5 -6 13 -1 6 5 24 9 40 8 15 0 27 3 27 7 0 15
20 10 27 -7z m-5894 -46 c3 -10 8 -9 22 2 17 14 18 13 12 -4 -6 -15 -4 -17 14
-13 13 3 28 -2 40 -14 10 -10 23 -19 28 -19 5 0 18 -18 29 -40 10 -22 22 -37
26 -33 3 3 6 2 6 -4 0 -6 -7 -13 -15 -17 -8 -3 -15 -1 -15 5 0 6 -7 8 -15 5
-21 -8 -96 19 -107 38 -5 9 -16 16 -23 16 -8 0 -15 9 -15 19 0 11 -6 26 -14
34 -11 11 -12 17 -3 26 14 14 24 14 30 -1z m5503 -371 c4 -4 17 -7 29 -7 13 0
28 -7 35 -15 7 -8 20 -15 30 -15 10 0 23 -7 30 -15 7 -8 18 -15 24 -15 17 -1
87 -36 82 -41 -3 -3 3 -5 12 -5 99 -4 177 -14 180 -23 2 -6 14 -11 27 -11 14
0 26 -7 30 -19 4 -13 12 -17 25 -14 20 5 24 -3 21 -39 -1 -10 2 -18 7 -18 6 0
8 -10 5 -22 -8 -37 -27 -78 -35 -78 -5 0 -7 -5 -6 -12 2 -6 -10 -18 -27 -27
-28 -15 -41 -24 -68 -46 -7 -5 -26 -18 -42 -27 -17 -9 -38 -33 -49 -53 -12
-24 -21 -32 -26 -25 -5 8 -12 5 -24 -11 -12 -18 -26 -23 -63 -24 -62 -2 -108
9 -128 29 -16 15 -30 20 -48 17 -5 -1 -6 3 -3 8 4 5 -7 18 -24 27 -16 10 -30
22 -30 26 0 4 -8 8 -17 8 -9 0 -24 7 -34 16 -16 15 -29 17 -84 13 -42 -3 -91
5 -113 19 -12 8 -25 12 -29 9 -7 -7 -33 18 -33 31 0 5 -8 12 -17 14 -14 4 -18
15 -17 49 2 74 4 80 14 74 6 -3 10 0 10 7 0 22 73 78 141 109 47 21 63 33 62
46 -1 10 0 12 3 6 8 -18 24 -16 24 2 0 8 6 15 13 15 8 0 19 11 26 24 10 18 21
23 46 22 18 0 37 -4 41 -9z m-1370 -60 c3 -3 12 -3 20 0 8 3 14 0 14 -7 0 -7
7 -10 15 -6 10 4 15 -1 15 -15 0 -13 4 -18 13 -13 8 5 8 2 -2 -9 -12 -15 -11
-17 8 -17 12 0 21 -6 21 -16 0 -11 6 -14 20 -9 11 3 20 2 20 -3 0 -12 49 -34
61 -27 5 4 9 2 9 -4 0 -6 9 -8 23 -3 20 7 44 8 57 2 3 -1 23 -3 45 -4 22 -1
46 -5 53 -10 7 -4 20 -5 30 -2 10 4 27 -3 42 -17 14 -12 33 -21 42 -19 13 2
16 -1 12 -13 -4 -10 -2 -15 7 -13 7 2 15 -6 17 -16 3 -13 -8 -30 -32 -52 -20
-18 -36 -37 -36 -44 0 -6 -4 -9 -9 -6 -11 7 -23 -22 -14 -37 4 -6 0 -8 -10 -4
-11 4 -20 -1 -27 -13 -6 -11 -21 -20 -33 -20 -13 0 -28 -5 -35 -12 -7 -7 -12
-9 -12 -4 0 4 -7 1 -15 -8 -8 -8 -15 -20 -15 -26 0 -6 -4 -9 -9 -6 -16 10 -52
-30 -44 -49 4 -12 3 -16 -4 -12 -17 11 -42 -3 -36 -19 3 -8 -1 -14 -11 -14 -9
0 -16 -5 -16 -11 0 -6 -10 -9 -22 -8 -28 2 -59 -10 -74 -29 -6 -8 -16 -12 -22
-8 -7 4 -12 2 -12 -3 0 -6 -4 -10 -9 -8 -5 1 -8 -2 -7 -8 0 -5 9 -9 19 -9 9 1
17 -2 17 -7 0 -11 58 -22 105 -20 22 0 52 10 67 21 15 11 32 20 38 20 6 0 9 4
5 9 -3 6 6 8 20 5 20 -3 25 0 25 16 0 11 5 20 10 20 6 0 10 -7 10 -16 0 -8 5
-12 10 -9 6 4 9 14 8 23 -4 24 69 42 83 21 7 -12 9 -12 9 1 0 10 8 5 21 -12
46 -62 127 -72 429 -55 74 5 226 9 337 10 112 1 203 5 203 8 0 3 12 4 28 2 15
-3 46 0 70 5 26 6 44 6 48 1 3 -6 15 -7 27 -3 23 7 64 10 227 18 58 3 158 8
223 11 116 6 117 6 126 -17 5 -13 7 -25 6 -28 -2 -3 -6 -36 -10 -75 -8 -91
-40 -213 -73 -290 -24 -54 -27 -72 -27 -177 0 -98 3 -118 15 -119 35 -1 -73
-31 -165 -45 -86 -13 -153 -14 -490 -5 -408 11 -460 8 -556 -32 -73 -30 -168
-144 -137 -163 8 -5 5 -10 -9 -15 -17 -6 -23 -22 -33 -91 -7 -46 -15 -126 -19
-178 l-7 -95 -7 165 c-8 194 -49 426 -76 435 -9 2 -95 12 -191 20 -96 9 -273
27 -393 40 -180 21 -222 23 -247 12 -35 -15 -187 -200 -168 -205 39 -10 39
-16 3 -21 l-40 -6 -22 -75 c-17 -58 -22 -103 -23 -200 0 -89 -5 -132 -15 -150
-8 -14 -14 -19 -15 -12 0 7 -5 10 -10 7 -6 -4 -8 -11 -4 -16 3 -5 0 -8 -8 -7
-17 4 -23 -39 -8 -58 9 -10 9 -14 1 -14 -6 0 -11 -13 -11 -30 0 -16 -5 -30
-11 -30 -5 0 -8 -4 -5 -9 13 -20 41 -4 41 22 1 15 6 32 13 39 9 9 12 -5 12
-65 0 -42 -4 -77 -9 -77 -4 0 -6 12 -4 28 3 19 2 23 -5 13 -8 -11 -11 -10 -14
5 -4 17 -5 17 -17 -4 -9 -18 -10 -27 -1 -37 7 -8 9 -19 5 -25 -3 -5 -1 -10 4
-10 6 0 11 7 11 15 0 9 6 12 15 9 11 -5 15 -23 15 -74 0 -66 0 -67 -25 -62
-17 3 -25 0 -25 -9 0 -8 -3 -25 -6 -39 -6 -24 -6 -25 9 -5 16 20 16 20 17 -2
0 -13 -4 -23 -10 -23 -5 0 -10 -6 -10 -13 0 -8 6 -14 13 -14 12 0 16 13 18 60
0 9 4 17 9 17 6 0 9 -31 8 -70 -1 -38 -6 -70 -11 -70 -5 0 -7 11 -5 24 4 18 1
22 -13 19 -16 -5 -17 -15 -14 -89 4 -67 2 -84 -9 -84 -15 0 -16 -16 -2 -39 7
-11 6 -12 -5 -5 -9 5 -8 -2 5 -20 10 -16 13 -25 6 -21 -9 6 -9 3 -1 -14 7 -12
9 -26 6 -31 -3 -5 -1 -11 5 -15 7 -4 7 -12 0 -25 -14 -27 -12 -40 5 -40 13 0
12 -4 -3 -20 -16 -17 -18 -28 -11 -63 11 -56 11 -69 -1 -62 -5 3 -3 -7 5 -22
9 -17 11 -31 5 -37 -5 -5 4 -25 23 -48 l32 -40 3 -169 c3 -189 -3 -214 -46
-206 -91 18 -465 -47 -597 -104 -69 -29 -200 -60 -246 -57 l-52 3 -73 143
c-67 132 -95 175 -143 227 -10 11 -20 25 -22 30 -10 26 -52 85 -60 85 -5 0 -9
7 -9 15 0 8 -4 15 -8 15 -5 0 -35 28 -68 61 -83 86 -95 99 -88 99 9 0 -20 26
-43 38 -30 17 -103 84 -116 107 -6 11 -12 42 -14 69 -1 27 -5 51 -7 54 -7 6
26 62 35 62 4 0 14 7 23 15 8 8 48 32 88 53 60 31 74 42 76 64 2 20 -4 31 -25
45 -15 9 -30 20 -33 24 -3 3 -15 9 -27 13 -12 4 -37 24 -56 45 -30 33 -34 44
-30 77 3 21 5 89 6 151 1 62 7 116 12 122 11 11 27 5 190 -64 61 -26 119 -48
130 -50 11 -2 21 -4 23 -4 1 -1 5 -1 10 -2 4 0 15 -7 24 -16 9 -8 22 -12 28
-8 6 4 -27 26 -74 50 -86 44 -164 93 -183 117 -9 10 -15 80 -23 250 0 5 -32
29 -70 54 -39 26 -71 50 -71 53 -6 29 -12 122 -13 194 -1 48 -5 87 -9 87 -5 0
-5 4 -2 10 3 5 1 19 -5 31 -8 15 -9 24 -2 31 8 8 4 21 -12 42 -43 57 -14 71
75 36 28 -12 54 -18 58 -15 3 4 6 75 6 159 0 144 1 153 23 176 14 15 35 25 55
26 18 1 64 7 102 14 39 8 84 13 102 13 18 1 30 3 28 6 -2 4 23 8 56 9 66 4 94
8 109 17 6 3 10 1 10 -6 0 -7 8 -9 23 -5 31 10 121 22 227 31 19 2 87 8 150
15 63 6 149 13 190 15 41 2 113 7 160 10 100 8 162 12 285 18 50 3 104 8 120
12 44 9 116 45 110 55 -3 5 0 12 6 16 8 4 9 3 5 -4 -4 -7 -3 -12 3 -12 16 0
22 18 9 26 -7 5 -3 10 13 16 18 7 20 11 10 17 -11 7 -10 11 4 18 13 8 16 17
10 42 -7 33 -41 65 -58 54 -6 -3 -7 -2 -4 4 7 11 -54 32 -93 32 -71 0 -91 4
-85 19 5 13 3 13 -11 1 -13 -11 -18 -11 -21 -1 -3 6 -11 12 -19 12 -9 0 -13 4
-10 9 3 5 -2 8 -12 7 -11 -1 -18 7 -20 23 -3 19 -6 21 -13 10 -15 -24 -10 6 8
47 9 22 16 45 14 52 -1 6 6 12 15 12 10 0 14 5 11 14 -4 10 -1 13 9 9 7 -3 14
0 14 6 0 6 6 10 13 9 6 -2 11 2 10 9 -2 7 4 10 12 7 9 -4 15 0 15 10 0 9 3 15
8 14 11 -2 62 24 62 33 0 4 13 10 30 14 16 4 32 15 35 26 4 10 13 19 20 19 8
0 18 6 22 14 4 7 25 19 45 25 21 7 40 16 43 21 6 9 51 7 61 -3z m4433 -61 c-2
-3 -56 -23 -119 -44 -258 -89 -469 -190 -694 -329 -65 -41 -120 -72 -122 -70
-9 9 236 158 390 237 173 89 295 139 447 184 84 25 106 30 98 22z m-9107 -203
c10 -9 18 -21 18 -27 0 -15 36 -46 44 -39 5 6 10 -21 7 -39 0 -5 5 -8 11 -8 8
0 13 -13 12 -32 -1 -18 3 -39 9 -45 5 -7 6 -13 2 -13 -4 0 -1 -7 6 -17 11 -13
11 -17 1 -20 -6 -3 -9 -10 -5 -16 12 -18 10 -77 -2 -77 -5 0 -3 -5 5 -10 13
-9 12 -13 -5 -28 -11 -9 -19 -25 -17 -36 2 -11 0 -16 -6 -12 -6 3 -13 2 -17
-3 -8 -14 -41 -5 -67 19 -12 11 -33 23 -45 26 -13 4 -23 11 -23 16 0 6 -18 8
-45 5 -24 -3 -47 -2 -50 4 -4 5 -11 7 -16 4 -5 -4 -15 -3 -21 2 -14 8 -19 10
-44 12 -23 2 -85 74 -74 85 6 6 10 17 10 26 0 13 -1 13 -10 0 -7 -11 -10 -12
-10 -2 0 8 18 31 41 53 22 21 37 39 32 39 -10 0 19 20 29 20 4 0 5 -8 1 -17
-5 -15 -3 -14 10 2 11 14 16 16 17 6 0 -11 4 -11 18 2 10 10 22 17 25 17 19 0
101 84 87 88 -6 2 -8 8 -4 13 3 5 14 4 26 -2 18 -10 20 -9 15 5 -8 21 11 21
35 -1z m3512 -36 c-5 -16 -3 -19 10 -14 9 4 16 2 16 -4 0 -6 4 -7 10 -4 6 4 8
-7 4 -27 -4 -25 -3 -29 5 -18 9 13 11 13 11 -2 0 -10 -5 -18 -11 -18 -6 0 -9
-7 -5 -15 4 -11 -2 -15 -28 -15 -34 0 -73 -30 -62 -49 4 -5 2 -12 -4 -16 -5
-3 -10 -1 -10 6 0 7 -11 2 -25 -11 -14 -13 -25 -29 -25 -37 0 -7 -7 -13 -15
-13 -8 0 -14 -3 -13 -7 1 -5 -9 -19 -22 -33 -24 -25 -70 -30 -70 -9 0 6 -5 7
-11 3 -6 -3 -15 0 -20 7 -8 12 -11 12 -19 -1 -8 -13 -10 -12 -10 3 0 10 -8 17
-19 17 -11 0 -23 12 -31 30 -7 17 -16 30 -21 30 -5 0 -9 7 -9 15 0 8 -4 15 -8
15 -4 0 -7 21 -6 48 3 64 3 62 15 60 6 -2 14 3 17 11 3 9 0 11 -8 6 -10 -6
-12 -4 -7 9 4 10 7 25 8 34 1 10 4 7 9 -8 6 -17 8 -19 9 -7 1 14 5 16 19 8 13
-7 23 -6 32 2 10 9 11 9 6 0 -5 -9 3 -13 29 -13 25 0 34 4 29 12 -5 7 -3 8 5
3 21 -12 80 -11 86 2 2 7 10 13 16 13 9 0 9 -3 0 -14 -9 -11 -8 -14 6 -12 10
0 23 6 28 13 11 12 36 19 73 20 18 0 21 -3 16 -20z m2429 -1124 c39 -19 42
-36 16 -72 -28 -39 -97 -56 -186 -47 -126 13 -168 67 -90 116 50 31 202 33
260 3z m9607 -343 c11 -22 18 -40 14 -40 -4 0 -2 -6 3 -12 28 -36 52 -211 49
-353 -3 -95 -10 -145 -35 -240 -39 -147 -62 -186 -124 -213 -35 -15 -37 -15
-37 2 0 8 -13 20 -29 27 -17 8 -35 24 -42 36 -7 12 -16 20 -21 17 -4 -3 -8 0
-8 6 0 6 -4 8 -10 5 -5 -3 -10 -1 -10 5 0 14 -26 41 -32 34 -3 -2 -11 2 -18
11 -7 8 -18 15 -25 15 -7 0 -15 9 -18 21 -3 11 -15 23 -27 26 -20 5 -21 10
-15 57 4 28 11 53 15 56 4 3 10 16 13 30 4 14 25 55 49 90 23 36 43 67 43 70
5 16 20 46 26 50 4 3 39 70 79 149 62 125 107 190 132 191 4 0 17 -18 28 -40z
m-6162 -541 c-9 -13 -20 -19 -35 -16 -13 2 -23 1 -23 -3 0 -4 -20 -13 -45 -19
-24 -6 -65 -22 -91 -36 -26 -14 -51 -25 -56 -25 -12 0 -118 -108 -118 -120 0
-5 -6 -15 -14 -23 -23 -22 -57 -135 -63 -209 -11 -121 31 -296 97 -408 16 -27
26 -51 23 -54 -3 -2 6 -15 19 -28 14 -13 28 -33 32 -45 4 -13 13 -23 19 -23
13 0 43 -40 39 -52 -1 -5 1 -8 6 -8 4 0 18 -9 32 -20 24 -18 24 -19 3 -14 -22
6 -96 80 -136 137 -12 18 -25 34 -28 37 -18 14 -100 184 -119 245 -83 267 13
539 226 641 40 20 78 33 84 29 5 -3 10 -1 10 5 0 7 7 10 15 7 8 -4 17 -2 20 3
10 16 87 13 80 -2 -3 -7 0 -5 7 5 18 24 31 21 16 -4z m5741 -156 c-4 -25 5
-40 34 -56 17 -11 33 -19 34 -18 6 1 63 -62 63 -70 0 -5 4 -9 10 -9 14 0 96
-81 103 -103 4 -10 11 -15 17 -12 19 12 12 -90 -9 -113 -10 -12 -21 -22 -25
-22 -11 0 -46 -40 -46 -52 0 -16 -27 -93 -42 -122 -19 -37 -99 -126 -113 -126
-16 0 -52 -44 -69 -85 -17 -39 -89 -119 -131 -145 -34 -21 -75 -27 -75 -10 0
5 -34 44 -75 86 -42 41 -73 79 -70 85 4 5 1 9 -4 9 -6 0 -11 -5 -11 -11 0 -5
-5 -7 -12 -3 -9 6 -9 9 0 12 7 2 12 11 12 19 0 9 -6 13 -15 9 -9 -3 -15 0 -15
9 0 8 -9 15 -20 15 -11 0 -20 -5 -20 -11 0 -5 4 -8 9 -4 6 3 15 -3 20 -14 15
-26 14 -38 -1 -23 -17 17 -28 15 -28 -6 0 -10 14 -28 31 -41 18 -13 28 -28 25
-37 -3 -8 -1 -14 3 -14 5 0 11 5 13 12 3 8 7 6 11 -5 3 -9 3 -16 -1 -16 -35 6
-44 -16 -11 -24 17 -5 21 -12 17 -36 -3 -23 -1 -31 11 -31 11 0 12 -3 3 -12
-7 -7 -8 -16 -3 -22 18 -22 16 -74 -3 -95 -22 -25 -64 -28 -73 -5 -3 8 -12 13
-19 10 -8 -3 -14 1 -14 10 0 8 -4 12 -10 9 -5 -3 -10 2 -10 12 0 15 -2 16 -10
3 -8 -12 -10 -11 -10 6 0 12 -7 27 -15 34 -8 7 -12 16 -9 21 4 8 -8 13 -27 11
-3 -1 -12 17 -19 38 -7 22 -19 40 -27 40 -7 0 -13 9 -13 21 0 11 -4 17 -10 14
-5 -3 -10 0 -11 7 0 7 -20 29 -44 48 -24 19 -44 39 -44 44 -1 5 -9 14 -18 21
-15 11 -15 15 7 51 26 44 144 164 161 164 6 0 34 24 63 53 28 28 76 72 105 97
72 61 72 61 103 113 19 33 43 56 83 78 30 17 60 40 66 50 5 10 13 18 17 17 15
-5 58 33 76 67 11 20 30 38 43 41 13 4 23 10 23 15 0 5 5 9 10 9 6 0 9 -3 9
-7z m-5155 -59 c9 -8 16 -22 16 -29 0 -8 6 -12 13 -9 7 2 26 -9 42 -26 19 -20
24 -30 14 -31 -8 0 -4 -4 8 -9 49 -20 191 -255 196 -325 1 -16 6 -33 10 -36 5
-3 10 -26 12 -50 3 -24 2 -35 -2 -24 -3 11 -10 31 -15 45 -10 24 -11 24 -19 5
l-9 -20 4 20 c2 11 7 29 11 40 l7 20 -17 -20 c-16 -19 -16 -19 -10 8 4 16 3
27 -3 27 -13 0 -44 78 -37 91 4 5 1 9 -5 9 -6 0 -13 8 -17 18 -3 9 -28 50 -55
90 -27 39 -46 72 -42 72 4 0 -5 9 -20 21 -14 11 -24 25 -21 30 4 5 0 9 -8 9
-13 0 -68 51 -70 67 -1 4 -5 7 -9 6 -5 -2 -8 2 -8 7 0 15 16 12 34 -6z m-231
-293 c-5 -13 -3 -14 8 -3 7 6 26 12 42 12 25 0 27 -2 13 -15 -8 -8 -21 -15
-28 -15 -10 0 -9 3 2 10 13 8 12 10 -2 10 -10 0 -18 -4 -18 -10 0 -5 -9 -10
-21 -10 -11 0 -17 5 -14 10 10 16 -11 11 -25 -5 -11 -13 -15 -13 -21 -3 -7 10
-9 10 -9 -1 0 -10 -8 -12 -29 -8 -22 5 -30 2 -33 -11 -6 -23 2 -43 14 -36 6 4
13 2 17 -3 3 -6 33 -25 66 -43 33 -18 64 -39 68 -47 5 -7 12 -11 17 -8 14 9
80 -50 80 -69 0 -6 -5 -3 -11 7 -6 9 -14 15 -19 12 -9 -6 -46 12 -115 56 -22
14 -47 28 -55 32 -15 7 -19 9 -107 65 l-52 33 -140 -2 c-102 -1 -144 -6 -152
-15 -16 -19 -8 -26 93 -84 51 -29 113 -67 138 -85 25 -17 86 -54 136 -83 51
-29 98 -59 105 -68 7 -9 30 -23 51 -31 21 -8 35 -19 32 -24 -3 -5 2 -6 10 -3
9 3 16 1 16 -5 0 -6 6 -10 13 -9 6 2 11 -5 9 -14 -2 -11 3 -18 13 -18 9 0 13
4 10 10 -4 6 1 7 11 3 12 -4 14 -8 5 -11 -8 -3 -7 -8 6 -18 27 -20 2 -15 -32
7 -16 10 -45 26 -62 36 -18 9 -33 23 -33 30 0 8 -4 12 -9 8 -10 -6 -104 42
-109 57 -2 4 -8 8 -14 8 -10 0 -353 200 -453 265 -27 18 -61 38 -73 44 -13 7
-21 15 -18 18 3 3 40 7 83 9 43 2 116 5 163 8 47 3 148 8 225 11 76 3 140 7
141 8 1 1 18 2 37 3 28 0 34 -3 30 -15z m5947 -251 c0 -6 5 -16 10 -23 24 -28
61 -83 66 -99 4 -10 10 -18 15 -18 5 0 9 -6 9 -13 0 -8 11 -24 25 -37 14 -13
25 -29 25 -37 0 -7 4 -13 9 -13 5 0 19 -16 31 -35 12 -20 29 -42 37 -51 8 -8
12 -21 9 -30 -3 -8 -2 -13 3 -10 5 3 11 -5 15 -17 3 -13 17 -40 31 -61 14 -21
27 -43 28 -49 1 -7 5 -14 8 -17 3 -3 16 -27 28 -55 12 -27 27 -58 32 -68 5
-10 7 -22 4 -27 -4 -6 -1 -10 4 -10 6 0 11 -6 11 -14 0 -7 7 -19 15 -26 8 -7
12 -16 9 -22 -3 -5 0 -16 7 -24 6 -8 9 -17 6 -21 -4 -3 -3 -11 2 -17 9 -11 42
-118 46 -146 1 -8 4 -22 8 -30 26 -61 37 -116 34 -174 -2 -36 1 -70 5 -74 5
-5 4 -21 -2 -36 -5 -15 -10 -37 -10 -49 0 -13 -9 -30 -20 -40 -18 -15 -24 -14
-22 4 1 4 -8 5 -18 2 -13 -3 -20 0 -21 8 0 8 -3 23 -5 34 -3 11 -5 30 -6 43 0
12 -5 22 -10 22 -5 0 -7 4 -4 9 4 5 1 11 -5 13 -5 2 -12 16 -13 32 -2 15 -9
32 -16 36 -6 4 -11 10 -10 14 2 6 -4 27 -16 63 -3 7 -7 26 -11 43 -3 16 -9 30
-13 30 -4 0 -10 19 -14 42 -4 23 -11 45 -15 48 -5 3 -11 14 -13 25 -1 11 -5
22 -8 25 -9 9 -33 64 -37 85 -2 10 -10 30 -18 42 -9 13 -13 23 -10 23 7 0 -66
114 -79 122 -7 5 -6 8 3 8 11 0 11 4 -2 18 -10 10 -17 24 -17 30 0 7 -4 12 -9
12 -5 0 -13 10 -17 22 -7 22 -27 48 -38 48 -6 0 2 -71 9 -78 2 -3 0 -13 -6
-23 -8 -16 -6 -19 11 -19 17 0 19 -5 15 -30 -3 -16 -1 -30 3 -30 5 0 7 -11 4
-25 -3 -17 0 -25 9 -25 10 0 14 -12 13 -37 -1 -21 8 -53 19 -73 11 -19 21 -49
22 -67 2 -18 7 -38 12 -45 4 -7 9 -22 10 -33 8 -87 9 -131 0 -136 -5 -4 -5
-15 2 -28 9 -16 9 -21 0 -21 -6 0 -23 -12 -36 -26 -22 -23 -26 -25 -41 -11 -9
8 -23 12 -29 10 -8 -3 -13 4 -13 17 0 17 -3 19 -19 10 -26 -14 -31 -13 -25 5
4 10 -4 20 -27 30 -19 8 -28 14 -20 15 8 0 4 8 -10 20 -16 13 -19 19 -10 20
11 0 10 4 -4 13 -10 8 -15 19 -12 24 4 6 0 13 -8 17 -8 3 -15 15 -15 26 0 11
-4 20 -10 20 -5 0 -10 6 -10 13 0 21 -70 146 -87 155 -11 6 -12 11 -4 16 6 4
11 12 11 17 0 6 -4 7 -10 4 -5 -3 -10 1 -10 9 0 9 -6 16 -12 17 -10 0 -10 2
-1 6 10 3 10 9 0 26 -7 12 -15 24 -18 27 -4 3 -9 14 -11 25 -2 11 -9 19 -15
18 -6 -1 -14 13 -17 32 -4 19 -16 41 -27 49 -12 8 -18 19 -14 25 3 6 2 11 -3
11 -5 0 -12 9 -15 20 -6 24 50 113 114 182 63 66 70 76 111 143 55 91 118 157
118 125z m-8180 -427 c53 -80 99 -140 135 -178 11 -12 40 -44 64 -71 24 -27
87 -94 140 -149 166 -171 204 -228 178 -265 -11 -16 -16 -17 -45 -4 -39 16
-187 162 -264 260 -81 102 -174 247 -219 339 -36 76 -58 145 -46 145 3 0 29
-35 57 -77z m7813 -80 c-3 -7 -9 -10 -14 -7 -12 7 -12 -62 0 -84 10 -17 24
-68 25 -87 1 -5 3 -12 7 -15 3 -3 10 -29 17 -59 11 -48 10 -55 -5 -67 -17 -13
-17 -13 0 -14 24 0 17 -22 -11 -35 -12 -5 -22 -16 -22 -23 0 -7 -5 -10 -10 -7
-6 4 -8 11 -5 16 4 5 -3 9 -15 9 -11 0 -23 7 -27 16 -4 12 -8 12 -13 3 -6 -8
-11 -6 -19 9 -7 13 -17 18 -31 15 -14 -4 -23 2 -31 21 -7 14 -16 26 -21 26 -5
0 -13 12 -18 26 -6 14 -14 23 -18 20 -4 -2 -9 12 -10 32 -3 33 3 42 78 115 50
48 87 76 96 73 12 -5 18 4 16 24 0 3 8 6 18 6 10 0 16 -6 13 -13z m-9931 -270
c-5 -86 5 -100 75 -108 95 -10 153 -26 153 -41 0 -8 5 -14 11 -14 6 0 9 -7 5
-15 -3 -8 -1 -15 4 -15 6 0 10 -9 10 -19 0 -11 5 -23 10 -26 6 -3 10 -13 10
-21 0 -14 108 -244 119 -254 6 -5 41 -68 80 -145 9 -16 19 -31 24 -33 4 -2 7
-10 7 -18 0 -8 5 -14 10 -14 6 0 10 -6 10 -12 0 -7 12 -26 28 -43 15 -16 38
-50 51 -75 13 -25 34 -55 47 -68 12 -13 30 -38 39 -57 9 -19 20 -35 26 -35 5
0 13 -8 16 -17 9 -26 53 -83 88 -118 17 -16 43 -46 57 -65 34 -47 117 -130
129 -130 9 0 95 -81 219 -205 25 -25 49 -45 54 -45 5 0 23 -16 42 -35 18 -19
41 -35 51 -35 10 0 25 -9 33 -21 8 -11 44 -44 80 -72 36 -28 76 -61 89 -74 13
-13 30 -23 38 -23 7 0 16 -6 19 -14 3 -7 39 -37 81 -67 124 -89 129 -92 190
-139 57 -45 204 -147 266 -185 18 -10 39 -27 48 -37 9 -10 24 -18 33 -18 9 0
16 -5 16 -10 0 -6 12 -16 28 -23 43 -19 112 -69 107 -77 -2 -4 -24 -10 -47
-13 -57 -8 -71 -11 -85 -20 -7 -5 -19 -5 -25 0 -7 4 -19 8 -25 9 -7 1 -31 18
-53 37 -23 19 -58 38 -78 42 -20 3 -52 15 -70 26 -18 10 -40 19 -48 19 -8 0
-17 7 -20 15 -4 9 -26 25 -51 36 -24 11 -46 26 -49 34 -3 8 -30 26 -60 41 -30
14 -54 30 -54 34 0 4 -14 13 -30 20 -17 7 -39 22 -48 34 -19 22 -44 40 -77 55
-12 5 -27 16 -34 25 -7 9 -18 16 -23 16 -12 0 -70 42 -85 62 -7 9 -44 37 -82
62 -38 25 -86 65 -106 91 -21 25 -43 45 -49 45 -7 0 -35 19 -63 43 -28 23 -62
50 -75 60 -12 10 -72 64 -132 120 -60 56 -122 111 -137 123 -16 11 -42 37 -57
57 -16 19 -43 48 -61 63 -18 14 -49 52 -71 83 -21 31 -54 73 -74 95 -20 21
-36 45 -36 52 0 8 -4 14 -10 14 -5 0 -10 6 -10 13 0 7 -8 17 -18 23 -16 10
-39 43 -158 223 -43 66 -57 90 -96 163 -20 37 -44 79 -54 95 -33 49 -43 66
-73 128 -28 57 -43 98 -46 120 -1 6 -9 27 -18 47 -9 21 -17 39 -17 42 0 3 -5
17 -12 33 -6 15 -12 33 -14 38 -30 108 -39 152 -35 178 1 5 16 7 34 5 l32 -3
-3 -62z m651 -151 c34 -9 44 -27 108 -179 8 -18 17 -33 21 -33 5 0 8 -7 8 -15
0 -8 4 -23 9 -33 28 -58 48 -91 83 -138 22 -29 40 -56 40 -61 0 -4 7 -16 16
-27 9 -10 16 -21 15 -25 -1 -3 8 -17 20 -31 12 -14 42 -55 66 -92 24 -38 47
-68 52 -68 5 0 9 -4 9 -10 0 -5 6 -18 14 -27 8 -10 45 -56 83 -103 37 -47 91
-107 120 -135 29 -27 100 -96 157 -152 57 -55 114 -104 125 -108 12 -3 21 -10
21 -14 0 -5 19 -21 43 -37 23 -16 51 -38 63 -50 11 -12 40 -34 62 -49 23 -15
42 -31 42 -35 0 -4 12 -11 26 -14 14 -4 37 -20 51 -36 14 -17 29 -28 34 -24 5
3 9 -1 9 -8 0 -7 12 -19 28 -25 15 -7 43 -26 62 -43 54 -48 168 -130 180 -130
6 0 25 -13 43 -29 41 -38 89 -72 152 -110 28 -17 61 -38 74 -48 22 -17 53 -35
111 -65 14 -7 31 -21 38 -30 7 -10 19 -18 25 -18 7 0 28 -13 47 -28 19 -16 65
-44 102 -63 38 -19 67 -38 65 -43 -6 -17 -263 -91 -312 -90 -20 1 -65 24 -65
33 0 5 -10 12 -22 16 -32 9 -112 49 -116 57 -2 4 -45 28 -95 53 -51 26 -103
57 -117 70 -14 13 -41 31 -60 41 -19 11 -46 27 -60 37 -48 34 -101 67 -108 67
-4 0 -31 23 -60 50 -30 28 -57 50 -61 50 -4 0 -22 13 -41 30 -19 16 -40 29
-46 30 -5 0 -33 19 -62 43 -28 23 -89 70 -136 105 -48 35 -86 67 -86 71 0 4
-33 32 -72 61 -125 93 -366 319 -416 392 -9 13 -37 44 -62 70 -25 25 -54 64
-65 85 -10 21 -32 49 -47 61 -16 13 -37 41 -48 62 -11 21 -33 53 -50 72 -38
40 -100 132 -100 147 0 6 -4 11 -9 11 -5 0 -26 33 -46 73 -21 39 -44 76 -51
80 -8 4 -14 13 -14 20 0 17 -73 157 -82 157 -4 0 -8 5 -8 10 0 6 -9 30 -20 52
-11 23 -20 46 -20 51 0 4 -7 15 -15 23 -8 8 -13 25 -11 37 3 12 5 24 5 26 1 7
324 -9 354 -17z m485 -28 c11 -11 23 -34 26 -51 4 -17 15 -39 25 -50 19 -20
44 -71 56 -110 3 -13 12 -29 20 -36 7 -7 24 -36 38 -63 14 -27 35 -59 46 -71
12 -12 21 -26 21 -32 0 -5 3 -11 8 -13 4 -1 25 -30 47 -63 22 -33 45 -64 51
-70 7 -5 23 -28 37 -50 14 -22 44 -60 66 -84 23 -24 41 -48 41 -53 0 -5 23
-31 50 -57 28 -26 50 -52 50 -57 0 -5 14 -18 30 -27 17 -10 30 -22 30 -26 0
-15 133 -142 169 -162 33 -18 114 -80 169 -128 12 -11 32 -26 45 -32 12 -7 24
-15 27 -18 3 -4 32 -21 65 -37 33 -17 86 -47 117 -67 31 -21 62 -37 68 -37 5
0 10 -4 10 -9 0 -5 24 -24 53 -42 28 -19 57 -37 62 -41 71 -54 108 -79 139
-93 20 -10 36 -24 36 -31 0 -8 4 -14 9 -14 5 0 45 -23 88 -52 43 -28 116 -76
163 -106 47 -31 96 -63 110 -72 14 -10 44 -27 67 -39 50 -25 97 -72 82 -82 -6
-3 -10 -10 -8 -15 1 -5 -13 -14 -32 -21 -160 -54 -178 -56 -226 -25 -12 7 -26
11 -32 8 -5 -4 -33 7 -63 23 -29 15 -65 31 -80 35 -15 3 -34 13 -43 23 -9 9
-60 39 -113 66 -54 27 -110 57 -127 65 -16 9 -45 29 -63 46 -18 17 -49 40 -70
51 -20 12 -52 35 -71 53 -18 18 -42 32 -53 32 -11 0 -35 15 -54 34 -19 19 -39
36 -46 39 -19 7 -175 125 -183 137 -3 5 -14 10 -23 10 -10 0 -50 26 -89 58
-150 120 -229 178 -258 190 -16 7 -40 28 -52 46 -12 19 -39 47 -60 63 -47 35
-130 119 -168 170 -16 21 -41 49 -55 63 -14 14 -36 41 -47 60 -12 19 -30 44
-40 55 -10 12 -29 36 -43 55 -13 19 -39 51 -57 71 -44 47 -103 131 -103 145 0
7 -6 14 -14 17 -8 3 -22 23 -32 44 -18 37 -63 113 -74 123 -4 3 -12 19 -19 37
-7 18 -20 38 -28 44 -24 21 -73 145 -73 187 0 11 35 13 179 10 167 -3 181 -4
199 -24z m379 20 c20 -4 34 -16 44 -37 34 -73 125 -236 160 -289 22 -31 39
-62 39 -67 0 -6 4 -11 9 -11 5 0 27 -28 49 -62 23 -35 64 -88 93 -118 28 -30
62 -72 76 -93 14 -20 40 -46 58 -57 18 -11 36 -31 39 -44 3 -13 27 -42 53 -66
172 -152 190 -168 258 -215 31 -22 73 -52 92 -67 19 -15 39 -25 44 -22 5 3 9
0 9 -5 0 -6 4 -11 9 -11 5 0 33 -16 63 -35 29 -20 63 -38 76 -41 12 -4 22 -9
22 -13 0 -4 30 -24 68 -44 37 -21 74 -42 82 -47 8 -5 51 -26 95 -47 44 -21 82
-41 83 -45 2 -5 8 -8 12 -8 5 0 20 -10 33 -22 14 -13 50 -36 80 -51 30 -15 68
-43 83 -62 15 -19 34 -35 41 -35 7 0 13 -10 13 -22 0 -16 3 -19 8 -10 7 9 15
10 35 3 34 -13 46 -38 43 -86 -5 -54 2 -69 22 -53 13 11 15 10 9 -5 -4 -10 -8
-31 -8 -45 -1 -18 -3 -21 -6 -9 -4 14 -8 16 -19 6 -7 -6 -21 -9 -29 -5 -8 3
-15 0 -15 -6 0 -7 -5 -6 -15 2 -8 7 -15 21 -15 31 0 23 -18 25 -26 4 -8 -19
-34 -12 -89 23 -23 15 -52 25 -71 24 -21 -1 -46 9 -75 30 -90 66 -138 96 -164
102 -15 4 -39 19 -53 34 -15 14 -35 25 -44 24 -10 -2 -18 2 -18 7 0 6 -5 11
-10 11 -6 0 -16 5 -23 10 -55 46 -105 80 -118 80 -9 0 -36 15 -60 33 -24 19
-71 46 -104 62 -33 15 -87 46 -120 70 -33 23 -87 56 -120 73 -33 18 -74 45
-91 62 -18 16 -45 37 -61 47 -81 49 -244 207 -349 338 -36 44 -71 88 -79 98
-8 9 -15 21 -15 25 0 4 -16 18 -34 32 -29 22 -63 65 -101 128 -5 9 -35 51 -65
92 -64 86 -110 161 -129 208 -7 17 -17 32 -21 32 -4 0 -10 10 -14 23 -3 13
-16 40 -30 59 -13 20 -22 39 -18 42 3 3 0 6 -7 6 -27 0 -3 25 30 31 46 8 249
11 286 3z m191 -41 c79 -51 241 -216 342 -348 153 -200 408 -436 641 -593 158
-107 399 -232 648 -338 49 -20 117 -72 114 -85 -2 -4 4 -6 13 -2 17 6 63 -14
80 -36 6 -8 22 -15 35 -16 13 -1 22 -5 19 -10 -3 -4 6 -12 19 -17 l24 -9 -21
-19 c-12 -11 -26 -20 -32 -20 -5 0 -10 -7 -10 -15 0 -8 -7 -15 -15 -15 -9 0
-12 6 -8 17 5 12 3 14 -7 8 -28 -17 -137 -20 -156 -4 -8 6 -14 8 -14 5 0 -6
-63 37 -80 54 -3 3 -14 5 -25 5 -10 0 -30 10 -44 23 -13 12 -36 25 -49 29 -25
6 -165 70 -212 97 -14 8 -54 29 -90 47 -36 17 -78 39 -95 47 -16 8 -39 23 -51
34 -12 10 -45 28 -75 39 -53 21 -201 112 -236 146 -10 10 -41 36 -68 58 -68
55 -226 213 -314 315 -41 47 -77 87 -80 90 -4 3 -19 23 -36 45 -16 22 -32 42
-35 45 -22 17 -100 123 -100 135 0 8 -4 15 -10 15 -5 0 -10 6 -10 14 0 7 -10
24 -22 37 -13 14 -29 36 -35 49 -7 14 -17 32 -22 40 -5 8 -16 29 -24 45 -8 17
-27 51 -41 78 l-28 47 27 0 c15 0 52 -17 83 -37z m2635 -2313 c-20 -8 -21 -12
-10 -39 6 -17 15 -31 19 -31 11 0 10 8 -2 31 -8 15 -7 19 4 19 8 0 16 -6 19
-12 3 -10 7 -10 20 1 15 12 17 11 17 -4 0 -13 3 -15 13 -6 8 6 17 8 20 4 4 -3
7 -1 7 5 0 13 67 12 87 -1 7 -4 34 -9 61 -11 27 -2 59 -9 71 -15 12 -7 26 -9
31 -6 5 3 11 2 14 -3 2 -4 26 -7 51 -6 28 1 48 -3 51 -10 2 -6 18 -12 35 -12
17 -1 35 -8 40 -15 6 -11 11 -11 20 -2 8 8 19 9 37 2 14 -5 31 -8 39 -5 20 8
63 -11 59 -26 -1 -7 -1 -10 1 -5 8 13 35 7 30 -6 -4 -11 7 -13 49 -11 39 2 53
0 48 -8 -5 -7 -2 -9 9 -5 9 3 19 2 22 -3 10 -16 28 -11 21 5 -8 21 7 19 22 -3
10 -13 24 -17 50 -15 20 2 31 0 25 -3 -7 -3 -13 -13 -13 -22 0 -14 2 -15 10
-2 8 12 11 12 28 -3 10 -9 22 -14 25 -10 4 3 7 -4 7 -16 0 -12 4 -19 10 -16 6
3 10 -1 10 -9 0 -8 4 -17 10 -21 5 -3 7 7 5 25 -3 25 -1 29 9 21 7 -6 16 -8
19 -4 4 3 7 -1 7 -11 0 -9 12 -21 28 -27 15 -7 22 -13 15 -16 -20 -7 -15 -22
5 -18 12 2 17 -4 18 -24 1 -14 -1 -20 -3 -13 -3 6 -10 9 -15 6 -21 -13 -80 -5
-94 13 -12 16 -13 16 -14 2 0 -22 -20 -29 -50 -16 -38 15 -130 21 -246 16 -17
0 -42 6 -55 14 -14 9 -38 14 -58 11 -18 -2 -48 3 -67 12 -22 11 -47 14 -69 11
-19 -3 -37 -1 -40 4 -4 5 -15 9 -26 9 -10 0 -19 5 -19 11 0 8 -15 10 -44 7
-34 -4 -46 -2 -51 10 -3 8 -8 12 -12 9 -3 -4 -12 -2 -19 4 -7 6 -14 6 -18 1
-3 -6 -23 -4 -48 5 -23 8 -56 16 -73 17 -16 2 -46 9 -65 17 -19 7 -38 12 -42
11 -5 -1 -8 5 -8 14 0 8 -4 12 -10 9 -5 -3 -10 -1 -10 4 0 6 5 11 12 11 6 0 8
3 5 7 -4 3 -16 -2 -28 -13 -24 -21 -22 -22 -52 7 -17 16 -31 20 -59 16 -21 -3
-38 -1 -38 4 0 5 -7 9 -15 9 -19 0 -19 20 1 48 15 22 17 22 29 5 7 -10 11 -21
9 -25 -2 -4 0 -10 6 -13 6 -4 10 -3 9 2 -3 19 14 53 28 53 7 0 22 13 31 30 12
21 24 30 42 29 24 0 24 0 3 -9z m-904 -97 c-12 -15 -12 -16 6 -9 11 5 29 10
40 12 11 2 30 6 43 10 17 5 22 2 22 -12 0 -15 2 -16 9 -5 5 8 16 11 30 6 13
-4 21 -2 21 6 0 9 3 9 15 -1 8 -6 19 -9 24 -6 5 4 12 2 16 -4 3 -5 17 -10 30
-10 12 0 25 -6 28 -13 3 -8 22 -14 42 -15 21 -1 43 -6 49 -11 7 -6 33 -15 59
-20 25 -6 71 -22 101 -36 30 -14 64 -25 75 -25 11 0 22 -4 26 -9 3 -5 19 -12
35 -16 17 -4 30 -12 30 -18 0 -7 4 -6 10 3 8 13 11 12 23 -4 8 -11 19 -16 25
-12 6 3 17 -1 25 -9 9 -9 23 -12 33 -8 14 5 16 2 12 -15 -5 -19 -4 -20 14 -11
16 8 23 8 29 -2 6 -10 11 -10 21 -1 11 9 17 3 31 -29 10 -22 14 -45 11 -51 -5
-7 -1 -9 9 -5 10 4 17 1 17 -6 0 -7 5 -5 10 5 6 10 18 14 32 11 17 -3 19 -2 9
5 -9 7 -10 12 -2 16 12 8 13 7 17 -49 1 -22 3 -49 4 -60 l1 -20 9 20 c5 11 6
39 3 63 -5 38 -3 42 16 42 12 0 19 5 16 10 -3 6 -1 10 4 10 6 0 11 -7 11 -15
0 -8 -6 -15 -14 -15 -8 0 -13 -11 -14 -27 -1 -63 -6 -101 -14 -97 -4 3 -8 1
-8 -5 0 -5 -8 -8 -17 -6 -10 2 -21 4 -25 4 -5 1 -8 9 -9 19 0 9 -3 12 -5 5 -3
-7 -12 -9 -20 -6 -7 3 -11 9 -8 14 3 5 -2 6 -10 3 -9 -3 -16 -10 -16 -15 0
-13 -21 -11 -52 5 -20 11 -28 11 -32 3 -4 -9 -8 -8 -12 1 -4 10 -9 10 -19 2
-10 -8 -20 -8 -36 1 -13 6 -39 13 -59 15 -59 5 -115 17 -121 26 -3 4 -23 10
-45 13 -62 7 -89 14 -92 25 -2 5 -11 10 -20 10 -9 0 -42 12 -72 27 -30 14 -68
27 -83 29 -32 2 -97 34 -97 47 0 5 -9 7 -20 4 -11 -3 -23 -1 -26 4 -3 5 -10 6
-16 3 -6 -4 -13 -2 -17 3 -3 5 -23 17 -43 26 -25 12 -35 22 -32 32 4 8 2 15
-4 15 -6 0 -12 -6 -15 -12 -2 -7 -7 -10 -11 -6 -4 3 -2 16 4 28 11 20 10 21
-9 10 -12 -6 -21 -7 -20 -3 4 21 -2 33 -16 33 -9 0 -12 6 -8 16 5 14 9 13 24
-7 10 -13 21 -20 25 -16 4 4 2 7 -5 7 -7 0 -9 5 -6 10 3 6 1 10 -5 10 -6 0 -8
4 -5 10 3 5 1 18 -4 28 -11 21 -5 32 17 32 12 0 12 -2 1 -17z m71 -318 c0 -17
16 -20 25 -5 9 14 35 -7 35 -27 0 -8 4 -12 10 -8 5 3 7 12 3 20 -7 20 14 19
25 0 4 -9 24 -16 45 -17 20 -1 37 -5 37 -10 0 -4 9 -8 19 -8 11 0 23 -5 26
-11 4 -6 14 -8 22 -5 9 4 21 2 27 -2 6 -5 54 -19 106 -32 52 -12 104 -26 115
-31 11 -4 39 -10 63 -13 23 -3 51 -10 62 -16 11 -6 25 -8 31 -5 5 4 16 2 23
-4 8 -7 18 -11 22 -10 10 2 35 -6 71 -23 12 -6 47 -11 78 -10 36 0 61 -5 71
-15 8 -8 21 -12 29 -9 8 3 15 1 15 -4 0 -5 13 -5 32 1 41 11 41 11 33 -1 -4
-6 6 -10 24 -10 25 0 33 -6 47 -36 15 -31 19 -34 29 -21 14 19 83 39 91 26 3
-5 9 -7 13 -4 9 5 24 -55 17 -63 -3 -2 -13 -1 -23 3 -25 12 -63 15 -63 7 0 -4
-19 -7 -42 -5 -24 1 -70 2 -103 3 -33 0 -73 7 -89 15 -32 17 -76 20 -76 5 0
-5 -7 -7 -15 -4 -8 4 -12 11 -8 18 3 6 1 6 -8 -1 -17 -17 -38 -16 -72 2 -15 8
-34 12 -42 8 -8 -3 -15 0 -15 6 0 6 -7 11 -15 11 -8 0 -15 7 -15 17 0 14 -2
15 -17 1 -23 -19 -53 -30 -53 -19 0 9 -52 19 -131 26 -22 2 -53 11 -70 19 -17
9 -35 14 -39 11 -4 -3 -23 3 -41 12 -19 10 -42 16 -51 15 -10 -2 -18 2 -18 7
0 6 -6 11 -14 11 -7 0 -19 6 -26 14 -6 8 -18 12 -25 10 -7 -3 -24 1 -37 9 -13
8 -35 17 -50 21 -15 3 -34 13 -43 22 -9 9 -29 17 -45 18 -29 1 -34 7 -30 35 1
9 -4 12 -17 7 -17 -7 -17 -6 0 11 15 16 19 16 28 3 7 -11 9 -6 4 18 -4 20 -3
32 4 32 6 0 11 -7 11 -15z m1507 -30 c0 -8 -5 -15 -10 -15 -6 0 -8 -3 -5 -6 3
-3 16 1 27 8 18 11 23 11 31 -2 8 -13 10 -13 10 2 0 13 7 16 33 14 56 -5 87
-18 88 -35 0 -10 4 -7 11 9 9 21 12 22 15 8 3 -10 9 -18 14 -18 5 0 9 -7 9
-15 0 -8 4 -15 9 -15 4 0 6 12 3 28 -5 24 -4 26 11 13 13 -10 20 -11 31 -2 10
9 16 8 25 -3 7 -8 18 -13 26 -10 7 3 16 1 19 -4 3 -6 24 -8 46 -5 34 5 40 3
40 -13 0 -14 3 -15 8 -6 5 7 20 15 34 17 21 4 30 -2 48 -27 l22 -33 -5 28 c-4
26 -3 27 13 12 9 -8 24 -13 33 -9 9 3 29 0 44 -8 25 -13 30 -12 47 4 25 24 47
23 53 -2 6 -22 23 -26 40 -9 16 16 72 1 96 -27 20 -23 44 -34 32 -14 -3 6 -1
10 5 10 7 0 14 -9 17 -19 3 -14 12 -19 29 -17 13 2 27 5 30 9 8 8 34 -3 34
-14 0 -4 -6 -6 -14 -3 -17 6 -31 -12 -16 -21 5 -3 10 -16 10 -28 0 -16 -3 -18
-9 -9 -10 17 -21 15 -43 -4 -13 -12 -24 -13 -52 -6 -19 6 -44 8 -54 5 -12 -3
-22 3 -30 19 l-11 23 -7 -23 c-5 -18 -9 -20 -20 -11 -11 9 -14 8 -14 -5 0 -11
-9 -16 -28 -16 -16 0 -32 3 -35 7 -11 10 -67 9 -67 -1 0 -5 -11 1 -25 14 -14
13 -25 18 -25 12 0 -7 -7 -12 -15 -12 -8 0 -15 6 -15 13 0 9 -3 8 -9 -2 -6 -9
-11 -10 -15 -2 -4 6 -12 9 -17 6 -5 -3 -6 2 -3 12 5 17 5 17 -9 0 -10 -12 -17
-14 -22 -8 -3 6 -12 11 -18 11 -7 0 -6 -4 3 -11 11 -8 9 -9 -10 -3 -14 4 -33
7 -42 6 -11 0 -15 5 -11 14 3 8 1 14 -3 14 -14 0 -31 -14 -37 -30 -4 -10 -6
-8 -6 7 -1 16 -6 20 -21 16 -14 -4 -20 0 -20 12 0 17 -1 17 -20 0 -13 -11 -25
-15 -37 -10 -10 5 -25 7 -34 6 -9 -1 -19 6 -23 16 -3 10 -12 36 -20 58 -8 22
-14 33 -15 23 -1 -9 -7 -19 -13 -21 -8 -3 -6 -6 5 -6 9 -1 17 -8 17 -17 0 -8
-5 -12 -11 -9 -6 4 -17 -1 -24 -11 -11 -15 -17 -16 -23 -6 -5 7 -16 10 -25 6
-20 -7 -21 -1 -6 29 9 18 9 20 -2 10 -18 -17 -29 -16 -29 2 0 8 7 15 16 15 8
0 13 4 9 10 -3 5 -12 7 -20 4 -15 -6 -38 29 -27 41 4 5 2 5 -5 1 -9 -5 -9 -14
-2 -33 5 -14 8 -27 7 -29 -7 -7 -58 47 -53 56 3 6 1 10 -5 10 -8 0 -8 6 0 20
13 23 37 27 37 5z"/>
<path d="M19158 8613 c-10 -2 -18 -9 -18 -15 0 -5 -7 -8 -15 -4 -8 3 -15 0
-15 -5 0 -6 -9 -9 -19 -6 -14 3 -18 1 -14 -10 4 -9 0 -13 -8 -12 -25 5 -59
-12 -59 -29 0 -10 -3 -13 -8 -7 -9 13 -32 17 -32 6 0 -5 7 -14 15 -21 8 -7 15
-18 15 -24 0 -7 -3 -7 -8 -1 -9 13 -42 16 -42 4 0 -5 7 -12 15 -15 8 -4 12
-11 8 -17 -4 -6 3 -8 21 -3 20 5 26 3 26 -9 0 -29 66 -78 120 -90 8 -2 16 -4
18 -5 1 -2 7 -3 12 -4 6 0 15 -8 20 -16 6 -10 10 37 10 138 0 158 1 156 -42
145z"/>
<path d="M18188 8553 c-21 -10 -33 -11 -48 -3 -13 7 -26 7 -38 1 -9 -5 -36 -8
-59 -7 -24 1 -45 -3 -47 -8 -3 -7 -5 -6 -5 2 -1 6 -6 12 -12 12 -5 0 -7 -4 -4
-10 4 -6 -6 -7 -25 -4 -16 4 -30 3 -30 -2 0 -5 -11 -9 -25 -9 -14 0 -25 4 -25
8 0 5 -6 5 -12 0 -7 -4 -35 -9 -63 -11 -80 -4 -99 -7 -112 -15 -7 -5 -17 -5
-23 -2 -5 3 -10 2 -10 -4 0 -5 5 -11 12 -13 7 -3 5 -7 -6 -11 -9 -4 -15 -3
-11 2 3 5 1 12 -4 15 -5 3 -11 -4 -15 -16 -5 -23 -6 -23 -21 -3 -9 11 -14 14
-10 8 3 -7 -1 -23 -9 -35 l-16 -22 0 22 c0 12 -5 22 -10 22 -6 0 -10 -6 -8
-14 3 -16 -1 -17 -32 -9 -11 3 -20 10 -20 17 0 6 -5 4 -10 -4 -8 -13 -11 -13
-19 -1 -5 7 -19 15 -32 16 -39 5 -54 9 -61 20 -5 6 -8 6 -8 -1 0 -7 -11 -9
-27 -7 -16 2 -37 6 -48 7 -11 2 -23 -2 -27 -8 -6 -8 -11 -6 -18 4 -5 8 -10 10
-10 4 0 -6 -30 -11 -79 -11 -44 -1 -85 -4 -91 -8 -20 -13 -70 -17 -70 -6 0 6
-7 11 -15 11 -8 0 -15 -4 -15 -9 0 -9 -62 -7 -79 3 -5 4 -17 -1 -25 -10 -15
-14 -16 -14 -16 1 0 15 -1 15 -16 0 -14 -13 -19 -14 -26 -3 -7 10 -11 9 -22
-5 -8 -10 -17 -14 -20 -9 -3 6 -16 8 -28 4 -15 -4 -19 -2 -13 7 5 10 3 11 -11
4 -11 -5 -38 -9 -61 -9 -24 1 -43 -2 -43 -5 0 -3 -14 -6 -31 -7 -17 0 -42 -8
-56 -17 -13 -9 -31 -14 -39 -11 -9 3 -12 1 -9 -4 3 -6 2 -10 -4 -10 -5 0 -21
-10 -35 -23 -18 -16 -23 -30 -19 -45 3 -12 9 -20 13 -17 5 3 13 -9 19 -25 5
-17 17 -30 25 -30 9 0 16 -4 16 -10 0 -5 7 -10 15 -10 8 0 15 -5 15 -11 0 -6
7 -9 15 -6 8 4 17 3 19 -2 6 -9 123 -8 132 2 4 3 13 0 21 -8 8 -8 25 -15 39
-15 13 0 24 -5 24 -11 0 -8 6 -7 17 2 10 8 14 9 10 2 -4 -6 -3 -14 2 -18 6 -3
8 -12 5 -20 -4 -9 1 -18 11 -21 9 -4 14 -13 11 -20 -3 -8 -1 -14 4 -14 6 0 10
-8 9 -17 0 -12 -2 -13 -6 -5 -4 10 -9 9 -20 -5 -8 -10 -12 -12 -8 -6 4 9 1 11
-9 7 -9 -3 -16 -12 -16 -20 0 -8 -5 -14 -11 -14 -6 0 -9 -6 -6 -14 7 -18 -13
-86 -25 -86 -5 0 -6 -5 -2 -12 5 -8 2 -9 -9 -5 -13 5 -17 0 -17 -21 0 -21 -2
-24 -10 -12 -6 10 -10 11 -10 3 0 -7 -11 -15 -24 -19 -14 -3 -27 -12 -30 -20
-3 -8 -13 -14 -23 -14 -23 0 32 -54 66 -65 34 -10 79 -12 93 -4 7 4 18 3 25
-3 9 -7 13 -7 13 1 0 15 27 14 33 -1 4 -10 7 -10 15 0 5 7 13 12 18 10 5 -1
19 3 32 10 12 7 22 9 22 5 0 -5 21 -9 48 -9 26 0 62 -3 80 -6 21 -4 32 -2 32
5 0 8 3 8 8 2 4 -6 37 -10 74 -10 38 0 68 -4 68 -9 0 -4 8 -5 18 -1 9 3 93 8
186 11 93 2 171 6 174 9 3 3 16 -2 29 -10 20 -13 23 -14 23 -1 0 11 14 16 48
18 38 2 46 6 44 21 -2 9 2 17 8 17 5 0 10 -8 11 -17 0 -11 3 -13 6 -5 2 6 11
12 18 12 16 0 28 28 18 43 -3 7 3 4 14 -5 24 -22 34 -23 27 -3 -4 8 -2 15 4
15 13 0 35 -27 25 -32 -4 -3 -2 -3 5 -2 7 2 15 -3 18 -11 4 -8 10 -15 16 -15
5 0 16 -7 24 -15 9 -8 11 -15 5 -15 -22 0 -10 -18 12 -19 12 0 29 -1 37 -1 34
-3 91 4 96 11 2 4 24 6 49 4 27 -2 45 0 45 7 0 7 4 7 13 1 12 -10 28 -10 73 1
13 4 26 2 29 -4 4 -6 13 -7 23 -1 9 4 23 6 30 4 6 -3 12 0 12 7 0 7 6 8 19 0
14 -7 22 -7 26 1 4 6 13 8 20 5 8 -3 16 0 19 7 2 7 5 3 5 -7 1 -20 1 -20 17 0
8 10 13 14 10 7 -4 -6 -2 -14 3 -17 5 -3 11 2 13 12 3 10 15 18 27 19 17 1 21
-2 17 -15 -5 -13 -3 -13 9 2 8 11 15 15 15 10 0 -14 33 -14 42 0 5 8 8 7 8 -1
0 -7 5 -13 11 -13 5 0 7 5 3 12 -5 8 -2 9 11 4 11 -4 22 -2 27 6 6 10 8 8 8
-4 0 -10 5 -18 10 -18 6 0 10 5 10 11 0 6 6 9 14 6 8 -3 17 -3 20 0 10 10 57
12 51 3 -3 -5 9 -5 26 0 18 5 35 7 40 5 4 -3 10 -2 12 2 3 5 23 8 46 7 24 0
38 3 34 9 -4 6 0 8 9 4 9 -3 27 0 41 8 18 9 28 10 36 2 8 -8 11 -6 11 6 0 10
7 20 16 24 8 3 13 12 10 20 -4 9 1 17 14 20 27 7 25 31 -2 35 -14 2 -29 16
-38 34 -9 17 -21 29 -28 26 -7 -2 -12 3 -12 12 0 9 -8 16 -19 16 -11 0 -23 5
-26 10 -4 6 -11 8 -16 5 -5 -4 -12 1 -15 10 -6 13 -8 14 -15 3 -7 -10 -9 -10
-9 0 0 10 -5 10 -21 1 -15 -8 -19 -8 -15 0 4 6 2 11 -3 11 -6 0 -11 -3 -11 -7
0 -5 -12 -9 -27 -10 -25 -1 -26 0 -10 12 16 11 13 14 -28 26 -25 7 -45 19 -45
26 0 7 -7 13 -15 13 -8 0 -15 -5 -15 -12 0 -6 -3 -9 -6 -6 -3 4 -1 16 6 27 7
14 7 21 0 21 -5 0 -10 6 -10 14 0 8 -6 17 -12 20 -10 3 -8 8 4 19 14 11 15 16
5 26 -9 9 -9 14 1 20 7 4 10 15 6 24 -7 19 16 44 69 76 20 12 37 29 37 37 0
17 12 18 29 2 11 -11 13 -10 8 4 -4 12 -2 15 8 11 11 -4 14 2 13 21 -2 25 -9
30 -34 27 -7 -1 -14 8 -17 20 -3 12 -11 19 -19 16 -7 -2 -21 3 -31 11 -16 15
-17 14 -11 -4 7 -17 6 -18 -10 -4 -23 18 -183 25 -204 8 -10 -9 -12 -8 -10 3
2 8 -3 13 -11 11 -7 -1 -32 -2 -55 -1 -22 1 -67 2 -98 3 -32 0 -58 3 -58 6 0
3 -9 6 -20 6 -11 0 -20 -3 -20 -6 0 -3 -16 -4 -35 -2 -19 2 -32 8 -29 13 6 11
6 11 -28 -8z m-561 -185 c10 -17 71 -41 100 -40 13 0 20 -4 17 -9 -3 -5 4 -9
16 -9 12 0 35 -7 51 -16 28 -14 46 -19 104 -26 11 -2 23 -11 28 -22 6 -16 9
-16 24 -5 15 12 16 12 11 -8 -4 -16 -2 -20 8 -16 10 4 12 0 8 -12 -5 -12 -2
-16 11 -13 13 2 21 -10 34 -52 10 -30 22 -54 28 -53 6 1 9 -6 6 -17 -3 -11
-10 -17 -15 -14 -6 4 -8 -2 -3 -15 3 -11 3 -21 -2 -21 -5 0 -14 -13 -20 -30
-6 -16 -18 -30 -27 -30 -9 0 -16 -4 -16 -9 0 -8 -31 -20 -65 -27 -5 -1 -14 -3
-20 -4 -5 -1 -17 -2 -27 -1 -9 1 -20 -9 -26 -26 -7 -17 -11 -21 -11 -10 -1 9
-8 17 -16 17 -8 0 -15 4 -15 10 0 5 -6 7 -14 4 -20 -8 -56 13 -56 32 0 8 -5
12 -10 9 -6 -3 -44 6 -85 20 -41 15 -79 24 -85 20 -5 -3 -25 1 -43 10 -19 9
-40 15 -47 13 -7 -2 -16 7 -19 19 -3 12 -18 35 -33 52 -16 17 -28 37 -28 45 0
8 -5 18 -11 21 -6 4 -8 13 -5 21 3 7 1 16 -4 19 -29 18 27 105 67 105 9 0 27
10 40 22 13 12 23 16 23 9 0 -9 5 -8 16 3 8 9 28 16 44 16 22 0 28 4 24 15 -8
19 31 21 43 3z"/>
<path d="M3790 3680 c10 -6 11 -10 3 -10 -7 0 -12 -4 -10 -9 1 -5 -9 -18 -22
-30 l-24 -21 38 -16 c20 -8 44 -13 52 -10 8 4 34 0 58 -8 23 -8 63 -13 89 -12
25 2 46 0 46 -5 0 -5 7 -9 15 -9 9 0 15 9 15 25 0 14 6 25 13 25 8 0 7 4 -3
10 -13 8 -13 10 2 10 9 0 19 -6 21 -12 4 -8 6 -7 6 3 1 18 -18 29 -50 29 -11
0 -17 5 -14 10 3 6 2 10 -4 10 -5 0 -13 -4 -16 -10 -4 -6 -14 -5 -28 4 -12 7
-41 13 -65 12 -28 -1 -42 3 -42 12 0 6 -4 12 -10 12 -5 0 -10 -4 -10 -9 0 -6
-12 -6 -32 0 -41 11 -47 11 -28 -1z"/>
<path d="M18293 1713 c-23 -9 -14 -33 12 -33 18 0 23 -4 18 -16 -5 -13 -7 -13
-14 -2 -7 11 -9 10 -9 -1 0 -8 8 -23 18 -34 9 -11 11 -17 5 -13 -7 4 -13 2
-13 -3 0 -6 8 -11 18 -12 13 0 14 -2 2 -6 -8 -3 -20 -12 -27 -21 -10 -12 -15
-13 -28 -2 -13 10 -15 9 -15 -8 0 -12 -5 -24 -11 -28 -7 -4 -9 0 -5 14 4 11 2
23 -4 27 -6 3 -7 11 -4 17 5 7 2 8 -7 3 -12 -8 -12 -6 0 8 11 15 11 17 -2 17
-24 0 -29 -28 -7 -40 11 -6 20 -16 20 -22 0 -7 -5 -6 -15 2 -10 9 -15 9 -15 1
0 -6 5 -11 10 -11 6 0 10 -7 10 -15 0 -20 36 -19 44 1 4 9 13 14 21 10 10 -3
23 7 38 29 12 19 28 35 35 35 15 0 16 -17 0 -22 -7 -3 -3 -13 11 -27 18 -18
25 -20 32 -10 4 7 11 10 16 6 10 -11 -18 -28 -35 -22 -8 3 -20 5 -28 5 -8 0
-11 6 -7 18 5 14 3 14 -14 -3 -28 -28 -18 -53 24 -61 26 -5 32 -9 21 -15 -23
-13 -54 0 -67 27 -15 35 -31 30 -31 -10 0 -29 -3 -33 -20 -29 -11 3 -20 0 -20
-6 0 -6 5 -11 10 -11 6 0 10 -7 10 -15 0 -8 -7 -15 -15 -15 -8 0 -12 6 -10 13
3 7 -4 13 -20 13 -19 2 -25 -2 -23 -15 2 -9 11 -15 21 -13 9 2 17 -2 17 -8 0
-6 5 -8 10 -5 6 3 10 1 10 -4 0 -6 -7 -11 -16 -11 -14 0 -14 -2 -3 -16 11 -14
11 -18 -4 -29 -9 -7 -17 -15 -17 -19 0 -4 -7 -14 -15 -22 -13 -14 -15 -14 -15
0 0 10 -7 13 -20 11 -11 -2 -18 0 -15 6 4 5 14 9 23 9 12 0 17 10 19 35 1 20
-2 33 -7 30 -11 -7 -31 20 -27 36 2 8 2 11 0 7 -3 -5 -17 -8 -31 -7 -24 0 -24
1 -7 8 19 8 19 8 -3 20 -12 7 -26 9 -31 6 -5 -3 -12 3 -14 12 -4 17 -5 17 -6
0 0 -10 5 -20 13 -23 8 -3 12 -13 9 -25 -5 -17 -22 -23 -60 -22 -7 1 -11 -2
-9 -6 3 -4 28 -8 56 -9 43 -2 51 1 46 13 -3 9 0 15 9 15 19 0 19 -37 1 -56
-19 -18 -26 -18 -26 1 0 8 -4 15 -8 15 -5 0 -8 -17 -7 -37 2 -29 7 -38 21 -39
11 -1 24 -3 29 -4 6 -1 14 -2 18 -1 14 3 2 -22 -13 -27 -7 -3 -10 0 -6 7 9 14
-9 14 -33 1 -14 -7 -23 -5 -36 10 -20 22 -50 26 -61 9 -4 -8 1 -9 16 -4 19 6
22 4 17 -10 -4 -9 -7 -21 -7 -27 0 -6 -9 -3 -20 7 -24 22 -26 41 -4 53 15 8
15 11 -5 31 -25 25 -31 26 -31 5 0 -9 5 -12 12 -8 8 5 9 0 5 -17 -4 -13 -7
-28 -7 -33 0 -4 -7 -6 -15 -2 -11 4 -15 -2 -15 -21 0 -25 0 -26 20 -8 12 11
20 14 21 7 1 -7 2 -18 3 -24 1 -9 18 -13 49 -13 35 1 46 -3 43 -12 -3 -7 -1
-13 5 -13 6 0 8 -4 5 -8 -3 -5 1 -9 9 -9 8 0 15 4 15 8 0 14 41 17 47 3 8 -20
-6 -32 -17 -14 -12 19 -16 13 -24 -32 -4 -24 -3 -38 4 -38 5 0 10 -8 10 -17 0
-14 -3 -13 -16 5 -9 13 -14 32 -11 43 3 12 0 19 -10 19 -8 0 -11 -4 -8 -10 3
-5 -3 -10 -14 -10 -12 0 -21 -4 -21 -10 0 -9 13 -14 31 -12 4 1 5 -7 2 -18 -6
-23 -58 -23 -58 0 0 10 -10 14 -30 13 -22 -2 -26 0 -15 7 12 8 11 10 -6 10
-21 0 -26 -22 -10 -48 4 -6 4 -12 0 -12 -4 0 0 -8 8 -17 27 -32 38 -79 23
-100 -14 -18 -21 -42 -8 -30 3 4 13 1 21 -6 13 -10 14 -8 8 11 -5 14 -3 22 4
22 8 0 10 10 6 28 -5 27 -5 27 8 -3 8 -16 10 -32 6 -35 -5 -3 -5 -12 0 -20 6
-8 10 -10 10 -4 0 6 14 14 31 18 17 3 28 10 24 16 -3 5 -2 10 3 10 6 0 13 -7
16 -16 9 -23 8 -26 -6 -21 -17 6 -48 -11 -48 -25 0 -7 5 -6 15 2 9 7 19 10 22
6 4 -4 1 -11 -7 -16 -8 -5 -11 -12 -7 -17 11 -11 40 10 43 31 1 10 6 21 10 24
4 4 4 -1 0 -12 -5 -14 -3 -17 10 -12 8 3 17 6 20 6 2 0 1 7 -3 16 -5 15 -3 15
20 -1 29 -18 29 -18 40 33 3 12 1 22 -4 22 -5 0 -9 4 -9 9 0 5 8 8 18 6 9 -1
16 -7 15 -12 -1 -5 14 -7 33 -5 21 3 34 0 34 -7 0 -6 10 -10 23 -10 16 1 18 2
5 6 -19 5 -25 23 -7 23 6 0 9 10 7 23 -2 12 -9 21 -16 19 -7 -1 -12 9 -11 25
0 25 1 26 9 8 5 -11 9 -14 9 -7 1 6 5 12 10 12 5 0 7 -9 4 -19 -3 -12 3 -26
16 -37 26 -22 27 -35 4 -28 -10 3 -5 -2 10 -11 16 -9 31 -14 35 -11 3 3 0 6
-6 6 -7 0 -12 5 -12 11 0 6 7 8 16 5 13 -5 15 -1 10 19 -4 14 -2 25 3 25 5 0
11 6 14 13 2 6 3 4 2 -5 -4 -21 11 -24 18 -5 4 9 6 9 6 0 1 -6 -3 -15 -9 -18
-16 -10 -11 -25 6 -18 13 5 15 16 12 55 -5 43 -3 48 15 48 11 0 29 7 39 17 16
15 18 15 18 0 0 -18 -33 -40 -44 -30 -3 4 -5 -4 -5 -18 1 -13 1 -28 -1 -34 -1
-5 -2 -19 -1 -30 2 -19 3 -19 11 2 7 17 16 21 38 19 26 -4 29 -1 26 21 -1 14
-9 30 -16 35 -10 8 -10 11 0 15 6 2 12 11 12 19 0 8 7 14 16 14 10 0 14 5 10
15 -3 8 -9 23 -12 33 -5 15 -4 15 10 -2 8 -10 20 -15 26 -11 9 6 9 10 -1 16
-7 4 -10 11 -6 16 5 4 12 1 17 -7 13 -21 12 -26 -7 -46 -17 -17 -17 -17 5 -12
23 6 23 6 7 -18 -9 -13 -15 -30 -14 -37 3 -23 -1 -36 -17 -52 -9 -9 -14 -19
-10 -22 3 -4 12 -1 18 5 16 16 28 15 28 -3 0 -8 -4 -15 -10 -15 -6 0 -6 -9 0
-24 5 -13 6 -27 2 -31 -3 -3 2 -3 13 1 11 5 14 9 7 12 -14 4 -16 32 -2 32 16
0 12 18 -9 39 -22 22 -16 35 17 38 19 2 21 -1 16 -22 -8 -31 2 -59 17 -49 8 5
8 8 0 14 -8 4 -9 21 -5 51 7 38 9 41 14 19 4 -14 4 -30 1 -35 -3 -6 2 -3 11 7
17 19 38 20 50 3 4 -5 7 8 6 30 0 23 -3 30 -5 18 -5 -27 -18 -29 -41 -7 -15
15 -14 16 8 10 14 -3 19 -3 12 0 -6 3 -10 10 -7 14 6 10 -27 5 -48 -6 -6 -4
-5 1 4 10 9 9 25 18 37 19 12 1 22 7 22 15 0 7 -4 10 -10 7 -5 -3 -10 -1 -10
4 0 13 10 14 29 2 7 -5 11 -13 7 -19 -3 -6 3 -13 14 -17 11 -3 20 -10 20 -14
0 -4 7 -8 15 -8 8 0 11 5 8 11 -3 7 -1 6 7 -1 13 -12 4 -37 -11 -28 -8 6 -10
1 -13 -37 -1 -7 5 -12 12 -10 8 1 11 -2 6 -9 -5 -9 -2 -10 9 -6 22 8 28 -14 9
-36 -14 -16 -14 -17 0 -12 22 9 41 64 28 80 -5 6 -7 15 -3 18 8 9 32 -24 33
-45 0 -10 9 -22 19 -28 30 -16 36 -12 16 10 -10 11 -15 20 -10 20 4 0 2 7 -5
15 -11 13 -10 18 6 29 10 8 16 18 11 22 -4 4 -13 2 -19 -4 -7 -7 -17 -12 -22
-12 -6 0 -2 7 8 15 14 11 16 15 5 15 -12 0 -12 2 0 9 8 5 10 14 6 21 -5 9 -4
11 4 6 7 -4 10 -13 8 -19 -2 -7 7 -20 20 -30 20 -16 21 -20 8 -33 -17 -18 -20
-44 -4 -44 5 0 7 5 4 10 -9 14 8 13 23 -2 9 -9 12 -9 12 1 0 8 6 11 16 7 11
-4 15 -2 11 7 -3 8 1 14 9 14 9 0 10 -5 5 -15 -5 -9 -5 -29 0 -46 12 -40 12
-66 1 -48 -6 9 -12 5 -22 -15 l-13 -28 -7 25 c-6 22 -7 21 -13 -14 -3 -22 -4
-42 -2 -45 3 -2 5 3 5 12 0 23 12 21 28 -3 7 -11 17 -20 23 -20 7 0 6 8 -3 23
-17 27 -13 58 8 50 8 -3 14 0 14 7 0 6 5 8 12 4 7 -4 8 -3 4 4 -9 15 33 62 56
62 12 0 18 -7 18 -24 0 -13 7 -26 15 -30 8 -3 15 -11 15 -18 0 -9 -3 -9 -11 2
-9 12 -10 11 -4 -5 4 -11 9 -26 12 -32 10 -26 -14 -12 -27 15 -12 27 -12 27
-21 5 -5 -13 -16 -23 -25 -23 -10 0 -14 -3 -10 -7 10 -11 36 -12 36 -2 0 5 4
9 9 9 6 0 7 -16 4 -37 -6 -33 -5 -35 9 -22 9 8 12 17 6 20 -5 3 0 9 11 12 18
4 20 12 20 66 -1 58 -12 81 -22 44 -4 -14 -5 -12 -6 5 -1 13 5 22 14 22 11 0
15 12 15 50 0 30 -4 50 -11 50 -6 0 -8 -7 -5 -16 3 -8 2 -12 -4 -9 -6 3 -10 1
-10 -6 0 -7 -3 -10 -6 -7 -3 4 -1 15 5 27 13 24 -3 39 -24 21 -11 -9 -21 -8
-45 6 -31 19 -42 38 -15 28 9 -4 15 0 16 7 0 8 4 4 9 -8 8 -19 13 -21 41 -13
39 12 41 13 33 34 -3 9 -15 16 -25 16 -10 0 -19 6 -19 13 0 7 -7 4 -15 -7 -15
-19 -15 -19 -16 5 0 22 -1 22 -8 4 -7 -17 -9 -16 -15 13 -5 22 -3 38 6 49 11
14 11 16 -4 10 -9 -3 -19 -1 -21 6 -3 7 -4 -4 -2 -23 1 -19 0 -27 -2 -17 -3
10 -11 21 -20 24 -12 5 -12 7 -1 14 11 7 11 9 0 9 -9 0 -11 7 -7 21 l7 22 -22
-21 c-20 -18 -24 -19 -37 -6 -9 8 -12 18 -9 22 4 3 11 0 15 -7 5 -8 11 -9 15
-3 7 12 -22 25 -36 16 -6 -4 -14 0 -19 7 -8 11 -12 10 -22 -6 -6 -11 -15 -33
-19 -50 -4 -21 -6 -13 -5 26 1 36 -3 62 -12 73 -13 15 -13 19 0 27 11 7 9 9
-8 9 -20 0 -21 -3 -12 -26 5 -15 7 -29 5 -32 -7 -7 -26 44 -26 70 0 17 -2 18
-15 8 -13 -10 -15 -9 -16 11 0 21 -1 22 -8 5 -10 -25 -36 -29 -53 -8 -11 13
-10 15 5 9 9 -3 17 -3 17 2 0 5 -9 11 -20 14 -13 3 -20 0 -20 -9 0 -8 -5 -14
-11 -14 -5 0 -7 -5 -3 -11 5 -8 -6 -9 -36 -4 -34 6 -41 5 -35 -6 5 -8 4 -11 0
-6 -5 4 -9 16 -10 27 -2 24 30 28 39 5 4 -13 9 -13 25 -3 21 13 18 38 -5 38
-8 0 -11 -6 -7 -17 5 -15 3 -15 -14 2 -11 11 -18 25 -16 32 3 7 -7 13 -24 15
-17 2 -27 8 -25 16 2 9 -4 12 -17 7 -11 -3 -23 0 -27 6 -5 8 -2 10 9 6 8 -3
18 0 20 8 8 19 -4 27 -19 14 -16 -13 -34 -3 -34 19 -1 14 -4 13 -19 -5 -14
-16 -21 -19 -30 -10 -6 6 -11 8 -11 5 0 -3 -16 -2 -36 2 -29 7 -34 5 -30 -6 7
-17 -1 -18 -18 -2 -11 11 -11 15 3 25 13 11 11 12 -16 7 -29 -6 -34 -3 -43 21
-7 19 -7 31 0 40 14 17 -1 27 -20 14 -23 -14 -34 -11 -20 6 12 15 6 18 -17 8z"/>
<path d="M17228 1445 c-4 -19 -1 -25 13 -25 12 0 16 -5 13 -15 -7 -17 -44 -21
-44 -5 0 6 -7 10 -15 10 -8 0 -15 -5 -15 -11 0 -5 5 -7 10 -4 6 3 10 1 10 -4
0 -6 8 -11 17 -11 9 0 14 -2 12 -4 -2 -2 -35 -1 -72 3 -69 7 -93 0 -59 -18 13
-7 23 -6 33 2 7 7 5 2 -5 -10 -13 -16 -15 -26 -7 -40 13 -25 9 -52 -10 -63
-11 -8 -10 -12 6 -25 11 -8 28 -13 38 -11 9 2 17 -2 17 -9 0 -7 7 -15 15 -19
8 -3 16 -16 16 -28 1 -17 3 -18 6 -6 2 10 -5 30 -16 44 -12 15 -21 35 -21 45
0 11 -5 19 -11 19 -6 0 -8 -9 -4 -20 5 -15 3 -18 -8 -14 -17 6 -11 54 7 54 22
0 37 -17 30 -34 -4 -11 1 -24 14 -36 18 -17 21 -17 26 -3 4 9 4 18 1 21 -3 3
-5 -1 -5 -8 0 -7 -3 -10 -6 -7 -4 4 -2 12 3 19 5 7 13 22 16 33 l7 20 -16 -20
c-16 -19 -16 -19 -10 8 4 16 3 26 -2 23 -5 -3 -8 8 -7 24 1 18 -3 30 -10 30
-7 0 -13 -6 -12 -12 1 -38 -4 -46 -23 -41 -28 7 -26 45 3 58 29 13 77 7 71 -8
-2 -7 6 -13 20 -13 14 -1 27 4 30 12 3 8 1 14 -4 14 -6 0 -10 9 -10 20 0 13 5
18 15 14 11 -5 15 1 15 22 0 27 -1 27 -16 8 -8 -10 -13 -13 -9 -6 6 11 -7 17
-28 13 -4 -1 -3 8 3 19 8 16 8 20 -3 20 -8 0 -17 -11 -19 -25z"/>
<path d="M17317 1420 c-4 -16 -4 -37 -1 -45 4 -9 1 -15 -7 -15 -12 0 -12 -2 0
-9 7 -5 10 -14 7 -20 -4 -6 -12 -9 -17 -6 -5 4 -9 1 -9 -4 0 -6 7 -11 15 -11
8 0 15 -7 15 -15 0 -8 6 -15 14 -15 8 0 17 -4 20 -9 9 -14 -27 -7 -45 9 -33
29 -44 35 -62 36 -13 2 -15 -1 -7 -11 11 -13 10 -105 -2 -105 -4 0 -6 -13 -6
-30 1 -19 6 -30 16 -30 12 0 12 -3 2 -15 -8 -10 -9 -15 -2 -15 6 0 16 9 22 19
14 26 13 31 -5 25 -18 -7 -22 41 -3 52 8 5 9 0 6 -14 -7 -25 -2 -28 17 -9 19
20 23 51 6 63 -8 6 -11 16 -6 24 6 10 10 9 17 -4 6 -11 16 -15 29 -11 12 4 19
2 19 -7 0 -7 11 0 25 16 20 23 24 37 20 60 -4 22 -3 27 3 17 6 -8 17 -11 26
-8 29 11 17 22 -29 25 -42 2 -45 1 -54 -30 l-9 -33 -1 35 c-1 19 -4 46 -8 59
-4 16 -2 22 4 18 7 -4 10 3 9 18 -2 34 -12 31 -19 -5z"/>
<path d="M19115 731 c-3 -5 3 -12 14 -16 12 -4 19 -15 20 -33 0 -15 1 -36 1
-46 1 -11 -3 -22 -8 -25 -5 -3 -11 -14 -15 -23 -4 -11 -12 -15 -23 -11 -14 5
-15 3 -3 -18 11 -20 14 -21 17 -6 4 19 11 21 30 8 11 -6 11 -10 0 -18 -29 -22
-44 -21 -56 6 -8 18 -20 26 -37 27 -17 1 -25 -2 -22 -10 7 -18 -13 -46 -20
-28 -6 14 -33 16 -33 2 0 -5 5 -10 10 -10 6 0 10 -9 10 -19 0 -11 -4 -23 -10
-26 -5 -3 -10 3 -10 14 0 12 -4 21 -9 21 -5 0 -8 -8 -7 -17 2 -25 -31 -28 -39
-4 -3 12 -11 21 -16 21 -13 0 -11 -24 3 -38 9 -9 8 -12 -5 -12 -15 0 -15 -2 3
-20 11 -11 20 -29 20 -40 0 -11 3 -20 8 -20 13 1 42 27 42 39 0 17 -18 13 -29
-6 -9 -15 -10 -14 -11 10 0 18 5 27 16 27 8 0 12 5 9 10 -12 19 7 10 26 -12
10 -13 18 -18 19 -11 0 6 -6 14 -12 16 -8 4 -7 6 3 6 9 1 19 -9 23 -21 9 -37
7 -48 -9 -42 -8 4 -21 1 -29 -5 -7 -6 -15 -9 -18 -6 -3 3 -11 -1 -18 -10 -7
-8 -23 -15 -36 -15 -13 0 -24 -5 -24 -11 0 -5 5 -7 10 -4 6 3 10 -1 10 -9 0
-9 6 -16 13 -16 8 0 7 -3 -2 -9 -26 -17 33 -37 64 -23 35 16 37 15 18 -7 -9
-11 -20 -18 -25 -15 -10 6 -11 -10 -1 -19 3 -4 12 -2 20 5 22 18 24 3 3 -20
-24 -26 -25 -29 -2 -35 15 -4 15 -5 -2 -6 -12 -1 -16 -6 -12 -16 3 -8 1 -15
-4 -15 -6 0 -10 7 -10 16 0 11 -6 14 -21 9 -15 -5 -19 -4 -15 4 4 6 2 11 -3
11 -6 0 -11 -7 -11 -15 0 -8 -5 -15 -11 -15 -5 0 -7 5 -4 11 4 6 -2 13 -13 16
-14 3 -18 10 -14 26 5 20 4 21 -12 7 -16 -13 -20 -12 -31 4 -13 17 -14 17 -25
-3 -10 -19 -8 -21 17 -22 24 -2 25 -2 5 -6 -31 -6 -17 -23 16 -19 15 2 19 1
10 -1 -26 -6 -22 -25 5 -21 12 2 21 -2 20 -8 -1 -6 12 -9 30 -8 18 2 24 1 15
-2 -10 -3 -18 -9 -18 -14 0 -5 7 -7 15 -4 22 9 18 -19 -5 -34 -24 -15 -26 -32
-4 -32 8 0 12 5 9 10 -3 6 0 10 9 10 8 0 17 6 19 13 4 7 6 6 6 -4 1 -19 28
-45 38 -36 3 4 0 13 -6 21 -10 12 -8 15 11 19 l23 4 -22 8 c-35 11 -27 26 11
23 32 -2 34 -4 23 -22 -6 -12 -10 -24 -9 -28 1 -4 -6 -4 -15 -1 -11 4 -14 3
-9 -5 6 -11 -22 -61 -34 -62 -3 0 -6 12 -5 27 0 14 -6 28 -12 30 -7 3 -13 -3
-13 -12 0 -11 -7 -15 -25 -12 -13 1 -27 6 -31 10 -12 12 -26 8 -21 -5 2 -7 0
-21 -5 -30 -7 -14 -5 -18 11 -18 11 0 26 -3 34 -6 10 -3 17 2 20 13 4 16 5 17
6 0 1 -14 9 -17 46 -15 38 1 44 4 40 19 -3 9 -1 20 5 24 6 4 10 -4 10 -19 0
-26 1 -26 85 -26 l84 0 1 297 c0 203 -4 300 -11 310 -8 9 -8 13 0 13 6 0 11
17 11 40 0 23 -5 40 -11 40 -6 0 -9 7 -5 15 3 8 1 15 -4 15 -6 0 -10 -8 -10
-17 -1 -15 -3 -15 -19 5 -21 24 -27 27 -36 13z"/>
<path d="M12960 318 c0 -16 -51 -68 -67 -68 -7 0 -12 -3 -11 -7 3 -15 -14 -43
-26 -43 -15 0 -36 56 -29 78 4 13 3 14 -5 3 -7 -10 -12 -7 -20 15 -6 16 -11
22 -11 13 -1 -9 6 -30 14 -45 8 -16 15 -37 15 -47 0 -10 7 -28 15 -41 14 -21
14 -24 -2 -37 -15 -12 -16 -12 -10 3 3 10 2 20 -3 23 -6 4 -10 15 -10 25 0 12
-10 21 -30 25 -16 4 -30 11 -30 16 0 5 11 7 25 3 19 -5 25 -2 25 10 0 9 -4 16
-10 16 -5 0 -10 7 -10 15 0 8 -4 15 -10 15 -5 0 -10 -4 -10 -9 0 -6 5 -13 10
-16 16 -10 11 -21 -10 -21 -11 0 -20 5 -20 10 0 5 -9 -1 -20 -14 -11 -12 -17
-27 -14 -31 3 -5 -2 -9 -10 -9 -8 0 -18 4 -21 10 -3 6 -15 10 -26 10 -20 0
-26 15 -9 25 6 3 10 1 10 -4 0 -6 7 -11 16 -11 14 0 14 2 0 15 -12 13 -20 14
-36 5 -11 -6 -18 -15 -15 -21 4 -5 -1 -9 -9 -9 -9 0 -16 5 -16 11 0 6 -7 9
-15 5 -8 -3 -15 0 -15 6 0 6 -3 8 -7 5 -4 -4 -15 10 -25 30 l-19 38 5 -34 c5
-27 3 -32 -9 -27 -8 3 -15 0 -15 -7 0 -8 -3 -9 -8 -1 -13 19 -42 25 -42 9 0
-18 -17 -20 -23 -2 -4 9 -7 9 -18 -1 -11 -10 -17 -7 -35 15 -12 16 -26 25 -30
21 -4 -5 0 -16 9 -26 20 -22 22 -48 5 -58 -7 -5 -9 0 -6 14 4 12 0 26 -8 33
-8 6 -14 18 -14 25 0 8 -4 14 -9 14 -6 0 -5 -15 1 -36 5 -20 8 -37 6 -39 -2
-2 -20 0 -41 5 -34 7 -37 6 -32 -11 6 -17 3 -18 -19 -9 -22 8 -26 7 -26 -8 0
-10 7 -27 15 -39 8 -12 16 -33 17 -47 1 -14 7 -26 12 -26 6 0 4 -6 -2 -12 -10
-10 -15 -10 -22 2 -5 8 -6 18 -4 22 3 4 0 8 -5 8 -6 0 -11 -7 -11 -15 0 -17
-16 -20 -25 -6 -3 6 4 19 16 30 21 19 21 22 6 39 -10 10 -15 21 -12 24 12 11
-32 72 -56 78 -20 6 -24 3 -25 -17 -1 -12 2 -23 7 -23 5 0 9 -7 9 -15 0 -8 5
-15 10 -15 6 0 10 4 10 9 0 6 -4 13 -10 16 -16 10 -12 35 5 35 17 0 39 -46 29
-61 -3 -5 -12 -9 -20 -9 -8 0 -14 -7 -14 -15 0 -8 -4 -15 -10 -15 -5 0 -10 7
-10 15 0 8 -4 15 -10 15 -16 0 -5 -43 14 -54 12 -8 19 -7 25 3 7 11 10 9 16
-8 3 -11 3 -25 0 -31 -3 -6 1 -13 9 -16 20 -8 21 -24 1 -24 -9 0 -18 7 -21 15
-4 8 -11 15 -16 15 -6 0 -7 -7 -4 -16 4 -10 1 -14 -6 -12 -18 6 -23 49 -6 45
7 -2 3 1 -10 7 -12 6 -20 16 -18 23 6 14 -23 33 -48 33 -9 0 -16 -4 -16 -10 0
-5 3 -9 8 -9 18 3 32 -2 32 -12 0 -6 -9 -9 -20 -6 -17 4 -20 2 -15 -14 4 -11
2 -19 -4 -19 -6 0 -11 -5 -11 -11 0 -6 6 -9 13 -6 7 3 13 -6 14 -25 1 -16 -2
-26 -7 -23 -6 4 -10 1 -10 -4 0 -16 16 -13 30 4 10 12 10 21 1 41 -15 33 -14
34 9 34 17 0 19 -5 14 -28 -4 -21 -3 -24 5 -12 9 13 11 13 11 -2 0 -11 8 -18
18 -18 10 0 24 -6 30 -12 10 -10 15 -10 22 2 8 13 11 12 23 -4 10 -13 16 -15
21 -8 4 7 2 12 -3 12 -6 0 -11 7 -11 15 0 20 19 19 27 -1 4 -11 16 -15 42 -13
20 2 42 0 49 -5 14 -8 5 51 -11 72 -7 9 -5 17 9 27 15 11 17 16 7 26 -11 11
-13 9 -13 -6 -1 -19 -1 -19 -11 -2 -6 10 -9 19 -7 20 1 1 13 8 26 15 13 7 22
8 22 2 0 -5 -5 -10 -11 -10 -8 0 -8 -4 -1 -12 5 -7 9 -25 7 -41 -2 -15 1 -27
6 -27 5 0 9 15 10 33 0 27 2 29 9 12 5 -11 11 -28 14 -38 5 -17 7 -17 22 -3
18 18 34 13 34 -11 0 -13 2 -13 17 -2 13 11 17 11 20 2 3 -7 13 -13 23 -13 10
0 21 -4 24 -9 3 -5 15 -7 25 -4 10 3 22 0 25 -6 4 -7 -1 -11 -13 -11 -13 0
-19 -5 -15 -14 3 -7 16 -13 28 -13 17 -1 23 5 22 20 -1 12 6 21 17 23 12 2 17
-5 17 -24 0 -22 2 -24 11 -12 8 11 12 12 16 3 7 -20 66 14 59 33 -3 9 -6 20
-6 25 0 5 -4 9 -9 9 -4 0 -6 -11 -3 -25 3 -20 1 -24 -12 -19 -20 8 -21 38 -1
54 11 9 12 17 5 30 -13 25 -13 30 5 30 14 0 19 -11 16 -37 -1 -7 3 -13 9 -13
7 0 9 -8 5 -19 -4 -12 0 -21 11 -25 10 -4 14 -13 11 -26 -3 -11 -1 -22 3 -25
5 -3 10 5 12 17 2 12 9 23 17 26 10 3 13 -2 9 -22 -3 -14 -1 -26 3 -26 12 0
11 41 -1 60 -8 11 -12 12 -18 3 -12 -18 -36 2 -28 23 5 13 9 15 18 6 18 -18
32 -14 18 3 -10 12 -10 19 -2 27 8 8 13 6 18 -8 6 -20 13 -38 33 -88 7 -16 14
-26 18 -23 3 3 2 14 -3 24 -4 10 -8 27 -8 38 -1 11 -6 19 -13 18 -7 -2 -10 4
-7 12 10 24 18 18 41 -33 21 -47 22 -47 22 -14 1 17 -3 32 -9 32 -12 0 -13 47
-1 54 8 5 20 -22 27 -59 1 -5 3 -13 4 -17 4 -13 7 -27 9 -38 2 -17 21 -11 21
8 0 13 2 14 9 3 14 -21 60 -6 58 19 -1 11 -5 20 -9 20 -7 0 -12 -14 -10 -31 1
-3 -15 1 -34 10 -30 13 -44 35 -19 31 5 -1 13 8 17 20 l8 22 18 -22 18 -22 -1
31 c0 17 -4 31 -9 31 -5 0 -6 3 -3 7 4 3 -1 15 -10 26 -17 20 -17 20 6 14 30
-7 61 8 61 30 0 14 -2 14 -19 -1 -19 -17 -21 -17 -50 0 -17 10 -31 22 -31 26
0 12 10 9 27 -8 9 -8 19 -11 22 -6 3 5 13 12 21 15 9 3 4 6 -12 6 -28 1 -37
14 -18 26 6 4 17 1 25 -5 17 -14 20 1 4 17 -8 8 -8 13 1 18 6 4 17 -1 25 -11
7 -11 17 -15 22 -11 9 10 -33 47 -53 47 -8 0 -14 -5 -14 -12z"/>
</g>
</svg>
