<?xml version="1.0" standalone="no"?>
<!DOCTYPE svg PUBLIC "-//W3C//DTD SVG 20010904//EN"
 "http://www.w3.org/TR/2001/REC-SVG-20010904/DTD/svg10.dtd">
<svg version="1.0" xmlns="http://www.w3.org/2000/svg"
 width="940.000000pt" height="788.000000pt" viewBox="0 0 940.000000 788.000000"
 preserveAspectRatio="xMidYMid meet">
<metadata>
Created by potrace 1.16, written by Peter Selinger 2001-2019
</metadata>
<g transform="translate(0.000000,788.000000) scale(0.100000,-0.100000)"
fill="#000000" stroke="none">
<path d="M5050 7367 c-3 -3 -30 -7 -61 -10 -60 -6 -170 -39 -206 -63 -12 -8
-29 -14 -38 -14 -8 0 -15 -3 -15 -8 0 -4 -15 -14 -32 -21 -18 -8 -38 -20 -44
-25 -31 -29 -64 -55 -64 -50 0 3 -13 -7 -28 -22 -63 -64 -110 -104 -121 -104
-7 0 -10 -4 -7 -8 3 -5 -15 -29 -40 -53 -26 -24 -64 -69 -87 -99 -22 -30 -49
-61 -59 -68 -10 -7 -18 -19 -18 -27 0 -7 -3 -15 -7 -17 -10 -4 -57 -77 -66
-100 -3 -10 -10 -18 -15 -18 -5 0 -15 -13 -22 -30 -7 -16 -16 -30 -20 -30 -4
0 -14 -17 -24 -37 -27 -63 -81 -161 -98 -180 -9 -10 -16 -22 -16 -26 0 -16
-25 -67 -34 -67 -5 0 -7 -4 -4 -9 7 -11 -22 -71 -35 -71 -5 0 -9 -9 -9 -20 0
-11 -5 -20 -12 -20 -6 0 -9 -3 -5 -6 6 -6 -29 -105 -41 -114 -4 -3 -8 -12 -10
-20 -2 -8 -23 -62 -47 -120 -23 -58 -53 -131 -65 -162 -12 -31 -27 -59 -34
-61 -16 -6 -81 -231 -73 -251 4 -9 14 -16 23 -16 10 0 14 5 10 15 -5 15 20
125 47 207 12 35 20 44 42 46 14 2 32 -1 38 -6 7 -5 24 -12 38 -15 25 -6 27
-3 74 121 65 172 158 367 181 380 15 8 30 5 69 -18 70 -39 267 -107 506 -174
31 -9 59 -23 63 -31 3 -8 -24 -74 -59 -147 -68 -142 -135 -302 -135 -324 0
-17 18 -18 33 -1 7 6 24 37 38 67 27 55 106 215 140 281 10 19 25 41 33 49 9
7 16 21 16 31 0 11 5 19 10 19 6 0 10 6 10 14 0 8 6 16 13 19 7 2 24 27 37 53
14 27 28 51 33 52 4 2 7 8 7 13 0 6 11 22 25 37 14 15 25 32 25 38 0 7 11 19
25 28 14 9 24 20 23 24 -2 9 132 145 230 232 58 52 72 71 73 95 l1 30 9 -35
c17 -66 26 -165 18 -187 -5 -13 -5 -23 0 -23 11 0 32 -157 33 -255 1 -55 4
-71 8 -50 4 17 11 39 15 50 5 14 4 16 -2 7 -6 -8 -9 43 -8 143 1 96 -6 209
-16 298 -10 78 -18 163 -19 190 0 26 -4 47 -10 47 -5 0 -10 10 -10 23 0 12 -7
35 -16 52 -8 16 -11 31 -6 33 6 2 7 13 4 25 -6 25 -32 66 -32 52 -1 -30 -20
26 -20 57 0 27 -4 36 -13 32 -9 -3 -13 4 -11 25 1 17 -5 36 -13 43 -8 7 -19
23 -25 37 -7 18 -11 22 -17 12 -6 -10 -10 -9 -15 4 -3 9 -10 13 -16 10 -5 -3
-18 11 -27 32 -28 60 -61 80 -70 43 -8 -32 -25 -23 -18 9 4 21 2 30 -10 35
-13 4 -15 1 -10 -14 3 -11 3 -25 -2 -32 -5 -9 -10 -3 -14 17 l-6 30 -11 -25
c-10 -23 -11 -23 -11 -4 -1 12 9 26 24 34 14 7 25 17 25 22 0 4 7 8 16 8 14 0
15 -2 3 -17 -13 -17 -13 -17 13 0 30 19 74 19 90 0 6 -7 16 -13 22 -13 22 0
93 -75 128 -135 47 -80 78 -147 78 -168 0 -10 7 -33 15 -52 8 -20 15 -55 16
-80 2 -25 6 -45 9 -45 4 0 7 -15 7 -32 0 -18 4 -82 8 -143 4 -60 8 -144 9
-187 0 -42 4 -74 7 -72 3 2 4 -31 2 -74 -2 -42 -5 -126 -7 -187 -2 -60 -7
-121 -11 -135 -3 -14 -6 -42 -6 -64 1 -29 -2 -37 -13 -33 -8 3 -17 1 -20 -6
-3 -10 -8 16 -8 53 -1 3 2 17 6 33 3 15 2 27 -3 27 -7 0 -23 -77 -26 -124 0
-4 20 -9 44 -10 64 -3 71 -18 55 -114 -15 -88 -29 -145 -38 -160 -6 -11 42
-47 52 -38 3 3 1 6 -4 6 -9 0 -7 41 12 223 7 65 8 67 34 67 61 0 470 -97 620
-146 135 -45 160 -62 154 -109 -2 -11 -6 -47 -9 -80 -3 -32 -8 -61 -10 -64 -3
-2 3 -10 13 -18 16 -12 16 -14 0 -26 -15 -12 -15 -14 3 -25 10 -7 19 -20 19
-29 0 -31 23 3 26 39 13 168 15 258 6 258 -7 0 -10 76 -10 238 2 342 -19 691
-48 832 -52 244 -101 317 -274 407 -30 15 -61 34 -68 41 -7 6 -22 12 -32 12
-10 0 -22 4 -25 10 -3 5 -27 16 -53 24 -71 23 -121 42 -128 49 -4 4 -18 7 -30
7 -13 0 -26 5 -29 10 -3 6 -16 10 -28 10 -12 0 -47 9 -77 21 -30 11 -66 22
-80 25 -14 3 -59 13 -100 24 -41 10 -104 21 -140 25 -36 3 -74 8 -85 11 -11 3
-23 3 -25 1z"/>
<path d="M3821 5376 c2 -2 65 -21 139 -41 195 -52 434 -125 444 -135 10 -10
-14 -140 -26 -140 -35 0 -98 25 -103 40 -8 24 -32 32 -55 20 -12 -6 -47 -7
-97 -1 -101 11 -222 6 -298 -14 -74 -20 -203 -84 -270 -134 -27 -21 -54 -38
-58 -39 -11 -1 -48 -41 -97 -105 -22 -29 -81 -101 -130 -162 -197 -238 -292
-471 -330 -800 -64 -573 138 -1170 509 -1498 68 -60 211 -160 219 -152 2 2 -4
16 -15 32 -31 46 -89 164 -108 223 -10 30 -25 65 -33 77 -8 13 -16 44 -17 70
-2 27 -8 82 -14 123 -32 232 3 536 94 807 19 58 32 110 28 115 -3 6 -1 8 4 5
6 -4 14 0 17 9 8 22 8 26 -4 19 -5 -3 -5 7 1 25 13 35 23 41 14 8 -5 -18 -4
-20 4 -8 6 8 8 22 6 31 -6 18 71 171 140 279 204 320 484 584 785 739 149 77
352 149 334 119 -4 -6 1 -8 12 -4 43 13 224 36 292 36 39 0 72 1 72 3 0 15
-30 141 -35 145 -11 12 -210 4 -256 -9 -24 -7 -46 -13 -49 -14 -73 -15 -130
-31 -130 -36 0 -3 -12 -6 -26 -6 -15 0 -29 -5 -33 -10 -3 -6 -21 -14 -39 -18
-18 -3 -30 -10 -27 -14 2 -5 -7 -7 -20 -5 -19 2 -25 -2 -25 -17 0 -10 -4 -19
-10 -19 -5 0 -10 3 -10 8 0 4 -17 18 -38 32 -20 14 -40 29 -43 33 -3 5 -9 8
-13 6 -4 -1 -34 11 -67 27 -50 24 -59 32 -55 49 14 54 18 133 8 139 -8 5 -8
15 -2 32 15 39 10 53 -6 17 -8 -18 -16 -33 -18 -33 -2 0 -48 14 -102 30 -116
36 -434 120 -454 120 -7 0 -11 -2 -9 -4z"/>
<path d="M5430 4645 c7 -9 10 -18 7 -22 -4 -3 1 -12 11 -19 9 -7 14 -15 10
-19 -3 -4 -16 3 -28 15 -12 12 -24 19 -27 16 -3 -3 53 -65 124 -138 71 -73
144 -153 163 -178 18 -25 30 -37 26 -27 -3 9 -9 25 -13 35 -7 20 48 -46 92
-110 43 -62 99 -191 121 -278 26 -104 27 -446 1 -565 -28 -132 -30 -140 -24
-135 13 13 58 227 69 333 9 93 9 141 0 225 -30 264 -105 410 -335 649 -67 71
-139 152 -160 181 -21 28 -41 52 -44 52 -3 0 0 -7 7 -15z"/>
<path d="M3138 4573 c-49 -58 -127 -212 -171 -339 -146 -419 -120 -923 69
-1364 134 -311 341 -554 587 -688 39 -22 83 -43 96 -47 l24 -7 -22 28 c-12 15
-28 29 -36 30 -8 1 -42 19 -76 40 -330 200 -580 593 -674 1056 -93 466 -25
918 189 1253 36 56 41 69 14 38z"/>
<path d="M4790 4491 c-392 -84 -772 -403 -970 -816 -150 -313 -193 -646 -120
-928 22 -89 69 -199 80 -192 4 3 11 -2 14 -11 4 -10 2 -13 -7 -9 -6 4 -5 1 3
-7 8 -7 33 -40 55 -73 55 -82 120 -150 185 -195 62 -42 143 -84 180 -94 14 -3
2 5 -27 18 -195 91 -340 264 -434 516 -31 83 -38 83 -13 1 8 -29 13 -55 11
-58 -3 -2 -12 19 -20 49 -9 29 -21 73 -29 98 -9 31 -13 106 -12 235 0 199 9
263 64 442 30 101 139 319 212 425 65 95 190 229 293 315 222 185 481 285 740
285 137 1 221 -18 340 -77 169 -83 298 -224 380 -413 13 -31 24 -50 25 -42 0
32 -101 218 -154 281 -107 128 -238 207 -422 253 -84 22 -265 20 -374 -3z"/>
<path d="M4885 4340 c-205 -32 -419 -140 -617 -314 -139 -121 -134 -142 56
-255 177 -105 340 -192 591 -316 116 -56 220 -114 233 -128 13 -14 26 -43 29
-65 5 -36 -3 -56 -67 -179 -112 -211 -130 -238 -184 -258 -40 -15 -53 -16 -89
-6 -52 16 -475 223 -577 283 -41 24 -82 47 -90 51 -8 4 -69 40 -135 81 -122
77 -170 92 -194 62 -42 -50 -55 -367 -21 -518 65 -297 248 -498 511 -562 94
-23 265 -21 364 4 407 104 762 459 914 915 52 156 71 269 71 424 -1 388 -177
667 -483 760 -79 24 -226 34 -312 21z"/>
<path d="M4760 3214 c-127 -78 -122 -77 -173 -55 -43 18 -44 18 -55 0 -7 -10
-12 -21 -12 -24 0 -10 144 -75 165 -75 11 0 65 28 120 61 97 60 101 62 140 51
41 -11 65 -3 65 22 0 14 -120 66 -152 66 -13 0 -57 -21 -98 -46z"/>
<path d="M4195 1996 c-63 -29 -102 -66 -110 -103 -7 -31 -44 -108 -80 -168
-14 -22 -28 -47 -31 -55 -35 -80 -45 -100 -54 -105 -5 -3 -10 -14 -10 -24 0
-10 -7 -24 -15 -31 -8 -7 -13 -16 -10 -20 3 -5 1 -11 -5 -15 -5 -3 -10 -17
-10 -31 0 -14 -4 -23 -10 -19 -6 4 -13 -7 -16 -24 -4 -17 -10 -28 -15 -25 -9
5 -13 -9 -10 -34 1 -7 -5 -20 -14 -28 -9 -9 -15 -30 -14 -47 1 -21 -9 -50 -29
-82 -17 -27 -44 -77 -60 -110 -17 -33 -40 -70 -52 -82 -11 -13 -18 -23 -15
-23 3 0 -1 -13 -10 -30 -8 -16 -15 -33 -15 -37 0 -7 77 -10 111 -4 4 1 12 15
19 31 7 16 16 30 21 30 5 0 9 6 9 13 0 6 25 54 55 106 30 51 55 97 55 102 0 5
8 9 18 9 24 0 42 19 42 46 0 12 7 24 15 28 8 3 15 14 15 25 0 10 7 21 15 25 8
3 15 12 15 21 0 8 4 15 8 15 4 0 13 12 20 28 6 15 20 41 31 57 11 17 29 47 40
68 12 21 30 48 41 59 11 12 20 27 20 33 0 6 6 17 13 24 6 6 12 15 12 19 1 13
38 77 49 84 6 4 7 8 3 8 -5 0 1 12 12 26 12 15 21 32 21 40 0 7 20 36 45 65
55 64 60 106 19 138 -35 27 -77 26 -139 -3z"/>
</g>
</svg>
