<?xml version="1.0" standalone="no"?>
<!DOCTYPE svg PUBLIC "-//W3C//DTD SVG 20010904//EN"
 "http://www.w3.org/TR/2001/REC-SVG-20010904/DTD/svg10.dtd">
<svg version="1.0" xmlns="http://www.w3.org/2000/svg"
 width="940.000000pt" height="788.000000pt" viewBox="0 0 940.000000 788.000000"
 preserveAspectRatio="xMidYMid meet">
<metadata>
Created by potrace 1.16, written by Peter Selinger 2001-2019
</metadata>
<g transform="translate(0.000000,788.000000) scale(0.100000,-0.100000)"
fill="#000000" stroke="none">
<path d="M4210 7003 c-55 -5 -170 -34 -176 -44 -3 -5 -12 -9 -20 -9 -16 0
-107 -58 -112 -72 -2 -4 -10 -8 -18 -8 -8 0 -14 -5 -14 -10 0 -6 -10 -15 -22
-21 -13 -6 -37 -29 -55 -52 -18 -23 -50 -62 -73 -86 -22 -24 -40 -48 -40 -53
0 -5 -11 -24 -24 -41 -31 -41 -110 -209 -126 -267 -7 -25 -16 -54 -20 -65 -15
-38 -21 -60 -27 -100 -3 -22 -10 -51 -16 -65 -5 -14 -12 -34 -14 -45 -1 -11
-10 -42 -19 -70 -15 -44 -37 -133 -48 -190 -3 -11 -12 -51 -20 -90 -21 -90
-25 -109 -32 -170 -3 -27 -14 -104 -24 -170 -18 -120 -19 -184 -5 -217 6 -15
2 -18 -24 -18 -28 0 -31 -3 -31 -30 0 -16 -3 -30 -7 -30 -5 0 -8 -10 -9 -22 0
-13 -4 -79 -8 -148 -9 -147 -9 -156 -1 -323 6 -140 17 -177 63 -201 l27 -15
-34 -1 -33 0 5 -137 c3 -76 11 -169 16 -208 6 -38 13 -90 16 -115 15 -112 43
-160 94 -161 20 0 29 -3 21 -6 -8 -4 -22 -14 -31 -25 -9 -10 -19 -18 -22 -18
-11 0 -127 -124 -155 -165 -15 -22 -30 -41 -34 -43 -5 -2 -8 -10 -8 -18 0 -8
-4 -14 -10 -14 -5 0 -10 -7 -10 -16 0 -9 -8 -28 -19 -42 -10 -15 -21 -39 -25
-54 -3 -16 -9 -40 -12 -55 -4 -16 -12 -35 -19 -43 -18 -21 -78 -138 -92 -180
-34 -98 -58 -207 -69 -310 -4 -30 -11 -60 -16 -67 -6 -7 -4 -13 4 -15 10 -4
11 -12 3 -34 -6 -16 -12 -112 -14 -214 -2 -102 -7 -187 -12 -190 -10 -7 -7
-85 4 -96 4 -4 7 -20 7 -36 0 -15 4 -36 9 -46 5 -9 21 -48 36 -87 15 -38 32
-77 39 -85 7 -8 24 -35 37 -60 13 -25 26 -47 29 -50 3 -3 17 -21 30 -40 27
-39 216 -230 228 -230 4 0 18 -10 32 -22 25 -23 126 -88 137 -88 3 0 17 -8 31
-18 59 -41 296 -127 377 -137 11 -1 47 -8 80 -15 74 -17 365 -18 415 -2 19 6
51 13 70 15 19 2 45 9 56 15 18 9 34 7 84 -13 62 -24 213 -55 271 -55 17 0 39
-5 50 -10 22 -12 71 -103 68 -128 -9 -98 38 -150 156 -167 68 -11 147 2 178
29 21 18 29 39 41 107 9 46 20 99 25 117 12 38 11 35 11 70 0 25 6 29 78 51
205 65 440 214 591 375 57 60 141 162 141 171 0 3 8 15 18 25 18 20 78 134
142 273 17 37 36 68 43 68 7 1 33 3 58 4 54 3 81 16 86 41 19 104 24 200 14
276 -8 67 -7 99 5 154 29 139 14 347 -35 479 -19 52 -103 214 -116 225 -8 7
-15 17 -15 22 0 8 -39 62 -75 104 -39 47 -72 88 -114 149 -28 39 -56 77 -65
87 -8 9 -11 20 -8 24 4 4 2 4 -4 1 -16 -9 -99 76 -101 103 -1 13 -6 27 -10 31
-4 4 -54 9 -110 11 -76 2 -104 7 -108 17 -4 11 13 13 100 9 94 -4 105 -3 105
12 0 38 -35 53 -140 58 l-99 5 15 28 c14 28 17 29 87 29 74 0 83 3 105 31 39
51 62 299 52 564 -5 123 -6 130 -28 141 -13 7 -20 13 -15 15 4 2 17 18 29 34
19 27 21 42 18 150 -1 66 -5 145 -8 175 -4 30 -11 93 -16 140 -5 47 -11 97
-14 113 -3 15 -8 37 -10 50 -2 12 -7 33 -10 47 -3 14 -8 38 -10 53 -7 38 -24
57 -52 57 -21 0 -24 5 -24 38 0 20 -7 69 -15 107 -9 39 -20 90 -25 115 -5 25
-13 61 -18 80 -6 19 -18 64 -27 100 -9 36 -20 73 -26 82 -5 10 -9 24 -9 31 0
7 -9 32 -20 55 -11 22 -20 49 -20 60 0 10 -4 22 -8 28 -5 5 -19 36 -32 69 -22
57 -40 99 -89 207 -11 26 -21 51 -21 55 0 4 -14 28 -30 53 -17 25 -36 54 -43
65 -31 50 -160 155 -190 155 -8 0 -31 7 -50 15 -39 16 -134 33 -232 41 -33 3
-76 8 -95 11 -19 4 -39 5 -44 4 -5 -1 -70 3 -145 9 -140 12 -449 20 -511 13z
m-14 -279 c0 -10 8 -18 19 -20 11 -2 21 -8 23 -13 2 -6 8 -11 13 -11 6 0 8 4
5 9 -3 5 1 11 9 15 9 3 15 0 15 -9 0 -19 32 -24 51 -8 14 12 17 10 23 -18 3
-17 3 -35 0 -40 -3 -5 -1 -9 5 -9 5 0 12 6 15 13 3 8 9 6 20 -7 12 -15 16 -16
17 -5 0 8 5 -1 10 -18 5 -18 16 -33 24 -33 9 0 15 -10 16 -22 1 -17 3 -15 10
11 6 18 12 31 15 29 2 -3 4 -44 5 -91 0 -48 5 -87 10 -87 5 0 9 8 10 18 1 11
4 8 8 -8 4 -14 14 -24 21 -22 7 2 10 -3 7 -12 -4 -9 -1 -18 5 -22 7 -4 6 -9
-3 -15 -11 -7 -11 -9 -1 -9 7 0 10 -4 7 -10 -3 -5 1 -10 10 -10 10 0 15 -6 12
-12 -2 -7 -8 -24 -12 -38 -7 -23 -7 -23 10 -7 22 23 39 17 43 -14 2 -13 10
-29 18 -36 11 -8 12 -13 4 -18 -8 -5 -6 -14 5 -31 8 -13 13 -24 9 -24 -4 0 -1
-7 6 -15 8 -9 10 -28 6 -50 -4 -22 -3 -35 4 -35 17 0 47 -35 42 -50 -3 -7 0
-10 5 -7 13 8 9 -61 -5 -75 -13 -13 -46 -2 -37 12 3 5 2 10 -4 10 -5 0 -11 -5
-13 -12 -6 -16 30 -88 43 -88 6 0 3 -7 -5 -16 -18 -17 -21 -28 -6 -19 8 5 16
-13 24 -56 1 -8 11 -41 21 -74 10 -33 18 -63 17 -66 0 -3 6 -6 14 -6 15 0 34
54 34 100 0 15 4 27 8 27 10 0 52 -85 52 -107 0 -13 8 -15 47 -9 25 3 105 8
177 10 128 5 120 -1 -28 -19 -27 -3 -57 -10 -67 -15 -10 -6 -22 -9 -26 -8 -4
1 -18 -3 -31 -11 -13 -7 -28 -10 -35 -7 -7 2 -5 5 5 5 9 1 19 5 22 10 4 6 -5
6 -21 2 -22 -6 -32 -3 -45 12 -17 19 -18 19 -46 -4 -16 -13 -37 -43 -46 -67
-10 -24 -25 -50 -33 -58 -11 -11 -12 -18 -4 -28 7 -8 11 -18 10 -22 -2 -5 5
-34 15 -65 9 -31 18 -70 20 -87 3 -16 9 -40 16 -51 6 -12 12 -36 14 -54 2 -18
8 -42 14 -54 7 -12 14 -41 16 -65 3 -24 6 -44 7 -45 1 -2 2 -6 4 -10 1 -5 7
-21 13 -36 7 -16 12 -34 12 -41 0 -8 7 -31 16 -51 13 -31 13 -39 2 -46 -8 -5
-9 -9 -2 -9 6 0 14 -13 17 -28 4 -18 16 -33 33 -41 l27 -12 -23 -24 c-17 -18
-20 -28 -12 -38 6 -7 13 -29 15 -48 2 -19 7 -40 11 -47 4 -7 2 -12 -6 -13 -10
0 -10 -2 0 -6 6 -2 12 -18 12 -34 0 -17 4 -38 10 -48 5 -10 10 -38 11 -62 1
-24 6 -49 11 -56 5 -7 11 -31 12 -55 1 -24 5 -48 9 -55 4 -7 9 -29 11 -50 3
-21 11 -51 20 -68 9 -16 16 -34 16 -38 0 -14 24 -33 55 -44 l30 -11 -30 -6
c-99 -21 -165 -40 -201 -57 -22 -10 -53 -19 -67 -19 -15 0 -30 -7 -33 -15 -4
-8 -16 -15 -28 -15 -12 0 -40 -13 -62 -30 -21 -16 -44 -30 -50 -30 -6 0 -22
-11 -36 -24 -32 -32 -72 -42 -101 -24 -34 21 -125 55 -197 73 -36 9 -81 20
-101 26 -20 5 -53 9 -74 9 l-37 0 7 58 c4 31 9 68 11 82 2 14 4 52 5 84 0 33
4 54 8 48 4 -7 7 16 6 50 -1 35 1 73 6 84 5 14 2 26 -8 37 -14 13 -13 16 6 22
12 3 21 15 21 26 0 10 3 19 8 19 4 0 7 19 6 42 0 24 3 50 7 58 9 17 23 72 21
82 -1 3 5 39 14 80 8 40 19 98 24 128 5 30 11 64 13 75 5 24 19 113 22 137 1
9 -12 32 -29 50 -29 32 -37 74 -16 88 10 7 68 159 74 195 10 63 26 135 65 290
54 213 65 253 74 261 4 4 7 20 7 35 0 15 5 31 10 34 6 3 10 16 10 29 0 12 4
26 8 32 5 5 15 29 22 54 8 25 18 50 23 57 24 33 10 83 -73 249 -46 93 -91 174
-100 180 -8 7 -31 26 -50 43 -62 55 -95 65 -204 64 -56 -1 -103 -6 -109 -12
-6 -6 -18 -11 -26 -11 -29 0 -151 -103 -151 -127 0 -7 -6 -13 -13 -13 -11 0
-46 -44 -36 -45 2 -1 -13 -21 -33 -45 -21 -24 -38 -53 -38 -64 0 -12 -9 -27
-20 -34 -11 -7 -20 -19 -20 -27 0 -8 -5 -15 -11 -15 -7 0 -9 -10 -5 -24 5 -19
0 -29 -19 -44 -14 -11 -21 -22 -16 -24 5 -2 4 -14 -2 -28 -5 -14 -12 -34 -14
-44 -2 -11 -8 -25 -14 -32 -6 -7 -8 -17 -5 -22 3 -5 -2 -21 -10 -36 -7 -16
-14 -39 -14 -52 0 -14 -7 -27 -15 -30 -8 -4 -12 -11 -8 -17 3 -5 1 -7 -4 -4
-11 7 -5 57 7 57 4 0 10 17 14 38 8 53 17 92 31 127 4 11 16 45 28 75 36 97
42 110 49 110 5 0 7 3 6 8 -3 12 24 63 59 114 18 26 33 52 33 58 0 5 8 10 17
10 9 0 14 2 11 5 -7 7 103 125 118 125 6 0 14 6 17 14 3 8 25 20 49 27 24 6
50 14 58 16 28 10 75 9 82 -2 5 -6 8 -6 8 3 0 6 11 12 24 12 14 0 28 5 31 10
9 15 13 12 11 -6z m416 -23 c2 -8 32 -16 73 -20 6 -1 4 -5 -3 -9 -9 -6 -4 -16
18 -37 16 -16 30 -24 30 -17 0 6 -8 16 -17 21 -10 6 -13 10 -8 11 16 0 31 -13
38 -33 5 -13 13 -17 28 -12 15 5 19 4 15 -4 -4 -6 1 -14 11 -17 66 -22 75 -27
58 -37 -9 -5 -19 -6 -22 -3 -4 3 0 6 8 6 11 0 11 2 -1 10 -25 16 -30 11 -18
-15 7 -15 17 -24 25 -21 8 3 13 -2 13 -14 0 -11 4 -20 10 -20 5 0 18 -9 29
-21 12 -13 24 -18 32 -13 8 5 11 2 7 -8 -5 -11 0 -14 19 -10 17 3 24 1 19 -6
-3 -6 1 -15 10 -20 11 -6 15 -17 11 -31 -4 -18 -3 -20 9 -10 8 6 17 9 21 5 3
-3 1 -6 -5 -6 -7 0 -12 -7 -12 -15 0 -8 7 -15 15 -15 11 0 14 -7 9 -24 -5 -21
-3 -24 15 -19 13 3 21 1 21 -6 0 -7 -4 -9 -10 -6 -6 3 -7 -1 -4 -9 3 -9 10
-16 15 -16 5 0 9 -7 9 -16 0 -11 -6 -14 -17 -10 -15 5 -15 4 1 -9 11 -8 23
-15 28 -15 4 0 5 -7 2 -15 -4 -8 1 -17 10 -21 9 -3 16 -10 16 -16 0 -5 -4 -6
-10 -3 -7 4 -7 -2 -1 -18 6 -14 7 -28 4 -31 -4 -3 -1 -6 6 -6 7 0 9 -4 6 -10
-3 -5 1 -10 9 -10 9 0 16 -8 15 -17 0 -11 -3 -13 -6 -5 -2 6 -9 10 -13 7 -13
-8 0 -35 17 -35 8 0 11 -4 8 -10 -3 -5 0 -10 7 -10 11 0 11 -2 0 -8 -9 -7 -10
-15 -3 -35 6 -15 7 -27 3 -27 -4 0 0 -4 8 -10 12 -8 12 -10 -3 -16 -22 -8 -22
-34 1 -34 14 0 15 2 2 10 -12 8 -11 10 8 10 12 0 22 5 22 11 0 5 5 7 11 3 8
-5 6 -10 -5 -16 -20 -11 -21 -28 -1 -28 9 0 12 -6 9 -15 -4 -8 -10 -12 -15 -9
-5 3 -9 0 -9 -6 0 -8 12 -10 33 -6 l32 6 -35 -14 c-19 -7 -38 -11 -42 -9 -5 2
-8 -3 -8 -11 0 -19 11 -20 29 -3 11 10 13 9 7 -1 -12 -21 -67 -44 -97 -40 -15
3 -26 1 -23 -4 6 -9 -5 -10 -96 -9 -38 0 -69 6 -76 13 -19 21 -84 150 -84 168
0 9 -3 20 -7 24 -5 4 -8 11 -9 14 0 4 -3 14 -7 22 -3 8 -36 107 -73 220 -36
113 -70 214 -75 225 -4 11 -19 55 -33 97 -14 43 -30 86 -35 96 -6 11 -13 33
-16 51 -4 26 -2 31 14 31 11 0 21 -4 23 -9z m-677 -290 c-3 -12 -11 -21 -16
-21 -5 0 -9 -7 -9 -15 0 -15 -27 -64 -41 -75 -3 -3 -10 -16 -14 -30 -4 -14
-12 -31 -18 -39 -6 -7 -12 -20 -13 -28 -1 -8 -11 -21 -21 -29 -10 -7 -14 -14
-10 -14 5 0 1 -7 -7 -16 -9 -8 -14 -20 -11 -25 4 -5 2 -9 -3 -9 -5 0 -8 -10
-8 -22 1 -13 -2 -28 -6 -34 -5 -7 -8 -16 -7 -20 1 -5 -4 -22 -11 -39 -36 -85
-48 -125 -37 -125 7 0 6 -4 -2 -9 -15 -10 -23 -32 -22 -66 0 -10 -5 -25 -11
-32 -7 -9 -7 -17 2 -28 8 -10 9 -15 2 -15 -7 0 -9 -7 -5 -17 4 -10 2 -14 -4
-10 -13 8 -27 -39 -17 -55 5 -7 2 -8 -6 -3 -10 6 -12 4 -7 -8 3 -10 3 -17 -2
-17 -5 0 -11 -10 -15 -22 -3 -13 -5 -23 -5 -23 0 0 -12 -34 -27 -75 -15 -41
-35 -111 -45 -155 -42 -191 -47 -210 -54 -203 -7 7 30 213 60 333 124 505 193
714 265 800 9 11 31 45 49 75 51 85 93 125 76 71z m1024 -1346 c28 -110 55
-210 60 -222 17 -38 -40 -66 -64 -30 -14 21 -78 307 -90 396 -5 44 8 62 24 34
9 -16 10 -15 11 6 0 13 2 22 4 20 3 -3 28 -94 55 -204z m134 -607 c26 -145 47
-271 47 -280 0 -10 5 -18 10 -18 6 0 10 7 10 15 0 9 9 15 23 15 13 0 59 9 102
21 86 22 100 17 88 -31 -14 -59 -22 -64 -88 -60 -17 0 -50 -3 -75 -9 -31 -7
-48 -7 -57 1 -10 8 -13 6 -13 -9 0 -10 -7 -29 -16 -42 -15 -20 -18 -21 -26 -8
-8 15 -72 353 -101 539 -13 83 -13 88 5 108 10 11 24 20 31 20 9 0 28 -84 60
-262z m562 -27 c2 -24 -3 -38 -21 -54 -29 -25 -31 -44 -6 -51 17 -6 18 -19 18
-150 l-1 -144 -26 -6 c-14 -3 -36 -2 -48 1 -20 5 -21 7 -5 24 9 10 13 23 9 28
-3 6 -1 11 6 11 7 0 8 5 3 13 -5 6 -8 23 -7 37 2 14 5 66 8 115 11 212 13 218
47 213 15 -2 21 -12 23 -37z m-545 -588 c12 -31 25 -82 29 -113 5 -30 9 -48
10 -39 1 21 27 28 93 24 29 -1 66 2 81 6 l28 8 -3 -47 -3 -47 -95 3 c-75 2
-98 6 -107 19 -12 15 -13 14 -13 -8 0 -28 -19 -66 -20 -39 0 13 -1 13 -10 0
-7 -12 -13 -11 -34 9 -14 13 -29 39 -32 58 -3 18 -9 35 -13 37 -6 4 -93 -28
-177 -65 -23 -10 -55 -21 -70 -24 l-29 -7 30 18 c72 41 151 76 196 86 46 11
49 14 49 42 0 17 5 49 11 71 23 83 50 86 79 8z m-1447 -77 c-4 -7 -1 -7 7 1
10 9 17 10 27 2 10 -9 13 -7 14 7 0 18 1 18 8 1 8 -22 20 -24 33 -5 6 9 7 3 5
-18 -4 -28 -2 -30 18 -26 12 2 26 -2 30 -9 5 -8 4 -10 -4 -5 -6 4 -18 0 -27
-8 -9 -9 -20 -13 -26 -10 -7 4 -8 2 -4 -4 4 -7 2 -12 -4 -12 -6 0 -8 -4 -5
-10 3 -5 1 -10 -4 -10 -6 0 -11 4 -11 8 0 5 -7 9 -15 9 -8 0 -12 -4 -9 -8 2
-4 -5 -14 -16 -22 -11 -7 -17 -17 -12 -22 4 -5 2 -5 -5 -1 -6 3 -15 1 -18 -4
-4 -6 -18 -15 -31 -20 -13 -5 -24 -16 -24 -25 0 -8 -5 -15 -11 -15 -5 0 -8 -4
-5 -9 3 -4 -6 -13 -19 -19 -17 -8 -25 -20 -25 -37 0 -14 -6 -25 -12 -25 -9 0
-8 -4 2 -11 12 -9 11 -10 -8 -6 -12 3 -20 1 -16 -4 3 -5 0 -9 -5 -9 -6 0 -11
-5 -11 -11 0 -5 5 -7 12 -3 7 4 8 3 4 -4 -4 -7 -15 -12 -24 -12 -12 0 -13 -3
-5 -8 8 -5 9 -13 3 -22 -8 -13 -10 -13 -10 -1 0 8 -3 11 -6 8 -4 -4 -1 -14 7
-24 12 -14 12 -15 0 -9 -9 6 -12 5 -9 -5 3 -8 -2 -20 -9 -28 -10 -10 -11 -16
-3 -21 7 -5 6 -15 -4 -35 -8 -15 -12 -33 -10 -40 3 -7 1 -16 -5 -19 -7 -4 -7
-15 -1 -31 7 -19 6 -23 -5 -18 -9 3 -15 -1 -15 -11 0 -9 5 -16 11 -16 5 0 7
-5 4 -10 -4 -6 -10 -8 -14 -5 -5 2 -6 -6 -4 -19 4 -18 0 -26 -17 -31 -18 -6
-20 -9 -9 -16 8 -5 10 -9 4 -9 -5 0 -3 -5 5 -10 12 -8 11 -10 -7 -10 -18 0
-21 -4 -17 -30 3 -17 1 -30 -5 -30 -6 0 -11 -5 -11 -11 0 -6 7 -9 14 -6 10 4
13 1 9 -8 -3 -8 -9 -12 -14 -9 -5 3 -9 0 -9 -5 0 -6 4 -11 8 -11 4 0 8 -9 8
-20 0 -11 -3 -20 -7 -20 -4 0 -6 -14 -4 -31 4 -27 2 -29 -18 -24 -21 6 -21 6
-3 -9 19 -16 19 -16 -5 -17 -23 -2 -23 -2 -1 -6 23 -5 31 -32 10 -34 -10 0
-10 -2 0 -6 10 -4 10 -8 0 -21 -11 -13 -10 -15 4 -9 13 4 16 1 13 -14 -2 -12
2 -19 11 -19 8 0 14 -4 14 -9 0 -4 -12 -7 -27 -5 -16 2 -20 1 -9 -2 15 -5 16
-8 5 -15 -12 -7 -11 -9 1 -9 9 0 16 -9 17 -20 2 -23 3 -23 -34 -10 -23 8 -25
8 -12 -2 9 -7 15 -21 13 -30 -1 -11 4 -18 14 -18 15 0 15 -2 2 -10 -13 -8 -13
-10 2 -10 9 0 20 -5 24 -12 4 -6 3 -8 -3 -5 -15 9 -23 -16 -12 -34 7 -11 11
-11 17 -2 5 9 11 6 21 -8 7 -12 8 -18 3 -15 -21 13 -20 -24 1 -39 16 -11 18
-15 5 -15 -8 0 -18 -9 -21 -19 -2 -11 -15 -21 -28 -23 -21 -3 -20 -4 8 -9 18
-3 29 -1 26 4 -3 5 3 7 13 5 11 -2 18 -9 17 -15 -1 -6 7 -9 20 -6 16 3 18 2 9
-5 -11 -7 -10 -11 4 -16 16 -6 12 -21 -7 -21 -18 0 -4 -20 16 -22 16 -3 17 -1
5 7 -8 5 -10 10 -4 10 12 0 34 -20 34 -32 0 -4 -8 -4 -17 -1 -15 6 -16 4 -6
-9 17 -20 4 -31 -16 -15 -14 10 -14 10 -3 -5 17 -21 8 -38 -17 -31 -10 3 -22
0 -25 -5 -4 -6 2 -8 14 -5 11 3 20 0 20 -6 0 -12 21 -11 31 2 3 4 34 9 70 11
61 4 63 4 37 -10 -33 -17 -36 -24 -9 -19 11 2 22 -3 25 -10 3 -9 -1 -12 -13
-10 -20 4 -53 -29 -43 -41 4 -5 -1 -2 -11 5 -9 8 -20 11 -24 7 -3 -3 -1 -6 5
-6 7 0 5 -8 -5 -18 -10 -9 -26 -18 -35 -18 -16 0 -16 2 -1 18 15 17 15 18 0
18 -10 0 -17 -5 -17 -10 0 -7 -6 -7 -19 -1 -10 6 -21 8 -23 5 -3 -2 -4 8 -2
23 2 15 1 22 -2 16 -3 -7 -13 -13 -22 -13 -15 0 -15 2 -2 10 13 9 13 12 -1 23
-9 6 -15 20 -13 30 2 15 0 16 -14 5 -12 -10 -14 -10 -8 0 4 7 2 12 -6 12 -9 0
-9 3 2 10 12 8 11 10 -6 10 -23 0 -78 39 -56 40 6 0 12 5 12 11 0 5 -6 7 -12
3 -9 -5 -9 -2 1 9 9 12 10 17 2 17 -7 0 -9 5 -5 12 5 8 2 9 -9 5 -9 -3 -19 -2
-22 3 -4 6 0 10 7 10 9 0 9 3 -2 10 -13 9 -11 13 10 30 20 16 21 19 5 14 -11
-4 -26 -12 -34 -18 -11 -8 -13 -8 -7 2 4 7 2 12 -4 12 -6 0 -8 5 -5 10 3 6 1
10 -6 10 -7 0 -10 3 -6 6 3 4 0 19 -8 34 -11 22 -12 30 -2 33 6 3 1 6 -13 7
-23 1 -23 2 -5 10 12 5 14 9 6 9 -8 1 -11 4 -8 8 4 3 1 13 -6 21 -10 13 -9 15
6 9 9 -3 17 -2 17 3 0 6 -7 10 -16 10 -8 0 -12 5 -9 10 3 6 1 10 -4 10 -6 0
-10 3 -10 8 1 4 0 9 -1 12 -17 46 -19 124 -2 131 12 4 12 8 -2 22 -16 16 -16
17 6 18 22 0 22 1 3 9 -11 5 -15 9 -10 9 6 1 3 6 -5 11 -13 8 -12 10 3 10 10
0 15 5 12 10 -3 6 0 10 7 10 9 0 9 3 -2 10 -8 5 -10 10 -4 10 20 0 11 30 -10
31 -21 0 -21 1 -1 9 11 5 14 9 7 9 -7 1 -10 6 -7 11 3 6 30 10 58 10 50 0 51
1 27 15 -14 8 -33 17 -42 21 -14 5 -15 10 -7 25 7 15 6 19 -6 19 -12 0 -13 3
-3 19 7 11 14 19 17 19 4 0 20 1 36 2 l30 2 -35 13 c-19 7 -30 14 -23 14 7 1
10 8 7 16 -4 8 -1 15 6 15 6 0 8 5 5 10 -4 6 -10 8 -15 5 -5 -3 -12 -1 -15 5
-4 6 -3 10 2 9 4 -1 19 -1 33 0 25 2 25 2 3 11 -13 5 -23 12 -23 15 0 4 4 4 8
1 5 -3 19 6 30 19 l22 25 -30 0 c-29 0 -38 9 -22 24 4 4 8 12 8 17 1 5 2 14 3
19 0 6 9 10 19 11 14 0 15 1 1 7 -12 6 -13 11 -4 29 7 13 15 20 20 15 4 -4 2
3 -4 16 -10 19 -8 26 13 47 15 15 20 25 12 25 -10 0 -11 7 -2 35 6 19 15 35
19 35 5 0 6 4 3 9 -3 5 6 12 21 16 17 4 23 9 15 14 -15 9 6 61 26 61 6 0 12 7
12 15 0 8 5 15 11 15 5 0 7 5 4 10 -3 6 1 10 9 10 9 0 16 4 16 9 0 11 66 51
86 51 8 0 14 4 14 10 0 5 8 7 18 3 9 -3 14 -3 10 2 -9 10 19 38 31 30 5 -3 12
-1 16 5 4 6 10 8 15 5 13 -8 40 6 40 21 0 8 6 11 15 8 8 -4 12 -11 8 -18z
m2107 -70 c0 -24 -6 -48 -12 -53 -7 -5 -96 -9 -198 -9 l-185 1 2 40 c2 22 5
45 7 52 4 8 59 12 195 13 l191 0 0 -44z m218 21 c2 -10 1 -29 -2 -42 -7 -27
-25 -32 -133 -38 l-63 -3 0 35 c0 61 10 66 135 66 50 0 60 -3 63 -18z m12
-137 c-12 -8 -11 -10 7 -10 12 0 28 -7 37 -15 8 -8 22 -15 31 -15 10 0 15 -7
13 -17 -2 -10 -12 -18 -22 -18 -11 0 -21 -6 -24 -14 -3 -10 2 -11 18 -6 16 5
20 4 15 -4 -4 -7 -1 -19 6 -27 6 -8 9 -18 5 -21 -4 -4 -11 -1 -16 7 -7 11 -10
8 -15 -13 -6 -23 -25 -36 -62 -43 -7 -1 -11 3 -10 9 1 7 -9 11 -23 10 -14 -1
-18 0 -7 3 21 7 22 20 3 31 -16 9 -19 22 -17 81 1 29 5 42 15 42 8 0 16 7 20
15 3 8 13 15 23 15 15 0 16 -2 3 -10z m-1065 -34 c-2 -19 -6 -39 -9 -45 -4 -6
-1 -11 6 -11 8 0 9 -3 3 -8 -5 -4 -11 -14 -13 -22 -6 -28 -43 -58 -110 -90
-119 -57 -125 -60 -138 -60 -7 0 -19 -7 -27 -15 -8 -8 -21 -16 -28 -17 -8 -2
-20 -9 -27 -15 -7 -7 -21 -13 -30 -13 -15 0 -15 2 -2 10 8 5 10 10 4 10 -18 0
-24 -13 -13 -27 9 -10 4 -13 -25 -13 -26 0 -35 4 -30 12 5 7 3 8 -5 4 -7 -5
-10 -15 -7 -23 3 -8 1 -11 -5 -8 -6 4 -20 -1 -31 -12 -14 -12 -18 -13 -13 -3
35 59 177 193 271 256 75 50 209 124 225 124 3 0 5 -15 4 -34z m985 4 c0 -5
-3 -10 -8 -10 -4 0 -6 -24 -5 -54 3 -41 -2 -64 -17 -92 -19 -34 -20 -36 -3
-30 16 5 16 5 -1 -9 -17 -13 -17 -15 -3 -21 13 -4 14 -9 4 -19 -7 -7 -15 -11
-18 -9 -4 2 -12 -3 -18 -10 -9 -11 -9 -16 2 -23 18 -11 28 -41 16 -49 -6 -3
-3 -12 8 -21 15 -12 15 -14 2 -10 -10 3 -44 11 -78 18 -33 6 -59 14 -57 18 2
3 -21 5 -52 3 -41 -2 -53 0 -42 7 8 6 29 8 45 6 17 -2 24 -2 18 1 -7 3 -13 13
-12 22 0 11 2 12 6 5 2 -7 9 -13 14 -13 6 0 8 4 4 9 -8 14 9 21 24 11 8 -4 26
-4 42 2 24 8 28 15 27 49 0 21 -5 39 -10 39 -5 0 -6 5 -3 11 4 6 -2 13 -14 16
-12 3 -21 9 -21 14 0 5 -5 9 -11 9 -5 0 -7 -4 -4 -10 3 -5 2 -10 -4 -10 -5 0
-12 6 -14 13 -3 6 -6 3 -6 -8 -1 -12 -4 -16 -9 -9 -9 14 -66 29 -58 15 9 -14
-15 -19 -41 -10 -13 5 -43 7 -68 5 -25 -2 -45 0 -45 5 0 5 -7 6 -15 3 -8 -4
-15 -1 -15 5 0 7 18 11 48 11 60 -1 199 8 231 16 14 3 21 8 15 12 -5 4 -9 14
-8 22 0 8 2 24 3 35 1 15 3 17 10 6 7 -10 10 -10 16 -1 4 7 2 16 -6 21 -8 5 9
9 46 12 33 2 66 4 73 5 6 1 12 -2 12 -8z m-255 -340 c123 -14 294 -54 281 -67
-2 -2 -28 3 -58 12 -204 61 -482 59 -728 -5 -86 -23 -254 -85 -278 -103 -7 -5
-15 -7 -18 -4 -8 8 25 24 140 69 90 35 93 39 21 23 -11 -3 -5 2 14 11 19 8 44
13 55 10 11 -3 56 4 100 16 81 21 255 45 336 47 25 0 86 -4 135 -9z m-1433
-107 c-6 -3 -9 -9 -6 -15 4 -6 2 -13 -3 -17 -8 -5 -25 -43 -78 -166 -122 -283
-199 -509 -220 -640 -9 -55 -18 -102 -21 -104 -11 -11 -2 138 12 207 25 124
147 451 222 597 46 90 92 158 100 149 4 -4 1 -9 -6 -11z m-7 -155 c-113 -238
-229 -538 -255 -663 -7 -33 -19 -109 -26 -170 l-13 -110 3 140 c3 120 7 152
31 225 67 207 214 553 278 653 20 31 39 57 41 57 3 0 -24 -60 -59 -132z m1452
-114 c284 -58 484 -294 484 -568 0 -115 -18 -185 -80 -311 -62 -125 -135 -214
-241 -294 -145 -109 -289 -170 -463 -197 -91 -14 -123 -15 -201 -6 -279 35
-474 174 -558 397 -19 51 -22 79 -22 195 0 118 3 142 23 187 25 56 44 77 78
86 37 9 44 -12 27 -88 -47 -224 -16 -359 113 -496 111 -118 256 -172 453 -171
93 0 132 5 203 26 140 41 253 106 352 202 118 114 180 231 198 375 33 261
-121 473 -394 544 -92 25 -260 22 -364 -5 -163 -42 -304 -127 -421 -254 l-69
-74 -37 15 c-21 8 -38 22 -38 31 0 45 167 211 283 280 85 51 207 101 299 122
106 23 272 25 375 4z m-99 -298 c104 -28 193 -101 233 -190 24 -56 40 -184 20
-172 -6 4 -11 26 -11 49 0 27 -12 65 -33 107 -95 189 -359 255 -579 144 -60
-30 -63 -24 -5 11 97 56 267 79 375 51z m-341 -1358 c7 -9 3 -55 -10 -135
l-19 -123 -29 0 c-16 0 -29 3 -29 8 0 4 7 59 16 122 15 107 28 140 55 140 3 0
11 -6 16 -12z"/>
</g>
</svg>
