<?xml version="1.0" standalone="no"?>
<!DOCTYPE svg PUBLIC "-//W3C//DTD SVG 20010904//EN"
 "http://www.w3.org/TR/2001/REC-SVG-20010904/DTD/svg10.dtd">
<svg version="1.0" xmlns="http://www.w3.org/2000/svg"
 width="940.000000pt" height="788.000000pt" viewBox="0 0 940.000000 788.000000"
 preserveAspectRatio="xMidYMid meet">
<metadata>
Created by potrace 1.16, written by Peter Selinger 2001-2019
</metadata>
<g transform="translate(0.000000,788.000000) scale(0.100000,-0.100000)"
fill="#000000" stroke="none">
<path d="M7141 5900 l-23 -25 -311 -5 -312 -5 60 -28 c77 -37 105 -68 105
-114 0 -20 -3 -34 -6 -30 -7 7 -60 -18 -86 -41 -15 -12 -18 -13 -18 -1 -1 28
-17 -15 -24 -64 -7 -44 -9 -47 -31 -41 -25 6 -55 -14 -55 -35 0 -6 -10 -11
-22 -11 -19 0 -20 -2 -8 -11 12 -8 9 -10 -12 -6 -19 3 -28 0 -28 -9 0 -8 -8
-14 -18 -14 -10 0 -23 -5 -30 -12 -9 -9 -12 -3 -12 28 0 21 -3 64 -7 94 l-7
55 -8 -35 c-5 -19 -9 -41 -10 -47 -1 -7 -5 -13 -10 -13 -4 0 -11 -18 -14 -40
-8 -50 -24 -52 -25 -2 l-2 37 -7 -40 c-6 -31 -7 -34 -9 -12 0 15 -6 27 -11 27
-6 0 -10 -6 -9 -12 1 -7 1 -26 0 -41 -1 -28 -2 -29 -52 -24 -27 3 -53 8 -56
11 -4 3 -4 6 -1 6 4 0 -6 14 -20 30 -15 17 -34 30 -44 30 -13 0 -20 11 -24 40
-5 33 -10 39 -24 35 -14 -4 -19 2 -24 33 -5 32 -9 38 -28 37 -26 -2 -36 -39
-38 -130 0 -27 -3 -60 -6 -72 -7 -25 -20 -31 -22 -10 0 6 -3 30 -6 52 -3 22
-5 70 -5 106 l-1 66 -45 24 c-26 14 -45 31 -45 41 0 9 -3 23 -6 31 -3 8 2 21
10 30 23 22 20 25 -21 30 -35 3 -35 4 9 5 25 1 68 12 95 25 l48 22 -223 3
c-123 1 -321 1 -440 0 l-217 -3 48 -22 c35 -17 70 -24 125 -25 77 -2 77 -2 15
-5 -67 -4 -75 -10 -44 -32 16 -12 17 -19 9 -42 -5 -16 -23 -38 -38 -49 -16
-11 -30 -30 -32 -42 -4 -30 -28 -35 -29 -6 -1 23 -1 23 -9 -2 -4 -14 -9 -72
-10 -130 -2 -121 -14 -96 -25 53 -4 48 -10 87 -13 87 -15 0 -28 -17 -52 -65
-14 -27 -29 -53 -35 -57 -14 -10 -25 12 -25 55 0 20 -4 37 -10 37 -5 0 -10
-15 -10 -34 0 -19 -5 -38 -10 -41 -6 -4 -8 -14 -5 -24 3 -9 -2 -26 -10 -37
-14 -18 -14 -18 -15 9 0 15 -4 27 -10 27 -5 0 -10 -9 -10 -20 0 -11 -4 -20
-10 -20 -5 0 -12 -16 -16 -35 -3 -19 -9 -34 -13 -33 -3 0 -19 -1 -36 -2 -30
-2 -30 -2 -5 -10 21 -7 17 -8 -20 -9 -35 0 -42 2 -30 10 13 9 13 10 -2 6 -28
-9 -87 12 -99 36 -7 12 -17 25 -23 29 -6 4 -15 40 -21 79 -12 86 -31 101 -40
32 -12 -84 -15 -90 -32 -54 -9 17 -19 31 -24 31 -5 0 -9 13 -9 28 0 16 -9 37
-19 46 -19 17 -19 15 -26 -71 -8 -111 -14 -145 -26 -137 -5 3 -9 49 -10 102
-1 105 -10 155 -23 134 -5 -9 -18 -2 -47 25 -41 39 -49 71 -24 97 8 8 15 17
15 20 0 3 -29 6 -65 6 -49 0 -67 -4 -71 -15 -4 -8 -17 -15 -31 -15 -21 0 -24
4 -21 28 2 22 7 26 28 24 84 -12 185 -12 214 -1 96 38 90 39 -367 39 -294 0
-436 -3 -432 -10 11 -17 75 -40 114 -40 53 0 111 -11 111 -21 0 -5 -11 -9 -25
-9 -14 0 -25 5 -25 10 0 6 -16 10 -35 10 -19 0 -35 -4 -35 -10 0 -5 4 -10 9
-10 17 0 21 -32 10 -70 -8 -25 -16 -37 -25 -33 -7 2 -23 -4 -35 -16 -18 -16
-22 -32 -23 -81 -1 -33 -4 -60 -8 -60 -5 0 -8 -20 -8 -44 0 -40 -13 -66 -26
-53 -3 2 -8 52 -11 111 -6 102 -7 106 -29 106 -20 0 -23 -6 -29 -57 -4 -32 -9
-66 -12 -76 -6 -21 -17 -14 -18 11 -1 9 -2 30 -3 45 -4 58 -22 13 -22 -54 l0
-69 -40 0 c-22 0 -40 -4 -40 -8 0 -7 -29 -13 -77 -15 -13 -1 -23 -5 -23 -9 0
-4 -4 -8 -10 -8 -5 0 -10 21 -11 48 0 35 -3 42 -9 27 -7 -17 -9 -17 -9 -2 -1
27 -21 20 -21 -8 0 -36 -26 -31 -39 6 -6 18 -11 59 -11 91 0 88 -17 61 -22
-35 -5 -93 -12 -114 -32 -94 -10 9 -11 14 -2 19 6 5 1 8 -14 9 -62 5 -87 16
-107 49 -13 23 -20 27 -34 20 -19 -11 -29 5 -29 48 0 15 -4 34 -10 42 -8 12
-10 12 -16 -3 -8 -22 -33 -5 -29 21 1 9 0 11 -2 5 -7 -19 -20 -16 -26 7 -3 11
-16 24 -30 29 -22 9 -25 15 -20 43 6 44 33 71 105 105 l60 28 -314 5 c-182 3
-312 9 -310 14 14 39 -244 51 -349 16 -61 -21 -108 -46 -121 -65 -4 -5 -8 -6
-8 -1 0 14 -79 -74 -85 -95 -4 -11 -11 -19 -16 -19 -5 0 -9 -6 -9 -14 0 -7
-13 -38 -30 -69 -16 -31 -30 -64 -30 -72 0 -9 -7 -18 -15 -21 -8 -4 -15 -13
-15 -22 0 -21 -42 -112 -51 -112 -4 0 -11 -15 -14 -32 -4 -18 -19 -51 -33 -73
-14 -22 -24 -40 -23 -40 2 0 -4 -17 -13 -39 -9 -21 -16 -42 -16 -46 0 -4 -7
-13 -15 -20 -8 -7 -15 -19 -15 -28 0 -8 -12 -36 -27 -61 -15 -25 -28 -51 -29
-58 -1 -7 -16 -41 -33 -78 -17 -36 -31 -70 -31 -76 0 -5 -5 -7 -10 -4 -9 6
-15 -8 -11 -29 3 -13 -20 -66 -28 -66 -4 0 -13 -26 -21 -57 -20 -83 -26 -327
-17 -733 4 -195 7 -364 7 -375 -2 -32 -2 -33 10 -205 12 -170 15 -230 11 -265
-6 -50 2 -129 15 -153 8 -15 14 -33 14 -41 0 -8 14 -36 30 -63 17 -26 30 -51
30 -54 0 -6 41 -45 72 -67 13 -10 39 -29 58 -42 19 -14 60 -33 90 -42 30 -8
60 -19 65 -23 14 -11 296 -12 1755 -11 707 1 1715 0 2240 -1 525 -2 1056 -3
1180 -2 746 2 1000 6 995 14 -4 6 3 11 14 11 42 3 82 24 78 42 -1 7 7 11 21
10 27 -3 78 27 134 80 10 9 22 17 27 17 5 0 12 11 15 25 4 14 11 23 17 20 5
-4 8 -3 7 2 -3 8 40 120 52 138 4 6 7 57 7 115 0 58 3 134 7 170 13 121 21
493 21 945 0 399 -2 455 -17 493 -10 23 -14 42 -10 42 4 0 2 4 -4 8 -17 12
-45 82 -38 95 4 6 4 9 -1 5 -7 -7 -44 59 -49 88 -1 7 -7 18 -12 25 -16 21 -49
93 -46 102 1 4 -2 7 -6 7 -9 0 -52 89 -56 114 -1 8 -7 20 -13 27 -6 8 -21 37
-33 64 -13 28 -38 84 -57 125 -19 41 -46 100 -60 130 -30 65 -80 166 -97 197
-23 41 -110 113 -175 145 -62 31 -73 33 -207 38 -140 5 -140 5 -163 -20z m674
-895 c121 -31 220 -93 230 -144 2 -12 17 -43 32 -69 60 -99 57 -81 61 -450 3
-306 -7 -759 -27 -1217 -6 -147 -9 -165 -35 -223 -23 -50 -41 -72 -87 -107
-144 -110 -172 -115 -590 -115 -219 0 -338 3 -334 10 4 6 -936 10 -2693 10
-2398 0 -2705 2 -2758 16 -58 15 -93 34 -63 34 8 0 21 -6 27 -12 10 -10 646
-14 3100 -16 3082 -2 3087 -2 3152 18 68 22 113 56 184 143 44 53 46 61 49
197 2 58 9 238 16 400 16 398 12 1175 -8 1210 -27 48 -32 61 -25 72 4 6 3 8
-3 5 -9 -6 -45 27 -38 35 2 2 -23 21 -55 42 -33 22 -57 43 -54 47 2 4 -8 7
-23 6 -16 -1 -27 3 -26 8 0 6 -29 12 -65 15 -37 2 -1455 4 -3152 5 l-3085 0
-41 -22 c-75 -39 -147 -101 -181 -154 -35 -56 -43 -54 -18 4 8 20 12 43 9 52
-6 15 16 57 45 85 45 44 162 107 226 123 11 2 1404 5 3095 6 2723 1 3083 -1
3135 -14z m-5184 -276 c13 -20 11 -83 -3 -97 -7 -7 -37 -12 -68 -12 -65 0 -80
11 -80 60 0 59 18 71 94 66 27 -2 52 -9 57 -17z m-1351 -79 c-8 -15 -12 -188
-12 -593 -1 -452 -3 -535 -10 -397 -13 277 -6 968 11 1005 7 17 15 25 18 18 2
-7 -1 -21 -7 -33z m3259 -1039 c34 -18 50 -33 105 -101 25 -31 46 -102 46
-154 0 -151 -165 -279 -321 -250 -47 9 -120 47 -145 76 -53 59 -68 100 -69
178 0 71 2 79 40 140 43 68 100 116 156 131 50 12 144 2 188 -20z m2935 -5
c56 -33 80 -61 111 -129 38 -82 41 -121 15 -190 -28 -74 -63 -115 -133 -151
-46 -24 -67 -28 -128 -28 -84 0 -127 15 -181 64 -51 46 -79 103 -86 170 -4 51
-1 66 27 120 48 97 97 144 168 164 66 19 156 10 207 -20z"/>
<path d="M3552 4953 c779 -2 2057 -2 2840 0 783 1 145 2 -1417 2 -1562 0
-2202 -1 -1423 -2z"/>
<path d="M4362 3542 c-65 -21 -131 -110 -132 -178 -1 -134 160 -213 292 -145
147 75 86 314 -83 326 -30 2 -64 1 -77 -3z"/>
<path d="M7285 3539 c-46 -13 -102 -72 -116 -121 -27 -104 12 -183 106 -213
204 -64 341 147 192 296 -46 46 -110 59 -182 38z"/>
</g>
</svg>
