<?xml version="1.0" standalone="no"?>
<!DOCTYPE svg PUBLIC "-//W3C//DTD SVG 20010904//EN"
 "http://www.w3.org/TR/2001/REC-SVG-20010904/DTD/svg10.dtd">
<svg version="1.0" xmlns="http://www.w3.org/2000/svg"
 width="940.000000pt" height="788.000000pt" viewBox="0 0 940.000000 788.000000"
 preserveAspectRatio="xMidYMid meet">
<metadata>
Created by potrace 1.16, written by Peter Selinger 2001-2019
</metadata>
<g transform="translate(0.000000,788.000000) scale(0.100000,-0.100000)"
fill="#000000" stroke="none">
<path d="M5298 6935 c-4 -4 -28 -10 -123 -30 -16 -4 -49 -15 -72 -26 -24 -10
-47 -19 -53 -19 -6 0 -18 -4 -28 -9 -39 -22 -86 -41 -98 -41 -7 0 -14 -4 -16
-8 -1 -4 -32 -22 -68 -40 -80 -39 -124 -65 -128 -74 -2 -5 -9 -8 -16 -8 -7 0
-21 -9 -31 -20 -10 -11 -23 -20 -29 -20 -6 0 -24 -11 -41 -25 -16 -13 -34 -28
-40 -32 -96 -75 -215 -190 -350 -338 -55 -61 -77 -86 -123 -140 -9 -11 -58
-74 -107 -140 -50 -66 -93 -121 -97 -123 -5 -2 -8 -8 -8 -14 0 -6 -16 -32 -35
-58 -19 -26 -35 -50 -35 -53 0 -4 -25 -44 -55 -91 -30 -46 -55 -89 -55 -95 0
-6 -15 -11 -32 -11 -33 0 -124 -45 -145 -72 -16 -20 -43 -154 -43 -216 0 -79
23 -130 77 -172 25 -19 50 -40 57 -46 6 -6 33 -23 59 -38 33 -20 46 -33 43
-45 -20 -76 -40 -131 -47 -131 -5 0 -9 -7 -9 -15 0 -20 -29 -54 -62 -71 -23
-12 -72 -14 -276 -9 -242 4 -249 4 -316 -19 -62 -22 -97 -46 -149 -101 -58
-62 -95 -199 -138 -521 -11 -82 -15 -93 -41 -110 -23 -16 -28 -26 -28 -61 0
-23 5 -65 11 -92 9 -44 8 -58 -10 -106 -12 -31 -21 -62 -21 -69 0 -7 18 -21
41 -31 46 -21 44 -2 16 -168 -18 -102 -21 -292 -7 -364 31 -158 59 -253 100
-333 11 -22 17 -40 13 -40 -5 0 -3 -4 2 -8 6 -4 26 -32 45 -62 36 -57 46 -70
92 -123 16 -18 34 -44 40 -60 7 -15 16 -27 20 -27 5 0 8 -4 8 -10 0 -15 118
-152 163 -190 10 -8 32 -27 50 -42 18 -15 40 -30 50 -34 9 -3 17 -10 17 -15 0
-5 7 -9 15 -9 8 0 15 -4 15 -10 0 -5 7 -10 15 -10 8 0 38 -11 65 -24 27 -13
73 -30 102 -36 29 -7 63 -16 76 -21 13 -5 37 -9 55 -8 l32 0 -35 13 c-19 7
-55 22 -80 33 -25 11 -52 22 -60 25 -9 3 -54 30 -100 61 -77 50 -181 148 -278
262 -45 53 -157 286 -143 295 8 4 5 14 -8 31 -11 15 -18 37 -17 52 2 15 0 27
-3 27 -8 0 -40 99 -39 120 0 8 -3 60 -7 115 -18 231 -5 365 60 605 9 35 23 73
30 85 7 11 16 35 20 54 4 18 18 49 31 68 13 20 24 42 24 50 0 8 11 29 25 47
14 18 25 38 25 45 0 6 12 30 28 53 15 22 32 48 37 57 32 50 123 155 175 200
65 57 171 131 187 131 6 0 23 11 39 25 16 14 34 25 39 25 6 0 31 11 57 25 26
14 54 25 61 25 8 0 28 7 43 15 16 8 39 15 50 15 12 0 36 3 53 6 29 6 31 9 32
53 1 50 16 120 18 86 1 -11 8 -33 16 -49 8 -15 15 -34 15 -41 0 -7 7 -18 15
-25 14 -11 11 -15 -16 -32 -20 -12 -34 -16 -38 -9 -4 6 -23 4 -55 -6 -43 -14
-47 -18 -32 -29 12 -8 13 -13 5 -16 -7 -2 13 -19 44 -36 31 -18 57 -35 57 -39
0 -3 -3 -3 -6 0 -4 3 -16 1 -28 -5 -19 -10 -20 -10 -6 7 14 16 13 17 -8 11
-16 -5 -24 -3 -28 8 -3 9 -10 13 -15 10 -5 -3 -9 0 -9 6 0 7 -6 10 -12 8 -7
-3 -21 4 -32 14 -13 12 -23 15 -30 8 -5 -5 -23 -10 -38 -10 -30 0 -40 -20 -10
-20 9 -1 27 -6 40 -14 21 -11 22 -14 7 -26 -13 -11 -19 -10 -35 5 -11 10 -20
14 -20 10 0 -5 -5 -4 -11 2 -13 13 -73 -8 -99 -34 -13 -13 -12 -14 10 -10 14
2 19 2 12 0 -7 -3 -10 -8 -8 -12 3 -4 -20 -4 -50 -1 -59 7 -96 -4 -52 -15 15
-4 31 -4 36 -1 4 3 15 -3 24 -12 8 -9 25 -24 38 -32 12 -8 29 -21 36 -28 8 -7
19 -10 25 -6 8 4 9 3 5 -4 -4 -7 -1 -12 8 -12 8 0 22 -7 30 -16 9 -8 16 -11
16 -5 0 5 -7 14 -15 19 -14 7 -13 11 5 27 11 10 23 15 27 12 3 -4 1 -7 -5 -7
-21 0 -13 -20 13 -32 34 -15 31 -24 -10 -39 -19 -7 -35 -17 -35 -21 0 -5 -11
-6 -24 -2 -14 3 -27 1 -31 -7 -5 -8 -4 -10 3 -5 7 4 12 3 12 -2 0 -6 -7 -13
-16 -16 -9 -3 -14 -13 -10 -21 6 -18 -52 -65 -80 -65 -14 0 -16 2 -6 9 9 5 4
8 -16 7 -28 -1 -29 -2 -13 -23 16 -22 38 -33 26 -13 -3 6 1 10 9 10 22 0 20
-13 -4 -28 -11 -7 -17 -18 -14 -27 4 -9 0 -15 -9 -15 -21 0 -30 -28 -10 -32
14 -3 14 -4 -1 -17 -15 -13 -18 -12 -22 6 -5 20 -7 20 -37 5 -32 -15 -47 -30
-47 -45 0 -5 5 -5 11 -2 22 14 65 11 66 -5 1 -8 4 -26 7 -40 5 -22 5 -21 -5 3
-6 15 -15 27 -20 27 -4 0 -4 -12 2 -27 10 -27 10 -27 -11 -8 -14 12 -24 15
-28 9 -4 -6 -17 -16 -30 -23 -19 -10 -21 -15 -11 -27 13 -16 5 -18 -21 -4 -15
8 -19 7 -18 -7 0 -10 -3 -26 -7 -35 -5 -13 -3 -18 9 -18 23 0 20 -27 -4 -42
-22 -14 -26 -48 -8 -66 19 -19 -29 -50 -66 -43 -5 1 -3 -6 5 -15 12 -16 12
-17 -3 -12 -10 4 -19 1 -22 -8 -4 -10 0 -14 11 -12 10 2 22 -8 30 -22 11 -22
10 -25 -7 -28 -11 -2 -26 -13 -35 -24 -13 -19 -13 -23 4 -34 26 -18 17 -68
-11 -61 -15 4 -17 3 -8 -8 7 -8 9 -19 5 -24 -3 -7 0 -8 9 -5 13 5 14 1 5 -25
-6 -17 -15 -28 -21 -25 -6 4 -8 -2 -3 -16 4 -13 3 -20 -2 -17 -5 3 -10 -5 -11
-18 -1 -13 3 -27 8 -30 15 -9 12 -27 -2 -20 -7 4 -6 1 2 -7 18 -16 25 -102 7
-91 -7 4 -6 0 2 -10 12 -15 11 -17 -3 -17 -10 0 -14 -4 -11 -10 3 -5 1 -10 -5
-10 -6 0 -8 -4 -5 -10 3 -5 1 -10 -4 -10 -6 0 -2 -9 9 -20 14 -14 18 -28 14
-44 -3 -13 0 -29 8 -37 7 -8 13 -29 13 -47 0 -19 5 -37 12 -41 15 -8 26 -81
11 -78 -6 1 -13 -4 -16 -12 -3 -8 0 -11 7 -7 6 4 11 2 11 -3 0 -6 -4 -11 -8
-11 -5 0 -9 -7 -9 -15 0 -25 16 -17 24 13 l6 27 13 -30 c7 -16 13 -40 14 -52
0 -13 8 -31 18 -41 14 -14 16 -22 8 -36 -9 -13 -7 -20 7 -30 9 -7 17 -21 17
-31 0 -14 3 -15 15 -5 12 10 13 6 9 -27 -4 -36 -4 -36 7 -10 6 15 15 27 20 27
6 0 8 -4 4 -9 -3 -5 -1 -12 4 -16 6 -3 8 -22 6 -41 l-3 -36 27 26 26 25 0 -29
c1 -16 -3 -26 -8 -23 -12 7 -2 -66 11 -79 12 -12 35 -1 27 12 -3 5 5 14 17 21
21 11 22 11 9 -4 -7 -10 -10 -17 -6 -17 4 0 1 -8 -6 -17 -12 -15 -12 -16 4
-10 11 4 16 3 12 -3 -4 -6 3 -14 14 -18 11 -4 21 -11 23 -17 2 -5 9 -10 16
-12 10 -1 10 3 -2 16 -9 10 -16 24 -16 32 -1 8 -8 32 -16 54 -8 22 -17 56 -20
75 -2 19 -9 60 -14 90 -15 81 -20 364 -9 445 28 200 50 287 115 464 80 220
176 393 301 548 24 30 29 43 22 56 -6 9 -7 22 -3 29 5 8 1 9 -12 5 -18 -7 -18
-6 -1 7 16 12 17 18 6 38 -6 13 -8 20 -4 16 4 -4 20 -1 35 7 15 8 30 11 34 8
3 -4 6 2 6 13 0 11 3 15 8 9 4 -6 18 -12 32 -13 19 -1 21 1 10 8 -13 8 -12 10
3 10 10 0 16 4 13 9 -4 5 -2 20 3 33 7 17 10 18 10 6 1 -28 19 -21 43 16 12
19 30 39 39 44 17 11 67 4 52 -7 -4 -3 -17 -17 -28 -31 l-20 -25 35 27 c20 14
35 34 35 46 0 11 4 24 8 28 4 5 5 0 1 -11 -7 -18 -6 -19 11 -5 18 14 18 13 -1
-20 -10 -19 -23 -38 -29 -42 -6 -5 -3 -8 6 -8 9 0 19 10 23 23 3 13 9 18 13
12 5 -6 14 -10 21 -9 6 1 16 2 22 3 5 0 7 8 3 16 -3 10 0 15 8 13 8 -2 13 5
13 15 -1 10 1 16 4 13 3 -3 12 0 20 7 13 10 14 9 4 -10 -16 -30 -14 -42 2 -20
11 14 19 16 33 9 10 -5 27 -6 38 -1 11 4 35 8 53 8 18 1 35 7 38 15 3 7 16 12
31 10 38 -4 56 5 42 22 -6 8 -17 14 -24 14 -7 0 -15 7 -18 15 -6 14 -87 61
-87 49 0 -4 -7 -1 -15 6 -12 10 -15 10 -15 0 0 -7 -11 -2 -25 12 -13 13 -40
29 -59 35 -30 9 -34 9 -29 -6 4 -14 3 -14 -9 -1 -14 16 -20 18 -80 30 -23 4
-39 3 -41 -3 -2 -6 -12 -5 -27 3 -14 7 -47 14 -75 15 -101 4 -100 4 -88 16 9
9 8 18 -4 35 -8 13 -12 24 -8 24 3 0 -1 7 -9 16 -9 8 -17 23 -18 32 -2 32 -4
37 -9 47 -4 6 -9 27 -13 47 -6 34 -5 37 16 34 13 -1 41 -10 63 -19 97 -43 199
-48 246 -12 24 18 79 98 79 116 0 5 5 9 10 9 6 0 10 7 10 15 0 15 4 25 28 72
22 42 26 99 7 114 -60 50 -59 47 -29 81 14 18 30 42 34 54 7 18 94 143 143
204 7 8 30 40 52 70 21 30 48 64 60 76 19 20 32 36 65 84 8 12 39 46 68 76 28
30 52 59 52 63 0 5 19 21 43 37 23 16 50 39 60 52 10 12 23 22 29 22 6 0 30
17 53 38 58 50 132 106 148 111 6 1 30 12 52 23 22 11 49 22 60 24 11 2 21 8
23 14 2 5 11 10 21 10 9 0 26 8 37 19 11 10 37 26 57 36 20 9 37 21 37 26 0 5
6 9 14 9 8 0 16 5 18 11 3 9 17 9 57 -1 29 -7 69 -10 88 -7 20 4 55 4 79 0 36
-5 47 -12 71 -47 15 -22 33 -45 39 -51 7 -5 17 -28 24 -50 7 -22 16 -42 20
-45 3 -3 16 -36 29 -75 23 -75 28 -182 23 -517 l-2 -148 -63 0 c-56 0 -65 -3
-74 -22 -31 -69 -42 -100 -53 -153 -7 -33 -16 -64 -20 -70 -4 -5 -8 -46 -9
-90 -2 -91 16 -141 67 -187 36 -31 85 -58 107 -58 9 0 13 -4 10 -10 -3 -5 -2
-10 3 -10 5 0 26 -16 46 -35 21 -19 42 -35 47 -35 5 0 9 -6 9 -14 0 -19 -48
-125 -71 -158 -24 -33 -79 -77 -105 -83 -11 -2 -37 -9 -59 -14 -22 -5 -139
-14 -260 -20 -121 -6 -249 -16 -285 -21 -40 -5 -124 -5 -215 0 -82 5 -154 5
-160 1 -5 -5 -45 -21 -88 -36 -65 -23 -82 -26 -103 -16 -32 14 -33 14 -28 -6
5 -20 -42 -48 -52 -32 -3 5 -12 9 -21 9 -12 0 -13 -3 -3 -14 9 -12 3 -19 -37
-40 -109 -55 -270 -188 -374 -309 -33 -37 -59 -64 -59 -60 0 5 -9 14 -20 20
-15 10 -21 10 -26 0 -4 -6 -4 -9 1 -5 12 11 38 -21 31 -38 -5 -14 -10 -13 -30
7 -12 12 -27 22 -32 22 -5 -1 -17 3 -27 9 -10 5 -27 6 -39 2 -20 -6 -19 -8 13
-33 39 -31 76 -44 82 -28 2 7 6 7 9 1 4 -5 -10 -34 -30 -64 -20 -30 -60 -97
-88 -148 -29 -51 -54 -88 -56 -82 -5 16 -92 34 -96 21 -2 -6 -8 -9 -13 -5 -5
3 -9 0 -9 -5 0 -10 5 -12 25 -11 3 0 18 -6 34 -15 17 -8 37 -12 45 -9 20 8 20
1 1 -39 -37 -82 -101 -287 -110 -352 -1 -11 -8 -64 -15 -119 -19 -150 -8 -396
23 -516 14 -52 28 -103 32 -113 6 -13 3 -16 -9 -11 -9 3 -16 3 -16 -1 0 -15
22 -45 33 -45 7 -1 29 -35 49 -77 29 -58 35 -79 25 -85 -8 -5 -7 -8 6 -8 9 0
17 -5 17 -11 0 -6 10 -19 21 -28 21 -17 21 -17 -17 -13 -35 4 -37 3 -25 -12 8
-10 21 -14 32 -11 11 4 19 2 19 -4 0 -6 9 -11 19 -11 21 0 68 -57 63 -77 -2
-7 4 -13 13 -13 15 0 176 -116 183 -132 2 -5 9 -8 15 -8 7 0 45 -15 84 -32 79
-36 88 -52 56 -98 -22 -32 -25 -50 -7 -50 8 0 14 -4 14 -10 0 -5 4 -9 9 -7 9
2 11 -3 11 -23 0 -6 -14 -9 -32 -8 -30 3 -33 1 -39 -37 -4 -21 -12 -41 -18
-43 -16 -5 -13 -49 4 -56 28 -10 17 -36 -15 -36 -25 0 -31 -5 -41 -40 -11 -35
-10 -42 5 -53 15 -11 13 -20 -24 -107 -23 -52 -48 -108 -56 -124 -22 -45 -18
-66 12 -66 53 0 105 23 116 49 10 28 28 69 61 142 17 36 25 45 43 41 16 -3 25
5 39 34 16 35 16 38 1 49 -24 18 -9 48 21 42 24 -4 50 24 39 42 -3 5 1 14 9
21 8 7 15 9 15 4 0 -5 7 4 15 20 9 16 14 30 13 31 -2 1 -13 8 -26 14 -32 17
-8 40 36 33 32 -4 38 4 33 46 -1 8 7 16 18 19 12 3 21 9 21 13 0 5 2 15 6 23
3 9 -5 18 -24 26 -23 10 -28 17 -24 33 3 14 10 18 26 14 60 -17 66 -18 66 -7
0 6 16 11 36 11 19 0 43 4 53 9 9 5 30 11 46 14 17 2 39 7 50 11 54 21 76 25
150 30 90 6 174 20 201 34 69 34 110 52 117 52 20 0 181 116 241 174 37 36 37
37 6 13 -129 -101 -175 -132 -255 -171 -135 -67 -227 -90 -365 -91 -132 0
-219 21 -330 83 -89 49 -213 176 -269 275 -98 175 -136 350 -128 587 5 134 31
308 49 326 3 2 12 -2 22 -9 14 -11 15 -17 6 -42 -6 -16 -17 -74 -25 -130 -66
-458 102 -848 428 -995 83 -37 150 -50 261 -50 284 0 576 180 784 483 29 41
53 66 62 64 8 -2 14 -9 13 -15 -4 -15 14 -16 23 -1 6 11 47 8 101 -7 20 -6 26
2 58 72 54 119 59 128 73 137 9 6 12 26 11 58 -2 32 2 56 12 67 8 9 28 35 44
57 16 22 32 42 35 45 4 3 22 28 41 55 18 28 39 53 44 57 6 4 6 8 1 8 -5 0 1 8
12 19 12 10 19 20 17 23 -3 3 1 11 10 18 8 7 15 19 15 26 0 8 4 14 9 14 5 0
13 9 16 21 8 26 67 123 78 127 4 2 7 9 7 15 1 24 37 87 45 80 4 -5 5 -2 1 5
-4 7 -2 28 4 48 9 25 9 38 1 48 -6 7 -8 16 -5 19 4 3 -1 13 -10 22 -9 10 -16
12 -16 5 0 -6 -8 -4 -17 6 -10 10 -18 21 -18 26 0 4 -4 7 -10 6 -5 -2 -9 -7
-7 -12 2 -5 -9 -6 -23 -4 -14 3 -25 1 -25 -4 0 -5 -4 -7 -9 -4 -5 3 -11 -1
-15 -9 -3 -8 -1 -15 5 -15 6 0 7 -4 4 -10 -10 -15 -46 -12 -67 7 -17 15 -18
15 -18 0 0 -10 -4 -17 -10 -17 -5 0 -10 20 -10 45 0 25 -4 45 -10 45 -5 0 -10
10 -10 23 0 13 -3 27 -7 31 -4 3 -8 13 -9 20 -2 16 -92 173 -114 200 -8 10
-21 24 -27 31 -7 8 -13 18 -13 24 0 6 -3 11 -7 11 -5 0 -31 22 -59 48 -79 73
-220 151 -301 167 -109 22 -160 26 -263 20 -114 -7 -290 -41 -326 -65 -18 -11
-18 -11 -1 -6 10 3 55 15 100 27 142 37 302 15 426 -58 52 -30 143 -113 174
-158 15 -22 8 -18 -29 17 -62 59 -184 125 -277 149 -103 27 -266 26 -366 -2
-92 -26 -214 -85 -299 -146 -90 -64 -229 -206 -286 -293 -27 -41 -50 -76 -52
-78 -1 -2 -12 1 -23 8 -21 11 -20 13 31 88 28 42 102 127 163 187 100 99 121
115 215 161 58 28 120 57 138 64 53 21 30 21 -28 1 -33 -12 -62 -16 -74 -11
-12 4 -25 3 -31 -4 -5 -6 -9 -9 -8 -7 5 9 -53 51 -64 46 -7 -2 -13 0 -13 5 0
6 -10 10 -22 11 -22 1 -22 1 2 9 14 4 19 8 13 9 -7 1 -13 7 -13 15 0 8 -7 16
-14 19 -10 4 -13 1 -10 -8 5 -13 -32 -32 -43 -21 -10 10 98 125 165 176 82 61
157 102 241 130 67 22 142 30 503 54 246 17 268 23 335 100 22 24 52 77 69
117 16 40 30 66 32 56 2 -10 13 -17 25 -17 12 0 43 -11 70 -25 26 -14 47 -23
47 -20 0 3 11 -5 24 -16 14 -12 22 -28 19 -35 -3 -10 0 -12 10 -8 9 3 13 12
10 20 -7 19 4 18 75 -11 69 -28 114 -34 72 -10 -32 18 -26 18 34 0 59 -18 128
-19 144 -3 7 7 12 9 12 5 0 -6 19 8 58 43 10 8 18 20 19 25 1 6 17 36 36 67
18 31 41 81 51 110 15 49 15 57 1 84 -8 16 -15 25 -15 20 0 -5 -8 1 -19 12
-10 12 -22 22 -27 22 -14 1 -50 34 -63 57 -17 33 -13 47 18 64 22 13 33 31 45
74 15 49 16 101 13 383 -4 346 -13 425 -65 572 -27 76 -94 222 -109 238 -7 7
-13 20 -13 28 0 8 -6 17 -14 20 -8 3 -17 15 -20 27 -6 23 -57 87 -69 87 -17 0
-113 92 -109 106 2 9 -74 86 -81 82 -8 -4 -47 15 -47 23 0 5 -3 8 -7 8 -18 -3
-30 2 -49 19 -23 20 -45 33 -134 79 -35 19 -67 37 -70 41 -14 19 -208 113
-270 131 -25 7 -55 17 -68 22 -24 9 -285 13 -294 4z m882 -1819 c127 -64 515
-293 556 -327 24 -20 15 -67 -28 -150 -75 -144 -118 -166 -232 -120 -225 90
-478 242 -520 313 -30 49 -30 106 -3 188 48 141 53 150 90 150 19 0 74 -22
137 -54z m-2825 -728 c-11 -7 -33 -25 -50 -40 -25 -25 -98 -70 -115 -73 -9 -1
-122 -90 -154 -120 -17 -17 -50 -53 -73 -80 -36 -42 -44 -47 -58 -35 -12 10
-21 10 -40 2 -31 -14 -32 -5 -5 50 11 23 20 45 20 49 0 16 60 96 102 134 40
38 59 50 108 75 11 6 29 15 40 20 11 6 32 10 47 10 16 0 35 5 43 10 8 5 47 10
85 10 58 -1 67 -3 50 -12z m2398 -425 c18 -9 35 -17 39 -18 13 0 108 -59 108
-67 0 -4 6 -8 13 -8 18 0 137 -119 137 -136 0 -7 6 -17 14 -21 7 -4 19 -19 26
-32 13 -26 11 -29 -67 -92 -39 -31 -46 -28 -80 41 -17 37 -43 81 -57 98 -15
16 -26 32 -26 34 0 3 -25 31 -55 62 -30 32 -53 62 -50 66 3 5 1 11 -4 14 -16
10 -51 76 -40 76 5 0 24 -8 42 -17z m407 -425 c0 -10 7 -37 15 -62 13 -39 28
-153 28 -211 -1 -55 -15 -170 -22 -179 -5 -6 -12 -28 -15 -50 -9 -50 -68 -175
-117 -249 -22 -32 -39 -63 -39 -68 0 -12 -14 -11 -27 2 -7 7 -5 35 10 97 18
73 21 119 22 283 0 173 1 192 12 154 7 -23 17 -73 22 -111 l8 -69 2 84 c1 91
-24 258 -44 298 -17 33 -12 45 30 67 19 11 35 23 35 28 0 4 6 8 14 8 7 0 19 7
26 15 11 13 14 13 26 -2 7 -10 14 -26 14 -35z m-1125 -200 c-4 -18 21 -45 32
-35 3 4 12 2 20 -5 11 -8 17 -8 26 2 9 10 9 11 0 6 -8 -4 -11 1 -10 15 2 29
37 50 76 47 30 -2 32 -5 27 -30 -5 -27 -4 -27 17 -15 12 7 34 12 49 11 18 -1
25 3 21 13 -3 8 2 13 16 13 12 0 21 5 21 10 0 6 8 10 17 10 14 0 14 -3 -4 -22
-11 -13 -18 -29 -16 -36 4 -10 -6 -11 -46 -6 -43 6 -51 4 -51 -10 0 -9 5 -16
10 -16 6 0 10 5 10 10 0 6 7 10 15 10 8 0 15 -3 15 -7 0 -5 23 -7 50 -6 28 1
63 -5 78 -13 16 -8 21 -14 11 -14 -9 0 -23 -8 -30 -17 -13 -16 -12 -17 4 -4 9
7 17 10 17 6 0 -4 6 -3 13 2 16 12 70 16 62 4 -3 -5 -2 -11 2 -14 5 -2 3 -3
-3 -1 -6 1 -17 -3 -23 -9 -8 -8 -11 -8 -11 1 0 6 -7 9 -15 6 -8 -4 -15 -10
-15 -15 0 -4 8 -5 17 -2 13 5 15 3 9 -12 -7 -18 -6 -18 12 -1 18 15 21 16 35
1 15 -14 16 -12 12 21 -4 30 -2 35 11 30 8 -3 20 -6 25 -6 5 0 9 -5 9 -10 0
-6 -5 -9 -12 -8 -6 2 -14 -5 -16 -14 -2 -10 2 -18 9 -18 7 0 9 3 6 7 -4 3 2
13 14 21 11 8 23 11 26 8 4 -3 0 -6 -7 -6 -11 0 -11 -3 -2 -12 7 -7 12 -17 12
-23 0 -5 -5 -3 -10 5 -8 11 -9 7 -4 -14 5 -20 3 -27 -4 -22 -6 3 -14 2 -17 -4
-4 -6 -3 -10 2 -9 4 1 17 1 28 0 19 -1 19 -2 -4 -20 -17 -13 -19 -18 -7 -18 9
0 16 5 16 10 0 5 7 3 16 -4 15 -12 16 -11 10 11 -7 23 -6 24 8 7 8 -10 22 -24
30 -30 14 -10 13 -12 -8 -12 -13 0 -22 3 -20 6 2 3 -9 4 -24 1 -19 -4 -22 -7
-9 -10 9 -2 15 -7 13 -11 -3 -4 9 -6 25 -5 24 2 28 -1 19 -11 -8 -9 -8 -15 0
-20 6 -3 7 -11 4 -17 -5 -7 -2 -9 8 -5 12 4 14 1 11 -14 -4 -14 0 -19 15 -19
30 0 34 -14 11 -33 -25 -22 -30 -21 -22 1 6 15 5 15 -8 2 -19 -19 -22 -55 -3
-39 8 7 14 7 19 -1 3 -6 11 -8 16 -5 5 4 9 2 9 -4 0 -5 -4 -13 -10 -16 -6 -4
-5 -13 2 -25 7 -11 10 -22 6 -25 -10 -11 -58 7 -58 21 0 8 -5 14 -11 14 -5 0
-8 -4 -4 -9 3 -5 -13 -2 -35 6 -22 9 -37 20 -33 26 3 6 1 7 -4 4 -13 -8 -90
23 -278 113 -83 40 -161 76 -175 81 -20 8 -22 12 -10 19 12 8 9 10 -10 10 -43
0 -68 11 -73 31 -3 10 -10 19 -17 19 -6 0 -8 -4 -5 -10 3 -5 1 -10 -5 -10 -8
0 -9 10 -5 30 5 25 4 29 -9 24 -9 -3 -16 -14 -16 -23 0 -12 -2 -13 -9 -3 -4 8
-12 13 -17 11 -5 -1 -10 6 -11 17 -2 10 0 13 3 7 3 -7 10 -13 15 -13 6 0 7 5
4 10 -3 6 3 10 14 10 12 0 21 5 21 11 0 5 -4 7 -10 4 -5 -3 -10 -2 -10 3 0 6
7 12 15 16 9 3 15 0 15 -10 0 -8 4 -13 10 -9 5 3 7 12 3 20 -3 8 0 15 6 15 7
0 15 -9 19 -20 5 -14 11 -17 22 -10 11 7 11 10 2 10 -7 0 -10 5 -7 10 3 6 1
10 -5 10 -6 0 -8 5 -4 12 5 8 2 9 -9 5 -14 -5 -15 -3 -5 13 10 15 9 23 -6 39
-18 20 -18 20 7 8 15 -7 24 -18 22 -29z m-339 -104 c33 -14 73 -32 89 -39 151
-69 235 -102 240 -95 3 4 -2 11 -11 14 -9 4 -15 9 -12 11 3 3 38 -10 79 -29
41 -18 121 -55 179 -81 58 -26 137 -62 175 -80 39 -17 99 -45 135 -60 63 -28
111 -55 98 -55 -4 0 -111 48 -239 106 -127 58 -234 103 -237 100 -3 -3 -3 -8
-1 -10 2 -2 117 -56 254 -119 138 -63 297 -137 355 -164 58 -27 138 -65 178
-83 86 -40 89 -51 4 -17 -33 14 -63 22 -66 19 -3 -3 -6 -1 -6 5 0 11 -86 43
-114 43 -8 0 -14 -8 -13 -19 0 -11 6 -19 11 -18 21 4 18 -41 -3 -53 -12 -6
-21 -20 -20 -33 0 -21 1 -21 9 -2 16 41 35 47 63 21 14 -13 29 -21 33 -17 4 3
4 -3 0 -13 -5 -16 -4 -17 9 -6 13 11 15 9 15 -14 0 -30 -27 -47 -41 -25 -6 10
-9 10 -9 2 0 -7 -11 -15 -24 -19 -22 -5 -23 -8 -13 -25 6 -10 17 -19 24 -19 6
0 39 -16 72 -36 109 -65 86 -57 -179 63 -124 56 -848 376 -1015 449 -99 43
-185 81 -191 86 -22 16 71 238 100 238 7 0 40 -12 72 -26z m-20 -295 c88 -38
208 -90 239 -104 17 -8 35 -15 40 -16 6 -1 30 -12 55 -24 25 -12 219 -100 432
-196 213 -95 386 -174 384 -176 -3 -4 -185 73 -306 130 -36 16 -254 113 -485
214 -231 101 -422 186 -424 189 -11 10 20 2 65 -17z m204 -142 c21 -17 48 -53
33 -43 -7 4 -13 2 -13 -3 0 -6 5 -11 11 -11 8 0 7 -6 -2 -17 -12 -14 -12 -16
0 -8 11 6 13 2 9 -18 -4 -18 -1 -24 9 -20 7 3 13 0 13 -6 0 -6 -5 -11 -11 -11
-5 0 -8 -4 -4 -9 3 -5 1 -12 -5 -16 -5 -3 -10 0 -10 8 0 8 -7 20 -15 27 -12
10 -18 10 -30 0 -17 -14 -20 -50 -5 -50 6 0 10 10 10 22 l0 21 25 -23 c14 -13
25 -20 25 -15 0 5 3 6 6 3 8 -9 -14 -48 -27 -48 -6 0 -8 3 -6 8 3 4 0 12 -7
17 -16 14 -48 15 -43 1 3 -6 10 -10 16 -8 7 1 10 -2 6 -8 -3 -5 -12 -10 -20
-10 -8 0 -11 -7 -8 -20 5 -19 7 -20 29 -5 13 8 24 11 24 6 0 -5 -9 -13 -20
-16 -11 -3 -20 -10 -20 -15 0 -4 -8 -7 -17 -5 -10 2 -21 4 -25 4 -3 1 -13 15
-22 32 -13 26 -13 29 -1 19 8 -7 15 -18 15 -25 0 -7 7 -15 15 -18 23 -10 15
81 -10 99 -13 10 -15 14 -4 14 8 0 10 3 4 8 -14 10 -18 52 -5 52 7 0 10 -6 7
-12 -4 -12 19 -68 27 -68 2 0 2 10 -2 22 -3 13 -1 19 5 15 6 -4 13 -1 16 7 8
20 -4 28 -20 15 -10 -9 -13 -8 -13 4 0 9 7 14 18 12 9 -2 17 -4 17 -5 0 -1 12
-3 26 -5 24 -3 25 -2 15 20 -6 14 -16 21 -26 17 -12 -5 -11 -2 3 12 21 22 21
21 -3 23 -11 1 -19 -2 -17 -7 2 -9 -5 -10 -33 -3 -22 6 -24 11 -11 31 7 11 9
11 14 -2 6 -14 10 -14 26 -4 15 9 17 14 8 20 -7 4 -7 8 -2 8 6 -1 17 -6 25
-13z m108 -50 c6 -5 17 -5 24 -1 7 4 8 3 4 -4 -4 -7 -2 -12 4 -12 6 0 8 -5 4
-12 -4 -7 -3 -8 5 -4 6 4 9 12 6 17 -10 14 12 10 28 -6 8 -8 17 -12 19 -9 5 4
49 -13 143 -56 79 -36 135 -61 161 -70 14 -6 22 -14 19 -20 -3 -5 0 -7 8 -4 8
3 46 -11 83 -30 65 -33 67 -35 31 -31 -27 2 -35 0 -30 -8 15 -24 12 -39 -7
-34 -12 3 -17 0 -14 -7 3 -7 -2 -13 -10 -13 -11 0 -12 6 -6 23 5 13 6 25 2 28
-12 7 -35 -11 -28 -22 3 -5 0 -15 -8 -21 -10 -9 -15 -8 -20 4 -3 9 -2 13 4 10
6 -3 10 -1 10 5 0 7 -6 10 -12 7 -7 -2 -12 -10 -10 -17 1 -6 -3 -10 -10 -7 -7
2 -12 11 -10 18 3 11 1 11 -9 2 -10 -10 -9 -16 2 -29 12 -15 12 -17 0 -9 -11
6 -13 4 -9 -7 5 -11 -1 -15 -23 -14 -17 1 -29 6 -29 15 0 8 7 11 20 8 22 -6
24 6 9 38 -9 19 -9 18 -5 -2 2 -13 0 -23 -5 -23 -5 0 -9 5 -9 10 0 6 -7 10
-15 10 -8 0 -15 8 -15 18 0 14 2 15 10 2 5 -8 10 -10 10 -4 0 6 -8 18 -17 25
-11 10 -14 10 -9 2 4 -7 3 -13 -3 -13 -15 0 -6 -29 14 -43 12 -10 14 -16 7
-21 -7 -4 -12 -2 -12 4 0 6 -4 8 -10 5 -5 -3 -10 -2 -10 3 0 5 -7 9 -15 9 -8
0 -15 -6 -15 -12 0 -7 -7 -18 -15 -25 -12 -10 -15 -9 -15 4 0 10 5 14 10 11 8
-5 8 23 0 45 -2 3 -2 7 -2 11 0 3 -8 10 -19 17 -16 11 -19 9 -19 -9 0 -11 3
-18 8 -16 4 3 13 -1 20 -9 10 -11 7 -13 -20 -7 -18 3 -41 13 -52 22 -10 9 -21
14 -25 11 -11 -9 -13 42 -2 53 7 7 11 7 11 1 0 -6 21 -11 46 -11 46 -1 55 4
16 10 -11 2 -30 11 -41 21 -19 17 -21 17 -27 2 -3 -9 -10 -13 -16 -10 -5 3 -4
12 4 22 8 10 8 13 1 9 -6 -4 -14 -1 -16 5 -3 7 -6 3 -6 -9 -1 -12 3 -24 7 -27
5 -3 7 -19 4 -36 -2 -16 0 -36 6 -43 15 -18 25 -107 12 -107 -5 0 -10 12 -10
26 0 14 -4 23 -9 20 -5 -3 -14 1 -21 9 -9 10 -9 15 -1 15 6 0 11 -5 11 -11 0
-5 5 -7 10 -4 15 10 12 25 -6 25 -11 0 -14 6 -9 20 4 12 2 20 -5 20 -6 0 -8 5
-4 11 4 7 1 10 -7 7 -8 -3 -13 -11 -11 -17 1 -6 -6 -12 -15 -13 -10 0 -25 -2
-33 -2 -8 -1 -14 -8 -12 -16 3 -12 1 -13 -10 -2 -11 11 -10 14 2 22 8 5 23 10
33 10 10 0 15 5 12 10 -3 6 -1 10 6 10 7 0 9 3 6 6 -4 4 -13 2 -21 -5 -11 -9
-15 -8 -20 6 -6 15 -10 13 -30 -12 -15 -19 -25 -24 -30 -17 -4 7 -5 16 -2 21
3 4 -1 16 -8 27 -18 24 -9 46 15 39 11 -4 19 -2 19 5 0 6 -4 8 -10 5 -6 -4
-10 7 -10 24 0 21 5 31 15 31 8 0 15 6 15 13 0 8 4 7 11 -3 9 -12 10 -11 6 5
-3 11 -8 29 -12 40 -5 14 0 11 19 -10 l26 -30 -11 28 c-7 15 -16 27 -21 27 -5
0 -6 5 -3 10 3 6 1 10 -4 10 -6 0 -11 -3 -11 -8 0 -4 -8 -12 -18 -19 -16 -9
-18 -7 -18 16 0 21 4 27 20 26 12 0 27 -4 34 -8z"/>
<path d="M6312 4955 c-25 -18 -29 -50 -7 -59 8 -3 19 3 25 12 9 14 10 11 6
-15 -6 -39 -1 -41 25 -10 l20 22 -6 -22 c-4 -14 -2 -23 4 -23 6 0 11 6 11 14
0 8 5 18 12 22 11 7 10 3 -8 -42 -3 -6 9 -17 26 -24 18 -7 48 -24 67 -37 28
-19 38 -22 44 -11 6 9 9 6 9 -9 0 -23 10 -29 23 -16 4 3 2 12 -4 20 -9 10 -8
13 5 13 9 0 16 7 16 15 0 18 -11 19 -29 3 -11 -11 -11 -9 -1 10 13 26 4 45
-10 22 -8 -12 -10 -12 -10 -1 0 7 -6 11 -14 8 -8 -3 -17 -1 -20 6 -2 7 -5 5
-5 -5 -1 -9 -6 -20 -11 -23 -7 -4 -9 3 -5 22 5 21 4 24 -4 13 -9 -13 -11 -12
-11 5 0 14 -14 26 -42 40 -23 11 -46 19 -50 18 -4 -2 -8 1 -8 5 0 5 -6 16 -13
25 -11 16 -14 16 -35 2z"/>
</g>
</svg>
