<?xml version="1.0" standalone="no"?>
<!DOCTYPE svg PUBLIC "-//W3C//DTD SVG 20010904//EN"
 "http://www.w3.org/TR/2001/REC-SVG-20010904/DTD/svg10.dtd">
<svg version="1.0" xmlns="http://www.w3.org/2000/svg"
 width="940.000000pt" height="788.000000pt" viewBox="0 0 940.000000 788.000000"
 preserveAspectRatio="xMidYMid meet">
<metadata>
Created by potrace 1.16, written by Peter Selinger 2001-2019
</metadata>
<g transform="translate(0.000000,788.000000) scale(0.100000,-0.100000)"
fill="#000000" stroke="none">
<path d="M4477 6558 c-250 -14 -423 -47 -483 -93 -18 -14 -18 -14 9 -15 l27 0
0 -91 c0 -50 4 -88 9 -85 5 3 8 44 7 90 -1 69 1 83 11 74 20 -16 28 -1 12 19
-13 16 -12 17 4 4 21 -17 23 -53 2 -45 -8 4 -15 2 -15 -4 0 -15 26 -22 39 -9
8 8 11 5 11 -11 0 -15 -5 -20 -15 -16 -8 4 -15 1 -15 -5 0 -15 37 -14 43 2 3
6 6 -1 6 -18 0 -21 -2 -26 -8 -16 -11 17 -27 8 -34 -21 -6 -22 -5 -22 8 -4 14
19 15 19 15 -7 0 -19 -4 -25 -15 -21 -8 4 -15 1 -15 -5 0 -15 37 -14 43 2 3 6
6 -1 6 -18 0 -21 -2 -26 -8 -16 -10 15 -31 7 -31 -13 0 -16 57 -9 63 8 2 6 3
3 1 -7 -1 -11 0 -26 3 -34 5 -12 7 -12 14 -1 6 9 8 3 8 -17 0 -16 -3 -24 -6
-17 -2 6 -11 12 -18 12 -7 0 -12 7 -11 16 0 9 -7 18 -16 19 -10 2 -18 -3 -18
-11 0 -8 -6 -11 -17 -7 -15 5 -16 3 -6 -7 10 -11 15 -11 28 0 13 11 15 8 15
-16 0 -20 -3 -25 -9 -16 -7 11 -11 11 -22 -1 -8 -7 -19 -12 -24 -11 -14 5 -50
-24 -41 -33 4 -4 10 -2 14 4 4 6 24 13 45 16 20 3 45 11 54 18 15 12 16 12 10
-3 -4 -12 -1 -18 9 -18 8 0 12 5 9 10 -3 6 0 10 9 10 8 0 17 6 19 13 3 7 6 5
6 -5 1 -13 9 -18 29 -17 21 1 23 3 6 6 -16 3 -20 9 -17 24 4 14 0 19 -15 19
-15 0 -19 5 -15 20 4 15 0 20 -13 21 -15 0 -15 2 -4 6 8 3 18 11 22 17 4 6 8
-4 8 -21 0 -35 15 -45 23 -15 3 9 5 0 6 -20 0 -21 6 -38 11 -38 6 0 10 5 10
10 0 6 4 10 10 10 5 0 7 -7 4 -15 -5 -12 1 -15 27 -14 19 1 26 3 17 6 -10 2
-18 14 -18 25 0 16 -5 19 -25 16 -14 -3 -25 -1 -25 3 0 5 4 9 10 9 19 0 -3 30
-24 31 -20 1 -20 2 -1 6 11 3 26 12 33 21 11 14 12 14 12 -2 0 -9 5 -14 10
-11 6 3 10 13 10 22 0 11 -7 14 -25 11 -25 -5 -36 7 -13 14 17 6 0 28 -22 28
-13 0 -17 5 -13 19 4 14 -1 21 -19 24 -22 4 -22 4 -1 6 12 0 24 9 26 19 3 9 5
0 6 -20 1 -42 7 -46 28 -20 13 16 14 16 8 -4 -6 -23 2 -54 15 -54 4 0 7 18 7
40 0 36 -2 40 -26 40 -19 0 -22 3 -12 9 18 12 5 31 -22 31 -14 0 -18 3 -10 8
16 10 3 29 -22 34 -17 3 -15 5 8 10 21 4 27 2 27 -13 0 -26 17 -33 29 -12 10
17 11 16 9 -2 -2 -36 2 -55 12 -55 6 0 10 7 10 15 0 8 4 15 8 15 4 0 6 -16 4
-35 -3 -27 0 -35 11 -35 9 0 18 8 20 18 3 9 5 0 6 -20 1 -27 6 -38 16 -38 8 0
15 7 15 15 0 8 -5 15 -11 15 -8 0 -8 4 1 15 15 18 5 35 -20 35 -13 0 -17 5
-13 19 4 15 -1 20 -24 24 l-28 4 27 2 c16 0 28 8 31 19 3 9 5 0 6 -20 1 -40
25 -54 34 -20 3 9 5 0 6 -20 1 -27 6 -38 16 -38 8 0 15 7 15 15 0 8 -5 15 -12
15 -9 0 -9 3 0 12 20 20 14 38 -12 38 -19 0 -23 4 -19 20 4 16 0 20 -23 21
-28 2 -28 2 -4 6 14 3 28 10 32 17 4 6 8 -4 8 -21 0 -23 5 -33 15 -33 16 0 21
26 7 32 -4 2 -3 13 4 26 11 23 12 23 17 3 3 -12 2 -21 -2 -21 -3 0 -5 -18 -3
-40 4 -39 24 -55 35 -27 3 6 6 -5 6 -25 1 -40 25 -54 34 -20 3 9 5 0 6 -20 1
-30 5 -38 20 -38 11 0 22 6 24 13 3 6 6 -5 6 -25 1 -40 23 -53 35 -22 9 22 8
24 -11 24 -17 1 -17 1 0 11 9 5 17 17 17 26 0 13 -8 14 -42 9 -33 -4 -39 -3
-25 5 31 18 20 39 -20 39 -21 0 -33 4 -26 8 6 4 13 23 16 42 l4 35 1 -37 c2
-30 6 -38 21 -38 11 0 22 8 24 18 3 9 5 0 6 -20 1 -26 6 -38 15 -38 18 0 25
22 25 82 -1 61 8 86 32 93 25 8 25 24 -1 22 -11 -1 -80 -5 -153 -9z"/>
<path d="M4760 6563 c0 -3 11 -16 25 -29 22 -20 25 -31 25 -94 0 -63 2 -70 20
-70 11 0 20 -4 20 -9 0 -5 -9 -7 -20 -4 -19 5 -20 0 -20 -81 0 -68 3 -86 14
-86 8 0 17 -4 20 -9 4 -5 -3 -7 -14 -4 -11 3 -20 0 -20 -6 0 -6 11 -11 25 -11
21 0 25 5 25 28 1 23 2 25 11 9 5 -9 7 -22 4 -27 -4 -6 10 -10 34 -10 35 0 41
3 41 21 0 16 3 19 13 11 6 -5 23 -12 37 -15 23 -4 23 -4 -4 -6 -36 -1 -27 -13
14 -18 25 -2 30 1 31 20 0 12 3 16 6 10 2 -7 17 -14 31 -14 27 -1 27 -1 -3 -9
l-30 -8 37 -1 c32 -1 36 1 32 22 -3 17 -1 16 8 -5 9 -21 19 -28 39 -28 23 0
26 3 22 23 -4 18 -3 19 6 7 9 -12 12 -13 20 -1 5 7 6 23 4 35 -3 12 -1 17 4
10 4 -6 17 -14 28 -19 19 -8 19 -9 -3 -13 -18 -3 -23 -8 -19 -24 4 -14 2 -18
-9 -14 -8 3 -14 1 -14 -4 0 -13 47 -13 55 0 4 6 11 8 16 4 5 -3 7 -10 4 -15
-4 -5 -1 -9 4 -9 6 0 11 7 11 16 0 14 2 14 16 -1 14 -13 19 -14 25 -3 7 11 9
11 9 -1 0 -8 6 -11 16 -7 8 3 12 2 9 -3 -3 -5 -1 -12 5 -16 6 -4 11 32 12 102
1 59 2 115 4 123 1 8 2 38 3 66 1 50 2 51 27 46 20 -4 25 -1 22 9 -7 20 -111
59 -198 74 -120 21 -480 49 -480 38z"/>
<path d="M4305 6035 c-170 -17 -251 -32 -295 -55 -35 -19 -35 -19 -7 -20 l27
0 0 -176 c0 -96 4 -173 9 -170 4 3 8 54 7 113 -2 120 5 147 35 138 11 -4 19
-2 19 5 0 6 5 8 10 5 6 -3 10 0 10 9 0 8 -5 16 -12 18 -7 3 -6 7 5 11 13 5 17
1 17 -20 0 -35 14 -20 16 18 1 19 -3 29 -13 29 -8 0 -11 5 -8 10 10 16 23 11
30 -11 6 -17 9 -19 16 -8 6 10 9 4 9 -18 0 -33 14 -44 23 -20 3 6 6 -3 6 -20
1 -35 16 -45 24 -15 3 9 5 0 6 -20 1 -37 14 -51 24 -25 3 6 6 -3 6 -20 1 -33
24 -47 34 -20 3 6 6 -5 6 -25 1 -41 14 -49 30 -20 8 14 10 10 11 -20 0 -21 5
-38 10 -38 6 0 10 5 10 10 0 6 4 10 9 10 5 0 7 -9 4 -20 -5 -18 0 -20 36 -20
28 0 40 4 35 11 -3 6 -17 8 -33 4 -20 -5 -23 -4 -14 6 17 17 5 39 -22 39 -18
0 -22 4 -18 20 4 17 0 20 -23 20 -21 0 -25 3 -15 9 20 13 4 31 -27 31 -20 0
-23 3 -13 9 20 13 6 44 -18 36 -15 -5 -18 -1 -13 20 3 20 0 25 -16 25 -13 0
-19 6 -18 18 0 10 -6 16 -16 16 -10 -1 -15 2 -12 7 3 5 11 9 19 9 7 0 16 6 18
13 3 6 6 -3 6 -20 1 -18 6 -33 11 -33 6 0 10 5 10 10 0 6 4 10 8 10 5 0 7 -13
4 -30 -3 -22 0 -30 11 -30 12 0 15 9 13 38 -2 32 -5 37 -25 34 -15 -2 -21 0
-17 7 4 6 16 11 26 11 10 0 21 6 23 13 3 6 6 -3 6 -20 1 -35 9 -41 29 -21 9 9
12 3 12 -27 1 -35 2 -38 14 -22 18 24 23 22 23 -13 0 -39 10 -48 28 -24 14 18
14 18 15 1 0 -10 6 -17 13 -14 23 7 12 32 -18 38 -16 4 -25 7 -18 8 22 2 1 31
-22 31 -18 0 -22 4 -18 20 4 17 0 20 -23 20 -20 0 -25 3 -15 9 8 5 11 17 7 32
-6 23 -6 23 6 -1 17 -36 18 -37 34 -15 15 19 15 19 10 -5 -4 -14 -2 -32 4 -40
8 -13 11 -12 24 5 15 19 15 18 16 -17 0 -41 13 -49 29 -20 8 14 10 10 11 -20
0 -42 14 -57 29 -31 8 15 10 11 11 -19 0 -27 4 -38 15 -38 8 0 16 6 16 13 1 6
5 -4 8 -23 4 -24 2 -38 -7 -43 -7 -5 -16 -6 -19 -3 -4 3 -1 6 5 6 7 0 12 9 12
20 0 16 -7 20 -32 21 -18 0 -27 3 -20 6 27 11 12 33 -23 33 -24 0 -35 -5 -35
-15 0 -18 12 -19 28 -3 9 9 12 4 12 -25 0 -40 13 -48 29 -19 8 14 10 10 11
-20 0 -38 22 -54 33 -25 3 6 6 0 6 -15 1 -21 6 -28 20 -28 29 0 35 18 9 23
l-23 4 23 2 c20 1 23 6 20 41 -1 33 -6 40 -22 41 -20 0 -20 1 1 9 18 7 22 16
20 49 -1 36 -4 40 -20 35 -13 -4 -17 -2 -13 5 4 6 14 11 22 11 11 0 14 15 14
68 0 72 4 82 35 100 28 16 -158 14 -330 -3z"/>
<path d="M4784 6025 c24 -23 26 -30 26 -114 0 -85 1 -90 23 -94 l22 -4 -22 -2
c-22 -1 -23 -5 -23 -80 l0 -80 50 1 c47 0 50 1 51 26 0 15 3 21 6 15 11 -29
33 -13 34 25 1 20 3 29 6 20 9 -34 33 -20 33 18 0 23 4 33 11 28 6 -3 8 -17 4
-32 -4 -16 -1 -28 7 -33 8 -6 2 -9 -19 -9 -33 0 -47 -23 -20 -33 6 -3 -3 -6
-20 -6 -58 -2 -35 -21 25 -21 31 0 67 -3 80 -6 19 -6 22 -2 22 22 0 16 4 24 8
18 4 -7 16 -14 27 -17 18 -4 18 -5 -2 -6 -34 -2 -28 -21 7 -21 24 0 30 4 30
23 0 13 3 17 8 11 4 -7 16 -14 27 -17 18 -4 18 -5 -2 -6 -31 -1 -29 -18 1 -18
18 0 26 6 28 22 3 22 3 22 23 2 11 -11 15 -17 8 -13 -6 3 -14 2 -18 -4 -3 -5
-2 -10 4 -10 5 0 16 -3 25 -6 11 -4 16 0 16 15 0 14 5 19 15 15 8 -4 15 -10
15 -16 0 -5 -4 -6 -10 -3 -5 3 -10 1 -10 -4 0 -6 7 -11 15 -11 9 0 15 9 15 23
0 17 2 19 9 8 5 -8 7 -20 4 -28 -3 -8 2 -13 12 -13 12 0 15 6 10 23 l-6 22 20
-24 21 -23 0 103 c0 57 3 134 7 172 5 63 7 67 30 67 36 0 23 20 -22 36 -90 31
-362 63 -539 64 l-99 0 27 -25z"/>
<path d="M5414 5502 c-16 -10 -44 -79 -36 -87 4 -4 -9 -5 -28 -2 -222 33 -299
38 -598 38 -452 -1 -712 -27 -712 -71 0 -5 12 -2 28 5 15 8 84 22 152 30 165
22 876 16 1007 -8 106 -20 123 -25 123 -42 0 -9 6 -12 15 -9 11 4 13 13 9 28
-5 17 -4 19 7 9 10 -10 15 -9 25 5 8 9 14 25 14 35 0 9 6 26 12 37 14 22 1 44
-18 32z"/>
<path d="M4360 5323 c-97 -5 -250 -25 -255 -33 -2 -4 4 -15 15 -25 16 -14 20
-31 20 -77 0 -34 4 -58 11 -58 5 0 8 4 5 8 -2 4 -1 14 5 22 7 12 9 10 9 -7 0
-13 5 -23 11 -23 5 0 8 4 5 8 -3 5 4 16 15 25 18 16 19 16 19 -3 0 -15 6 -20
28 -19 l27 1 -25 7 c-18 5 -21 9 -12 15 7 4 16 5 19 2 3 -3 12 2 20 12 12 15
13 14 7 -11 -6 -26 -4 -28 19 -25 33 5 47 18 20 18 -16 0 -20 5 -16 20 4 16 0
20 -23 20 -28 0 -28 10 1 14 9 1 21 9 26 17 6 10 9 3 9 -23 0 -41 12 -49 30
-20 10 14 11 13 7 -11 l-4 -27 128 1 c71 1 129 6 129 10 0 5 -17 9 -37 10 -21
0 -32 3 -25 6 6 2 12 20 12 39 0 19 5 34 10 34 7 0 8 -13 4 -35 -5 -31 -4 -35
14 -35 11 0 23 8 25 18 3 9 5 3 6 -14 1 -30 3 -31 41 -31 37 0 40 2 40 28 0
16 5 29 11 29 6 0 9 -12 7 -27 -3 -26 0 -28 34 -30 21 -1 40 2 43 7 4 6 -10
10 -32 11 -21 0 -32 3 -25 6 7 2 12 22 12 44 0 24 -5 39 -12 39 -9 0 -10 2 -2
8 7 4 14 16 17 27 4 18 5 18 6 -2 0 -13 7 -23 14 -23 7 0 8 -3 2 -8 -5 -4 -11
-24 -12 -44 -1 -31 2 -38 17 -38 10 0 21 8 23 18 3 9 5 3 6 -14 1 -30 3 -32
41 -32 38 -1 40 1 41 31 1 18 3 24 6 15 2 -10 17 -18 36 -21 l32 -4 -32 -1
c-44 -3 -42 -22 2 -22 31 0 35 3 35 28 1 23 2 25 11 9 5 -9 7 -22 4 -27 -4 -6
14 -10 47 -10 29 0 64 -3 77 -7 21 -5 23 -3 19 19 -4 24 -4 24 24 11 32 -17
37 -28 8 -20 -11 3 -20 1 -20 -4 0 -5 12 -9 28 -9 15 0 44 -3 65 -6 l37 -7 0
54 c0 34 3 49 9 40 10 -16 16 -7 25 40 l6 37 -42 6 c-143 21 -669 33 -908 19z"/>
<path d="M4045 4310 c0 -542 1 -763 2 -492 2 270 2 714 0 985 -1 270 -2 49 -2
-493z"/>
<path d="M5351 4304 c-1 -655 2 -983 9 -979 13 8 14 1965 1 1965 -6 0 -10
-400 -10 -986z"/>
<path d="M4495 5064 c-130 -5 -378 -24 -388 -31 -5 -3 1 -15 13 -28 11 -12 20
-26 19 -31 -1 -5 -1 -31 0 -59 2 -46 3 -49 16 -31 15 20 15 20 16 0 0 -10 3
-13 6 -6 2 6 11 12 19 12 10 0 14 12 14 40 0 31 -4 40 -17 41 -14 0 -15 2 -3
6 8 3 18 11 22 17 4 6 8 -4 8 -21 0 -33 14 -44 23 -20 3 6 5 -6 6 -28 0 -34
-2 -36 -9 -17 -12 29 -20 28 -20 -3 0 -34 46 -36 53 -2 l4 22 2 -22 c1 -19 6
-23 34 -22 21 1 25 3 11 6 -16 3 -20 9 -17 24 4 15 0 19 -20 19 -20 0 -24 4
-20 20 4 15 0 20 -16 20 -12 0 -20 4 -16 10 3 5 12 7 19 4 8 -3 16 2 19 13 3
10 5 4 6 -14 1 -38 16 -50 30 -26 8 15 10 11 11 -19 0 -21 5 -38 10 -38 6 0
10 5 10 10 0 6 4 10 9 10 5 0 8 -7 7 -16 0 -9 4 -19 9 -21 6 -2 12 10 13 27 2
28 0 30 -24 24 -19 -5 -25 -4 -20 5 4 6 16 11 26 11 10 0 21 6 24 13 5 10 7
10 12 0 3 -7 12 -13 20 -13 10 0 13 7 8 24 -3 13 -1 27 5 30 7 5 11 -4 11 -23
0 -22 5 -31 16 -31 12 0 15 6 11 23 -3 12 -1 31 3 42 l9 20 1 -20 c1 -11 2
-44 2 -72 0 -39 4 -53 14 -53 8 0 14 6 14 14 0 8 5 18 12 22 8 5 9 0 6 -14 -6
-20 -2 -22 36 -22 37 0 42 3 44 25 1 18 -3 25 -15 25 -15 0 -15 2 2 14 10 7
16 20 13 28 -4 8 -2 21 3 29 6 10 9 5 9 -16 0 -17 5 -36 12 -43 9 -9 9 -12 0
-12 -7 0 -12 -11 -12 -25 0 -22 4 -25 40 -25 35 0 40 3 40 23 0 17 2 19 9 7 6
-8 7 -18 5 -22 -3 -4 13 -8 35 -8 34 0 41 3 41 20 0 11 5 20 10 20 6 0 10 -9
10 -20 0 -16 7 -20 35 -20 28 0 35 4 35 20 0 11 5 20 10 20 6 0 10 -9 10 -20
0 -16 7 -20 34 -20 28 0 35 4 39 23 l4 22 2 -22 c0 -13 7 -23 14 -23 6 0 22
-3 34 -6 17 -5 22 -1 26 18 4 23 4 23 6 1 1 -21 6 -23 67 -23 56 0 65 2 60 16
-3 8 -2 12 4 9 6 -3 10 -13 10 -21 0 -8 9 -14 21 -14 16 0 19 5 15 23 l-6 22
11 -22 c19 -36 29 -27 29 27 0 33 4 49 12 48 11 -3 35 58 27 66 -17 17 -592
38 -814 30z"/>
<path d="M4256 4789 c-83 -6 -152 -12 -155 -14 -2 -3 4 -14 14 -25 13 -14 20
-41 23 -82 4 -55 6 -60 18 -43 8 11 14 13 14 6 0 -8 11 -11 33 -9 20 2 32 8
32 18 0 8 -7 14 -16 12 -12 -2 -15 4 -11 23 3 19 0 25 -14 26 -15 0 -15 2 -4
6 8 3 18 11 22 17 4 6 8 -4 8 -21 0 -33 14 -44 23 -20 3 6 6 -3 6 -20 1 -31
20 -48 22 -20 0 6 3 4 7 -5 5 -12 12 -14 21 -9 17 11 6 31 -17 31 -14 0 -17 8
-17 35 2 47 15 58 15 12 0 -38 16 -50 27 -21 3 9 0 20 -8 25 -11 7 -11 9 -1 9
9 0 11 7 7 23 -6 21 -5 21 6 2 18 -30 19 -31 29 -15 7 12 10 9 10 -12 0 -14 3
-33 6 -42 4 -10 1 -16 -9 -16 -10 0 -13 8 -9 25 2 15 0 25 -7 25 -6 0 -11 -6
-11 -14 0 -8 -2 -20 -5 -28 -3 -7 0 -20 5 -28 9 -13 11 -13 20 0 8 13 10 13
10 -2 0 -11 5 -15 14 -12 17 7 20 84 3 84 -9 0 -9 2 -1 8 7 4 14 18 17 32 4
25 4 25 6 -2 1 -27 31 -42 31 -16 0 6 3 8 7 4 10 -10 11 -46 1 -46 -4 0 -8 5
-8 10 0 6 -7 10 -15 10 -10 0 -15 -10 -15 -34 0 -38 17 -57 31 -35 8 12 11 12
18 -1 6 -8 13 -11 18 -7 11 11 13 71 3 77 -5 3 -2 14 6 24 11 16 14 17 14 4 0
-9 6 -19 13 -21 10 -4 10 -6 0 -6 -19 -1 -17 -81 1 -81 8 0 17 8 19 18 4 16 5
15 6 -1 1 -23 34 -19 39 5 2 13 -6 18 -35 21 l-38 4 38 1 c27 2 37 7 38 20 1
9 5 -1 8 -22 6 -38 31 -64 31 -32 0 9 5 16 10 16 6 0 10 -7 10 -16 0 -32 25
-6 31 32 4 30 7 35 13 22 14 -31 35 -20 39 20 l4 37 1 -37 c2 -30 6 -38 21
-38 11 0 22 8 24 18 3 9 5 -2 6 -25 1 -31 5 -43 16 -43 8 0 15 8 15 18 1 14 3
13 13 -6 10 -17 15 -20 25 -10 23 23 13 38 -25 39 -21 0 -32 3 -25 6 6 2 12
21 12 41 0 27 3 33 10 22 5 -8 7 -25 3 -37 -4 -18 -1 -23 15 -23 11 0 23 8 25
18 4 16 5 16 6 0 0 -10 8 -18 16 -18 11 0 15 11 15 38 0 27 3 33 10 22 5 -8 7
-23 4 -34 -4 -10 0 -22 7 -27 10 -6 3 -9 -19 -9 -29 0 -33 -3 -30 -22 4 -30
28 -35 29 -6 l0 23 9 -22 c5 -13 17 -23 25 -23 9 0 13 5 10 10 -3 6 -2 10 4
10 5 0 13 -4 16 -10 10 -16 28 -12 21 5 -3 8 -1 15 4 15 6 0 10 -7 10 -15 0
-18 17 -20 23 -2 4 10 7 10 18 0 18 -18 27 -16 32 5 4 15 5 15 6 -2 1 -15 4
-16 15 -7 10 8 16 9 21 1 10 -16 25 -12 25 8 0 13 2 14 9 3 5 -7 14 -10 20 -7
6 4 14 0 17 -8 3 -9 10 -13 15 -10 5 3 6 10 3 16 -4 5 5 2 20 -7 25 -17 26
-16 26 1 1 18 1 18 11 2 18 -33 29 -19 30 40 1 42 3 51 9 32 8 -28 15 -18 24
41 l6 36 -57 7 c-93 11 -834 15 -997 5z"/>
<path d="M4178 4522 c-43 -1 -78 -5 -78 -8 0 -3 9 -17 20 -31 14 -19 20 -41
20 -79 0 -32 4 -54 11 -54 6 0 10 18 9 43 -3 75 0 95 15 101 11 4 15 -1 15
-17 0 -18 -2 -19 -10 -7 -8 12 -10 11 -10 -7 0 -16 5 -20 20 -16 11 3 20 0 20
-6 0 -6 -9 -11 -20 -11 -12 0 -20 -7 -20 -17 0 -15 2 -16 10 -3 8 12 10 9 10
-13 0 -16 -4 -26 -10 -22 -5 3 -10 0 -10 -9 0 -18 28 -15 41 5 7 12 9 11 9 -3
0 -12 6 -15 23 -10 12 3 25 10 29 16 5 7 8 5 8 -5 0 -12 7 -15 28 -11 15 3 30
10 34 16 5 8 8 7 8 -1 0 -7 7 -13 16 -13 12 0 15 6 11 23 -4 12 -2 29 3 37 7
11 10 5 10 -22 0 -27 4 -38 15 -38 8 0 15 7 15 16 0 8 5 12 10 9 6 -4 8 -10 5
-15 -3 -5 12 -9 34 -8 28 0 41 5 44 17 4 14 5 14 6 0 1 -21 81 -24 81 -3 0 8
5 14 10 14 6 0 10 -7 10 -16 0 -20 24 -13 28 9 3 14 -4 17 -35 17 -25 0 -33 3
-24 9 9 6 12 22 9 50 -2 22 0 41 4 41 9 0 11 -10 12 -55 1 -34 31 -48 39 -18
3 10 5 -1 6 -24 1 -46 21 -58 40 -25 9 15 10 15 11 1 0 -12 10 -16 40 -16 30
0 40 4 40 16 1 14 2 14 11 -1 16 -29 29 -21 29 17 0 19 5 35 11 35 6 0 9 -14
7 -32 -2 -24 1 -33 15 -36 11 -2 17 3 17 15 0 15 2 16 10 3 11 -18 72 -23 82
-6 5 7 8 7 8 0 0 -6 16 -11 35 -12 21 -1 33 3 30 8 -3 6 -1 10 4 10 6 0 11 -5
11 -11 0 -6 6 -9 13 -6 6 2 20 0 30 -5 13 -7 17 -5 17 9 0 13 3 14 8 5 5 -7
31 -14 59 -16 44 -3 51 -1 46 13 -4 13 -3 13 7 -1 19 -31 30 -19 31 35 1 40 3
46 9 27 9 -29 15 -17 24 46 l6 41 -65 7 c-62 6 -900 5 -1067 -2z"/>
<path d="M4228 4263 c-71 -2 -128 -6 -128 -9 0 -3 8 -18 18 -32 11 -16 20 -48
21 -77 2 -55 8 -66 21 -45 7 10 10 11 10 3 0 -7 9 -13 20 -13 11 0 20 6 20 13
0 8 3 8 8 2 4 -6 17 -12 28 -12 18 -1 21 4 21 38 0 31 -3 39 -18 39 -13 0 -17
5 -12 17 4 11 8 12 11 5 6 -20 25 -13 19 7 -2 10 -1 25 4 32 10 16 12 6 9 -53
-1 -36 13 -52 23 -25 3 6 5 -1 5 -18 0 -16 -2 -24 -5 -17 -7 19 -23 14 -23 -7
0 -15 7 -19 30 -19 18 1 31 7 33 17 4 13 5 13 6 -1 1 -25 31 -23 31 2 0 14 -7
20 -24 20 -19 0 -23 4 -19 20 4 16 0 20 -19 20 -22 0 -24 3 -19 33 5 31 6 31
9 5 2 -17 9 -28 19 -28 10 0 14 6 10 20 -3 11 -1 20 4 20 5 0 9 -18 9 -40 0
-29 4 -40 15 -40 8 0 15 7 15 15 0 8 -6 15 -12 15 -9 0 -9 3 1 9 8 5 11 15 8
23 -3 8 -1 21 4 29 6 10 9 4 9 -18 0 -23 5 -33 15 -33 18 0 20 27 3 32 -7 3
-6 7 5 11 14 5 17 0 17 -38 0 -32 4 -45 14 -45 8 0 16 6 19 13 2 6 8 9 12 5 5
-4 3 -18 -3 -30 -6 -13 -11 -17 -11 -10 -1 7 -15 12 -33 13 -18 0 -27 3 -20 6
17 7 15 33 -3 33 -11 0 -15 -11 -15 -40 0 -42 24 -58 33 -22 4 15 5 15 6 0 1
-24 78 -23 84 1 4 14 5 14 6 -1 1 -22 81 -24 81 -2 0 8 5 14 10 14 6 0 10 -7
10 -15 0 -8 7 -15 15 -15 8 0 15 9 15 20 0 16 -7 20 -37 21 -21 0 -32 3 -25 6
6 2 12 20 12 39 0 20 4 33 8 30 5 -3 7 -19 4 -36 -4 -25 -1 -30 16 -30 11 0
23 8 25 18 3 9 5 -2 6 -25 1 -31 5 -43 16 -43 8 0 15 7 15 15 0 8 5 15 10 15
6 0 10 -7 10 -15 0 -8 7 -15 15 -15 11 0 15 12 16 43 1 23 3 34 6 25 2 -10 13
-18 24 -18 15 0 19 8 21 38 l1 37 4 -35 c3 -19 10 -38 16 -42 7 -4 -5 -8 -25
-8 -31 0 -38 -4 -38 -20 0 -25 37 -27 43 -2 4 14 5 14 6 1 1 -12 11 -16 41
-16 30 0 40 4 40 16 1 15 1 15 10 0 13 -22 70 -23 70 -1 1 15 2 15 13 2 14
-18 67 -25 67 -9 0 8 4 8 13 2 22 -17 65 -14 70 5 4 15 5 15 6 0 1 -19 41 -21
53 -3 5 6 8 6 8 -2 0 -7 9 -13 19 -13 11 0 22 6 24 13 4 10 6 10 6 0 1 -7 8
-13 16 -13 11 0 15 12 15 52 0 28 3 49 6 46 3 -3 5 -24 6 -47 1 -71 16 -44 20
37 3 42 3 79 1 81 -4 6 -899 9 -1075 4z"/>
<path d="M4100 3992 c0 -4 7 -17 15 -29 16 -23 23 -51 24 -99 l1 -32 140 0
c81 -1 140 3 140 9 0 5 -5 9 -12 9 -9 0 -9 3 0 12 22 22 13 38 -20 38 -23 0
-29 3 -19 9 8 5 11 16 7 29 -4 11 -2 23 4 27 6 4 10 -6 10 -24 0 -34 25 -44
33 -13 5 17 11 -48 8 -80 -2 -15 9 -17 81 -17 l84 0 1 35 c1 33 0 34 -35 34
-21 0 -32 4 -25 8 6 4 13 21 16 37 l4 30 2 -32 c1 -25 6 -33 20 -33 11 0 22 8
24 18 3 9 5 1 6 -18 0 -20 6 -41 13 -48 9 -9 9 -12 0 -12 -7 0 -12 -4 -12 -9
0 -6 126 -9 314 -9 172 0 318 -2 323 -5 16 -10 23 3 25 47 l1 41 7 -45 c5 -38
7 -41 12 -20 4 14 9 53 12 88 l6 62 -605 0 c-333 0 -605 -3 -605 -8z"/>
<path d="M4100 3726 c0 -7 7 -19 15 -26 8 -6 17 -38 21 -71 7 -65 0 -60 90
-62 33 -1 37 2 40 26 2 21 -3 30 -19 37 l-22 9 22 0 c12 1 24 7 27 14 3 6 4 3
1 -8 -2 -11 0 -27 5 -35 9 -13 11 -13 20 0 8 12 10 11 10 -7 0 -16 -4 -21 -15
-17 -9 4 -15 0 -15 -8 0 -11 13 -15 48 -15 48 -1 49 0 49 31 0 17 -5 34 -11
38 -7 5 -7 8 3 8 9 0 11 7 8 23 -4 12 -2 29 3 37 10 16 14 -23 10 -102 -1 -29
2 -38 14 -38 9 0 16 5 16 10 0 6 -5 10 -11 10 -8 0 -8 4 -2 13 15 17 14 77 0
77 -9 0 -9 2 -1 8 7 4 14 16 17 27 2 11 5 -17 6 -62 1 -65 4 -83 15 -83 9 0
16 13 19 33 l4 32 1 -32 c2 -26 6 -33 22 -33 11 0 20 5 20 10 0 6 -5 10 -11
10 -8 0 -8 5 1 15 7 8 10 21 7 28 -3 8 -1 20 4 28 6 10 9 3 9 -23 0 -20 6 -39
13 -41 10 -4 10 -6 0 -6 -7 -1 -13 -5 -13 -11 0 -5 18 -10 40 -10 38 0 54 13
28 23 -10 4 -10 6 0 6 16 1 16 78 0 83 -8 3 -7 6 3 10 12 5 16 -3 18 -35 1
-23 7 -47 13 -54 7 -9 7 -13 -1 -13 -7 0 -9 -4 -6 -10 3 -5 13 -10 21 -10 10
0 13 7 8 24 -3 13 -1 27 5 30 7 5 11 -4 11 -22 0 -27 3 -29 39 -29 37 0 40 2
44 31 l4 31 1 -32 c2 -25 7 -33 21 -33 16 0 19 7 17 40 -1 22 1 46 6 53 7 11
13 -46 9 -80 -1 -9 12 -13 39 -13 25 0 40 5 40 13 0 9 2 9 8 0 10 -15 224 -15
234 1 6 8 8 8 8 0 0 -7 23 -10 68 -9 l67 3 6 33 6 34 2 -32 c2 -60 21 -34 21
30 0 34 3 72 6 85 l6 22 -606 0 c-508 0 -606 -2 -606 -14z"/>
<path d="M4100 3464 c0 -5 7 -19 15 -30 8 -10 15 -38 15 -61 0 -72 -2 -71 132
-72 80 -1 118 2 113 9 -3 5 -1 18 4 27 9 16 10 14 11 -9 0 -26 3 -28 38 -27
l37 2 -35 7 c-19 4 -29 8 -22 9 6 0 12 10 12 21 0 16 -7 20 -32 20 -23 0 -29
3 -19 9 8 5 12 15 9 22 -3 8 -2 23 3 34 6 15 8 11 8 -17 1 -38 23 -54 34 -25
3 6 6 -5 6 -25 1 -40 25 -54 34 -20 3 10 5 6 6 -10 1 -23 6 -28 25 -28 13 0
31 -3 40 -6 9 -3 16 -1 16 5 0 6 -17 12 -37 12 -21 1 -30 3 -20 6 14 3 18 12
14 28 -2 13 0 30 4 37 6 8 9 -1 9 -24 0 -27 4 -38 15 -38 8 0 15 5 15 10 0 6
4 10 10 10 5 0 9 -10 7 -22 -2 -18 3 -22 41 -24 23 -1 42 2 42 7 0 5 -17 9
-37 9 -21 0 -33 4 -26 8 6 4 13 23 16 42 l4 35 1 -37 c2 -30 6 -38 21 -38 11
0 22 8 24 18 3 9 5 3 6 -14 1 -30 3 -31 40 -31 37 0 40 2 44 31 l4 31 1 -32
c2 -30 3 -31 45 -29 37 1 42 4 40 24 -2 12 2 22 7 22 6 0 10 -11 10 -23 0 -21
4 -24 38 -21 20 1 56 2 79 3 37 1 42 4 46 29 l4 27 2 -28 1 -28 123 3 122 3 6
35 c6 30 7 31 8 8 2 -49 21 -30 21 21 0 27 3 61 6 77 l6 29 -606 0 c-420 0
-606 -3 -606 -11z"/>
<path d="M4064 3221 c-2 -2 -4 -31 -4 -63 0 -54 2 -59 28 -70 57 -24 1234 -21
1256 3 2 2 5 33 7 69 4 64 4 65 -21 62 -71 -8 -1004 -12 -1123 -5 -76 4 -140
6 -143 4z"/>
<path d="M5322 2525 c-1 -25 -3 -49 -6 -53 -2 -4 -7 -72 -11 -152 -4 -89 -11
-150 -19 -157 -14 -15 -91 -29 -208 -38 l-87 -7 -3 81 -3 82 -290 0 -290 0 -3
-82 -3 -81 -87 6 c-79 5 -83 4 -42 -6 30 -8 174 -12 435 -12 363 0 420 3 575
29 28 5 32 4 18 -5 -13 -8 -18 -24 -18 -58 0 -27 -5 -53 -12 -60 -9 -9 -9 -12
0 -12 7 0 12 -5 12 -11 0 -5 -4 -7 -10 -4 -5 3 -10 2 -10 -3 0 -6 -15 -15 -32
-21 -38 -13 -275 -30 -424 -31 -56 0 -135 -3 -177 -6 l-77 -7 0 -48 0 -49 -75
0 c-71 0 -77 2 -108 33 -18 17 -41 44 -50 59 -10 16 -29 29 -49 33 -123 23
-127 25 -133 58 -3 18 -6 52 -8 76 -1 24 -7 46 -14 48 -17 6 -20 -24 -8 -92 9
-54 15 -65 72 -124 60 -62 110 -91 160 -91 23 0 23 10 25 -310 0 -8 0 -125 -1
-259 -1 -134 2 -247 6 -252 4 -4 21 -11 37 -15 28 -7 28 -6 13 17 -27 42 -36
259 -22 544 9 198 13 205 93 205 47 0 67 -6 105 -30 26 -16 54 -30 61 -30 7 0
25 -13 39 -30 15 -16 32 -30 38 -30 20 0 49 21 49 35 0 33 88 61 131 41 10 -4
23 -1 33 10 16 16 18 16 34 0 15 -15 17 -47 17 -289 -1 -236 -3 -280 -19 -330
-10 -31 -21 -57 -25 -57 -3 0 -26 -18 -50 -41 l-45 -40 -197 3 c-109 2 -196 1
-194 -1 3 -2 42 -10 87 -17 145 -24 262 -17 408 24 62 18 66 19 80 21 6 1 10
147 10 416 0 409 0 415 20 415 52 0 105 27 161 82 71 69 78 83 81 148 1 28 6
54 10 56 4 3 1 18 -7 33 -8 17 -10 32 -5 37 5 5 11 80 14 167 3 87 8 173 12
192 4 21 2 35 -4 35 -5 0 -10 -20 -10 -45z"/>
</g>
</svg>
