<?xml version="1.0" standalone="no"?>
<!DOCTYPE svg PUBLIC "-//W3C//DTD SVG 20010904//EN"
 "http://www.w3.org/TR/2001/REC-SVG-20010904/DTD/svg10.dtd">
<svg version="1.0" xmlns="http://www.w3.org/2000/svg"
 width="1200.000000pt" height="1200.000000pt" viewBox="0 0 1200.000000 1200.000000"
 preserveAspectRatio="xMidYMid meet">
<metadata>
Created by potrace 1.16, written by Peter Selinger 2001-2019
</metadata>
<g transform="translate(0.000000,1200.000000) scale(0.100000,-0.100000)"
fill="#000000" stroke="none">
<path d="M5800 11814 c-324 -17 -566 -45 -841 -94 -1428 -258 -2735 -1068
-3621 -2245 -497 -659 -859 -1453 -1027 -2250 -142 -673 -166 -1342 -71 -2020
242 -1728 1280 -3283 2800 -4196 1668 -1001 3735 -1098 5475 -255 1779 862
3008 2571 3255 4524 34 276 44 430 44 737 0 321 -11 491 -50 785 -196 1474
-962 2821 -2139 3759 -884 706 -1965 1137 -3095 1235 -172 15 -602 27 -730 20z
m450 -1358 c593 -19 1247 -191 1810 -476 1127 -573 1955 -1597 2275 -2813 69
-263 113 -527 136 -810 15 -190 6 -664 -15 -847 -143 -1207 -733 -2276 -1670
-3024 -519 -415 -1125 -709 -1764 -855 -321 -73 -552 -101 -897 -108 -273 -5
-398 1 -642 33 l-123 17 0 1848 0 1849 460 0 c253 0 460 3 460 6 0 12 121
1062 126 1097 l6 37 -527 0 -526 0 4 388 c4 441 8 466 80 548 89 101 149 114
595 121 l352 6 0 564 0 564 -612 -4 c-571 -4 -621 -5 -723 -25 -311 -59 -528
-163 -696 -331 -196 -197 -309 -469 -349 -843 -5 -54 -10 -298 -10 -543 l0
-445 -350 0 -350 0 0 -570 0 -570 350 0 350 0 0 -1630 c0 -1114 -3 -1630 -10
-1630 -6 0 -67 32 -137 71 -797 446 -1431 1108 -1839 1920 -321 640 -474 1289
-474 2016 -1 588 98 1113 311 1653 69 176 243 520 347 687 458 733 1125 1324
1904 1685 554 256 1129 395 1733 417 99 4 196 5 215 4 19 -1 109 -5 200 -7z"/>
</g>
</svg>
