<?xml version="1.0" standalone="no"?>
<!DOCTYPE svg PUBLIC "-//W3C//DTD SVG 20010904//EN"
 "http://www.w3.org/TR/2001/REC-SVG-20010904/DTD/svg10.dtd">
<svg version="1.0" xmlns="http://www.w3.org/2000/svg"
 width="940.000000pt" height="788.000000pt" viewBox="0 0 940.000000 788.000000"
 preserveAspectRatio="xMidYMid meet">
<metadata>
Created by potrace 1.16, written by Peter Selinger 2001-2019
</metadata>
<g transform="translate(0.000000,788.000000) scale(0.100000,-0.100000)"
fill="#000000" stroke="none">
<path d="M2560 5099 c0 -6 -7 -9 -15 -5 -8 3 -15 2 -15 -3 0 -5 -13 -14 -30
-21 -16 -7 -30 -16 -30 -20 0 -4 -20 -18 -45 -31 -25 -13 -45 -27 -45 -31 0
-5 -7 -8 -15 -8 -8 0 -15 -4 -15 -10 0 -5 -5 -10 -11 -10 -6 0 -22 -9 -36 -20
-14 -11 -30 -17 -36 -13 -6 3 -7 1 -3 -5 4 -7 1 -12 -8 -12 -9 0 -16 -4 -16
-9 0 -5 -10 -13 -22 -17 -12 -3 -32 -16 -45 -28 -12 -12 -40 -30 -60 -41 -21
-11 -44 -26 -51 -33 -8 -7 -17 -10 -22 -7 -4 3 -10 -2 -14 -10 -3 -8 -10 -15
-16 -15 -9 0 -35 -19 -65 -47 -8 -7 -17 -13 -22 -13 -10 -1 -53 -36 -53 -44 0
-4 9 -2 19 3 13 7 932 11 2800 11 2575 1 2783 -1 2806 -16 21 -14 24 -14 20
-2 -4 9 -21 24 -40 34 -19 10 -31 22 -28 27 3 6 1 7 -4 4 -6 -4 -33 11 -61 33
-27 22 -55 40 -62 40 -6 0 -8 5 -5 10 3 6 -1 10 -10 10 -9 0 -27 11 -40 24
-13 13 -26 21 -29 18 -3 -3 -6 0 -6 6 0 7 -7 12 -15 12 -8 0 -15 5 -15 10 0 6
-4 10 -9 10 -11 0 -129 78 -151 100 -8 8 -32 24 -52 34 -21 11 -38 23 -38 28
0 5 -4 7 -9 4 -5 -3 -12 1 -15 10 -4 9 -9 14 -12 11 -4 -3 -13 0 -21 8 -8 8
-23 15 -34 15 -11 0 -17 4 -14 10 4 6 -725 10 -2139 10 -1568 0 -2146 -3
-2146 -11z"/>
<path d="M2136 4643 c-1 -1 -44 -3 -96 -4 -52 -1 -113 -7 -136 -14 -41 -12
-84 -46 -84 -65 0 -6 -14 -13 -31 -17 l-30 -6 3 -71 c1 -39 0 -75 -3 -81 -7
-15 -2 -171 8 -247 5 -37 6 -69 2 -70 -8 -3 -12 -47 -10 -116 1 -26 5 -41 11
-37 6 3 10 -3 10 -14 0 -12 -4 -21 -10 -21 -5 0 -10 -7 -10 -15 0 -8 3 -15 8
-15 4 0 7 -71 7 -157 0 -249 8 -423 20 -478 14 -60 52 -122 79 -129 10 -2 16
-9 13 -13 -3 -5 6 -10 20 -11 14 -1 32 -7 40 -14 8 -6 39 -10 70 -9 33 1 59
-2 63 -9 4 -7 89 -15 236 -21 126 -6 257 -13 292 -16 41 -3 62 -1 62 6 0 7 47
11 145 11 82 0 145 -4 145 -9 0 -9 3850 -5 3995 4 39 2 152 5 252 5 148 0 184
3 197 15 8 8 23 15 34 15 19 0 83 39 106 63 46 51 54 115 63 545 3 155 9 282
13 282 4 0 8 131 9 290 1 194 -2 290 -9 290 -5 0 -10 7 -10 15 0 9 -11 27 -24
40 -13 13 -22 26 -20 29 2 3 1 4 -2 1 -4 -2 -24 5 -44 15 -21 11 -56 22 -77
26 -35 5 -5301 12 -5307 7z m1425 -217 c151 -64 198 -300 83 -421 -29 -31 -92
-71 -100 -63 -2 2 17 35 41 74 25 38 52 83 60 101 60 129 -76 303 -233 298
-65 -2 -117 -35 -182 -117 -50 -63 -61 -62 -31 4 35 73 89 119 166 139 43 12
154 3 196 -15z m3066 -716 c4 -70 1 -96 -17 -150 -33 -100 -92 -182 -164 -232
-18 -13 -10 -1 22 30 28 28 52 56 52 61 0 6 -8 20 -17 30 -33 37 -43 50 -43
61 0 5 -4 10 -9 10 -5 0 -35 20 -68 43 -32 24 -74 52 -93 63 -19 10 -37 21
-40 24 -3 3 -24 14 -48 24 -41 19 -43 19 -78 0 -19 -10 -47 -31 -62 -46 -15
-14 -47 -34 -70 -45 -25 -10 -40 -23 -37 -30 2 -7 -2 -13 -10 -13 -8 0 -20 -9
-27 -20 -7 -11 -17 -20 -21 -20 -10 0 -37 -26 -37 -35 0 -12 -28 -34 -34 -27
-4 3 -4 -1 0 -11 8 -21 -2 -22 -23 -2 -16 16 -33 12 -33 -8 0 -7 4 -6 11 3 9
12 10 12 5 -4 -5 -14 6 -31 41 -64 27 -25 37 -37 23 -28 -32 21 -35 21 -49
-10 -6 -15 -14 -24 -18 -21 -3 4 2 18 12 33 17 26 16 27 -15 59 -20 21 -29 38
-25 46 5 8 4 10 -3 5 -13 -8 -53 69 -77 149 -28 93 -14 204 32 253 13 14 33
16 33 3 0 -9 37 -19 105 -27 22 -3 42 -9 45 -13 3 -5 23 -11 45 -15 22 -4 45
-11 50 -15 6 -4 33 -16 60 -26 28 -10 54 -22 59 -26 17 -16 80 -9 114 11 29
18 95 39 129 42 7 1 10 5 7 10 -3 4 2 8 10 8 9 0 16 4 16 9 0 4 19 11 41 14
23 3 45 9 48 14 14 18 50 31 84 29 21 -1 37 3 38 9 0 5 7 -8 16 -30 8 -22 17
-78 20 -125z m-3819 -487 l3 -63 -161 0 -160 0 0 65 0 66 158 -3 157 -3 3 -62z"/>
</g>
</svg>
