<?xml version="1.0" standalone="no"?>
<!DOCTYPE svg PUBLIC "-//W3C//DTD SVG 20010904//EN"
 "http://www.w3.org/TR/2001/REC-SVG-20010904/DTD/svg10.dtd">
<svg version="1.0" xmlns="http://www.w3.org/2000/svg"
 width="500.000000pt" height="120.000000pt" viewBox="0 0 500.000000 120.000000"
 preserveAspectRatio="xMidYMid meet">
<metadata>
Created by potrace 1.16, written by Peter Selinger 2001-2019
</metadata>
<g transform="translate(0.000000,120.000000) scale(0.100000,-0.100000)"
fill="#000000" stroke="none">
<path d="M220 1000 c-13 -9 -13 -11 0 -20 8 -5 25 -10 38 -10 78 0 86 -37 86
-390 0 -345 -4 -365 -69 -381 -25 -6 -45 -15 -45 -20 0 -5 81 -9 180 -9 112 0
180 4 180 10 0 5 -18 13 -40 16 -74 12 -80 30 -80 226 l0 170 76 -4 c71 -3 78
-6 105 -36 18 -20 29 -43 29 -61 0 -29 27 -51 35 -28 2 6 5 78 7 160 3 135 2
147 -14 147 -12 0 -18 -8 -18 -22 0 -29 -32 -78 -62 -94 -13 -8 -53 -13 -90
-14 l-68 0 0 148 c0 81 5 154 10 162 7 12 34 15 137 15 123 0 130 -1 182 -30
34 -19 69 -50 94 -83 26 -34 44 -49 50 -43 8 8 2 71 -19 174 l-6 27 -341 0
c-207 0 -348 -4 -357 -10z"/>
<path d="M3927 862 c-9 -54 -43 -100 -107 -145 -30 -21 -55 -43 -55 -50 0 -7
20 -13 52 -15 l51 -3 -5 -179 c-5 -155 -4 -185 11 -225 24 -60 47 -75 121 -75
51 0 69 5 108 30 53 34 65 67 20 55 -16 -4 -48 -9 -73 -12 -38 -4 -49 -1 -65
17 -18 20 -20 39 -23 206 l-3 184 85 0 c47 0 86 3 86 8 0 4 3 17 6 30 6 22 5
22 -86 22 l-92 0 3 92 c3 79 2 93 -12 96 -12 2 -18 -7 -22 -36z"/>
<path d="M1039 692 c-60 -31 -120 -101 -138 -162 -31 -103 -1 -219 75 -292 53
-50 100 -68 182 -68 162 0 277 121 276 290 0 89 -21 137 -84 194 -58 52 -97
66 -184 66 -61 0 -83 -5 -127 -28z m204 -32 c57 -49 82 -119 82 -225 -1 -103
-19 -150 -80 -203 -29 -26 -44 -32 -82 -32 -40 0 -50 5 -88 43 -32 31 -48 58
-60 102 -34 116 0 270 72 324 44 32 114 29 156 -9z"/>
<path d="M1622 702 c-93 -49 -143 -132 -150 -245 -6 -93 13 -150 66 -209 53
-59 98 -78 182 -78 83 0 135 22 175 74 33 43 45 106 21 106 -9 0 -19 -8 -22
-17 -22 -69 -75 -113 -137 -113 -78 0 -134 59 -163 170 -38 151 24 300 127
300 46 0 69 -19 97 -83 21 -47 46 -68 72 -59 22 7 30 23 30 58 0 36 -37 75
-92 98 -52 22 -164 21 -206 -2z"/>
<path d="M2672 700 c-45 -27 -72 -76 -72 -128 0 -70 23 -98 128 -149 119 -59
152 -89 152 -137 0 -72 -85 -110 -159 -71 -30 15 -88 94 -98 133 -3 14 -11 22
-22 20 -13 -3 -16 -17 -13 -88 3 -109 7 -118 32 -95 18 16 22 16 66 1 59 -20
146 -21 182 -2 92 48 130 161 79 237 -16 25 -49 47 -124 84 -56 28 -111 59
-122 69 -51 47 -6 116 75 116 53 0 84 -25 122 -99 15 -29 32 -54 37 -55 13 -1
18 57 10 122 -4 34 -11 52 -20 52 -7 0 -15 -5 -17 -12 -3 -8 -16 -7 -46 5 -59
24 -148 22 -190 -3z"/>
<path d="M3051 711 c-53 -7 -66 -29 -22 -37 53 -11 56 -21 59 -230 4 -199 -2
-234 -36 -234 -9 0 -24 -5 -32 -10 -29 -19 12 -30 116 -30 69 0 106 4 119 14
17 12 16 14 -18 25 -34 12 -36 15 -43 68 -9 78 2 244 20 287 36 87 102 112
137 52 11 -19 28 -36 37 -38 53 -14 87 44 58 100 -18 35 -33 42 -88 42 -51 0
-100 -30 -139 -83 l-29 -40 0 61 0 62 -47 -2 c-27 0 -68 -4 -92 -7z"/>
<path d="M3535 713 c-11 -2 -30 -6 -43 -9 -31 -6 -23 -28 14 -34 50 -9 55 -33
52 -252 -2 -108 -7 -200 -10 -204 -4 -3 -22 -9 -39 -13 -18 -4 -34 -12 -37
-19 -3 -9 31 -12 137 -12 138 0 182 11 100 25 -30 5 -43 13 -50 32 -5 13 -9
130 -9 259 l0 234 -47 -1 c-27 -1 -57 -3 -68 -6z"/>
<path d="M4314 706 c-49 -21 -103 -75 -132 -130 -23 -44 -27 -63 -27 -141 0
-73 4 -97 22 -130 28 -52 78 -100 125 -119 45 -19 145 -21 201 -4 41 12 117
75 117 96 0 17 -35 15 -51 -4 -22 -27 -86 -54 -128 -54 -52 0 -80 11 -114 46
-43 42 -59 81 -65 150 l-5 62 176 3 c117 3 180 8 188 16 9 9 8 24 -1 64 -14
58 -68 121 -126 145 -42 18 -139 18 -180 0z m150 -31 c30 -23 56 -67 56 -97 0
-50 -20 -58 -141 -58 -105 0 -109 1 -109 22 0 37 40 106 73 127 37 24 94 27
121 6z"/>
<path d="M1950 701 c0 -5 13 -12 28 -16 l29 -6 6 -204 c7 -227 16 -263 66
-289 37 -20 121 -21 165 -2 18 7 51 31 74 53 l42 40 0 -47 c0 -54 7 -60 73
-60 50 0 87 9 87 21 0 4 -12 14 -27 21 l-28 13 -5 240 -5 240 -83 3 c-65 2
-83 0 -80 -10 3 -7 14 -14 26 -16 38 -6 45 -35 40 -186 -5 -160 -16 -197 -77
-246 -42 -35 -99 -41 -123 -12 -33 37 -38 65 -44 266 l-7 206 -79 0 c-43 0
-78 -4 -78 -9z"/>
</g>
</svg>
