<?xml version="1.0" standalone="no"?>
<!DOCTYPE svg PUBLIC "-//W3C//DTD SVG 20010904//EN"
 "http://www.w3.org/TR/2001/REC-SVG-20010904/DTD/svg10.dtd">
<svg version="1.0" xmlns="http://www.w3.org/2000/svg"
 width="940.000000pt" height="788.000000pt" viewBox="0 0 940.000000 788.000000"
 preserveAspectRatio="xMidYMid meet">
<metadata>
Created by potrace 1.16, written by Peter Selinger 2001-2019
</metadata>
<g transform="translate(0.000000,788.000000) scale(0.100000,-0.100000)"
fill="#000000" stroke="none">
<path d="M4660 7008 c-12 -4 -32 -5 -44 -2 -12 3 -46 -4 -74 -15 -29 -12 -73
-21 -99 -21 l-45 0 7 -113 c6 -98 5 -115 -10 -127 -11 -9 -13 -15 -5 -20 7 -5
12 -36 11 -81 0 -63 -4 -77 -22 -91 -20 -17 -14 -24 15 -19 7 2 5 -41 -8 -114
-2 -11 -4 -30 -5 -42 -1 -15 -8 -23 -18 -23 -16 -1 -16 -2 -3 -13 10 -8 14
-25 12 -49 -3 -34 13 -72 44 -105 6 -6 14 -34 17 -62 3 -29 9 -56 12 -61 9
-15 107 -1 122 18 12 16 13 16 7 0 -5 -16 1 -18 49 -18 60 0 60 -1 73 72 3 21
10 35 15 32 5 -3 9 0 9 7 0 7 19 31 42 53 33 32 42 48 41 73 -1 38 18 98 31
100 6 1 16 21 23 45 15 52 15 48 3 48 -5 0 -10 -9 -10 -20 0 -12 -7 -20 -16
-20 -14 0 -16 8 -10 46 3 26 6 57 6 70 0 13 8 25 18 28 9 3 27 24 40 46 22 39
22 40 3 40 -12 0 -21 -8 -23 -22 -2 -12 -9 -23 -17 -26 -11 -4 -12 9 -6 69 8
85 10 89 34 89 10 0 22 13 29 33 16 44 15 58 -3 51 -8 -4 -15 -16 -15 -28 0
-11 -5 -28 -10 -36 -8 -12 -10 -12 -11 5 -2 47 3 101 12 110 5 5 9 21 9 36 0
32 -16 40 -75 38 -48 -2 -107 10 -101 20 6 9 -28 9 -54 -1z"/>
<path d="M4508 6012 l-67 -3 0 -294 0 -294 112 2 112 2 0 85 0 85 -53 1 c-71
1 -80 14 -9 14 l57 0 0 95 c0 64 -4 95 -11 95 -8 0 -8 4 0 14 8 10 11 45 8
108 l-4 93 -39 0 c-21 0 -69 -1 -106 -3z"/>
<path d="M4440 5325 l0 -84 108 3 c59 2 110 4 115 5 4 0 7 37 7 81 l0 80 -115
0 -115 0 0 -85z"/>
<path d="M4441 4805 l0 -425 125 0 124 0 0 55 0 55 -60 0 c-33 0 -60 3 -60 8
0 4 27 5 60 4 l60 -4 0 61 c0 48 -3 61 -15 61 -8 0 -15 5 -15 10 0 6 7 10 15
10 13 0 15 11 13 58 l-3 57 -60 1 c-77 1 -79 17 -3 19 32 1 59 3 61 6 3 2 2
32 -1 67 l-4 62 -99 -1 c-55 -1 -102 1 -106 4 -6 7 59 10 155 7 l53 -1 -3 73
-3 73 -52 0 c-29 0 -55 4 -59 8 -4 4 20 7 54 7 l62 0 0 38 c0 20 -3 54 -6 75
l-7 37 -113 0 -113 0 0 -425z m188 383 c-1 -13 -4 -36 -8 -53 -6 -27 -10 -30
-46 -32 -66 -2 -83 5 -90 40 -4 18 -9 40 -11 50 -5 15 3 17 75 17 78 0 81 -1
80 -22z"/>
<path d="M4441 4260 l0 -108 129 -1 130 -2 0 51 0 50 -47 0 c-54 0 -51 12 4
14 l38 1 0 50 0 50 -127 2 -127 1 0 -108z"/>
<path d="M4440 4095 l0 -45 130 0 130 0 0 45 0 45 -130 0 -130 0 0 -45z"/>
<path d="M4443 3952 c2 -76 4 -87 21 -90 17 -4 18 0 12 38 -8 50 -1 64 24 50
13 -7 21 -7 25 0 4 7 12 7 24 0 10 -5 21 -6 25 -3 3 4 34 7 69 7 l62 1 3 32
c4 45 -13 51 -150 51 l-117 1 2 -87z"/>
<path d="M4734 3853 c19 -290 36 -378 83 -434 52 -62 145 -85 219 -54 19 8 32
10 29 5 -11 -19 -79 -32 -133 -27 -74 8 -127 46 -164 116 l-28 53 0 -121 0
-121 40 0 c29 0 42 -5 50 -19 16 -31 13 -226 -4 -240 -14 -12 -210 -9 -408 5
-78 5 -88 8 -88 25 0 10 -7 19 -15 19 -12 0 -13 -4 -6 -18 7 -13 6 -23 -2 -31
-9 -9 -9 -14 3 -21 8 -5 18 -6 22 -4 4 3 8 -6 8 -20 0 -14 -4 -26 -10 -26 -5
0 -10 -7 -10 -15 0 -8 5 -15 11 -15 6 0 3 -7 -5 -16 -18 -17 -21 -44 -6 -44
16 0 12 -32 -7 -52 -14 -15 -15 -21 -4 -27 9 -6 10 -11 2 -15 -6 -4 -11 -16
-11 -27 0 -11 -6 -22 -12 -24 -7 -3 -13 -19 -14 -35 -1 -17 -9 -37 -20 -45
-17 -13 -17 -14 -2 -15 11 0 15 -5 12 -15 -4 -8 -10 -13 -14 -10 -4 3 -11 -3
-14 -12 -4 -9 -2 -20 4 -23 7 -4 -3 -10 -21 -14 -25 -5 -30 -9 -21 -18 8 -8 7
-14 -6 -24 -26 -20 -29 -18 -36 28 -5 30 -1 59 13 102 64 193 72 240 72 427 0
101 4 181 9 184 19 12 57 -41 64 -88 4 -26 4 -51 1 -57 -3 -5 -2 -10 4 -10 6
0 11 40 13 98 l3 97 40 5 40 5 0 240 0 240 -25 -1 c-14 -1 -55 -4 -92 -8 -61
-6 -67 -5 -61 11 4 13 -2 10 -20 -8 -15 -14 -45 -34 -67 -44 -22 -10 -40 -22
-40 -27 0 -4 -5 -8 -10 -8 -15 0 -80 -61 -80 -75 0 -6 -5 -16 -12 -23 -6 -6
-13 -17 -14 -24 -4 -24 -23 -66 -32 -72 -17 -10 -7 -190 11 -217 10 -13 17
-32 17 -42 0 -10 7 -31 15 -45 8 -15 23 -48 35 -74 11 -27 25 -48 30 -48 6 0
9 -3 8 -7 0 -5 2 -17 6 -28 5 -11 14 -37 22 -58 21 -56 17 -116 -10 -162 -12
-22 -28 -39 -35 -37 -7 1 -10 -1 -7 -6 2 -4 -15 -29 -40 -55 -24 -26 -42 -47
-40 -47 2 0 -14 -19 -36 -42 -22 -24 -54 -72 -71 -108 -17 -36 -35 -68 -40
-71 -5 -4 -11 -24 -13 -45 -2 -20 -7 -40 -11 -43 -11 -8 -33 -95 -33 -129 0
-16 -3 -32 -6 -35 -14 -14 -5 -178 16 -289 10 -50 88 -224 113 -250 6 -7 25
-31 42 -53 43 -59 111 -120 185 -168 79 -52 107 -67 120 -67 6 0 29 -8 53 -18
90 -40 168 -57 302 -69 39 -3 73 -10 76 -15 4 -6 62 -5 150 2 208 15 386 50
373 72 -3 4 2 8 12 8 9 0 46 20 83 45 88 60 96 66 110 92 6 12 17 21 24 19 6
-1 9 -1 5 1 -3 2 5 22 20 43 27 42 42 48 21 8 -11 -20 -10 -21 3 -11 8 7 18
10 21 6 10 -10 8 6 -3 27 -7 14 -2 34 20 83 47 99 63 192 57 332 -4 104 -10
135 -41 228 -53 159 -112 254 -251 407 -126 139 -140 166 -140 270 1 78 4 92
42 170 22 47 48 109 57 139 21 71 21 192 0 236 -27 57 -95 57 -114 1 -10 -33
-11 -33 -63 -29 -115 10 -194 83 -213 198 -4 22 -9 77 -11 122 -4 77 -7 84
-39 118 -19 20 -37 47 -40 61 -3 13 -11 24 -16 24 -6 0 -7 -31 -4 -77z m-109
-1184 c139 -7 212 -14 217 -22 13 -20 9 -245 -4 -253 -12 -8 -198 -6 -273 2
-22 2 -76 6 -120 9 -44 3 -86 8 -92 10 -10 3 -13 38 -13 129 0 90 3 126 13
129 19 8 48 8 272 -4z m187 -342 c15 -23 8 -48 -17 -57 -14 -5 -113 -10 -221
-11 -183 -2 -196 -1 -215 18 -17 16 -18 24 -9 44 l11 24 222 -3 c158 -2 224
-7 229 -15z m-442 -207 c11 0 20 5 20 10 0 19 32 10 37 -10 5 -17 14 -20 61
-20 40 0 58 5 68 18 13 16 13 16 14 -2 0 -17 6 -18 73 -12 39 3 91 8 115 12
28 4 42 2 42 -5 0 -6 11 -11 25 -11 14 0 25 5 25 12 0 8 6 6 17 -5 13 -13 15
-22 7 -44 -9 -26 -14 -28 -59 -27 -28 1 -126 12 -218 24 -155 21 -169 21 -180
6 -15 -21 -68 -12 -93 15 -15 16 -15 23 -5 46 11 24 14 26 22 10 6 -9 19 -17
29 -17z"/>
<path d="M4440 3814 c0 -19 5 -34 10 -34 6 0 4 -10 -4 -22 -8 -14 -11 -31 -6
-43 4 -11 5 -37 2 -57 -3 -27 -1 -38 8 -38 9 0 10 -3 1 -14 -7 -8 -10 -39 -8
-77 2 -35 0 -74 -4 -86 -5 -12 -4 -25 1 -28 6 -4 5 -14 -3 -26 -10 -17 -9 -22
6 -33 15 -12 16 -14 2 -20 -17 -6 -20 -32 -5 -41 5 -3 70 -8 145 -10 l135 -5
0 26 c0 23 -3 25 -37 24 -66 -3 -103 0 -103 8 0 5 32 7 70 6 68 -2 70 -1 70
22 0 21 -5 24 -42 25 -24 0 -65 1 -93 2 -27 1 -53 6 -57 12 -5 7 -13 6 -26 -2
-16 -10 -20 -7 -31 24 -7 19 -10 37 -8 40 3 3 63 4 132 4 l126 -2 -3 28 -3 28
-120 2 c-85 1 -119 5 -117 13 1 7 -3 19 -9 26 -9 11 -9 20 1 39 13 24 14 24
33 8 11 -10 22 -13 23 -8 3 6 40 9 94 7 l90 -3 0 34 0 34 -117 0 c-106 1 -117
2 -118 19 -2 11 -6 27 -10 37 -4 10 -3 17 4 17 6 0 11 7 11 15 0 17 16 20 24
6 4 -5 0 -12 -6 -14 -7 -3 -3 -6 10 -6 12 -1 21 4 20 11 -2 9 21 12 90 10 l93
-2 -3 37 -3 38 -132 2 -133 1 0 -34z"/>
<path d="M5228 3539 c-37 -14 -43 -37 -12 -49 36 -14 57 -71 58 -155 1 -80
-15 -135 -82 -279 -74 -163 -62 -235 64 -380 126 -145 154 -181 195 -248 53
-88 95 -189 115 -279 32 -146 15 -384 -35 -480 -21 -39 -16 -54 13 -43 16 6
20 17 16 43 -1 8 3 17 9 21 26 16 76 197 72 258 -1 17 1 32 6 32 9 0 9 55 0
80 -3 8 -8 47 -11 85 -3 39 -13 95 -22 125 -9 30 -18 60 -19 65 -11 39 -19 55
-26 55 -5 0 -9 9 -9 20 0 11 -3 20 -7 20 -5 0 -17 19 -28 43 -11 23 -26 48
-33 56 -8 8 -25 32 -39 54 -14 22 -35 50 -47 62 -52 54 -142 160 -156 184 -8
14 -19 29 -25 33 -19 14 -11 152 12 199 30 64 53 116 53 124 0 3 7 13 15 21 8
9 15 29 15 45 0 16 4 29 8 29 10 0 10 -1 11 95 1 90 -1 105 -11 105 -4 0 -8 9
-8 19 0 20 -35 52 -55 50 -5 0 -22 -5 -37 -10z"/>
</g>
</svg>
