<?xml version="1.0" standalone="no"?>
<!DOCTYPE svg PUBLIC "-//W3C//DTD SVG 20010904//EN"
 "http://www.w3.org/TR/2001/REC-SVG-20010904/DTD/svg10.dtd">
<svg version="1.0" xmlns="http://www.w3.org/2000/svg"
 width="940.000000pt" height="788.000000pt" viewBox="0 0 940.000000 788.000000"
 preserveAspectRatio="xMidYMid meet">
<metadata>
Created by potrace 1.16, written by Peter Selinger 2001-2019
</metadata>
<g transform="translate(0.000000,788.000000) scale(0.100000,-0.100000)"
fill="#000000" stroke="none">
<path d="M4939 5676 c-2 -3 -27 -7 -54 -10 -94 -11 -125 -18 -125 -28 0 -10
12 -9 148 9 25 3 42 2 42 -4 0 -6 -44 -16 -97 -24 l-98 -14 -12 -85 c-6 -47
-12 -114 -12 -150 -1 -36 -5 -92 -10 -125 -5 -33 -12 -109 -16 -170 -6 -104
-13 -164 -34 -262 -4 -23 -4 -46 1 -51 4 -4 4 -52 -2 -108 -5 -54 -12 -137
-15 -184 -3 -47 -10 -128 -16 -180 -6 -52 -12 -133 -14 -180 -3 -46 -7 -96
-10 -110 -2 -14 -11 -99 -19 -190 -18 -206 -16 -180 -20 -282 -2 -47 -6 -90
-9 -95 -3 -4 -5 -41 -6 -81 0 -40 -3 -77 -5 -81 -6 -9 -20 -183 -20 -256 -1
-43 2 -51 24 -63 35 -18 227 -12 240 8 12 19 18 88 30 325 14 272 58 1014 71
1205 6 85 14 234 19 330 5 96 13 254 19 350 20 311 29 495 24 503 -5 8 -17 9
-24 3z"/>
<path d="M5032 2286 c-28 -32 -30 -41 -37 -148 -4 -63 -6 -123 -4 -133 5 -23
77 -64 87 -50 4 6 21 10 38 10 l31 -1 7 75 c3 41 6 110 6 153 0 70 -3 82 -25
103 -34 35 -67 32 -103 -9z"/>
<path d="M4426 2258 c-6 -24 -26 -291 -29 -388 -2 -58 -3 -56 50 -59 15 -1 21
-6 17 -15 -7 -18 23 -24 146 -31 99 -6 132 -6 137 -2 1 2 6 18 9 37 5 24 4 31
-4 26 -7 -4 -12 -3 -12 3 0 5 4 11 9 13 14 5 25 108 12 108 -6 0 -11 7 -11 15
0 8 -6 15 -12 15 -7 0 0 11 15 25 24 23 27 33 27 89 0 55 -3 64 -20 69 -15 4
-20 14 -21 39 -2 30 -2 30 -6 6 -2 -16 -8 -28 -12 -28 -15 0 -31 25 -32 50 -1
16 -3 19 -6 8 -5 -22 -29 -24 -37 -3 -7 19 -26 20 -26 0 0 -26 -30 -4 -31 24
-2 24 -2 24 -6 3 -3 -16 -9 -22 -20 -18 -8 3 -17 6 -19 6 -2 0 -4 8 -5 18 0
10 -3 12 -6 5 -6 -15 -53 -18 -53 -3 0 6 -11 10 -24 10 -16 0 -26 -7 -30 -22z"/>
<path d="M4962 1554 c-30 -21 -28 -48 9 -78 27 -23 28 -26 10 -26 -31 0 -27
-36 8 -71 21 -20 37 -28 53 -25 13 3 26 5 29 5 4 1 10 9 13 18 6 16 5 16 -11
1 -15 -13 -20 -14 -30 -3 -9 10 -9 15 0 25 10 10 6 11 -15 6 -23 -5 -28 -3
-28 13 0 15 10 20 56 26 63 8 78 26 43 54 -16 13 -25 16 -28 8 -5 -15 -22 -27
-39 -27 -7 0 -10 5 -7 11 4 6 -2 13 -14 16 -12 3 -21 12 -21 19 0 8 -5 14 -11
14 -8 0 -8 5 1 15 16 19 10 19 -18 -1z"/>
</g>
</svg>
