<?xml version="1.0" standalone="no"?>
<!DOCTYPE svg PUBLIC "-//W3C//DTD SVG 20010904//EN"
 "http://www.w3.org/TR/2001/REC-SVG-20010904/DTD/svg10.dtd">
<svg version="1.0" xmlns="http://www.w3.org/2000/svg"
 width="1920.000000pt" height="1032.000000pt" viewBox="0 0 1920.000000 1032.000000"
 preserveAspectRatio="xMidYMid meet">
<metadata>
Created by potrace 1.16, written by Peter Selinger 2001-2019
</metadata>
<g transform="translate(0.000000,1032.000000) scale(0.100000,-0.100000)"
fill="#000000" stroke="none">
<path d="M14290 10304 c-103 -35 -200 -125 -200 -185 0 -47 35 -62 129 -57 73
4 80 3 89 -16 8 -19 -5 -27 -172 -104 -337 -156 -304 -143 -316 -121 -9 16 -3
27 45 73 49 49 55 59 55 96 0 38 -3 42 -37 57 -114 48 -373 -85 -373 -192 0
-54 31 -69 130 -62 73 6 79 5 85 -14 4 -11 5 -22 3 -24 -1 -1 -106 -50 -233
-108 l-230 -106 -9 26 c-7 21 -5 28 10 36 34 19 83 73 89 100 18 71 -30 105
-129 93 -56 -7 -154 -49 -206 -88 -70 -51 -92 -133 -45 -164 21 -14 41 -16
105 -11 65 5 79 4 84 -9 9 -25 7 -34 -8 -34 -8 0 -21 -6 -28 -14 -8 -7 -54
-126 -103 -264 l-89 -251 -46 -19 c-25 -11 -1296 -590 -2825 -1287 -1529 -697
-3016 -1375 -3304 -1506 -288 -131 -527 -239 -530 -239 -4 0 -36 21 -72 48
-287 208 -727 255 -1133 120 -229 -76 -424 -196 -597 -368 -175 -174 -281
-350 -336 -557 -34 -132 -36 -318 -4 -438 41 -155 113 -276 227 -386 86 -81
143 -120 248 -170 621 -290 1511 39 1826 676 45 91 90 226 104 315 6 34 9 36
176 114 93 43 190 82 214 87 95 17 230 -27 333 -110 46 -37 56 -53 99 -154
109 -259 148 -407 149 -562 0 -100 -2 -115 -28 -167 -32 -64 -110 -141 -190
-186 -123 -70 -219 -100 -657 -206 -455 -111 -902 -288 -1105 -438 -179 -132
-374 -362 -575 -675 -187 -294 -317 -490 -386 -583 -339 -458 -718 -773 -1226
-1020 -213 -103 -289 -123 -468 -124 -125 -1 -155 2 -219 22 -474 149 -939
723 -1400 1727 -311 676 -486 1164 -570 1590 -42 213 -55 351 -48 528 14 380
153 624 437 767 202 102 546 226 785 285 424 104 736 127 1350 100 763 -34
978 -5 1374 186 294 142 472 253 706 440 166 132 250 189 351 236 304 140 592
85 839 -162 83 -81 146 -168 207 -282 l44 -81 264 109 c146 61 269 114 273
118 9 9 -72 178 -130 268 -146 231 -386 454 -612 568 -88 44 -217 89 -321 111
-118 25 -372 25 -489 0 -267 -57 -504 -180 -776 -400 -209 -170 -429 -306
-674 -416 -201 -91 -329 -113 -636 -112 -115 1 -298 6 -405 11 -898 48 -1529
-56 -2260 -373 -263 -115 -401 -205 -548 -361 -176 -186 -285 -405 -343 -692
-27 -133 -37 -473 -20 -646 60 -589 332 -1385 786 -2302 451 -908 912 -1461
1417 -1700 208 -98 383 -138 608 -138 300 -1 527 66 894 264 522 281 909 616
1270 1096 68 92 212 307 458 686 168 260 296 407 427 492 66 43 278 138 436
197 138 51 301 97 560 159 288 68 429 112 571 179 186 87 324 190 425 317 190
239 247 539 170 904 -39 188 -116 398 -262 718 -49 107 -88 195 -87 196 2 1
451 209 998 462 976 453 1982 919 3696 1714 l861 400 245 -96 c134 -52 252
-95 262 -95 9 0 26 5 36 10 15 8 21 6 30 -10 10 -18 5 -26 -39 -66 -85 -76
-89 -142 -11 -165 99 -30 297 57 346 152 35 69 4 109 -85 109 -33 0 -71 -4
-85 -10 -23 -8 -26 -7 -32 16 -4 14 -5 26 -3 28 2 2 106 51 232 109 215 100
228 104 238 85 9 -16 3 -27 -45 -73 -50 -47 -56 -58 -56 -94 0 -35 4 -43 32
-57 75 -39 253 19 337 111 36 39 42 51 39 83 -4 52 -32 65 -130 58 -71 -5 -77
-4 -83 15 -4 11 -5 22 -3 23 13 9 470 216 477 216 5 0 13 -9 16 -20 5 -15 0
-26 -17 -40 -13 -11 -26 -19 -30 -20 -4 0 -19 -17 -33 -37 -32 -48 -33 -96 -3
-117 72 -51 297 25 364 123 68 100 -18 159 -167 115 -20 -5 -33 34 -18 52 6 8
6 118 -1 325 -5 173 -10 355 -11 404 l0 90 -299 270 c-165 149 -307 270 -316
270 -8 0 -20 8 -25 17 -8 14 2 28 46 71 46 45 55 59 55 89 0 52 -24 68 -101
67 -35 0 -84 -7 -109 -15z"/>
<path d="M12060 7321 l-325 -147 -3 -197 -2 -197 -215 0 -215 0 0 -320 0 -320
215 0 215 0 0 -679 c0 -420 4 -709 11 -758 16 -123 47 -230 96 -333 37 -76 60
-109 117 -166 127 -127 279 -181 539 -191 l147 -6 0 295 0 296 -44 6 c-67 10
-119 53 -158 133 l-33 68 -3 662 -3 663 211 0 210 0 0 315 0 315 -210 0 -210
0 0 355 c0 195 -3 355 -7 354 -5 0 -154 -67 -333 -148z"/>
<path d="M10833 6787 l-323 -142 0 -99 0 -99 53 7 c28 3 177 6 330 6 l277 0 0
235 c0 129 -3 235 -7 234 -5 -1 -153 -65 -330 -142z"/>
<path d="M9993 6427 l-323 -141 0 -642 c0 -602 -1 -646 -19 -703 -36 -117
-112 -205 -217 -253 -40 -19 -67 -23 -144 -23 -88 0 -101 3 -162 33 -106 52
-180 152 -207 280 -7 35 -11 213 -11 513 0 434 -1 460 -17 455 -10 -3 -160
-69 -333 -145 l-315 -140 0 -428 c1 -491 5 -526 90 -698 161 -325 511 -515
950 -515 519 0 905 262 1027 695 23 80 23 82 26 968 2 718 0 887 -10 886 -7 0
-158 -64 -335 -142z"/>
<path d="M16170 6433 c-100 -10 -235 -37 -315 -64 -253 -84 -408 -257 -467
-519 -21 -92 -21 -122 -25 -957 l-4 -863 335 0 335 0 3 723 c3 650 5 727 21
773 49 147 159 220 360 239 l77 7 0 334 0 334 -142 -2 c-79 0 -159 -3 -178 -5z"/>
<path d="M13800 6339 c-424 -51 -803 -312 -965 -661 -99 -214 -129 -486 -81
-714 99 -466 481 -827 961 -910 127 -22 410 -14 513 14 41 11 76 22 78 25 2 2
3 166 2 364 l-3 360 -86 -51 c-114 -69 -182 -90 -289 -89 -146 1 -303 67 -402
170 -84 86 -138 221 -138 340 0 118 58 249 155 352 254 269 698 211 850 -111
66 -140 65 -129 65 -795 l0 -603 330 0 330 0 0 634 c0 683 -2 717 -55 883
-122 387 -476 690 -905 777 -99 20 -267 27 -360 15z"/>
<path d="M10510 5165 l0 -1125 330 0 330 0 0 1125 0 1125 -330 0 -330 0 0
-1125z"/>
<path d="M13890 3690 l0 -140 -205 0 -205 0 0 -320 0 -320 204 0 205 0 4 -772
c3 -838 4 -840 62 -1042 99 -343 283 -475 688 -493 l127 -6 0 296 c0 292 0
297 -20 297 -59 0 -137 56 -172 124 -45 89 -48 128 -48 874 l0 702 210 0 210
0 0 320 0 320 -210 0 -210 0 0 150 0 150 -320 0 -320 0 0 -140z"/>
<path d="M8006 3649 c-911 -80 -1589 -762 -1667 -1675 -32 -378 83 -803 309
-1144 180 -271 413 -479 697 -619 316 -157 654 -216 1030 -181 298 28 561 128
814 308 96 68 331 288 331 308 0 13 -409 361 -435 370 -10 4 -41 -18 -88 -62
-207 -197 -400 -295 -654 -333 -104 -16 -306 -13 -409 4 -583 102 -1014 620
-1014 1219 0 399 158 725 459 951 200 151 487 261 734 281 86 8 259 -10 361
-36 170 -43 331 -132 507 -280 56 -47 107 -89 114 -94 8 -6 86 47 238 163 125
95 227 176 227 180 0 12 -178 182 -255 243 -287 228 -631 365 -995 398 -128
11 -173 11 -304 -1z"/>
<path d="M12358 3044 c-355 -55 -642 -271 -753 -568 -60 -159 -58 -129 -62
-1028 l-4 -828 325 0 326 0 0 690 c0 468 4 706 11 742 26 122 98 221 200 275
49 25 64 28 154 28 90 0 105 -3 153 -28 70 -37 132 -100 165 -168 55 -112 57
-135 57 -866 l0 -673 320 0 320 0 0 799 c0 684 -2 811 -16 881 -54 286 -213
500 -470 632 -216 111 -476 151 -726 112z"/>
<path d="M10167 3040 c-154 -25 -352 -95 -492 -177 -291 -168 -463 -410 -537
-756 -17 -82 -21 -136 -22 -277 0 -214 23 -350 86 -510 69 -176 257 -391 460
-528 127 -86 313 -159 465 -181 279 -42 598 41 893 230 85 54 193 161 263 260
52 74 157 270 157 294 0 13 -41 15 -314 15 l-314 0 -59 -57 c-144 -140 -323
-199 -524 -173 -55 7 -99 15 -97 19 2 3 278 276 613 606 336 330 611 607 613
615 4 25 -120 180 -225 280 -240 231 -479 337 -773 345 -74 2 -161 0 -193 -5z
m267 -640 l30 -11 -329 -329 c-181 -181 -332 -327 -336 -325 -13 8 -29 94 -29
152 1 226 195 457 436 518 65 16 180 14 228 -5z"/>
<path d="M15895 3035 c-111 -21 -251 -67 -363 -120 -436 -207 -662 -579 -662
-1091 0 -272 65 -512 184 -679 65 -91 188 -218 280 -290 372 -289 801 -332
1244 -125 278 130 435 285 576 567 25 51 46 97 46 103 0 7 -108 10 -316 10
l-317 0 -66 -63 c-37 -34 -87 -75 -112 -89 -64 -38 -182 -76 -260 -84 -65 -6
-239 11 -239 25 0 3 258 259 573 568 314 309 592 582 616 607 l44 44 -24 39
c-34 55 -158 200 -220 258 -170 158 -334 251 -544 305 -107 28 -327 36 -440
15z m265 -626 c27 -6 50 -14 50 -17 0 -4 -148 -155 -329 -336 l-329 -329 -12
55 c-50 224 77 465 305 577 115 57 212 72 315 50z"/>
<path d="M18285 3013 c-90 -8 -245 -37 -320 -60 -144 -45 -250 -107 -345 -203
-94 -93 -140 -171 -182 -310 l-22 -75 -4 -872 -3 -873 320 0 320 0 3 713 4
712 23 70 c45 136 155 210 331 223 l85 7 3 338 2 337 -87 -2 c-49 -1 -106 -3
-128 -5z"/>
<path d="M18844 2989 c-67 -19 -127 -71 -162 -139 -32 -61 -34 -70 -30 -140 3
-49 12 -89 25 -115 86 -165 315 -200 446 -69 53 53 71 98 75 187 4 68 1 84
-23 132 -59 122 -199 182 -331 144z m181 -53 c147 -68 185 -258 75 -373 -11
-13 -23 -23 -25 -23 -6 0 -60 108 -69 137 -5 14 1 33 20 60 21 31 25 46 21 81
-3 24 -12 51 -22 62 -20 22 -95 40 -165 40 l-50 0 0 -195 0 -195 40 0 40 0 0
80 c0 59 3 80 13 80 7 0 31 -36 52 -80 38 -77 40 -80 75 -80 l35 -1 -40 -21
c-55 -29 -145 -29 -201 0 -177 91 -178 338 -2 426 67 34 135 34 203 2z"/>
</g>
</svg>
