<?xml version="1.0" standalone="no"?>
<!DOCTYPE svg PUBLIC "-//W3C//DTD SVG 20010904//EN"
 "http://www.w3.org/TR/2001/REC-SVG-20010904/DTD/svg10.dtd">
<svg version="1.0" xmlns="http://www.w3.org/2000/svg"
 width="940.000000pt" height="788.000000pt" viewBox="0 0 940.000000 788.000000"
 preserveAspectRatio="xMidYMid meet">
<metadata>
Created by potrace 1.16, written by Peter Selinger 2001-2019
</metadata>
<g transform="translate(0.000000,788.000000) scale(0.100000,-0.100000)"
fill="#000000" stroke="none">
<path d="M4577 7039 c-16 -12 -36 -19 -47 -16 -11 3 -18 2 -15 -3 3 -4 -10
-21 -28 -36 l-32 -29 3 -120 c1 -66 5 -155 8 -199 4 -46 3 -76 -3 -73 -12 7
-4 -64 10 -81 12 -15 1 -175 -13 -180 -13 -5 -13 -32 -1 -32 5 0 12 6 14 13 3
7 6 5 6 -5 1 -9 -6 -21 -15 -26 -15 -8 -15 -10 1 -15 11 -5 14 -13 10 -26 -3
-11 -1 -22 5 -26 5 -3 10 -19 10 -34 0 -16 7 -34 15 -41 8 -7 20 -39 27 -71 7
-32 16 -59 20 -59 12 0 10 198 -2 205 -5 3 -10 15 -10 26 0 14 7 19 26 19 30
0 28 23 -2 29 -30 5 -34 20 -34 106 0 44 -2 130 -5 192 -5 106 -4 112 15 118
11 4 33 4 49 0 l29 -6 6 -102 c2 -56 5 -111 4 -122 0 -11 5 -82 12 -158 7 -76
9 -141 6 -144 -3 -4 -6 7 -6 22 0 27 -1 28 -16 13 -23 -23 -8 -191 18 -196 11
-2 18 5 21 20 l4 23 2 -22 c1 -17 7 -23 25 -23 13 0 27 6 29 13 4 10 6 10 6 0
1 -9 20 -13 60 -13 60 0 71 7 71 46 0 8 9 33 19 55 28 58 30 79 36 491 l6 378
-34 35 c-19 19 -43 35 -54 35 -11 0 -28 9 -38 20 -22 24 -62 26 -87 3 -17 -15
-19 -15 -36 0 -25 23 -61 21 -95 -4z m272 -368 c10 -7 12 -32 8 -122 -3 -63
-6 -153 -6 -201 0 -48 -5 -96 -10 -107 -8 -14 -8 -20 0 -23 8 -3 8 -11 -2 -27
-12 -19 -20 -22 -51 -18 -22 3 -39 0 -42 -7 -3 -6 -4 18 -1 54 5 73 18 385 17
415 -1 10 4 25 10 32 12 15 56 17 77 4z"/>
<path d="M4734 5486 c-3 -7 -4 -46 -2 -87 2 -61 6 -74 21 -77 14 -3 17 4 18
35 1 39 3 38 13 -9 4 -19 13 -28 26 -28 18 0 20 7 20 78 0 42 -4 82 -8 88 -10
15 -82 15 -88 0z"/>
<path d="M4300 3912 c-25 -7 -65 -21 -90 -30 -25 -9 -49 -17 -55 -17 -5 0 -14
-6 -18 -12 -4 -7 -13 -13 -18 -13 -6 0 -24 -9 -40 -21 -16 -11 -29 -17 -29
-14 0 4 -27 -21 -61 -56 -56 -58 -123 -150 -137 -188 -3 -9 -17 -26 -31 -38
-26 -21 -26 -24 -28 -162 -1 -78 2 -141 7 -141 5 0 8 -12 8 -27 0 -16 7 -45
16 -67 9 -21 13 -42 10 -47 -3 -5 -1 -9 5 -9 6 0 16 -19 23 -41 7 -24 20 -44
29 -46 20 -6 44 -72 54 -150 8 -59 -15 -166 -43 -196 -9 -11 -16 -22 -16 -26
3 -12 -37 -81 -47 -81 -6 0 -7 -4 -4 -10 3 -5 2 -10 -4 -10 -6 0 -13 -11 -17
-25 -3 -14 -10 -25 -14 -25 -5 0 -14 -16 -21 -34 -7 -19 -16 -33 -21 -30 -4 3
-10 -7 -14 -21 -3 -14 -11 -25 -17 -25 -6 0 -7 -3 -4 -7 4 -3 -5 -21 -19 -40
-14 -18 -22 -33 -19 -33 4 0 -3 -13 -15 -29 -57 -81 -146 -299 -156 -381 -18
-159 -11 -274 25 -397 5 -18 7 -33 3 -33 -4 0 -2 -4 4 -8 12 -8 49 -84 46 -94
-1 -5 2 -8 8 -8 5 0 17 -14 25 -30 17 -34 34 -56 80 -105 17 -18 37 -41 46
-51 28 -34 103 -94 116 -94 7 0 13 -3 13 -7 0 -8 86 -55 173 -94 114 -51 314
-83 519 -84 64 0 112 -3 106 -6 -15 -10 0 -29 23 -29 11 0 23 8 27 18 6 15 22
17 114 18 71 1 105 -2 101 -9 -7 -12 171 -1 196 12 9 5 39 11 66 14 58 6 135
35 135 51 0 11 27 26 88 47 17 6 32 15 32 20 0 5 7 9 16 9 14 0 46 19 99 60
44 34 153 147 170 178 11 17 23 32 27 32 4 0 8 6 8 13 0 7 9 23 20 35 11 12
20 28 20 37 0 8 5 15 10 15 6 0 10 8 10 17 0 9 8 42 19 72 30 90 44 237 31
328 -13 95 -29 171 -40 198 -4 11 -18 47 -31 80 -13 33 -31 73 -40 89 -10 16
-16 33 -13 38 3 4 1 8 -5 8 -6 0 -17 14 -26 30 -9 17 -12 30 -8 30 4 0 -1 6
-10 13 -9 6 -28 37 -43 67 -15 30 -31 59 -36 65 -49 60 -164 262 -154 272 3 3
-1 15 -9 27 -9 11 -15 42 -15 71 0 51 42 211 60 229 6 6 10 18 10 28 0 10 4
18 10 18 5 0 9 3 8 8 -3 14 14 82 21 78 3 -2 7 29 9 70 3 65 0 79 -24 122 -21
37 -38 54 -71 68 -23 10 -43 22 -43 25 0 3 -33 2 -72 -3 -40 -4 -79 -6 -86 -3
-7 3 -10 0 -7 -5 5 -9 -26 -14 -87 -14 -9 0 -15 -3 -12 -8 3 -4 -22 -8 -56 -8
-44 0 -59 3 -54 12 4 7 3 8 -5 4 -22 -14 -138 84 -125 106 5 7 3 8 -6 3 -10
-6 -12 -4 -7 8 4 10 2 16 -6 14 -6 -1 -14 13 -17 32 -3 19 -11 36 -17 39 -19
6 -17 -67 2 -74 8 -4 15 -10 15 -15 0 -5 -7 -9 -15 -9 -8 0 -15 -8 -16 -17 0
-14 -2 -13 -9 5 -6 12 -18 22 -30 22 -17 0 -20 -6 -20 -40 0 -36 3 -40 24 -40
13 0 27 6 29 13 4 10 6 10 6 0 1 -17 31 -17 31 0 0 8 20 -6 45 -29 29 -29 62
-48 96 -59 66 -19 71 -19 171 4 179 41 236 36 300 -29 35 -34 38 -42 38 -93 0
-41 -12 -86 -46 -177 -51 -135 -51 -137 -67 -236 -16 -106 5 -171 109 -339 46
-75 84 -138 84 -140 0 -3 15 -28 34 -57 137 -216 196 -392 196 -582 0 -196
-58 -348 -185 -494 -108 -124 -230 -203 -400 -260 -157 -52 -209 -57 -580 -57
-316 1 -347 2 -445 23 -207 46 -348 118 -475 246 -148 149 -220 292 -233 464
-18 254 37 430 220 704 21 31 38 59 38 62 0 4 23 41 50 84 66 101 96 163 116
241 21 85 8 176 -47 319 -77 199 -81 213 -81 302 -2 184 86 334 266 454 93 61
198 93 326 98 l75 3 3 -32 c5 -49 22 -40 22 11 0 35 -4 46 -19 51 -31 9 -162
2 -211 -13z"/>
<path d="M4403 1912 l-293 -2 0 -89 0 -89 84 -7 c46 -4 140 -6 210 -4 69 2
126 1 126 -3 0 -12 198 -9 205 2 4 7 13 7 25 0 11 -6 36 -8 57 -5 65 10 142
13 321 14 l172 1 0 90 0 90 -27 1 c-69 3 -615 4 -880 1z"/>
</g>
</svg>
