<?xml version="1.0" standalone="no"?>
<!DOCTYPE svg PUBLIC "-//W3C//DTD SVG 20010904//EN"
 "http://www.w3.org/TR/2001/REC-SVG-20010904/DTD/svg10.dtd">
<svg version="1.0" xmlns="http://www.w3.org/2000/svg"
 width="940.000000pt" height="788.000000pt" viewBox="0 0 940.000000 788.000000"
 preserveAspectRatio="xMidYMid meet">
<metadata>
Created by potrace 1.16, written by Peter Selinger 2001-2019
</metadata>
<g transform="translate(0.000000,788.000000) scale(0.100000,-0.100000)"
fill="#000000" stroke="none">
<path d="M4568 5419 c-24 -14 -21 -82 8 -140 18 -35 24 -63 24 -113 0 -72 19
-93 21 -23 2 29 3 34 6 15 5 -31 19 -37 26 -10 4 16 5 16 6 0 1 -14 10 -18 41
-18 31 0 40 4 41 18 0 14 2 14 9 -3 6 -15 9 -4 12 40 3 43 4 33 5 -35 0 -61
-2 -82 -7 -60 l-7 35 -5 -35 -5 -35 -1 33 c-2 31 -4 33 -39 30 -21 -1 -41 -7
-45 -12 -5 -7 -8 -7 -8 2 0 6 -4 12 -10 12 -6 0 -10 -26 -10 -58 l0 -59 75 4
c46 2 75 -1 75 -7 0 -6 -31 -10 -75 -10 l-75 0 0 -50 0 -50 54 0 c34 0 56 5
59 13 4 10 6 10 6 0 2 -30 21 -9 23 25 1 20 5 -3 9 -53 5 -73 6 -59 5 68 -1
86 2 157 6 157 4 0 8 30 8 68 0 45 7 81 20 111 12 26 20 65 20 97 0 47 -2 54
-20 54 -11 0 -20 -4 -20 -10 0 -5 -7 -10 -15 -10 -8 0 -15 -4 -15 -10 0 -5 7
-7 16 -3 14 5 16 1 11 -28 -4 -19 -9 -53 -13 -76 l-7 -43 -78 0 c-56 0 -79 4
-80 13 0 6 -3 21 -5 32 -2 11 -7 43 -10 70 -7 58 -13 67 -36 54z"/>
<path d="M4617 4758 c-8 -4 -11 -22 -9 -47 l4 -41 79 0 79 0 1 38 2 37 7 -40
7 -40 2 50 1 50 -81 0 c-44 0 -86 -3 -92 -7z"/>
<path d="M4606 4623 c-3 -21 -6 -152 -6 -290 l0 -253 100 0 100 0 0 105 0 105
-95 0 c-52 0 -95 3 -95 8 0 4 32 5 71 4 103 -5 119 1 119 43 l0 35 -97 2 -98
2 85 3 c81 4 86 5 98 30 23 50 19 53 -75 52 -121 -1 -127 4 -13 10 l95 6 0 37
0 38 -95 2 -95 2 95 5 95 6 -1 28 c-1 15 -2 34 -3 42 -1 12 -18 15 -90 15
l-88 0 -7 -37z"/>
<path d="M4600 4006 l0 -63 -112 -2 c-107 -1 -115 -3 -184 -38 -102 -51 -141
-104 -166 -228 -8 -40 -6 -69 10 -146 11 -56 20 -141 21 -207 2 -101 0 -115
-24 -161 -14 -28 -23 -51 -20 -51 3 0 1 -6 -5 -12 -27 -30 -141 -266 -168
-348 -32 -94 -31 -256 2 -358 12 -40 28 -78 34 -84 7 -7 12 -17 12 -23 0 -21
100 -124 146 -149 61 -34 143 -61 234 -78 106 -19 667 -18 730 1 93 27 133 44
151 62 11 11 22 19 26 19 13 0 100 97 118 131 9 19 28 68 42 109 22 66 24 88
21 185 -5 144 -26 207 -144 440 -14 28 -32 64 -39 80 -7 17 -23 51 -34 76 -17
36 -21 65 -21 140 0 52 5 110 10 129 17 56 14 190 -3 231 -16 36 -65 69 -101
69 -9 0 -58 -16 -107 -35 -115 -44 -149 -45 -183 -5 -37 45 -46 90 -46 243 l0
137 -100 0 -100 0 0 -64z m-20 -401 c-11 -13 -10 -14 4 -9 21 8 20 -4 -1 -29
-13 -15 -14 -18 -3 -12 8 4 3 -5 -12 -21 -15 -16 -34 -45 -42 -64 -8 -19 -15
-28 -16 -20 0 8 9 30 20 48 12 19 16 30 9 27 -21 -14 -49 -90 -49 -135 0 -67
45 -156 91 -181 13 -6 17 -5 15 5 -3 20 -27 47 -36 41 -5 -3 -11 -1 -14 4 -3
5 8 8 25 7 16 -1 33 2 36 7 3 6 -7 8 -25 5 -24 -3 -33 0 -37 12 -7 24 8 62 39
95 14 15 26 36 26 46 0 11 3 18 8 18 33 -5 62 3 63 19 1 16 2 16 6 0 5 -22 23
-24 23 -3 0 8 5 15 10 15 6 0 10 -7 10 -15 0 -11 13 -15 54 -15 49 0 55 -2 59
-22 4 -20 4 -20 6 4 1 24 -3 27 -36 31 -35 3 -34 4 9 5 56 2 68 -12 68 -85 0
-26 4 -53 8 -60 4 -6 7 22 7 62 0 40 -3 69 -6 63 -3 -5 -9 0 -12 11 -3 12 -1
19 4 15 14 -9 10 10 -7 32 -8 10 -12 12 -8 4 4 -8 -7 -2 -24 14 -18 16 -30 32
-27 34 3 3 -1 12 -8 20 -9 12 -9 16 1 19 6 3 9 10 5 16 -4 7 1 6 10 -2 10 -8
15 -16 12 -19 -7 -7 15 -32 27 -32 6 0 5 8 -3 18 -7 9 0 5 15 -10 16 -14 29
-34 30 -45 1 -10 8 -37 15 -61 14 -48 11 -183 -3 -174 -5 3 -7 -2 -3 -11 4
-10 2 -16 -5 -14 -6 1 -13 -4 -16 -12 -3 -10 0 -11 9 -5 12 6 12 5 0 -9 -8
-10 -16 -15 -19 -12 -8 7 -52 -36 -47 -46 3 -4 0 -11 -6 -15 -8 -4 -9 -3 -5 4
8 14 4 15 -18 6 -9 -3 -13 -11 -9 -17 3 -6 1 -7 -6 -3 -6 4 -26 4 -44 0 -28
-6 -30 -8 -12 -15 17 -7 16 -8 -8 -8 -16 -1 -26 3 -22 9 3 6 -1 10 -10 10 -9
0 -13 -5 -10 -11 5 -7 -5 -9 -26 -7 -21 2 -33 8 -31 16 3 15 -10 16 -26 0 -9
-9 -12 -7 -12 8 0 19 -43 50 -63 46 -4 -1 -6 1 -5 5 1 5 -11 31 -27 58 -26 44
-30 60 -30 127 0 42 -3 71 -7 65 -6 -9 -8 -8 -8 1 0 26 40 90 79 125 42 38 64
49 41 22z"/>
</g>
</svg>
