<?xml version="1.0" standalone="no"?>
<!DOCTYPE svg PUBLIC "-//W3C//DTD SVG 20010904//EN"
 "http://www.w3.org/TR/2001/REC-SVG-20010904/DTD/svg10.dtd">
<svg version="1.0" xmlns="http://www.w3.org/2000/svg"
 width="940.000000pt" height="788.000000pt" viewBox="0 0 940.000000 788.000000"
 preserveAspectRatio="xMidYMid meet">
<metadata>
Created by potrace 1.16, written by Peter Selinger 2001-2019
</metadata>
<g transform="translate(0.000000,788.000000) scale(0.100000,-0.100000)"
fill="#000000" stroke="none">
<path d="M4967 7083 c-18 -5 -17 -10 4 -93 5 -19 12 -72 15 -117 l7 -83 38 0
c22 0 39 -4 39 -8 0 -4 -16 -6 -35 -4 -22 3 -35 0 -35 -7 0 -7 9 -9 24 -5 13
3 27 1 30 -5 4 -7 1 -8 -8 -5 -9 3 -16 1 -16 -5 0 -15 40 -14 40 2 0 6 5 4 11
-6 9 -14 7 -22 -8 -32 -22 -17 -30 -18 -38 -5 -16 27 -25 6 -19 -47 8 -66 10
-71 26 -55 15 15 38 -9 38 -41 0 -21 -4 -24 -27 -19 l-28 6 25 7 c24 7 24 7 3
8 -13 1 -23 6 -23 13 0 23 -15 -4 -15 -28 -1 -19 3 -23 18 -18 10 3 23 1 30
-4 7 -6 16 -10 22 -9 19 4 15 -28 -5 -41 -23 -14 -56 0 -64 28 -2 8 -4 -4 -5
-28 -1 -33 5 -49 25 -70 29 -31 53 -72 57 -101 2 -11 6 -23 9 -27 7 -7 12
-617 13 -1469 0 -568 -2 -612 -18 -643 -10 -19 -17 -36 -15 -38 3 -2 29 2 60
8 45 9 63 9 100 -4 l46 -14 16 45 16 46 -5 -45 c-2 -25 -7 -54 -11 -64 -6 -15
-2 -17 22 -14 l29 3 0 155 c0 214 -14 794 -19 811 -4 12 -17 455 -21 704 -1
44 -5 190 -9 325 -7 209 -5 250 8 281 8 19 22 41 30 49 22 17 20 63 -3 101
-13 22 -17 38 -11 53 9 26 1 164 -11 172 -12 7 -11 71 1 79 6 3 10 23 11 43 0
20 4 46 8 57 5 11 4 31 -1 45 -8 24 -13 25 -72 25 -34 0 -76 6 -92 14 -83 38
-93 45 -87 55 3 6 3 8 -2 4 -4 -4 -13 -4 -19 1 -14 12 -76 21 -99 14z m209
-873 c20 -123 29 -535 29 -1302 0 -569 -1 -619 -17 -634 -16 -16 -18 -16 -28
11 -8 20 -12 329 -16 979 -2 523 -6 977 -8 1010 -7 94 22 49 40 -64z m79 -155
c3 -60 10 -319 15 -575 6 -256 15 -613 20 -793 6 -202 6 -335 1 -345 -8 -15
-10 -15 -15 -2 -18 54 -64 1736 -50 1839 7 56 7 56 15 21 5 -19 11 -84 14
-145z"/>
<path d="M4420 6526 c-14 -7 -41 -23 -60 -34 -19 -12 -42 -25 -50 -28 -8 -3
-30 -13 -48 -21 -21 -9 -55 -13 -90 -11 l-57 3 3 -30 c1 -16 3 -104 4 -195 2
-130 -2 -183 -16 -248 -19 -82 -19 -83 1 -105 32 -35 40 -57 49 -132 8 -68 8
-69 15 -30 4 22 8 71 8 109 1 38 4 67 7 63 3 -3 1 -140 -5 -304 -7 -164 -18
-595 -27 -958 -8 -363 -17 -720 -20 -792 l-6 -133 25 0 c20 0 27 7 35 38 7 29
8 15 6 -63 -2 -55 -4 -131 -4 -169 0 -38 -3 -66 -7 -63 -3 4 -5 35 -4 69 1 41
-3 64 -11 70 -10 6 -10 8 0 8 8 0 12 17 12 50 0 43 -3 50 -19 50 -11 0 -22 -4
-25 -9 -3 -4 -8 -120 -11 -257 -4 -137 -9 -345 -12 -461 -2 -117 -3 -213 -1
-214 1 0 31 -3 66 -5 l62 -5 0 231 c0 126 3 230 8 230 4 0 6 -103 4 -230 l-3
-230 71 0 70 0 0 -71 0 -70 -107 2 -108 2 -3 -34 c-2 -19 1 -46 7 -59 9 -25 9
-25 17 8 4 22 11 31 20 28 8 -3 14 1 14 9 0 8 5 15 10 15 6 0 10 -19 11 -42
l1 -43 10 33 c7 21 17 32 29 32 11 0 19 6 20 13 0 6 6 -1 13 -17 l13 -28 6 31
c6 30 8 31 62 31 l55 0 0 90 0 90 -44 0 c-26 0 -48 6 -56 14 -8 10 -12 69 -13
180 -1 92 -1 166 0 166 1 0 18 -31 38 -69 36 -68 58 -92 227 -243 76 -67 110
-131 128 -236 16 -95 -1 -208 -32 -218 -19 -6 -19 -7 8 -35 32 -33 40 -35 82
-14 27 14 31 22 38 72 10 83 -2 219 -26 290 -34 97 -83 158 -200 246 -185 138
-213 175 -226 299 -6 57 -10 68 -28 71 -13 3 -9 5 12 6 41 1 47 16 28 68 -8
23 -12 44 -9 47 4 3 1 6 -5 6 -7 0 -12 14 -12 30 0 17 -5 30 -12 30 -10 0 -13
73 -11 337 1 186 4 350 7 365 3 16 0 29 -7 32 -9 3 -9 5 1 5 15 1 17 122 1
138 -8 8 -8 13 0 17 14 9 14 133 0 142 -7 4 -7 9 -1 13 10 7 23 151 13 151 -3
0 -5 83 -3 185 2 116 -1 185 -7 185 -5 0 -12 -17 -14 -37 -2 -21 -4 24 -5 99
-2 121 -4 137 -19 141 -14 4 -12 5 5 6 21 1 22 -2 22 -99 0 -60 4 -100 10
-100 6 0 11 12 11 28 6 128 5 158 -5 164 -8 6 -7 8 1 8 8 0 12 30 12 100 1 67
-3 100 -10 100 -8 0 -8 4 0 13 6 8 10 60 10 131 0 134 11 168 82 246 36 40 40
50 37 88 -2 23 0 42 4 42 5 0 8 7 8 15 0 8 -5 15 -11 15 -9 0 -10 29 -6 102 4
83 9 105 24 116 17 12 17 14 1 23 -14 7 -15 15 -7 42 6 17 12 46 13 62 9 81
18 132 29 154 9 19 9 25 0 28 -7 3 -13 11 -13 19 0 18 -76 19 -110 0z m-136
-1375 l-7 -501 -24 0 c-14 0 -21 4 -18 10 3 6 13 10 20 10 10 0 14 11 13 34
-1 23 -6 33 -16 32 -8 0 -17 5 -19 12 -3 7 4 12 16 12 17 0 21 6 21 35 0 26
-4 35 -17 36 -17 1 -17 2 0 6 15 4 17 17 17 94 0 83 -1 89 -20 89 -11 0 -22
-6 -25 -12 -2 -7 -6 -124 -9 -260 l-6 -248 25 0 c24 0 25 3 25 59 0 33 5 63
10 66 7 4 9 -18 6 -67 -2 -40 -4 -151 -5 -247 -1 -96 -3 -172 -6 -169 -3 3 -5
82 -6 177 l0 171 -24 0 -25 0 -1 -167 c-1 -93 -5 -242 -9 -333 -6 -149 -7
-155 -8 -57 -2 103 -3 107 -24 108 l-23 2 23 4 c21 4 22 9 22 82 0 43 3 106 6
140 6 55 5 61 -12 62 -17 1 -17 2 -1 6 14 4 17 16 17 79 0 63 -3 74 -17 75
-17 1 -17 2 0 6 14 4 17 16 17 79 0 64 -2 74 -17 74 -17 1 -17 1 0 14 14 11
17 27 15 90 -2 42 -7 76 -13 76 -5 0 -4 4 4 9 9 6 11 18 7 35 -4 15 -2 26 4
26 6 0 10 26 10 60 0 50 -3 60 -17 60 -17 1 -17 1 0 11 11 6 17 23 18 47 1 40
16 99 18 70 1 -11 6 -15 16 -12 10 4 15 0 15 -11 0 -11 -5 -15 -15 -11 -12 4
-15 -3 -15 -29 0 -19 -1 -38 -2 -42 -2 -5 7 -9 20 -11 21 -3 22 -1 22 92 0 70
-3 96 -12 96 -10 0 -10 2 -1 8 8 5 14 74 19 220 4 117 9 211 11 208 2 -2 1
-229 -3 -505z"/>
<path d="M5061 4061 c-6 -11 -11 -37 -11 -58 0 -57 -49 -126 -135 -190 -166
-124 -164 -122 -210 -213 -50 -99 -68 -192 -60 -298 l7 -83 53 -40 c88 -66
113 -176 65 -280 -22 -45 -40 -63 -40 -39 0 6 -11 15 -25 22 -13 6 -22 15 -18
21 3 6 1 7 -5 3 -6 -3 -15 2 -21 11 -6 10 -11 14 -11 9 0 -5 -10 -1 -21 10
-22 19 -22 19 -14 -6 4 -14 21 -36 39 -49 98 -77 167 -186 187 -296 6 -34 9
-110 6 -172 -4 -103 -3 -113 13 -113 26 0 30 19 30 134 0 132 -12 195 -53 279
l-34 68 27 57 c57 122 73 312 33 388 -51 98 -66 200 -37 257 26 49 41 60 74
53 37 -7 68 3 48 15 -8 6 5 9 37 10 28 1 64 5 80 10 l30 8 -35 -1 c-53 -1 -70
1 -70 10 0 4 15 6 33 4 26 -3 34 0 34 12 0 9 -7 16 -16 16 -9 0 -3 7 13 15 15
8 36 15 46 15 10 0 20 7 24 15 3 9 17 15 33 14 15 0 22 -3 16 -6 -27 -10 15
-33 61 -33 39 0 46 -3 46 -20 0 -11 -7 -20 -15 -20 -8 0 -15 -4 -15 -10 0 -10
19 -14 55 -10 16 1 18 -1 8 -11 -21 -21 -15 -29 24 -29 20 0 33 -3 30 -7 -4
-3 1 -12 10 -18 15 -11 15 -15 3 -30 -8 -10 -23 -15 -37 -12 -13 2 -23 0 -23
-4 0 -5 8 -9 18 -9 14 0 15 -2 2 -10 -12 -8 -10 -10 10 -10 20 0 22 -2 10 -10
-12 -8 -9 -10 12 -10 18 0 29 -7 33 -20 3 -11 13 -20 21 -20 8 0 12 -5 9 -10
-3 -6 -17 -7 -30 -4 -14 4 -26 0 -32 -8 -4 -8 -21 -14 -37 -14 -16 1 -31 -5
-33 -11 -3 -9 7 -13 32 -13 29 0 36 -3 32 -15 -4 -8 -2 -17 3 -20 13 -8 8 -45
-6 -45 -6 0 -11 -7 -10 -17 1 -10 -10 -19 -31 -25 -43 -11 -50 -26 -10 -20 40
6 31 -6 -20 -23 l-38 -14 38 -1 c22 0 37 5 37 12 0 9 3 9 12 0 8 -8 8 -15 0
-25 -7 -8 -8 -17 -4 -21 4 -4 -7 -5 -23 -1 -21 5 -26 4 -16 -3 11 -8 10 -11
-5 -15 -18 -5 -18 -6 1 -5 44 1 55 -3 55 -17 0 -9 -8 -18 -17 -21 -59 -19 -77
-44 -32 -44 10 0 19 -4 19 -10 0 -5 -14 -10 -31 -10 -17 0 -28 -4 -24 -10 4
-6 -13 -10 -42 -11 -36 0 -43 -3 -28 -9 11 -5 36 -9 55 -10 29 -1 32 -3 15
-10 -16 -7 -12 -9 18 -7 24 1 42 -4 47 -13 8 -12 0 -16 -43 -21 -52 -6 -52 -6
18 -8 50 -1 66 -4 55 -11 -8 -6 -27 -7 -42 -4 -33 7 -57 -4 -37 -17 11 -7 9
-9 -6 -10 -17 -1 -16 -2 5 -9 17 -5 19 -8 8 -9 -30 -2 -20 -16 12 -17 16 -1
27 3 24 7 -3 5 0 9 6 9 7 0 10 -7 6 -15 -3 -9 0 -15 9 -15 8 0 15 -5 15 -11 0
-5 5 -7 10 -4 6 3 10 1 10 -4 0 -16 -36 -13 -54 4 -11 12 -21 13 -41 5 -14 -5
-50 -11 -78 -11 -57 -1 -130 -16 -89 -18 31 -1 28 -19 -5 -24 -16 -3 -2 -3 30
-2 68 4 68 -6 -1 -15 -46 -6 -45 -6 31 -14 70 -8 78 -11 74 -27 -3 -11 2 -23
11 -28 15 -9 15 -10 -3 -16 -47 -15 -69 -28 -57 -32 6 -3 10 -9 6 -14 -9 -15
-22 -10 -27 9 -4 16 -5 16 -6 0 -1 -13 -10 -18 -31 -18 -16 0 -30 -5 -30 -11
0 -6 -15 -10 -32 -9 -52 3 -68 1 -68 -9 0 -6 19 -12 43 -14 l42 -4 -45 -1
c-38 -2 -46 -5 -47 -22 -1 -15 4 -20 25 -20 24 -1 25 -2 9 -11 -10 -6 -25 -8
-33 -5 -13 5 -20 -18 -15 -48 1 -4 -3 -14 -9 -20 -5 -7 -7 -16 -3 -19 3 -4 -1
-7 -9 -7 -15 0 -47 -54 -99 -163 -19 -39 -26 -46 -43 -41 -12 4 -25 13 -29 20
-4 8 -15 14 -24 14 -14 0 -14 2 1 25 9 13 16 27 16 30 0 9 -41 5 -62 -6 -17
-9 -25 -6 -48 16 -35 34 -51 29 -86 -25 -24 -36 -29 -55 -32 -128 -3 -71 0
-97 17 -143 12 -31 30 -64 41 -74 19 -17 19 -18 -24 -46 -24 -15 -54 -41 -67
-58 -14 -19 -32 -31 -46 -31 -22 0 -22 3 -25 103 l-3 102 -57 3 -58 3 0 236
c0 130 -3 233 -7 229 -5 -4 -8 -108 -8 -231 0 -123 -3 -227 -7 -231 -5 -4 -20
-2 -34 5 -14 6 -31 8 -38 4 -10 -7 -29 -8 -128 -4 -25 1 -27 4 -31 54 l-3 52
-2 -52 -2 -53 -39 -6 c-28 -4 -38 -10 -34 -20 3 -8 -1 -14 -11 -14 -13 0 -16
-12 -16 -61 0 -34 4 -58 9 -54 5 3 12 1 16 -5 3 -5 -1 -10 -9 -10 -22 0 -20
-7 12 -35 39 -35 62 -33 62 5 0 23 -4 30 -20 30 -16 0 -20 7 -20 34 0 19 -6
37 -12 39 -10 4 -10 6 0 6 6 1 12 14 12 29 0 39 4 41 57 31 30 -6 50 -5 59 2
8 7 14 7 19 0 3 -7 46 -9 111 -7 l105 3 -3 -71 -3 -71 -65 -2 c-36 -1 -69 -3
-75 -4 -5 -1 -13 -1 -16 -1 -3 1 -36 3 -73 5 l-66 5 0 -33 c0 -18 6 -36 13
-38 10 -4 10 -6 0 -6 -7 -1 -13 -7 -13 -15 0 -12 -4 -13 -25 -2 -33 17 -83 9
-90 -16 -8 -22 8 -44 46 -64 39 -20 48 -18 46 11 -1 13 2 26 8 27 5 2 11 -17
13 -42 2 -25 7 -47 11 -50 4 -3 15 -16 24 -29 l16 -24 5 24 c3 13 7 40 9 59 1
21 8 -8 17 -72 l14 -108 112 0 112 0 4 -45 c3 -41 1 -46 -20 -52 -17 -4 -22
-11 -19 -23 7 -28 -31 -352 -44 -374 -10 -16 -8 -23 10 -37 27 -22 27 -54 -1
-73 -29 -21 -17 -21 110 0 130 20 226 54 286 99 17 12 37 20 43 18 17 -6 77
32 102 62 10 14 21 21 25 17 4 -3 4 1 1 10 -4 9 1 28 11 43 9 15 18 39 20 53
1 15 10 47 19 71 40 108 36 298 -10 450 -13 45 -27 86 -30 91 -3 5 -33 24 -66
41 -104 56 -159 145 -167 270 -4 62 -1 84 17 124 12 26 23 46 26 43 3 -3 -2
-20 -12 -38 -22 -46 -28 -118 -13 -180 13 -54 28 -68 56 -52 12 6 27 5 48 -6
59 -29 65 -32 108 -43 55 -14 196 -38 270 -45 42 -4 56 -9 52 -19 -11 -27 19
-28 43 -1 16 19 30 26 43 23 11 -3 18 -1 15 3 -3 5 7 8 22 8 30 -1 182 39 198
52 6 4 30 13 54 20 24 6 58 21 75 33 48 33 136 120 136 134 0 7 4 13 9 13 5 0
12 13 16 30 4 16 11 30 16 30 5 0 8 3 7 8 -1 4 4 34 11 67 33 147 -22 465 -80
465 -27 0 -31 -16 -14 -51 29 -56 65 -218 65 -293 0 -40 -7 -98 -15 -129 -15
-57 -57 -151 -73 -161 -4 -2 7 26 25 62 18 37 38 94 44 127 18 100 -2 245 -53
376 -18 48 -28 60 -63 77 -64 31 -101 68 -134 134 -52 102 -40 200 30 263 l34
30 -27 -30 c-66 -73 -78 -204 -23 -241 36 -24 46 -4 28 54 -16 50 -16 55 2
107 10 30 26 62 37 71 23 21 23 34 1 35 -11 0 -6 6 14 15 17 7 34 18 38 24 3
5 6 67 6 138 -1 219 -29 273 -228 439 -125 104 -148 136 -167 242 l-12 66
-117 3 c-107 2 -117 1 -126 -17z m-254 -2551 c34 -22 64 -44 68 -50 6 -9 -92
-179 -218 -380 -33 -52 -61 -96 -62 -98 -2 -2 -35 18 -75 43 -44 29 -69 52
-66 60 2 7 36 66 73 132 38 65 77 135 86 156 10 20 22 37 27 37 5 0 12 10 16
23 4 12 10 24 14 27 4 3 19 24 34 48 14 23 30 42 34 42 4 0 36 -18 69 -40z"/>
<path d="M5620 3704 c0 -3 20 -46 45 -95 54 -107 70 -192 62 -330 -3 -53 -4
-99 -1 -102 4 -3 17 -1 30 5 24 11 24 12 20 132 -2 67 -7 132 -10 146 -15 67
-17 80 -14 82 1 2 -7 17 -20 35 -12 17 -22 35 -22 40 0 10 -75 93 -84 93 -3 0
-6 -3 -6 -6z"/>
<path d="M4085 3198 c-2 -7 -9 -39 -15 -71 -13 -65 -35 -93 -130 -166 -124
-96 -219 -191 -244 -246 -14 -29 -26 -61 -26 -69 0 -9 -3 -16 -7 -16 -5 0 -8
-17 -9 -37 0 -21 -1 -87 -3 -148 -4 -177 -7 -164 42 -186 55 -25 67 -35 105
-88 29 -40 32 -51 32 -117 0 -40 -5 -76 -10 -79 -6 -4 -8 -10 -5 -15 15 -24
-85 -142 -150 -177 -16 -8 -34 -21 -40 -27 -13 -13 -41 -64 -48 -86 -2 -8 -5
-17 -6 -20 -28 -74 -40 -157 -37 -265 1 -66 5 -129 8 -140 28 -90 54 -139 105
-195 13 -14 23 -28 23 -31 0 -24 198 -143 270 -161 100 -26 117 -30 143 -33
15 -2 32 -7 37 -10 6 -3 10 -2 10 3 0 6 -7 12 -15 16 -21 8 -19 63 2 75 13 7
14 12 6 23 -6 7 -19 53 -29 101 -9 49 -23 95 -31 102 -14 15 -18 29 -5 21 5
-3 5 16 0 42 -5 26 -11 68 -15 95 -6 52 -13 56 -50 27 -14 -11 -21 -20 -14
-20 6 0 11 -4 11 -8 0 -5 -10 -8 -22 -7 -22 2 -55 -26 -89 -74 -43 -61 -152
-10 -206 98 -36 70 -40 104 -22 211 12 74 43 128 100 168 44 31 116 153 149
252 36 108 46 321 16 368 -4 7 -12 46 -17 85 -6 46 -15 76 -25 84 -13 9 -15
23 -10 65 12 105 20 138 37 138 5 0 9 7 9 15 0 8 6 15 14 15 7 0 19 7 26 15
21 25 30 0 30 -83 l0 -73 35 -15 c52 -22 75 -19 75 10 0 18 -6 25 -22 28 -18
2 -23 9 -23 31 1 15 -5 27 -12 27 -7 0 -13 5 -13 10 0 6 7 10 15 10 10 0 15
10 15 30 0 23 4 30 20 30 11 0 20 5 20 11 0 7 -20 10 -55 7 -30 -1 -55 -1 -55
1 0 2 12 14 28 27 25 22 37 28 53 26 17 -3 32 107 35 251 3 143 1 179 -11 145z"/>
<path d="M4934 1768 l-21 -10 23 -66 c51 -149 66 -310 40 -447 -4 -16 -3 -24
0 -17 12 25 25 11 20 -20 -3 -18 -3 -26 1 -18 3 8 10 18 15 21 21 14 31 244
17 369 -8 62 -50 193 -65 196 -5 1 -19 -2 -30 -8z"/>
<path d="M4053 1326 c3 -8 11 -51 18 -95 11 -75 14 -81 36 -81 22 0 23 3 24
78 1 88 5 86 14 -10 6 -61 9 -68 28 -69 20 -1 20 -2 -3 -9 -14 -4 -38 -5 -54
-2 -28 5 -29 4 -21 -24 5 -16 13 -60 19 -99 l12 -70 39 -7 c64 -11 132 -9 143
5 5 6 13 51 17 100 7 84 7 87 -14 87 -11 0 -21 -5 -21 -12 0 -6 -3 -9 -6 -5
-3 3 -7 54 -7 114 l-2 108 -34 3 -34 3 6 -91 c3 -50 11 -98 18 -106 8 -10 8
-14 0 -14 -6 0 -11 -10 -12 -22 -1 -22 -1 -22 -9 2 -4 14 -8 71 -9 128 l-1
102 -76 0 c-61 0 -75 -3 -71 -14z"/>
</g>
</svg>
