<?xml version="1.0" standalone="no"?>
<!DOCTYPE svg PUBLIC "-//W3C//DTD SVG 20010904//EN"
 "http://www.w3.org/TR/2001/REC-SVG-20010904/DTD/svg10.dtd">
<svg version="1.0" xmlns="http://www.w3.org/2000/svg"
 width="940.000000pt" height="788.000000pt" viewBox="0 0 940.000000 788.000000"
 preserveAspectRatio="xMidYMid meet">
<metadata>
Created by potrace 1.16, written by Peter Selinger 2001-2019
</metadata>
<g transform="translate(0.000000,788.000000) scale(0.100000,-0.100000)"
fill="#000000" stroke="none">
<path d="M4578 7210 c-16 -10 -18 -28 -18 -140 0 -72 -3 -129 -7 -129 -22 4
-43 -2 -43 -12 0 -7 10 -9 26 -5 27 7 27 7 20 -41 -13 -103 -59 -273 -72 -273
-16 0 -19 -17 -4 -22 7 -2 5 -16 -5 -40 -8 -21 -15 -39 -15 -42 0 -2 16 -20
35 -40 72 -74 70 -67 69 -313 -1 -124 2 -223 7 -223 5 0 9 61 9 135 0 75 7
198 15 273 24 223 24 252 3 252 -10 0 -18 -4 -18 -8 0 -18 -26 -8 -27 10 -1
10 1 16 5 14 4 -2 8 8 7 22 0 22 5 28 27 30 40 5 42 -17 24 -234 -9 -111 -18
-368 -21 -624 -8 -629 -8 -637 -1 -648 3 -6 2 -13 -4 -17 -6 -4 -9 -105 -9
-268 0 -144 -3 -326 -7 -404 -5 -108 -3 -147 6 -158 9 -10 9 -15 1 -15 -7 0
-11 -29 -11 -85 0 -59 4 -85 12 -85 9 0 9 -3 0 -12 -17 -17 -16 -148 1 -148 6
0 22 -3 35 -6 21 -6 22 -4 22 74 0 76 -1 81 -22 85 l-23 4 23 2 22 1 0 389 0
390 -22 4 c-22 4 -22 4 -2 6 14 1 23 9 26 24 4 22 8 683 8 1301 0 176 2 317 5
314 3 -2 5 -264 5 -581 1 -438 4 -577 13 -581 9 -3 9 -5 0 -5 -18 -1 -18 -677
0 -684 9 -4 9 -6 0 -6 -10 -1 -13 -65 -13 -287 l0 -285 33 3 32 3 -2 215 c-1
118 -2 400 -2 627 -1 321 -4 412 -13 416 -10 4 -10 6 -1 6 10 1 13 62 13 261
l0 260 -23 1 -22 0 23 9 22 9 0 435 c0 276 -4 445 -10 462 -6 15 -7 30 -2 33
5 3 11 14 15 24 8 20 36 22 61 4 14 -10 17 -21 11 -45 -7 -35 -14 -39 -33 -20
-10 10 -15 10 -22 -2 -6 -9 -10 -198 -10 -458 l0 -443 27 3 c22 2 29 10 34 33
l7 30 1 -29 c0 -16 4 -26 8 -22 4 4 6 82 4 175 -3 213 0 230 56 287 41 40 44
48 39 78 -5 23 -2 36 6 39 10 4 9 9 -4 16 -20 13 -52 106 -44 127 3 8 2 12 -3
9 -6 -3 -12 15 -15 40 -18 143 -18 140 -5 128 15 -15 39 -17 39 -4 0 5 -11 12
-24 15 -32 8 -41 63 -32 197 6 96 5 98 -19 117 -14 11 -41 23 -60 26 -19 4
-35 10 -35 14 0 4 -10 7 -22 8 -13 0 -39 4 -58 7 -20 4 -43 3 -52 -3z"/>
<path d="M4730 5650 l0 -260 30 0 30 0 0 124 c0 121 -1 125 -22 129 l-23 4 23
2 c22 1 22 3 22 131 l0 130 -30 0 -30 0 0 -260z"/>
<path d="M4737 5373 c-4 -3 -7 -55 -7 -115 l0 -109 33 3 c28 3 33 7 38 38 l6
35 2 -39 c1 -26 4 -37 11 -30 11 11 1 214 -11 214 -4 0 -10 -21 -12 -47 l-3
-48 -2 53 c-2 47 -4 52 -25 52 -13 0 -27 -3 -30 -7z"/>
<path d="M4735 5127 c-3 -7 -4 -56 -3 -108 l3 -94 33 -3 33 -3 -3 108 -3 108
-28 3 c-16 2 -29 -2 -32 -11z"/>
<path d="M4740 4596 c0 -79 3 -96 15 -96 8 0 15 -4 15 -10 0 -5 -7 -7 -15 -4
-13 5 -15 -8 -15 -84 l0 -90 28 -5 c18 -4 31 -1 40 11 7 9 12 11 12 4 0 -7 5
-12 10 -12 6 0 10 35 10 86 0 71 -3 85 -14 81 -22 -9 -37 15 -20 31 9 8 14 9
14 2 0 -6 5 -8 10 -5 6 4 10 36 8 74 -1 37 1 72 5 78 10 16 -10 27 -60 31
l-43 3 0 -95z"/>
<path d="M4587 3933 c-15 -4 -17 -20 -17 -156 0 -84 -2 -180 -4 -214 -4 -50
-2 -64 10 -71 15 -8 15 -10 1 -15 -13 -5 -16 -27 -16 -126 0 -84 4 -121 12
-121 8 0 8 -3 -1 -12 -7 -7 -12 -33 -12 -59 0 -37 4 -49 18 -52 16 -4 16 -5 0
-6 -15 -1 -18 -11 -18 -55 0 -49 2 -55 23 -59 l22 -4 -23 -2 c-22 -1 -23 -5
-22 -58 0 -32 -2 -73 -6 -91 -4 -20 -2 -38 6 -47 9 -10 9 -15 1 -15 -18 0 -13
-68 5 -78 15 -8 15 -10 0 -15 -19 -8 -22 -73 -3 -80 10 -4 10 -6 0 -6 -8 -1
-13 -15 -13 -36 0 -21 5 -35 13 -35 8 0 9 -2 1 -8 -14 -9 -25 -453 -12 -476 5
-9 4 -17 -2 -21 -7 -4 -11 -107 -12 -298 -1 -161 -2 -350 -2 -422 l-1 -130 48
-3 47 -3 0 165 c0 92 -3 165 -7 164 -5 -2 -8 2 -8 7 0 6 3 9 8 7 4 -1 7 115 7
258 0 167 -4 260 -10 260 -5 0 -10 5 -10 11 0 5 5 7 10 4 6 -4 11 51 12 157
l2 163 3 -150 c3 -128 6 -152 21 -163 16 -12 16 -14 0 -23 -16 -9 -18 -32 -18
-259 0 -216 2 -250 15 -250 8 0 15 -4 15 -9 0 -5 -7 -11 -15 -15 -12 -4 -15
-32 -15 -166 l0 -160 50 0 50 0 0 160 c0 100 -4 160 -10 160 -5 0 -10 7 -10
15 0 8 5 15 10 15 16 0 13 507 -2 513 -10 4 -10 7 -1 14 9 6 13 55 16 158 1
83 4 -41 5 -274 2 -371 4 -422 17 -417 9 3 15 0 15 -9 0 -9 -6 -12 -15 -9 -13
5 -15 -16 -15 -160 l0 -165 88 -3 87 -3 3 -123 c2 -113 1 -123 -15 -122 -33 4
-53 0 -53 -10 0 -5 14 -10 32 -10 40 0 31 -11 -11 -12 -19 -1 -28 -5 -24 -12
3 -6 0 -5 -8 2 -16 14 -89 16 -89 2 0 -5 -5 -10 -11 -10 -5 0 -8 4 -5 9 7 11
-67 19 -93 9 -28 -10 -66 11 -81 45 l-13 30 -13 -24 c-11 -22 -10 -25 9 -30
20 -5 19 -6 -10 -17 -20 -6 -33 -7 -33 -1 0 5 -12 9 -26 9 -14 0 -23 4 -19 10
3 6 1 10 -4 10 -7 0 -11 44 -11 125 l0 125 35 0 35 0 0 143 c0 162 7 602 15
943 5 225 2 270 -16 258 -5 -3 -9 -1 -9 4 0 6 7 13 16 16 19 7 16 62 -3 59
-18 -4 -16 14 2 21 9 3 15 18 15 36 0 18 -6 33 -15 36 -18 7 -20 25 -2 21 7
-1 13 12 15 36 2 28 0 37 -12 37 -9 0 -16 5 -16 10 0 6 7 10 15 10 11 0 15 11
15 40 0 29 -4 40 -15 40 -8 0 -15 5 -15 10 0 6 7 10 15 10 11 0 15 12 15 45 0
25 -4 45 -10 45 -5 0 -10 5 -10 11 0 5 5 7 10 4 6 -4 10 13 10 44 0 40 -4 51
-19 56 -20 6 -61 -24 -61 -44 0 -13 -58 -39 -83 -36 -12 1 -29 3 -38 4 -42 3
-110 103 -169 250 -22 54 -65 214 -81 301 -17 92 -21 110 -28 111 -30 3 -57
11 -64 18 -10 10 -30 -4 -81 -54 -45 -44 -66 -133 -66 -282 0 -112 21 -266 41
-306 6 -10 7 -22 4 -27 -4 -6 -1 -10 5 -10 7 0 10 -6 7 -14 -3 -8 1 -22 8 -33
8 -10 15 -28 15 -39 0 -12 7 -38 15 -58 8 -20 12 -36 8 -36 -5 0 -3 -4 2 -8 6
-4 19 -36 29 -72 11 -36 30 -101 44 -145 21 -67 25 -101 26 -210 1 -91 -3
-141 -13 -165 -30 -74 -69 -160 -98 -215 -5 -11 -18 -36 -28 -55 -10 -19 -21
-37 -24 -40 -3 -3 -15 -23 -26 -45 -11 -22 -30 -58 -44 -80 -13 -22 -23 -41
-22 -43 1 -1 -6 -22 -17 -45 -10 -23 -27 -69 -37 -102 -10 -33 -22 -71 -27
-84 -14 -36 -8 -209 8 -240 8 -14 14 -31 14 -38 0 -6 18 -47 41 -91 44 -87
145 -201 219 -248 25 -16 54 -37 64 -46 11 -10 27 -18 35 -18 9 0 36 -11 60
-25 23 -14 53 -25 65 -25 11 -1 32 -7 46 -15 14 -8 44 -14 68 -15 24 0 41 -3
39 -7 -3 -5 6 -9 19 -9 111 -7 270 -29 276 -38 6 -8 8 -7 8 2 0 8 20 12 68 12
91 1 277 32 373 63 59 20 192 76 199 85 3 4 22 16 43 26 72 37 237 223 237
267 0 5 9 29 21 52 12 23 23 56 24 72 2 17 8 57 12 90 5 33 6 71 2 85 -4 14
-7 43 -8 65 -1 22 -8 53 -16 69 -8 15 -12 32 -9 37 3 5 0 9 -5 9 -6 0 -11 8
-11 19 0 10 -12 35 -26 56 -14 21 -30 48 -35 59 -11 25 -31 59 -40 66 -6 5
-51 73 -80 119 -42 69 -67 120 -62 125 4 3 2 6 -4 6 -23 0 -39 138 -23 198 14
49 19 61 66 155 16 32 29 61 29 65 0 4 12 28 27 53 15 25 30 59 34 75 4 16 11
34 16 41 5 6 11 44 13 83 3 67 2 73 -26 101 -23 24 -37 29 -74 29 -25 0 -45
-4 -45 -9 0 -5 -12 -22 -27 -38 -29 -30 -82 -96 -95 -116 -4 -7 -12 -12 -18
-12 -5 0 -10 -4 -11 -10 -1 -18 -31 -45 -43 -38 -6 3 -8 3 -4 -2 10 -11 -33
-43 -80 -59 -39 -14 -92 -11 -92 5 0 5 -6 9 -14 9 -23 0 -94 73 -107 108 -16
46 -49 45 -49 -2 0 -19 6 -37 13 -39 8 -4 9 -8 1 -14 -6 -4 -14 -15 -17 -23
-4 -12 -6 -12 -6 2 -1 9 -7 19 -13 21 -10 4 -10 6 0 6 16 1 16 73 0 89 -9 9
-9 12 0 12 8 0 12 17 12 46 l0 45 -42 -3 c-41 -3 -43 -5 -46 -36 -2 -18 2 -40
9 -48 9 -11 9 -17 0 -28 -7 -8 -11 -27 -9 -43 2 -22 9 -29 33 -34 25 -6 26 -7
6 -8 -13 0 -30 -9 -37 -18 -13 -17 -13 -17 -14 0 0 13 -9 17 -40 17 l-40 0 0
-40 0 -40 65 2 c36 1 68 -1 72 -5 3 -4 -3 -7 -15 -7 -12 0 -22 -5 -22 -12 0
-9 -3 -9 -12 0 -7 7 -29 12 -51 12 -38 0 -39 0 -37 -37 3 -69 0 -114 -8 -109
-4 2 -7 235 -5 517 1 391 -1 515 -10 521 -9 6 -9 8 0 8 9 0 12 38 12 142 0
100 -4 145 -12 150 -9 6 -9 8 1 8 8 0 12 22 12 75 0 79 -2 81 -53 68z m-491
-1694 c-16 -77 -58 -167 -231 -493 -49 -93 -91 -164 -92 -159 -6 17 47 137
116 262 80 143 162 314 184 381 9 25 19 79 24 120 l8 75 3 -56 c2 -31 -4 -89
-12 -130z"/>
<path d="M4656 3764 c-10 -26 -7 -109 5 -121 8 -8 8 -13 0 -17 -6 -4 -11 -34
-11 -67 0 -46 4 -61 16 -66 14 -5 14 -7 1 -15 -13 -7 -15 -48 -15 -298 l0
-290 36 0 c41 0 38 -10 -4 -13 l-29 -2 -2 -93 -2 -92 39 0 40 0 0 545 0 545
-34 0 c-22 0 -36 -6 -40 -16z"/>
<path d="M4747 3094 c-4 -4 -7 -27 -7 -50 0 -30 5 -46 18 -53 16 -10 16 -10
-1 -11 -15 0 -18 -7 -15 -42 3 -43 3 -43 45 -46 l42 -3 -2 103 -2 103 -35 3
c-20 2 -39 0 -43 -4z"/>
</g>
</svg>
