<?xml version="1.0" standalone="no"?>
<!DOCTYPE svg PUBLIC "-//W3C//DTD SVG 20010904//EN"
 "http://www.w3.org/TR/2001/REC-SVG-20010904/DTD/svg10.dtd">
<svg version="1.0" xmlns="http://www.w3.org/2000/svg"
 width="940.000000pt" height="788.000000pt" viewBox="0 0 940.000000 788.000000"
 preserveAspectRatio="xMidYMid meet">
<metadata>
Created by potrace 1.16, written by Peter Selinger 2001-2019
</metadata>
<g transform="translate(0.000000,788.000000) scale(0.100000,-0.100000)"
fill="#000000" stroke="none">
<path d="M4741 7184 c-40 -11 -67 -28 -108 -67 -29 -28 -56 -62 -60 -76 -3
-15 -9 -30 -13 -36 -9 -11 -20 -85 -45 -285 -20 -162 -35 -258 -46 -294 -12
-37 -11 -87 1 -106 6 -9 5 -17 -2 -21 -6 -4 6 -15 28 -25 22 -10 45 -24 53
-32 7 -7 16 -11 19 -8 3 3 -8 18 -24 32 l-29 26 33 -18 c63 -36 63 -34 58
-354 -3 -213 -1 -290 8 -290 8 0 8 -2 -1 -8 -7 -5 -13 -47 -15 -119 -2 -93 0
-113 12 -117 11 -3 11 -4 -2 -5 -15 -1 -18 -11 -18 -53 0 -29 -2 -161 -4 -293
-3 -132 -7 -494 -11 -805 -3 -311 -10 -644 -15 -740 -5 -96 -8 -184 -8 -195 1
-11 1 -71 0 -132 l-2 -113 -31 -27 c-106 -94 -170 -233 -208 -454 -8 -43 -26
-339 -25 -394 0 -14 16 -185 19 -215 12 -99 53 -191 93 -210 14 -6 91 -16 171
-21 166 -11 360 -35 393 -48 13 -6 50 -18 83 -27 33 -10 62 -21 65 -24 5 -6
52 -28 108 -50 17 -7 32 -17 32 -22 0 -5 5 -6 10 -3 6 4 10 -31 10 -97 1 -263
35 -473 81 -501 55 -34 107 46 122 188 10 91 2 200 -13 176 -5 -10 -9 -10 -14
-2 -4 6 -11 9 -16 6 -17 -11 -23 47 -13 138 5 51 7 94 4 97 -4 3 -12 18 -19
33 -11 26 -11 28 8 22 25 -8 27 17 5 59 -13 25 -13 28 1 22 9 -3 17 -6 20 -6
11 0 34 -64 34 -97 0 -21 3 -55 6 -76 6 -32 10 -37 34 -37 42 0 80 35 80 73
-1 63 -30 118 -198 376 -91 139 -113 187 -119 260 -7 71 13 152 71 291 68 163
89 241 84 312 -4 48 -9 65 -27 79 -32 26 -59 24 -149 -11 -155 -59 -227 -70
-297 -46 -37 13 -40 17 -43 55 -3 34 -7 41 -25 42 -22 0 -22 0 2 10 15 6 21
14 17 25 -3 9 -6 26 -6 39 0 14 -7 25 -17 28 -17 4 -17 5 0 6 13 1 17 10 17
45 0 34 -4 46 -17 49 -17 4 -17 5 0 6 14 1 17 10 17 50 0 39 -4 51 -17 54 -16
4 -16 5 -1 6 12 1 17 13 20 56 1 31 -1 57 -7 59 -7 3 -7 5 0 5 6 1 9 24 7 55
-3 41 -8 56 -20 59 -15 4 -15 5 1 6 14 1 17 11 17 56 0 48 -3 57 -22 65 -16 6
-18 9 -7 9 33 2 32 130 0 132 -10 0 -8 4 8 10 15 6 21 14 17 25 -3 9 -6 35 -6
59 0 33 -4 45 -17 48 -17 4 -17 5 0 6 14 1 17 11 17 71 0 64 -2 72 -22 80 -18
7 -19 9 -5 9 10 1 17 9 18 24 1 12 3 46 4 75 3 47 1 52 -18 53 -22 0 -22 0 1
9 20 8 22 16 22 80 0 64 -2 72 -22 80 -18 7 -19 9 -5 9 15 1 17 12 17 85 0 72
-3 85 -17 89 -17 4 -17 5 0 6 15 1 17 12 17 79 0 80 -5 95 -30 105 -12 4 -11
6 3 6 16 1 17 25 16 369 0 202 -4 399 -8 437 -3 39 -4 83 -1 99 3 15 4 73 2
127 -3 82 -6 99 -20 102 -13 4 -13 5 -2 6 13 1 15 22 13 133 -2 72 -4 132 -6
134 -1 1 -46 4 -100 6 l-97 3 -3 -250 -2 -250 -3 253 c-1 166 -5 251 -12 247
-5 -3 -10 -1 -10 4 0 6 5 11 10 11 6 0 10 38 10 95 0 57 -4 95 -10 95 -5 0
-10 5 -10 10 0 6 7 10 15 10 12 0 15 -18 15 -104 l0 -104 90 0 c49 0 94 -3
100 -7 6 -4 10 7 10 29 0 28 7 40 33 59 17 14 42 28 55 32 40 12 56 48 49 115
-4 33 -3 59 1 59 15 -3 73 14 78 23 4 6 -2 7 -16 3 -15 -5 -20 -4 -16 4 9 14
0 14 -25 0 -28 -14 -45 2 -52 49 -3 20 -13 82 -21 136 -9 55 -16 136 -16 180
l0 81 46 1 c61 2 85 24 25 24 -23 0 -40 4 -37 9 4 5 -3 7 -14 4 -18 -5 -20 0
-20 59 0 35 5 69 10 74 17 17 -17 71 -52 83 -40 14 -70 13 -137 -5z"/>
<path d="M4575 1614 c-12 -9 -30 -12 -46 -9 -14 3 -38 1 -52 -4 -25 -10 -27
-15 -27 -71 l0 -60 60 0 c55 0 60 -2 61 -22 0 -13 3 -17 6 -10 2 6 9 10 14 6
5 -3 25 1 45 8 30 10 37 10 44 -2 8 -12 10 -12 10 3 0 16 7 18 53 16 28 -1 62
-9 75 -17 19 -13 27 -13 50 -2 15 8 52 16 82 19 l55 6 0 60 0 60 -50 3 c-27 1
-64 10 -82 19 -29 15 -33 15 -57 0 -34 -23 -158 -24 -176 -2 -16 19 -39 19
-65 -1z"/>
<path d="M4563 1253 c4 -6 -4 -8 -18 -5 -47 8 -55 -11 -55 -125 0 -67 4 -102
10 -98 6 3 10 1 10 -4 0 -6 -5 -11 -11 -11 -8 0 -8 -5 1 -15 7 -8 16 -12 22
-9 5 3 16 3 26 -1 13 -5 14 -8 3 -14 -7 -5 -11 -13 -7 -19 6 -10 64 4 76 19 3
3 13 9 24 12 15 6 17 4 13 -14 -5 -19 -3 -20 36 -14 23 4 45 13 50 21 10 18
37 6 30 -13 -5 -13 0 -14 28 -8 19 4 42 14 52 23 16 15 18 14 24 -6 7 -27 23
-28 57 -1 25 20 36 59 16 59 -5 0 -10 5 -10 11 0 5 5 7 10 4 12 -7 12 -6 10
105 -1 46 -6 90 -12 97 -15 18 -36 16 -41 -4 -4 -17 -5 -17 -6 0 -1 14 -10 17
-51 17 -49 0 -50 -1 -50 -30 0 -16 -4 -30 -8 -30 -5 0 -7 13 -4 30 l4 30 -48
-6 c-59 -6 -142 -5 -168 2 -10 4 -16 2 -13 -3z"/>
</g>
</svg>
