<?xml version="1.0" standalone="no"?>
<!DOCTYPE svg PUBLIC "-//W3C//DTD SVG 20010904//EN"
 "http://www.w3.org/TR/2001/REC-SVG-20010904/DTD/svg10.dtd">
<svg version="1.0" xmlns="http://www.w3.org/2000/svg"
 width="120.000000pt" height="120.000000pt" viewBox="0 0 120.000000 120.000000"
 preserveAspectRatio="xMidYMid meet">
<metadata>
Created by potrace 1.16, written by Peter Selinger 2001-2019
</metadata>
<g transform="translate(0.000000,120.000000) scale(0.100000,-0.100000)"
fill="#000000" stroke="none">
<path d="M415 1190 c-156 -5 -163 -6 -227 -38 -75 -37 -110 -73 -146 -151 -22
-47 -26 -75 -34 -227 -5 -105 -5 -243 0 -348 8 -152 12 -180 34 -227 36 -78
71 -114 145 -151 64 -31 69 -32 239 -38 96 -3 252 -3 347 0 157 6 177 8 228
32 71 32 125 86 157 156 22 49 26 75 33 229 5 95 5 251 0 346 -9 189 -23 241
-85 314 -44 52 -140 94 -227 98 -149 9 -308 10 -464 5z m520 -131 c22 -8 56
-30 76 -50 58 -58 64 -96 64 -409 0 -314 -6 -351 -65 -410 -59 -59 -96 -65
-415 -65 -316 0 -344 4 -404 64 -60 60 -66 95 -66 416 0 298 4 328 51 391 26
35 74 61 137 74 70 14 575 6 622 -11z"/>
<path d="M862 967 c-46 -49 -12 -127 54 -127 39 0 74 36 74 76 0 65 -84 98
-128 51z"/>
<path d="M527 900 c-92 -23 -169 -88 -209 -175 -32 -70 -31 -180 0 -251 50
-112 155 -178 282 -178 179 0 304 126 304 304 0 168 -115 292 -281 305 -32 2
-75 0 -96 -5z m176 -143 c64 -48 82 -84 82 -158 0 -56 -4 -71 -27 -102 -49
-63 -85 -82 -158 -82 -52 0 -72 5 -98 23 -102 73 -122 192 -47 279 48 57 88
74 157 70 42 -2 65 -10 91 -30z"/>
</g>
</svg>
