<?xml version="1.0" standalone="no"?>
<!DOCTYPE svg PUBLIC "-//W3C//DTD SVG 20010904//EN"
 "http://www.w3.org/TR/2001/REC-SVG-20010904/DTD/svg10.dtd">
<svg version="1.0" xmlns="http://www.w3.org/2000/svg"
 width="5184.000000pt" height="3240.000000pt" viewBox="0 0 5184.000000 3240.000000"
 preserveAspectRatio="xMidYMid meet">
<metadata>
Created by potrace 1.16, written by Peter Selinger 2001-2019
</metadata>
<g transform="translate(0.000000,3240.000000) scale(0.100000,-0.100000)"
fill="#000000" stroke="none">
<path d="M0 16200 l0 -16200 25920 0 25920 0 0 15440 c0 8492 -4 15440 -8
15440 -5 0 -16 -17 -26 -37 -20 -41 -29 -123 -13 -123 6 0 6 -13 2 -32 -13
-56 -14 -102 -3 -131 8 -20 8 -35 0 -52 -7 -14 -8 -25 -4 -25 4 0 8 -63 8
-140 1 -132 0 -140 -19 -146 -19 -6 -19 -8 -4 -19 21 -15 22 -44 2 -51 -8 -4
-15 -15 -15 -25 0 -10 7 -19 15 -19 8 0 15 -4 15 -9 0 -5 -7 -14 -15 -21 -19
-16 -19 -47 0 -66 19 -19 19 -29 0 -48 -8 -8 -15 -31 -15 -51 0 -27 -5 -38
-22 -46 -19 -8 -20 -9 -3 -6 16 3 20 -2 20 -22 0 -14 -3 -31 -7 -36 -4 -6 -3
-17 2 -25 7 -11 10 -7 15 13 4 15 11 27 16 27 13 0 11 -7 -7 -35 -8 -13 -14
-34 -12 -47 2 -13 -3 -28 -12 -34 -10 -9 -11 -15 -3 -25 6 -8 13 -32 17 -54 8
-53 8 -55 1 -90 -4 -16 -6 -50 -6 -74 1 -26 -4 -48 -11 -53 -10 -6 -10 -10 2
-18 12 -7 12 -13 4 -27 -15 -24 -16 -206 -1 -215 10 -6 -5 -76 -28 -132 -6
-13 -5 -17 3 -12 17 10 22 -8 8 -35 -19 -37 -26 -72 -17 -83 15 -18 15 -48 2
-110 -8 -37 -10 -66 -4 -80 5 -11 6 -34 2 -51 -4 -16 -7 -54 -8 -82 0 -29 -5
-53 -10 -53 -5 0 -11 -26 -13 -57 -4 -44 -2 -60 9 -66 12 -8 12 -12 -3 -28
-13 -15 -16 -30 -11 -70 4 -28 2 -59 -3 -70 -6 -10 -15 -28 -20 -39 -13 -26
-13 -30 5 -30 17 0 21 -36 4 -42 -6 -2 -11 -37 -12 -86 -1 -55 -6 -83 -14 -87
-20 -7 -15 -22 8 -28 29 -8 18 -33 -12 -29 -18 2 -20 0 -10 -6 10 -8 13 -28 9
-86 -3 -42 -1 -76 4 -76 5 0 6 -6 1 -12 -4 -7 -8 -49 -9 -94 -1 -78 -16 -130
-34 -119 -4 3 -10 1 -12 -4 -1 -6 -19 -12 -38 -15 -19 -2 -62 -9 -95 -15 -97
-17 -263 -13 -307 7 -58 27 -81 65 -79 125 1 28 6 56 12 63 6 7 8 17 5 22 -3
5 2 58 11 118 9 60 18 139 20 177 3 37 9 67 14 67 4 0 6 7 3 15 -3 8 -3 19 1
25 4 6 8 49 9 96 1 58 6 88 15 94 8 4 9 9 3 11 -7 3 -7 19 -1 49 17 77 25 190
15 207 -6 11 -4 27 6 47 28 58 37 95 24 99 -8 3 -7 8 2 20 9 10 15 63 18 164
2 81 7 166 9 188 3 22 9 76 14 120 6 44 10 111 10 148 1 51 5 69 16 73 18 7
20 35 3 52 -14 14 -11 104 3 113 11 7 17 68 24 259 2 63 9 142 15 175 6 33 13
119 16 190 4 72 10 137 15 146 4 9 5 25 2 37 -3 14 -1 22 7 22 9 0 11 14 7 53
-6 59 10 206 25 224 5 7 8 16 5 20 -3 4 -6 46 -8 93 -2 61 1 84 9 82 7 -1 12
7 12 18 0 11 -4 20 -8 20 -11 0 -14 60 -4 74 4 6 8 45 9 86 1 41 4 125 8 185
3 61 8 139 10 175 9 164 14 229 20 275 5 36 4 46 -4 35 -9 -12 -11 -11 -11 8
0 12 9 31 19 41 11 11 15 21 9 23 -12 4 -17 118 -6 134 5 7 11 76 14 155 6
185 9 224 23 279 6 25 11 51 11 58 0 9 -5157 12 -25750 12 l-25750 0 0 -16200z
m20482 13289 c2 -6 25 -11 51 -12 37 -2 47 -6 47 -19 0 -15 9 -18 50 -18 37 0
52 -4 57 -16 3 -9 8 -12 12 -5 8 12 54 -9 95 -44 23 -20 27 -28 18 -37 -18
-18 -14 -38 8 -38 12 0 25 -10 31 -24 7 -14 22 -27 35 -30 30 -8 53 -46 28
-46 -10 0 -14 -3 -10 -7 4 -5 13 -8 19 -8 7 0 12 -11 12 -25 0 -15 -6 -25 -15
-25 -20 0 -24 -29 -6 -48 17 -16 17 -57 1 -57 -6 0 -16 5 -23 12 -9 9 -12 7
-12 -9 0 -12 5 -25 11 -29 10 -6 -12 -23 -51 -40 -45 -18 -60 -29 -60 -40 0
-7 -9 -18 -19 -24 -11 -5 -27 -18 -37 -27 -17 -17 -18 -17 -11 0 5 14 0 17
-36 17 -31 0 -38 -3 -27 -10 17 -11 14 -11 -47 -14 -36 -1 -43 2 -43 19 0 15
-3 16 -12 7 -7 -7 -25 -12 -40 -12 -15 0 -28 -4 -28 -10 0 -5 -18 -10 -40 -10
-36 0 -40 -3 -40 -24 0 -22 -3 -24 -40 -19 -26 4 -40 2 -40 -6 0 -6 8 -11 18
-11 16 -1 16 -1 0 -14 -10 -7 -18 -23 -18 -35 0 -18 -4 -20 -25 -15 -15 4 -25
2 -25 -5 0 -6 13 -11 29 -11 31 0 49 -26 31 -44 -7 -7 -10 -3 -10 12 0 12 -1
22 -3 22 -1 0 -17 -4 -35 -9 -18 -6 -40 -7 -48 -4 -17 6 -19 43 -1 43 18 1
-35 29 -55 30 -12 0 -18 -8 -18 -24 0 -13 -7 -29 -15 -36 -13 -11 -19 -9 -36
11 -16 19 -28 23 -62 20 -23 -1 -43 -7 -45 -12 -5 -12 -36 -11 -49 2 -8 8 -13
8 -17 0 -4 -6 0 -11 9 -11 9 0 13 -5 9 -11 -3 -6 -16 -8 -28 -5 -13 3 -31 -1
-42 -9 -10 -8 -29 -15 -41 -15 -32 0 -81 32 -76 50 3 11 2 12 -4 3 -16 -22
-83 -21 -83 1 0 33 -75 31 -83 -2 -2 -9 -8 2 -12 26 -7 37 -11 42 -34 42 -14
0 -41 9 -59 20 -43 26 -52 25 -52 -5 0 -14 -4 -25 -10 -25 -5 0 -7 6 -4 14 10
26 -15 58 -42 53 -16 -3 -24 0 -24 9 0 10 -13 14 -40 14 -40 0 -44 5 -41 43 2
19 -33 25 -44 7 -3 -5 -13 -10 -21 -10 -8 0 -14 5 -14 10 0 6 9 10 20 10 30 0
24 16 -12 31 -18 7 -44 21 -57 31 -13 10 -27 15 -32 12 -11 -6 -49 32 -49 50
0 8 -7 16 -15 20 -8 3 -15 15 -15 27 0 21 -29 81 -42 87 -5 2 -8 15 -8 28 0
14 -7 27 -15 30 -17 7 -21 44 -5 44 11 0 25 29 34 73 4 15 13 27 21 27 10 0
15 11 15 35 0 33 1 34 25 23 19 -8 28 -8 40 2 11 10 18 10 29 1 10 -9 16 -9
21 -1 7 12 63 4 80 -11 15 -14 45 -10 45 6 0 18 -1 18 38 4 26 -9 37 -7 70 11
32 18 43 20 61 11 11 -7 21 -18 21 -26 0 -19 16 -19 24 0 7 18 26 20 26 2 0
-19 40 -41 53 -28 14 14 57 14 57 1 0 -14 28 -12 32 2 3 8 17 0 39 -20 21 -19
44 -32 61 -32 15 0 30 -4 33 -10 3 -5 13 -10 22 -10 11 0 14 7 11 25 -3 14 -1
28 3 31 5 3 9 -4 9 -15 0 -22 30 -36 60 -26 25 8 48 -4 29 -16 -7 -4 -10 -11
-6 -15 4 -4 13 -2 19 4 7 7 22 12 35 12 13 0 23 4 23 10 0 5 -7 7 -15 4 -9 -4
-15 0 -15 9 0 21 20 33 30 17 6 -9 9 -9 15 -1 4 7 1 18 -5 26 -10 12 -9 15 8
15 11 0 22 -6 25 -12 3 -10 7 -10 20 1 15 12 17 11 17 -3 0 -12 10 -16 40 -16
33 0 40 4 40 19 0 23 26 31 103 31 31 0 57 5 57 10 0 6 18 10 40 10 31 0 40
-4 40 -17 1 -17 1 -17 11 0 6 10 20 22 32 27 30 12 35 12 39 -1z m4771 -1417
c15 -6 27 -8 27 -4 0 9 246 9 256 0 4 -4 13 -3 21 4 11 8 17 7 28 -8 8 -11 14
-14 15 -6 0 14 36 16 45 2 4 -6 15 -6 32 1 19 7 29 6 37 -2 8 -8 8 -13 -1 -16
-7 -3 -13 -9 -13 -15 0 -6 7 -7 16 -4 9 4 23 1 32 -6 13 -11 14 -9 8 17 l-8
30 21 -24 c13 -15 19 -32 15 -43 -3 -10 -1 -18 5 -18 6 0 11 9 11 19 0 14 5
18 20 14 11 -3 20 0 20 6 0 6 5 11 10 11 6 0 10 -7 10 -15 0 -10 -10 -15 -27
-15 -21 0 -24 -3 -13 -9 8 -6 17 -8 21 -5 4 2 9 -6 11 -18 3 -21 9 -23 68 -26
36 -1 75 -7 87 -14 12 -6 39 -8 60 -5 21 3 32 3 26 0 -7 -2 -13 -11 -13 -19 0
-10 7 -13 25 -8 13 3 37 -1 54 -9 16 -8 32 -12 36 -9 3 3 40 6 83 7 57 1 80
-2 88 -13 11 -16 39 -7 29 8 -8 13 13 50 28 49 9 0 9 -2 0 -6 -22 -8 5 -43 32
-43 14 0 25 5 25 10 0 7 6 7 20 0 14 -7 26 -8 39 0 11 5 33 10 50 10 24 0 31
-4 31 -20 0 -11 5 -20 10 -20 6 0 10 7 10 16 0 13 3 14 15 4 8 -6 20 -8 26 -4
7 4 18 -1 26 -11 12 -18 13 -18 13 -1 0 15 6 17 29 13 16 -3 31 -3 35 0 9 9
141 12 155 4 6 -4 35 -4 64 -1 28 4 54 3 55 -1 6 -14 32 -10 48 6 16 15 65 21
78 8 3 -4 15 -8 26 -10 14 -2 20 3 20 17 0 11 5 20 10 20 6 0 10 -9 10 -19 0
-11 5 -23 10 -26 6 -4 10 6 10 22 0 21 3 24 9 14 7 -11 13 -12 23 -4 28 23 56
24 75 4 17 -18 21 -19 72 -5 30 7 58 19 63 26 6 10 8 10 8 1 0 -8 15 -13 40
-13 25 0 40 5 41 13 0 10 2 10 6 0 7 -19 30 -16 42 5 7 13 13 14 22 5 8 -9 22
-7 55 7 28 13 55 17 79 13 21 -3 35 -2 35 5 0 5 16 10 36 9 20 -1 39 5 44 12
4 8 24 15 43 17 31 3 34 1 30 -19 -4 -17 1 -14 21 13 30 39 66 58 66 35 0 -12
5 -12 39 0 22 7 41 11 44 9 3 -3 21 -2 41 1 24 5 36 13 37 24 0 11 3 8 10 -7
5 -13 16 -23 26 -21 59 5 92 -2 98 -22 5 -14 12 -18 23 -14 9 3 13 3 9 -1 -4
-4 1 -13 11 -20 15 -12 15 -15 2 -23 -8 -6 -11 -13 -7 -17 4 -4 12 -3 18 3 14
14 39 6 39 -13 0 -9 11 -14 30 -14 22 0 30 -5 30 -17 1 -18 30 -65 30 -48 0 5
5 4 12 -3 7 -7 18 -12 25 -12 20 0 53 -33 53 -52 0 -10 11 -23 24 -28 14 -5
29 -23 37 -44 9 -26 19 -36 38 -38 18 -2 26 -9 26 -22 0 -11 5 -21 10 -23 6
-2 37 -28 69 -57 42 -40 53 -55 41 -58 -12 -2 -5 -10 24 -28 39 -24 54 -50 29
-50 -10 0 -9 -3 1 -9 10 -6 10 -13 2 -29 -8 -16 -7 -21 4 -26 10 -3 15 1 15
14 0 32 17 32 30 -1 8 -19 18 -28 27 -25 8 4 11 1 8 -5 -12 -18 5 -79 20 -79
8 0 15 -4 15 -10 0 -5 11 -10 25 -10 21 0 25 -5 25 -30 0 -16 5 -30 10 -30 6
0 10 18 10 40 0 33 -3 40 -20 40 -11 0 -20 6 -20 14 0 33 20 24 45 -19 23 -38
31 -44 50 -39 18 4 25 1 30 -15 9 -29 35 -28 28 0 -4 15 0 27 12 35 10 8 15
17 12 21 -9 8 32 53 48 53 6 0 16 5 23 12 9 9 8 16 -5 30 -15 17 -15 18 0 18
30 0 32 -1 31 -16 -1 -8 2 -14 6 -14 5 0 11 23 15 50 4 32 12 50 20 50 8 0 18
6 22 13 4 7 24 23 44 36 19 13 40 33 45 45 6 13 17 20 31 19 11 -1 27 4 33 12
7 8 21 15 32 15 11 0 29 12 40 26 18 22 27 25 67 23 41 -3 47 -1 59 24 13 28
36 35 48 16 3 -6 17 -8 29 -5 13 3 26 2 29 -3 5 -7 101 -8 101 -2 0 1 15 4 34
6 19 1 28 -1 21 -5 -9 -5 -9 -9 -1 -14 6 -4 16 -4 21 -1 6 3 10 1 10 -5 0 -6
10 -8 23 -5 17 4 27 -1 42 -25 24 -36 29 -37 43 -5 10 22 15 23 37 15 43 -16
95 -13 95 6 0 13 6 11 25 -10 13 -14 31 -26 40 -26 8 0 15 -7 15 -16 0 -13 5
-15 23 -8 43 15 108 10 123 -10 7 -11 11 -22 8 -27 -5 -8 48 5 67 16 6 4 15 2
19 -4 5 -9 18 -8 50 3 49 17 75 7 65 -24 -6 -20 35 -36 46 -18 11 17 130 0
146 -20 11 -16 12 -16 13 1 0 20 4 21 30 5 16 -10 24 -10 40 0 23 14 69 17 55
3 -6 -5 -21 -11 -35 -13 -29 -4 -41 -38 -14 -38 10 0 28 -10 40 -21 16 -15 29
-19 41 -14 17 8 17 8 1 12 -18 4 -24 24 -12 36 9 8 46 -12 40 -22 -8 -13 30
-30 45 -20 12 8 12 10 -1 18 -8 6 -11 14 -6 18 5 4 11 2 13 -4 3 -7 21 -13 41
-13 43 0 55 -7 71 -37 9 -19 16 -21 36 -13 20 7 25 6 30 -10 8 -24 21 -26 29
-4 3 9 13 14 20 11 8 -3 16 -1 18 5 6 18 28 -1 28 -23 0 -14 7 -19 25 -19 17
0 25 -6 25 -17 0 -15 2 -15 14 2 13 18 14 18 20 -3 8 -25 31 -29 44 -7 7 14
13 14 51 0 24 -8 59 -15 77 -15 30 0 34 3 34 25 0 33 11 32 39 -6 13 -17 29
-28 37 -25 7 3 16 1 19 -5 9 -14 25 -1 25 21 0 10 5 22 11 26 8 4 10 -8 8 -40
-3 -32 0 -46 8 -46 7 0 13 9 13 20 0 17 7 20 40 20 27 0 40 -4 40 -14 0 -7 7
-19 15 -26 8 -7 15 -16 15 -21 0 -5 -7 -9 -15 -9 -8 0 -15 -7 -15 -15 0 -8 -7
-15 -15 -15 -13 0 -13 -3 -3 -13 6 -8 23 -11 37 -9 15 3 21 7 15 9 -15 5 10
59 31 67 8 3 15 12 15 21 0 8 4 15 9 15 14 0 65 -20 71 -28 3 -4 17 -15 33
-25 15 -10 27 -24 27 -32 0 -19 -14 -19 -30 0 -7 8 -16 15 -20 15 -11 0 -19
-37 -13 -60 5 -18 14 -20 84 -20 64 0 79 -3 79 -15 0 -11 -12 -16 -42 -17
l-43 -1 43 -4 c38 -4 42 -7 42 -31 0 -20 3 -23 12 -14 10 10 10 17 1 32 -13
20 -15 19 50 36 9 3 17 1 17 -5 0 -6 -9 -11 -20 -11 -11 0 -20 -7 -20 -15 0
-17 16 -20 25 -5 4 6 15 8 25 5 12 -4 26 2 38 15 13 14 22 18 27 11 10 -18 25
-13 25 8 0 11 5 23 10 26 6 3 10 -3 10 -14 0 -11 -4 -23 -10 -26 -6 -4 -2 -21
10 -45 13 -26 16 -40 8 -42 -13 -5 32 -49 68 -69 21 -11 27 -9 50 15 15 14 25
28 23 29 -2 1 -11 8 -20 15 -14 11 -16 9 -11 -13 5 -29 5 -29 -37 -14 -30 11
-32 15 -27 42 8 38 12 43 29 29 20 -17 25 -6 21 49 -2 27 1 49 6 49 6 0 10
-13 10 -30 0 -28 2 -29 33 -24 29 5 30 4 15 -9 -20 -16 -24 -37 -7 -37 6 0 19
10 28 21 l17 22 13 -32 c17 -39 25 -39 41 0 10 22 15 27 21 17 7 -10 9 -9 9 5
0 9 4 17 9 17 11 0 21 -25 21 -52 0 -29 30 -50 47 -32 7 7 13 20 13 28 0 9 8
16 20 16 11 0 20 -7 20 -15 0 -19 31 -55 47 -55 7 0 13 7 13 15 0 8 7 15 15
15 12 0 13 -4 4 -19 -10 -14 -9 -23 4 -42 10 -13 17 -33 18 -44 0 -19 1 -19
11 3 10 20 48 32 48 14 0 -5 6 -17 14 -27 11 -16 16 -17 29 -6 13 10 19 9 36
-8 26 -26 27 -35 2 -28 -15 3 -21 -2 -26 -22 -3 -14 -8 -34 -11 -43 -3 -11 0
-18 7 -18 7 0 20 -7 29 -15 16 -14 18 -14 23 0 5 10 0 15 -13 15 -24 0 -26 17
-3 42 10 11 30 18 55 18 32 0 38 3 38 20 0 18 3 19 20 10 15 -8 20 -21 20 -50
0 -38 1 -39 45 -46 25 -3 57 -4 72 -1 16 4 22 4 16 1 -7 -3 -13 -17 -13 -30 0
-19 5 -24 25 -24 14 0 25 -5 25 -10 0 -7 -23 -8 -65 -4 -55 6 -65 4 -65 -9 0
-8 -5 -17 -11 -19 -6 -2 -5 -14 5 -33 l16 -30 0 43 c0 41 0 42 35 42 31 0 35
-3 35 -25 0 -22 4 -25 40 -25 38 0 40 2 40 30 0 29 2 30 43 29 28 -1 33 -3 15
-6 -18 -3 -28 -12 -32 -29 -4 -13 -11 -24 -16 -24 -15 0 -12 -27 3 -33 19 -7
33 4 41 31 7 22 26 31 26 12 0 -5 17 -10 39 -10 43 0 55 -19 44 -73 l-6 -30
21 21 c25 25 29 52 7 52 -16 0 -20 16 -6 24 5 3 14 -1 21 -9 10 -12 16 -13 26
-4 10 8 14 8 14 0 0 -6 8 -11 18 -11 14 0 15 -2 2 -9 -8 -6 -17 -8 -21 -5 -4
2 -5 -4 -2 -15 6 -23 54 -38 111 -35 50 2 59 8 43 27 -9 11 -8 17 4 27 12 10
15 9 15 -6 0 -11 3 -29 6 -41 4 -16 2 -23 -8 -23 -10 0 -13 -10 -10 -37 l5
-38 15 33 c9 17 18 32 22 32 3 0 14 -16 23 -35 13 -28 22 -35 46 -35 22 0 30
-6 35 -23 5 -20 10 -22 51 -19 43 4 45 3 45 -23 0 -27 1 -27 50 -20 47 6 52 5
71 -19 26 -33 39 -33 39 -1 0 20 -5 25 -25 25 -18 0 -25 5 -25 20 0 24 9 25
36 6 10 -8 28 -13 40 -10 11 3 26 -1 32 -9 10 -12 7 -17 -18 -27 -39 -16 -38
-23 5 -43 19 -9 35 -12 35 -7 0 6 23 10 50 10 28 0 50 -4 50 -10 0 -5 14 -10
30 -10 23 0 30 -4 30 -20 0 -17 -7 -20 -40 -20 -33 0 -40 3 -40 20 0 13 -7 20
-20 20 -15 0 -20 -7 -20 -25 0 -18 -5 -25 -20 -25 -19 0 -24 -10 -21 -37 1 -7
-15 -15 -39 -19 -31 -5 -40 -11 -40 -27 0 -16 -3 -17 -15 -7 -15 12 -35 6 -35
-11 0 -5 7 -9 15 -9 13 0 14 -4 5 -21 -7 -12 -20 -20 -33 -19 -49 4 -59 1 -54
-20 4 -16 0 -20 -19 -20 -13 0 -24 -4 -24 -10 0 -5 -21 -10 -46 -10 -25 0 -43
-4 -40 -9 10 -16 -21 -44 -52 -45 -29 -1 -37 -7 -33 -28 0 -5 -12 -8 -29 -8
-16 0 -30 -4 -30 -10 0 -13 -54 -40 -79 -40 -13 0 -21 -9 -26 -30 -8 -35 -18
-38 -31 -10 -9 19 -10 19 -41 -10 -36 -34 -48 -37 -57 -14 -5 12 -8 13 -20 2
-7 -7 -10 -16 -5 -19 5 -3 -19 -19 -54 -36 -35 -17 -69 -38 -76 -47 -9 -11
-30 -16 -67 -16 -41 0 -54 -4 -54 -15 0 -8 -4 -15 -10 -15 -5 0 -10 7 -10 15
0 21 -18 19 -22 -2 -2 -13 -15 -17 -52 -18 -48 -2 -81 -25 -35 -25 12 0 19 -3
15 -7 -4 -4 -39 -8 -78 -8 -51 -1 -73 -5 -82 -16 -6 -9 -28 -19 -49 -23 -20
-4 -43 -13 -49 -20 -7 -7 -20 -11 -29 -9 -9 3 -26 0 -37 -6 -14 -8 -21 -8 -24
0 -2 5 -11 7 -21 4 -9 -4 -14 -11 -11 -16 3 -5 -6 -9 -20 -9 -14 0 -26 -4 -26
-10 0 -5 -6 -7 -13 -4 -8 3 -26 0 -40 -5 -20 -8 -27 -7 -28 2 0 6 -5 2 -11
-10 -8 -16 -20 -23 -40 -23 -15 0 -28 4 -28 9 0 12 -81 -29 -104 -52 -17 -16
-45 -13 -58 7 -4 5 -10 -2 -13 -17 -7 -28 -19 -35 -30 -17 -4 6 -11 8 -16 4
-5 -3 -6 -10 -3 -16 4 -6 -1 -8 -15 -3 -12 4 -30 0 -43 -9 -28 -20 -38 -20
-38 -1 0 8 -4 15 -10 15 -5 0 -10 -10 -10 -21 0 -19 -4 -20 -34 -15 -25 5 -35
3 -40 -9 -3 -8 -17 -15 -31 -15 -14 0 -25 -4 -25 -10 0 -5 -9 -10 -19 -10 -11
0 -23 -5 -26 -11 -4 -6 -20 -9 -36 -7 -19 2 -33 -4 -43 -17 -9 -11 -16 -14
-16 -7 0 18 -20 15 -20 -3 0 -9 -8 -18 -17 -21 -10 -4 -41 -17 -70 -30 -29
-13 -65 -23 -80 -23 -15 0 -50 -4 -78 -10 -27 -6 -61 -13 -75 -15 -39 -8 -172
-16 -335 -22 -82 -3 -159 -6 -170 -8 -240 -32 -415 -64 -432 -78 -7 -5 -36
-13 -65 -18 -53 -8 -182 -50 -195 -63 -3 -4 -13 -7 -21 -7 -22 0 -196 -85
-211 -104 -7 -9 -19 -16 -25 -16 -6 0 -29 -14 -50 -30 -22 -17 -45 -30 -52
-30 -7 0 -20 -8 -30 -17 -16 -16 -31 -21 -85 -27 -14 -1 -30 -5 -35 -8 -5 -3
-21 -8 -36 -12 -16 -3 -28 -11 -28 -16 0 -5 -20 -12 -45 -16 -25 -3 -43 -9
-41 -13 3 -4 -10 -8 -27 -9 -51 -4 -64 -7 -79 -19 -8 -7 -32 -15 -53 -18 -22
-3 -51 -8 -65 -11 -14 -2 -56 -7 -93 -10 -49 -3 -74 -10 -90 -24 -11 -11 -31
-20 -44 -20 -13 0 -23 -4 -23 -9 0 -7 -26 -14 -100 -25 -24 -4 -90 -31 -90
-37 0 -4 -19 -10 -41 -14 -29 -5 -43 -13 -46 -26 -3 -11 -18 -22 -33 -27 -37
-10 -93 -59 -84 -73 4 -7 3 -9 -3 -6 -6 4 -32 -13 -59 -38 -33 -32 -56 -45
-76 -45 -15 0 -28 -4 -28 -9 0 -29 -131 -8 -168 26 -7 7 -20 13 -28 13 -8 0
-34 8 -57 19 -66 29 -202 44 -330 36 -62 -4 -119 -7 -127 -7 -8 0 -31 -4 -50
-8 -19 -5 -64 -11 -99 -14 -35 -4 -69 -10 -75 -14 -6 -5 -31 -14 -56 -21 -85
-23 -183 -64 -203 -84 -16 -16 -33 -20 -89 -19 -92 0 -116 21 -142 124 -23 90
-47 138 -89 181 -79 80 -160 112 -256 103 -25 -3 -80 -8 -121 -11 -90 -8 -105
-11 -192 -30 -127 -28 -318 -98 -318 -116 0 -5 -5 -9 -11 -9 -5 0 -28 -15 -51
-32 -38 -31 -45 -33 -120 -33 -76 0 -81 1 -107 31 -18 20 -31 48 -35 78 -29
189 -126 306 -262 314 -131 9 -422 -48 -578 -113 -93 -38 -146 -43 -229 -21
-47 12 -105 58 -111 87 -19 96 -101 204 -181 241 -43 20 -64 23 -150 21 -55
-2 -122 -7 -150 -13 -27 -6 -77 -14 -110 -19 -74 -11 -160 -35 -215 -62 -49
-24 -168 -28 -229 -7 -40 13 -101 65 -101 85 0 26 -60 139 -87 165 -74 68
-133 83 -258 64 -111 -17 -296 -60 -392 -92 -84 -28 -138 -30 -233 -8 -80 18
-138 56 -176 115 -36 57 -102 127 -138 147 -44 23 -201 19 -341 -8 -158 -31
-227 -35 -320 -15 -114 23 -166 56 -220 140 -17 28 -45 63 -60 78 -26 26 -43
35 -118 66 -39 16 -147 14 -242 -4 -44 -9 -96 -19 -115 -22 -19 -4 -73 -7
-120 -6 -71 2 -97 7 -150 31 -36 16 -78 44 -95 61 -122 128 -147 145 -242 162
-79 15 -199 -1 -369 -49 -81 -23 -119 -19 -246 25 -61 21 -89 38 -135 81 -32
30 -83 69 -113 86 l-55 30 -212 -1 c-118 -1 -213 2 -213 7 0 4 -15 12 -32 15
-33 7 -81 29 -102 46 -6 5 -26 20 -43 35 -18 14 -33 32 -33 40 0 8 -4 14 -9
14 -5 0 -12 9 -16 20 -13 41 -134 148 -153 136 -5 -3 -22 6 -36 19 -20 18 -34
23 -52 19 -18 -5 -24 -2 -24 10 0 8 -11 18 -25 22 -24 6 -37 44 -15 44 6 0 10
-7 10 -15 0 -24 18 -17 22 8 2 16 9 21 24 19 12 -1 27 4 34 13 7 8 16 13 20
10 4 -3 21 2 36 10 16 8 34 15 41 15 17 0 137 53 141 62 2 4 9 8 16 8 7 0 75
31 152 70 76 38 145 70 152 70 7 0 20 4 30 9 23 13 179 59 222 67 19 3 51 11
70 19 19 7 41 10 48 7 8 -2 24 0 35 6 26 12 184 39 277 47 115 10 212 27 350
63 74 19 146 37 160 40 14 3 35 11 47 19 12 8 27 13 35 12 25 -5 128 12 128
22 0 5 11 9 24 9 12 0 36 4 52 9 16 5 49 14 74 21 25 7 54 16 65 21 11 4 40
13 65 20 25 6 63 20 84 30 22 10 45 19 52 19 6 0 43 14 80 31 38 18 96 44 129
59 33 15 70 31 83 35 12 3 22 11 22 17 0 6 3 9 6 5 3 -3 36 7 72 23 71 30 257
93 326 110 22 6 50 15 61 20 24 11 173 49 235 60 25 5 56 13 70 18 28 11 221
49 285 56 22 3 72 10 110 16 132 20 300 27 520 22 298 -6 311 -6 380 12 32 9
76 16 97 16 21 0 46 4 56 9 9 5 43 17 74 26 32 9 60 21 64 26 3 5 13 9 22 9 9
0 37 10 62 22 25 11 52 22 60 23 23 4 201 71 235 88 118 61 514 130 810 142
32 1 60 6 62 11 4 13 183 10 216 -4z m-14403 -2671 c0 -10 115 -7 200 4 45 6
64 4 100 -13 65 -29 80 -33 182 -39 128 -8 168 -8 277 -1 78 6 97 4 106 -8 6
-8 17 -16 25 -18 38 -6 109 -40 103 -49 -3 -5 -1 -7 4 -4 11 7 73 -47 73 -63
0 -6 11 -8 24 -6 12 2 42 -5 66 -15 24 -11 45 -17 48 -15 2 3 14 0 25 -6 11
-6 83 -11 165 -12 110 -1 146 -4 150 -14 2 -7 14 -17 26 -22 16 -6 27 -25 41
-69 l18 -60 -32 -53 c-26 -42 -42 -57 -79 -72 -26 -11 -49 -23 -52 -26 -3 -4
-32 -11 -65 -16 -41 -7 -59 -14 -57 -23 2 -10 -6 -12 -34 -7 -63 12 -137 66
-127 93 4 9 -2 16 -16 20 -11 3 -21 9 -21 14 0 21 -51 30 -180 33 -77 2 -140
0 -140 -5 0 -5 -7 -6 -15 -3 -8 4 -13 10 -10 14 3 5 -9 8 -27 8 -18 0 -55 5
-82 11 -28 6 -72 13 -98 16 -51 5 -116 37 -86 43 14 3 13 7 -5 26 -12 12 -30
32 -40 45 -10 12 -23 19 -29 15 -6 -4 -8 -3 -5 2 3 6 2 16 -3 24 -7 11 -42 16
-137 21 -133 7 -177 15 -167 30 3 5 0 9 -5 9 -6 0 -11 -4 -11 -10 0 -16 -16
-12 -70 20 -28 17 -63 29 -78 29 l-27 -1 30 -8 30 -9 -29 2 c-20 1 -30 8 -32
21 -1 11 -10 23 -18 28 -21 12 -22 78 -2 78 8 0 18 10 21 21 5 15 9 18 15 9 6
-9 11 -8 21 4 16 17 29 21 29 7z m3225 -621 c16 -15 21 -29 18 -48 -3 -15 -8
-56 -13 -92 -8 -68 -24 -120 -37 -120 -5 0 -21 -12 -38 -28 -43 -39 -136 -82
-304 -139 -76 -26 -195 -9 -316 45 -69 30 -87 51 -66 76 7 9 7 22 -2 46 -10
27 -9 34 1 37 7 3 22 22 32 44 11 21 27 39 34 39 8 0 17 7 20 16 4 10 14 14
26 11 11 -3 20 -1 20 3 0 5 17 12 38 15 20 3 52 13 70 21 18 8 44 14 57 14 14
0 33 4 43 9 27 13 111 42 182 63 86 24 203 18 235 -12z m4434 -1059 c20 -11
43 -26 49 -34 7 -8 14 -56 16 -108 6 -139 32 -186 114 -204 32 -7 102 6 232
44 176 51 287 70 413 70 135 0 178 -19 201 -92 20 -61 20 -78 1 -123 -16 -39
-83 -107 -126 -129 -29 -16 -41 -37 -33 -60 7 -17 -3 -28 -77 -83 -31 -22 -70
-43 -85 -46 -16 -2 -31 -5 -34 -6 -3 -1 -12 -3 -20 -4 -8 -1 -50 -19 -93 -40
l-78 -38 -147 7 c-81 4 -167 9 -192 11 -25 2 -73 6 -107 8 -34 3 -79 9 -100
15 -20 6 -39 9 -41 6 -10 -9 -162 106 -162 122 -1 14 -104 60 -160 72 -53 11
-124 17 -280 25 -268 14 -324 28 -418 104 -180 147 -55 355 211 352 112 -2
160 9 327 70 172 63 252 79 408 79 122 1 148 -2 181 -18z m-8269 -131 c0 -5
10 -10 23 -12 12 -2 22 -10 22 -18 0 -9 9 -15 23 -14 12 0 22 -2 22 -6 0 -4
25 -19 55 -35 30 -15 55 -32 55 -37 0 -5 9 -7 19 -3 11 3 22 1 26 -5 3 -5 18
-10 33 -11 15 0 21 -3 15 -6 -19 -7 -17 -83 2 -83 8 0 15 5 15 10 0 14 28 12
33 -2 3 -10 10 -10 30 1 22 11 34 12 64 3 20 -6 41 -8 46 -5 6 3 7 2 4 -3 -3
-6 15 -16 41 -24 26 -7 59 -21 74 -32 14 -10 34 -18 45 -18 22 -1 106 -30 152
-53 19 -9 42 -17 53 -17 10 0 18 -4 18 -10 0 -5 14 -10 31 -10 17 0 39 -5 50
-11 11 -5 61 -12 112 -14 73 -3 94 -7 104 -21 12 -17 13 -16 13 4 0 12 5 22
10 22 6 0 10 -4 10 -10 0 -19 35 -50 57 -50 24 0 31 -14 12 -25 -18 -12 -4
-28 27 -32 16 -3 38 -12 49 -22 11 -10 40 -25 65 -34 106 -36 126 -39 163 -29
28 8 39 7 48 -4 15 -19 29 -18 29 2 0 12 5 15 23 9 12 -4 37 -9 55 -12 17 -3
32 -11 32 -17 0 -7 27 -18 59 -25 50 -11 61 -18 71 -42 10 -23 10 -36 0 -59
-7 -16 -16 -30 -21 -30 -5 0 -9 -7 -9 -15 0 -36 -115 -46 -216 -20 -31 8 -61
12 -65 9 -5 -3 -12 2 -15 10 -8 22 -44 20 -44 -1 -1 -17 -1 -17 -14 0 -17 22
-42 22 -50 1 -4 -9 -9 -14 -13 -11 -3 4 -12 2 -19 -4 -8 -6 -42 -11 -76 -10
-57 1 -65 3 -93 33 -42 46 -99 88 -118 88 -10 0 -17 7 -17 15 0 8 -6 15 -12
16 -43 2 -118 28 -118 40 0 5 -19 9 -43 9 -24 0 -46 3 -50 6 -9 9 -87 14 -224
16 -113 1 -123 2 -123 19 0 12 -7 19 -19 19 -23 0 -121 50 -121 61 0 5 -3 8
-7 7 -15 -4 -83 34 -83 47 0 7 -16 15 -35 18 -19 3 -48 15 -64 26 -16 12 -36
21 -45 21 -9 0 -16 4 -16 9 0 5 -10 12 -22 16 -21 6 -28 8 -49 13 -4 1 -3 18
1 37 8 37 5 41 -20 25 -13 -8 -13 -11 -1 -19 18 -12 6 -42 -14 -35 -8 3 -15
12 -15 20 0 8 -7 14 -15 14 -9 0 -12 6 -9 15 4 11 -1 15 -17 15 -13 0 -37 7
-53 15 -15 8 -34 15 -40 15 -7 0 -21 8 -32 18 -11 11 -33 23 -49 29 -19 6 -31
18 -33 31 -2 13 -11 22 -22 22 -20 0 -30 19 -30 56 0 21 3 23 30 18 25 -6 30
-3 36 20 3 14 12 26 20 26 8 0 14 5 14 10 0 6 8 10 19 10 10 0 33 6 50 13 32
14 91 11 91 -3z m19088 -672 c44 -18 54 -27 63 -58 7 -22 8 -48 2 -70 -8 -30
-16 -37 -59 -52 -67 -24 -86 -23 -160 12 -55 27 -65 35 -74 68 -14 53 -13 73
10 97 29 31 145 33 218 3z m12519 -50 c74 -76 111 -240 79 -348 -26 -89 -81
-133 -261 -211 -28 -12 -134 -40 -170 -45 -246 -34 -249 -35 -388 -38 -222 -5
-382 35 -457 116 -43 46 -68 119 -75 215 -5 81 -4 98 16 143 32 76 55 84 204
77 156 -8 238 2 400 47 33 10 69 20 80 23 49 13 139 21 250 22 94 1 131 5 170
21 79 30 104 27 152 -22z m5451 -219 c2 -5 10 -9 17 -9 15 0 55 -47 55 -65 0
-17 -42 -62 -65 -69 -11 -3 -40 -2 -65 2 -40 7 -47 12 -64 47 -17 38 -17 41
-1 72 10 17 25 34 34 37 23 6 85 -4 89 -15z m-2162 -145 c13 -11 15 -17 7 -20
-7 -3 -13 -9 -13 -14 0 -4 -18 -25 -39 -47 -32 -32 -47 -39 -83 -42 -53 -3
-74 15 -63 56 15 60 144 105 191 67z m-15496 -294 c15 -8 20 -21 20 -50 0 -33
-4 -40 -30 -52 -16 -7 -30 -16 -30 -20 0 -5 -8 -8 -18 -8 -10 0 -24 -8 -31
-18 -18 -25 -93 -28 -132 -5 -34 20 -35 25 -10 79 13 28 30 47 57 60 45 22
144 30 174 14z m20889 -114 c42 -43 36 -62 -21 -69 -46 -5 -122 23 -165 61
-30 26 -29 30 10 34 124 13 141 10 176 -26z m-25419 -46 c40 -21 66 -51 95
-112 21 -46 15 -74 -25 -116 -16 -18 -30 -37 -30 -44 -1 -16 -35 -58 -48 -58
-5 0 -12 -9 -15 -20 -3 -11 -13 -23 -24 -27 -19 -7 -73 -42 -108 -68 -10 -8
-24 -15 -31 -15 -6 0 -17 -7 -24 -15 -7 -9 -15 -13 -18 -11 -2 3 -16 -4 -30
-14 -27 -22 -180 -73 -222 -75 -14 0 -30 -4 -35 -7 -11 -6 -158 -21 -340 -34
-49 -4 -108 -8 -130 -10 -128 -12 -222 -5 -293 22 -40 14 -72 30 -72 34 0 4
-13 13 -29 20 -28 11 -121 100 -105 100 4 0 1 8 -8 18 -27 32 -38 73 -37 135
1 108 37 171 124 215 33 18 71 32 83 32 43 0 168 -23 229 -42 40 -12 93 -20
147 -20 75 -1 90 3 140 30 31 17 78 35 104 41 26 6 67 15 92 21 71 17 90 20
175 26 44 4 82 8 84 10 1 1 73 3 158 3 134 0 161 -3 193 -19z m7410 -600 c9
-6 10 -10 3 -10 -7 0 -15 -15 -18 -32 -11 -55 -30 -73 -80 -73 -24 0 -49 5
-55 11 -14 14 6 74 34 96 23 19 92 24 116 8z m1639 -366 c8 -7 9 -54 1 -49 -5
3 -12 -10 -15 -29 -10 -49 -42 -75 -102 -82 -53 -7 -120 15 -130 42 -5 15 28
74 53 95 25 20 106 38 149 32 22 -3 42 -7 44 -9z m-14129 -324 c59 -13 111
-36 187 -82 111 -67 198 -148 190 -178 -3 -11 -1 -23 5 -26 5 -4 6 -18 2 -33
-4 -14 -6 -36 -5 -49 0 -13 -3 -20 -9 -17 -6 3 -13 -1 -16 -9 -3 -8 -27 -23
-52 -32 -26 -10 -51 -21 -57 -26 -5 -4 -16 -8 -25 -8 -10 0 -32 -8 -51 -17
-19 -9 -41 -18 -49 -20 -49 -8 -128 -27 -145 -33 -11 -5 -59 -14 -108 -20 -61
-9 -90 -17 -97 -29 -8 -13 -11 -14 -19 -2 -7 11 -14 9 -35 -11 -15 -13 -50
-30 -79 -37 -29 -7 -68 -20 -87 -29 -23 -10 -66 -16 -127 -16 -50 -1 -90 -3
-88 -6 2 -3 -22 -4 -53 -3 -32 1 -70 2 -85 2 -16 1 -26 5 -22 11 3 6 -2 10
-11 10 -10 0 -27 8 -38 18 -12 10 -41 25 -66 32 -25 8 -49 17 -55 20 -5 4 -48
17 -95 30 -100 26 -159 58 -217 116 -50 49 -56 88 -20 127 29 33 64 44 247 77
216 40 238 45 353 85 56 20 131 45 166 55 36 11 69 24 75 30 5 5 28 10 51 10
22 0 79 11 125 24 174 49 223 55 310 36z m1540 -544 c19 0 42 -5 50 -11 8 -5
24 -10 35 -12 48 -8 55 -10 62 -17 4 -4 1 -11 -7 -16 -9 -6 -10 -10 -3 -10 10
0 44 -26 76 -57 24 -24 64 -98 60 -110 -3 -8 0 -25 7 -38 10 -19 10 -27 -4
-46 -9 -13 -16 -33 -15 -44 1 -17 2 -16 9 5 l7 25 11 -27 c8 -19 19 -28 34
-28 15 0 27 -9 33 -22 8 -19 22 -25 78 -33 63 -9 67 -11 51 -26 -15 -16 -15
-17 5 -24 11 -3 21 -10 21 -15 0 -4 12 -11 28 -16 l27 -7 -30 -7 c-28 -7 -27
-8 13 -9 23 0 42 -5 42 -11 0 -5 16 -10 36 -10 19 0 44 -5 55 -10 23 -13 26
-40 4 -40 -8 0 -15 -4 -15 -10 0 -5 9 -10 20 -10 11 0 20 5 20 10 0 6 7 10 15
10 9 0 15 -10 15 -26 0 -14 4 -23 10 -19 6 3 10 -1 10 -9 0 -22 19 -30 36 -15
13 11 14 9 9 -17 -4 -16 -10 -40 -14 -54 -11 -35 2 -65 38 -86 17 -10 31 -22
31 -26 0 -4 18 -17 40 -28 36 -18 40 -18 48 -4 12 21 36 8 27 -14 -8 -22 12
-31 52 -22 23 6 49 4 75 -6 51 -18 49 -18 45 9 -2 12 -2 16 0 10 3 -7 12 -13
21 -13 20 -1 62 -33 62 -48 0 -5 -7 -13 -16 -16 -12 -5 -13 -8 -2 -20 13 -14
33 -12 24 3 -3 4 11 5 31 3 24 -3 37 -11 40 -22 4 -15 12 -17 41 -13 38 6 97
32 75 33 -17 0 -17 30 0 30 7 0 22 -7 33 -15 10 -8 29 -15 41 -15 16 0 21 -4
16 -16 -4 -10 1 -17 16 -21 11 -3 21 -9 21 -13 0 -12 68 -33 80 -25 5 3 10 0
10 -8 0 -8 7 -21 16 -28 14 -11 19 -10 35 10 12 14 19 18 19 9 0 -7 20 -21 45
-30 35 -14 51 -15 76 -6 20 7 34 7 38 1 3 -5 14 -12 24 -16 10 -4 16 -11 12
-16 -3 -5 5 -13 17 -17 14 -4 24 -2 26 6 2 6 15 -5 27 -26 13 -21 21 -45 18
-53 -3 -9 2 -6 11 7 10 12 30 29 46 37 26 13 29 13 32 -3 2 -11 13 -17 33 -17
24 0 31 -5 33 -23 3 -18 8 -23 24 -19 18 5 20 2 14 -25 -6 -30 -5 -30 27 -24
21 4 27 3 17 -3 -12 -8 -12 -13 4 -30 11 -12 27 -21 36 -21 9 0 25 -7 36 -15
18 -14 18 -14 -11 -15 -28 -1 -29 -2 -7 -10 12 -5 22 -14 22 -20 0 -5 16 -10
35 -10 28 0 35 -4 35 -20 0 -11 11 -27 24 -35 21 -14 35 -39 40 -69 2 -13 26
-20 26 -7 0 6 7 11 15 11 18 0 18 -1 3 -37 -11 -27 -13 -35 -17 -75 -2 -29
-20 -20 -30 15 -6 21 -9 25 -10 11 -1 -30 -24 -74 -38 -74 -7 0 -13 -6 -13
-13 0 -8 -9 -22 -20 -32 -18 -16 -22 -16 -67 0 -40 14 -60 15 -118 7 l-70 -9
50 -3 50 -2 -55 -14 c-42 -10 -56 -10 -62 -1 -5 9 -14 9 -39 0 -30 -12 -31
-11 -25 13 5 19 2 24 -12 24 -10 0 -24 6 -31 13 -11 10 -12 7 -7 -15 7 -30 -2
-36 -22 -16 -10 10 -14 8 -19 -10 l-6 -23 -15 22 c-14 20 -16 21 -28 5 -7 -10
-16 -18 -20 -19 -5 -1 -7 -10 -6 -19 2 -10 -2 -18 -7 -18 -6 0 -11 5 -11 12 0
8 -3 9 -10 2 -12 -12 -16 -81 -6 -116 6 -19 4 -28 -3 -28 -6 0 -11 -11 -11
-25 0 -19 -5 -25 -23 -25 -12 0 -32 -6 -43 -14 -11 -8 -45 -17 -75 -20 -63 -7
-152 -27 -192 -44 -16 -7 -37 -12 -48 -12 -11 0 -26 -6 -32 -13 -23 -24 -57
-76 -57 -86 0 -6 -8 -26 -17 -46 l-17 -36 -115 1 c-131 2 -178 -3 -271 -25
-81 -20 -84 -20 -144 -30 -27 -4 -65 -17 -85 -28 -34 -21 -70 -29 -206 -47
-77 -10 -87 -7 -142 48 -40 40 -128 76 -238 96 -98 19 -142 32 -165 52 -8 7
-28 16 -45 20 -16 4 -34 10 -40 14 -5 4 -48 20 -94 36 -47 15 -93 34 -103 43
-17 14 -17 16 4 38 12 13 31 23 42 23 11 0 38 6 61 14 22 8 66 22 97 32 38 11
60 23 63 35 4 11 10 19 16 19 5 0 20 18 34 40 14 23 35 50 47 62 18 18 25 20
53 9 17 -6 63 -11 101 -12 38 -1 94 -4 124 -8 69 -8 147 2 214 27 28 11 71 25
96 32 90 25 100 31 125 80 26 51 28 87 8 108 -7 7 -17 21 -22 30 -8 14 -27 17
-110 18 -56 1 -101 -2 -101 -5 0 -3 -33 -7 -73 -7 -40 -1 -92 -9 -117 -19 -25
-9 -70 -23 -100 -31 -30 -8 -62 -19 -71 -24 -9 -5 -33 -12 -52 -15 -24 -5 -39
-14 -43 -27 -3 -11 -8 -17 -11 -14 -3 3 -15 -9 -27 -26 -11 -17 -28 -34 -36
-38 -60 -30 -67 -31 -150 -21 -63 7 -102 6 -150 -4 -107 -21 -203 -46 -236
-60 -17 -7 -53 -17 -80 -21 -27 -3 -60 -11 -74 -16 -14 -5 -54 -16 -90 -23
-36 -8 -99 -23 -140 -35 -41 -12 -100 -28 -130 -35 -30 -7 -91 -23 -135 -35
-44 -12 -107 -26 -140 -31 -33 -4 -87 -15 -120 -24 -33 -9 -82 -21 -110 -26
-27 -5 -79 -18 -115 -29 -311 -93 -372 -107 -560 -135 -58 -8 -114 -19 -125
-22 -42 -14 -77 -9 -88 14 -8 18 -2 28 40 70 27 26 75 87 107 135 l58 86 -6
69 c-3 37 -8 87 -12 110 l-6 42 55 25 c30 13 74 30 98 36 24 6 53 15 64 19 11
5 47 14 80 21 130 26 162 33 215 47 30 8 71 21 90 28 47 18 93 31 170 46 83
16 130 35 130 53 0 8 11 23 25 34 14 11 25 23 25 26 0 3 8 14 18 24 9 10 29
33 45 50 29 34 47 41 47 18 0 -9 16 -16 48 -20 88 -10 247 -21 276 -18 24 2
80 32 96 52 10 13 46 23 104 29 l59 6 14 58 c12 48 12 62 1 87 -14 33 -25 35
-98 20 -29 -6 -74 -5 -125 1 -91 12 -175 -2 -268 -45 -29 -13 -62 -27 -74 -31
-13 -3 -23 -11 -23 -16 0 -6 -17 -17 -37 -26 -21 -8 -44 -20 -52 -26 -7 -6
-25 -13 -40 -14 -14 -2 -36 -8 -48 -15 -12 -6 -41 -8 -65 -5 -71 10 -354 -22
-383 -43 -5 -4 -55 -17 -110 -29 -55 -12 -118 -27 -140 -33 -22 -6 -51 -12
-65 -14 -14 -2 -43 -5 -64 -8 -29 -4 -45 -1 -58 11 -19 17 -24 58 -8 68 6 4 6
15 0 31 -6 14 -10 36 -10 50 0 24 -8 41 -66 144 -34 60 -69 189 -56 202 7 7
45 8 104 4 146 -10 188 -7 253 21 33 13 68 26 77 27 10 1 21 5 24 9 4 4 17 7
30 7 23 0 34 17 34 56 0 15 6 24 15 24 11 0 15 11 15 38 0 32 -6 41 -38 62
-34 23 -46 25 -163 25 -72 0 -136 -5 -150 -11 -41 -19 -152 -56 -184 -62 -16
-3 -35 -12 -42 -21 -11 -14 -12 -14 -13 -1 0 11 -6 9 -20 -8 -10 -12 -21 -18
-24 -14 -3 5 -24 12 -46 16 -25 4 -51 16 -64 31 -13 14 -27 25 -32 25 -10 1
-54 67 -54 81 0 6 -7 17 -15 25 -9 10 -14 30 -12 57 l3 42 49 7 c26 4 51 11
54 15 3 5 39 9 80 10 52 2 79 7 91 18 10 9 27 15 37 14 10 -2 29 3 41 10 13 7
35 10 49 6 25 -6 128 25 168 51 11 7 45 14 75 15 30 1 69 6 85 10 17 5 58 11
92 13 42 3 72 12 90 25 17 13 48 23 78 25 79 6 115 17 130 40 13 18 18 19 36
8 15 -10 24 -11 32 -3 7 7 14 7 24 0 9 -8 13 -8 13 0 0 6 8 11 18 11 10 0 27
7 38 15 10 8 35 14 54 15 43 0 167 27 195 42 31 17 99 23 90 8 -6 -10 -1 -11
21 -5 16 4 39 7 52 6 13 0 30 5 37 13 7 7 41 16 76 19 34 4 68 12 75 18 7 6
25 9 41 7 16 -2 33 3 40 12 11 13 14 13 23 0 8 -12 13 -13 30 -2 25 15 67 15
110 1 21 -8 34 -8 39 -2 3 6 29 13 56 16 28 3 44 3 37 0 -6 -2 -9 -9 -6 -15 4
-5 13 -3 23 6 20 18 125 40 148 31 20 -7 55 4 48 15 -3 4 3 11 12 14 9 4 20 1
24 -5 7 -12 32 -9 99 10 19 5 44 7 55 4 11 -3 36 -6 55 -7z m11580 -401 c25
-7 57 -16 73 -19 15 -4 27 -13 27 -21 0 -8 4 -15 9 -15 5 0 7 -9 4 -20 -3 -11
0 -27 7 -34 6 -8 10 -23 9 -33 -2 -10 2 -28 9 -40 15 -27 5 -56 -34 -101 -64
-75 -99 -104 -153 -128 -31 -14 -78 -36 -106 -49 -154 -72 -240 -96 -385 -109
-461 -43 -689 -45 -737 -5 -6 6 -27 12 -46 15 -37 4 -57 14 -124 57 -24 15
-47 27 -52 27 -6 0 -16 8 -23 18 -7 10 -20 21 -28 24 -17 6 -68 95 -76 130 -2
13 -6 68 -8 123 -3 98 -3 100 26 129 l29 29 127 -6 c70 -3 154 -12 187 -21 61
-17 182 -62 200 -75 32 -24 200 -41 227 -24 7 3 22 8 34 9 31 3 177 74 191 93
10 13 14 14 22 2 5 -7 10 -9 12 -4 3 7 251 52 369 67 40 5 170 -7 210 -19z
m33 -444 c-2 -6 11 -11 30 -11 18 0 37 -4 43 -8 19 -17 82 -32 174 -42 105
-11 289 -54 334 -77 42 -22 134 -53 185 -63 42 -8 119 9 186 40 125 59 363
126 530 151 77 11 455 8 455 -3 0 -5 5 -8 10 -8 6 0 10 9 10 20 0 11 5 20 10
20 18 0 23 -31 11 -66 -10 -26 -10 -56 -1 -129 11 -90 10 -97 -9 -121 -21 -27
-105 -94 -118 -94 -4 0 -16 -12 -26 -26 -15 -20 -16 -28 -7 -39 10 -12 9 -15
-4 -15 -9 0 -16 4 -16 9 0 18 -76 -2 -165 -44 -143 -68 -288 -111 -510 -152
-79 -14 -151 -18 -340 -18 -234 0 -243 1 -340 28 -55 16 -129 44 -165 62 -36
18 -90 45 -120 60 -127 65 -143 103 -155 365 -5 112 -10 141 -26 151 -14 8 -1
32 14 26 7 -3 11 -10 10 -16z m3612 -506 c33 -4 72 -14 86 -22 38 -23 61 -101
62 -212 0 -107 -2 -111 -106 -178 -207 -133 -550 -240 -822 -257 -44 -3 -128
-8 -187 -12 -106 -7 -173 0 -328 31 -83 17 -138 38 -281 109 -156 77 -183 106
-198 209 -13 92 -14 256 -2 276 7 10 25 12 77 7 38 -4 106 -9 151 -10 119 -5
305 -54 429 -112 58 -28 83 -34 136 -34 61 0 86 7 173 45 46 21 237 86 265 91
14 3 32 7 40 10 8 3 26 8 40 10 14 3 66 13 115 24 50 10 131 22 180 25 50 4
92 9 94 11 2 2 7 2 10 -1 4 -2 34 -7 66 -10z m2102 -542 c23 -5 31 -20 38 -73
7 -55 16 -90 24 -90 16 0 33 -113 22 -141 -5 -15 -7 -29 -5 -32 3 -3 -16 -20
-43 -38 -26 -18 -50 -35 -53 -38 -11 -13 -249 -131 -264 -131 -9 0 -16 -4 -16
-10 0 -5 -9 -10 -20 -10 -11 0 -39 -9 -63 -19 -37 -17 -96 -34 -207 -61 -19
-5 -53 -13 -75 -19 -171 -43 -485 -59 -635 -32 -97 17 -242 51 -255 60 -5 4
-26 14 -45 21 -19 7 -68 28 -108 47 -41 18 -80 33 -87 33 -8 0 -17 5 -20 10
-3 6 -26 19 -50 30 -39 18 -89 66 -87 84 0 3 -4 20 -9 38 -6 18 -12 67 -14
108 -2 41 -7 109 -10 152 -6 71 -5 77 16 92 13 9 25 12 29 7 8 -12 48 -21 125
-27 93 -7 238 -32 300 -50 188 -57 197 -60 265 -94 72 -36 132 -43 215 -26 42
9 91 23 108 31 49 22 160 61 287 98 116 35 165 47 275 66 33 6 69 12 80 14 31
6 257 6 282 0z m-14722 -183 c3 -5 20 -10 37 -10 27 0 30 -2 24 -25 -5 -19 -2
-25 11 -26 11 0 13 -3 6 -6 -7 -2 -13 -13 -13 -24 0 -10 -9 -28 -19 -38 -13
-13 -16 -22 -8 -30 7 -7 3 -24 -14 -56 -22 -43 -23 -47 -6 -56 21 -13 22 -29
1 -29 -13 0 -15 -7 -10 -32 4 -18 9 -54 12 -80 4 -27 10 -48 15 -48 5 0 9 -7
9 -16 0 -9 5 -34 12 -55 8 -29 14 -36 24 -28 9 7 15 1 24 -26 12 -36 24 -45
33 -22 3 6 6 0 6 -14 1 -15 8 -32 16 -39 17 -14 12 -45 -13 -72 -12 -14 -31
-18 -90 -18 -41 0 -100 -6 -131 -14 -31 -8 -70 -17 -88 -19 -17 -3 -36 -8 -41
-11 -5 -3 -39 -10 -76 -16 -37 -6 -75 -15 -84 -20 -9 -5 -44 -16 -77 -24 -33
-8 -83 -23 -111 -34 -28 -11 -73 -23 -100 -27 -27 -4 -53 -10 -59 -15 -5 -4
-27 -10 -49 -13 -32 -5 -46 -1 -87 26 -27 17 -49 35 -49 39 0 5 -9 8 -20 8
-12 0 -33 6 -48 14 -15 7 -54 17 -87 21 -33 3 -67 12 -75 20 -18 15 -108 55
-125 55 -7 0 -18 7 -25 15 -7 9 -15 13 -18 11 -5 -6 -54 18 -74 36 -14 13 -80
47 -130 67 -16 6 -28 16 -28 23 0 10 -2 10 -8 1 -6 -10 -16 -10 -45 -1 -33 10
-43 9 -78 -10 -23 -12 -49 -22 -59 -22 -49 0 -124 -53 -168 -118 -24 -36 -53
-25 -84 33 -40 72 -37 99 10 113 65 21 130 32 215 37 73 5 149 21 215 46 13 5
40 9 61 9 75 0 239 66 241 96 0 17 68 74 87 74 9 0 21 7 27 16 16 21 93 35
125 22 61 -23 339 13 414 53 11 6 24 6 35 0 11 -6 24 -6 33 0 7 5 31 9 52 9
20 0 37 5 37 10 0 6 9 10 20 10 21 0 23 14 20 142 -1 56 -1 56 35 68 26 9 39
9 49 1 8 -7 18 -11 22 -10 53 9 114 -20 114 -56 0 -26 23 -12 33 21 20 66 28
74 73 74 24 0 46 -4 49 -10z m-3297 -87 c12 -21 3 -51 -48 -147 -30 -58 -70
-110 -146 -190 -57 -61 -104 -114 -104 -118 0 -4 -35 -28 -78 -52 -117 -68
-149 -112 -138 -190 4 -26 11 -44 16 -41 5 3 13 -1 17 -9 5 -9 26 -18 48 -22
27 -4 52 -18 80 -46 39 -39 42 -39 96 -35 43 4 61 1 72 -11 15 -14 13 -18 -15
-39 -38 -28 -55 -29 -88 -6 -14 10 -29 18 -35 18 -48 4 -151 55 -173 87 -7 10
-17 16 -22 13 -5 -3 -11 -1 -15 5 -3 5 -21 10 -39 10 -17 0 -36 4 -41 9 -6 5
-51 18 -102 30 -99 23 -136 19 -147 -17 -6 -18 -10 -18 -99 -5 -50 8 -129 28
-174 43 -44 16 -102 31 -127 34 -26 3 -92 28 -149 55 -56 28 -120 57 -142 65
-80 28 -155 68 -169 88 -14 19 -13 23 11 41 14 12 83 35 152 53 69 18 158 42
196 53 80 22 221 60 250 68 11 3 40 9 65 13 48 9 86 19 165 45 56 18 204 50
280 60 28 4 88 20 135 36 47 15 117 33 155 40 39 6 75 15 80 19 6 5 26 9 45
11 19 2 40 6 45 10 9 6 106 35 127 38 4 1 11 -6 16 -16z m-2395 -244 c27 -7
37 -15 37 -30 0 -27 -86 -65 -165 -74 -91 -10 -179 -26 -190 -35 -5 -4 -35
-13 -65 -19 -30 -7 -86 -21 -125 -33 -38 -11 -107 -26 -152 -33 -45 -8 -90
-18 -100 -23 -10 -6 -21 -10 -26 -10 -30 0 -134 -16 -147 -22 -38 -20 -202
-59 -268 -65 l-73 -6 16 24 c18 28 41 40 57 30 6 -3 8 -1 4 5 -7 12 90 61 174
88 30 9 64 23 75 30 11 8 29 14 40 14 11 0 33 7 48 15 16 8 56 20 90 26 34 7
82 19 107 27 25 8 63 17 85 19 22 3 46 10 53 16 8 6 37 15 65 19 29 5 79 13
112 19 174 29 287 35 348 18z m22515 -120 c2 -15 12 -35 23 -45 11 -10 19 -30
19 -49 0 -18 6 -38 14 -44 20 -17 49 -105 36 -109 -7 -3 -7 -10 0 -23 10 -18
-5 -59 -22 -59 -4 0 -18 -10 -31 -22 -14 -13 -56 -36 -93 -52 -38 -16 -87 -37
-109 -47 -128 -55 -176 -72 -355 -122 -217 -61 -377 -84 -587 -87 -217 -2
-458 58 -698 174 -60 29 -122 58 -137 64 -16 6 -28 18 -28 27 0 8 -4 15 -8 15
-19 0 -73 248 -72 330 1 58 43 74 108 41 22 -11 61 -19 97 -20 69 -1 169 -15
270 -38 38 -9 79 -17 90 -19 11 -1 90 -26 175 -55 136 -46 165 -52 240 -53 75
-1 98 4 190 37 155 57 240 84 390 124 176 46 274 61 390 60 95 -2 95 -2 98
-28z m-22188 -178 c0 -13 -91 -254 -101 -266 -8 -11 -12 -26 -54 -199 -14 -60
-31 -118 -36 -128 -16 -30 -50 -46 -144 -66 -49 -11 -130 -32 -180 -47 -49
-15 -119 -34 -155 -41 -98 -20 -141 -30 -190 -47 -90 -30 -157 -49 -225 -62
-39 -7 -92 -18 -118 -24 -27 -6 -83 -13 -124 -16 -42 -2 -82 -10 -89 -16 -8
-6 -21 -9 -29 -5 -8 3 -15 2 -15 -3 0 -15 -56 -33 -106 -34 -27 -1 -52 -5 -55
-10 -8 -11 -121 -38 -136 -33 -7 3 -13 1 -13 -4 0 -6 -10 -10 -23 -10 -13 0
-27 -3 -31 -7 -4 -4 -36 -8 -71 -10 l-64 -2 -23 47 -23 47 -3 -52 c-2 -42 -7
-53 -23 -58 -11 -4 -27 -1 -35 6 -13 10 -17 10 -24 -2 -7 -11 -12 -11 -22 -1
-9 9 -9 12 5 12 9 0 17 5 17 10 0 6 10 10 21 10 18 0 19 2 9 15 -7 8 -20 15
-30 15 -10 0 -23 7 -30 15 -10 13 -9 15 9 15 14 0 21 6 21 20 0 17 -7 20 -40
20 -30 0 -40 -4 -40 -16 0 -13 -7 -15 -37 -9 -56 12 -103 11 -103 0 0 -6 33
-11 74 -13 68 -3 73 -4 69 -22 -4 -16 -14 -20 -44 -20 -28 0 -39 4 -39 15 0
11 -11 15 -40 15 -22 0 -40 -5 -40 -10 0 -6 -10 -8 -23 -5 -16 4 -29 0 -41
-14 -20 -22 -39 -20 -30 3 3 8 1 17 -5 21 -6 3 -8 17 -5 31 6 21 3 24 -24 24
-21 0 -32 -6 -35 -17 -2 -10 -3 -5 -1 11 4 26 2 28 -23 23 -17 -3 -36 0 -47 9
-11 8 -14 14 -8 14 8 0 5 9 -7 22 -16 17 -23 19 -34 9 -12 -9 -16 -8 -21 5
-11 29 -6 44 14 44 13 0 20 7 20 20 0 28 30 26 31 -2 1 -13 5 -4 11 20 9 41
21 52 33 32 3 -5 15 -10 26 -10 10 0 19 5 19 10 0 6 9 10 20 10 11 0 20 6 20
14 0 8 7 16 15 20 8 3 15 12 15 19 0 16 55 31 73 20 6 -3 7 -1 3 5 -4 7 6 13
26 16 18 3 49 8 68 11 19 3 59 8 89 12 43 4 60 12 78 33 26 31 90 46 176 41
26 -2 47 1 47 7 0 5 16 12 36 15 20 3 44 13 54 22 21 19 57 27 65 14 9 -13 25
-11 22 4 -1 7 11 13 31 15 17 2 32 9 32 16 0 8 10 11 30 8 17 -2 45 3 64 12
19 9 38 16 44 16 5 0 23 7 38 15 16 8 37 15 46 15 9 0 29 6 45 14 34 17 89 34
129 40 195 31 328 63 360 87 25 20 163 71 214 79 77 12 86 14 101 26 18 14 99
34 138 34 16 0 33 5 36 10 3 6 25 10 48 10 46 0 169 30 205 49 12 6 22 8 22 4
0 -4 4 -3 10 3 13 13 80 17 80 5z m5855 -423 c13 -3 29 -1 37 3 18 10 52 -16
45 -36 -5 -11 1 -15 26 -16 18 0 26 -3 20 -6 -7 -2 -13 -11 -13 -18 0 -17 -36
-38 -50 -30 -6 3 -10 2 -10 -4 0 -5 6 -12 13 -14 6 -3 2 -6 -10 -6 -13 -1 -23
5 -24 12 0 6 -5 2 -11 -10 -15 -31 -48 -40 -64 -18 -9 11 -22 16 -38 13 -18
-4 -27 1 -35 19 -6 14 -8 29 -5 35 4 6 8 23 9 37 3 46 5 49 23 45 9 -3 26 2
37 10 12 9 15 15 7 16 -10 0 -10 4 0 23 13 21 13 21 16 -14 2 -30 8 -38 27
-41z m16612 3 c21 -6 61 -13 88 -16 91 -10 431 -82 495 -105 14 -4 79 -25 144
-45 108 -34 127 -37 205 -33 65 4 112 14 191 42 286 101 621 188 769 200 74 6
100 -6 93 -40 -2 -13 0 -24 6 -24 5 0 12 -12 15 -27 3 -16 15 -55 26 -87 27
-75 34 -163 15 -170 -8 -3 -14 -14 -14 -25 0 -10 -7 -21 -15 -25 -8 -3 -14
-10 -13 -16 7 -25 -220 -119 -472 -196 -63 -20 -128 -40 -145 -45 -58 -19
-251 -57 -315 -64 -158 -15 -301 -9 -435 19 -257 54 -545 153 -605 207 -14 13
-30 22 -36 21 -17 -3 -47 36 -41 52 4 9 -3 22 -16 31 -12 8 -16 15 -10 15 6 0
9 9 6 19 -4 14 -11 18 -30 15 -23 -4 -25 -3 -18 23 3 15 11 31 17 34 6 4 7 15
4 26 -4 11 -2 31 3 45 6 16 5 42 -1 74 -11 48 -11 49 -21 20 -12 -37 -27 -17
-27 39 0 48 8 61 39 73 18 6 29 4 42 -9 10 -10 35 -22 56 -28z m-17197 -61 c0
-6 12 -16 26 -22 22 -11 28 -10 40 7 8 10 14 14 14 8 0 -6 15 -10 33 -9 30 1
32 -1 29 -28 -2 -20 1 -27 10 -24 17 7 11 -73 -5 -84 -8 -4 -5 -9 6 -14 11 -4
17 -17 17 -38 0 -21 -3 -27 -9 -17 -18 28 -20 -9 -6 -134 6 -58 5 -68 -6 -57
-18 16 -44 15 -59 -3 -9 -11 -16 -12 -25 -5 -8 7 -18 3 -34 -14 -12 -13 -30
-22 -39 -20 -77 15 -72 8 -69 79 1 39 -2 65 -8 65 -6 0 -16 14 -22 31 -14 37
-39 34 -36 -5 1 -14 -3 -26 -8 -26 -5 0 -23 -10 -39 -21 -27 -21 -30 -45 -8
-60 15 -10 -2 -79 -19 -79 -26 0 -53 20 -53 40 0 16 -40 41 -47 29 -3 -4 -83
130 -83 138 0 3 -9 18 -20 33 -11 16 -27 45 -36 65 -14 34 -14 36 12 60 15 14
36 25 48 25 12 0 48 10 81 21 69 24 75 25 175 38 41 5 86 14 100 20 33 13 40
13 40 1z m-5542 -452 c5 -7 12 -47 14 -88 5 -83 20 -111 73 -136 17 -7 37 -18
45 -23 8 -5 56 -29 105 -52 194 -90 200 -93 200 -113 0 -13 -16 -28 -45 -43
-25 -13 -46 -28 -48 -33 -2 -6 -9 -10 -16 -10 -7 0 -23 -12 -37 -26 -42 -45
-155 -105 -236 -125 -79 -20 -238 -65 -348 -99 -33 -10 -105 -26 -160 -36 -55
-9 -112 -23 -127 -31 -15 -7 -35 -13 -45 -13 -10 0 -40 -9 -68 -19 -61 -24
-179 -51 -220 -51 -17 0 -53 -9 -80 -19 -95 -36 -110 -41 -215 -67 -58 -14
-118 -29 -135 -34 -121 -34 -197 -53 -240 -60 -27 -4 -93 -18 -145 -29 -279
-64 -440 -89 -440 -71 0 6 6 10 14 10 8 0 16 7 20 15 4 11 -2 15 -27 15 -18 0
-38 5 -45 12 -9 9 -12 8 -12 -5 0 -9 -6 -17 -14 -17 -9 0 -12 7 -9 20 3 11 0
33 -5 50 -7 18 -7 30 -1 30 19 0 8 18 -15 24 -19 5 -23 11 -20 37 5 42 11 49
40 49 13 0 24 5 24 10 0 13 53 13 66 0 7 -7 17 -3 32 10 11 11 30 20 42 20 11
0 20 6 20 14 0 8 6 16 14 19 19 7 26 54 11 74 -14 18 -81 28 -90 13 -3 -5 -24
-2 -47 6 -41 14 -42 14 -64 -13 -21 -26 -24 -27 -39 -12 -17 16 -34 75 -35
117 0 19 5 22 38 22 30 0 41 5 50 23 6 12 11 16 11 10 1 -21 19 -15 26 8 5 14
13 19 26 16 12 -3 19 0 19 8 0 8 16 17 36 21 19 4 51 21 71 40 20 19 46 34 60
34 13 0 38 7 54 16 19 9 41 13 59 9 18 -4 40 0 58 9 54 28 110 44 120 34 6 -6
18 -6 31 1 11 7 37 12 56 13 19 1 35 4 35 8 0 9 89 38 143 46 26 3 50 10 53
15 3 5 13 9 23 9 10 0 24 7 31 14 6 8 37 20 68 27 31 6 66 16 76 21 11 6 49
11 85 13 67 2 205 37 216 55 3 6 19 10 36 10 16 0 37 4 47 10 20 11 202 51
252 54 19 2 61 15 92 29 32 15 99 34 150 43 51 10 104 26 119 36 14 10 47 21
74 23 26 3 51 7 53 10 9 9 29 5 40 -7z m27024 -98 c-25 -23 -28 -52 -9 -72 28
-29 67 -85 62 -90 -3 -3 1 -11 10 -18 8 -7 15 -20 15 -29 1 -27 34 -116 45
-119 11 -2 16 -84 6 -100 -21 -34 -290 -139 -551 -215 -251 -74 -298 -81 -530
-81 -204 -1 -206 0 -350 36 -168 42 -366 102 -424 127 -23 10 -60 26 -84 36
-49 21 -57 32 -67 95 -4 25 -11 50 -15 55 -12 15 -15 57 -6 82 5 15 13 20 27
18 16 -3 19 0 15 12 -4 9 1 24 9 33 9 10 15 24 14 32 -4 30 2 48 16 48 8 0 15
2 15 5 0 13 -60 62 -95 76 -43 18 -39 22 40 34 76 11 452 -67 670 -140 219
-74 279 -72 510 14 222 83 568 177 664 180 l35 1 -22 -20z m-21682 -471 c0 -5
9 -9 20 -9 11 0 20 -5 20 -11 0 -6 -7 -9 -15 -5 -11 4 -15 -1 -15 -19 0 -26
25 -45 60 -45 12 0 18 -4 15 -11 -4 -6 2 -13 14 -16 12 -3 21 -12 21 -19 0
-20 -51 -7 -71 18 -11 15 -22 18 -37 13 -18 -5 -26 0 -39 23 -15 26 -20 28
-43 19 -27 -10 -84 -4 -109 12 -21 13 3 41 35 41 12 0 25 4 28 9 7 11 116 12
116 0z m24395 -188 c3 -5 1 -12 -5 -16 -5 -3 -10 -15 -10 -26 0 -10 -4 -19
-10 -19 -5 0 -1 -15 10 -32 11 -18 20 -42 20 -54 0 -11 9 -29 20 -39 16 -15
20 -31 20 -82 0 -36 5 -70 13 -79 6 -8 18 -21 24 -29 22 -23 -5 -84 -47 -106
-177 -94 -644 -247 -850 -279 -143 -22 -378 -20 -490 5 -403 88 -747 204 -765
257 -4 13 -9 81 -10 151 -3 119 -1 133 22 185 l25 56 -27 22 c-20 16 -24 23
-14 27 8 3 2 6 -13 6 -31 1 -36 15 -14 37 21 20 34 18 60 -11 27 -29 36 -31
36 -9 0 12 6 15 23 11 12 -3 51 -11 87 -17 167 -30 522 -124 693 -186 132 -47
243 -42 397 16 191 72 498 162 677 200 105 22 120 23 128 11z m-29522 -112
c12 -6 38 -26 57 -44 19 -18 67 -49 105 -68 39 -20 79 -45 91 -55 11 -11 31
-23 45 -27 13 -4 40 -16 59 -27 119 -69 192 -103 251 -119 77 -20 127 -44 150
-70 9 -11 25 -19 35 -19 11 0 35 -9 55 -19 20 -11 69 -24 108 -30 67 -9 75
-13 114 -54 23 -24 59 -52 80 -62 34 -16 66 -59 53 -72 -14 -14 -326 117 -326
137 0 13 -88 33 -122 26 -19 -3 -54 1 -82 9 -76 23 -84 21 -88 -22 -3 -36 -5
-38 -41 -41 -46 -4 -69 12 -65 47 2 17 11 27 28 31 33 8 37 33 8 47 -13 6
-107 52 -209 102 l-185 92 -103 4 c-115 4 -138 -2 -190 -47 -57 -50 -81 -92
-132 -237 -26 -75 -56 -156 -67 -181 -11 -25 -23 -66 -26 -91 -4 -26 -13 -54
-20 -64 -15 -20 -195 -65 -263 -65 -23 0 -44 -4 -47 -9 -3 -5 -27 -12 -52 -16
-26 -4 -54 -10 -63 -15 -47 -24 -97 -42 -139 -50 -94 -16 -183 -39 -195 -48
-7 -6 -30 -13 -52 -16 -105 -15 -122 -20 -145 -36 -49 -35 -140 -58 -187 -48
-33 8 -47 6 -65 -6 -12 -9 -40 -16 -61 -16 -24 0 -50 -9 -70 -22 -37 -27 -39
-27 -126 -35 -36 -3 -68 -9 -71 -13 -9 -12 -145 -39 -171 -33 -24 4 -25 7 -15
29 6 13 14 24 19 24 4 0 7 18 7 40 0 31 -4 40 -17 41 -10 1 -3 6 15 11 30 10
32 14 32 59 0 38 5 51 22 63 20 14 23 14 35 -4 8 -11 18 -20 23 -20 5 0 25
-16 45 -35 19 -20 40 -33 46 -30 6 4 19 -1 29 -10 27 -25 60 -11 60 25 0 16 6
35 13 42 8 7 17 30 21 50 l7 37 -32 -9 c-38 -11 -59 1 -52 30 5 17 2 18 -28
10 -37 -11 -46 -6 -51 30 -5 40 -56 40 -102 0 -23 -20 -40 -29 -48 -23 -7 4
-42 9 -78 10 -36 2 -73 3 -82 3 -9 1 -18 9 -20 18 -3 14 -9 12 -33 -12 -17
-17 -31 -24 -33 -17 -2 6 -7 9 -11 7 -4 -3 -8 0 -8 7 0 7 -4 19 -7 28 -4 9 -1
23 6 30 7 8 13 19 14 24 0 6 7 25 15 43 9 23 20 32 36 32 20 0 23 5 23 41 l0
42 26 -27 c15 -14 35 -26 45 -26 10 0 22 -8 28 -17 7 -14 12 -15 24 -5 12 10
16 9 20 -9 5 -17 9 -19 26 -10 17 10 25 7 49 -19 34 -36 38 -36 52 -10 15 27
3 60 -20 60 -29 0 -50 11 -50 26 0 7 5 36 11 64 8 40 16 51 34 56 13 3 31 14
41 25 9 10 29 19 44 19 15 0 33 7 40 15 7 8 20 15 28 15 29 0 107 34 120 51
13 19 46 29 105 31 20 1 37 4 37 8 0 10 98 50 122 50 11 0 41 7 67 15 95 30
268 77 331 90 98 20 192 46 222 61 15 8 36 14 48 14 11 0 31 6 43 14 12 7 60
19 107 26 47 6 97 18 112 26 15 8 69 24 119 35 51 11 97 23 103 27 21 12 251
70 284 71 18 1 43 -4 55 -10z m8200 -342 c23 -13 85 -40 137 -62 160 -65 197
-83 245 -120 31 -23 57 -35 79 -35 43 0 66 -19 69 -55 2 -25 -2 -31 -21 -33
-13 -2 -31 3 -40 11 -21 18 -89 47 -95 40 -11 -10 -236 71 -392 141 -27 12
-81 36 -118 52 -70 29 -102 64 -95 102 8 40 118 21 231 -41z m-6877 -76 c28 5
64 -3 62 -13 -2 -6 7 -17 19 -23 13 -7 31 -19 40 -27 27 -23 46 -27 91 -18 61
11 92 2 92 -25 0 -12 10 -33 23 -47 18 -20 30 -24 55 -20 18 2 35 8 38 13 15
24 106 -6 157 -52 10 -9 32 -19 48 -23 16 -3 29 -10 29 -15 0 -12 -21 -18 -92
-27 -48 -5 -59 -4 -64 10 -9 22 -23 20 -17 -3 3 -12 -5 -25 -24 -38 -47 -33
-61 -35 -78 -9 -8 13 -56 42 -108 66 -50 23 -117 54 -147 68 -134 62 -236 115
-254 132 -18 18 -18 18 4 30 12 6 28 9 36 6 8 -3 14 -2 14 3 0 14 44 29 56 19
7 -5 16 -8 20 -7z m4434 -179 c3 -4 19 -14 35 -22 20 -11 31 -24 33 -43 4 -34
-21 -46 -47 -23 -10 9 -25 16 -34 16 -9 0 -17 7 -17 15 0 28 -38 15 -83 -29
-37 -36 -47 -53 -53 -92 -7 -51 -34 -90 -57 -81 -7 3 -24 27 -37 54 -14 31
-33 54 -50 62 -27 11 -27 13 -16 51 15 51 31 69 48 52 15 -15 80 -16 94 -2 6
6 37 21 70 34 54 23 100 26 114 8z m-1855 -58 c15 -15 61 -20 87 -9 24 10 34
-19 21 -56 -8 -20 -8 -29 1 -33 6 -3 -4 -3 -21 0 -25 4 -33 2 -33 -9 0 -21
-75 -46 -145 -48 -33 -1 -67 -7 -76 -12 -9 -6 -23 -8 -31 -4 -13 4 -14 15 -6
61 9 58 36 101 73 116 31 13 115 9 130 -6z m1478 -203 c3 -16 13 -36 22 -44 8
-9 15 -25 15 -36 0 -11 6 -24 13 -28 7 -4 21 -21 31 -37 24 -37 37 -19 31 44
-3 31 -2 37 3 20 4 -14 20 -31 34 -38 17 -8 25 -18 21 -27 -3 -8 -9 -15 -13
-15 -4 0 -10 -8 -13 -17 -3 -10 -13 -36 -21 -58 l-15 -40 -1 33 c0 36 -20 45
-20 10 0 -13 -5 -30 -10 -38 -8 -12 -10 -8 -11 15 -2 32 -5 62 -7 83 -2 14
-32 17 -32 2 0 -6 -12 -5 -32 3 -32 13 -35 19 -41 100 -2 26 -7 50 -10 53 -7
7 25 42 39 43 6 1 14 -12 17 -28z m-690 -75 c-5 -27 24 -45 33 -21 9 21 24 19
24 -4 0 -11 -7 -47 -16 -81 -13 -50 -13 -67 -3 -91 14 -36 33 -33 37 5 3 22 6
25 17 16 11 -9 17 -5 30 19 8 17 18 31 21 31 16 0 55 -51 68 -88 14 -40 14
-44 -4 -62 -25 -25 -29 -25 -23 1 5 18 2 19 -23 13 -16 -4 -33 -13 -37 -21 -6
-9 -18 -13 -31 -9 -18 4 -23 -1 -34 -34 -6 -22 -12 -46 -12 -54 0 -8 -7 -16
-15 -20 -8 -3 -15 -14 -15 -25 0 -37 -11 -53 -27 -40 -18 16 -47 79 -44 100 1
8 -3 26 -8 40 -9 22 -10 21 -10 -13 -1 -21 -6 -38 -12 -38 -11 0 -8 -57 6
-105 3 -11 -5 0 -17 25 -19 38 -23 42 -26 23 -2 -13 -6 -23 -8 -23 -11 0 -49
23 -56 34 -5 6 -7 -5 -6 -24 1 -19 -2 -58 -6 -86 l-8 -51 38 -8 c35 -6 40 -4
64 24 l25 32 -2 -88 -1 -88 -36 -9 c-29 -8 -36 -14 -38 -40 -3 -27 -5 -28 -12
-11 -25 65 -46 72 -46 16 0 -39 -13 -55 -23 -28 -3 6 -6 -3 -6 -20 -1 -37 -13
-42 -33 -15 -16 23 -48 25 -48 3 0 -12 -3 -11 -14 4 -12 17 -14 15 -20 -20 -5
-27 -4 -40 5 -46 10 -6 9 -9 -4 -15 -9 -3 -24 -1 -31 5 -11 9 -17 7 -29 -10
-10 -13 -27 -22 -46 -23 -16 -1 -33 -5 -37 -9 -4 -4 -13 -7 -21 -7 -8 0 -26
-8 -40 -17 -37 -25 -147 -62 -213 -73 -30 -5 -63 -13 -75 -18 -38 -17 -90 -34
-118 -39 -23 -5 -29 -1 -35 18 l-6 24 -6 -25 c-5 -20 -16 -27 -55 -37 -47 -12
-70 -10 -50 5 6 4 12 23 13 42 2 19 9 44 15 55 22 42 73 104 85 105 8 0 12 23
12 79 0 44 5 83 10 86 6 3 10 22 10 42 0 24 10 47 31 74 33 42 58 48 104 27
21 -9 28 -9 35 1 4 8 12 11 18 7 6 -3 13 -2 17 3 14 23 -112 52 -127 29 -11
-18 -25 5 -33 54 -4 20 -13 42 -21 49 -12 10 -13 6 -7 -22 l6 -34 -25 30 c-14
17 -45 36 -68 43 -88 27 -130 52 -138 86 -8 29 -11 31 -47 28 -30 -3 -37 -1
-32 11 3 9 0 14 -11 13 -9 0 -18 6 -20 15 -2 12 3 15 21 12 15 -3 34 4 53 19
33 27 84 51 92 44 2 -3 13 -1 23 4 9 6 34 13 55 16 21 3 69 15 108 26 119 33
180 33 191 -2 8 -25 47 -14 75 23 12 15 30 27 40 27 9 0 23 7 30 15 14 17 65
21 55 5 -3 -5 2 -10 12 -10 21 1 55 24 53 37 0 4 7 9 17 11 12 2 22 -8 32 -30
49 -119 61 -129 103 -86 24 24 26 32 17 49 -8 16 -7 25 7 40 9 10 23 19 30 19
7 0 28 9 46 19 27 16 43 18 88 11 30 -4 57 -4 60 0 3 3 13 9 23 13 9 3 17 13
17 22 0 9 9 15 24 15 19 0 22 -4 19 -24z m2972 -65 c73 -35 100 -45 155 -57
100 -22 284 -91 302 -114 26 -32 22 -43 -12 -36 -24 4 -30 2 -28 -9 2 -8 -6
-28 -17 -45 -25 -38 -35 -36 -145 30 -142 84 -190 106 -200 91 -6 -10 -20 -1
-57 38 -27 28 -55 51 -63 51 -18 0 -50 29 -50 46 0 28 60 31 115 5z m-10026
-53 c-6 -46 2 -69 27 -79 32 -11 64 -3 64 17 0 8 7 14 15 14 9 0 15 -9 15 -25
0 -14 -6 -25 -13 -25 -8 0 -20 -11 -27 -25 -7 -14 -17 -25 -21 -25 -13 0 -20
18 -9 25 21 13 9 25 -26 25 -32 0 -35 -2 -29 -22 15 -48 38 -89 64 -111 14
-12 27 -32 29 -44 3 -19 -1 -23 -26 -23 -21 0 -37 10 -60 39 -28 35 -32 47
-32 100 0 53 -2 61 -19 61 -24 0 -32 -21 -24 -61 5 -28 4 -30 -13 -21 -10 5
-23 10 -29 11 -5 1 -10 13 -10 29 0 22 4 26 21 24 17 -2 24 5 33 29 11 31 15
87 4 61 -7 -18 -33 4 -33 29 0 29 19 32 40 7 l18 -23 12 30 c10 26 13 28 21
13 6 -10 9 -24 8 -30z m1877 -162 c-13 -114 -21 -131 -68 -147 -24 -8 -49 -12
-57 -11 -21 5 -31 -18 -18 -40 10 -16 9 -22 -6 -33 -16 -11 -17 -18 -7 -54 10
-39 12 -40 43 -34 18 3 34 7 36 9 2 2 11 -2 19 -8 11 -10 17 -9 27 5 15 21 31
22 43 1 6 -10 12 -13 16 -6 9 15 38 5 165 -61 113 -58 191 -110 191 -127 0 -4
-32 -30 -72 -56 -85 -58 -102 -73 -122 -112 -11 -22 -25 -31 -53 -36 -62 -10
-97 -7 -121 10 -16 11 -34 14 -62 9 -30 -5 -53 -1 -102 21 -62 27 -113 68
-103 84 3 4 -2 21 -10 36 -10 20 -15 24 -15 11 0 -34 -29 -30 -63 7 -31 33
-67 48 -67 27 0 -16 -44 -21 -60 -6 -8 7 -37 19 -63 26 -39 9 -57 22 -94 65
-38 44 -53 54 -78 54 -21 0 -40 9 -55 25 -13 14 -27 25 -32 25 -4 0 -16 -18
-25 -40 -21 -47 -38 -56 -69 -35 -22 14 -24 14 -24 0 0 -9 -4 -13 -10 -10 -5
3 -15 3 -22 -1 -8 -5 -6 -10 8 -16 13 -5 8 -6 -13 -2 -20 3 -33 1 -33 -5 0 -5
-10 -11 -22 -13 -23 -3 -24 -3 -48 -130 -5 -26 -20 -63 -34 -81 -14 -19 -26
-45 -26 -58 0 -35 -15 -53 -38 -47 -16 5 -21 -1 -25 -30 -4 -19 -4 -56 -2 -81
2 -25 2 -37 -1 -26 -4 11 -11 26 -16 33 -6 7 -12 30 -14 53 -4 48 -11 62 -27
52 -7 -5 -21 -8 -32 -8 -24 0 -24 -38 1 -62 8 -9 14 -27 12 -41 -2 -20 -9 -26
-30 -27 -18 0 -28 4 -28 13 0 9 -8 7 -26 -7 -34 -27 -42 -26 -50 4 -3 14 -10
25 -15 25 -5 0 -9 10 -9 21 0 18 4 20 25 15 14 -3 36 -9 50 -12 22 -6 25 -3
25 19 0 14 3 34 6 44 4 12 3 14 -3 6 -11 -16 -78 -6 -95 14 -9 11 -9 16 2 23
9 6 17 4 22 -3 13 -22 29 7 22 41 -7 37 -24 43 -24 10 0 -18 -2 -20 -10 -8 -8
12 -13 11 -34 -9 -36 -34 -58 -24 -82 38 -12 30 -30 58 -39 64 -15 8 -16 5
-10 -24 4 -19 16 -47 27 -62 19 -28 19 -29 1 -42 -13 -10 -20 -10 -25 -2 -5 8
-9 6 -14 -6 -8 -22 -38 -22 -59 -1 -15 15 -17 15 -22 -5 -6 -23 -27 -24 -29 0
0 8 -2 23 -2 35 -1 12 -11 31 -22 44 -18 20 -23 22 -46 11 -14 -6 -31 -8 -37
-4 -7 4 -19 8 -27 8 -53 4 -52 4 -48 35 3 17 0 30 -5 30 -6 0 -7 3 -4 6 4 4
17 0 30 -9 19 -12 26 -13 41 -1 12 8 17 21 13 34 -12 45 48 110 101 110 11 0
25 7 32 15 7 8 28 17 49 21 20 4 53 16 74 27 30 17 40 19 46 8 7 -10 9 -10 14
2 5 13 49 27 89 28 10 0 31 13 47 30 16 16 39 29 50 29 11 0 23 5 26 10 3 6
19 10 36 10 16 0 29 4 29 9 0 5 26 13 58 17 31 3 69 13 84 20 15 8 39 14 53
14 15 0 33 7 41 15 9 8 24 15 35 15 11 0 31 7 45 16 18 12 37 15 69 10 37 -5
49 -2 65 14 11 11 30 20 43 21 12 0 37 2 54 3 18 2 37 -2 43 -9 9 -11 20 -8
55 16 98 66 199 97 249 74 12 -5 17 -5 13 1 -3 6 -3 14 1 19 9 13 126 46 177
50 22 2 51 8 65 13 14 5 29 7 34 5 4 -3 5 -33 2 -67z m5664 -201 c16 -19 7
-94 -12 -107 -7 -5 -23 -7 -35 -5 -14 3 -23 -1 -23 -8 0 -12 -42 -25 -80 -25
-19 0 -44 46 -30 55 4 3 10 0 12 -7 2 -6 12 7 21 30 18 46 32 53 42 23 3 -12
12 -18 20 -15 8 3 11 12 8 20 -3 8 -1 14 5 14 5 0 12 -9 15 -20 3 -11 10 -20
16 -20 6 0 8 7 5 15 -8 19 3 65 15 65 5 0 14 -7 21 -15z m-284 -56 c8 -16 14
-44 14 -63 0 -19 5 -38 10 -41 6 -3 10 -16 10 -29 0 -12 5 -27 12 -34 15 -15
5 -25 -44 -51 -40 -20 -69 -12 -61 17 3 14 12 17 39 14 22 -3 34 0 34 8 0 13
-40 73 -52 78 -4 2 -8 8 -8 14 0 5 -10 18 -22 28 l-22 18 24 45 c27 50 38 49
66 -4z m-4561 -375 c22 -12 51 -24 65 -27 14 -4 49 -23 79 -42 30 -20 68 -39
85 -42 44 -8 94 -40 102 -66 20 -66 100 -118 128 -83 6 8 31 20 55 26 40 10
46 10 58 -6 19 -26 17 -31 -19 -47 -56 -25 -67 -27 -80 -13 -10 11 -15 11 -26
-1 -8 -7 -22 -11 -32 -8 -10 3 -21 1 -25 -5 -13 -21 -50 -10 -67 19 -18 33
-84 59 -115 46 -17 -8 -17 -8 0 -12 9 -3 17 -9 17 -14 0 -18 -41 -8 -88 21
-27 17 -55 30 -63 30 -8 0 -27 8 -44 18 -16 10 -42 22 -57 25 -15 4 -35 18
-44 32 -10 15 -32 29 -58 35 -40 11 -86 30 -96 40 -3 3 -24 12 -48 20 -23 7
-47 19 -53 26 -8 10 1 9 36 -2 44 -16 47 -15 68 4 31 28 62 42 110 51 45 8 51
7 112 -25z m13875 -78 c0 -13 -152 -63 -220 -72 -25 -4 -49 -10 -55 -14 -13
-9 -99 -30 -122 -30 -14 1 -13 4 7 14 14 8 28 12 32 10 5 -3 8 -1 8 5 0 24 32
41 67 35 28 -5 39 -2 61 18 35 32 77 48 135 51 25 2 50 6 53 10 9 9 34 -11 34
-27z m-9455 -62 c15 -10 25 -26 25 -40 0 -12 5 -26 10 -29 6 -3 10 1 10 9 0 9
5 16 10 16 6 0 10 6 9 13 -3 27 2 37 20 37 25 0 31 -18 25 -74 -4 -43 6 -60
21 -36 5 8 11 7 21 -1 11 -9 16 -6 24 16 5 14 10 42 10 61 0 19 4 34 10 34 13
0 30 -34 30 -62 0 -13 4 -18 8 -13 8 13 27 13 38 2 5 -4 2 -12 -5 -16 -11 -7
-10 -14 2 -42 9 -19 19 -45 22 -58 6 -20 4 -23 -9 -18 -13 5 -15 2 -10 -21 8
-33 24 -53 24 -29 0 9 7 17 16 17 16 0 15 19 -2 64 -3 9 -1 16 5 16 6 0 13
-12 17 -27 10 -49 14 -49 8 -1 l-5 47 33 -9 c18 -6 39 -8 48 -5 26 8 37 -8 43
-62 7 -59 -4 -69 -23 -23 -7 17 -16 30 -21 30 -14 0 -10 -34 7 -58 11 -17 12
-22 2 -22 -7 0 0 -7 17 -16 27 -14 30 -14 42 2 12 16 13 17 13 1 0 -9 5 -17
11 -17 7 0 8 11 4 31 -10 43 14 34 37 -14 10 -20 26 -41 37 -46 12 -7 21 -26
25 -55 4 -25 11 -48 17 -51 5 -4 9 -15 9 -25 0 -10 4 -20 8 -22 4 -1 5 -16 2
-33 l-7 -30 -11 25 c-6 14 -19 53 -29 88 -14 49 -24 66 -45 76 -21 11 -28 11
-31 1 -6 -14 34 -138 46 -143 4 -2 7 -10 7 -17 0 -7 6 -15 12 -17 9 -3 4 -15
-13 -35 -14 -17 -31 -28 -37 -24 -19 12 -34 65 -33 114 1 27 -2 47 -9 47 -5 0
-10 -5 -10 -11 0 -6 -13 -1 -29 10 -26 19 -57 91 -50 116 4 14 -40 95 -51 95
-13 0 -13 -30 0 -50 7 -11 4 -20 -13 -33 -12 -10 -17 -16 -11 -13 6 3 10 -4 9
-17 -1 -15 9 -26 37 -40 21 -11 38 -23 38 -27 0 -5 7 -16 17 -25 11 -11 13
-19 6 -23 -8 -5 -7 -21 2 -52 26 -92 26 -92 52 -86 18 5 25 1 32 -16 21 -58
22 -66 4 -72 -10 -4 -19 -2 -21 3 -5 16 -22 13 -22 -4 0 -10 -10 -15 -30 -15
-16 0 -30 4 -30 8 0 5 -16 9 -35 10 l-35 1 0 -51 c0 -39 -3 -49 -11 -41 -7 7
-12 46 -12 90 -1 68 1 78 16 75 9 -2 17 1 17 6 0 16 -25 32 -51 32 -18 0 -33
9 -45 28 l-18 27 -11 -45 c-7 -25 -10 -63 -7 -84 4 -34 3 -38 -11 -33 -14 5
-17 -1 -17 -40 0 -39 -2 -44 -12 -31 -7 8 -28 18 -45 22 l-33 5 4 -52 c2 -28
7 -61 12 -72 8 -20 7 -20 -11 -1 -13 12 -20 15 -23 7 -5 -15 7 -46 15 -38 11
11 33 -14 33 -38 0 -31 -45 -61 -66 -44 -11 9 -14 8 -14 -5 0 -9 -5 -16 -11
-16 -6 0 -10 12 -9 28 4 53 0 81 -13 94 -12 12 -29 56 -32 83 -1 6 -11 28 -23
50 -17 33 -21 36 -22 17 0 -13 -4 -20 -10 -17 -14 9 -16 -41 -3 -75 3 -8 5
-34 4 -57 -2 -38 1 -44 26 -55 15 -7 29 -13 31 -14 2 -1 5 -14 8 -29 3 -15 6
-33 7 -39 2 -13 -32 -9 -50 6 -7 6 -13 17 -13 24 0 8 -4 14 -10 14 -5 0 -10
-7 -10 -15 0 -28 -30 -15 -54 23 -13 20 -31 44 -41 52 -17 14 -18 13 -13 -13
6 -31 4 -32 -69 -9 -20 6 -33 7 -33 1 0 -5 7 -9 15 -9 8 0 15 -7 15 -16 0 -8
4 -13 9 -9 11 6 41 -49 41 -74 0 -9 -9 -2 -22 17 -15 24 -23 30 -29 21 -4 -7
-6 -16 -3 -21 4 -6 -27 -28 -40 -28 -3 0 -6 14 -6 31 0 34 -19 119 -30 134 -4
6 -11 25 -15 43 -3 18 -15 37 -25 42 -16 9 -18 6 -15 -27 2 -21 12 -43 22 -50
12 -10 18 -29 19 -67 1 -31 9 -64 18 -77 20 -29 20 -39 1 -39 -8 0 -24 -6 -35
-12 -17 -11 -22 -9 -35 10 -14 19 -45 31 -45 18 0 -18 17 -39 36 -47 29 -10
34 -52 7 -47 -10 1 -24 -1 -30 -5 -15 -10 -33 -1 -33 16 -1 12 -50 54 -50 42
0 -3 6 -21 14 -40 8 -19 12 -36 8 -38 -22 -13 -65 -16 -83 -6 -16 8 -23 7 -33
-6 -18 -25 -110 -11 -124 19 -24 52 -32 79 -32 104 0 16 -8 32 -20 40 -17 11
-20 10 -20 -7 0 -11 4 -21 9 -23 5 -1 12 -16 16 -33 l6 -30 -19 22 c-21 24
-32 21 -32 -9 0 -19 -15 -24 -25 -9 -12 21 -61 38 -77 27 -12 -7 -24 -3 -48
17 -17 15 -38 27 -45 27 -8 0 -18 7 -23 16 -6 11 -27 18 -58 21 -37 3 -58 12
-91 39 -45 37 -51 49 -30 57 17 7 28 -1 50 -35 25 -40 47 -36 47 8 0 40 -26
80 -66 100 -43 22 -50 18 -46 -28 l3 -43 -26 59 c-30 71 -31 86 -6 86 24 0 31
18 18 48 -7 15 -19 22 -37 22 -14 0 -32 6 -38 12 -10 10 -14 8 -18 -9 -3 -12
-12 -19 -18 -17 -8 3 -12 -4 -12 -18 1 -20 24 -40 50 -42 17 -2 26 -57 13 -78
-9 -16 -9 -22 0 -25 25 -9 58 -41 50 -49 -4 -5 -11 -4 -15 2 -12 18 -69 33
-107 28 -23 -3 -35 0 -36 8 0 7 -1 35 -2 62 -2 51 -20 73 -30 36 -3 -11 -1
-20 4 -20 5 0 9 -10 9 -22 0 -12 -3 -18 -6 -15 -4 3 -15 2 -25 -4 -14 -7 -19
-6 -19 3 0 8 -9 21 -20 30 -17 15 -21 15 -34 3 -16 -16 -28 -6 -65 55 -32 53
-25 16 10 -56 22 -44 37 -64 50 -64 20 0 56 -46 45 -57 -4 -4 -22 -6 -41 -5
-38 3 -96 -29 -130 -70 -28 -34 -85 -155 -109 -230 -8 -25 -31 -22 -44 5 -10
22 -11 22 -11 -5 -1 -16 4 -28 12 -28 6 0 4 -5 -5 -11 -10 -5 -18 -16 -18 -24
0 -18 -59 -87 -70 -80 -4 2 -13 -8 -21 -23 -7 -15 -15 -29 -16 -31 -1 -2 -8 1
-16 7 -10 9 -17 1 -32 -38 -11 -28 -23 -50 -27 -50 -4 0 -8 -11 -8 -25 0 -29
-25 -34 -39 -7 -5 10 -7 47 -4 82 3 36 3 62 -1 58 -4 -3 -8 -12 -10 -20 -1 -7
-4 -17 -8 -23 -16 -27 -17 -72 -3 -99 18 -33 15 -38 -40 -65 -39 -19 -40 -19
-47 0 -11 28 -26 23 -20 -7 4 -23 2 -25 -17 -19 -17 5 -21 2 -21 -17 0 -21 -5
-24 -35 -25 -28 -1 -35 3 -35 18 0 10 4 19 8 19 11 0 32 46 32 69 0 17 20 33
45 35 6 1 11 12 12 26 6 94 46 190 78 190 16 0 25 70 18 132 -5 40 -3 48 11
48 11 0 16 9 16 31 0 43 21 60 64 53 36 -5 36 -5 24 20 -11 26 -28 35 -28 16
0 -5 -4 -10 -10 -10 -5 0 -10 9 -10 20 0 19 -12 24 -50 22 -8 0 -26 5 -40 13
-14 7 -59 29 -100 50 -41 20 -93 48 -114 60 -22 13 -44 21 -50 19 -15 -5 -116
90 -116 110 0 16 90 66 120 66 18 0 60 -35 60 -50 0 -6 4 -10 10 -10 5 0 13
18 16 40 6 40 7 40 26 23 19 -17 19 -17 13 10 -8 30 5 34 62 18 25 -7 33 -6
37 6 5 13 8 12 22 -1 8 -9 20 -13 25 -10 6 3 17 -2 25 -12 16 -19 16 -18 0 34
-9 28 18 31 47 5 19 -18 19 -17 13 13 -7 31 -6 32 31 36 21 3 44 0 52 -6 12
-9 13 -8 8 6 -8 22 9 35 68 49 50 12 66 17 118 38 45 18 66 14 80 -16 6 -16
14 -30 18 -33 10 -8 22 -81 23 -136 0 -55 18 -65 30 -18 9 33 19 30 68 -16 39
-36 44 -38 55 -24 8 12 10 36 6 77 -6 57 -5 60 15 55 23 -6 34 17 25 52 -8 30
-63 28 -63 -2 0 -12 -5 -38 -11 -57 -7 -20 -14 -43 -16 -51 -3 -11 -6 -12 -12
-2 -4 7 -14 10 -22 7 -21 -8 -47 16 -54 50 -5 23 -4 26 4 15 9 -12 11 -11 11
9 0 16 -4 21 -14 18 -12 -5 -13 -1 -4 24 7 20 15 28 25 25 11 -4 13 3 11 31
-3 30 0 36 18 38 19 1 21 -3 18 -44 -2 -25 -1 -38 2 -28 6 18 24 24 24 7 0
-23 21 -7 27 20 3 17 9 30 14 30 5 0 15 13 24 30 10 18 20 27 30 24 7 -3 27 1
42 9 15 9 57 21 92 27 56 10 65 10 73 -4 6 -11 17 -14 34 -10 19 5 24 2 25
-12 1 -17 2 -17 6 -1 2 9 8 17 13 17 5 0 15 3 24 6 9 3 16 1 16 -5 0 -6 -3
-10 -7 -10 -19 3 -27 -2 -14 -10 10 -7 11 -13 1 -31 -14 -27 -6 -64 21 -91 20
-20 22 -20 40 -3 10 9 19 25 19 34 0 9 5 21 12 28 9 9 7 16 -6 31 -10 11 -23
19 -30 18 -6 -1 -15 13 -20 31 -6 17 -16 32 -23 32 -11 0 -11 5 -3 20 6 11 20
20 31 20 11 0 37 9 58 19 39 20 97 25 107 9 3 -5 14 -6 25 -3 14 5 19 2 19
-13 0 -11 -5 -22 -12 -24 -16 -6 -13 -78 3 -89 22 -13 32 19 26 85 l-5 61 36
23 c39 26 97 25 114 0 8 -13 8 -14 12 23 1 13 37 29 48 23 4 -3 13 5 21 16 11
16 21 19 48 14 19 -4 39 -11 46 -16 7 -5 14 -5 17 1 4 6 12 8 19 6 7 -3 22 11
35 30 12 19 29 35 36 35 26 0 46 -12 46 -27 0 -21 -25 -42 -39 -33 -20 12 -52
0 -49 -19 5 -23 36 -26 59 -5 17 16 22 16 29 4 8 -12 10 -11 11 5 1 11 0 30
-1 43 -1 19 3 22 34 22 20 0 36 -4 36 -10 0 -5 -4 -10 -8 -10 -15 0 -11 -41 6
-61 31 -36 45 -24 38 32 -6 44 -5 51 8 46 9 -4 18 -2 21 3 4 6 1 10 -4 10 -6
0 -11 9 -11 20 0 16 6 20 28 19 35 -2 128 23 144 39 17 17 54 15 83 -4z
m-4833 -54 c20 -10 65 -24 100 -30 61 -11 99 -27 146 -62 13 -9 45 -24 72 -33
30 -10 61 -30 80 -52 33 -37 34 -50 7 -67 -13 -8 -22 -5 -44 15 -39 36 -69 53
-138 78 -33 12 -80 33 -105 46 -25 13 -85 42 -134 65 -96 43 -119 58 -111 70
7 11 82 -7 127 -30z m2678 -115 c16 19 61 19 106 0 53 -22 201 -37 220 -23 7
5 14 2 18 -9 6 -15 8 -15 16 -3 7 12 10 12 16 -3 9 -25 -22 -46 -68 -47 -58 0
-141 -21 -167 -41 -27 -22 -77 -25 -84 -6 -4 7 -8 3 -13 -11 -4 -14 -12 -21
-20 -18 -7 3 -16 1 -19 -4 -3 -5 -23 -8 -45 -8 -33 0 -40 4 -40 20 0 14 5 18
15 14 20 -7 19 -2 -15 82 -16 41 -27 78 -24 83 3 6 25 -1 49 -15 37 -22 44
-24 55 -11z m10590 -26 c0 -7 11 -8 29 -4 47 10 45 -11 -4 -35 -64 -31 -142
-53 -200 -56 -27 -1 -61 -5 -75 -9 l-25 -6 25 11 c14 6 37 25 52 43 17 21 45
38 80 49 62 19 118 23 118 7z m-15010 -76 c0 -7 6 -13 14 -13 9 0 12 9 9 28
-3 19 -2 23 5 13 7 -9 16 -11 28 -6 11 5 24 7 31 6 6 -1 14 3 18 8 11 20 35
-1 35 -31 0 -21 -6 -31 -20 -35 -11 -3 -20 -8 -20 -12 0 -4 -34 -15 -76 -25
-71 -17 -78 -17 -86 -2 -13 23 -22 20 -35 -14 -7 -20 -20 -31 -39 -35 -16 -4
-38 -10 -49 -15 -19 -8 -43 -14 -105 -25 -14 -2 -40 -7 -58 -11 -27 -5 -31 -4
-26 10 3 9 11 13 16 9 7 -4 9 4 4 23 -3 16 -9 65 -13 108 l-6 80 23 -22 c13
-12 33 -22 44 -22 11 0 33 -12 49 -27 20 -19 31 -24 34 -15 3 6 15 12 28 12
12 0 28 7 35 15 8 10 29 14 69 12 55 -2 56 -2 60 28 l4 30 13 -30 c7 -16 13
-36 14 -42z m14493 -87 c22 -17 19 -19 -86 -56 -106 -37 -160 -42 -165 -17 -2
10 5 25 15 32 26 21 121 47 143 40 10 -3 21 -1 25 5 9 14 47 12 68 -4z m-559
-155 c20 -22 8 -35 -44 -46 -19 -3 -53 -15 -75 -25 -46 -20 -141 -36 -148 -23
-19 33 70 86 139 82 16 -1 43 6 59 15 38 20 48 20 69 -3z m-2592 -21 c31 -11
75 -22 99 -26 24 -4 60 -14 79 -24 19 -9 58 -23 85 -30 28 -7 62 -22 77 -32
14 -10 38 -18 53 -18 38 0 85 -27 124 -72 33 -39 34 -39 97 -36 54 2 66 -1 88
-21 29 -27 36 -49 25 -79 -7 -17 -16 -22 -44 -22 -36 0 -109 38 -117 62 -3 9
-27 13 -74 13 -72 1 -97 8 -237 69 -21 9 -43 16 -50 16 -7 0 -59 23 -117 50
-58 28 -115 50 -128 50 -25 0 -82 50 -82 72 0 25 23 45 55 47 6 1 36 -8 67
-19z m2022 -139 c23 -25 14 -39 -32 -47 -20 -4 -55 -15 -77 -25 -23 -10 -67
-21 -97 -25 l-56 -6 5 26 c7 33 80 70 127 63 19 -2 42 3 61 14 38 24 48 24 69
0z m4819 -16 c12 -11 17 -12 20 -2 4 9 8 8 16 -3 15 -22 13 -40 -4 -40 -8 0
-15 -4 -15 -9 0 -5 -19 -12 -42 -16 -24 -4 -67 -18 -97 -31 -32 -15 -73 -24
-103 -24 -27 0 -65 -7 -86 -16 -20 -8 -59 -20 -87 -25 -27 -5 -77 -22 -110
-38 -76 -37 -101 -45 -145 -47 -39 -1 -54 -5 -120 -28 -25 -9 -61 -16 -80 -16
-19 0 -43 -7 -54 -15 -10 -8 -42 -19 -71 -25 -29 -6 -64 -21 -77 -33 -30 -28
-98 -50 -158 -52 -60 -2 -161 -22 -174 -35 -5 -5 -19 -10 -31 -10 -42 0 -140
-32 -171 -55 -22 -17 -46 -25 -71 -25 -28 0 -42 -6 -51 -21 -11 -18 -20 -20
-65 -14 -46 5 -68 0 -187 -44 -98 -35 -140 -46 -152 -40 -14 7 -25 2 -49 -21
-33 -31 -84 -41 -105 -20 -8 8 -11 1 -12 -21 -1 -48 -14 -54 -61 -27 -32 18
-41 29 -41 50 0 23 5 28 35 34 19 3 42 4 50 0 9 -3 15 0 15 8 0 14 74 31 91
21 5 -4 21 -8 35 -11 20 -4 27 0 31 16 4 14 11 19 22 15 20 -6 81 21 81 36 0
5 19 9 43 8 51 -1 97 9 118 27 9 8 18 11 21 8 4 -3 9 3 12 14 7 22 60 36 99
27 17 -5 26 -2 30 9 5 12 21 16 61 16 63 0 184 26 206 44 31 25 197 100 240
108 25 5 79 13 120 18 41 5 95 14 118 19 24 5 52 6 62 4 14 -4 21 2 25 20 5
20 15 26 53 31 94 14 139 31 147 57 5 16 12 19 41 13 45 -8 196 16 209 34 6 7
39 17 74 21 51 6 67 13 84 34 18 22 37 30 104 41 45 8 92 21 105 30 28 20 33
20 51 1z m-5369 -144 c16 -18 16 -20 -6 -35 -12 -9 -29 -16 -36 -16 -8 0 -28
-6 -45 -14 -32 -14 -161 -46 -185 -46 -9 0 -12 11 -10 32 3 30 7 33 68 50 36
10 85 25 110 33 62 19 84 18 104 -4z m-5489 -183 c19 -9 28 -9 37 0 7 7 28 12
47 12 33 0 34 -1 16 -14 -11 -7 -32 -16 -47 -20 -15 -3 -29 -15 -33 -26 -3
-11 -14 -19 -23 -18 -48 4 -84 -4 -102 -22 -12 -12 -25 -18 -30 -15 -5 3 -19
1 -30 -5 -19 -10 -19 -13 -5 -40 9 -17 11 -30 6 -30 -5 0 -11 -6 -14 -12 -2
-7 -2 -3 0 10 2 12 -1 31 -7 42 -12 23 -48 27 -56 6 -3 -8 -13 -12 -25 -9 -15
4 -18 2 -13 -12 6 -15 4 -15 -14 -4 -24 15 -40 6 -25 -13 26 -34 62 -168 45
-168 -5 0 -14 18 -21 40 -11 38 -25 54 -46 55 -12 1 -8 49 4 53 5 2 7 12 4 23
-4 15 -11 18 -27 13 -32 -9 -41 -21 -28 -37 7 -8 9 -17 6 -20 -4 -3 -7 -30 -8
-59 -1 -62 -21 -64 -22 -3 -1 84 -3 95 -20 88 -10 -4 -12 -8 -5 -12 7 -4 3
-13 -10 -24 -11 -10 -18 -23 -15 -30 2 -7 10 -30 17 -52 7 -22 16 -42 19 -45
7 -6 21 -40 16 -40 -2 0 -25 22 -53 49 -42 41 -53 47 -80 44 -22 -4 -37 1 -52
16 -12 12 -27 21 -35 21 -34 0 29 -146 86 -200 36 -33 67 -82 61 -97 -4 -11
-11 -9 -33 12 -32 31 -40 26 -33 -24 4 -26 0 -42 -11 -53 -13 -13 -14 -22 -4
-50 6 -18 14 -37 18 -43 4 -5 10 -21 13 -34 l6 -24 -27 25 c-30 28 -62 26 -62
-3 0 -10 -4 -19 -9 -19 -5 0 -13 -10 -17 -22 -6 -19 -7 -19 -16 -4 -5 9 -12
15 -16 12 -6 -4 -6 91 0 139 2 11 -4 21 -14 23 -13 2 -15 -2 -11 -20 l5 -23
-19 21 c-23 25 -73 57 -80 50 -3 -2 0 -20 6 -38 9 -28 8 -40 -7 -72 l-19 -39
-16 23 c-14 20 -16 20 -25 4 -9 -16 -10 -15 -17 5 -3 11 -10 19 -15 16 -14 -8
-30 30 -30 69 0 30 -4 36 -21 36 -13 0 -25 11 -35 35 -9 22 -19 32 -28 29 -8
-3 -18 7 -25 28 -43 116 -91 176 -83 103 l4 -28 -32 32 c-32 31 -35 61 -7 61
8 0 29 8 48 17 19 10 43 19 54 20 10 2 22 7 25 11 3 4 43 15 89 25 47 9 92 24
101 32 10 9 25 13 34 9 9 -3 27 1 41 10 13 9 45 17 70 18 29 1 49 7 54 16 5 9
15 12 25 9 20 -8 156 28 166 43 4 7 29 13 56 15 27 2 65 11 85 19 20 8 39 12
43 9 3 -4 6 1 6 10 0 14 10 17 53 17 51 0 128 27 141 49 9 14 19 14 51 -1z
m-256 -205 c-4 -26 32 -93 50 -94 11 0 12 -2 4 -6 -7 -2 -13 -10 -13 -16 1 -7
9 -2 19 11 13 15 21 18 24 10 2 -7 4 8 3 33 -1 35 2 46 14 45 8 -1 18 -8 22
-16 10 -23 9 -88 -2 -95 -5 -3 -10 -18 -10 -33 0 -16 3 -22 8 -15 12 18 59
-29 64 -66 5 -34 -9 -52 -23 -30 -7 12 -9 12 -9 0 0 -8 -8 -23 -17 -34 -13
-15 -15 -21 -5 -24 6 -3 10 -9 6 -14 -3 -5 0 -9 5 -9 6 0 11 -7 11 -15 0 -18
-20 -20 -20 -2 -1 7 -6 4 -15 -6 -10 -14 -20 -17 -37 -11 -63 19 -102 71 -90
117 7 27 7 27 35 -18 16 -25 33 -45 38 -45 15 0 10 26 -10 51 -27 35 -34 65
-18 81 16 16 15 21 -25 115 -17 40 -28 79 -25 88 8 21 19 19 16 -2z m-7046
-103 c4 0 7 10 5 23 -2 17 3 23 21 25 20 3 23 0 18 -17 -3 -12 6 -49 19 -83
21 -55 22 -63 9 -78 -8 -9 -15 -24 -15 -32 0 -9 -8 -15 -17 -14 -12 1 -17 -5
-15 -17 2 -11 -6 -21 -23 -27 -21 -8 -29 -6 -46 11 -25 25 -16 38 12 20 29
-17 32 -10 18 38 -15 52 -6 61 27 30 l27 -24 -9 30 c-4 17 -8 45 -8 63 0 18
-4 31 -10 29 -16 -5 -46 31 -45 56 1 20 2 20 12 -5 6 -16 15 -28 20 -28z
m6817 -51 c41 -47 92 -84 102 -74 3 3 19 0 37 -6 18 -6 30 -14 27 -17 -3 -3 2
-11 12 -19 15 -13 15 -14 -10 -9 -14 3 -33 9 -42 12 -32 12 -17 -34 22 -66 34
-29 36 -32 20 -44 -10 -7 -18 -18 -18 -24 0 -6 -6 -13 -12 -15 -9 -4 -8 -6 3
-6 12 -1 17 -23 26 -108 10 -108 9 -129 -7 -104 -4 8 -15 11 -24 8 -29 -12
-54 73 -34 115 12 26 12 138 0 150 -16 16 -40 -7 -44 -40 -3 -23 -5 -20 -15
18 -32 124 -48 168 -101 273 -2 4 0 7 5 7 5 0 28 -23 53 -51z m4268 2 c30 -5
86 -26 125 -45 40 -20 88 -39 107 -42 19 -4 40 -10 45 -15 6 -4 31 -13 57 -19
26 -7 53 -19 59 -27 18 -21 -16 -60 -87 -100 -66 -37 -90 -37 -136 2 -15 13
-38 27 -50 31 -13 4 -39 19 -58 35 -37 29 -126 60 -225 78 -67 13 -101 32
-117 66 -8 19 -8 28 3 41 11 14 29 15 119 11 58 -3 129 -10 158 -16z m4320
-133 c7 -7 12 -22 12 -34 0 -21 -25 -32 -93 -39 -10 -1 -29 -14 -41 -29 l-22
-28 -32 28 c-36 32 -40 54 -15 79 11 12 26 15 49 12 22 -4 37 -1 45 9 14 17
80 19 97 2z m5114 -9 c24 -13 50 -72 42 -94 -8 -19 -48 -37 -67 -29 -7 2 -32
-2 -56 -11 -24 -8 -53 -15 -64 -15 -11 0 -47 -13 -81 -29 -33 -16 -88 -34
-121 -41 -33 -7 -84 -23 -113 -36 -63 -28 -111 -43 -172 -55 -25 -4 -61 -11
-80 -15 -19 -4 -39 -10 -45 -13 -5 -4 -28 -12 -50 -18 -22 -6 -65 -18 -96 -27
-31 -9 -65 -16 -77 -16 -11 0 -23 -4 -26 -9 -3 -5 -30 -11 -60 -13 -48 -4 -60
-9 -95 -46 -47 -49 -113 -65 -152 -38 -27 18 -123 12 -149 -9 -43 -36 -90 -25
-90 21 0 20 5 24 31 24 48 0 131 40 170 82 27 28 45 38 70 39 19 1 63 3 99 4
61 2 114 21 155 55 8 6 38 15 67 20 61 10 142 31 248 64 41 13 100 29 130 36
30 6 123 34 205 62 152 50 173 56 234 57 24 1 41 9 60 31 28 31 50 37 83 19z
m-11047 -15 c8 -4 23 -20 31 -36 14 -27 14 -32 -1 -54 -9 -14 -22 -27 -30 -30
-31 -12 -109 53 -128 109 -6 15 1 17 52 17 33 0 67 -3 76 -6z m5346 -150 c11
-9 19 -24 19 -33 -1 -19 -71 -54 -93 -45 -10 3 -17 -2 -21 -14 -10 -31 -30
-33 -70 -5 -55 40 -47 70 27 96 58 20 117 20 138 1z m-11723 -116 c10 -10 14
-10 21 0 7 11 23 11 87 3 43 -6 87 -12 96 -12 9 0 19 -8 22 -17 8 -25 39 -41
69 -35 25 5 39 23 17 23 -5 0 -10 4 -10 8 0 5 24 9 54 10 41 1 58 -3 71 -18
17 -19 12 -46 -6 -34 -5 3 -16 1 -23 -5 -8 -7 -29 -13 -47 -14 -19 -1 -37 -6
-40 -10 -3 -5 -33 -11 -65 -14 -52 -4 -64 -2 -97 21 -21 14 -54 29 -75 32 -42
7 -128 74 -94 74 4 0 14 -6 20 -12z m1192 -43 c7 -8 15 -28 17 -43 5 -30 11
-72 12 -87 1 -5 8 1 17 13 17 24 52 30 60 9 3 -8 15 -13 27 -12 16 2 21 8 19
24 -1 17 2 22 15 19 15 -3 17 -13 15 -53 -3 -49 12 -95 31 -95 6 0 8 3 4 6 -5
6 0 15 31 49 23 26 31 17 30 -32 0 -26 4 -49 10 -51 25 -8 62 -45 62 -60 0 -9
-7 -25 -15 -36 -16 -22 -53 -16 -96 15 -15 10 -57 33 -95 49 -37 17 -89 46
-115 66 -27 19 -65 38 -85 41 -20 3 -62 21 -93 40 -31 19 -93 52 -139 74 -63
30 -83 44 -80 57 4 20 10 19 100 -6 37 -11 70 -17 72 -14 3 3 12 -1 21 -8 17
-14 46 -6 43 12 -2 6 17 22 42 34 46 22 64 20 90 -11z m14431 -205 c32 11 46
11 79 0 22 -7 40 -18 40 -24 0 -29 -43 -78 -84 -96 -24 -10 -47 -23 -50 -29
-10 -16 -49 -14 -72 4 -10 8 -31 15 -45 15 -40 0 -44 27 -9 69 61 74 59 72 82
60 16 -8 30 -8 59 1z m-16566 -50 c25 -27 33 -108 11 -116 -9 -3 -16 -15 -16
-25 0 -12 -7 -19 -19 -19 -11 0 -23 -5 -26 -11 -4 -6 -13 -8 -21 -5 -7 3 -16
1 -19 -3 -3 -5 -21 -9 -40 -8 -28 1 -34 4 -30 18 3 10 0 21 -8 26 -19 11 -29
43 -19 57 5 6 12 23 16 38 6 25 9 26 44 21 20 -3 40 -11 43 -16 12 -18 39 2
45 33 8 35 14 37 39 10z m6199 -3 c18 -13 18 -15 -5 -35 -12 -12 -32 -22 -44
-22 -12 0 -29 -8 -39 -19 -10 -11 -36 -20 -69 -24 -29 -3 -78 -17 -111 -31
-32 -14 -70 -26 -85 -26 -36 0 -121 -27 -140 -44 -9 -8 -44 -18 -78 -22 -35
-3 -68 -13 -74 -20 -6 -8 -18 -14 -25 -14 -8 0 -14 -4 -14 -9 0 -10 -80 -23
-135 -22 -30 1 -44 -4 -57 -22 -14 -18 -27 -22 -79 -23 -41 -1 -66 -6 -73 -15
-14 -18 -75 -36 -146 -43 -37 -4 -59 -11 -67 -23 -7 -10 -17 -23 -23 -30 -5
-7 -10 -19 -10 -28 0 -19 -19 -20 -26 0 -6 14 -8 14 -18 0 -11 -15 -14 -14
-37 4 -22 17 -30 18 -69 8 -25 -7 -51 -20 -58 -30 -9 -12 -26 -17 -50 -17 -52
2 -121 -19 -158 -46 -20 -15 -39 -21 -53 -17 -27 7 -113 -16 -126 -34 -8 -11
-17 -12 -38 -4 -21 8 -27 17 -27 41 0 27 3 30 31 30 17 0 63 16 103 35 40 19
84 35 97 35 13 0 52 9 86 20 34 10 85 22 115 25 66 7 87 13 118 35 14 9 51 20
83 23 31 3 81 17 110 31 28 14 77 28 107 30 30 3 56 10 58 16 2 5 11 10 21 10
9 0 26 7 37 15 10 8 38 15 60 15 24 0 47 6 54 15 7 8 20 15 29 15 9 1 34 9 56
20 22 11 57 19 77 20 20 0 39 4 43 10 10 16 133 49 165 43 17 -2 30 0 30 6 0
10 153 63 174 60 6 -1 23 3 38 9 55 23 140 44 158 39 11 -3 24 1 31 9 14 18
30 18 53 1z m-6420 -118 c-3 -6 -3 -14 2 -18 5 -3 17 -18 26 -32 18 -28 9 -49
-22 -49 -9 0 -21 -5 -27 -11 -6 -6 -25 -12 -42 -14 -17 -1 -37 -8 -45 -14 -9
-7 -28 -14 -43 -16 -15 -1 -43 -6 -60 -10 -19 -4 -33 -4 -33 2 0 10 79 63 95
63 5 0 32 21 59 46 41 38 72 59 94 63 2 1 0 -4 -4 -10z m2630 -32 c17 -68 -8
-84 -154 -96 -47 -4 -92 -11 -101 -15 -22 -10 -59 29 -59 61 0 21 5 23 48 23
32 0 63 8 97 27 51 27 104 42 140 40 14 -2 23 -13 29 -40z m13640 22 c16 -13
26 -30 26 -47 0 -32 -36 -72 -65 -72 -12 0 -30 -9 -40 -20 -20 -22 -64 -27
-83 -8 -6 6 -22 13 -34 15 -38 6 -40 19 -12 74 32 64 40 70 79 63 17 -3 41 -1
55 5 36 14 44 13 74 -10z m-723 -170 c15 -8 35 -7 72 2 48 11 51 11 69 -11 39
-48 12 -120 -45 -120 -22 0 -36 -7 -45 -21 -11 -17 -20 -20 -50 -15 -20 4 -48
7 -62 7 -45 -1 -69 9 -75 30 -8 24 18 69 40 69 8 0 21 13 30 29 12 25 24 35
43 40 2 1 12 -4 23 -10z m5534 -85 c9 -9 15 -28 13 -43 -2 -21 -9 -27 -33 -29
-16 -2 -37 -10 -45 -17 -15 -14 -129 -55 -152 -55 -6 0 -30 -9 -52 -19 -23
-11 -63 -21 -91 -24 -56 -5 -192 -39 -245 -61 -19 -8 -82 -24 -140 -36 -58
-12 -126 -31 -151 -41 -33 -14 -63 -19 -105 -17 l-59 3 -3 43 c-3 42 -3 42 43
62 26 11 54 20 63 20 9 0 58 16 107 35 50 19 135 46 190 59 143 36 209 54 302
83 52 15 116 26 172 29 49 2 100 8 113 13 35 14 55 13 73 -5z m-22087 -94 c25
0 -32 -28 -73 -36 -29 -5 -38 -2 -60 22 l-25 29 2 -40 c2 -29 -1 -39 -11 -37
-7 1 -20 -3 -28 -10 -12 -9 -16 -9 -24 3 -11 18 -12 59 -1 59 5 0 14 -10 21
-22 11 -21 11 -21 6 7 -3 17 -13 44 -22 62 -10 18 -15 35 -12 38 3 3 26 8 50
11 24 3 46 8 48 10 2 2 28 -19 58 -46 30 -28 62 -50 71 -50z m1148 -7 c-9 -75
-16 -103 -27 -103 -5 0 -9 13 -9 29 0 19 -8 34 -25 45 -30 20 -35 20 -35 1 0
-8 -4 -15 -10 -15 -5 0 -10 5 -10 10 0 6 -3 10 -7 10 -5 0 -8 -24 -8 -52 0
-42 -3 -52 -15 -49 -8 2 -21 4 -27 4 -15 0 -18 17 -3 17 6 0 10 11 10 23 0 17
-10 29 -35 43 -19 10 -34 23 -32 29 2 5 26 15 53 20 28 6 61 18 75 27 13 9 44
17 68 17 l44 1 -7 -57z m14951 -5 c46 -43 22 -96 -62 -139 -66 -33 -82 -35
-111 -14 -12 8 -43 16 -70 18 -27 3 -49 10 -49 16 0 6 4 11 8 10 10 0 55 57
79 100 17 31 18 31 99 31 71 0 86 -3 106 -22z m-15647 -148 c0 -5 -5 -10 -12
-10 -6 0 -8 -3 -5 -7 8 -7 -42 -35 -52 -28 -4 2 -27 -2 -52 -9 -33 -10 -44
-18 -45 -34 -1 -12 -6 -28 -13 -35 -6 -8 -8 -17 -4 -20 3 -4 2 -7 -3 -7 -5 0
-17 12 -26 28 -13 21 -23 27 -49 26 -41 -1 -47 -18 -20 -55 27 -36 26 -39 -3
-39 -25 0 -66 41 -66 65 0 14 0 14 -125 -26 -70 -22 -95 -45 -95 -87 0 -23
-25 -7 -28 19 -2 13 -10 28 -19 32 -20 12 2 37 33 37 32 0 111 20 153 38 94
40 355 119 404 121 15 0 27 -3 27 -9z m15045 -21 c25 -22 35 -39 35 -60 0 -30
-30 -69 -54 -69 -7 0 -30 -13 -51 -30 -43 -34 -70 -37 -105 -13 -14 10 -36 19
-50 21 -29 3 -51 28 -43 48 3 8 18 29 34 47 16 18 38 42 49 55 16 18 27 22 48
18 15 -3 41 -2 57 3 43 13 41 14 80 -20z m-14503 -88 c9 -15 17 -17 36 -10 14
5 27 7 30 4 11 -11 6 -105 -6 -117 -16 -16 -41 17 -42 54 0 20 -4 26 -15 22
-12 -5 -15 -24 -15 -85 0 -85 -10 -98 -45 -59 -14 16 -16 25 -7 47 5 16 10 37
10 48 1 35 23 115 33 115 5 0 14 -9 21 -19z m13899 -90 c38 -38 41 -101 7
-125 -12 -9 -29 -16 -36 -16 -8 0 -28 -12 -45 -26 -32 -27 -51 -28 -112 -5
-16 6 -42 13 -57 16 -40 8 -35 31 23 108 50 67 65 75 97 58 12 -6 26 -5 42 5
36 20 48 17 81 -15z m-15151 -11 c0 -10 -71 -36 -168 -60 -40 -10 -83 -25 -95
-33 -22 -14 -147 -33 -147 -23 0 16 87 57 148 69 39 8 85 22 103 31 18 9 56
16 86 16 30 0 53 4 53 11 0 5 5 7 10 4 6 -3 10 -10 10 -15z m14552 -167 c14
-16 28 -37 32 -47 11 -31 -12 -82 -42 -95 -15 -7 -44 -21 -64 -32 -45 -23 -65
-24 -129 -3 -36 12 -53 24 -60 41 -15 40 -11 50 40 102 42 43 55 50 85 49 20
-1 39 2 43 5 17 18 70 6 95 -20z m5390 -77 c42 -51 30 -112 -31 -161 -43 -35
-66 -36 -114 -5 -50 31 -61 62 -47 126 14 60 40 76 114 68 45 -5 66 -12 78
-28z m-629 -157 c75 -39 90 -103 37 -163 -44 -50 -94 -71 -131 -56 -75 31
-109 113 -74 180 16 31 31 37 100 43 22 2 41 4 43 5 2 1 13 -3 25 -9z m5722
-68 c13 -43 -5 -70 -70 -101 -92 -44 -147 -39 -147 14 0 33 28 66 57 66 13 0
42 9 66 20 56 25 86 25 94 1z m-17195 -90 c8 -16 17 -19 45 -14 30 5 36 2 44
-18 12 -33 3 -49 -28 -55 -15 -3 -31 -15 -36 -27 -24 -55 -85 -12 -85 59 0 61
38 96 60 55z m10909 -56 c19 -22 31 -47 31 -64 0 -61 -83 -141 -147 -141 -25
0 -44 10 -78 41 -50 46 -56 73 -30 136 22 53 41 62 121 63 70 0 73 -1 103 -35z
m-11114 -5 c3 -5 17 -10 31 -10 38 0 64 -18 64 -43 0 -23 -34 -52 -50 -42 -6
4 -10 1 -10 -6 0 -7 -7 -20 -16 -30 -15 -16 -19 -17 -44 -4 -38 20 -53 83 -30
126 11 20 45 26 55 9z m-205 -71 c9 -15 15 -18 25 -9 21 17 62 2 70 -27 8 -33
-12 -56 -42 -48 -18 4 -23 1 -23 -14 0 -25 -29 -41 -55 -31 -36 13 -48 37 -42
80 9 66 44 92 67 49z m-211 -52 c6 -8 25 -14 43 -15 58 -2 80 -63 31 -85 -16
-6 -34 -20 -41 -29 -32 -43 -92 -1 -92 65 0 65 30 98 59 64z m10902 -38 c76
-54 72 -125 -10 -202 -65 -61 -86 -65 -152 -32 -73 37 -89 53 -89 89 1 41 33
110 66 141 23 21 37 25 91 25 50 0 72 -5 94 -21z m-11107 -18 c4 -5 24 -12 47
-16 30 -5 43 -13 50 -32 13 -34 13 -34 -37 -70 -54 -40 -79 -41 -110 -7 -28
29 -30 51 -10 99 15 34 47 48 60 26z m-208 -72 c12 -13 26 -18 39 -15 26 7 65
-19 65 -43 0 -24 -59 -77 -93 -83 -20 -4 -34 1 -53 19 -23 21 -26 30 -21 69 4
41 21 74 37 74 4 0 15 -9 26 -21z m-164 -73 c28 -5 42 -14 53 -37 9 -16 13
-33 11 -38 -3 -5 -30 -21 -60 -36 -54 -27 -54 -27 -88 -9 -44 25 -50 35 -32
55 7 8 14 27 14 42 0 14 7 33 16 42 14 14 19 14 33 2 9 -8 33 -17 53 -21z
m10869 -45 c32 -32 39 -46 39 -78 0 -81 -95 -179 -160 -164 -40 10 -107 49
-124 73 -23 33 -20 69 12 119 42 64 61 77 117 82 28 2 56 4 64 5 7 1 31 -15
52 -37z m-11072 -20 c43 -2 47 -5 55 -36 7 -26 -11 -55 -33 -55 -6 0 -20 -9
-31 -20 -27 -27 -62 -25 -89 4 -20 21 -22 31 -17 70 4 25 14 53 23 61 14 15
17 14 37 -3 11 -10 36 -19 55 -21z m-259 -46 c7 -8 23 -15 35 -15 41 0 55 -11
55 -41 0 -22 -7 -32 -25 -41 -13 -6 -27 -19 -30 -29 -5 -15 -17 -18 -64 -18
-85 1 -128 -10 -134 -32 -6 -23 -50 -44 -74 -35 -10 4 -20 7 -22 6 -11 -5 -21
32 -21 82 0 48 4 59 22 72 32 23 46 20 92 -20 65 -55 66 -56 66 -42 0 10 2 10
9 0 6 -10 10 -8 14 10 4 12 7 33 7 45 0 58 41 92 70 58z m10706 -118 c46 -42
55 -96 26 -153 -25 -49 -51 -72 -98 -89 -45 -15 -66 -9 -130 37 -38 27 -44 36
-44 68 0 38 40 133 62 147 11 7 73 17 131 22 9 0 33 -14 53 -32z m-11119 -7
c14 -11 36 -20 50 -20 16 0 27 -8 33 -25 10 -27 4 -55 -13 -55 -6 0 -25 -14
-43 -31 -28 -27 -34 -29 -52 -18 -50 31 -62 107 -24 152 19 21 18 21 49 -3z
m-175 -80 c54 0 59 -39 12 -92 -36 -41 -52 -49 -77 -36 -12 6 -23 5 -33 -2 -7
-7 -21 -9 -30 -6 -10 4 -30 -7 -55 -32 -67 -63 -79 -73 -79 -61 0 17 -32 38
-57 39 -27 0 -103 -40 -100 -53 4 -18 -47 -25 -76 -10 -25 13 -30 12 -65 -14
-20 -15 -41 -32 -47 -37 -18 -19 -77 -36 -94 -27 -20 11 -47 8 -84 -7 -16 -7
-36 -12 -46 -12 -10 0 -21 -9 -24 -20 -8 -29 -30 -33 -73 -13 -45 21 -51 38
-32 100 16 56 33 71 59 55 11 -7 30 -10 44 -6 14 3 42 -1 65 -10 l40 -16 11
45 c13 50 40 73 58 51 7 -8 20 -12 31 -9 11 3 40 -2 66 -11 26 -9 49 -16 50
-16 1 0 5 20 8 44 9 56 28 74 59 57 13 -7 47 -11 77 -9 51 3 56 5 72 37 22 44
38 53 63 37 31 -19 66 -26 107 -20 31 5 38 11 43 35 4 16 14 36 22 45 14 14
18 13 37 -5 12 -12 34 -21 48 -21z m10877 -44 c18 -14 41 -69 41 -97 0 -38
-30 -86 -75 -118 -63 -45 -95 -49 -149 -17 -54 31 -76 60 -76 99 0 50 57 136
99 149 25 7 146 -4 160 -16z m-5886 -27 c34 -18 67 -51 67 -68 0 -24 -43 -80
-72 -92 -14 -6 -36 -21 -49 -35 -27 -29 -62 -31 -95 -5 -22 17 -27 18 -53 5
-16 -8 -41 -30 -55 -49 -32 -42 -60 -51 -91 -31 -36 23 -45 21 -102 -29 -55
-48 -92 -57 -127 -30 -23 18 -42 9 -110 -52 -38 -34 -55 -43 -70 -38 -58 19
-71 16 -119 -24 -55 -46 -79 -56 -104 -43 -27 14 -60 5 -117 -33 -56 -37 -75
-41 -107 -25 -21 12 -54 -2 -123 -52 -32 -23 -48 -28 -70 -24 -46 9 -89 -3
-127 -35 -42 -36 -63 -43 -88 -30 -33 18 -57 13 -103 -22 -71 -54 -77 -56
-122 -41 l-39 14 -58 -45 -58 -46 -63 7 c-62 6 -64 6 -107 -30 -51 -43 -73
-45 -117 -11 -18 14 -38 25 -44 25 -8 0 -10 9 -5 28 4 15 11 44 15 66 4 21 17
47 28 59 21 20 22 20 60 3 21 -10 54 -16 73 -14 28 2 38 10 57 46 26 47 45 52
105 27 20 -8 49 -15 65 -15 25 0 30 5 40 39 18 59 34 68 90 48 26 -10 61 -17
79 -17 28 0 34 5 52 44 20 46 52 66 75 46 8 -6 37 -13 64 -17 50 -6 51 -5 65
28 24 57 37 63 106 46 79 -20 89 -18 115 29 24 43 23 42 142 28 l50 -6 16 41
c21 52 38 58 99 37 68 -25 89 -19 118 32 23 42 25 44 60 37 20 -3 57 -8 82
-11 46 -6 47 -6 70 38 25 44 58 60 82 39 16 -13 110 -18 114 -5 2 5 12 24 24
43 18 30 23 32 52 27 18 -4 55 -10 84 -14 l52 -8 16 43 c26 67 116 104 178 72z
m5450 -106 c32 -16 47 -48 47 -99 0 -56 -25 -93 -83 -120 -63 -29 -84 -30
-117 -4 -34 26 -55 25 -68 -5 -13 -28 -67 -65 -96 -65 -11 0 -35 12 -54 27
-33 25 -35 25 -48 8 -8 -10 -14 -27 -14 -37 0 -22 -67 -68 -98 -68 -15 0 -40
16 -64 40 -22 22 -38 33 -35 26 15 -39 -66 -136 -112 -136 -7 0 -33 20 -57 44
-50 50 -55 76 -24 143 29 64 79 67 156 8 l30 -23 13 46 c7 26 19 55 28 64 22
24 79 23 126 -2 l38 -20 19 44 c28 66 53 79 126 65 56 -10 59 -10 74 13 8 12
27 35 42 51 25 26 30 27 85 21 32 -4 71 -13 86 -21z m-11549 -112 c3 -5 21
-12 40 -15 50 -10 88 -43 84 -74 -2 -20 -16 -33 -61 -56 -56 -30 -59 -30 -87
-14 -16 9 -30 13 -32 10 -2 -4 -21 -16 -42 -27 -22 -11 -54 -32 -70 -47 -36
-33 -36 -33 -69 -8 -47 37 -46 170 2 170 11 0 23 -4 26 -10 3 -5 23 -10 43
-10 20 -1 48 -7 62 -15 38 -22 51 -19 44 9 -11 47 39 121 60 87z m-370 -147
c25 5 40 1 59 -15 15 -11 27 -26 27 -34 0 -7 7 -15 15 -19 8 -3 15 -10 15 -15
0 -6 -7 -8 -16 -4 -8 3 -27 -3 -42 -13 -15 -11 -46 -28 -70 -38 -36 -16 -46
-17 -66 -6 -39 20 -50 106 -20 148 15 22 17 22 41 7 17 -11 36 -15 57 -11z
m3262 -20 c40 -27 47 -48 33 -110 -8 -34 -19 -58 -28 -61 -9 -3 -26 -10 -39
-16 -19 -9 -27 -6 -57 23 -42 41 -53 86 -31 128 27 53 75 66 122 36z m7727 5
c96 -26 104 -176 10 -215 -34 -15 -37 -14 -75 12 -22 16 -45 40 -50 54 -14 36
-1 110 24 137 24 26 36 27 91 12z m6077 -13 c28 -31 33 -98 7 -123 -16 -16
-19 -16 -62 5 -30 14 -47 30 -51 47 -7 30 3 77 19 87 24 15 64 8 87 -16z
m-17345 -36 c3 -5 18 -7 34 -4 20 4 35 0 54 -18 37 -34 43 -64 15 -79 -13 -7
-35 -22 -50 -34 -17 -14 -47 -26 -80 -30 -91 -11 -102 -15 -135 -45 -18 -17
-36 -30 -40 -30 -4 0 -20 13 -36 29 -28 30 -33 59 -21 119 8 38 25 45 55 24
13 -9 35 -15 49 -14 15 2 36 -6 50 -18 14 -12 26 -17 28 -11 5 16 22 13 22 -4
0 -8 5 -15 10 -15 7 0 7 6 0 19 -11 22 -14 104 -3 114 10 10 41 8 48 -3z
m11074 -26 c14 -8 37 -31 50 -51 22 -35 22 -36 6 -79 -17 -46 -60 -84 -93 -84
-11 0 -39 16 -62 35 -23 19 -44 35 -46 35 -2 0 -8 -18 -14 -39 -11 -42 -59
-91 -89 -91 -43 0 -101 73 -101 127 0 38 34 91 64 99 33 8 86 -19 111 -55 22
-33 26 -33 30 3 4 34 16 67 33 94 17 27 70 30 111 6z m-11488 -100 c10 -9 32
-17 49 -18 52 -2 90 -76 40 -76 -10 0 -29 -13 -42 -28 -36 -43 -44 -44 -78
-15 l-32 27 -27 -32 c-18 -22 -35 -32 -53 -32 -21 0 -28 -5 -28 -20 0 -13 -10
-24 -26 -30 -35 -14 -35 -14 -71 21 -35 32 -43 72 -23 123 10 27 41 34 69 17
9 -6 23 -5 37 1 27 13 88 3 107 -17 13 -12 15 -8 20 32 4 38 18 62 36 63 3 0
12 -7 22 -16z m17128 5 c33 -12 63 -57 75 -115 11 -48 -16 -102 -58 -119 -82
-34 -147 21 -154 131 -4 57 -2 65 21 88 29 28 64 33 116 15z m-6072 -39 c39
-23 53 -48 55 -97 2 -54 -8 -76 -41 -96 -43 -25 -69 -21 -108 18 -34 34 -35
38 -31 95 7 95 53 124 125 80z m-232 -54 c19 -8 46 -27 60 -42 48 -52 25 -147
-42 -179 -38 -18 -60 -11 -105 36 -56 57 -24 182 50 198 1 1 18 -6 37 -13z
m-11201 -43 c43 1 76 -28 76 -67 0 -17 -2 -18 -10 -6 -9 13 -10 13 -10 0 0 -9
-25 -32 -56 -53 -53 -35 -57 -36 -80 -21 -13 9 -24 12 -24 6 0 -6 -24 -18 -53
-26 -30 -9 -62 -25 -72 -36 -43 -48 -96 -10 -103 73 -3 41 0 57 15 76 18 22
21 23 44 8 13 -8 49 -18 79 -22 30 -4 60 -11 66 -16 8 -7 13 4 16 36 7 61 23
79 51 60 12 -7 39 -13 61 -12z m11016 -42 c39 -28 64 -89 54 -131 -9 -36 -61
-80 -95 -80 -24 0 -88 57 -100 88 -13 33 6 98 37 129 28 28 60 26 104 -6z
m5869 -22 c57 -20 85 -110 56 -184 -19 -51 -47 -75 -88 -75 -121 0 -182 200
-77 252 41 21 65 22 109 7z m-6084 -38 c58 -33 77 -119 39 -178 -16 -26 -85
-49 -106 -37 -50 29 -78 64 -78 96 0 54 19 106 47 128 28 22 46 20 98 -9z
m-11252 -38 c42 -6 73 -40 63 -70 -3 -10 -26 -31 -52 -47 -38 -24 -49 -27 -69
-18 -28 13 -55 4 -122 -42 -31 -20 -58 -29 -99 -32 -63 -5 -116 -25 -155 -61
-19 -17 -34 -22 -60 -19 -19 2 -46 -3 -61 -10 -15 -8 -35 -14 -46 -14 -10 0
-33 -11 -51 -25 -28 -20 -41 -23 -78 -18 -42 6 -84 -6 -152 -42 -20 -11 -30
-11 -55 0 -17 8 -44 16 -59 20 -24 5 -28 10 -25 33 2 16 9 27 18 27 9 0 19 15
25 35 10 33 14 35 55 38 170 10 162 8 175 39 11 27 19 30 91 41 44 7 88 12 99
12 11 0 25 10 30 22 12 27 43 35 143 37 67 1 73 3 82 25 11 31 27 41 45 26 8
-7 31 -9 63 -4 42 5 53 3 71 -15 l21 -21 5 25 c17 80 15 77 38 70 12 -4 39
-10 60 -12z m11038 -36 c22 -15 40 -39 51 -71 17 -43 17 -50 3 -80 -15 -32
-68 -66 -101 -66 -9 0 -33 17 -55 38 -33 33 -39 45 -39 80 0 108 63 152 141
99z m-221 -66 c38 -20 58 -61 59 -119 1 -37 -29 -71 -79 -92 -25 -10 -34 -9
-63 9 -46 28 -56 41 -62 83 -6 35 12 95 36 125 16 19 68 16 109 -6z m5874 -35
c39 -16 66 -73 66 -137 0 -34 -6 -47 -35 -76 -32 -32 -39 -35 -78 -30 -74 10
-131 98 -113 173 4 15 21 40 38 56 34 31 70 36 122 14z m-6100 -32 c48 -23 82
-93 70 -143 -10 -38 -61 -81 -97 -81 -10 0 -36 13 -57 30 -44 35 -57 82 -39
138 23 72 56 87 123 56z m-189 -86 c60 -55 61 -143 2 -178 -41 -25 -78 -25
-110 0 -14 11 -30 20 -36 20 -7 0 -11 22 -11 56 0 124 77 174 155 102z m-228
-54 c85 -64 82 -168 -5 -213 -35 -18 -39 -18 -68 -2 -71 38 -77 46 -76 104 1
120 70 171 149 111z m6090 -6 c17 -14 35 -84 28 -107 -10 -32 -52 -63 -94 -68
-34 -5 -46 -2 -66 17 -26 25 -41 76 -31 108 4 11 19 32 34 47 23 24 31 26 72
20 25 -4 51 -11 57 -17z m-6334 -54 c39 -21 50 -32 71 -71 26 -51 21 -81 -23
-124 -21 -22 -48 -39 -60 -39 -34 0 -91 59 -101 105 -12 51 3 109 33 130 27
19 40 19 80 -1z m-193 -80 c30 -26 59 -70 65 -102 9 -50 -70 -131 -115 -117
-35 11 -78 54 -90 90 -13 39 1 108 27 138 24 26 76 22 113 -9z m-7813 -6 c12
-13 24 -37 28 -55 l6 -32 -32 9 c-17 5 -37 6 -43 2 -6 -3 -17 -7 -24 -8 -8 -2
-19 -10 -26 -20 -19 -25 -43 -11 -41 23 3 46 4 49 26 77 27 34 77 36 106 4z
m1903 -14 c41 -35 60 -74 60 -127 0 -36 -6 -49 -33 -75 -28 -27 -38 -31 -58
-24 -13 5 -43 12 -66 16 -34 5 -43 3 -47 -11 -3 -10 -18 -31 -32 -46 -26 -28
-29 -29 -95 -22 l-69 7 0 -44 c0 -24 -5 -49 -12 -56 -9 -9 -8 -12 5 -12 28 0
82 -38 88 -62 4 -18 12 -23 37 -21 28 1 35 -4 52 -36 19 -39 98 -121 115 -121
6 0 16 -9 23 -21 7 -11 29 -27 48 -35 19 -8 32 -19 29 -24 -3 -6 1 -7 9 -4 11
4 16 0 16 -10 0 -24 -40 -20 -98 9 -28 14 -63 25 -80 25 -16 0 -56 14 -88 31
-55 29 -94 43 -199 71 -37 10 -73 38 -161 128 -31 32 -40 35 -92 36 -31 0 -76
6 -98 13 l-42 13 -42 -46 c-53 -57 -80 -60 -125 -12 -36 38 -47 83 -33 132 14
51 28 57 92 39 31 -9 61 -24 66 -33 6 -9 13 -12 16 -7 43 91 71 130 96 133 15
2 36 -2 47 -8 12 -6 41 -14 65 -19 l44 -8 11 37 c22 74 54 83 145 39 45 -22
39 -26 81 56 13 27 28 41 43 43 30 4 80 -15 109 -41 27 -24 23 -27 57 45 38
83 65 95 116 52z m12020 -3 c18 -44 15 -115 -7 -141 -22 -26 -65 -50 -91 -50
-27 0 -72 52 -78 92 -7 40 14 88 48 112 13 9 43 16 69 16 42 0 48 -3 59 -29z
m-6343 -41 c37 -22 60 -61 69 -117 5 -35 2 -43 -29 -76 -46 -49 -80 -49 -130
-1 -34 33 -37 41 -37 91 0 108 51 150 127 103z m-194 -80 c40 -35 70 -111 57
-146 -12 -31 -72 -74 -104 -74 -15 0 -39 9 -53 20 -34 27 -38 26 -62 -15 -23
-40 -75 -75 -109 -75 -13 0 -36 8 -50 18 -49 34 -50 34 -70 -10 -13 -30 -31
-50 -59 -65 l-40 -23 -38 26 c-45 30 -58 27 -80 -20 -18 -38 -69 -76 -101 -76
-11 0 -34 9 -52 20 -41 25 -62 25 -62 1 0 -23 -57 -80 -88 -88 -27 -6 -62 10
-98 45 -20 21 -24 34 -24 86 0 87 25 126 80 126 33 0 48 -7 85 -41 l45 -42 1
29 c1 46 23 96 51 117 34 25 74 16 123 -28 21 -19 39 -35 40 -35 2 0 8 22 15
49 13 56 47 94 84 94 31 0 93 -46 108 -79 17 -38 28 -28 28 25 0 68 32 115 82
119 30 3 44 -3 77 -34 23 -20 41 -44 42 -53 1 -30 18 22 18 59 1 19 10 50 21
68 17 27 25 32 60 32 29 0 48 -7 73 -30z m-6625 -296 c30 -21 28 -49 -8 -76
-39 -29 -46 -53 -24 -93 19 -36 14 -65 -12 -65 -9 0 -39 22 -65 49 -39 39 -49
55 -49 82 0 33 31 96 54 111 19 13 81 9 104 -8z m5541 -69 c27 -29 35 -47 39
-86 4 -45 2 -51 -31 -84 -43 -43 -77 -45 -130 -9 -21 14 -40 24 -41 22 -1 -1
-10 -22 -20 -45 -14 -33 -29 -48 -63 -64 l-44 -21 -48 30 -49 30 -13 -40 c-15
-47 -65 -89 -107 -90 -16 -1 -43 8 -59 20 -30 21 -53 15 -53 -14 0 -7 -15 -29
-34 -48 -43 -46 -78 -47 -136 -5 -43 31 -59 29 -60 -9 0 -27 -41 -71 -75 -82
-30 -10 -39 -8 -79 15 -25 14 -47 34 -49 43 -3 12 -5 9 -6 -7 -3 -57 -69 -131
-118 -131 -10 0 -36 12 -57 26 -37 26 -40 26 -53 9 -7 -11 -13 -24 -13 -30 0
-14 -49 -60 -74 -69 -22 -8 -84 11 -104 31 -20 20 -29 16 -35 -15 -14 -69 -84
-108 -148 -82 -50 21 -69 55 -69 122 0 139 74 176 171 86 l44 -41 6 50 c7 51
23 92 43 105 28 19 77 7 115 -27 21 -19 43 -35 48 -35 6 0 13 19 16 42 8 61
36 92 84 96 34 3 45 -3 85 -37 48 -42 58 -40 58 10 0 23 28 81 44 91 28 19 77
7 116 -28 21 -20 43 -33 48 -30 5 3 12 23 16 44 16 105 95 122 182 40 l31 -29
6 40 c3 22 15 56 27 76 18 29 27 35 56 35 38 0 77 -21 110 -59 l22 -24 7 44
c10 58 31 98 58 108 27 11 82 -10 119 -46 25 -24 27 -24 36 -7 5 11 13 33 16
50 18 84 99 98 165 29z m-12224 -248 c11 -5 47 -31 80 -57 33 -26 65 -49 71
-51 6 -2 24 -14 40 -26 16 -12 49 -38 74 -57 25 -19 86 -55 137 -80 50 -25 95
-51 100 -59 4 -7 28 -23 53 -36 25 -13 60 -36 78 -52 18 -16 55 -40 80 -52 26
-13 76 -45 112 -73 36 -27 85 -63 110 -79 25 -17 47 -33 48 -37 2 -5 12 -8 23
-8 11 0 45 -25 77 -56 58 -58 91 -80 198 -133 34 -17 78 -46 99 -66 22 -19 42
-35 46 -35 5 0 30 -20 56 -45 26 -25 59 -49 73 -52 14 -3 37 -14 52 -24 14
-11 30 -19 35 -19 6 0 18 -10 29 -21 31 -35 104 -81 118 -76 8 3 24 -5 37 -19
12 -13 26 -24 31 -24 13 0 110 -65 139 -94 15 -14 55 -47 90 -72 35 -26 66
-50 69 -53 3 -3 23 -15 44 -26 21 -11 52 -32 68 -47 60 -56 126 -108 137 -108
26 0 79 -36 124 -84 26 -28 47 -54 47 -58 0 -4 8 -9 18 -12 10 -4 28 -15 41
-27 12 -11 45 -31 74 -44 29 -12 75 -45 102 -71 28 -27 66 -58 85 -69 46 -27
64 -39 165 -115 130 -98 145 -111 145 -125 0 -7 12 -23 28 -34 24 -18 25 -20
7 -21 -17 0 -17 -2 -5 -10 8 -5 40 -10 70 -10 47 0 61 -5 90 -30 19 -16 41
-29 49 -30 8 0 27 -14 43 -31 17 -17 44 -37 61 -45 18 -7 54 -36 82 -64 27
-27 53 -50 58 -50 5 0 15 -7 23 -15 9 -8 28 -15 43 -15 16 0 36 -9 48 -23 11
-13 41 -39 66 -57 26 -18 47 -37 47 -41 0 -5 13 -15 28 -23 16 -8 40 -26 53
-40 13 -14 29 -26 36 -26 6 0 21 -12 33 -27 28 -36 70 -63 98 -63 12 0 22 -4
22 -9 0 -5 14 -14 30 -21 17 -7 30 -16 30 -21 0 -5 6 -9 14 -9 8 0 37 -16 66
-35 28 -19 66 -39 85 -44 19 -5 52 -23 72 -40 21 -17 43 -31 49 -31 7 0 23
-12 36 -27 12 -16 43 -44 68 -63 25 -19 47 -38 48 -43 6 -11 79 -47 98 -47 9
0 37 -22 62 -50 25 -27 51 -50 56 -50 6 -1 38 -25 71 -55 33 -30 65 -55 72
-55 7 0 13 -4 13 -10 0 -5 7 -10 15 -10 8 0 39 -21 68 -47 29 -27 69 -59 89
-73 46 -31 64 -66 46 -88 -11 -14 -9 -15 22 -9 l35 7 -32 -20 c-38 -23 -42
-44 -13 -62 11 -7 20 -19 20 -26 0 -7 11 -17 25 -22 16 -6 23 -14 19 -25 -4
-10 0 -15 15 -15 16 0 21 6 21 29 0 20 6 30 19 34 21 5 49 -8 38 -19 -4 -4 0
-16 10 -26 10 -11 12 -18 4 -18 -7 0 -8 -6 -2 -17 5 -10 15 -33 21 -50 7 -18
16 -33 21 -33 12 0 11 47 -2 71 -11 22 3 49 25 49 12 0 81 -47 150 -102 17
-13 58 -35 93 -50 79 -34 144 -78 205 -139 26 -25 59 -54 73 -63 14 -9 25 -23
25 -32 0 -8 7 -17 15 -20 8 -4 13 -9 10 -13 -2 -4 2 -24 9 -45 12 -35 14 -36
29 -21 10 9 17 23 17 31 0 36 84 -4 124 -60 15 -21 18 -30 9 -33 -7 -3 -13
-12 -13 -21 -1 -15 -3 -14 -15 2 -17 22 -16 23 -44 -24 -18 -30 -21 -32 -21
-12 0 12 -2 22 -4 22 -2 0 -10 2 -18 5 -9 3 -14 -4 -15 -21 -1 -18 5 -28 18
-31 12 -3 19 -14 19 -29 0 -12 5 -26 11 -30 6 -3 19 -25 29 -49 10 -23 33 -53
52 -66 18 -13 38 -28 43 -35 6 -6 27 -21 48 -34 52 -31 46 -54 -13 -58 -37 -2
-51 3 -78 25 -62 53 -87 70 -114 77 -16 3 -28 13 -28 21 0 9 -10 19 -23 24
-13 5 -29 16 -36 25 -7 9 -18 16 -24 16 -5 0 -42 16 -82 35 -75 36 -125 58
-136 59 -4 1 -20 12 -37 26 -17 14 -40 32 -52 40 -13 8 -28 20 -34 25 -28 26
-75 55 -90 55 -8 0 -19 6 -23 13 -4 7 -24 23 -43 35 -20 11 -56 41 -80 66 -25
25 -52 46 -60 46 -9 0 -26 7 -38 16 -13 9 -26 13 -29 10 -13 -13 -122 57 -154
100 -22 29 -44 47 -62 51 -16 3 -31 13 -34 22 -9 24 -53 61 -82 67 -14 4 -30
12 -36 18 -14 15 -59 44 -125 79 -30 16 -62 36 -71 43 -8 8 -20 14 -26 14 -5
0 -23 17 -40 38 -17 21 -54 49 -82 62 -28 14 -51 28 -51 31 0 4 -8 9 -17 13
-10 3 -25 10 -33 15 -8 5 -34 17 -57 26 -24 10 -66 43 -95 73 -28 30 -65 60
-82 67 -17 8 -65 47 -107 89 -42 42 -79 76 -82 76 -3 0 -35 29 -71 64 -37 35
-79 66 -94 69 -31 6 -141 77 -221 143 -29 24 -61 44 -70 44 -9 0 -42 24 -73
54 -48 45 -72 60 -118 71 -18 4 -80 39 -80 44 0 11 -85 69 -125 85 -18 8 -41
28 -49 44 -10 20 -29 35 -53 43 -20 6 -62 27 -93 45 -31 18 -69 36 -86 40 -16
4 -41 15 -56 25 -14 11 -31 19 -36 19 -6 0 -32 18 -57 40 -25 22 -52 40 -59
40 -7 0 -25 14 -42 31 -39 41 -173 133 -231 159 -25 11 -74 48 -108 83 -91 91
-134 125 -181 143 -29 11 -52 31 -75 62 -18 26 -48 60 -66 76 -18 16 -33 38
-33 48 0 11 -7 18 -19 18 -11 0 -23 4 -26 10 -3 5 -25 18 -49 29 -25 11 -47
28 -51 40 -3 12 -14 21 -24 21 -10 0 -24 6 -31 14 -6 8 -17 13 -24 10 -7 -3
-34 6 -59 20 -25 15 -53 26 -62 26 -9 0 -55 38 -102 85 -55 55 -94 85 -108 85
-12 0 -30 9 -40 20 -10 11 -36 25 -57 32 -21 6 -43 17 -49 25 -6 7 -18 13 -25
13 -8 0 -19 11 -24 25 -5 14 -15 25 -22 25 -25 0 -101 44 -106 62 -2 10 -8 18
-12 18 -4 0 -10 14 -14 31 -5 25 -10 29 -25 24 -24 -7 -41 20 -41 64 0 17 -4
31 -10 31 -5 0 -10 7 -10 15 0 19 -9 19 -34 0 -22 -17 -40 -20 -32 -6 3 5 -1
14 -9 21 -8 7 -15 20 -15 29 0 20 40 57 49 44 3 -4 19 -15 35 -23 46 -23 96
-77 96 -103 0 -31 29 -70 47 -63 8 3 20 3 26 -1 5 -3 23 -7 38 -8 21 -2 30 3
35 17 11 34 -5 67 -56 117 -28 28 -49 57 -48 68 3 35 -2 63 -11 63 -6 0 -23
12 -38 26 -36 33 -63 48 -63 34 0 -18 -40 -11 -40 8 -1 16 -2 15 -15 -2 -13
-18 -16 -18 -40 -2 -14 9 -25 26 -25 37 0 12 -8 23 -20 26 -11 3 -20 12 -20
19 0 17 -1 17 -34 4 -18 -7 -26 -17 -26 -34 0 -31 -19 -75 -42 -98 -10 -10
-18 -30 -18 -44 0 -36 -28 -28 -51 15 -25 47 -37 57 -49 45 -8 -8 -25 -8 -53
-1 -55 12 -111 36 -103 44 3 3 1 12 -4 18 -6 7 -7 26 -4 43 6 30 8 32 44 26
23 -4 40 -2 45 5 4 7 20 9 38 6 26 -4 38 1 65 25 17 16 32 37 32 46 0 26 -53
112 -77 125 -13 7 -25 20 -28 30 -8 25 -94 99 -115 99 -10 0 -29 9 -43 20 -14
11 -34 20 -46 20 -11 0 -25 8 -30 18 -5 9 -34 35 -66 57 -31 22 -70 52 -88 67
-18 16 -39 27 -47 25 -8 -1 -32 15 -52 37 -23 24 -42 36 -52 33 -9 -4 -34 14
-69 49 -30 29 -60 54 -66 54 -10 0 -41 57 -41 75 0 7 49 -5 75 -18z m5395 -43
c52 -60 64 -118 35 -174 -18 -35 -56 -47 -100 -31 -49 17 -74 14 -84 -11 -11
-28 -49 -64 -76 -72 -11 -3 -37 -1 -57 3 -43 10 -114 -3 -138 -24 -8 -7 -28
-18 -43 -24 -25 -10 -31 -7 -62 22 -42 39 -58 97 -41 148 10 30 15 34 46 35
19 1 56 5 81 9 43 7 46 6 52 -16 8 -29 17 -20 37 34 22 58 52 72 114 51 31
-11 51 -25 58 -40 16 -35 30 -25 43 32 18 76 30 94 69 94 26 0 41 -8 66 -36z
m-1217 -165 c27 -16 70 -34 95 -40 65 -14 90 -33 113 -85 23 -55 25 -124 4
-164 -23 -44 -108 -106 -169 -124 -29 -9 -59 -23 -66 -31 -34 -41 -220 -68
-385 -56 -117 8 -122 9 -193 51 -41 24 -80 54 -88 66 -21 31 -27 105 -12 130
7 11 27 44 43 72 21 36 44 59 76 77 26 14 58 40 72 59 26 33 27 33 127 40 55
4 123 16 151 26 75 26 169 17 232 -21z m18313 -89 c8 0 14 8 15 18 0 14 2 14
8 -3 5 -11 20 -22 37 -25 19 -3 30 -12 32 -25 4 -29 39 -50 58 -35 10 9 17 8
29 -4 9 -9 13 -20 10 -26 -11 -18 5 -30 24 -18 14 9 24 6 49 -12 18 -13 32
-30 32 -37 0 -7 9 -17 20 -23 11 -6 20 -20 20 -30 0 -11 4 -20 10 -20 5 0 7
-6 4 -14 -3 -9 9 -24 33 -40 29 -20 33 -26 18 -26 -19 -1 -19 -1 -2 -14 9 -7
17 -18 17 -24 0 -5 7 -12 15 -16 17 -6 20 -42 4 -52 -6 -3 -15 -1 -19 6 -6 10
-14 9 -37 -5 -28 -17 -31 -16 -73 4 -24 11 -46 19 -48 16 -3 -2 -21 4 -41 14
-20 11 -52 24 -71 31 -58 20 -110 45 -110 53 0 4 -7 7 -15 7 -8 0 -23 10 -34
21 -11 12 -26 19 -34 16 -7 -3 -19 4 -25 14 -7 10 -18 19 -26 19 -17 0 -26 22
-26 60 0 16 -6 33 -14 37 -17 10 -31 53 -17 53 6 0 11 8 11 18 0 11 9 27 20
37 19 17 21 17 38 2 20 -19 34 -13 25 9 -3 8 1 14 10 14 8 0 18 8 22 18 8 16
8 16 12 0 3 -10 11 -18 19 -18z m-12114 -15 c28 -19 39 -35 44 -63 4 -20 13
-46 20 -57 20 -28 19 -30 -32 -60 -62 -36 -89 -29 -116 32 -24 54 -21 123 7
153 23 26 33 25 77 -5z m13358 -170 c19 -14 40 -25 48 -25 8 0 12 -6 8 -15 -3
-9 0 -15 8 -15 14 0 24 -33 18 -62 -2 -9 -27 -31 -55 -49 -29 -18 -61 -40 -72
-49 -11 -10 -47 -28 -80 -41 -33 -13 -62 -27 -65 -30 -3 -4 -21 -7 -40 -7 -19
-1 -58 -5 -87 -11 -78 -15 -148 -4 -164 26 -10 19 -10 28 -1 44 7 11 8 19 2
19 -5 0 -10 5 -10 10 0 6 8 10 19 10 11 0 21 9 24 21 3 12 10 18 15 15 5 -3
12 7 15 23 4 18 18 36 35 46 15 9 32 27 38 38 5 12 23 26 39 32 17 5 32 13 35
17 10 14 84 26 161 27 65 1 79 -2 109 -24z m-18230 -1155 c15 0 60 -85 60
-111 0 -13 -16 -44 -35 -67 -19 -24 -37 -52 -40 -63 -4 -10 -17 -22 -31 -25
-54 -14 -111 63 -101 138 10 73 79 146 125 132 8 -2 18 -4 22 -4z"/>
<path d="M23890 17861 c0 -11 -6 -21 -12 -23 -9 -3 -5 -16 12 -41 15 -22 27
-32 32 -25 10 18 39 -11 36 -36 -2 -15 3 -22 20 -24 12 -2 22 1 22 7 0 6 6 8
14 5 8 -3 19 3 26 15 9 17 8 21 -5 21 -9 0 -13 5 -9 11 3 6 17 9 30 6 13 -2
24 -1 24 3 0 13 -54 29 -90 27 -44 -3 -50 26 -7 31 15 2 27 8 27 13 0 6 -4 8
-9 4 -5 -3 -13 0 -16 6 -4 5 -13 8 -21 5 -7 -3 -16 -1 -19 4 -4 6 -17 10 -31
10 -17 0 -24 -6 -24 -19z"/>
<path d="M23149 14478 c-34 -32 -89 -68 -104 -68 -9 0 -24 13 -33 30 -19 33
-43 38 -63 14 -10 -12 -10 -19 -1 -32 7 -10 16 -27 22 -40 5 -12 18 -25 27
-29 10 -3 26 -13 36 -22 17 -14 20 -13 40 11 12 14 34 34 50 43 19 12 29 29
33 56 7 40 24 54 24 19 0 -11 4 -20 10 -20 12 0 -3 43 -17 47 -6 2 -17 -2 -24
-9z"/>
<path d="M17016 14079 c-11 -11 -28 -19 -39 -19 -15 0 -18 -6 -16 -32 2 -18 7
-38 12 -45 5 -7 6 -21 2 -32 -5 -16 -10 -18 -36 -11 -17 5 -37 14 -45 21 -11
9 -14 8 -15 -7 0 -11 -3 -14 -6 -6 -8 19 -23 14 -23 -8 0 -18 11 -25 33 -21 5
1 6 -3 3 -7 -3 -5 3 -17 14 -27 11 -10 20 -24 20 -32 0 -29 36 -11 54 27 11
22 23 40 27 40 4 0 12 15 19 33 l12 32 13 -35 c8 -19 14 -56 14 -82 1 -35 8
-54 27 -77 29 -34 54 -40 54 -13 0 9 3 27 6 40 4 12 2 22 -4 22 -6 0 -13 -10
-15 -22 -3 -15 -5 -10 -6 13 0 20 -8 42 -16 49 -21 17 -19 37 5 43 11 3 20 12
20 21 0 9 -6 13 -14 10 -23 -9 -44 45 -32 84 10 36 9 39 -19 44 -11 1 -22 6
-25 9 -3 3 -14 -2 -24 -12z"/>
<path d="M23400 13625 c-1 -27 -2 -28 -14 -12 -16 21 -30 22 -22 2 3 -9 0 -15
-9 -15 -24 0 -17 -26 15 -57 17 -15 30 -35 30 -43 0 -8 6 -23 14 -32 10 -13
15 -15 24 -6 9 9 12 -5 12 -60 0 -41 4 -72 10 -72 6 0 10 13 10 29 0 25 5 30
36 35 43 9 94 -1 94 -18 0 -22 32 -58 42 -48 17 17 -3 53 -38 68 -19 8 -34 19
-34 24 0 11 35 31 42 24 3 -3 8 2 11 10 6 15 -16 46 -33 46 -5 0 -12 12 -17
27 -10 28 -10 28 -21 7 -9 -17 -8 -28 4 -53 8 -17 12 -36 9 -41 -11 -17 -57
-7 -82 18 -12 12 -26 22 -31 22 -5 0 -12 24 -14 53 -3 28 -12 68 -21 87 l-15
35 -2 -30z"/>
<path d="M22387 13069 c4 -63 2 -103 -4 -107 -5 -4 -13 -19 -16 -33 -5 -20 -1
-31 17 -49 14 -12 22 -28 19 -36 -3 -8 1 -14 10 -14 8 0 22 -11 31 -25 15 -23
45 -27 31 -4 -4 5 -3 9 2 9 4 0 19 16 33 36 l24 36 18 -22 18 -22 0 29 c0 36
9 46 27 32 10 -9 13 -8 13 4 0 9 -22 40 -50 68 -27 28 -50 55 -50 60 0 5 -6 6
-14 3 -7 -3 -16 2 -19 10 -7 19 -47 22 -47 4 0 -8 -3 -8 -9 -2 -11 11 -3 64
10 64 6 0 12 -7 15 -15 7 -17 24 -20 24 -4 0 11 -70 79 -82 79 -4 0 -4 -45 -1
-101z"/>
<path d="M23490 12430 c0 -5 -7 -10 -16 -10 -13 0 -15 -7 -10 -32 5 -24 4 -30
-5 -21 -9 9 -17 7 -32 -7 -23 -22 -21 -43 12 -130 27 -70 36 -84 49 -76 8 4 5
17 -8 39 -30 49 -33 56 -26 74 5 12 9 14 18 5 17 -17 28 -15 22 3 -4 8 -1 15
6 15 8 0 10 8 6 24 -3 12 -3 26 1 30 11 11 33 -55 40 -119 9 -96 23 -100 17
-5 -2 47 -5 91 -6 99 -1 8 -10 23 -20 33 -10 10 -18 27 -18 37 0 11 -3 26 -6
35 -7 18 -24 22 -24 6z"/>
<path d="M18731 5449 c-14 -11 -27 -36 -31 -60 -7 -36 -5 -41 19 -54 15 -7 44
-17 65 -20 24 -5 40 -14 43 -25 7 -27 63 -20 90 10 28 32 28 44 1 75 -15 17
-28 23 -41 19 -13 -4 -28 4 -50 29 -40 45 -65 52 -96 26z"/>
<path d="M20011 7020 c-73 -21 -93 -36 -85 -68 6 -20 12 -22 78 -22 39 0 87 5
106 10 19 5 62 16 94 24 33 8 69 25 80 37 l21 21 -67 -6 c-50 -5 -77 -3 -104
9 -44 18 -43 18 -123 -5z"/>
</g>
</svg>
