<?xml version="1.0" standalone="no"?>
<!DOCTYPE svg PUBLIC "-//W3C//DTD SVG 20010904//EN"
 "http://www.w3.org/TR/2001/REC-SVG-20010904/DTD/svg10.dtd">
<svg version="1.0" xmlns="http://www.w3.org/2000/svg"
 width="940.000000pt" height="788.000000pt" viewBox="0 0 940.000000 788.000000"
 preserveAspectRatio="xMidYMid meet">
<metadata>
Created by potrace 1.16, written by Peter Selinger 2001-2019
</metadata>
<g transform="translate(0.000000,788.000000) scale(0.100000,-0.100000)"
fill="#000000" stroke="none">
<path d="M4220 7187 c-3 -3 -43 -11 -90 -17 -84 -11 -190 -36 -282 -66 -26 -9
-52 -13 -58 -9 -5 3 -10 2 -10 -3 0 -5 -28 -20 -62 -32 -35 -13 -99 -40 -142
-61 -44 -21 -84 -35 -89 -32 -6 3 -7 1 -3 -5 4 -7 3 -12 -2 -12 -6 0 -37 -15
-70 -34 -33 -19 -63 -32 -66 -28 -3 3 -6 1 -6 -5 0 -6 -19 -22 -42 -36 -24
-14 -72 -47 -108 -73 -36 -27 -67 -49 -70 -49 -3 0 -30 -24 -60 -52 -30 -29
-58 -53 -61 -53 -8 0 -239 -232 -239 -240 0 -3 -10 -15 -22 -27 -13 -11 -39
-39 -58 -63 -19 -23 -41 -49 -47 -56 -7 -7 -13 -15 -13 -19 0 -4 -6 -12 -12
-19 -7 -8 -20 -24 -28 -36 -8 -12 -21 -28 -27 -36 -7 -7 -13 -17 -13 -23 0 -6
-4 -11 -10 -11 -5 0 -10 -6 -10 -13 0 -7 -13 -31 -30 -53 -16 -21 -30 -44 -30
-50 0 -7 -7 -15 -16 -18 -9 -4 -14 -9 -11 -13 4 -3 2 -13 -5 -20 -19 -23 -62
-106 -134 -259 -13 -28 -24 -54 -24 -58 0 -3 -8 -25 -19 -49 -42 -97 -61 -146
-82 -217 -13 -41 -26 -79 -31 -84 -4 -6 -8 -22 -8 -37 0 -15 -4 -31 -10 -34
-5 -3 -10 -19 -10 -35 0 -34 -29 -151 -41 -166 -5 -6 -6 -14 -3 -17 3 -3 -2
-43 -11 -89 -9 -46 -18 -94 -19 -108 -14 -139 -30 -260 -35 -260 -11 0 -13
-188 -2 -208 7 -12 7 -22 0 -29 -10 -10 -13 -166 -5 -213 11 -60 24 -177 22
-200 -1 -14 1 -34 5 -45 4 -12 10 -53 13 -92 7 -85 13 -103 35 -104 13 0 14
-1 1 -7 -8 -4 -16 -13 -18 -20 -2 -13 21 -195 39 -297 32 -188 39 -284 26
-389 -7 -62 -26 -126 -37 -126 -4 0 -7 -6 -8 -12 0 -7 -12 -45 -25 -84 -14
-39 -28 -92 -32 -117 -4 -26 -10 -45 -14 -43 -9 6 5 -259 19 -334 17 -97 41
-143 84 -164 31 -14 35 -20 26 -36 -22 -41 -11 -104 34 -196 23 -49 57 -111
74 -138 17 -27 29 -54 25 -60 -3 -6 -3 -8 1 -4 5 4 34 -26 66 -65 82 -103 188
-207 210 -207 6 0 10 -4 10 -10 0 -5 7 -10 15 -10 8 0 15 -4 15 -9 0 -5 26
-22 58 -37 31 -16 59 -31 62 -35 3 -3 23 -12 45 -19 73 -24 168 -71 209 -105
64 -52 225 -138 306 -163 168 -53 336 -64 465 -31 102 26 245 69 267 80 10 5
25 9 33 9 8 0 23 4 33 10 28 15 132 60 140 60 5 0 14 6 20 13 7 6 16 12 20 12
18 2 92 47 122 75 l33 31 23 -22 c13 -12 21 -26 17 -32 -3 -6 -1 -7 5 -3 6 4
21 -10 34 -34 13 -22 29 -40 36 -40 6 0 12 -3 12 -8 0 -4 18 -26 40 -50 22
-23 37 -42 34 -42 -4 0 72 -67 101 -88 6 -4 28 -20 50 -37 65 -49 105 -75 115
-75 6 0 10 -4 10 -8 0 -10 93 -57 126 -65 51 -11 299 26 362 54 26 12 63 28
82 37 19 8 47 23 62 33 29 21 50 24 76 9 9 -5 62 -21 117 -36 128 -33 244 -34
325 -3 30 11 64 23 75 26 11 4 22 9 25 12 8 9 62 41 98 57 17 8 32 18 32 23 0
5 19 21 42 36 22 15 79 64 126 109 46 44 89 80 94 78 5 -1 7 2 3 8 -6 10 37
78 85 133 29 34 64 87 57 87 -3 0 -40 -34 -84 -75 -93 -89 -100 -95 -140 -117
-46 -27 -57 -23 -36 12 9 17 21 30 25 30 4 0 14 17 24 38 41 93 94 179 94 151
0 -9 4 -8 13 4 6 9 30 23 52 30 34 12 46 25 78 80 21 37 37 72 35 79 -5 15
-21 -3 -62 -72 -26 -46 -39 -57 -75 -69 -23 -7 -44 -12 -45 -10 -2 2 42 96 97
208 97 196 100 204 81 218 -18 14 -18 15 4 8 28 -8 30 15 3 39 -11 10 -17 25
-14 33 5 12 7 12 14 2 4 -7 5 -18 1 -24 -3 -5 2 -4 12 4 9 8 15 20 12 27 -2 6
6 22 20 35 23 21 35 67 14 54 -5 -3 -10 -1 -10 4 0 6 8 11 18 11 28 0 62 43
55 70 -4 15 -2 21 5 16 6 -3 13 -2 17 4 4 6 12 7 18 4 7 -4 9 -4 5 1 -4 4 1
20 11 34 25 37 54 102 47 108 -2 3 3 13 12 23 21 22 58 30 55 13 -2 -7 1 -13
5 -13 18 0 34 -72 27 -123 -25 -186 -101 -386 -229 -597 -27 -45 -41 -77 -34
-79 39 -13 220 343 279 549 45 155 43 299 -6 388 -13 23 -20 40 -15 37 4 -3
11 8 15 25 4 16 11 30 15 30 5 0 7 7 4 15 -4 8 -1 15 7 15 7 0 9 3 6 6 -3 4
-2 15 3 24 5 10 11 39 11 64 1 25 6 43 11 40 8 -5 12 14 10 46 0 8 5 18 11 22
9 6 9 8 0 8 -13 0 -6 30 9 41 5 3 11 14 13 25 22 90 80 272 87 268 4 -3 5 2 2
11 -3 8 0 45 7 81 11 56 11 67 -2 74 -7 5 -21 8 -29 5 -8 -2 -80 -6 -160 -9
-80 -2 -133 -2 -117 0 24 5 27 10 27 45 0 21 -5 39 -11 39 -15 0 -7 35 9 36 6
1 19 2 28 3 8 0 13 5 9 10 -3 5 0 16 7 23 20 21 38 56 38 73 0 8 4 23 9 33 5
9 12 25 15 34 3 11 12 15 26 11 11 -3 20 -2 19 3 -4 22 2 33 21 39 11 4 18 10
15 15 -3 4 1 13 9 19 11 9 15 9 20 -1 4 -9 5 -9 5 2 -3 34 2 40 32 40 27 0 30
-3 23 -22 -6 -21 -6 -21 10 -5 10 9 15 21 12 25 -3 5 20 6 51 4 47 -4 55 -2
50 10 -5 14 26 246 37 274 3 7 -7 17 -22 22 l-27 9 28 6 27 7 0 153 c0 191
-33 482 -80 707 -10 52 -17 96 -15 98 2 3 -2 14 -10 26 -8 11 -15 32 -15 45 0
14 -9 50 -20 80 -11 31 -21 65 -23 76 -2 11 -8 31 -14 45 -6 14 -28 70 -48
125 -40 106 -78 193 -126 288 -16 33 -27 63 -23 68 3 5 1 9 -5 9 -14 0 -52 75
-43 85 4 5 1 4 -7 0 -11 -6 -13 -4 -8 9 4 9 3 15 -2 12 -11 -7 -53 69 -43 79
4 5 2 6 -3 2 -6 -3 -39 36 -75 86 -55 80 -122 165 -182 231 -10 11 -18 23 -18
28 0 4 -7 8 -15 8 -8 0 -15 7 -15 15 0 8 -3 14 -7 13 -15 -4 -53 23 -53 37 0
21 -30 19 -31 -2 -1 -10 -4 -2 -8 17 -4 24 -14 39 -35 50 -23 12 -30 12 -33 2
-4 -9 -9 -10 -18 -2 -23 19 -25 -16 -3 -40 l21 -22 -24 7 c-13 4 -28 11 -33
16 -6 5 -18 9 -28 9 -27 0 -22 19 7 26 14 3 23 10 20 14 -2 4 7 8 21 8 14 0
31 5 37 11 9 10 6 11 -15 6 -32 -8 -35 -3 -11 21 16 16 16 16 -7 9 -14 -4 -30
-16 -37 -25 -8 -12 -21 -16 -38 -12 -28 5 -45 22 -22 22 18 0 30 27 15 36 -5
4 -14 1 -18 -7 -7 -10 -12 -10 -23 -1 -11 10 -17 9 -27 -3 -9 -11 -9 -15 -1
-15 7 0 9 -5 5 -12 -4 -6 -3 -8 3 -5 6 4 16 0 23 -8 11 -13 10 -14 -4 -9 -9 3
-16 1 -16 -4 0 -6 9 -9 20 -7 24 5 32 -7 32 -50 0 -28 4 -34 29 -39 18 -3 29
-12 30 -23 0 -13 2 -14 6 -4 3 8 -2 20 -12 28 -10 7 -16 16 -12 19 8 9 70 -16
79 -32 5 -7 17 -10 28 -7 16 4 19 2 13 -13 -5 -13 -3 -16 10 -11 11 4 17 1 17
-9 0 -8 -4 -13 -9 -9 -5 3 -12 1 -15 -4 -4 -5 4 -12 16 -14 l23 -4 -23 -2
c-12 0 -31 10 -44 24 -16 19 -24 22 -35 14 -15 -13 -18 -33 -3 -24 6 3 17 0
25 -9 9 -9 11 -17 5 -21 -5 -3 -10 -12 -10 -18 0 -8 4 -7 9 2 8 12 12 12 24 2
13 -10 17 -9 26 6 6 10 10 14 11 8 0 -19 -18 -38 -29 -30 -8 5 -10 -1 -5 -19
4 -19 2 -26 -8 -26 -8 0 -18 3 -22 7 -3 4 -17 8 -29 10 -17 2 -14 -2 13 -18
l35 -20 -31 5 -30 5 1 -59 c1 -39 7 -64 18 -75 20 -20 22 -32 5 -37 -8 -3 -6
-13 9 -31 12 -15 23 -22 25 -16 2 7 9 4 18 -7 9 -11 10 -15 3 -10 -21 12 -16
-4 37 -113 28 -57 49 -106 46 -109 -3 -3 -9 3 -13 14 -3 10 -33 65 -66 123
-337 597 -847 1048 -1408 1245 -216 75 -351 98 -629 103 -129 3 -237 3 -240 0z
m665 -531 c169 -18 403 -68 515 -110 19 -7 94 -32 165 -56 146 -47 281 -109
278 -128 -2 -6 3 -11 10 -9 6 1 11 -4 9 -11 -1 -8 2 -11 7 -8 11 7 133 -122
127 -133 -3 -4 5 -14 18 -20 12 -7 30 -25 39 -39 8 -15 24 -36 34 -47 35 -38
62 -82 55 -90 -4 -5 -2 -5 4 -2 11 6 84 -102 84 -124 0 -5 4 -9 8 -9 9 0 47
-62 44 -72 -1 -5 3 -8 9 -8 5 0 7 -4 4 -10 -3 -5 -1 -10 4 -10 6 0 11 -7 11
-15 0 -8 5 -15 11 -15 5 0 8 -4 5 -9 -4 -5 -2 -11 3 -13 5 -1 11 -9 13 -17 2
-8 11 -23 21 -33 10 -10 20 -32 24 -48 3 -17 9 -30 14 -30 5 0 9 -9 9 -20 0
-11 5 -20 10 -20 6 0 10 -8 10 -17 0 -10 9 -33 20 -50 11 -18 18 -33 15 -33
-3 0 4 -17 15 -37 11 -21 20 -42 20 -46 0 -5 7 -25 16 -45 29 -66 57 -150 59
-177 1 -5 6 -19 12 -30 10 -18 16 -42 28 -103 2 -13 7 -32 10 -43 4 -11 8 -32
10 -47 3 -15 7 -38 10 -52 3 -14 7 -29 8 -35 2 -5 6 -15 10 -21 4 -7 7 -23 7
-35 0 -25 3 -52 13 -109 11 -59 18 -123 21 -167 1 -23 4 -44 7 -47 2 -3 4 -78
3 -168 -2 -127 1 -168 12 -185 8 -13 10 -23 4 -23 -5 0 -7 -13 -3 -31 6 -33
-16 -239 -26 -239 -3 0 -7 -22 -8 -49 -1 -27 -6 -58 -12 -69 -6 -11 -13 -34
-16 -52 -3 -18 -11 -42 -17 -54 -6 -11 -11 -22 -10 -23 6 -10 0 -20 -13 -20
-8 0 -12 4 -9 9 3 4 -2 8 -10 8 -9 0 -16 5 -16 11 0 5 -4 7 -10 4 -5 -3 -10
-1 -10 4 0 6 -4 11 -9 11 -12 0 -103 60 -112 73 -3 5 -9 9 -12 9 -23 0 -46 12
-40 22 3 6 3 8 -1 4 -12 -10 -67 13 -59 25 3 5 1 7 -4 4 -12 -7 -77 16 -69 24
3 3 -5 5 -17 4 -12 0 -65 4 -117 8 -74 7 -112 5 -175 -8 -81 -16 -142 -34
-160 -46 -8 -5 -55 -19 -75 -21 -3 -1 -10 -8 -16 -16 -7 -9 -16 -12 -24 -7 -8
5 -11 4 -6 -3 3 -6 -3 -13 -13 -17 -26 -8 -175 -105 -179 -116 -2 -5 -9 -9
-15 -10 -7 0 -30 -22 -52 -49 -22 -27 -45 -49 -51 -49 -6 -1 -18 -9 -25 -18
-13 -17 -12 -17 6 -3 11 8 4 -4 -16 -25 -33 -37 -125 -147 -141 -170 -25 -34
-92 -111 -99 -113 -5 -2 -9 -10 -9 -18 0 -8 -7 -17 -15 -20 -8 -4 -15 -11 -15
-16 0 -16 -47 -68 -55 -60 -4 4 -5 2 -3 -5 3 -10 -23 -47 -64 -94 -10 -10 -18
-22 -18 -25 0 -4 -16 -26 -35 -50 -19 -23 -35 -47 -35 -52 0 -6 -4 -12 -8 -14
-4 -1 -29 -40 -56 -85 -26 -46 -52 -85 -57 -88 -5 -3 -16 -23 -26 -43 -9 -20
-20 -39 -23 -42 -4 -3 -18 -27 -31 -55 -14 -27 -30 -59 -36 -70 -6 -11 -22
-44 -34 -72 -13 -29 -26 -53 -29 -53 -3 0 -5 24 -6 53 -2 107 -15 244 -29 312
-8 39 -17 85 -20 103 -3 18 -9 41 -14 50 -5 9 -24 64 -42 122 -18 58 -50 144
-70 193 -21 48 -36 87 -33 87 2 0 -7 18 -21 40 -14 22 -25 44 -25 50 0 6 -18
35 -39 64 -22 30 -37 57 -33 61 4 5 2 5 -5 1 -14 -8 -36 27 -25 39 4 5 2 5 -4
2 -12 -7 -71 71 -66 86 1 5 -1 6 -6 3 -5 -3 -38 25 -74 62 -56 58 -101 100
-193 181 -73 64 -261 171 -301 171 -9 0 -12 5 -8 12 4 6 3 8 -4 4 -6 -3 -23
-1 -39 5 -75 31 -232 45 -355 31 -104 -12 -113 -14 -158 -28 -14 -4 -27 -6
-29 -5 -2 2 -7 -1 -10 -6 -7 -10 -84 -48 -90 -44 -2 2 -7 -2 -10 -7 -7 -11
-112 -74 -116 -70 -8 8 -36 265 -40 363 -3 60 -8 132 -11 158 -3 27 0 54 5 61
6 7 11 36 12 64 1 29 5 52 8 52 3 0 5 31 3 70 -2 38 0 70 5 70 4 0 9 32 10 71
2 39 12 116 23 171 11 55 20 102 20 105 0 2 4 2 9 -1 4 -3 6 5 4 17 -12 59
130 470 242 703 30 63 55 119 55 124 0 4 4 10 8 12 13 5 72 107 73 126 0 9 25
51 55 92 30 41 59 87 65 103 6 15 15 27 20 27 5 0 9 6 9 13 0 27 159 115 182
101 6 -4 8 -3 5 3 -4 5 5 16 18 23 39 21 19 30 -52 23 -81 -8 -80 10 1 27 30
6 92 24 138 40 175 59 215 73 278 98 127 49 276 93 365 108 49 9 93 18 96 20
4 2 44 7 90 10 46 4 85 7 86 8 12 9 282 3 388 -8z m1294 -3785 c17 -11 17 -11
-74 -86 -98 -82 -200 -169 -206 -179 -4 -5 -14 -6 -22 -3 -8 3 -25 -2 -38 -11
-21 -14 22 39 71 89 58 59 233 197 250 198 3 1 11 -3 19 -8z m163 -76 c19 -19
25 -35 24 -63 0 -20 -4 -42 -8 -48 -4 -6 -10 -29 -14 -52 -4 -27 -11 -39 -19
-36 -9 4 -11 -3 -8 -20 3 -14 9 -26 15 -26 5 0 5 -7 0 -17 -5 -10 -7 -25 -5
-33 4 -10 0 -8 -9 3 -13 18 -15 16 -32 -25 -16 -40 -18 -41 -26 -20 -5 12 -12
22 -15 22 -4 0 -4 -4 -1 -9 3 -4 -2 -17 -10 -27 -13 -15 -15 -16 -10 -2 5 16
-12 28 -41 28 -26 0 -83 32 -76 43 3 6 1 7 -5 3 -11 -7 -51 11 -64 29 -5 6 -8
5 -8 -2 0 -7 -4 -13 -10 -13 -5 0 -10 9 -10 21 0 12 -5 19 -12 17 -20 -7 -49
24 -37 39 6 7 16 10 22 6 6 -3 7 -1 3 6 -16 26 179 177 246 190 70 14 84 12
110 -14z m308 -1028 c-17 -41 -40 -83 -50 -92 -11 -10 -20 -28 -20 -39 0 -27
-74 -163 -107 -198 -22 -23 -88 -47 -99 -35 -2 2 43 101 101 219 l105 215 42
10 c24 5 47 6 51 2 5 -3 -5 -40 -23 -82z"/>
<path d="M6753 1843 c-8 -21 -53 -113 -99 -204 -64 -129 -80 -170 -71 -178 10
-7 24 13 61 82 26 51 54 103 61 117 8 14 26 53 41 88 15 34 30 62 33 62 4 0 7
8 7 18 1 9 4 25 9 35 5 12 3 17 -9 17 -10 0 -23 -15 -33 -37z"/>
</g>
</svg>
