<?xml version="1.0" standalone="no"?>
<!DOCTYPE svg PUBLIC "-//W3C//DTD SVG 20010904//EN"
 "http://www.w3.org/TR/2001/REC-SVG-20010904/DTD/svg10.dtd">
<svg version="1.0" xmlns="http://www.w3.org/2000/svg"
 width="940.000000pt" height="788.000000pt" viewBox="0 0 940.000000 788.000000"
 preserveAspectRatio="xMidYMid meet">
<metadata>
Created by potrace 1.16, written by Peter Selinger 2001-2019
</metadata>
<g transform="translate(0.000000,788.000000) scale(0.100000,-0.100000)"
fill="#000000" stroke="none">
<path d="M1802 6309 c-22 -21 -332 -184 -410 -215 -21 -9 -23 -16 -25 -91 -1
-45 1 -77 4 -71 4 5 7 -19 7 -54 2 -92 18 -443 31 -663 6 -104 11 -199 11
-210 -1 -11 4 -78 10 -150 5 -71 10 -195 11 -275 1 -80 5 -149 9 -155 11 -14
17 -204 6 -198 -5 4 -7 2 -3 -3 5 -9 9 -69 22 -314 3 -47 7 -123 10 -170 3
-47 7 -123 10 -170 3 -47 9 -155 15 -240 6 -85 12 -223 13 -306 1 -84 5 -150
10 -147 4 2 7 -38 7 -89 1 -168 9 -345 20 -390 5 -23 10 -90 10 -148 0 -147
30 -650 41 -677 8 -22 27 -23 55 -2 6 5 1368 12 3027 16 2800 6 3016 5 3032
-10 24 -25 53 -6 60 41 3 20 8 50 10 66 3 16 8 97 11 180 3 83 21 401 40 706
19 305 37 631 40 724 2 93 8 185 13 205 5 20 10 92 11 161 1 69 5 170 10 225
5 55 11 159 14 230 4 72 11 189 16 260 6 72 10 181 10 243 0 62 5 122 11 133
6 11 10 70 10 132 -1 62 6 220 14 352 8 132 19 314 25 405 18 292 19 380 4
380 -8 0 -14 7 -14 15 0 8 5 15 10 15 6 0 10 7 10 15 0 8 -8 15 -17 15 -17 0
-163 69 -393 185 l-106 53 -2629 1 c-1447 1 -2728 3 -2848 4 -189 2 -220 0
-235 -14z m63 -35 c-11 -8 -86 -51 -167 -96 -82 -44 -148 -84 -148 -89 0 -5
109 -10 243 -12 l242 -2 -295 -3 -295 -2 45 26 c194 113 349 194 370 194 24
-1 25 -1 5 -16z m2762 -201 c-345 -2 -909 -2 -1255 0 -345 1 -62 2 628 2 690
0 973 -1 627 -2z m2221 -50 c-333 -2 -882 -2 -1220 0 -337 1 -64 2 607 2 671
0 947 -1 613 -2z m-5114 -244 c14 -17 26 -39 26 -50 0 -51 -50 -99 -101 -99
-34 0 -79 53 -79 93 0 82 101 119 154 56z m1201 6 c38 -37 35 -95 -6 -129 -41
-35 -83 -34 -120 3 -41 41 -37 102 10 138 28 22 89 16 116 -12z m-547 -62 l3
-63 -156 0 -155 0 0 58 c0 32 3 62 7 66 4 3 72 5 152 4 l146 -3 3 -62z m1220
0 l3 -63 -154 0 c-172 0 -167 -2 -167 69 0 59 7 62 170 59 l145 -3 3 -62z
m228 -211 c17 -35 34 -64 37 -65 3 -1 21 27 39 63 l33 65 65 0 65 0 0 -115 0
-115 -37 -3 -38 -3 -1 88 0 88 -45 -87 c-42 -84 -46 -88 -77 -88 -31 0 -35 4
-77 88 l-45 87 -3 -87 -3 -88 -39 0 -40 0 0 113 c0 63 3 117 7 121 4 4 34 6
68 4 l60 -3 31 -63z m652 56 c10 -14 122 -218 122 -224 0 -2 -19 -4 -43 -4
-31 0 -45 5 -55 20 -10 17 -23 20 -82 20 -59 0 -72 -3 -82 -20 -10 -15 -24
-20 -55 -20 -24 0 -43 2 -43 5 0 12 114 220 124 227 18 13 103 9 114 -4z m210
-68 c2 -41 8 -80 14 -87 8 -10 30 -13 72 -11 l61 3 3 80 c3 83 9 95 50 95 15
0 26 -8 32 -26 21 -53 5 -178 -24 -200 -23 -17 -133 -25 -195 -15 -79 12 -91
31 -91 140 0 48 3 91 7 95 4 4 21 6 38 4 l30 -3 3 -75z m564 52 c20 -19 23
-33 23 -98 0 -109 -7 -114 -181 -114 l-134 0 0 113 c0 63 3 117 8 121 4 4 64
6 134 4 117 -3 129 -5 150 -26z m136 -94 l3 -118 -41 0 -40 0 0 114 c0 121 2
127 50 123 25 -2 25 -2 28 -119z m311 111 c42 -15 51 -35 51 -118 0 -57 -4
-75 -19 -90 -25 -25 -92 -35 -188 -29 -103 7 -118 22 -118 122 0 76 10 101 50
116 30 13 187 12 224 -1z m-2391 -532 c3 -30 8 -37 35 -47 27 -9 107 -72 107
-84 0 -2 -21 7 -47 20 -27 13 -60 24 -76 24 l-27 0 2 -127 c3 -124 2 -128 -18
-131 -30 -4 -33 11 -35 144 l-1 116 -40 -6 c-49 -8 -49 11 0 34 17 8 32 20 32
25 0 21 41 76 53 72 7 -2 13 -20 15 -40z m2841 4 c20 -21 51 -46 69 -55 47
-24 43 -46 -8 -39 l-40 6 0 -119 c0 -129 -8 -156 -37 -138 -16 10 -18 25 -15
133 3 121 3 121 -20 121 -13 0 -43 -9 -67 -20 -24 -11 -45 -19 -47 -17 -9 8
70 76 96 82 29 6 30 7 14 36 -15 30 -12 49 8 49 6 0 27 -17 47 -39z m-3982 12
c-2 -10 -8 -25 -11 -34 -5 -12 1 -19 24 -27 17 -6 42 -25 56 -42 14 -16 31
-30 38 -30 7 0 13 -6 13 -14 0 -9 -16 -5 -55 15 -92 49 -92 48 -92 -90 0 -123
-9 -151 -45 -137 -12 4 -15 28 -15 131 l0 125 -31 0 c-35 0 -35 19 0 36 13 7
34 28 48 48 18 25 34 36 51 36 18 0 23 -4 19 -17z m5122 -23 c22 -22 47 -40
54 -40 15 0 53 -37 45 -45 -2 -3 -19 0 -37 5 -23 6 -33 6 -36 -3 -3 -7 -6 -66
-7 -132 -3 -112 -4 -120 -23 -120 -19 0 -20 7 -22 105 -4 168 -8 172 -100 121
-29 -16 -53 -28 -53 -26 0 12 80 86 103 94 l28 11 -20 26 c-27 34 -26 44 3 44
14 0 40 -16 65 -40z m-2400 -984 c65 -18 163 -57 158 -62 -2 -3 -21 2 -43 9
-21 8 -97 22 -167 32 -110 16 -142 17 -225 7 -108 -13 -205 -39 -300 -83 -117
-54 -102 -25 18 35 72 37 117 53 200 72 70 17 285 11 359 -10z m-2609 -406
c12 -7 12 -13 4 -27 -16 -26 -234 -32 -258 -7 -13 12 -14 19 -5 30 14 17 234
20 259 4z m1135 -20 l0 -25 -121 -3 c-99 -2 -123 0 -134 13 -10 12 -10 18 0
30 11 13 35 15 134 13 l121 -3 0 -25z m3370 0 l0 -25 -115 -3 c-63 -1 -125 0
-137 3 -22 5 -31 34 -16 49 4 3 66 5 137 4 l131 -3 0 -25z m-4497 -182 c15
-15 15 -45 0 -54 -6 -4 -68 -6 -137 -5 -144 3 -175 15 -135 55 12 13 40 16
138 16 81 0 126 -4 134 -12z m1136 -4 c18 -18 19 -24 7 -43 -7 -11 -37 -14
-142 -12 -73 1 -137 5 -141 7 -12 8 -10 38 4 52 8 8 53 12 134 12 98 0 126 -3
138 -16z m3361 -24 l0 -25 -133 -3 c-111 -2 -133 0 -138 13 -3 8 -3 22 0 30 5
13 27 15 138 13 l133 -3 0 -25z m-4509 -180 c31 -12 32 -48 2 -55 -13 -3 -77
-4 -143 -3 l-120 3 -3 27 c-3 21 1 27 20 30 49 8 221 6 244 -2z m1147 -9 c13
-10 14 -18 6 -32 -9 -17 -22 -19 -137 -19 -128 0 -152 6 -152 37 0 24 43 33
156 30 76 -1 116 -6 127 -16z m3362 -21 l0 -25 -133 -3 c-111 -2 -133 0 -138
13 -3 8 -3 22 0 30 5 13 27 15 138 13 l133 -3 0 -25z m-4501 -183 c10 -7 16
-22 14 -33 -3 -18 -13 -19 -143 -19 -140 0 -140 0 -143 24 -2 13 2 28 10 32
22 15 242 11 262 -4z m1124 7 c18 -5 22 -13 20 -33 l-3 -26 -134 0 c-118 0
-135 2 -145 18 -21 34 16 47 133 47 58 0 116 -3 129 -6z m3377 -34 l0 -25
-133 -3 c-111 -2 -133 0 -138 13 -3 8 -3 22 0 30 5 13 27 15 138 13 l133 -3 0
-25z m-1566 -392 c-155 -125 -318 -178 -547 -178 -145 0 -244 20 -341 70 -57
29 -102 59 -89 60 4 0 43 -16 87 -35 137 -60 188 -70 361 -69 142 0 162 3 240
28 96 32 172 69 245 119 51 36 87 39 44 5z m-642 -380 c19 -18 23 -32 23 -85
0 -59 2 -64 25 -73 27 -10 28 -11 19 -34 -5 -14 -31 -16 -186 -16 -177 0 -179
0 -203 25 -32 31 -32 69 0 100 23 24 29 25 160 25 105 0 136 3 133 13 -3 9
-44 13 -146 15 l-142 3 0 24 0 25 147 0 c137 0 148 -1 170 -22z m143 -64 c0
-77 2 -86 20 -91 13 -3 20 -14 20 -29 0 -22 -4 -24 -45 -24 l-45 0 0 90 c0 83
-1 90 -20 90 -15 0 -20 7 -20 25 0 23 4 25 45 25 l45 0 0 -86z m395 62 c8 -13
13 -31 9 -40 -8 -20 -43 -21 -50 -1 -5 12 -28 15 -120 15 l-114 0 0 -61 c0
-52 3 -62 20 -66 13 -4 20 -14 20 -30 0 -23 -3 -24 -47 -21 l-48 3 0 85 c0 73
-2 85 -17 88 -11 2 -18 13 -18 28 l0 24 175 0 c172 0 175 0 190 -24z m1976
-285 c50 -50 35 -124 -30 -151 -39 -16 -76 -6 -107 27 -53 57 -9 153 71 153
27 0 44 -8 66 -29z"/>
<path d="M1619 5781 c-16 -13 -23 -29 -23 -54 0 -47 27 -77 71 -77 44 0 73 30
73 75 0 65 -70 97 -121 56z"/>
<path d="M2819 5781 c-27 -21 -32 -79 -9 -106 49 -59 140 -22 140 56 0 30 -44
69 -78 69 -17 0 -40 -8 -53 -19z"/>
<path d="M5045 5498 c-3 -7 -4 -31 -2 -53 l2 -40 68 -3 c42 -2 74 2 83 9 17
14 18 71 2 87 -17 17 -147 16 -153 0z"/>
<path d="M5519 5486 c-8 -16 -8 -33 -2 -53 9 -27 11 -28 84 -28 l74 0 0 50 0
50 -73 3 c-68 3 -73 2 -83 -22z"/>
<path d="M7012 1943 c-31 -6 -64 -61 -56 -93 9 -41 34 -60 74 -60 53 0 84 28
84 74 0 55 -44 89 -102 79z"/>
</g>
</svg>
