<?xml version="1.0" standalone="no"?>
<!DOCTYPE svg PUBLIC "-//W3C//DTD SVG 20010904//EN"
 "http://www.w3.org/TR/2001/REC-SVG-20010904/DTD/svg10.dtd">
<svg version="1.0" xmlns="http://www.w3.org/2000/svg"
 width="940.000000pt" height="788.000000pt" viewBox="0 0 940.000000 788.000000"
 preserveAspectRatio="xMidYMid meet">
<metadata>
Created by potrace 1.16, written by Peter Selinger 2001-2019
</metadata>
<g transform="translate(0.000000,788.000000) scale(0.100000,-0.100000)"
fill="#000000" stroke="none">
<path d="M6365 6927 c-115 -4 -222 -8 -237 -9 -16 0 -28 -4 -28 -9 0 -4 -19
-10 -42 -14 -123 -20 -348 -88 -467 -142 -30 -13 -60 -22 -68 -19 -8 3 -11 2
-8 -3 3 -5 -5 -13 -17 -17 -24 -7 -191 -89 -293 -143 -33 -17 -67 -29 -75 -26
-8 4 -11 3 -7 -1 11 -11 -33 -54 -55 -54 -10 0 -18 -4 -18 -8 0 -4 -61 -48
-135 -97 -74 -49 -135 -93 -135 -97 0 -5 -7 -8 -15 -8 -8 0 -15 -4 -15 -8 0
-4 -15 -16 -32 -27 -49 -29 -170 -122 -317 -245 -36 -30 -73 -60 -81 -67 -134
-105 -680 -654 -680 -684 0 -12 -78 -85 -104 -97 -14 -6 -26 -20 -26 -29 -1
-31 -99 -122 -123 -115 -5 1 -6 -2 -3 -7 3 -5 0 -13 -7 -19 -6 -6 -23 -36 -37
-66 -18 -41 -29 -55 -39 -51 -9 3 -12 3 -8 -1 7 -7 -14 -39 -63 -94 -17 -19
-38 -45 -47 -57 -8 -13 -19 -20 -24 -17 -5 3 -8 2 -7 -3 4 -12 -28 -54 -35
-46 -4 3 -7 -1 -7 -11 0 -10 -5 -14 -12 -10 -6 4 -8 3 -4 -4 7 -12 -91 -102
-112 -102 -7 0 -11 -4 -8 -8 3 -5 -34 -30 -82 -57 -48 -26 -90 -54 -95 -61 -4
-7 -14 -20 -23 -29 -8 -8 -13 -15 -9 -15 3 0 -3 -14 -15 -31 -27 -37 -21 -47
14 -24 19 13 25 14 21 4 -3 -8 -22 -25 -43 -39 -20 -14 -39 -27 -42 -30 -3 -3
-18 -14 -35 -24 -16 -11 -37 -25 -45 -33 -8 -8 -52 -41 -98 -74 -46 -33 -86
-68 -89 -77 -3 -9 -16 -31 -29 -48 -30 -40 -58 -136 -119 -399 -14 -60 -30
-124 -35 -141 -6 -17 -10 -40 -10 -52 0 -11 -4 -24 -10 -27 -6 -3 -10 -17 -10
-29 0 -14 -18 -43 -43 -70 -24 -26 -50 -57 -56 -70 -7 -13 -24 -35 -37 -49
-13 -14 -24 -31 -24 -37 0 -6 -4 -9 -8 -6 -5 3 -9 -1 -9 -8 0 -7 -13 -32 -30
-57 -62 -90 -162 -308 -202 -439 -26 -86 -44 -207 -51 -350 -5 -85 -14 -191
-21 -234 -9 -62 -9 -92 1 -135 22 -104 52 -186 86 -238 19 -29 34 -55 34 -59
0 -15 104 -112 182 -171 49 -36 88 -70 88 -74 0 -7 20 -32 67 -80 42 -45 92
-81 153 -112 36 -17 67 -35 68 -39 2 -5 8 -8 13 -8 5 0 26 -11 47 -24 32 -21
70 -39 157 -72 11 -4 58 -15 105 -25 98 -20 331 -20 368 0 12 6 22 10 22 7 0
-2 17 0 38 5 67 17 87 21 100 22 6 0 12 4 12 9 0 4 9 8 21 8 11 0 33 6 47 14
33 18 120 56 127 56 2 0 28 15 57 32 65 40 100 61 155 89 23 12 62 40 85 61
24 21 68 57 98 81 30 23 78 66 107 95 30 28 55 52 57 52 1 0 16 -11 32 -25 16
-14 32 -25 35 -25 3 0 45 -22 93 -50 48 -27 89 -50 92 -50 3 0 24 -8 47 -19
23 -10 76 -29 117 -41 41 -13 82 -25 90 -28 8 -3 22 -6 30 -8 8 -2 44 -9 80
-16 69 -14 449 -18 550 -7 64 8 171 33 251 60 31 11 64 19 73 19 10 0 30 6 44
14 15 7 52 24 82 36 30 12 66 28 80 36 14 8 55 28 93 45 37 18 67 36 67 40 0
5 4 9 10 9 9 0 120 67 130 79 3 3 30 25 60 48 90 67 110 84 189 163 88 87 170
186 235 285 25 39 50 75 56 82 5 7 10 17 10 23 0 5 5 10 12 10 6 0 8 3 5 7 -4
3 -1 13 6 22 8 9 22 37 33 63 10 25 23 44 28 41 5 -4 6 -1 2 6 -4 6 -1 23 8
36 9 13 16 28 16 33 0 5 8 27 17 48 9 22 18 48 20 59 2 10 7 22 11 25 4 3 8
12 9 20 1 8 8 40 16 70 37 145 57 278 57 390 l0 81 88 88 c102 102 194 214
230 280 14 25 28 48 31 51 3 3 19 30 35 60 66 124 96 186 96 198 0 7 5 10 10
7 6 -4 9 -3 8 2 -4 14 13 53 23 53 5 0 8 3 7 8 -1 4 6 24 15 46 9 21 17 43 17
48 0 12 -85 135 -118 171 l-27 28 46 -24 c141 -76 139 -75 139 -51 0 11 6 15
18 12 13 -4 26 8 47 44 16 26 33 48 38 48 4 0 6 4 2 10 -3 5 2 18 12 28 28 29
26 39 -22 102 -44 57 -55 77 -35 65 22 -14 2 30 -39 84 -31 42 -33 52 -15 109
20 67 18 70 -21 32 -29 -28 -35 -31 -41 -17 -4 12 10 35 45 73 28 30 51 59 51
62 0 4 -7 20 -15 36 -19 36 -10 49 14 18 l17 -23 20 28 c11 15 26 44 34 63 8
19 22 40 31 47 9 7 19 25 22 41 7 34 -2 74 -14 66 -5 -3 -10 1 -10 8 -2 17 -2
16 17 68 9 25 20 61 25 80 29 126 47 199 52 207 13 21 22 153 21 308 0 147 -3
166 -27 233 -15 40 -33 85 -41 101 -9 16 -12 31 -9 35 4 3 1 6 -5 6 -7 0 -12
7 -12 15 0 8 -4 15 -10 15 -5 0 -10 5 -10 10 0 6 -5 16 -10 23 -6 7 -31 41
-57 77 -25 36 -69 93 -97 126 -28 34 -64 78 -81 99 -16 20 -39 47 -50 60 -31
35 -108 128 -120 144 -5 8 -51 55 -100 105 -84 84 -198 166 -232 166 -8 0 -12
3 -10 8 3 4 -7 8 -21 9 -15 1 -45 9 -67 19 -22 9 -60 18 -84 19 -24 2 -46 7
-50 11 -3 5 -100 5 -216 1z m289 -1027 l42 0 -13 -87 c-7 -49 -13 -113 -12
-143 1 -41 -9 -85 -40 -175 -126 -363 -122 -347 -119 -448 3 -79 8 -102 36
-161 44 -93 41 -105 -12 -62 -23 20 -48 36 -55 36 -6 0 -11 4 -11 8 0 18 -154
-6 -177 -27 -10 -10 -28 -17 -40 -16 -12 1 -20 -1 -18 -5 2 -4 -7 -18 -20 -30
-14 -13 -25 -29 -25 -37 0 -7 -4 -13 -9 -13 -24 0 -68 -150 -54 -187 4 -11 41
-56 81 -98 77 -84 84 -103 61 -176 -6 -19 -13 -40 -15 -48 -3 -10 -14 -5 -37
18 -54 52 -89 81 -126 103 -20 12 -48 31 -62 42 -14 12 -36 28 -49 36 -12 8
-32 22 -44 30 -11 9 -33 22 -48 29 -16 8 -28 18 -28 23 0 4 -9 8 -20 8 -11 0
-20 5 -20 10 0 6 -9 10 -20 10 -11 0 -20 4 -20 10 0 5 -3 9 -7 8 -11 -3 -109
29 -159 52 -22 10 -58 21 -80 25 -21 4 -73 15 -114 25 -41 10 -136 24 -210 30
-115 11 -147 10 -220 -3 -47 -9 -116 -19 -155 -22 -67 -6 -147 -26 -190 -46
-11 -5 -49 -18 -85 -28 -84 -24 -207 -83 -295 -142 -43 -29 -85 -45 -85 -33 0
15 33 44 50 44 16 0 68 53 177 180 50 59 414 423 478 478 28 24 61 54 75 66
14 12 54 44 90 71 35 28 73 58 84 68 11 9 26 17 33 17 8 0 16 7 19 15 4 8 10
15 15 15 6 0 19 9 31 20 12 11 34 26 50 32 15 7 28 16 28 20 0 5 7 8 15 8 8 0
15 5 15 10 0 6 7 10 15 10 8 0 15 3 15 8 0 4 17 16 38 27 20 10 44 24 52 31
20 16 250 133 320 162 30 13 63 28 72 33 10 5 26 9 37 9 11 0 21 4 23 8 2 7
78 32 138 47 8 2 51 15 95 29 44 14 92 26 106 26 14 0 29 3 33 7 3 4 14 8 24
9 9 2 37 6 62 9 25 4 83 13 130 20 47 7 91 11 98 9 8 -2 33 -4 56 -4z m21
-1220 c3 -5 -28 -76 -69 -157 -144 -283 -248 -435 -297 -437 -25 -1 -24 0 21
59 72 92 150 215 232 370 41 77 77 148 81 158 7 19 22 22 32 7z m-1951 -195
c-10 -8 -25 -15 -32 -15 -44 -1 -495 -234 -554 -287 -9 -8 -22 -12 -29 -7 -7
4 -10 3 -6 -3 4 -6 -4 -18 -18 -27 -34 -23 -55 -19 -26 4 13 11 20 20 15 20
-4 0 7 11 26 25 19 14 36 29 39 34 3 4 53 39 110 77 114 74 284 154 371 174
30 7 69 16 85 20 38 9 44 4 19 -15z m456 -147 c-14 -6 -34 -14 -46 -18 -17 -6
-22 -20 -27 -62 -8 -71 -36 -160 -47 -153 -6 4 -10 -5 -10 -18 0 -13 -7 -37
-15 -54 -12 -25 -34 -37 -137 -78 -67 -27 -155 -66 -196 -87 -41 -21 -81 -38
-88 -38 -8 0 -14 -4 -14 -10 0 -5 -7 -7 -15 -4 -10 4 -15 0 -15 -12 0 -15 -2
-16 -9 -5 -5 8 -7 20 -4 28 3 7 0 13 -6 13 -6 0 -11 7 -11 15 0 8 4 15 10 15
17 0 -16 60 -48 86 -18 15 -32 31 -32 36 0 5 -7 16 -15 25 -8 8 -13 18 -10 23
13 22 -58 -6 -132 -51 -35 -22 -66 -39 -70 -39 -12 0 54 52 142 111 232 157
570 279 790 286 30 1 30 1 5 -9z"/>
</g>
</svg>
