<?xml version="1.0" standalone="no"?>
<!DOCTYPE svg PUBLIC "-//W3C//DTD SVG 20010904//EN"
 "http://www.w3.org/TR/2001/REC-SVG-20010904/DTD/svg10.dtd">
<svg version="1.0" xmlns="http://www.w3.org/2000/svg"
 width="940.000000pt" height="788.000000pt" viewBox="0 0 940.000000 788.000000"
 preserveAspectRatio="xMidYMid meet">
<metadata>
Created by potrace 1.16, written by Peter Selinger 2001-2019
</metadata>
<g transform="translate(0.000000,788.000000) scale(0.100000,-0.100000)"
fill="#000000" stroke="none">
<path d="M4555 5726 c-4 -69 -5 -129 -2 -133 3 -5 62 -10 131 -11 l126 -2 0
135 0 135 -124 0 -124 0 -7 -124z"/>
<path d="M4552 5449 c-2 -109 -1 -120 15 -118 42 4 74 -2 68 -11 -4 -6 -15 -8
-26 -5 -18 6 -19 0 -21 -82 l-2 -88 -3 83 c-3 64 -7 82 -18 82 -9 0 -15 -10
-16 -27 0 -16 -2 -67 -4 -115 l-3 -86 139 -1 139 -2 0 116 0 115 -75 0 c-41 0
-75 4 -75 9 0 5 34 7 77 4 l76 -6 -6 78 c-4 43 -7 100 -7 127 l0 48 -128 0
-128 0 -2 -121z"/>
<path d="M4546 5063 c-3 -4 -6 -53 -6 -110 l0 -103 115 -1 c63 -1 127 -2 143
-3 l27 -1 3 92 c4 135 8 131 -147 132 -71 0 -131 -3 -135 -6z"/>
<path d="M4553 4833 c-9 -3 -13 -34 -13 -104 l0 -99 83 -1 c92 -1 86 -7 -13
-11 l-65 -3 -7 -40 c-4 -22 -7 -65 -7 -96 l-1 -56 149 -2 148 -2 5 77 c6 94 2
112 -26 117 -21 4 -21 4 2 6 21 1 22 4 22 100 0 55 -4 102 -9 105 -12 8 -252
16 -268 9z"/>
<path d="M4536 4401 c-2 -3 -5 -44 -7 -91 -4 -73 -2 -85 13 -88 15 -3 18 7 21
70 l3 73 2 -72 2 -73 130 0 131 0 -3 93 -3 92 -143 1 c-78 1 -144 -2 -146 -5z"/>
<path d="M4568 4063 c-1 -81 -3 -125 -5 -98 -5 58 -14 72 -35 51 -11 -11 -15
-34 -14 -83 1 -60 3 -68 21 -69 37 -3 40 -6 10 -13 -30 -6 -30 -7 -33 -79 -3
-74 -1 -78 43 -73 6 0 9 -55 7 -154 l-3 -155 77 0 c43 0 75 -2 73 -5 -3 -2
-47 -5 -98 -6 -59 -1 -94 -5 -96 -13 -2 -6 -6 -35 -10 -63 l-6 -53 31 0 c16 0
30 -4 30 -9 0 -6 -12 -9 -27 -8 -27 2 -28 0 -31 -54 -2 -46 0 -58 14 -63 10
-4 21 -1 26 6 9 16 10 8 8 -74 l-1 -57 93 -4 93 -3 -92 -2 c-86 -2 -92 -3 -96
-24 l-4 -23 -2 23 c-1 18 -6 23 -23 20 -27 -4 -40 -50 -25 -85 9 -21 15 -22
189 -23 l179 -1 -3 53 -3 53 -60 6 -60 5 60 5 60 4 0 53 c1 49 -1 52 -25 53
l-25 1 24 7 c21 6 24 13 26 64 2 32 -1 57 -7 57 -5 0 -6 5 -3 11 4 6 7 38 7
72 l1 62 -64 6 -64 6 63 1 63 2 -3 67 c-3 62 -5 68 -28 74 -21 6 -22 7 -5 8
34 2 40 16 37 80 -4 58 -5 61 -30 62 -23 2 -23 2 -5 6 24 5 33 21 28 49 -2 11
-4 40 -4 67 l-1 47 -132 0 c-72 0 -129 3 -125 6 3 3 62 5 131 5 l126 -1 0 80
c0 57 -4 80 -12 80 -10 0 -10 2 0 9 9 5 12 31 10 92 l-3 84 -132 3 -133 3 -2
-148z"/>
<path d="M4079 3425 c-1 -8 -2 -21 -3 -27 0 -7 -17 -15 -37 -18 -40 -6 -109
-48 -109 -67 0 -7 -4 -13 -10 -13 -5 0 -10 -8 -10 -17 0 -10 -7 -27 -15 -37
-8 -11 -15 -28 -15 -38 0 -10 -4 -18 -8 -18 -5 0 -9 -6 -9 -12 0 -7 -8 -55
-17 -106 -20 -111 -22 -173 -7 -272 6 -41 12 -91 15 -110 2 -19 6 -42 10 -50
17 -42 34 -115 29 -123 -3 -6 -1 -7 4 -4 7 4 13 -6 16 -26 3 -17 10 -48 16
-67 48 -162 61 -238 61 -367 0 -73 -4 -142 -9 -155 -17 -42 -24 -63 -28 -81
-1 -10 -12 -37 -23 -59 -11 -23 -20 -47 -20 -53 0 -6 -5 -16 -12 -23 -6 -6
-13 -17 -14 -24 -2 -14 -76 -176 -99 -220 -8 -14 -15 -38 -15 -52 0 -14 -6
-43 -14 -63 -53 -138 -25 -462 48 -570 14 -21 26 -41 26 -45 0 -13 82 -92 145
-139 62 -47 104 -69 165 -88 19 -6 51 -15 70 -22 39 -12 57 -15 175 -25 44 -4
87 -8 95 -9 8 -1 43 -2 77 -3 56 -2 62 -4 60 -21 -3 -28 17 -31 21 -3 2 12 7
22 12 22 4 0 6 -9 3 -20 -4 -15 0 -20 17 -20 17 0 20 4 15 20 -5 17 -1 20 29
22 20 1 48 3 64 4 15 1 63 5 107 8 44 4 109 10 145 14 36 3 72 7 80 8 8 1 22
4 30 7 12 4 64 20 140 43 26 8 70 30 70 35 0 4 11 10 25 13 14 4 25 11 25 16
0 6 5 10 11 10 18 0 108 97 139 149 15 26 39 81 53 121 22 64 25 90 26 219 1
135 -1 154 -28 246 -38 127 -54 172 -97 264 -19 40 -34 78 -34 83 0 5 -7 16
-15 24 -8 9 -15 24 -15 34 0 10 -7 20 -15 24 -8 3 -15 14 -15 24 0 10 -3 22
-7 25 -8 8 -43 107 -38 107 2 0 -3 16 -11 35 -7 19 -14 50 -14 69 0 35 33 152
55 196 15 31 31 75 56 160 24 82 27 276 4 339 -8 23 -15 45 -16 49 -9 28 -46
75 -75 92 -26 17 -46 21 -84 18 -28 -2 -51 -8 -51 -14 0 -5 -5 -14 -10 -20 -5
-7 -14 -48 -19 -93 -5 -45 -18 -100 -28 -124 -24 -53 -81 -104 -127 -113 -49
-9 -107 2 -122 23 -7 9 -13 13 -13 8 0 -5 -11 6 -25 25 -14 19 -25 47 -25 62
0 24 -4 28 -27 29 l-28 1 25 7 c21 6 25 13 28 53 l3 47 -73 4 -73 3 73 2 72 2
0 50 0 51 -176 -1 c-117 -1 -180 2 -189 10 -9 8 -15 8 -20 0 -3 -6 -11 -8 -16
-5 -5 4 -9 1 -9 -5 0 -16 -69 -43 -89 -34 -9 4 -21 8 -27 9 -21 5 -74 58 -74
73 0 9 -6 23 -13 31 -19 23 -41 97 -33 110 4 6 2 11 -4 11 -6 0 -10 15 -9 33
1 17 -2 50 -5 72 -4 22 -9 58 -12 80 -8 56 -24 105 -35 105 -5 0 -8 6 -6 13 1
7 -10 13 -25 15 -16 2 -28 8 -28 13 0 5 12 8 26 7 15 -2 29 3 31 10 3 7 -4 12
-16 12 -12 0 -21 5 -21 10 0 16 -30 11 -31 -5z m391 -715 c17 -12 30 -30 30
-40 0 -16 10 -18 97 -19 53 -1 99 -4 102 -6 2 -3 -41 -5 -96 -5 l-101 0 -6
-35 c-4 -20 -5 -39 -2 -44 3 -5 36 -9 73 -10 93 -2 93 -11 0 -11 l-77 0 0 -40
0 -40 182 0 c100 0 179 -2 177 -5 -3 -2 -85 -5 -182 -5 l-177 -2 0 -38 0 -39
185 -1 185 -1 0 31 0 30 43 -22 c65 -35 176 -32 239 4 77 46 128 124 167 256
13 43 27 72 35 72 24 0 49 -81 54 -170 5 -106 -20 -218 -79 -351 -99 -224 -94
-286 44 -594 124 -278 157 -390 157 -535 0 -145 -47 -271 -135 -363 -82 -86
-202 -137 -277 -117 -51 14 -49 34 10 117 172 240 159 524 -26 611 -57 27 -59
27 -314 30 l-258 2 -2 -187 -3 -188 -2 188 -3 187 -53 0 c-141 0 -207 59 -227
202 -12 84 4 175 59 343 73 222 95 335 96 485 0 86 -6 153 -19 217 -17 78 -18
94 -6 108 18 22 69 14 110 -15z m129 -1786 c2 -2 4 -15 4 -29 0 -29 9 -32 28
-8 11 13 11 17 2 20 -30 10 -9 23 37 23 51 0 60 -6 38 -28 -9 -9 -8 -12 5 -12
11 0 17 8 17 24 0 23 2 23 83 22 l82 -1 3 -128 3 -128 -33 -12 c-45 -16 -406
-17 -416 0 -4 6 -7 67 -7 135 l1 123 29 6 c28 5 116 0 124 -7z"/>
<path d="M4494 2348 c-4 -5 1 -17 10 -26 15 -15 18 -15 26 -2 8 13 10 12 10
-2 0 -15 10 -18 53 -20 91 -4 211 4 232 15 24 12 36 28 29 39 -8 12 -352 9
-360 -4z"/>
<path d="M4393 1768 c-21 -42 -24 -69 -6 -86 7 -7 13 -20 13 -28 0 -17 32 -26
85 -22 22 1 59 1 83 0 34 -2 42 -6 42 -21 0 -11 -4 -22 -9 -26 -13 -7 -9 -54
5 -63 7 -4 13 -16 15 -27 4 -19 13 -20 144 -23 168 -3 185 0 185 33 0 14 4 25
9 25 10 0 8 32 -3 63 -3 9 -8 24 -11 33 -4 12 -18 15 -63 14 -129 -5 -152 -2
-152 21 0 12 8 28 18 35 10 8 12 13 5 14 -7 0 -13 5 -13 11 0 5 5 7 10 4 6 -3
10 -1 10 5 0 6 -7 13 -15 16 -8 4 -15 17 -15 30 0 23 -2 23 -99 23 -95 0 -100
-1 -104 -22 l-4 -22 -2 23 c-1 20 -6 22 -56 22 -51 0 -55 -2 -72 -32z"/>
</g>
</svg>
