<?xml version="1.0" standalone="no"?>
<!DOCTYPE svg PUBLIC "-//W3C//DTD SVG 20010904//EN"
 "http://www.w3.org/TR/2001/REC-SVG-20010904/DTD/svg10.dtd">
<svg version="1.0" xmlns="http://www.w3.org/2000/svg"
 width="940.000000pt" height="788.000000pt" viewBox="0 0 940.000000 788.000000"
 preserveAspectRatio="xMidYMid meet">

<g transform="translate(0.000000,788.000000) scale(0.100000,-0.100000)"
fill="#000000" stroke="none">
<path d="M3790 6774 c-219 -33 -250 -45 -250 -103 0 -16 -11 -42 -24 -58 -20
-23 -21 -30 -10 -41 15 -14 3 -59 -14 -55 -6 1 -13 -26 -17 -60 -6 -59 -25
-162 -170 -932 -35 -187 -85 -450 -110 -585 -25 -135 -52 -274 -61 -309 -8
-35 -13 -65 -11 -67 1 -2 12 -1 23 2 18 5 27 42 83 342 35 185 92 490 128 677
35 187 82 435 104 550 65 346 77 395 100 395 29 0 26 -30 -50 -420 -5 -25 -16
-83 -25 -130 -9 -47 -25 -128 -35 -180 -17 -81 -17 -96 -5 -103 20 -12 17 -76
-6 -122 -23 -45 -29 -148 -8 -127 7 7 15 43 19 81 7 82 42 159 81 181 22 12
33 13 59 3 22 -9 36 -9 45 -3 8 7 13 6 17 -4 4 -9 2 -18 -3 -21 -6 -4 -10 -33
-10 -66 0 -70 -23 -123 -70 -163 -32 -26 -83 -35 -95 -16 -4 6 -12 7 -18 3
-13 -8 -31 -13 -63 -16 -18 -2 -22 -13 -33 -87 -13 -91 -63 -356 -86 -455 -7
-33 -21 -105 -30 -160 -8 -55 -18 -110 -20 -121 -4 -18 1 -23 30 -28 52 -10
42 -26 -17 -27 -92 -2 -101 -7 -115 -74 -8 -33 -20 -89 -28 -125 -9 -36 -36
-173 -61 -305 -25 -132 -57 -298 -71 -370 -37 -189 -39 -233 -15 -281 23 -45
83 -105 128 -127 41 -21 172 -54 319 -81 l120 -21 -2 -45 c-1 -25 -3 -67 -4
-95 -1 -27 4 -68 12 -89 12 -33 20 -41 57 -51 23 -7 42 -11 42 -8 0 3 6 1 13
-5 6 -5 27 -13 44 -17 32 -6 33 -8 27 -48 -3 -23 -16 -96 -29 -162 -13 -66
-26 -159 -30 -206 -6 -84 -6 -85 19 -97 24 -11 25 -15 20 -59 -4 -26 -10 -64
-14 -83 -4 -21 -3 -42 4 -53 9 -14 -10 -38 -128 -156 -77 -77 -144 -139 -150
-138 -6 1 -10 -4 -8 -11 1 -7 -3 -19 -10 -27 -7 -7 -98 -98 -202 -203 l-188
-190 35 -17 c33 -16 37 -15 64 1 15 10 153 144 305 298 l277 281 1 -110 c1
-211 22 -375 49 -375 4 0 5 121 3 269 l-5 269 204 206 204 206 138 0 c97 0
148 -4 172 -14 l34 -15 -4 -63 c-3 -35 -12 -193 -20 -353 -8 -159 -18 -313
-21 -341 l-5 -52 -82 -6 c-185 -16 -451 -65 -522 -98 -49 -22 -2 -26 85 -7
114 24 325 56 433 64 80 6 87 5 87 -12 0 -10 -5 -102 -11 -205 -6 -103 -9
-198 -5 -211 8 -34 44 -45 178 -52 94 -5 122 -3 146 9 16 8 32 22 35 29 3 8
17 293 32 633 14 340 28 629 31 640 3 17 14 23 54 28 28 4 57 9 64 12 19 7 23
-5 106 -406 39 -184 72 -345 75 -357 7 -31 65 -72 116 -82 71 -14 6 -13 -186
4 -233 20 -255 20 -255 -4 0 -17 11 -20 108 -26 372 -22 1012 -126 1476 -241
120 -29 126 -29 126 -4 0 11 -2 20 -5 20 -3 0 -94 20 -202 44 -201 45 -606
125 -743 146 -145 22 -180 31 -180 46 0 8 11 19 25 24 14 5 25 13 25 18 0 5
-36 186 -81 403 -44 217 -85 419 -90 448 -14 71 -36 128 -66 169 -31 41 -38
40 -39 -3 0 -20 -6 -41 -12 -47 -9 -9 -12 -2 -12 31 0 40 -2 43 -22 37 -13 -3
-56 -9 -96 -13 l-74 -6 4 32 c2 20 -3 36 -12 42 -11 8 -12 12 -2 16 9 3 12 53
12 198 0 260 16 243 -225 236 -157 -6 -172 -7 -117 -15 35 -4 76 -12 90 -16
l27 -8 -30 -1 c-16 -1 -68 4 -113 11 -77 10 -82 12 -60 24 23 13 23 13 -8 14
-31 0 -55 -19 -67 -52 -4 -12 -24 -18 -74 -24 -68 -7 -80 -6 -75 9 1 4 -10 13
-25 19 -16 7 -29 13 -31 14 -2 1 2 21 9 44 11 36 16 41 36 36 13 -3 34 -9 47
-12 47 -11 60 18 101 227 24 125 44 201 55 214 45 52 66 156 41 203 -13 24 36
248 61 282 26 36 37 90 31 158 -4 41 5 107 30 237 20 99 40 231 46 294 6 63
13 116 16 119 3 3 6 -21 6 -54 l1 -59 10 50 c5 28 23 127 39 220 17 94 37 204
45 245 30 154 112 617 118 665 5 50 5 50 -10 20 l-14 -30 6 45 c12 78 12 80
-36 106 -50 27 -49 24 -31 142 8 46 11 104 7 129 -14 106 -94 219 -188 265
-140 69 -659 124 -868 92z m198 -475 c-3 -8 -7 -3 -11 10 -4 17 -3 21 5 13 5
-5 8 -16 6 -23z m-13 -68 c-4 -20 -13 -31 -23 -31 -11 0 -13 3 -6 8 6 4 10 15
8 24 -1 10 2 20 7 24 5 3 6 11 3 17 -5 9 -4 9 6 0 8 -7 10 -22 5 -42z m-37
-86 c-1 -25 -5 -48 -10 -51 -5 -3 -6 -14 -3 -24 3 -10 1 -21 -4 -24 -6 -4 -8
-13 -4 -21 3 -9 0 -22 -7 -30 -7 -8 -10 -21 -7 -30 4 -8 2 -17 -3 -20 -6 -4
-10 -11 -10 -16 0 -6 5 -7 11 -3 6 3 5 -6 -3 -22 -7 -16 -13 -41 -12 -56 0
-16 -3 -25 -9 -21 -7 4 -8 -1 -4 -12 4 -9 2 -24 -4 -31 -6 -8 -9 -20 -6 -29 4
-8 2 -17 -2 -20 -11 -6 3 -71 19 -90 14 -17 15 -90 2 -126 -12 -30 -57 -79
-73 -79 -7 0 -9 -3 -6 -7 4 -3 2 -12 -4 -19 -6 -8 -9 -20 -6 -29 4 -8 2 -17
-3 -20 -4 -3 -7 -13 -5 -23 3 -21 -12 -52 -26 -52 -6 0 -6 6 0 18 5 9 13 40
18 67 l9 50 -74 2 c-41 1 -77 5 -80 7 -6 6 36 233 48 264 9 21 14 22 72 17 33
-3 70 -11 80 -16 17 -9 18 -8 9 9 -7 13 -7 22 0 29 6 6 11 32 12 59 1 27 5 54
9 60 4 6 9 21 11 35 3 13 12 62 21 107 9 46 14 88 11 92 -3 5 -1 11 4 14 4 3
11 24 15 46 8 53 14 51 14 -5z m959 -192 c-3 -10 -5 -4 -5 12 0 17 2 24 5 18
2 -7 2 -21 0 -30z m-15 -88 c-2 -14 -6 -25 -8 -25 -2 0 -4 11 -4 25 0 14 4 25
9 25 4 0 6 -11 3 -25z m-17 -90 c-3 -26 -8 -45 -11 -43 -2 3 -1 26 2 52 4 25
9 44 12 42 2 -3 1 -26 -3 -51z m-18 -97 c-3 -7 -5 -2 -5 12 0 14 2 19 5 13 2
-7 2 -19 0 -25z m-827 8 c19 -3 53 -8 75 -11 47 -7 46 -6 39 -32 -6 -21 -22
-23 -91 -8 -17 4 -23 -1 -28 -26 -4 -17 -5 -33 -2 -35 4 -5 38 -10 78 -13 12
-1 15 -8 11 -26 -2 -14 -7 -25 -11 -25 -3 1 -25 5 -48 9 -37 7 -42 6 -47 -13
-14 -53 -3 -63 82 -69 23 -1 27 -13 13 -35 -5 -9 -20 -12 -42 -8 -19 2 -61 8
-94 11 -33 4 -61 8 -63 10 -2 2 9 66 23 143 25 132 28 140 48 136 12 -2 38 -6
57 -8z m817 -58 c-3 -7 -5 -2 -5 12 0 14 2 19 5 13 2 -7 2 -19 0 -25z m-10
-60 c-3 -7 -5 -2 -5 12 0 14 2 19 5 13 2 -7 2 -19 0 -25z m-10 -50 c-3 -7 -5
-2 -5 12 0 14 2 19 5 13 2 -7 2 -19 0 -25z m-10 -50 c-3 -8 -6 -5 -6 6 -1 11
2 17 5 13 3 -3 4 -12 1 -19z m-10 -60 c-3 -7 -5 -2 -5 12 0 14 2 19 5 13 2 -7
2 -19 0 -25z m-10 -55 c-3 -10 -5 -4 -5 12 0 17 2 24 5 18 2 -7 2 -21 0 -30z
m-10 -45 c-3 -8 -6 -5 -6 6 -1 11 2 17 5 13 3 -3 4 -12 1 -19z m-1001 -48 c0
-11 -3 -20 -6 -20 -4 0 -7 -6 -7 -12 0 -7 -4 -21 -8 -30 -4 -12 -3 -18 5 -18
10 0 10 -3 0 -15 -6 -8 -9 -19 -5 -25 3 -5 -2 -10 -12 -11 -10 0 -13 -3 -6 -5
7 -3 9 -12 6 -20 -3 -7 -9 -12 -13 -9 -9 6 -4 51 8 69 3 6 7 17 8 26 2 8 5 27
7 41 3 23 14 49 20 49 2 0 3 -9 3 -20z m988 -39 c-4 -23 -9 -40 -11 -37 -3 3
-2 23 2 46 4 23 9 39 11 37 3 -2 2 -23 -2 -46z m-17 -88 c-3 -10 -5 -4 -5 12
0 17 2 24 5 18 2 -7 2 -21 0 -30z m-10 -55 c-3 -8 -6 -5 -6 6 -1 11 2 17 5 13
3 -3 4 -12 1 -19z m-1012 -36 c-10 -10 -16 -12 -13 -7 3 6 8 19 13 30 5 14 9
16 12 7 3 -8 -3 -21 -12 -30z m1002 -19 c-3 -10 -5 -4 -5 12 0 17 2 24 5 18 2
-7 2 -21 0 -30z m-1008 -29 c-6 -7 -9 -20 -6 -28 3 -8 0 -13 -8 -12 -23 3 -27
12 -10 26 8 7 15 19 15 27 0 8 5 11 10 8 8 -5 7 -11 -1 -21z m998 -26 c-3 -7
-5 -2 -5 12 0 14 2 19 5 13 2 -7 2 -19 0 -25z m-987 -61 c0 -8 -3 -17 -7 -21
-5 -4 -8 -15 -9 -24 0 -9 -4 -33 -8 -52 -4 -19 -9 -44 -11 -55 -2 -11 -4 -22
-5 -25 -1 -3 -1 -14 0 -25 1 -11 -2 -16 -6 -12 -11 10 -12 107 -1 100 12 -7 8
42 -5 57 -11 12 -10 12 5 1 15 -12 17 -11 18 13 1 14 3 31 4 36 1 6 3 12 4 15
3 11 21 4 21 -8z m136 -171 c-7 -39 -17 -44 -36 -21 -8 10 -9 15 -2 15 6 0 9
7 6 15 -4 8 -1 22 6 31 20 23 34 1 26 -40z m-195 -100 c-7 -12 -11 -26 -10
-32 3 -19 -1 -44 -9 -44 -10 0 -9 63 1 71 5 3 10 15 12 25 5 29 6 30 12 16 3
-8 0 -24 -6 -36z m-154 -259 c56 -7 106 -16 110 -20 4 -4 -10 -108 -30 -230
-40 -239 -114 -666 -122 -707 -6 -33 22 -66 66 -77 39 -10 54 -43 20 -43 -12
0 -94 14 -183 32 -125 24 -167 36 -184 53 -24 25 -104 255 -104 302 0 61 111
618 131 661 l21 42 86 0 c48 -1 133 -6 189 -13z m963 -217 c-6 -12 -14 -19
-17 -17 -2 3 1 15 7 27 6 12 14 19 17 17 2 -3 -1 -15 -7 -27z m-170 -84 c0 -2
-3 -11 -6 -20 -9 -23 -24 -20 -24 4 0 11 7 20 15 20 8 0 15 -2 15 -4z m-374
-23 c-3 -6 0 -13 7 -16 13 -4 15 -63 3 -92 -5 -11 -8 -31 -7 -45 1 -14 -5 -39
-13 -55 -9 -17 -16 -55 -16 -87 0 -31 -6 -62 -12 -70 -8 -8 -13 -37 -12 -70 1
-37 -2 -55 -9 -51 -6 4 -8 -4 -5 -20 3 -15 0 -31 -6 -36 -7 -6 -13 -25 -14
-43 -1 -18 -7 -46 -14 -61 -10 -26 -14 -28 -52 -21 -23 3 -46 10 -52 15 -6 5
-15 5 -20 1 -4 -4 -3 1 5 10 7 9 12 27 10 40 -1 13 1 31 6 41 4 9 5 28 1 40
-5 20 -11 23 -36 19 -24 -3 -30 -1 -30 14 0 14 -3 15 -12 6 -20 -20 -48 -14
-49 11 l-2 22 -4 -22 c-5 -24 -23 -32 -23 -10 0 8 -4 7 -11 -3 -8 -12 -9 -10
-5 10 3 14 6 33 6 43 0 10 8 17 20 17 11 0 20 -5 20 -11 0 -8 5 -7 16 2 12 10
20 10 35 1 13 -8 19 -9 19 -1 0 13 42 1 52 -15 6 -8 8 -7 8 2 0 6 8 12 18 13
10 0 12 3 5 6 -15 6 -17 45 -3 59 5 5 10 25 11 44 1 19 8 62 16 95 8 32 17 77
19 100 7 67 14 88 39 111 25 23 99 29 91 7z m549 -53 c-3 -5 -10 -10 -16 -10
-5 0 -9 5 -9 10 0 6 7 10 16 10 8 0 12 -4 9 -10z m-195 -40 c0 -5 -4 -10 -10
-10 -5 0 -10 5 -10 10 0 6 5 10 10 10 6 0 10 -4 10 -10z m106 -266 c-10 -14
-20 -23 -23 -20 -3 3 2 17 11 32 10 14 20 23 23 20 3 -3 -2 -17 -11 -32z m-16
-103 c0 -6 -4 -13 -10 -16 -5 -3 -10 1 -10 9 0 9 5 16 10 16 6 0 10 -4 10 -9z
m-113 -103 c-3 -7 -5 -2 -5 12 0 14 2 19 5 13 2 -7 2 -19 0 -25z m30 -10 c-3
-7 -5 -2 -5 12 0 14 2 19 5 13 2 -7 2 -19 0 -25z m0 -38 c13 -27 -1 -78 -25
-87 -23 -9 -55 35 -47 66 7 28 33 53 50 48 5 -2 15 -14 22 -27z m118 -359
c-32 -13 -99 -21 -89 -12 12 12 41 19 79 19 25 1 26 -1 10 -7z m-108 -17 c-3
-3 -12 -4 -19 -1 -8 3 -5 6 6 6 11 1 17 -2 13 -5z m-53 -241 c43 -5 47 -8 56
-42 14 -52 31 -72 70 -80 29 -6 35 -11 35 -31 0 -25 -1 -25 -90 -26 -131 -1
-161 -18 -319 -181 -71 -73 -131 -131 -133 -129 -2 2 10 63 25 137 16 74 37
178 47 231 l17 98 79 -5 c44 -3 83 -6 88 -8 4 -1 20 13 36 31 19 23 30 30 35
22 4 -7 28 -15 54 -17z m-414 -519 c0 -3 -12 -20 -27 -38 -25 -29 -26 -30 -20
-6 4 14 7 31 7 38 0 6 9 12 20 12 11 0 20 -3 20 -6z m1477 -730 c-3 -3 -12 -4
-19 -1 -8 3 -5 6 6 6 11 1 17 -2 13 -5z"/>
<path d="M3729 5613 c-31 -152 -32 -145 12 -136 29 5 64 56 55 79 -3 9 -1 12
4 9 16 -10 12 58 -6 83 -28 41 -51 28 -65 -35z"/>
<path d="M3639 3628 c-4 -10 -7 -59 -3 -55 7 7 15 57 9 57 -3 0 -6 -1 -6 -2z"/>
<path d="M3690 3589 c0 -11 5 -17 10 -14 6 3 10 13 10 21 0 8 -4 14 -10 14 -5
0 -10 -9 -10 -21z"/>
<path d="M4247 3433 c-13 -12 -7 -51 8 -57 10 -3 17 3 21 19 8 34 -10 58 -29
38z"/>
<path d="M3526 5648 c-8 -18 -17 -49 -21 -68 l-7 -35 23 30 c13 17 32 39 42
50 21 23 19 48 -6 53 -12 2 -22 -7 -31 -30z"/>
<path d="M3401 5614 c-14 -49 -7 -56 9 -9 7 20 10 39 7 42 -3 3 -10 -12 -16
-33z"/>
<path d="M3537 5553 c-38 -46 -48 -83 -24 -83 23 0 45 33 56 80 5 24 9 45 8
47 -2 1 -19 -19 -40 -44z"/>
<path d="M3219 1703 c-13 -16 -12 -17 4 -4 9 7 17 15 17 17 0 8 -8 3 -21 -13z"/>
</g>
</svg>
