<?xml version="1.0" standalone="no"?>
<!DOCTYPE svg PUBLIC "-//W3C//DTD SVG 20010904//EN"
 "http://www.w3.org/TR/2001/REC-SVG-20010904/DTD/svg10.dtd">
<svg version="1.0" xmlns="http://www.w3.org/2000/svg"
 width="2560.000000pt" height="346.000000pt" viewBox="0 0 2560.000000 346.000000"
 preserveAspectRatio="xMidYMid meet">

<g transform="translate(0.000000,346.000000) scale(0.100000,-0.100000)"
fill="#000000" stroke="none">
<path d="M0 1730 l0 -1730 2300 0 2300 0 0 1730 0 1730 -2300 0 -2300 0 0
-1730z m2548 1444 c3 -18 -13 -29 -100 -72 -161 -80 -305 -202 -428 -362 -112
-147 -174 -263 -351 -657 -237 -529 -336 -724 -464 -919 -152 -228 -308 -360
-506 -423 -85 -28 -244 -51 -346 -51 l-83 0 0 1255 0 1255 1138 -2 1137 -3 3
-21z m1792 -1654 l0 -1260 -1133 0 c-1162 0 -1157 0 -1157 37 0 7 41 33 91 58
137 69 203 117 320 234 181 182 253 306 494 841 75 168 176 386 225 485 333
673 558 847 1113 864 l47 1 0 -1260z"/>
<path d="M6730 2749 c-201 -33 -359 -223 -360 -431 0 -104 45 -206 138 -313
30 -34 338 -359 669 -707 80 -83 83 -88 83 -133 0 -40 -5 -52 -34 -81 l-34
-34 -431 0 -431 0 0 -170 0 -170 513 0 c557 0 559 0 671 57 167 84 279 313
246 500 -24 139 -61 187 -455 589 -421 431 -445 457 -445 493 0 17 10 42 24
58 l24 28 399 5 398 5 0 155 0 155 -460 1 c-253 1 -485 -2 -515 -7z"/>
<path d="M8197 2753 c-4 -3 -7 -465 -7 -1025 l0 -1018 695 0 695 0 0 170 0
170 -445 0 -445 0 2 273 3 272 328 3 328 2 -3 153 -3 152 -327 3 -328 2 0 265
0 265 440 0 441 0 -3 158 -3 157 -681 3 c-374 1 -684 -1 -687 -5z"/>
<path d="M10130 1735 l0 -1025 195 0 195 0 0 635 c0 349 3 635 8 635 4 0 35
-55 70 -123 34 -67 206 -351 380 -632 l319 -510 256 -3 257 -2 -2 1022 -3
1023 -195 0 -195 0 -3 -670 -3 -670 -44 87 c-24 48 -137 237 -250 419 -114
183 -277 446 -363 585 l-157 253 -232 1 -233 0 0 -1025z"/>
<path d="M12490 1735 l0 -1025 200 0 200 0 0 638 0 637 68 -125 c82 -149 115
-203 445 -735 l256 -410 255 -3 256 -2 -2 1022 -3 1023 -197 3 -198 2 -1 -672
0 -673 -49 95 c-27 52 -210 354 -407 670 l-359 575 -232 3 -232 2 0 -1025z"/>
<path d="M14857 2754 c-4 -4 -7 -466 -7 -1026 l0 -1018 255 0 255 0 0 435 0
435 340 0 340 0 0 -435 0 -435 255 0 255 0 0 1025 0 1025 -252 -2 -253 -3 -3
-417 -2 -418 -340 0 -340 0 -2 418 -3 417 -246 3 c-135 1 -248 -1 -252 -4z"/>
<path d="M17240 1735 l0 -1025 695 0 695 0 0 170 0 170 -445 0 -445 0 0 275 0
275 325 0 325 0 0 155 0 155 -325 0 -325 0 0 265 0 265 435 0 435 0 0 160 0
160 -685 0 -685 0 0 -1025z"/>
<path d="M19177 2754 c-4 -4 -7 -466 -7 -1026 l0 -1018 255 0 255 0 -2 1023
-3 1022 -246 3 c-135 1 -248 -1 -252 -4z"/>
<path d="M20536 2749 c-28 -4 -82 -24 -122 -44 -202 -99 -296 -348 -206 -547
35 -78 105 -159 443 -514 448 -470 419 -437 419 -479 0 -42 -14 -73 -44 -97
-19 -16 -59 -18 -458 -18 l-438 0 0 -175 0 -175 483 0 c276 0 510 4 547 10
277 44 464 325 395 595 -31 118 -67 161 -615 725 -262 270 -270 279 -270 318
0 33 6 45 31 66 l31 26 389 0 389 0 0 160 0 160 -462 -1 c-255 -1 -485 -5
-512 -10z"/>
<path d="M22007 2753 c-4 -3 -7 -465 -7 -1025 l0 -1018 700 0 700 0 0 170 0
170 -445 0 -445 0 0 275 0 275 325 0 325 0 0 155 0 155 -325 0 -325 0 0 265 0
265 435 0 435 0 0 160 0 160 -683 0 c-376 0 -687 -3 -690 -7z"/>
<path d="M23947 2754 c-4 -4 -7 -466 -7 -1026 l0 -1018 255 0 255 0 0 420 0
420 108 0 108 0 196 -417 195 -418 271 -3 c150 -1 272 0 272 2 0 3 -106 198
-235 434 -129 236 -237 435 -240 443 -3 10 16 25 62 48 99 51 212 166 258 262
142 300 33 645 -247 783 -135 67 -154 69 -728 73 -283 3 -518 1 -523 -3z m958
-342 c224 -103 228 -423 6 -526 -41 -19 -67 -21 -253 -24 l-208 -3 0 291 0
292 203 -4 c185 -3 206 -5 252 -26z"/>
</g>
</svg>
