<?xml version="1.0" standalone="no"?>
<!DOCTYPE svg PUBLIC "-//W3C//DTD SVG 20010904//EN"
 "http://www.w3.org/TR/2001/REC-SVG-20010904/DTD/svg10.dtd">
<svg version="1.0" xmlns="http://www.w3.org/2000/svg"
 width="1280.000000pt" height="305.000000pt" viewBox="0 0 1280.000000 305.000000"
 preserveAspectRatio="xMidYMid meet">

<g transform="translate(0.000000,305.000000) scale(0.100000,-0.100000)"
fill="#000000" stroke="none">
<path d="M12095 2565 c-75 -27 -124 -112 -109 -192 8 -42 61 -105 104 -123 47
-19 123 -8 166 25 106 81 74 250 -55 294 -43 14 -56 13 -106 -4z m150 -46 c67
-59 71 -152 10 -214 -95 -94 -245 -28 -245 107 0 82 60 138 147 138 44 0 58
-5 88 -31z"/>
<path d="M12084 2497 c-3 -8 -4 -51 -2 -98 3 -70 6 -84 21 -87 14 -3 17 4 17
42 0 63 28 64 58 1 12 -25 29 -45 37 -45 19 0 19 11 -1 53 -16 33 -16 35 5 56
33 33 26 62 -22 80 -40 15 -107 14 -113 -2z m114 -41 c5 -23 -14 -36 -50 -36
-25 0 -28 4 -28 31 0 29 2 30 37 27 28 -2 39 -8 41 -22z"/>
<path d="M1023 2545 c-253 -68 -433 -339 -393 -592 20 -128 95 -246 198 -312
47 -30 190 -91 707 -302 l230 -94 -615 -5 -615 -5 -27 -210 c-15 -116 -27
-227 -27 -248 l-1 -38 823 3 c905 4 866 1 1002 68 178 86 309 293 322 505 10
155 -31 250 -138 325 -75 52 -135 80 -684 316 l-450 194 653 0 c358 0 652 1
652 3 0 1 11 90 25 197 14 107 25 198 25 203 0 4 -368 7 -817 6 -672 0 -827
-3 -870 -14z"/>
<path d="M2935 2548 c-5 -16 -215 -1757 -215 -1780 0 -17 28 -18 438 -18 l438
0 38 315 39 315 139 0 139 0 -6 -32 c-3 -18 -19 -145 -35 -283 -16 -137 -32
-265 -35 -282 l-6 -33 440 0 440 0 6 33 c8 44 215 1742 215 1762 0 13 -49 15
-438 15 l-439 0 -37 -307 c-21 -170 -40 -311 -43 -315 -2 -5 -65 -8 -139 -8
l-136 0 6 38 c3 20 19 152 36 292 17 140 32 265 34 278 l3 22 -439 0 c-342 0
-439 -3 -443 -12z"/>
<path d="M5215 2548 c-11 -37 -117 -931 -122 -1033 -3 -69 -1 -153 6 -198 40
-279 259 -522 556 -618 58 -18 100 -23 249 -27 200 -5 313 6 445 45 299 86
555 305 702 599 66 134 84 225 148 759 28 231 53 435 56 453 l6 32 -454 0
-455 0 -5 -22 c-3 -13 -38 -294 -79 -625 l-73 -603 -117 0 c-76 0 -118 4 -118
11 0 5 34 280 75 609 41 329 75 606 75 614 0 14 -49 16 -445 16 -348 0 -446
-3 -450 -12z"/>
<path d="M7500 2558 c0 -2 -11 -91 -25 -198 -14 -107 -25 -198 -25 -202 0 -5
284 -8 630 -8 497 0 630 -3 630 -12 0 -7 -5 -57 -12 -110 l-12 -98 -633 0
c-431 0 -633 -3 -633 -10 0 -6 -31 -265 -70 -576 -38 -312 -70 -572 -70 -580
0 -12 62 -14 383 -14 l383 0 36 290 c19 160 38 293 41 296 3 3 323 -186 710
-420 388 -234 711 -427 719 -428 9 -2 17 30 27 125 l15 127 978 0 c538 0 978
3 978 6 0 15 51 432 55 452 l5 22 -536 0 -536 0 5 23 c3 12 11 66 18 120 l12
97 528 0 c290 0 530 4 533 8 5 9 56 408 56 442 0 20 -5 20 -525 20 -413 0
-525 3 -525 13 0 11 13 103 25 175 l6 32 524 0 524 0 6 33 c7 43 45 349 45
365 0 9 -202 12 -975 12 l-975 0 -5 -22 c-2 -13 -38 -304 -80 -648 -41 -344
-78 -637 -83 -653 l-7 -27 -45 23 c-25 13 -171 88 -325 166 -154 79 -281 144
-283 146 -1 1 43 19 99 40 55 21 128 56 160 77 204 131 312 384 250 585 -36
119 -135 234 -247 285 l-49 23 -852 3 c-469 1 -853 1 -853 0z"/>
</g>
</svg>
