<?xml version="1.0" standalone="no"?>
<!DOCTYPE svg PUBLIC "-//W3C//DTD SVG 20010904//EN"
 "http://www.w3.org/TR/2001/REC-SVG-20010904/DTD/svg10.dtd">
<svg version="1.0" xmlns="http://www.w3.org/2000/svg"
 width="940.000000pt" height="788.000000pt" viewBox="0 0 940.000000 788.000000"
 preserveAspectRatio="xMidYMid meet">

<g transform="translate(0.000000,788.000000) scale(0.100000,-0.100000)"
fill="#000000" stroke="none">
<path d="M4355 7319 c-139 -20 -185 -60 -274 -236 -18 -34 -33 -78 -35 -98 -2
-31 2 -38 26 -51 49 -25 83 6 122 110 50 133 135 246 185 246 10 0 29 9 42 20
27 22 25 22 -66 9z"/>
<path d="M4768 7323 c6 -2 18 -2 25 0 6 3 1 5 -13 5 -14 0 -19 -2 -12 -5z"/>
<path d="M4523 7309 c-105 -20 -167 -82 -229 -229 -39 -93 -42 -129 -14 -155
40 -36 109 8 136 88 28 84 70 171 92 190 20 18 21 18 35 -9 l14 -27 31 45 c17
24 37 50 46 57 9 8 16 22 16 32 0 16 -7 19 -42 18 -24 -1 -62 -5 -85 -10z"/>
<path d="M4175 7300 c-11 -4 -38 -13 -60 -19 -58 -15 -155 -110 -193 -186 -45
-91 -56 -133 -42 -150 10 -12 9 -15 -3 -15 -58 0 28 206 121 291 29 27 49 49
43 49 -19 0 -92 -73 -133 -133 -22 -33 -48 -67 -57 -76 -34 -34 -71 -88 -71
-104 0 -10 -5 -17 -11 -17 -15 0 -60 -107 -66 -161 -6 -47 -5 -49 31 -70 36
-21 37 -23 30 -63 -8 -54 -8 -53 -55 -61 -31 -5 -43 -13 -50 -33 -16 -43 -7
-75 28 -97 35 -21 42 -51 23 -99 -8 -21 -16 -26 -43 -26 -44 0 -57 -15 -57
-70 0 -41 3 -46 33 -60 30 -14 32 -18 28 -60 -4 -56 -15 -70 -56 -70 -37 0
-45 -12 -45 -66 0 -28 6 -38 30 -52 31 -18 34 -30 24 -94 -6 -36 -8 -38 -45
-38 -35 0 -39 -3 -48 -37 -16 -58 -13 -71 19 -88 26 -14 30 -21 30 -59 0 -64
-7 -76 -46 -76 -36 0 -47 -12 -59 -68 -6 -30 -4 -33 29 -47 40 -17 45 -38 25
-107 -9 -36 -12 -38 -49 -38 -35 0 -40 -3 -46 -27 -3 -16 -8 -36 -11 -46 -3
-13 5 -21 33 -33 l37 -15 -7 -54 c-9 -78 -13 -84 -59 -87 l-42 -3 0 -44 c0
-42 2 -45 34 -53 l33 -9 -6 -50 c-11 -83 -21 -99 -60 -99 -30 0 -34 -4 -40
-31 -17 -86 2 -264 38 -367 8 -23 36 -83 62 -132 76 -148 133 -191 439 -328
222 -99 258 -114 319 -126 35 -8 79 -19 98 -25 76 -25 200 -41 313 -41 66 0
125 -4 132 -8 9 -6 9 -17 -2 -49 -8 -23 -12 -50 -8 -59 4 -10 2 -15 -3 -11 -7
4 -9 -6 -6 -25 3 -17 1 -28 -4 -25 -5 3 -9 -11 -10 -31 0 -21 -19 -103 -42
-184 -45 -156 -48 -173 -32 -163 11 7 13 -9 4 -43 -4 -14 -12 -21 -20 -18 -10
4 -14 -4 -14 -27 0 -45 -13 -62 -36 -49 -11 5 -41 12 -67 16 l-49 6 4 -190 3
-190 35 -10 c19 -5 81 -15 138 -22 57 -6 110 -17 118 -22 10 -8 12 -22 7 -50
l-6 -38 -45 6 c-25 3 -82 9 -126 13 -67 5 -83 10 -98 28 -10 13 -34 26 -55 29
-21 4 -60 13 -88 21 -27 7 -76 19 -107 26 -32 6 -55 16 -52 21 3 4 -1 8 -8 8
-8 0 -19 5 -25 11 -15 15 -84 19 -100 7 -7 -6 -13 -21 -13 -34 0 -19 -5 -24
-25 -24 -18 0 -25 -5 -25 -20 0 -13 10 -24 25 -30 18 -7 25 -17 26 -37 2 -47
1 -268 -2 -268 -1 0 -3 -75 -4 -166 -1 -91 -5 -171 -9 -178 -4 -6 -3 -18 4
-26 9 -10 7 -15 -8 -20 -47 -14 -53 -231 -7 -248 7 -3 11 -20 9 -44 -2 -21 -4
-38 -5 -38 -1 0 -3 -72 -6 -160 -7 -266 -8 -274 -42 -347 -26 -55 -29 -71 -21
-93 6 -15 19 -29 30 -32 24 -6 22 3 20 -154 l-2 -127 69 -20 c195 -59 316 -92
338 -92 10 0 13 28 14 127 2 131 7 148 44 139 9 -2 15 -1 13 3 -3 4 5 16 17
26 12 10 29 24 38 32 15 12 16 11 12 -12 -4 -16 -12 -25 -24 -25 -31 0 -32
-20 0 -26 40 -8 30 -24 -16 -24 l-36 0 6 -94 c4 -75 2 -98 -10 -116 -8 -12
-13 -23 -11 -26 3 -2 78 16 168 40 135 37 198 62 367 142 126 60 208 105 215
118 14 26 3 461 -18 681 -15 159 -113 866 -139 1000 -7 39 -22 97 -33 130 -11
33 -25 89 -32 124 -11 60 -10 64 12 88 23 25 23 25 1 19 -24 -8 -38 7 -26 27
4 6 8 17 8 22 0 6 7 10 15 10 19 0 80 101 80 133 0 13 7 31 16 39 11 12 15 29
12 62 -4 39 9 84 89 301 131 358 115 330 223 386 159 82 272 223 316 395 16
62 16 64 -5 77 -16 11 -21 25 -21 62 0 64 7 80 36 80 28 0 54 35 54 72 0 20
-8 31 -29 42 -28 15 -28 16 -18 66 9 45 13 52 38 57 34 7 44 18 52 60 5 27 2
36 -23 55 -28 23 -28 23 -16 73 9 35 19 51 32 54 30 5 41 19 49 58 5 30 2 40
-19 62 -23 24 -24 29 -14 70 8 33 17 45 38 53 43 14 55 86 21 122 -16 17 -19
30 -14 63 5 35 12 46 39 62 30 18 34 25 34 64 0 33 -6 48 -24 64 -21 19 -23
26 -16 59 8 36 23 54 47 54 36 0 44 92 12 126 -30 32 -19 88 20 109 33 17 41
33 41 84 0 25 -7 44 -20 56 -26 23 -26 75 -1 97 11 9 22 14 24 11 3 -2 11 5
17 18 22 40 7 259 -23 354 -75 230 -287 458 -554 594 -42 21 -63 12 -22 -9 11
-7 18 -14 16 -17 -3 -2 -18 4 -33 13 -20 14 -29 15 -32 6 -6 -20 -31 -14 -25
6 10 39 -20 43 -83 13 l-59 -29 37 -16 c21 -9 42 -16 48 -16 12 0 12 0 144
-66 55 -27 117 -66 139 -86 21 -21 45 -38 53 -38 29 0 59 -135 56 -255 -3 -87
-42 -387 -67 -500 -8 -38 -19 -99 -24 -135 -6 -36 -23 -139 -39 -230 -17 -91
-33 -187 -36 -215 -10 -73 -24 -155 -52 -295 -14 -69 -27 -140 -29 -158 -2
-18 -10 -68 -19 -110 -8 -42 -20 -111 -26 -152 -49 -330 -130 -644 -130 -505
0 26 3 33 15 29 11 -4 15 0 15 16 0 18 -3 20 -13 11 -8 -6 -18 -7 -22 -3 -5 4
-5 2 -2 -4 3 -6 -5 -22 -19 -37 -13 -14 -24 -30 -23 -34 1 -4 1 -10 -1 -13 -1
-3 -4 -16 -6 -30 -3 -14 -9 -26 -14 -28 -5 -2 -30 -24 -55 -48 -25 -25 -60
-51 -78 -59 -52 -21 -152 -42 -171 -35 -9 3 -56 2 -103 -4 -82 -8 -87 -8 -104
13 -9 11 -26 21 -36 21 -41 0 -101 101 -109 183 -27 287 -27 287 38 287 47 0
77 -6 366 -75 107 -25 202 -45 211 -45 24 0 55 35 48 54 -3 8 -1 28 6 45 20
53 -2 64 -233 114 -113 25 -245 53 -295 62 -49 10 -96 22 -102 27 -18 14 -16
63 2 78 22 18 111 7 269 -34 270 -70 355 -87 375 -77 12 7 20 26 25 57 9 70 8
82 -12 93 -27 15 -317 87 -422 105 -52 10 -120 24 -150 32 -55 15 -56 16 -52
50 5 42 31 58 81 49 20 -3 153 -35 295 -71 244 -60 261 -63 284 -48 18 12 22
21 17 41 -3 14 -1 31 5 38 6 7 8 25 4 39 -5 22 -17 29 -78 47 -39 11 -91 27
-116 34 -25 8 -123 30 -218 49 -241 50 -222 43 -222 80 0 17 4 37 9 45 16 24
122 7 379 -63 288 -78 290 -78 295 33 1 23 -4 46 -10 52 -16 16 -258 86 -438
125 -88 20 -170 38 -183 41 -20 5 -22 10 -17 32 11 43 34 61 79 61 43 0 76 -9
346 -86 193 -55 220 -60 241 -42 24 19 34 112 15 131 -19 19 -211 80 -359 113
-250 58 -267 64 -267 91 0 13 5 34 11 45 19 35 86 21 543 -117 72 -22 81 -22
102 -8 25 16 32 33 14 33 -15 0 -12 31 5 49 11 14 12 21 2 41 -16 31 -128 70
-417 143 -196 50 -205 53 -208 77 -2 15 6 36 18 50 l22 25 121 -33 c67 -17
194 -54 281 -82 173 -54 184 -56 209 -37 23 16 28 124 7 138 -27 17 -293 99
-440 135 -80 19 -153 37 -162 40 -22 7 -23 26 -2 66 15 30 17 30 70 24 50 -6
188 -46 444 -129 90 -30 108 -33 124 -21 26 18 31 116 7 138 -24 22 -195 81
-366 127 -253 69 -255 69 -255 86 0 8 7 27 14 41 18 33 53 112 76 174 28 74
137 189 198 209 32 11 34 13 17 20 -11 4 -61 8 -112 8 -71 1 -95 -3 -108 -15
-11 -12 -25 -14 -50 -10 -30 6 -39 3 -68 -28 -19 -19 -40 -48 -47 -65 -7 -17
-16 -31 -20 -31 -13 0 -33 -69 -27 -96 5 -30 -14 -27 -28 4 -5 12 -14 21 -20
19 -18 -6 -11 -41 23 -105 32 -63 40 -106 23 -116 -5 -4 -60 1 -123 9 -186 24
-411 46 -416 40 -3 -3 -7 -19 -9 -37 -2 -17 -7 -36 -12 -42 -4 -6 -11 -25 -14
-43 -7 -38 -5 -39 108 -48 102 -8 379 -43 399 -51 15 -6 33 -80 22 -92 -4 -3
-109 6 -234 21 -236 28 -327 34 -318 18 4 -5 2 -40 -3 -77 -6 -38 -9 -69 -8
-70 1 -1 74 -10 162 -19 228 -24 324 -41 346 -61 25 -23 26 -84 2 -84 -10 0
-121 14 -247 30 -272 36 -291 36 -293 13 0 -10 -5 -45 -11 -78 -5 -33 -9 -61
-7 -63 1 -1 63 -9 136 -17 181 -20 350 -46 372 -57 12 -6 17 -21 17 -48 0 -39
-1 -40 -36 -40 -40 0 -408 47 -436 56 -37 11 -58 -5 -58 -45 0 -75 69 -125
193 -141 288 -37 296 -40 297 -124 0 -26 -2 -28 -32 -22 -18 3 -105 15 -194
26 -127 17 -170 19 -201 11 -55 -15 -103 -49 -126 -90 -17 -32 -17 -36 -3 -47
9 -6 62 -15 119 -19 103 -7 251 -27 342 -45 l50 -10 -4 -46 -3 -47 -57 6 c-52
5 -373 49 -460 63 l-38 6 -8 -48 c-4 -27 -8 -65 -9 -84 l-1 -35 160 -21 c173
-24 344 -52 357 -60 14 -9 9 -81 -6 -87 -8 -3 -122 10 -253 28 -307 44 -293
45 -293 -2 0 -21 -5 -56 -10 -78 -5 -22 -8 -41 -6 -43 2 -1 55 -9 117 -17 168
-22 353 -53 381 -64 25 -9 45 -61 32 -82 -9 -15 -69 -10 -309 25 -126 19 -234
31 -238 27 -4 -4 -12 -36 -18 -71 -5 -34 -11 -67 -12 -73 -1 -5 91 -24 213
-43 255 -40 299 -50 317 -72 32 -43 2 -120 -62 -158 -26 -15 -47 -35 -49 -47
-12 -58 -13 -84 -6 -102 6 -14 9 -6 9 30 2 101 18 76 23 -37 5 -86 12 -129 31
-180 27 -74 27 -86 0 -35 -23 43 -42 105 -44 142 -1 28 -1 28 -8 6 -3 -13 -16
-28 -29 -32 -35 -13 -52 24 -58 127 -3 49 -10 102 -16 117 -20 52 -108 76
-142 38 -16 -17 -17 -37 -13 -168 2 -81 7 -159 11 -173 4 -17 2 -15 -9 8 -12
26 -21 32 -45 32 -41 0 -50 27 -50 153 0 56 -5 119 -10 139 -20 69 -90 91
-130 41 -18 -23 -21 -39 -19 -110 1 -46 8 -120 15 -165 13 -79 12 -117 -1 -65
-4 15 -18 30 -36 37 -16 7 -33 18 -36 24 -4 6 -10 75 -13 152 -6 158 -16 184
-71 184 -51 0 -62 -32 -57 -174 3 -98 1 -123 -9 -119 -21 8 -40 92 -42 183 -2
105 -4 114 -19 133 -19 23 -21 125 -2 138 9 6 54 8 118 5 101 -6 102 -6 102
17 0 12 6 50 13 84 l13 62 -45 6 c-131 18 -176 30 -173 48 2 12 -4 17 -19 17
-17 0 -19 3 -10 13 6 8 8 17 4 21 -4 4 52 4 125 0 76 -4 132 -3 132 2 0 5 7
40 15 78 8 38 12 73 9 77 -3 5 -22 9 -42 10 -20 0 -71 6 -112 13 -72 11 -75
13 -76 39 -2 43 24 50 145 42 l107 -6 15 83 c9 46 16 84 15 85 -1 1 -48 7
-106 13 -133 14 -140 16 -140 45 0 34 41 45 131 35 84 -9 102 -2 93 39 -21 90
-70 142 -149 156 -55 10 -58 12 -34 44 17 23 31 30 70 33 39 4 59 13 96 45 51
43 78 77 87 109 6 18 1 22 -31 28 -21 3 -68 6 -105 6 -64 0 -68 1 -68 23 0 23
13 49 24 48 3 -1 59 -1 124 -1 l117 0 16 84 15 84 -96 7 c-120 8 -130 11 -130
39 0 40 18 46 131 46 l107 0 10 48 c6 26 13 63 17 83 l7 36 -54 6 c-29 4 -70
7 -92 7 -21 0 -56 5 -77 11 -33 10 -36 14 -26 30 7 11 17 19 24 19 7 0 13 4
13 10 0 5 49 11 113 12 l112 3 9 40 c4 22 14 59 20 81 l12 42 -59 6 c-33 3
-78 6 -101 6 -50 0 -62 8 -71 42 -5 19 -1 32 14 47 12 12 26 21 31 21 6 0 10
6 10 14 0 8 10 27 23 43 13 15 29 44 36 63 19 50 81 170 105 204 12 15 43 46
70 67 46 37 46 48 1 29z m-727 -2837 c0 -75 -3 -107 -8 -88 -14 55 -11 205 5
205 1 0 3 -53 3 -117z m997 -441 c-3 -3 -11 0 -18 7 -9 10 -8 11 6 5 10 -3 15
-9 12 -12z m44 -26 c9 -7 44 -28 78 -46 46 -25 60 -37 55 -49 -6 -14 -7 -14
-10 1 -2 11 -17 20 -38 24 -18 3 -32 10 -29 14 3 5 1 11 -5 15 -5 3 -10 0 -10
-7 0 -7 -12 -1 -25 15 -13 15 -29 27 -35 27 -5 0 -10 5 -10 10 0 14 11 12 29
-4z m289 -51 c-3 -3 -9 2 -12 12 -6 14 -5 15 5 6 7 -7 10 -15 7 -18z m-723
-65 c3 -5 2 -10 -4 -10 -5 0 -13 5 -16 10 -3 6 -2 10 4 10 5 0 13 -4 16 -10z
m430 -49 c-6 -5 -25 10 -25 20 0 5 6 4 14 -3 8 -7 12 -15 11 -17z m385 9 c0
-5 -3 -10 -7 -10 -5 0 -19 -3 -33 -6 l-25 -5 25 15 c30 18 40 20 40 6z m-83
-22 c-3 -8 -6 -5 -6 6 -1 11 2 17 5 13 3 -3 4 -12 1 -19z m-177 -5 c14 -13 16
-19 7 -25 -23 -15 -37 -8 -37 17 0 30 3 30 30 8z m-270 -13 c0 -5 -7 -10 -16
-10 -8 0 -12 5 -9 10 3 6 10 10 16 10 5 0 9 -4 9 -10z m56 -5 c18 -14 18 -14
-8 -15 -18 0 -28 5 -28 15 0 19 11 19 36 0z m154 -5 c0 -5 -2 -10 -4 -10 -3 0
-8 5 -11 10 -3 6 -1 10 4 10 6 0 11 -4 11 -10z m320 -395 c0 -18 4 -23 15 -19
15 6 75 -13 75 -24 0 -3 -9 -15 -20 -27 -18 -20 -19 -23 -5 -35 21 -17 19 -26
-11 -66 -15 -19 -24 -38 -20 -41 4 -4 11 -1 16 7 7 11 12 12 21 3 15 -15 1
-36 -20 -28 -9 4 -32 9 -52 11 -33 4 -37 2 -41 -21 -4 -20 -1 -26 18 -31 21
-5 24 -12 24 -57 l0 -50 -20 23 c-11 13 -21 20 -21 17 -1 -4 -2 -11 -3 -16 0
-5 -4 -13 -8 -17 -4 -4 -5 -18 -2 -30 10 -41 -6 -26 -31 29 -14 29 -25 71 -25
95 0 24 -5 42 -11 42 -7 0 -9 -10 -5 -27 6 -25 5 -26 -5 -8 -7 11 -23 33 -38
48 -25 28 -26 29 -7 43 30 22 43 17 50 -18 7 -36 18 -30 35 21 12 37 7 51 -11
33 -7 -7 -16 -12 -21 -12 -4 0 2 10 15 23 38 36 88 118 88 143 0 8 5 14 10 14
6 0 10 -11 10 -25z m-86 -11 c6 -14 -9 -54 -20 -54 -2 0 0 9 6 19 16 30 12 36
-10 16 -16 -14 -20 -15 -20 -4 0 16 19 39 31 39 4 0 10 -7 13 -16z m-94 -115
c-7 -11 -14 -18 -17 -15 -3 3 0 12 7 21 18 21 23 19 10 -6z m30 -13 c0 -8 -7
-16 -15 -20 -17 -6 -18 -4 -9 18 8 20 24 21 24 2z m290 -205 c0 -6 -4 -12 -8
-15 -5 -3 -9 1 -9 9 0 8 4 15 9 15 4 0 8 -4 8 -9z m-373 -43 c-3 -8 -6 -5 -6
6 -1 11 2 17 5 13 3 -3 4 -12 1 -19z m-232 -601 l50 -12 -2 -170 c-3 -226 -10
-342 -23 -363 -9 -14 -10 -12 -5 10 4 20 -1 34 -17 50 -15 15 -20 17 -15 5 3
-9 2 -17 -3 -17 -6 0 -10 5 -10 10 0 6 -6 10 -14 10 -8 0 -17 7 -20 16 -5 12
0 15 21 12 23 -3 26 0 27 30 1 17 -3 32 -9 32 -5 0 -21 3 -34 7 -20 5 -22 3
-17 -15 4 -11 2 -23 -4 -27 -6 -3 -7 -11 -4 -17 5 -8 1 -9 -10 -5 -10 4 -25 7
-33 7 -13 0 -13 3 -3 15 10 11 10 19 2 27 -6 6 -8 17 -5 25 5 13 3 13 -17 3
-12 -7 -20 -8 -17 -3 4 6 -9 15 -28 20 -21 7 -37 7 -41 2 -3 -5 -11 -9 -17 -9
-7 0 -6 4 3 10 13 8 13 10 -2 10 -9 0 -24 3 -34 7 -14 5 -16 2 -12 -15 4 -12
1 -22 -4 -22 -24 0 12 -26 39 -28 15 -1 48 -9 73 -17 l45 -14 -52 6 c-48 5
-53 4 -53 -14 0 -14 -11 -23 -39 -31 -21 -7 -43 -12 -49 -12 -8 0 -10 74 -6
263 3 144 7 267 9 273 3 11 152 -16 330 -59z m-141 -395 c3 -5 -1 -9 -9 -9 -8
0 -12 4 -9 9 3 4 7 8 9 8 2 0 6 -4 9 -8z m106 -17 c0 -8 -4 -15 -10 -15 -5 0
-10 7 -10 15 0 8 5 15 10 15 6 0 10 -7 10 -15z m64 -372 c-2 -54 -3 -136 -3
-182 -1 -74 -3 -82 -15 -66 -9 13 -19 16 -32 10 -10 -4 -29 -7 -41 -6 -13 1
-23 -3 -23 -10 0 -7 -6 -5 -13 6 -8 10 -19 15 -25 11 -7 -4 -12 -3 -12 2 0 13
-79 32 -86 21 -3 -5 -13 -2 -22 7 -15 16 -17 15 -23 -7 l-6 -24 -11 25 -11 25
0 -25 c-1 -34 9 -46 38 -44 13 1 35 -5 50 -12 14 -8 21 -14 15 -14 -26 0 -54
-38 -54 -74 0 -67 73 -110 125 -72 20 15 23 64 5 110 -13 34 -13 71 0 41 5
-12 9 -14 9 -6 1 11 7 9 21 -7 26 -27 61 -32 39 -5 -13 15 -11 16 19 10 22 -5
32 -3 32 6 0 9 2 9 9 -1 7 -12 4 -303 -4 -310 -2 -2 -41 8 -87 21 -46 14 -112
33 -148 42 -36 9 -82 21 -104 26 l-39 10 7 122 c3 67 7 182 8 255 0 72 3 132
5 132 2 0 24 -5 49 -11 41 -11 44 -14 44 -44 0 -32 1 -32 85 -54 46 -13 89
-20 95 -16 5 3 10 39 10 80 0 65 3 76 22 89 12 9 33 16 45 16 13 0 23 5 23 10
0 6 1 10 3 10 2 0 2 -44 1 -97z m-171 -277 c4 -10 1 -13 -8 -9 -8 3 -12 9 -9
14 7 12 11 11 17 -5z m-25 -36 c12 -11 26 -20 32 -20 6 0 8 -4 5 -10 -17 -28
-94 3 -82 34 8 21 19 20 45 -4z m30 -81 c-2 -6 -8 -10 -13 -10 -5 0 -11 4 -13
10 -2 6 4 11 13 11 9 0 15 -5 13 -11z m318 -314 c-8 -8 -18 -15 -22 -15 -3 0
-1 7 6 15 7 8 17 15 22 15 5 0 3 -7 -6 -15z"/>
<path d="M4132 2381 c1 -28 4 -30 55 -37 29 -3 53 -10 53 -15 0 -5 -6 -9 -12
-9 -7 0 8 -10 34 -23 53 -24 62 -50 31 -87 -22 -25 -30 -25 -44 2 -10 18 -8
24 11 40 29 23 21 32 -16 18 -20 -8 -30 -8 -32 -1 -8 23 -22 10 -22 -20 0 -25
3 -30 16 -25 14 5 15 4 4 -9 -11 -13 -10 -18 6 -30 32 -24 54 -27 79 -11 35
23 41 58 17 106 -20 42 -18 58 5 38 16 -13 62 -20 64 -10 9 46 5 52 -30 61
-20 5 -52 12 -71 15 -19 3 -53 10 -75 16 -65 16 -74 14 -73 -19z"/>
<path d="M4193 2120 c3 -11 0 -20 -6 -20 -7 0 -7 -4 1 -12 10 -10 15 -10 21 1
10 16 3 51 -11 51 -6 0 -8 -9 -5 -20z"/>
<path d="M4233 2110 c3 -11 1 -20 -4 -20 -5 0 -9 -5 -9 -11 0 -6 8 -9 18 -7 9
2 15 11 13 19 -2 8 -4 20 -4 27 0 6 -5 12 -10 12 -5 0 -7 -9 -4 -20z"/>
<path d="M4260 2110 c0 -11 5 -20 11 -20 5 0 7 5 4 10 -3 6 -1 10 4 10 16 0
13 -20 -4 -26 -8 -4 -15 -10 -15 -16 0 -11 33 -6 42 7 5 6 8 5 8 -2 0 -7 5
-13 10 -13 6 0 10 12 10 26 0 14 -4 23 -10 19 -6 -3 -17 1 -26 9 -21 22 -34
20 -34 -4z"/>
<path d="M4177 1503 c-12 -11 -8 -50 6 -60 6 -6 24 -13 40 -17 20 -5 27 -3 27
9 0 8 5 15 10 15 6 0 10 -9 10 -20 0 -11 5 -20 10 -20 6 0 10 7 10 15 0 8 4
15 8 15 4 0 8 9 8 20 0 11 -4 21 -8 21 -20 3 -24 5 -37 13 -8 5 -16 4 -22 -5
-6 -11 -9 -10 -15 4 -6 17 -35 23 -47 10z m41 -36 c2 -10 -3 -17 -11 -17 -16
0 -30 24 -19 34 10 10 27 1 30 -17z"/>
<path d="M4100 1164 c0 -31 3 -36 20 -31 11 3 23 0 27 -6 4 -7 9 -3 14 9 7 18
8 18 8 1 1 -10 7 -17 13 -15 7 3 19 -1 26 -9 8 -7 18 -11 23 -7 5 3 16 -2 25
-11 12 -11 20 -13 29 -5 7 6 15 7 17 2 1 -5 18 -13 37 -17 33 -7 34 -6 18 10
-17 17 -14 41 4 30 5 -4 9 -2 9 3 0 5 -22 14 -50 19 -43 9 -50 8 -51 -6 0 -11
-4 -9 -11 7 -13 26 -25 28 -31 5 -3 -13 -5 -12 -6 5 -1 13 -5 20 -11 17 -6 -4
-17 -1 -25 5 -8 6 -19 9 -25 5 -5 -3 -10 -1 -10 5 0 6 -4 9 -9 5 -5 -3 -12 -1
-16 5 -13 21 -25 9 -25 -26z"/>
<path d="M4713 7269 c-45 -13 -119 -100 -164 -193 -59 -120 -50 -186 25 -186
51 0 89 42 136 152 57 133 69 140 63 37 -2 -54 0 -79 7 -74 5 3 10 10 10 16 0
5 22 54 50 110 27 56 48 106 47 111 -1 6 14 16 33 23 32 13 27 13 -70 13 -58
0 -119 -4 -137 -9z"/>
<path d="M4995 7255 c52 -22 78 -28 71 -16 -5 8 0 8 19 1 15 -6 43 -10 63 -10
20 -1 73 -7 117 -15 43 -8 81 -12 83 -10 2 2 -33 15 -79 30 -63 20 -110 27
-193 30 -98 3 -107 2 -81 -10z"/>
<path d="M4757 6976 c-4 -10 -7 -25 -6 -34 0 -11 4 -9 10 7 5 13 8 29 6 35 -2
5 -6 2 -10 -8z"/>
<path d="M3929 5897 c-54 -35 -81 -98 -77 -179 4 -75 27 -112 79 -123 60 -13
143 40 168 108 29 77 2 170 -58 202 -41 21 -72 19 -112 -8z m61 -7 c0 -5 -7
-10 -15 -10 -8 0 -15 5 -15 10 0 6 7 10 15 10 8 0 15 -4 15 -10z m61 0 c29
-16 23 -27 -11 -22 -17 2 -30 10 -30 18 0 17 14 18 41 4z m-98 -27 c-7 -2 -19
-2 -25 0 -7 3 -2 5 12 5 14 0 19 -2 13 -5z m118 -15 c23 -5 29 -20 29 -71 0
-47 -27 -118 -51 -133 -9 -5 -10 4 -6 32 l6 39 -11 -32 c-9 -27 -16 -33 -41
-33 -22 0 -28 4 -23 15 3 8 1 15 -4 15 -20 0 -50 41 -50 69 0 15 10 41 22 56
18 23 26 26 57 21 27 -4 32 -3 19 5 -10 5 -18 15 -18 21 0 9 12 9 71 -4z
m-126 -18 c4 -7 -3 -8 -22 -4 -38 9 -42 14 -10 14 14 0 29 -5 32 -10z m-32
-27 c-7 -2 -19 -2 -25 0 -7 3 -2 5 12 5 14 0 19 -2 13 -5z m-3 -39 c0 -2 -9
-4 -20 -4 -11 0 -20 4 -20 9 0 5 9 7 20 4 11 -3 20 -7 20 -9z m-7 -31 c-7 -2
-21 -2 -30 0 -10 3 -4 5 12 5 17 0 24 -2 18 -5z m10 -30 c-7 -2 -21 -2 -30 0
-10 3 -4 5 12 5 17 0 24 -2 18 -5z m43 -36 c4 -3 -10 -6 -30 -5 -20 1 -39 5
-42 9 -5 9 62 6 72 -4z m-13 -34 c-7 -2 -21 -2 -30 0 -10 3 -4 5 12 5 17 0 24
-2 18 -5z m73 -8 c-26 -19 -56 -19 -56 0 0 11 11 15 38 15 35 -1 36 -2 18 -15z"/>
<path d="M3973 5780 c-4 -17 -12 -29 -18 -28 -5 2 -9 6 -7 11 1 4 -2 7 -8 7
-16 0 -12 -36 6 -51 14 -11 19 -10 35 10 11 13 19 31 19 40 0 13 2 13 9 2 7
-11 11 -9 21 9 8 15 8 20 1 16 -6 -4 -11 -2 -11 3 0 6 -9 11 -20 11 -13 0 -22
-9 -27 -30z"/>
<path d="M4061 5774 c0 -11 3 -14 6 -6 3 7 2 16 -1 19 -3 4 -6 -2 -5 -13z"/>
<path d="M5562 5745 c0 -16 2 -22 5 -12 2 9 2 23 0 30 -3 6 -5 -1 -5 -18z"/>
<path d="M5531 5594 c0 -11 3 -14 6 -6 3 7 2 16 -1 19 -3 4 -6 -2 -5 -13z"/>
<path d="M5522 5545 c0 -16 2 -22 5 -12 2 9 2 23 0 30 -3 6 -5 -1 -5 -18z"/>
<path d="M5495 5398 c-9 -57 -43 -239 -58 -308 -6 -30 -11 -61 -10 -69 1 -8
-7 -59 -18 -113 -10 -54 -18 -113 -18 -131 l1 -32 8 35 c11 52 51 277 60 335
4 28 17 110 30 183 12 74 20 136 17 138 -3 3 -8 -14 -12 -38z"/>
<path d="M5381 4724 c0 -11 3 -14 6 -6 3 7 2 16 -1 19 -3 4 -6 -2 -5 -13z"/>
<path d="M5371 4674 c0 -11 3 -14 6 -6 3 7 2 16 -1 19 -3 4 -6 -2 -5 -13z"/>
<path d="M5356 4605 c-5 -16 -10 -50 -11 -75 l-3 -45 14 55 c15 60 15 119 0
65z"/>
<path d="M4041 4284 c0 -11 3 -14 6 -6 3 7 2 16 -1 19 -3 4 -6 -2 -5 -13z"/>
<path d="M4010 3428 c-21 -35 -19 -49 3 -27 13 14 29 59 21 59 -2 0 -13 -14
-24 -32z"/>
<path d="M4187 3408 c-3 -13 -13 -79 -23 -148 l-18 -125 -60 3 c-41 3 -64 9
-73 20 -11 16 -12 16 -13 0 0 -24 -28 -12 -34 15 -3 12 -3 1 -2 -25 5 -72 39
-132 106 -182 131 -100 127 -104 133 122 2 103 10 203 16 222 16 52 33 72 54
64 15 -5 16 -14 11 -56 -7 -49 -6 -50 15 -43 15 5 29 1 43 -11 19 -18 20 -18
33 0 9 11 22 17 34 13 14 -3 22 2 31 23 7 16 19 27 28 26 12 -1 18 8 20 30 l3
30 -143 22 c-79 12 -146 22 -149 22 -4 0 -9 -10 -12 -22z"/>
<path d="M4272 3220 c0 -14 2 -19 5 -12 2 6 2 18 0 25 -3 6 -5 1 -5 -13z"/>
<path d="M4351 3214 c0 -11 3 -14 6 -6 3 7 2 16 -1 19 -3 4 -6 -2 -5 -13z"/>
<path d="M4342 3168 c-7 -9 -28 -19 -47 -22 -42 -8 -44 -25 -7 -52 57 -43 102
-37 117 14 6 20 4 23 -16 20 -19 -2 -25 2 -29 26 -4 25 -7 27 -18 14z"/>
</g>
</svg>
