<?xml version="1.0" standalone="no"?>
<!DOCTYPE svg PUBLIC "-//W3C//DTD SVG 20010904//EN"
 "http://www.w3.org/TR/2001/REC-SVG-20010904/DTD/svg10.dtd">
<svg version="1.0" xmlns="http://www.w3.org/2000/svg"
 width="940.000000pt" height="788.000000pt" viewBox="0 0 940.000000 788.000000"
 preserveAspectRatio="xMidYMid meet">

<g transform="translate(0.000000,788.000000) scale(0.100000,-0.100000)"
fill="#000000" stroke="none">
<path d="M5988 5669 c-57 -15 -128 -53 -128 -68 0 -12 -2 -13 -8 -3 -9 13 -42
6 -42 -9 0 -5 -7 -9 -15 -9 -8 0 -24 -9 -35 -20 -11 -11 -23 -19 -27 -18 -10
2 -146 -62 -153 -72 -3 -4 -17 -10 -32 -14 -16 -3 -28 -11 -28 -16 0 -6 -8
-10 -19 -10 -10 0 -30 -9 -45 -21 -14 -11 -26 -18 -26 -15 0 3 -17 -3 -37 -13
-21 -10 -57 -27 -80 -37 -24 -10 -43 -22 -43 -28 0 -5 -3 -7 -6 -4 -4 5 -341
-155 -384 -183 -8 -5 -34 -18 -57 -28 -22 -11 -74 -36 -115 -55 -40 -20 -87
-37 -103 -39 -30 -4 -197 -93 -203 -108 -2 -5 -11 -9 -21 -9 -19 0 -54 -37
-46 -50 3 -4 -97 -67 -222 -138 -126 -72 -313 -180 -418 -241 -104 -62 -241
-137 -303 -168 -115 -57 -139 -75 -62 -48 68 24 61 17 -30 -30 -92 -47 -109
-53 -90 -30 7 8 9 15 4 15 -11 0 -74 -44 -74 -52 0 -4 -54 -39 -120 -78 -68
-40 -120 -77 -120 -86 0 -47 377 -713 463 -818 l24 -29 324 173 c178 96 394
211 479 257 198 105 318 159 330 147 5 -5 16 -56 24 -114 13 -80 22 -113 43
-143 15 -22 32 -41 38 -43 6 -3 11 -148 13 -427 4 -421 4 -422 -18 -447 -13
-15 -20 -34 -17 -47 5 -25 0 -28 -23 -13 -19 12 -27 -25 -20 -95 l5 -50 60
-24 c51 -21 76 -24 159 -23 196 2 233 25 223 139 -4 36 -8 68 -11 70 -2 3 -14
0 -25 -7 -19 -9 -21 -8 -21 15 0 14 -5 34 -12 44 -20 32 -4 49 52 52 28 2 54
2 56 0 2 -2 4 -60 4 -128 l0 -124 35 -15 c42 -17 187 -19 251 -3 27 7 49 20
56 32 8 15 9 110 5 332 -4 170 -7 334 -7 363 0 50 -1 52 -20 42 -12 -6 -38
-10 -58 -8 l-37 3 34 19 c26 14 31 20 20 27 -8 5 -26 9 -40 9 -33 0 -42 21
-70 153 -18 85 -22 142 -25 342 -1 132 -5 286 -9 342 l-7 102 44 22 c46 23
211 121 293 174 28 18 104 65 170 105 66 40 183 112 260 160 156 97 242 147
360 210 136 72 146 80 171 134 47 100 25 218 -79 435 -17 36 -39 77 -48 91 -9
14 -34 51 -54 83 -41 63 -113 139 -125 132 -4 -3 -10 1 -13 8 -3 7 -29 18 -58
24 -60 13 -72 13 -111 2z m-1158 -979 c6 -11 8 -20 6 -20 -3 0 -10 9 -16 20
-6 11 -8 20 -6 20 3 0 10 -9 16 -20z m104 -143 c21 -12 50 -38 64 -57 l25 -35
-25 26 c-14 14 -46 38 -71 54 -26 15 -47 29 -47 31 0 9 16 3 54 -19z m187
-559 c6 -10 14 -159 19 -331 7 -261 12 -327 30 -401 23 -100 23 -100 -48 -110
-58 -8 -72 -20 -72 -66 0 -21 -6 -42 -13 -48 -19 -16 -107 -18 -116 -3 -10 16
-24 347 -16 361 3 5 19 10 35 10 16 0 31 4 35 9 11 18 65 436 65 503 0 72 14
98 51 95 11 -1 25 -9 30 -19z m69 -917 c0 -15 -16 -22 -34 -15 -25 9 -19 24 9
24 14 0 25 -4 25 -9z m-460 -596 c0 -14 -4 -25 -9 -25 -5 0 -11 11 -13 25 -4
17 -1 25 8 25 8 0 14 -11 14 -25z"/>
</g>
</svg>
