<?xml version="1.0" standalone="no"?>
<!DOCTYPE svg PUBLIC "-//W3C//DTD SVG 20010904//EN"
 "http://www.w3.org/TR/2001/REC-SVG-20010904/DTD/svg10.dtd">
<svg version="1.0" xmlns="http://www.w3.org/2000/svg"
 width="940.000000pt" height="788.000000pt" viewBox="0 0 940.000000 788.000000"
 preserveAspectRatio="xMidYMid meet">

<g transform="translate(0.000000,788.000000) scale(0.100000,-0.100000)"
fill="#000000" stroke="none">
<path d="M3770 6270 c0 -6 -25 -21 -56 -35 -47 -21 -54 -28 -49 -45 4 -11 2
-20 -4 -20 -6 0 -11 5 -11 10 0 6 -11 3 -25 -6 -15 -10 -25 -26 -25 -40 0 -22
-4 -24 -49 -24 -28 0 -53 5 -56 10 -8 13 -71 13 -95 0 -13 -7 -31 -5 -62 6
-63 23 -273 32 -296 12 -25 -22 -102 -33 -222 -31 -170 3 -243 9 -275 23 -16
6 -76 14 -132 17 -81 5 -107 3 -125 -9 -43 -28 -102 -32 -493 -33 -375 0 -391
-1 -425 -21 -52 -30 -80 -86 -80 -161 0 -35 4 -63 8 -63 5 0 7 23 6 52 -4 59
15 98 46 98 16 0 20 -7 21 -32 5 -141 8 -335 13 -798 3 -294 8 -665 11 -825 3
-159 7 -472 10 -695 3 -223 8 -468 10 -545 3 -77 7 -304 10 -505 4 -201 8
-431 10 -512 1 -82 1 -148 -1 -148 -2 0 -10 12 -18 28 l-15 27 -1 -34 c-1 -88
56 -174 151 -226 l54 -30 1075 -5 c704 -3 911 -6 600 -9 -261 -1 -509 -4 -550
-6 -193 -9 -463 -19 -535 -21 -90 -2 -162 -12 -186 -25 -9 -4 -26 -6 -38 -4
-11 2 -21 0 -21 -4 0 -5 -14 -11 -32 -15 -17 -3 -29 -8 -27 -11 3 -2 21 0 42
5 21 4 39 4 43 -1 6 -11 5105 -10 5509 1 167 4 295 12 317 19 45 14 99 60 81
68 -16 6 -17 33 -1 33 6 0 9 3 5 6 -3 3 10 20 30 37 52 46 81 98 93 169 6 35
12 209 15 388 l3 325 -8 -330 c-9 -312 -16 -375 -40 -375 -7 0 -9 66 -6 203 3
111 8 389 11 617 3 228 7 510 10 625 3 116 7 428 10 695 3 267 7 580 10 695 3
116 7 383 10 595 4 212 8 434 10 495 5 101 13 132 30 106 5 -10 6 -1000 0
-1141 -1 -30 -5 -323 -8 -650 l-5 -595 13 450 c7 248 15 596 19 775 3 179 8
406 11 505 3 99 7 281 11 405 l5 225 -28 55 c-53 103 82 94 -1329 91 l-1234
-3 0 26 c0 16 -11 32 -32 48 -18 12 -47 37 -64 54 -45 44 -158 61 -200 29 -10
-8 -27 -15 -37 -15 -10 0 -30 -11 -45 -25 -15 -14 -38 -28 -52 -32 -38 -9 -50
-22 -50 -54 l0 -29 -80 0 -80 0 0 49 c0 41 -4 51 -25 65 -24 16 -99 21 -143
10 -19 -5 -20 -9 -10 -22 11 -13 10 -15 -9 -10 -20 5 -23 1 -29 -31 -10 -63
-6 -61 -109 -61 l-95 0 0 43 c0 24 -6 51 -13 61 -26 35 -177 34 -177 -2 0 -13
-2 -14 -9 -4 -10 17 -21 -6 -21 -46 0 -43 -11 -50 -85 -54 -63 -3 -70 -1 -73
17 -8 57 -13 64 -44 70 -17 4 -46 22 -65 40 -20 20 -48 35 -71 39 -58 9 -132
7 -132 -4z m575 -50 c3 -5 1 -10 -4 -10 -6 0 -11 5 -11 10 0 6 2 10 4 10 3 0
8 -4 11 -10z m849 -31 c-3 -5 -10 -7 -15 -3 -5 3 -7 10 -3 15 3 5 10 7 15 3 5
-3 7 -10 3 -15z m-853 -72 c-13 -13 -14 5 -3 43 l7 25 3 -29 c2 -16 -1 -33 -7
-39z m365 25 c-9 -8 -26 10 -26 26 1 15 2 15 15 -2 8 -11 13 -21 11 -24z m484
7 c0 -10 -4 -19 -10 -19 -5 0 -10 4 -10 9 0 5 -3 17 -6 25 -5 12 -2 15 10 10
9 -3 16 -15 16 -25z m-1528 -21 c-9 -9 -12 -7 -12 12 0 19 3 21 12 12 9 -9 9
-15 0 -24z m1104 -5 c-11 -11 -19 6 -11 24 8 17 8 17 12 0 3 -10 2 -21 -1 -24z
m2991 -135 c-3 -7 -5 -2 -5 12 0 14 2 19 5 13 2 -7 2 -19 0 -25z m-5387 -8 c0
-5 -4 -10 -10 -10 -5 0 -10 5 -10 10 0 6 5 10 10 10 6 0 10 -4 10 -10z m280 0
c14 -4 20 -8 13 -9 -6 -1 -19 -4 -29 -8 -11 -4 -15 -3 -10 5 4 6 -4 12 -21 15
-26 4 -26 4 -3 5 14 0 36 -4 50 -8z m157 4 c-3 -3 -12 -4 -19 -1 -8 3 -5 6 6
6 11 1 17 -2 13 -5z m60 0 c-3 -3 -12 -4 -19 -1 -8 3 -5 6 6 6 11 1 17 -2 13
-5z m-685 -22 c-7 -2 -10 -8 -6 -13 3 -5 -2 -9 -11 -9 -9 0 -13 5 -10 10 3 6
0 10 -7 10 -10 0 -10 2 1 9 8 5 21 6 30 3 10 -4 11 -7 3 -10z m131 11 c-7 -2
-21 -2 -30 0 -10 3 -4 5 12 5 17 0 24 -2 18 -5z m104 1 c-3 -3 -12 -4 -19 -1
-8 3 -5 6 6 6 11 1 17 -2 13 -5z m-517 -13 c0 -4 -18 -8 -41 -8 -26 0 -36 3
-27 8 17 11 68 11 68 0z m75 -1 c8 -13 -15 -13 -35 0 -12 8 -11 10 7 10 12 0
25 -4 28 -10z m124 6 c-2 -2 -21 -6 -42 -10 -27 -5 -37 -4 -32 3 3 6 22 11 42
11 20 0 34 -2 32 -4z m281 -22 c0 -2 -9 -4 -20 -4 -11 0 -20 4 -20 9 0 5 9 7
20 4 11 -3 20 -7 20 -9z m159 12 c-12 -10 -59 -15 -59 -6 0 5 14 10 32 10 17
0 29 -2 27 -4z m284 -11 c9 -2 17 0 17 3 0 4 15 7 33 8 l32 1 -30 -13 c-16 -7
-58 -13 -92 -14 -34 0 -64 -4 -68 -9 -3 -6 22 -8 60 -6 36 2 65 0 65 -5 0 -11
-122 -18 -134 -8 -6 4 -28 9 -50 10 l-41 1 38 4 c20 2 37 8 37 14 0 5 12 9 28
10 24 0 25 1 7 9 -19 8 49 5 98 -5z m-590 -2 c-7 -2 -21 -2 -30 0 -10 3 -4 5
12 5 17 0 24 -2 18 -5z m5534 -300 c-1 -59 -3 -13 -3 102 0 116 2 164 3 108 2
-56 2 -151 0 -210z m-5140 290 c-20 -2 -52 -2 -70 0 -17 2 0 4 38 4 39 0 53
-2 32 -4z m-592 -13 c6 -10 66 -10 75 1 3 3 25 3 50 -1 l45 -7 -40 -8 c-33 -7
-36 -9 -20 -16 15 -6 10 -8 -20 -8 -29 -1 -36 2 -25 9 12 8 10 10 -8 10 -13 0
-21 -4 -18 -9 6 -8 -118 -21 -211 -21 -34 0 -55 5 -60 14 -4 8 -21 16 -38 19
-25 3 -22 4 12 6 25 0 43 -4 45 -11 3 -8 28 -11 78 -10 98 4 103 12 9 13 l-74
2 65 7 c36 5 79 6 95 4 25 -4 27 -3 10 5 -19 9 -19 10 2 10 12 1 25 -3 28 -9z
m365 4 c0 -1 -11 -9 -25 -18 -17 -11 -23 -12 -19 -3 3 9 -4 13 -26 11 -16 -1
-30 2 -30 8 0 5 22 8 50 6 27 -2 50 -4 50 -4z m87 0 c-3 -3 -12 -4 -19 -1 -8
3 -5 6 6 6 11 1 17 -2 13 -5z m507 -5 c-7 -13 -75 -15 -84 -4 -7 9 3 12 39 11
27 -1 47 -4 45 -7z m-754 -3 c0 -3 -4 -8 -10 -11 -5 -3 -10 -1 -10 4 0 6 5 11
10 11 6 0 10 -2 10 -4z m290 -6 c0 -5 7 -10 16 -10 8 0 12 5 9 10 -4 6 7 10
27 10 23 0 29 -3 19 -9 -11 -7 -10 -10 5 -14 10 -2 -15 -5 -56 -6 -41 0 -82 4
-90 10 -13 9 -13 10 1 6 9 -3 22 -1 30 4 19 12 39 11 39 -1z m365 0 c4 -6 -5
-10 -19 -10 -14 0 -26 5 -26 10 0 6 9 10 19 10 11 0 23 -4 26 -10z m-1105 -30
c0 -5 -4 -10 -10 -10 -5 0 -10 5 -10 10 0 6 5 10 10 10 6 0 10 -4 10 -10z
m508 3 c-10 -2 -28 -2 -40 0 -13 2 -5 4 17 4 22 1 32 -1 23 -4z m387 -6 c-4
-8 -36 -13 -102 -15 -54 -2 -100 -6 -103 -8 -2 -3 85 -3 194 -1 152 3 200 7
206 17 10 15 153 22 204 9 21 -5 1 -8 -64 -8 -124 0 -122 0 -115 -10 9 -16
-176 -30 -402 -31 -57 0 -103 -3 -103 -8 0 -4 26 -7 58 -6 31 0 183 4 337 7
164 3 253 2 215 -3 -36 -5 -120 -9 -187 -11 -67 -1 -128 -6 -135 -10 -14 -9
18 -13 81 -9 24 1 31 -2 25 -11 -5 -8 -3 -11 7 -7 8 3 25 9 39 13 21 6 23 5
12 -6 -7 -8 -34 -14 -61 -14 -27 0 -47 -3 -44 -7 2 -5 -5 -8 -16 -8 -11 0 -23
5 -26 10 -3 6 -11 10 -16 10 -6 0 -7 -4 -4 -10 4 -6 -15 -10 -52 -9 -47 1 -52
2 -28 8 17 4 40 13 50 19 19 10 19 11 2 18 -11 4 -23 1 -30 -9 -9 -11 -35 -16
-98 -19 -66 -2 -92 -7 -107 -21 -16 -15 -21 -15 -31 -3 -9 11 -9 15 1 19 9 4
9 5 -2 6 -22 0 -60 -17 -39 -18 9 -1 24 -11 35 -23 10 -12 14 -18 8 -15 -7 4
-26 2 -43 -4 -36 -13 -94 -3 -71 11 8 5 29 7 47 4 17 -3 34 0 38 6 4 6 -13 10
-49 10 -35 0 -56 4 -56 11 0 8 11 9 33 5 25 -4 28 -3 14 5 -21 12 -63 8 -60
-7 2 -10 -28 -12 -242 -19 -66 -2 -124 -4 -130 -5 -5 -1 -39 -1 -75 0 -62 3 2
9 233 22 26 1 47 6 47 11 0 5 7 6 16 3 10 -4 14 -1 12 6 -3 7 -17 14 -31 16
-60 7 -21 19 66 20 50 1 98 1 105 2 6 0 12 5 12 10 0 6 -11 8 -25 4 -15 -4
-25 -2 -25 5 0 7 33 11 100 11 59 0 100 4 100 10 0 6 -42 9 -105 8 -58 0 -108
2 -112 6 -3 3 32 6 78 6 114 0 403 12 408 16 8 7 10 4 6 -9z m508 6 c-7 -2
-19 -2 -25 0 -7 3 -2 5 12 5 14 0 19 -2 13 -5z m174 1 c-3 -3 -12 -4 -19 -1
-8 3 -5 6 6 6 11 1 17 -2 13 -5z m-558 -8 c-8 -8 -78 -10 -85 -3 -4 4 14 7 41
7 27 0 46 -2 44 -4z m-759 -18 c0 -10 -7 -11 -97 -12 -89 -1 -97 12 -10 16 90
5 107 5 107 -4z m127 6 c-3 -3 -12 -4 -19 -1 -8 3 -5 6 6 6 11 1 17 -2 13 -5z
m-321 -13 c-3 -5 -15 -7 -26 -4 -28 7 -25 13 6 13 14 0 23 -4 20 -9z m324 -21
c0 -7 -286 -20 -299 -13 -2 2 6 6 18 10 32 12 281 15 281 3z m1084 2 c2 -4
-12 -6 -32 -4 -56 5 -62 10 -15 11 23 1 44 -3 47 -7z m-1399 -12 c-3 -6 -36
-10 -73 -9 -73 1 -52 12 30 16 31 2 47 -1 43 -7z m144 -31 c-8 -5 -9 -9 -3 -9
5 0 15 5 22 12 9 9 12 9 12 0 0 -7 1 -15 3 -19 1 -3 -53 -7 -120 -9 -73 -2
-123 1 -123 7 0 5 -16 9 -37 9 -73 0 -25 9 75 14 70 4 102 2 102 -6 0 -7 4 -7
13 0 15 12 49 20 61 14 4 -2 2 -8 -5 -13z m941 1 c0 -5 -4 -10 -9 -10 -6 0
-13 5 -16 10 -3 6 1 10 9 10 9 0 16 -4 16 -10z m47 -6 c-3 -3 -12 -4 -19 -1
-8 3 -5 6 6 6 11 1 17 -2 13 -5z m276 -1 c-7 -2 -19 -2 -25 0 -7 3 -2 5 12 5
14 0 19 -2 13 -5z m-345 -20 c-10 -2 -26 -2 -35 0 -10 3 -2 5 17 5 19 0 27 -2
18 -5z m-421 -9 c-3 -3 -12 -4 -19 -1 -8 3 -5 6 6 6 11 1 17 -2 13 -5z m85
-11 c18 -10 36 -22 39 -26 3 -4 47 -6 98 -4 101 5 130 -6 48 -18 -86 -13 -148
-14 -175 -4 -21 8 -23 12 -12 19 11 7 2 10 -28 10 -27 0 -41 4 -37 10 4 6 11
8 16 5 5 -4 15 -3 21 1 9 6 5 10 -12 15 -14 4 -18 7 -8 8 9 1 31 -7 50 -16z
m278 0 c0 -5 -51 -9 -113 -9 -92 -1 -99 0 -42 5 121 11 155 11 155 4z m-970
-27 c0 -3 -4 -8 -10 -11 -5 -3 -10 -1 -10 4 0 6 5 11 10 11 6 0 10 -2 10 -4z
m35 -6 c3 -5 2 -10 -4 -10 -5 0 -13 5 -16 10 -3 6 -2 10 4 10 5 0 13 -4 16
-10z m75 0 c0 -5 -4 -10 -10 -10 -5 0 -10 5 -10 10 0 6 5 10 10 10 6 0 10 -4
10 -10z m33 -5 c4 -8 2 -17 -3 -20 -17 -10 -90 -13 -96 -3 -4 6 7 9 27 8 47
-3 77 1 62 7 -15 5 -17 23 -4 23 5 0 11 -7 14 -15z m146 0 c28 5 33 4 24 -6
-7 -7 -40 -14 -75 -15 -43 -2 -57 -1 -43 6 19 8 19 9 -3 9 -13 1 -21 5 -18 10
4 6 21 5 42 -1 20 -5 53 -7 73 -3z m706 5 c4 -6 -7 -10 -25 -10 -18 0 -29 4
-25 10 3 6 15 10 25 10 10 0 22 -4 25 -10z m104 6 c-11 -9 -90 -16 -84 -6 3 5
25 10 47 10 23 0 39 -2 37 -4z m-473 -13 c-22 -4 -26 -7 -15 -14 10 -6 4 -9
-21 -8 l-35 0 25 14 c14 8 36 14 50 13 22 -1 21 -2 -4 -5z m-766 -17 c0 -3 -4
-8 -10 -11 -5 -3 -10 -1 -10 4 0 6 5 11 10 11 6 0 10 -2 10 -4z m95 -6 c3 -5
1 -10 -4 -10 -6 0 -11 5 -11 10 0 6 2 10 4 10 3 0 8 -4 11 -10z m428 3 c-7 -2
-21 -2 -30 0 -10 3 -4 5 12 5 17 0 24 -2 18 -5z m142 -3 c-3 -5 -1 -10 6 -10
7 0 10 -3 6 -6 -8 -8 -47 5 -47 17 0 5 9 9 21 9 11 0 17 -4 14 -10z m141 -6
c18 -14 18 -14 -6 -3 -31 14 -36 19 -24 19 6 0 19 -7 30 -16z m287 9 c-7 -2
-19 -2 -25 0 -7 3 -2 5 12 5 14 0 19 -2 13 -5z m-930 -10 c-7 -2 -19 -2 -25 0
-7 3 -2 5 12 5 14 0 19 -2 13 -5z m417 -2 c0 -5 -10 -12 -22 -14 -13 -3 84 -4
214 -2 131 2 242 6 248 10 5 3 10 1 10 -5 0 -7 8 -9 19 -5 10 3 79 8 152 10
124 4 135 3 146 -14 11 -17 9 -20 -20 -27 -18 -4 -67 -6 -109 -6 -49 1 -78 -3
-78 -9 0 -7 -10 -9 -25 -5 -17 4 -25 2 -26 -6 0 -10 -2 -10 -6 0 -2 6 -9 12
-14 12 -6 0 -8 -4 -4 -9 3 -5 -5 -12 -17 -15 -13 -2 26 -3 85 -2 59 2 110 0
112 -4 2 -4 -4 -6 -13 -6 -9 0 -42 -2 -72 -3 -44 -2 -50 -5 -30 -11 20 -7 16
-8 -22 -9 -26 -1 -50 -6 -54 -12 -5 -8 56 -9 219 -4 l226 7 6 -25 c4 -13 5
-41 3 -63 l-3 -39 -557 -3 -558 -2 0 60 0 60 153 0 c88 0 146 4 139 9 -19 12
-301 8 -310 -4 -4 -6 -18 -11 -32 -13 -20 -2 -22 -1 -10 7 13 10 8 15 -12 12
-32 -5 -290 -3 -295 3 -5 5 57 9 190 10 15 1 26 5 24 10 -2 6 -42 10 -90 11
-78 0 -86 2 -81 18 3 11 0 17 -10 17 -9 0 -16 6 -16 14 0 12 19 15 93 16 165
3 205 5 201 11 -2 4 5 9 16 12 11 3 20 1 20 -3 0 -5 36 -9 80 -9 44 0 78 4 75
9 -3 4 1 11 7 13 22 9 48 7 48 -2z m888 -8 c-21 -2 -55 -2 -75 0 -21 2 -4 4
37 4 41 0 58 -2 38 -4z m135 0 c-13 -2 -35 -2 -50 0 -16 2 -5 4 22 4 28 0 40
-2 28 -4z m-1586 -9 c-3 -3 -12 -4 -19 -1 -8 3 -5 6 6 6 11 1 17 -2 13 -5z
m1398 -24 c-3 -5 -14 -10 -23 -10 -15 0 -15 2 -2 10 20 13 33 13 25 0z m-1432
-17 c-7 -2 -19 -2 -25 0 -7 3 -2 5 12 5 14 0 19 -2 13 -5z m1332 -33 c-3 -5
-12 -10 -18 -10 -7 0 -6 4 3 10 19 12 23 12 15 0z m272 -869 c-4 -449 -7
-1139 -7 -1534 0 -523 -3 -716 -11 -711 -8 5 -9 417 -5 1518 4 831 7 1521 6
1534 0 15 4 21 11 16 9 -5 10 -214 6 -823z m1173 769 l0 -60 -342 -1 c-189 0
-439 -3 -555 -5 l-213 -5 0 65 0 66 555 0 555 0 0 -60z m92 -1487 c2 -838 0
-1523 -4 -1523 -5 0 -8 228 -8 508 0 279 -3 971 -6 1537 -3 659 -2 1025 4
1015 6 -9 11 -589 14 -1537z m-2672 1507 c0 -5 -6 -10 -14 -10 -8 0 -18 5 -21
10 -3 6 3 10 14 10 12 0 21 -4 21 -10z m85 0 c8 -13 -5 -13 -25 0 -13 8 -13
10 2 10 9 0 20 -4 23 -10z m102 4 c-3 -3 -12 -4 -19 -1 -8 3 -5 6 6 6 11 1 17
-2 13 -5z m-54 -11 c-7 -2 -19 -2 -25 0 -7 3 -2 5 12 5 14 0 19 -2 13 -5z
m3671 -24 c39 -31 36 -78 -9 -128 -19 -21 -35 -41 -35 -44 0 -3 17 -7 38 -9
29 -2 37 -7 37 -23 0 -18 -7 -20 -80 -20 -101 0 -105 11 -36 93 28 34 51 68
51 76 0 24 -22 31 -36 12 -18 -25 -60 -18 -56 9 8 52 79 71 126 34z m-3611 -2
c-2 -4 -3 -12 -3 -18 0 -6 -6 -9 -12 -6 -7 2 -12 10 -10 16 3 17 -15 13 -22
-5 -3 -9 -13 -13 -23 -11 -32 9 -78 16 -65 11 6 -3 9 -10 6 -15 -6 -11 -34 7
-34 22 0 4 28 10 63 11 77 4 103 3 100 -5z m2904 0 c19 -11 20 -14 8 -31 -12
-15 -19 -17 -44 -8 -22 8 -34 7 -47 -2 -24 -18 -11 -33 35 -41 74 -12 102 -66
61 -118 -24 -30 -75 -41 -121 -26 -48 16 -56 26 -37 45 13 14 22 14 50 5 19
-6 43 -9 52 -5 31 12 12 37 -39 53 -74 24 -94 80 -43 124 24 20 92 22 125 4z
m229 -1 c17 -14 18 -16 3 -31 -12 -12 -21 -14 -42 -6 -15 6 -34 8 -42 4 -28
-10 -11 -36 33 -48 23 -7 49 -19 57 -25 17 -14 20 -63 5 -90 -21 -38 -124 -44
-166 -10 -13 11 -13 15 2 31 14 16 19 16 49 3 37 -15 60 -11 69 12 6 15 -29
34 -63 34 -52 0 -80 81 -41 120 24 24 106 28 136 6z m114 -81 l0 -95 55 0 c52
0 55 -1 55 -25 0 -26 0 -26 -82 -23 l-83 3 -3 118 -3 117 31 0 30 0 0 -95z
m2220 79 c0 -8 -4 -12 -10 -9 -5 3 -10 10 -10 16 0 5 5 9 10 9 6 0 10 -7 10
-16z m127 -6 c-3 -8 -6 -5 -6 6 -1 11 2 17 5 13 3 -3 4 -12 1 -19z m-5785 -1
c-6 -7 -30 -14 -54 -15 l-43 -1 35 14 c47 18 76 19 62 2z m-227 -18 c12 -19
-5 -23 -22 -6 -16 16 -16 17 -1 17 9 0 20 -5 23 -11z m5915 -9 c0 -5 -4 -10
-10 -10 -5 0 -10 5 -10 10 0 6 5 10 10 10 6 0 10 -4 10 -10z m-5493 -15 c2 -6
-58 -11 -163 -12 -181 -3 -213 7 -56 16 142 9 215 7 219 -4z m3783 -21 c0 -19
5 -24 25 -24 21 0 25 -5 25 -30 0 -25 -4 -30 -25 -30 -20 0 -25 -5 -25 -25 0
-21 -5 -25 -30 -25 -25 0 -30 4 -30 24 0 19 -6 25 -27 28 -22 2 -28 8 -28 28
0 20 6 26 28 28 21 3 27 9 27 27 0 14 7 25 18 27 28 7 42 -3 42 -28z m-4293
-206 c-1 -40 -3 -8 -3 72 0 80 2 112 3 73 2 -40 2 -106 0 -145z m443 202 c-8
-5 -22 -9 -30 -9 -10 0 -8 3 5 9 27 12 43 12 25 0z m498 1 c9 -4 65 -6 123 -2
84 5 106 3 106 -7 0 -10 -17 -13 -64 -11 -34 1 -66 -1 -70 -4 -3 -4 6 -7 20
-7 15 0 27 -4 27 -10 0 -5 -6 -10 -12 -10 -10 0 -10 -2 0 -9 19 -12 127 4 138
20 7 11 41 12 48 0 3 -4 -7 -6 -22 -3 -24 5 -26 4 -13 -12 16 -19 6 -35 -11
-18 -7 7 -16 12 -22 12 -5 0 -1 -6 10 -14 11 -9 33 -13 56 -10 20 3 39 0 43
-6 3 -5 1 -10 -5 -10 -7 0 -9 -8 -5 -20 4 -11 2 -20 -4 -20 -6 0 -11 9 -11 20
0 11 -6 20 -14 20 -9 0 -12 -7 -9 -20 4 -16 0 -20 -23 -21 -16 0 -47 -2 -69
-4 -88 -9 -387 -12 -374 -4 10 6 5 9 -16 10 -29 1 -29 1 -5 8 17 5 28 3 33 -6
4 -7 25 -13 45 -13 25 0 32 3 23 9 -8 5 11 9 51 9 35 0 75 3 87 7 16 5 21 4
17 -3 -4 -6 2 -10 14 -9 10 1 22 7 24 14 6 15 66 18 66 4 0 -5 -10 -12 -22
-14 -14 -3 -10 -4 10 -4 26 1 32 5 32 24 0 26 27 31 49 11 11 -11 13 -10 9 2
-3 10 -20 16 -54 17 -36 2 -44 0 -29 -7 14 -6 2 -9 -46 -9 -36 -1 -69 2 -73 6
-11 12 -39 9 -53 -4 -9 -7 -54 -11 -139 -9 -69 1 -128 -2 -130 -6 -3 -4 -10
-8 -15 -8 -6 0 -7 5 -4 10 8 13 -36 13 -70 0 -17 -7 -24 -7 -20 0 4 6 -7 10
-24 10 -21 0 -29 4 -25 13 3 10 -5 12 -33 8 -35 -4 -36 -5 -13 -12 17 -5 3 -7
-42 -8 -38 -1 -68 -5 -68 -11 0 -5 -5 -10 -11 -10 -5 0 -8 4 -5 9 9 14 -53 19
-72 5 -14 -10 -22 -9 -41 7 l-23 19 35 0 c19 0 43 3 53 7 12 4 15 3 10 -5 -5
-8 5 -12 33 -12 21 0 41 4 43 9 2 6 30 11 63 12 33 1 66 7 74 13 11 8 13 8 8
0 -5 -8 6 -13 33 -16 22 -2 40 -1 40 2 0 12 62 4 71 -10 9 -13 10 -12 5 2 -4
15 7 17 121 17 87 -1 122 -4 112 -11 -12 -8 -12 -9 0 -6 29 8 22 27 -11 31
-27 3 -25 4 12 5 25 1 51 -2 59 -7 17 -11 38 -4 45 15 3 8 -1 14 -10 14 -8 0
-13 -4 -10 -9 3 -4 -12 -3 -34 2 -21 6 -37 14 -34 18 2 4 -2 10 -8 12 -7 3 -9
6 -5 6 5 1 16 -3 25 -8z m-638 -11 c0 -5 -7 -10 -16 -10 -8 0 -12 5 -9 10 3 6
10 10 16 10 5 0 9 -4 9 -10z m47 4 c-3 -3 -12 -4 -19 -1 -8 3 -5 6 6 6 11 1
17 -2 13 -5z m163 2 c0 -11 -19 -15 -25 -6 -3 5 1 10 9 10 9 0 16 -2 16 -4z
m178 -9 c-19 -19 -86 -40 -104 -33 -24 9 -7 24 21 18 14 -2 25 0 25 6 0 11 21
19 53 21 15 1 16 -1 5 -12z m542 0 c-19 -6 -37 -14 -40 -17 -9 -12 -60 -21
-60 -11 0 5 12 11 28 13 15 2 26 8 25 16 -2 8 10 12 40 11 l42 -1 -35 -11z
m80 3 c0 -5 -7 -7 -15 -4 -8 4 -15 8 -15 10 0 2 7 4 15 4 8 0 15 -4 15 -10z
m53 3 c-7 -2 -21 -2 -30 0 -10 3 -4 5 12 5 17 0 24 -2 18 -5z m4784 -246 c-1
-45 -3 -5 -3 88 0 94 2 130 3 82 2 -48 2 -125 0 -170z m-5950 237 c-3 -3 -12
-4 -19 -1 -8 3 -5 6 6 6 11 1 17 -2 13 -5z m46 -1 c-7 -2 -19 -2 -25 0 -7 3
-2 5 12 5 14 0 19 -2 13 -5z m515 -10 c-10 -2 -26 -2 -35 0 -10 3 -2 5 17 5
19 0 27 -2 18 -5z m96 -7 c-10 -8 -21 -11 -24 -7 -3 5 -12 11 -20 14 -8 3 3 6
24 6 37 1 38 0 20 -13z m4148 1 c17 15 18 14 17 -23 -1 -21 -3 -31 -6 -21 -4
14 -8 15 -18 7 -10 -8 -15 -8 -21 1 -5 9 -10 7 -15 -7 -6 -14 -8 -8 -8 21 -1
37 0 38 16 22 16 -15 18 -15 35 0z m92 -9 c8 -14 7 -21 -6 -34 -30 -30 -75 9
-48 42 16 18 39 15 54 -8z m56 6 c0 9 5 14 10 11 13 -8 13 -52 0 -60 -6 -3
-13 1 -16 9 -8 21 -21 20 -27 -1 -3 -10 -5 0 -6 21 -1 38 -1 39 19 21 19 -17
20 -17 20 -1z m50 -19 c0 -13 -4 -27 -10 -30 -6 -4 -10 8 -10 30 0 22 4 34 10
30 6 -3 10 -17 10 -30z m46 19 c-3 -9 -6 -25 -6 -37 0 -27 -15 -11 -24 26 -5
23 -3 27 15 27 15 0 19 -4 15 -16z m78 -6 c8 -14 7 -21 -6 -34 -30 -30 -75 9
-48 42 16 18 39 15 54 -8z m54 -12 c3 -20 0 -26 -8 -21 -7 4 -16 1 -21 -6 -6
-9 -9 -1 -9 24 0 31 3 38 18 35 10 -2 18 -14 20 -32z m93 17 c6 9 14 15 20 12
12 -8 12 -55 -1 -55 -5 0 -10 6 -10 13 0 8 -4 7 -10 -3 -9 -13 -11 -13 -20 0
-6 10 -10 11 -10 3 0 -7 -4 -13 -10 -13 -11 0 -14 43 -3 54 4 4 13 -1 21 -11
13 -17 14 -17 23 0z m53 -15 c4 -17 2 -28 -4 -28 -5 0 -10 14 -10 32 0 36 4
35 14 -4z m50 21 c7 6 11 0 11 -19 0 -21 -5 -27 -20 -27 -15 0 -20 7 -21 29
-1 20 2 26 9 19 6 -6 15 -7 21 -2z m-5227 -5 c-3 -3 -12 -4 -19 -1 -8 3 -5 6
6 6 11 1 17 -2 13 -5z m93 -4 c0 -5 -6 -10 -12 -10 -7 0 -22 -3 -34 -6 -14 -4
-21 -1 -21 10 0 11 10 16 34 16 18 0 33 -4 33 -10z m70 6 c0 -2 -11 -6 -25 -8
-14 -3 -25 -1 -25 3 0 5 11 9 25 9 14 0 25 -2 25 -4z m37 -2 c-3 -3 -12 -4
-19 -1 -8 3 -5 6 6 6 11 1 17 -2 13 -5z m-302 -13 c3 -6 -3 -9 -14 -8 -11 0
-17 5 -15 9 7 11 22 10 29 -1z m1081 -26 c19 -19 15 -19 -27 0 -29 12 -31 14
-11 15 13 0 30 -7 38 -15z m774 5 c-8 -5 -19 -10 -25 -10 -5 0 -3 5 5 10 8 5
20 10 25 10 6 0 3 -5 -5 -10z m406 -35 c1 -14 -4 -25 -11 -25 -9 0 -14 32 -6
48 6 11 16 -3 17 -23z m43 18 c-1 -16 -18 -48 -18 -36 -1 6 -4 18 -7 27 -4 11
-1 16 10 16 9 0 16 -3 15 -7z m-2352 -9 c-3 -3 -12 -4 -19 -1 -8 3 -5 6 6 6
11 1 17 -2 13 -5z m1266 -1 c-7 -2 -19 -2 -25 0 -7 3 -2 5 12 5 14 0 19 -2 13
-5z m957 -13 c0 -11 -4 -20 -10 -20 -5 0 -10 9 -10 20 0 11 5 20 10 20 6 0 10
-9 10 -20z m50 -2 c0 -11 -7 -16 -20 -15 -12 1 -20 8 -20 19 0 11 7 16 20 15
12 -1 20 -8 20 -19z m-1983 -4 c-3 -3 -12 -4 -19 -1 -8 3 -5 6 6 6 11 1 17 -2
13 -5z m53 -2 c0 -4 -10 -9 -22 -9 -18 -2 -20 0 -8 7 18 12 30 13 30 2z m840
-19 c-1 -25 -2 -26 -14 -10 -7 9 -21 17 -30 17 -9 0 -16 5 -16 10 0 6 14 10
30 10 26 0 30 -4 30 -27z m973 20 c-12 -2 -24 -12 -26 -21 -3 -12 -5 -10 -6 6
-1 18 4 22 27 21 22 -1 23 -2 5 -6z m286 -15 c-1 -16 -3 -18 -6 -6 -2 9 -16
19 -31 21 -24 4 -24 4 6 6 27 1 32 -2 31 -21z m-2466 5 c-7 -2 -19 -2 -25 0
-7 3 -2 5 12 5 14 0 19 -2 13 -5z m1274 1 c-3 -3 -12 -4 -19 -1 -8 3 -5 6 6 6
11 1 17 -2 13 -5z m-756 -17 c-8 -8 -48 -12 -116 -12 -58 0 -105 -4 -105 -9 0
-5 -17 -6 -39 -3 -21 2 -45 1 -52 -4 -16 -10 3 -13 61 -10 99 6 218 5 212 -1
-4 -3 -90 -8 -192 -10 l-185 -3 1 23 c0 17 -3 21 -15 16 -24 -9 -125 -12 -147
-3 -23 9 -36 8 216 15 102 2 196 5 210 7 14 1 56 3 94 4 54 2 67 0 57 -10z
m4734 -37 c8 -7 15 -21 15 -31 0 -11 6 -19 14 -19 25 0 38 -53 27 -111 -19
-101 -35 -132 -87 -169 -44 -32 -54 -35 -111 -33 -75 3 -91 10 -135 65 -30 38
-33 48 -31 101 2 69 14 90 97 173 l61 60 67 -11 c37 -7 74 -18 83 -25z m-5338
24 c-3 -3 -12 -4 -19 -1 -8 3 -5 6 6 6 11 1 17 -2 13 -5z m1083 -14 c-36 -4
-91 -8 -122 -9 -66 -1 -77 -15 -21 -26 21 -4 42 -12 46 -18 6 -8 7 -7 4 3 -4
12 4 15 37 16 22 0 61 1 86 3 90 6 123 2 116 -14 -3 -8 -1 -15 3 -15 5 0 11 6
14 13 7 19 117 23 117 5 0 -8 -5 -19 -12 -26 -9 -9 -9 -12 0 -12 7 0 12 -4 12
-10 0 -5 -11 -10 -25 -10 -29 0 -31 7 -8 32 9 10 11 18 5 18 -6 0 -17 3 -25 6
-8 3 -17 -2 -20 -10 -4 -10 -1 -13 9 -9 7 3 14 0 14 -6 0 -6 -7 -11 -15 -11
-8 0 -15 -4 -15 -8 0 -4 -9 -8 -20 -9 -11 -1 -20 4 -20 10 0 8 -3 7 -9 -2 -5
-7 -14 -10 -20 -7 -6 4 -9 11 -6 16 3 4 2 15 -1 24 -7 18 -69 22 -93 7 -8 -5
-22 -6 -30 -2 -9 5 -25 5 -36 0 -11 -4 -15 -8 -8 -8 7 -1 10 -7 8 -13 -3 -7 9
-21 26 -31 18 -10 28 -21 24 -25 -4 -4 -9 -2 -11 3 -3 6 -42 9 -99 7 -82 -3
-96 -6 -105 -23 -6 -10 -18 -18 -28 -18 -15 1 -15 2 1 6 26 7 15 27 -19 34
-39 9 -20 11 116 11 63 0 99 2 81 5 -19 2 -41 12 -48 21 -11 16 -12 16 -13 0
0 -14 -9 -18 -40 -18 -38 0 -40 1 -41 33 -1 17 -1 37 0 44 1 7 -18 11 -59 10
-33 -1 -60 1 -60 5 0 7 128 13 300 14 l75 1 -65 -7z m103 3 c-7 -2 -19 -2 -25
0 -7 3 -2 5 12 5 14 0 19 -2 13 -5z m-447 -10 c-12 -12 -156 -15 -156 -3 0 6
31 10 82 10 45 0 78 -3 74 -7z m4349 -11 c0 -18 -20 -15 -23 4 -3 10 1 15 10
12 7 -3 13 -10 13 -16z m-4955 -2 c-9 -6 -8 -10 5 -17 16 -9 15 -11 -4 -16
-13 -3 -19 -1 -15 5 4 6 -2 8 -17 4 -13 -3 -18 -3 -11 0 8 4 10 10 3 17 -7 9
-1 12 21 13 17 1 24 -2 18 -6z m4566 -25 c-3 -13 1 -26 7 -29 7 -2 2 -5 -10
-5 -17 -1 -23 5 -23 19 0 28 -20 25 -21 -2 l-2 -23 -4 23 c-3 15 -11 22 -26
21 -12 0 -16 -3 -9 -6 18 -7 14 -33 -5 -33 -14 0 -15 2 -4 9 11 7 11 9 0 13
-7 2 -10 11 -7 19 4 10 22 15 57 16 48 1 51 0 47 -22z m50 17 c17 -12 12 -48
-8 -48 -13 0 -18 8 -18 28 0 28 7 34 26 20z m54 -2 c0 -5 -4 -10 -10 -10 -12
0 -9 -22 5 -32 6 -4 2 -8 -7 -8 -13 0 -18 8 -18 30 0 20 5 30 15 30 8 0 15 -4
15 -10z m48 1 c19 -11 11 -45 -11 -49 -19 -4 -32 20 -23 43 6 17 15 19 34 6z
m-4254 -24 c21 -14 24 -14 38 3 11 12 24 16 42 13 21 -4 26 -11 26 -35 0 -29
-1 -30 -41 -24 -22 3 -44 8 -50 11 -5 4 -9 1 -9 -6 0 -9 -3 -9 -14 1 -8 6 -13
17 -10 24 3 9 -14 12 -68 11 -92 -2 -98 -3 -98 -15 0 -5 17 -7 38 -4 60 8 83
7 95 -5 9 -9 3 -12 -23 -11 -19 0 -93 0 -163 1 -71 0 -135 3 -143 6 -16 6 -19
43 -4 43 5 0 7 -6 4 -14 -3 -9 5 -15 27 -20 45 -9 69 -8 69 4 0 6 -13 10 -29
10 -17 0 -32 3 -35 8 -6 9 61 9 70 -1 12 -11 26 -8 18 4 -4 7 6 10 29 8 20 -2
39 -1 42 3 13 13 165 0 189 -15z m23 17 c-3 -3 -12 -4 -19 -1 -8 3 -5 6 6 6
11 1 17 -2 13 -5z m116 -16 l-5 -23 16 23 c20 26 83 32 83 8 0 -11 -5 -12 -18
-5 -29 15 -39 11 -50 -21 -13 -37 -26 -38 -41 -4 -10 21 -9 27 3 35 8 5 15 9
16 9 0 0 -1 -10 -4 -22z m143 11 c7 -11 -12 -29 -31 -29 -5 0 -3 5 5 10 11 7
11 10 2 10 -7 0 -10 5 -7 10 8 13 22 13 31 -1z m537 4 c-7 -2 -21 -2 -30 0
-10 3 -4 5 12 5 17 0 24 -2 18 -5z m545 -34 c-2 -15 -9 -23 -18 -21 -8 2 -32
5 -53 7 -39 3 -76 24 -46 26 7 1 22 1 32 0 9 -1 17 3 17 8 0 6 5 11 10 11 6 0
10 -8 10 -17 0 -14 3 -13 16 6 19 27 38 15 32 -20z m349 21 c-1 -11 -6 -20
-12 -21 -5 0 -1 -4 10 -9 19 -8 19 -9 -2 -9 -18 -1 -23 5 -23 22 0 13 3 27 7
30 12 13 22 7 20 -13z m313 12 c0 -4 -6 -14 -12 -20 -10 -10 -10 -15 2 -22 12
-8 10 -10 -7 -10 -24 0 -31 14 -13 25 8 5 7 11 -1 21 -9 11 -7 14 10 14 11 0
21 -4 21 -8z m1625 3 c-23 -8 -1085 -11 -1085 -4 0 5 246 9 548 8 301 0 543
-2 537 -4z m-2251 -17 c5 -10 7 -10 12 0 3 6 10 12 15 12 5 0 3 -11 -3 -25
-13 -29 -28 -28 -39 3 -9 23 5 31 15 10z m191 -28 c7 0 16 10 18 23 4 19 4 18
6 -5 1 -24 -3 -28 -24 -28 -21 0 -25 4 -24 28 2 23 2 24 6 5 2 -13 11 -23 18
-23z m61 29 c4 -8 9 -7 15 2 6 10 9 6 9 -13 0 -29 -14 -38 -23 -15 -4 9 -8 8
-16 -3 -9 -12 -11 -10 -11 13 0 27 13 36 26 16z m244 -1 c0 -9 3 -9 12 0 20
20 38 14 38 -13 0 -24 -18 -30 -32 -11 -4 6 -13 4 -22 -3 -14 -12 -16 -10 -16
13 0 14 5 26 10 26 6 0 10 -5 10 -12z m-1671 -25 c2 -2 -5 -3 -16 -3 -11 0
-20 7 -20 15 0 12 3 12 16 3 9 -7 18 -14 20 -15z m3047 -19 c-3 -9 -6 -23 -6
-31 0 -22 -6 -14 -14 20 -5 21 -3 27 10 27 11 0 14 -5 10 -16z m60 1 c-3 -8 0
-15 7 -16 8 0 7 -2 -2 -6 -11 -5 -11 -7 0 -14 10 -6 8 -9 -8 -9 -17 0 -23 6
-23 23 0 25 7 37 23 37 5 0 7 -7 3 -15z m72 -21 c2 -22 0 -26 -7 -14 -7 10
-11 11 -11 3 0 -7 -4 -13 -10 -13 -11 0 -14 43 -3 54 13 13 28 -1 31 -30z m62
26 c0 -5 -6 -10 -12 -10 -10 0 -10 -2 -2 -8 9 -5 8 -11 -2 -20 -12 -11 -14 -9
-14 11 0 13 3 27 7 30 10 10 23 8 23 -3z m125 0 c3 -5 -1 -10 -9 -10 -22 0
-20 -27 2 -33 13 -4 11 -5 -5 -6 -18 -1 -23 4 -23 22 0 34 21 50 35 27z m55
-5 c-10 -12 -10 -15 1 -16 12 0 12 -1 0 -6 -11 -5 -11 -7 0 -14 10 -6 8 -9 -8
-9 -17 0 -23 6 -23 23 0 27 7 37 28 37 12 0 12 -3 2 -15z m-4130 -5 c13 -9 13
-10 0 -10 -8 0 -22 5 -30 10 -13 9 -13 10 0 10 8 0 22 -5 30 -10z m3070 -30
c5 0 10 10 12 23 3 18 4 19 10 5 8 -20 -15 -54 -30 -44 -7 4 -11 19 -11 34 2
24 2 24 6 5 2 -13 8 -23 13 -23z m72 33 c-10 -4 -8 -8 5 -18 14 -11 16 -16 6
-26 -10 -10 -16 -10 -25 -1 -9 9 -9 12 2 12 11 0 11 3 2 12 -17 17 -15 28 6
27 11 0 12 -2 4 -6z m84 -13 c0 -18 -15 -40 -27 -40 -5 0 -9 14 -9 31 0 24 4
30 18 27 9 -2 17 -10 18 -18z m97 -9 c3 -14 -1 -18 -18 -18 -21 0 -22 2 -13
23 12 26 23 24 31 -5z m47 -11 c5 0 11 10 13 23 4 15 5 12 4 -8 -1 -19 -7 -30
-17 -30 -10 0 -16 11 -17 30 -1 20 0 23 4 8 2 -13 8 -23 13 -23z m90 16 c0
-23 -22 -41 -34 -29 -3 4 -6 17 -6 30 0 16 6 23 20 23 14 0 20 -7 20 -24z m37
-13 c-3 -10 -5 -4 -5 12 0 17 2 24 5 18 2 -7 2 -21 0 -30z m66 25 c7 -20 -12
-48 -28 -42 -15 6 -20 35 -8 47 11 11 31 8 36 -5z m74 -25 c-3 -10 -5 -4 -5
12 0 17 2 24 5 18 2 -7 2 -21 0 -30z m46 25 c4 -10 8 -9 16 2 9 12 11 10 11
-12 0 -28 -13 -37 -26 -17 -4 8 -9 7 -15 -2 -6 -10 -9 -6 -9 14 0 28 14 37 23
15z m327 3 c0 -5 2 -15 5 -23 3 -8 -3 -13 -19 -14 -22 -2 -24 0 -14 22 11 24
28 33 28 15z m885 0 c7 -12 -12 -24 -25 -16 -11 7 -4 25 10 25 5 0 11 -4 15
-9z m-4561 -10 c3 -5 -3 -11 -14 -14 -10 -3 -21 0 -24 7 -3 8 -7 7 -14 -2 -5
-8 -16 -10 -27 -6 -18 7 -18 8 1 15 27 11 72 11 78 0z m306 -7 c0 -2 -37 -3
-82 -2 l-83 1 65 6 c61 6 100 4 100 -5z m390 -17 c10 -4 8 -6 -7 -6 -16 -1
-23 5 -23 17 0 10 3 13 8 6 4 -6 14 -14 22 -17z m97 17 c-3 -3 -12 -4 -19 -1
-8 3 -5 6 6 6 11 1 17 -2 13 -5z m-450 -10 c-3 -3 -12 -4 -19 -1 -8 3 -5 6 6
6 11 1 17 -2 13 -5z m-507 -14 c0 -5 -4 -10 -10 -10 -5 0 -10 5 -10 10 0 6 5
10 10 10 6 0 10 -4 10 -10z m307 -112 c-2 -24 -4 -5 -4 42 0 47 2 66 4 43 2
-24 2 -62 0 -85z m310 0 c-2 -24 -4 -5 -4 42 0 47 2 66 4 43 2 -24 2 -62 0
-85z m3760 0 c-2 -24 -4 -5 -4 42 0 47 2 66 4 43 2 -24 2 -62 0 -85z m-4267
97 c0 -8 -8 -15 -17 -14 -11 0 -13 3 -5 6 6 2 10 9 6 14 -3 5 0 9 5 9 6 0 11
-7 11 -15z m180 5 c0 -5 -7 -10 -16 -10 -8 0 -12 5 -9 10 3 6 10 10 16 10 5 0
9 -4 9 -10z m187 -97 c-2 -21 -4 -4 -4 37 0 41 2 58 4 38 2 -21 2 -55 0 -75z
m450 -5 c-2 -24 -4 -7 -4 37 0 44 2 63 4 43 2 -21 2 -57 0 -80z m650 35 c-2
-16 -4 -3 -4 27 0 30 2 43 4 28 2 -16 2 -40 0 -55z m310 40 c-3 -10 -5 -4 -5
12 0 17 2 24 5 18 2 -7 2 -21 0 -30z m-1982 17 c-3 -5 -12 -10 -18 -10 -7 0
-6 4 3 10 19 12 23 12 15 0z m922 -22 c-3 -7 -5 -2 -5 12 0 14 2 19 5 13 2 -7
2 -19 0 -25z m270 10 c-3 -8 -6 -5 -6 6 -1 11 2 17 5 13 3 -3 4 -12 1 -19z
m-1052 2 c-11 -5 -29 -9 -40 -9 l-20 0 20 9 c11 5 29 9 40 9 l20 0 -20 -9z
m-248 -16 c-3 -3 -12 -4 -19 -1 -8 3 -5 6 6 6 11 1 17 -2 13 -5z m746 -1 c-7
-2 -19 -2 -25 0 -7 3 -2 5 12 5 14 0 19 -2 13 -5z m54 1 c-3 -3 -12 -4 -19 -1
-8 3 -5 6 6 6 11 1 17 -2 13 -5z m-552 -14 c3 -6 -4 -10 -17 -10 -18 0 -20 2
-8 10 19 12 18 12 25 0z m35 6 c0 -3 -4 -8 -10 -11 -5 -3 -10 -1 -10 4 0 6 5
11 10 11 6 0 10 -2 10 -4z m159 -1 c-10 -9 -139 -13 -145 -4 -3 5 30 9 72 9
43 0 75 -2 73 -5z m-289 -15 c0 -6 -27 -9 -62 -9 -58 2 -60 2 -23 9 61 11 85
11 85 0z m4742 -5 c0 -5 -5 -11 -11 -13 -6 -2 -11 4 -11 13 0 9 5 15 11 13 6
-2 11 -8 11 -13z m448 5 c0 -5 -4 -10 -10 -10 -5 0 -10 5 -10 10 0 6 5 10 10
10 6 0 10 -4 10 -10z m-4247 -7 c-7 -2 -19 -2 -25 0 -7 3 -2 5 12 5 14 0 19
-2 13 -5z m3735 0 c-10 -2 -28 -2 -40 0 -13 2 -5 4 17 4 22 1 32 -1 23 -4z
m-2431 -55 c-2 -13 -4 -5 -4 17 -1 22 1 32 4 23 2 -10 2 -28 0 -40z m-1991 27
c-4 -24 -13 -27 -19 -5 -3 13 0 20 8 20 7 0 12 -7 11 -15z m-43 -2 c-7 -2 -19
-2 -25 0 -7 3 -2 5 12 5 14 0 19 -2 13 -5z m-359 -12 c4 -5 -3 -7 -14 -4 -23
6 -26 13 -6 13 8 0 17 -4 20 -9z m89 2 c-13 -2 -33 -2 -45 0 -13 2 -3 4 22 4
25 0 35 -2 23 -4z m972 -5 c-16 -6 -33 -16 -37 -22 -5 -7 -8 -5 -8 6 0 9 10
18 23 21 41 8 52 5 22 -5z m-775 -32 c-7 -7 -13 -7 -20 0 -6 6 -3 10 10 10 13
0 16 -4 10 -10z m200 2 c0 -4 -2 -8 -4 -8 -2 0 -11 -2 -19 -5 -7 -3 -14 0 -14
7 0 8 9 14 19 14 10 0 18 -4 18 -8z m-487 -5 c-7 -2 -19 -2 -25 0 -7 3 -2 5
12 5 14 0 19 -2 13 -5z m102 -3 c3 -6 -4 -10 -17 -10 -18 0 -20 2 -8 10 19 12
18 12 25 0z m623 -2 c-2 -8 10 -14 29 -16 23 -2 32 1 36 15 4 16 5 16 6 1 1
-22 -13 -30 -58 -33 -20 -2 -49 -5 -66 -9 -23 -4 -25 -4 -5 2 14 4 29 18 35
30 10 23 27 30 23 10z m291 -29 c-24 -15 -30 -10 -11 9 9 10 19 14 21 9 2 -5
-3 -13 -10 -18z m61 27 c0 -3 -4 -8 -10 -11 -5 -3 -10 -1 -10 4 0 6 5 11 10
11 6 0 10 -2 10 -4z m3848 -18 c-6 -18 -28 -21 -28 -4 0 9 7 16 16 16 9 0 14
-5 12 -12z m390 0 c-6 -18 -28 -21 -28 -4 0 9 7 16 16 16 9 0 14 -5 12 -12z
m-5501 -75 c-2 -16 -4 -3 -4 27 0 30 2 43 4 28 2 -16 2 -40 0 -55z m727 56
l31 -7 -31 -1 c-19 -1 -37 6 -45 16 -12 14 -12 16 0 8 8 -4 28 -12 45 -16z
m591 3 c-3 -3 -11 0 -18 7 -9 10 -8 11 6 5 10 -3 15 -9 12 -12z m-1038 2 c-3
-3 -12 -4 -19 -1 -8 3 -5 6 6 6 11 1 17 -2 13 -5z m160 -10 c-3 -3 -12 -4 -19
-1 -8 3 -5 6 6 6 11 1 17 -2 13 -5z m350 0 c-3 -3 -12 -4 -19 -1 -8 3 -5 6 6
6 11 1 17 -2 13 -5z m651 -20 c1 0 -12 -1 -30 -1 -18 0 -25 2 -15 4 10 3 14 9
10 16 -4 7 2 5 13 -3 10 -8 20 -15 22 -16z m-1268 12 c0 -2 -7 -7 -16 -10 -8
-3 -12 -2 -9 4 6 10 25 14 25 6z m855 -6 c-4 -6 12 -9 39 -8 24 1 43 5 40 9
-2 4 11 3 30 -2 19 -5 38 -9 43 -8 22 4 96 -2 90 -7 -3 -3 -62 -6 -131 -6
-114 -1 -156 -9 -108 -21 9 -3 4 -4 -13 -2 -99 8 -129 38 -47 46 31 3 58 6 60
7 2 1 0 -2 -3 -8z m-257 -13 c7 -5 12 -3 12 5 0 9 3 9 10 -2 7 -11 12 -12 18
-3 9 14 79 10 95 -6 8 -8 -3 -11 -38 -12 -28 0 -71 -2 -97 -3 -25 -1 -44 2
-41 7 8 12 -100 4 -109 -8 -5 -6 -8 -5 -8 3 0 6 -5 12 -11 12 -5 0 -7 -4 -4
-10 3 -5 -4 -11 -17 -11 -38 -2 -123 3 -128 8 -9 8 25 23 55 23 23 0 27 -3 15
-10 -12 -8 -9 -10 13 -10 15 0 27 4 27 10 0 6 24 9 55 9 31 -1 57 0 60 2 6 7
80 4 93 -4z m592 3 c0 -5 -10 -10 -22 -9 -22 0 -22 1 -3 9 11 5 21 9 23 9 1 1
2 -3 2 -9z m143 3 c-7 -2 -19 -2 -25 0 -7 3 -2 5 12 5 14 0 19 -2 13 -5z
m-1120 -25 c-2 -5 -20 -8 -39 -8 -21 0 -33 4 -29 10 3 5 21 9 40 7 18 -1 31
-5 28 -9z m-216 -4 c-3 -3 -12 -4 -19 -1 -8 3 -5 6 6 6 11 1 17 -2 13 -5z
m121 -1 c-10 -2 -28 -2 -40 0 -13 2 -5 4 17 4 22 1 32 -1 23 -4z m145 0 c-7
-2 -19 -2 -25 0 -7 3 -2 5 12 5 14 0 19 -2 13 -5z m790 -10 c-7 -2 -19 -2 -25
0 -7 3 -2 5 12 5 14 0 19 -2 13 -5z m3837 -14 c0 -11 -10 -16 -35 -17 -27 -1
-35 2 -35 17 0 13 8 17 35 17 25 -1 35 -5 35 -17z m60 4 c0 -7 5 -13 10 -13 6
0 10 7 10 15 0 24 45 19 47 -5 1 -11 -2 -20 -8 -20 -5 0 -9 7 -9 15 0 22 -17
18 -23 -5 -6 -23 -25 -26 -33 -5 -5 11 -11 12 -25 4 -16 -8 -19 -6 -19 11 0
15 6 19 25 18 14 -1 25 -8 25 -15z m281 -13 c5 0 9 8 10 18 0 10 2 12 6 4 3
-7 2 -19 -1 -27 -8 -22 -36 -6 -35 19 1 16 2 17 6 4 2 -10 9 -18 14 -18z m51
20 c3 -25 2 -30 -6 -32 -5 -2 -11 7 -12 20 -2 12 1 22 6 22 6 0 11 -4 12 -10z
m56 -12 c-2 -13 -10 -23 -18 -23 -8 0 -16 10 -18 23 -3 17 2 22 18 22 16 0 21
-5 18 -22z m-4605 5 c-7 -2 -19 -2 -25 0 -7 3 -2 5 12 5 14 0 19 -2 13 -5z
m-6 -29 c-3 -3 -12 -4 -19 -1 -8 3 -5 6 6 6 11 1 17 -2 13 -5z m137 -3 c3 -5
-5 -8 -19 -8 -14 0 -22 3 -19 8 3 5 11 9 19 9 8 0 16 -4 19 -9z m84 2 c-10 -2
-26 -2 -35 0 -10 3 -2 5 17 5 19 0 27 -2 18 -5z m240 0 c-10 -2 -26 -2 -35 0
-10 3 -2 5 17 5 19 0 27 -2 18 -5z m55 0 c-7 -2 -19 -2 -25 0 -7 3 -2 5 12 5
14 0 19 -2 13 -5z m4764 -608 l-1 -170 -6 195 c-4 107 -7 285 -7 395 l1 200 7
-225 c3 -124 6 -301 6 -395z m-5242 595 c-5 -8 142 -17 178 -11 29 5 115 13
127 12 8 -1 28 -2 43 -2 15 0 25 -4 22 -9 -4 -6 -17 -10 -30 -10 -13 0 -27 -5
-30 -10 -4 -6 -11 -7 -17 -4 -6 4 -66 6 -132 5 -92 -2 -125 -6 -138 -18 -9 -8
-22 -12 -27 -8 -19 11 -12 25 12 26 l22 0 -21 9 c-28 11 -40 30 -19 30 9 0 13
-4 10 -10z m-938 -212 c-1 -40 -3 -8 -3 72 0 80 2 112 3 73 2 -40 2 -106 0
-145z m441 201 c-4 -14 67 -22 185 -21 48 1 85 -3 83 -7 -3 -4 -36 -9 -73 -10
-37 -1 -70 -6 -74 -12 -3 -6 -11 -4 -19 5 -7 9 -16 13 -22 10 -5 -3 -14 -1
-21 5 -8 6 -18 6 -27 1 -9 -5 -19 -5 -27 2 -7 6 -24 8 -38 6 -13 -3 -22 -1
-19 3 3 5 12 9 20 9 8 0 14 5 14 10 0 6 5 10 10 10 6 0 9 -5 8 -11z m152 1
c24 -8 24 -8 -5 -8 -16 0 -39 3 -50 8 -18 8 -18 9 5 8 14 0 36 -4 50 -8z m73
3 c-7 -2 -21 -2 -30 0 -10 3 -4 5 12 5 17 0 24 -2 18 -5z m-303 -13 c0 -5 -10
-10 -22 -10 -19 0 -20 2 -8 10 19 13 30 13 30 0z m540 0 c0 -5 -4 -10 -10 -10
-5 0 -10 5 -10 10 0 6 5 10 10 10 6 0 10 -4 10 -10z m-123 -16 c-3 -3 -12 -4
-19 -1 -8 3 -5 6 6 6 11 1 17 -2 13 -5z m-350 -10 c-3 -3 -12 -4 -19 -1 -8 3
-5 6 6 6 11 1 17 -2 13 -5z m-57 -14 c0 -5 -2 -10 -4 -10 -3 0 -8 5 -11 10 -3
6 -1 10 4 10 6 0 11 -4 11 -10z m527 4 c-3 -3 -12 -4 -19 -1 -8 3 -5 6 6 6 11
1 17 -2 13 -5z m-372 -24 c3 -5 1 -10 -4 -10 -6 0 -11 5 -11 10 0 6 2 10 4 10
3 0 8 -4 11 -10z m328 3 c-7 -2 -19 -2 -25 0 -7 3 -2 5 12 5 14 0 19 -2 13 -5z
m356 -587 c-9 -8 -10 -6 -5 7 3 10 7 145 8 300 l3 282 2 -289 c3 -211 0 -293
-8 -300z m1008 207 c-1 -71 -3 -13 -3 127 0 140 2 198 3 128 2 -71 2 -185 0
-255z m1496 257 c11 -13 10 -13 -5 -1 -14 10 -18 26 -16 70 l2 56 3 -55 c3
-30 10 -61 16 -70z m432 110 c4 -6 -7 -10 -24 -10 -17 0 -31 -5 -31 -11 0 -8
18 -10 55 -7 31 3 58 1 61 -4 3 -4 -16 -8 -41 -8 -29 0 -44 -4 -40 -10 4 -6
15 -8 26 -5 13 5 19 2 19 -10 0 -19 -34 -12 -62 12 -12 11 -28 13 -51 9 -38
-7 -52 1 -36 21 9 10 15 10 25 2 10 -8 20 -6 40 10 29 23 49 27 59 11z m-3198
-437 c-1 -82 -3 -15 -3 147 0 162 2 229 3 148 2 -82 2 -214 0 -295z m1540 175
c-1 -51 -3 -12 -3 87 0 99 2 141 3 93 2 -48 2 -129 0 -180z m1376 250 c31 -2
37 -6 37 -25 0 -25 -38 -37 -105 -31 -35 3 -40 6 -43 30 -3 24 1 27 30 30 18
2 36 2 39 1 3 -1 22 -3 42 -5z m94 -20 c-3 -7 -5 -2 -5 12 0 14 2 19 5 13 2
-7 2 -19 0 -25z m-3147 12 c0 -5 -10 -10 -22 -9 -22 0 -22 1 -3 9 11 5 21 9
23 9 1 1 2 -3 2 -9z m64 -12 c7 -12 6 -21 -3 -32 -17 -20 -41 -9 -41 18 0 39
23 46 44 14z m1263 2 c2 -8 -1 -22 -7 -30 -8 -13 -11 -13 -25 1 -9 9 -13 23
-9 33 8 20 38 17 41 -4z m-1797 -2 c0 -5 -30 -8 -67 -7 -38 0 -60 3 -51 7 24
10 118 9 118 0z m90 2 c0 -5 -15 -9 -32 -9 l-33 1 30 8 c17 4 31 8 33 9 1 0 2
-3 2 -9z m227 4 c-3 -3 -12 -4 -19 -1 -8 3 -5 6 6 6 11 1 17 -2 13 -5z m38 -4
c-3 -5 -12 -10 -18 -10 -7 0 -6 4 3 10 19 12 23 12 15 0z m648 -7 c-7 -2 -19
-2 -25 0 -7 3 -2 5 12 5 14 0 19 -2 13 -5z m-670 -20 c-7 -2 -19 -2 -25 0 -7
3 -2 5 12 5 14 0 19 -2 13 -5z m3290 -23 c-7 -28 -13 -25 -13 6 0 14 4 23 9
20 5 -3 7 -15 4 -26z m-3606 14 c-3 -3 -12 -4 -19 -1 -8 3 -5 6 6 6 11 1 17
-2 13 -5z m779 -64 c22 0 25 -4 22 -27 -3 -27 -5 -28 -75 -31 l-73 -3 0 30 c0
27 3 30 38 34 20 2 43 2 50 0 8 -2 25 -3 38 -3z m-562 -8 c2 -4 -4 -8 -14 -8
-10 0 -16 4 -14 8 3 4 9 8 14 8 5 0 11 -4 14 -8z m246 -27 c0 -23 -5 -35 -14
-35 -9 0 -13 10 -11 33 3 39 3 37 15 37 6 0 10 -16 10 -35z m49 16 c7 -13 6
-23 -3 -36 -16 -22 -36 -12 -36 19 0 39 22 49 39 17z m1213 -11 c3 -18 0 -30
-7 -30 -8 0 -12 38 -6 58 4 10 9 -3 13 -28z m56 6 c2 -10 -1 -23 -7 -29 -16
-16 -44 14 -35 37 8 22 38 17 42 -8z m282 -6 l0 -31 -72 3 c-71 3 -73 4 -76
31 l-3 27 75 0 76 0 0 -30z m-1682 13 c-27 -2 -69 -2 -95 0 -27 2 -5 3 47 3
52 0 74 -1 48 -3z m42 -23 c0 -5 -4 -10 -10 -10 -5 0 -10 5 -10 10 0 6 5 10
10 10 6 0 10 -4 10 -10z m130 -30 c8 -5 11 -10 5 -10 -5 0 -17 5 -25 10 -8 5
-10 10 -5 10 6 0 17 -5 25 -10z m-493 -26 c-3 -3 -12 -4 -19 -1 -8 3 -5 6 6 6
11 1 17 -2 13 -5z m76 -1 c-7 -2 -21 -2 -30 0 -10 3 -4 5 12 5 17 0 24 -2 18
-5z m64 1 c-3 -3 -12 -4 -19 -1 -8 3 -5 6 6 6 11 1 17 -2 13 -5z m801 -1 c-10
-2 -28 -2 -40 0 -13 2 -5 4 17 4 22 1 32 -1 23 -4z m-212 -55 l3 -28 -70 0
c-66 0 -69 1 -69 24 0 28 19 35 89 32 40 -1 44 -3 47 -28z m959 22 c9 14 35
-6 35 -27 0 -24 -30 -27 -46 -4 -8 11 -23 21 -32 21 -14 0 -15 2 -2 10 9 5 19
5 26 -1 8 -7 14 -6 19 1z m313 -23 l3 -28 -73 3 c-72 3 -73 4 -76 31 l-3 28
73 -3 c72 -3 73 -4 76 -31z m-1548 -2 c0 -35 -19 -41 -44 -13 -11 14 -27 23
-35 20 -8 -2 -11 0 -8 6 4 5 25 10 47 10 36 1 40 -2 40 -23z m-457 8 c-7 -2
-19 -2 -25 0 -7 3 -2 5 12 5 14 0 19 -2 13 -5z m1637 -7 c0 -3 -4 -8 -10 -11
-5 -3 -10 -1 -10 4 0 6 5 11 10 11 6 0 10 -2 10 -4z m34 -11 c4 -10 -1 -15
-16 -15 -17 0 -18 2 -8 15 7 8 14 15 15 15 2 0 5 -7 9 -15z m-1266 -14 c5 -16
-27 -14 -44 3 -12 13 -10 14 13 12 15 -2 29 -8 31 -15z m97 9 c-3 -5 -12 -10
-18 -10 -7 0 -6 4 3 10 19 12 23 12 15 0z m4194 -33 c8 -11 5 -19 -14 -35
l-25 -22 0 28 c0 42 17 54 39 29z m144 -8 c14 -22 2 -49 -22 -49 -26 0 -42 29
-29 53 11 21 36 19 51 -4z m127 11 c0 -5 -6 -10 -12 -11 -9 0 -9 -2 1 -6 11
-5 11 -7 0 -14 -12 -8 -11 -11 1 -20 12 -8 12 -10 -5 -7 -21 3 -31 29 -21 54
6 16 36 19 36 4z m50 0 c0 -5 -5 -10 -12 -10 -6 0 -4 -6 7 -13 10 -8 15 -19
11 -25 -9 -15 -36 -16 -36 -1 0 5 5 7 10 4 6 -3 10 -2 10 4 0 5 -5 11 -12 13
-6 2 -9 12 -5 21 7 18 27 23 27 7z m85 -25 c0 -40 -30 -47 -38 -8 -6 34 0 45
21 41 11 -2 17 -13 17 -33z m-360 5 c7 0 16 6 18 13 3 6 6 -3 6 -22 1 -32 0
-33 -13 -16 -13 18 -13 18 -24 -1 -10 -16 -11 -14 -11 16 0 19 3 29 6 23 2 -7
11 -13 18 -13z m143 8 c9 -9 12 -9 12 0 0 7 5 12 10 12 6 0 10 -14 10 -32 0
-30 0 -31 -20 -13 -18 16 -20 16 -20 2 0 -10 -4 -17 -10 -17 -5 0 -10 14 -10
30 0 32 9 37 28 18z m-4170 -34 c15 -4 22 -14 22 -30 0 -23 -3 -24 -70 -24
-67 0 -70 1 -70 24 0 18 7 26 23 29 36 7 70 7 95 1z m1289 -8 c4 -4 2 -15 -3
-24 -8 -13 -28 -18 -78 -20 -64 -3 -66 -2 -66 21 0 13 3 26 6 29 8 8 132 3
141 -6z m-1552 -26 c0 -21 -5 -25 -34 -27 -19 -1 -44 5 -55 13 -24 16 -14 19
14 4 16 -8 18 -8 14 5 -4 8 -10 15 -16 15 -5 0 -7 4 -3 10 3 5 22 8 43 7 32
-2 37 -5 37 -27z m1270 5 c0 -14 -7 -20 -22 -20 -12 0 -25 -4 -28 -7 -9 -9
-55 13 -55 26 0 6 5 5 12 -2 7 -7 18 -12 25 -12 17 0 12 23 -7 32 -8 4 5 6 30
5 38 -2 45 -5 45 -22z m2287 -41 c1 -31 1 -58 -1 -60 -2 -2 -276 -4 -608 -4
l-603 0 0 60 0 60 604 0 604 0 4 -56z m-4435 -361 c-1 -76 -3 -14 -3 137 0
151 2 213 3 138 2 -76 2 -200 0 -275z m2490 345 c-3 -7 -5 -2 -5 12 0 14 2 19
5 13 2 -7 2 -19 0 -25z m2835 -7 c-2 -9 3 -11 13 -7 26 10 105 -5 105 -20 0
-8 6 -14 13 -14 7 0 24 -13 37 -28 48 -55 31 -194 -33 -266 -33 -37 -48 -44
-127 -53 -62 -7 -133 33 -160 90 -24 49 -27 129 -5 147 8 7 15 17 15 23 0 16
92 107 108 107 9 0 11 7 7 21 -6 17 -3 20 12 17 10 -2 17 -10 15 -17z m-111
-26 c-1 -15 -24 -12 -29 3 -3 9 2 13 12 10 10 -1 17 -7 17 -13z m-4073 -1 c14
-4 22 -14 22 -29 0 -26 -26 -33 -102 -27 -42 4 -48 7 -48 27 0 17 7 25 23 28
36 7 80 7 105 1z m1349 -16 c-3 -8 -6 -5 -6 6 -1 11 2 17 5 13 3 -3 4 -12 1
-19z m2305 -13 c2 -13 -3 -20 -17 -23 -11 -2 -16 0 -10 5 14 11 17 33 4 33 -5
0 -7 5 -3 11 8 13 21 0 26 -26z m59 17 c-9 -3 -8 -9 5 -23 16 -18 16 -19 -9
-19 -29 0 -33 10 -16 41 5 11 15 16 22 12 8 -5 8 -8 -2 -11z m-4007 -6 c15 20
36 11 36 -15 0 -22 -23 -44 -34 -33 -8 8 -14 9 -51 11 -26 1 -36 21 -11 21 7
0 20 7 27 17 13 15 14 15 17 -1 4 -17 4 -17 16 0z m1252 -1 c-3 -8 -1 -15 4
-15 6 0 10 7 10 16 0 22 34 13 38 -10 6 -30 -10 -36 -68 -22 -30 8 -45 14 -32
15 12 1 25 8 28 16 4 8 11 15 16 15 6 0 8 -7 4 -15z m334 5 c0 -5 -5 -10 -11
-10 -8 0 -8 -4 0 -14 9 -11 4 -15 -27 -19 -20 -4 -54 -4 -75 0 -31 5 -37 10
-37 29 0 23 3 24 75 24 43 0 75 -4 75 -10z m2500 -14 c0 -19 -4 -23 -20 -19
-23 6 -25 14 -8 31 18 18 28 14 28 -12z m-2700 -28 c0 -36 -11 -31 -15 7 -2
14 1 25 6 25 5 0 9 -14 9 -32z m257 -15 c-3 -10 -5 -4 -5 12 0 17 2 24 5 18 2
-7 2 -21 0 -30z m2643 -8 c0 -8 -7 -15 -15 -15 -8 0 -15 7 -15 15 0 8 7 15 15
15 8 0 15 -7 15 -15z m-4145 -33 c-3 -3 -11 0 -18 7 -9 10 -8 11 6 5 10 -3 15
-9 12 -12z m1270 0 c-3 -3 -11 0 -18 7 -9 10 -8 11 6 5 10 -3 15 -9 12 -12z
m2534 -77 c0 -40 -4 -77 -9 -80 -6 -4 -10 24 -10 74 0 45 4 81 9 81 5 0 9 -34
10 -75z m-3676 28 c-18 -2 -48 -2 -65 0 -18 2 -4 4 32 4 36 0 50 -2 33 -4z
m3987 -34 c0 -5 -7 -9 -15 -9 -15 0 -20 12 -9 23 8 8 24 -1 24 -14z m450 6 c0
-8 -4 -15 -9 -15 -13 0 -22 16 -14 24 11 11 23 6 23 -9z m-1844 -13 c4 -15 19
-17 122 -17 99 0 119 3 130 17 15 20 42 13 42 -11 0 -10 15 -21 43 -29 58 -18
145 -72 150 -94 5 -18 47 -26 47 -8 0 5 -7 6 -17 3 -11 -4 -14 -3 -9 5 13 22
39 14 33 -9 -4 -14 3 -30 20 -48 39 -40 82 -112 94 -154 9 -35 12 -37 23 -21
8 11 20 15 30 11 22 -9 16 -31 -10 -35 -20 -3 -20 -5 -7 -65 21 -95 0 -280
-42 -382 -35 -81 -124 -188 -201 -238 -66 -44 -213 -87 -297 -87 -162 0 -273
40 -384 137 -66 57 -143 161 -143 192 0 9 -7 29 -15 45 -26 49 -40 171 -26
228 6 27 11 64 11 81 0 45 80 200 141 274 57 70 150 137 211 154 36 9 38 11
22 24 -15 11 -16 15 -5 29 17 21 32 20 37 -2z m1332 11 c-10 -2 -28 -2 -40 0
-13 2 -5 4 17 4 22 1 32 -1 23 -4z m-4071 -59 c-3 -3 -12 -4 -19 -1 -8 3 -5 6
6 6 11 1 17 -2 13 -5z m4163 -49 c0 -8 -7 -15 -15 -15 -16 0 -20 12 -8 23 11
12 23 8 23 -8z m395 6 c7 -12 -12 -24 -25 -16 -11 7 -4 25 10 25 5 0 11 -4 15
-9z m-2070 -41 c9 -15 -14 -40 -31 -33 -22 8 -18 43 5 43 11 0 23 -5 26 -10z
m-2435 -10 c0 -5 -9 -10 -20 -10 -21 0 -28 -24 -10 -35 6 -3 10 1 10 9 0 22
20 20 21 -1 0 -11 6 -5 15 15 8 17 18 32 23 32 7 0 31 -51 31 -64 0 -1 -25 -2
-56 -1 -64 0 -89 20 -65 49 15 18 51 22 51 6z m100 -25 c0 -13 -4 -27 -10 -30
-6 -4 -10 8 -10 30 0 22 4 34 10 30 6 -3 10 -17 10 -30z m50 18 c0 10 5 17 10
17 6 0 10 -16 10 -35 0 -35 -16 -47 -26 -20 -8 20 -21 19 -27 -2 -3 -10 -5 0
-6 21 -1 38 -1 39 19 21 18 -16 20 -16 20 -2z m1103 7 c-26 -11 -31 -40 -7
-40 8 0 12 5 9 10 -3 6 -1 10 4 10 13 0 15 -27 2 -34 -13 -9 -39 3 -45 21 -8
21 12 43 38 42 21 0 21 0 -1 -9z m77 -16 c6 -14 10 -26 10 -27 0 -1 -14 -2
-30 -3 -34 -1 -34 -3 -18 31 14 32 26 32 38 -1z m40 -4 c0 -16 -4 -30 -10 -30
-5 0 -10 14 -10 30 0 17 5 30 10 30 6 0 10 -13 10 -30z m39 13 c10 -17 10 -17
11 0 0 9 5 17 10 17 6 0 10 -13 10 -30 0 -32 -9 -37 -28 -18 -9 9 -12 9 -12 0
0 -7 -4 -12 -10 -12 -5 0 -10 14 -10 30 0 33 14 39 29 13z m2788 -39 c8 -21
-13 -42 -28 -27 -13 13 -5 43 11 43 6 0 13 -7 17 -16z m223 -9 c0 -14 -4 -25
-10 -25 -5 0 -10 11 -10 25 0 14 5 25 10 25 6 0 10 -11 10 -25z m45 0 c0 -28
-29 -25 -33 3 -3 19 0 23 15 20 10 -2 18 -12 18 -23z m-3115 -75 c0 -4 21 -20
46 -36 54 -34 71 -63 80 -136 5 -40 3 -58 -8 -69 -17 -18 -58 -75 -58 -82 0
-3 7 -12 15 -21 14 -14 13 -17 -12 -30 -33 -17 -178 -15 -196 3 -8 8 -7 11 3
11 9 0 6 6 -8 16 -28 19 -52 65 -52 98 0 14 -4 27 -9 30 -11 7 5 96 20 111 5
5 15 10 22 10 7 0 12 15 13 35 2 51 3 54 17 42 17 -15 83 2 91 23 5 14 36 10
36 -5z m3827 -137 c-2 -32 -3 -8 -3 52 0 61 1 87 3 58 2 -29 2 -78 0 -110z
m-5082 115 c89 -75 115 -107 115 -143 0 -42 -14 -79 -39 -106 -24 -26 -36 -70
-21 -79 19 -11 -45 -32 -102 -34 -41 -1 -61 5 -90 24 -46 31 -84 98 -93 165
-4 28 -12 55 -17 62 -12 15 -4 29 20 35 17 5 19 -1 21 -49 2 -68 20 -105 66
-133 43 -26 93 -28 133 -5 43 26 62 65 62 128 0 49 -4 60 -34 91 -29 32 -39
36 -81 36 -47 0 -115 -18 -115 -30 0 -3 23 -23 50 -43 76 -57 50 -74 -29 -20
-64 43 -44 97 40 108 27 4 51 11 55 16 9 15 19 11 59 -23z m1360 -18 c-5 -8
-11 -8 -17 -2 -6 6 -7 16 -3 22 5 8 11 8 17 2 6 -6 7 -16 3 -22z m-1270 11 c7
-12 -12 -24 -25 -16 -11 7 -4 25 10 25 5 0 11 -4 15 -9z m2083 -74 c4 -20 -25
-34 -40 -19 -15 15 -1 44 19 40 10 -2 19 -11 21 -21z m-2007 -20 c-13 -13 -26
-3 -16 12 3 6 11 8 17 5 6 -4 6 -10 -1 -17z m889 8 c0 -8 -7 -15 -15 -15 -8 0
-15 7 -15 15 0 8 7 15 15 15 8 0 15 -7 15 -15z m385 5 c3 -5 -1 -10 -10 -10
-9 0 -13 5 -10 10 3 6 8 10 10 10 2 0 7 -4 10 -10z m-417 -118 c2 -7 -3 -12
-12 -12 -9 0 -16 7 -16 16 0 17 22 14 28 -4z m452 3 c0 -8 -4 -15 -9 -15 -13
0 -22 16 -14 24 11 11 23 6 23 -9z m-1729 -10 c-1 -15 -24 -12 -29 3 -3 9 2
13 12 10 10 -1 17 -7 17 -13z m459 5 c0 -5 -7 -10 -15 -10 -8 0 -15 5 -15 10
0 6 7 10 15 10 8 0 15 -4 15 -10z m850 -111 c0 -5 -7 -9 -15 -9 -15 0 -20 12
-9 23 8 8 24 -1 24 -14z m390 6 c0 -8 -7 -15 -15 -15 -16 0 -20 12 -8 23 11
12 23 8 23 -8z m-1669 -10 c-1 -15 -24 -12 -29 3 -3 9 2 13 12 10 10 -1 17 -7
17 -13z m397 3 c-6 -18 -28 -21 -28 -4 0 9 7 16 16 16 9 0 14 -5 12 -12z
m3179 -34 c3 -8 1 -20 -5 -26 -15 -15 -43 8 -35 28 7 19 32 18 40 -2z m-1217
-9 c0 -9 -7 -18 -16 -22 -18 -7 -39 11 -30 26 11 17 46 13 46 -4z m-2275 -60
c0 -28 -29 -25 -33 3 -3 19 0 23 15 20 10 -2 18 -12 18 -23z m214 -17 c1 -5
-3 -8 -9 -8 -5 0 -10 12 -9 28 0 24 1 25 9 7 5 -11 9 -23 9 -27z m48 26 c1 -5
-2 -16 -7 -24 -12 -20 -35 2 -26 25 6 17 27 16 33 -1z m1013 -4 c0 -21 -24
-28 -35 -10 -8 14 3 30 21 30 8 0 14 -9 14 -20z m210 0 c0 -11 -4 -20 -8 -20
-4 0 -8 9 -8 20 0 11 4 20 8 20 4 0 8 -9 8 -20z m48 3 c-2 -9 -10 -18 -18 -20
-13 -4 -13 -3 0 6 13 10 13 12 0 21 -13 8 -12 10 3 10 12 0 17 -6 15 -17z
m2639 -149 c2 -6 -8 -19 -22 -28 -25 -16 -25 -16 -25 14 0 27 3 31 22 28 12
-2 23 -8 25 -14z m49 1 c13 17 14 16 13 -16 0 -19 -3 -28 -6 -21 -2 6 -11 12
-18 12 -7 0 -16 -6 -18 -12 -3 -7 -6 3 -6 22 0 30 1 32 11 16 11 -19 11 -19
24 -1z m89 -15 c0 -19 -6 -26 -24 -28 -29 -4 -43 15 -30 41 15 28 54 19 54
-13z m39 22 c7 -12 -5 -52 -15 -52 -5 0 -9 14 -9 30 0 28 13 40 24 22z m32
-50 c-4 -3 -12 0 -19 7 -9 11 -9 14 1 18 6 3 13 12 13 21 1 10 4 4 6 -11 3
-16 2 -31 -1 -35z m50 51 c-15 -4 -16 -7 -5 -14 12 -8 12 -10 0 -18 -11 -7
-10 -10 5 -14 16 -4 16 -5 -3 -6 -19 -1 -23 4 -23 29 0 25 4 30 23 29 19 -1
19 -2 3 -6z m50 -2 c-18 -7 -18 -8 -3 -14 25 -10 21 -37 -5 -36 -21 0 -21 1
-4 8 18 7 18 8 3 14 -25 10 -21 37 6 36 20 0 20 -1 3 -8z m92 -16 c7 -14 12
-27 12 -28 0 -1 -13 -2 -30 -2 -16 0 -30 1 -30 2 0 9 25 53 30 53 4 0 12 -11
18 -25z m-4628 -20 c0 -14 5 -25 10 -25 6 0 10 -4 10 -10 0 -5 -9 -10 -20 -10
-16 0 -20 7 -20 35 0 19 5 35 10 35 6 0 10 -11 10 -25z m66 10 c-15 -11 -16
-15 -5 -16 11 0 11 -2 1 -6 -10 -4 -9 -9 5 -19 17 -14 16 -14 -7 -12 -20 2
-26 9 -28 36 -3 29 -1 32 25 32 27 -1 27 -1 9 -15z m74 5 c0 -5 -9 -10 -20
-10 -21 0 -28 -24 -10 -35 6 -3 10 1 10 9 0 9 5 16 11 16 6 0 9 -8 7 -17 -4
-23 -38 -23 -51 -1 -8 12 -7 21 2 32 15 18 51 22 51 6z m59 -21 c14 -41 14
-44 -4 -29 -12 10 -18 10 -30 0 -18 -15 -20 -1 -3 35 15 33 24 32 37 -6z m61
21 c0 -5 -5 -9 -12 -7 -6 1 -14 -6 -16 -15 -2 -13 3 -18 19 -18 17 0 20 -3 12
-11 -26 -26 -66 18 -43 46 14 17 40 20 40 5z m33 -2 c3 -10 7 -10 20 1 10 8
17 9 17 3 0 -6 -4 -14 -10 -17 -5 -3 -10 -16 -10 -28 0 -24 -11 -14 -28 26 -6
15 -8 27 -3 27 5 0 11 -6 14 -12z m995 -41 c12 -3 10 -5 -5 -6 -20 -1 -23 4
-22 32 2 29 2 29 6 5 2 -15 12 -29 21 -31z m57 45 c-5 -4 -10 -14 -10 -22 0
-8 5 -18 10 -22 6 -4 0 -8 -12 -8 -19 0 -23 6 -23 30 0 24 4 30 23 30 12 0 18
-4 12 -8z m55 -1 c-27 -7 -34 -31 -11 -39 8 -3 11 0 7 7 -4 6 -1 11 8 11 9 0
16 -7 16 -15 0 -9 -9 -15 -25 -15 -14 0 -28 7 -31 15 -10 26 4 45 33 44 l28
-1 -25 -7z m80 -35 c0 -6 -11 -11 -25 -11 -28 0 -30 7 -14 37 11 21 12 21 25
3 8 -10 14 -24 14 -29z m43 34 c-13 -5 -23 -14 -23 -20 0 -6 10 -15 23 -20
l22 -9 -23 0 c-12 -1 -25 6 -28 14 -10 24 4 45 28 44 l23 0 -22 -9z m47 -2 c0
-9 3 -9 12 0 7 7 17 12 22 12 6 0 5 -5 -2 -12 -7 -7 -12 -20 -12 -30 0 -28
-14 -21 -27 12 -6 17 -7 30 -2 30 5 0 9 -5 9 -12z m1879 -37 c17 -11 7 -41
-13 -41 -19 0 -29 17 -22 35 6 17 15 18 35 6z m-1024 -11 c9 -15 -14 -40 -31
-33 -22 8 -18 43 5 43 11 0 23 -5 26 -10z m2000 -50 c3 -6 -1 -13 -10 -16 -19
-8 -30 0 -20 15 8 14 22 14 30 1z m-115 -35 c0 -8 -7 -15 -15 -15 -16 0 -20
12 -8 23 11 12 23 8 23 -8z m222 0 c0 -5 -5 -11 -11 -13 -6 -2 -11 4 -11 13 0
9 5 15 11 13 6 -2 11 -8 11 -13z m-30 -17 c22 -6 50 -24 63 -40 14 -16 26 -24
30 -18 7 12 25 4 25 -11 0 -5 -7 -9 -15 -9 -12 0 -13 -4 -5 -19 15 -30 12 -75
-10 -134 -43 -114 -149 -156 -261 -103 -40 19 -89 97 -89 142 0 60 23 106 69
140 59 43 66 42 36 -2 -52 -76 -30 -180 45 -219 43 -22 101 -19 141 8 42 28
59 60 59 112 0 88 -60 145 -155 147 -30 0 -42 4 -34 9 19 12 55 11 101 -3z
m-3253 -185 c-1 -137 1 -167 14 -181 11 -12 13 -22 6 -32 -8 -13 -13 -10 -34
13 -24 27 -25 32 -25 187 0 169 3 192 26 183 12 -5 15 -34 13 -170z m-1278 2
c-2 -129 1 -164 13 -180 9 -11 16 -26 16 -32 0 -25 -31 -13 -51 20 -18 28 -20
43 -15 132 3 55 6 128 6 163 0 53 3 63 16 60 14 -3 16 -24 15 -163z m4462 115
c32 -60 32 -60 7 -60 -14 0 -22 11 -30 40 -6 21 -15 42 -20 45 -11 7 -4 25 8
25 4 0 19 -23 35 -50z m-4429 -110 c-5 -90 -4 -123 6 -135 7 -8 8 -15 2 -15
-18 0 -22 29 -22 144 0 100 4 126 17 126 2 0 1 -54 -3 -120z m1273 -67 c-2
-37 -3 -9 -3 62 0 72 1 102 3 68 2 -34 2 -93 0 -130z m2953 177 c0 -5 -7 -10
-15 -10 -8 0 -15 5 -15 10 0 6 7 10 15 10 8 0 15 -4 15 -10z m-1600 -60 c0
-23 -4 -30 -20 -30 -14 0 -20 7 -20 23 0 27 7 37 27 37 8 0 13 -12 13 -30z
m612 0 c3 -19 0 -30 -8 -30 -7 0 -10 8 -7 20 3 12 0 20 -6 20 -7 0 -9 5 -6 10
11 19 23 10 27 -20z m50 0 c3 -17 0 -30 -6 -30 -6 0 -11 14 -12 30 -1 39 12
39 18 0z m-2995 -147 c-2 -21 -4 -4 -4 37 0 41 2 58 4 38 2 -21 2 -55 0 -75z
m3901 95 c-6 -18 -28 -21 -28 -4 0 9 7 16 16 16 9 0 14 -5 12 -12z m450 1 c-2
-6 -8 -10 -13 -10 -5 0 -11 4 -13 10 -2 6 4 11 13 11 9 0 15 -5 13 -11z
m-5591 -196 c-2 -32 -3 -6 -3 57 0 63 1 89 3 58 2 -32 2 -84 0 -115z m1330 50
c-2 -16 -4 -5 -4 22 0 28 2 40 4 28 2 -13 2 -35 0 -50z m1271 2 c-2 -19 -6
-22 -18 -15 -12 7 -12 12 -2 22 6 6 13 23 13 38 2 23 2 23 6 3 2 -13 3 -34 1
-48z m2572 24 c0 -5 -7 -9 -15 -9 -15 0 -20 12 -9 23 8 8 24 -1 24 -14z m395
12 c7 -12 -12 -24 -25 -16 -11 7 -4 25 10 25 5 0 11 -4 15 -9z m-312 -94 c7
-19 -8 -41 -22 -33 -16 10 -14 46 3 46 8 0 16 -6 19 -13z m226 -29 c1 -5 -3
-8 -9 -8 -5 0 -10 12 -9 28 0 24 1 25 9 7 5 -11 9 -23 9 -27z m46 32 c8 -13
-14 -42 -26 -34 -5 3 -9 14 -9 25 0 20 24 26 35 9z m718 -260 c2 -96 0 -157
-4 -135 -7 37 -10 358 -3 325 1 -8 4 -94 7 -190z m-2409 -11 c-8 -14 -34 -11
-34 4 0 8 3 17 7 20 9 9 34 -13 27 -24z m-1294 -59 c0 -44 0 -83 1 -87 0 -5
-7 -9 -15 -11 -14 -3 -16 11 -16 87 0 74 3 91 15 91 12 0 15 -16 15 -80z m70
66 c0 -8 -5 -18 -11 -22 -14 -8 -33 11 -25 25 10 16 36 13 36 -3z m140 -76 l0
-90 -49 0 c-45 0 -50 2 -62 31 -17 43 4 84 44 84 24 -1 27 3 27 32 0 26 4 33
20 33 19 0 20 -7 20 -90z m-413 63 c3 -8 -6 -11 -23 -10 -40 3 -40 -20 0 -44
27 -16 36 -28 36 -48 0 -37 -17 -51 -62 -51 -27 0 -38 4 -38 15 0 18 12 19 27
4 15 -15 43 -4 43 15 0 8 -16 23 -35 35 -42 24 -47 61 -12 86 24 17 58 16 64
-2z m591 0 c2 -9 -5 -11 -27 -7 -43 9 -41 -16 4 -50 19 -15 35 -34 35 -43 0
-28 -31 -53 -67 -53 -27 0 -33 4 -33 21 0 19 1 19 16 5 19 -19 28 -20 42 -3
13 15 6 27 -30 50 -30 19 -38 63 -16 85 16 16 70 12 76 -5z m542 -59 c0 -76 0
-76 25 -72 17 4 25 1 25 -9 0 -10 -11 -13 -42 -11 l-43 3 -3 83 c-3 77 -2 82
18 82 18 0 20 -6 20 -76z m-456 23 c8 -6 8 -10 -1 -14 -7 -2 -13 -21 -13 -42
0 -20 6 -43 13 -50 10 -10 7 -12 -13 -9 -22 3 -25 8 -28 51 -2 26 -7 47 -13
47 -10 0 10 41 26 52 6 4 12 0 14 -10 2 -9 8 -21 15 -25z m186 24 c0 -11 6
-22 13 -25 10 -5 10 -7 0 -12 -7 -3 -13 -22 -13 -43 0 -20 6 -43 13 -50 10
-10 7 -12 -13 -9 -22 3 -25 9 -28 48 -2 24 -9 48 -15 52 -8 6 -9 10 -1 16 6 4
13 15 17 25 9 23 27 22 27 -2z m571 -53 c-4 -21 -16 -34 -36 -43 -26 -11 -27
-13 -8 -14 37 -2 53 -12 53 -35 0 -33 -14 -46 -51 -52 -40 -7 -66 14 -54 43
13 31 14 67 3 80 -24 30 19 63 72 55 24 -3 26 -7 21 -34z m173 36 c9 -3 16
-13 16 -21 0 -13 -3 -13 -15 -3 -22 19 -45 4 -45 -28 0 -33 22 -57 45 -48 8 3
15 1 15 -4 0 -15 -46 -23 -68 -11 -41 22 -41 89 0 109 28 13 32 14 52 6z
m-1474 -24 c39 -39 12 -100 -44 -100 -40 0 -56 15 -56 54 0 59 59 87 100 46z
m140 -41 c0 -51 -3 -60 -16 -57 -13 2 -17 15 -16 56 0 28 1 54 1 57 1 3 8 5
16 5 12 0 15 -13 15 -61z m507 49 c6 -7 13 -34 15 -60 l5 -47 -51 2 c-45 2
-51 5 -54 25 -3 18 3 26 27 35 38 14 43 42 6 35 -26 -5 -35 6 -12 15 23 10 55
7 64 -5z m213 -7 c17 -32 12 -41 -25 -41 -19 0 -35 -2 -35 -4 0 -20 16 -36 37
-36 13 0 21 -4 18 -10 -3 -5 -19 -10 -35 -10 -30 0 -60 30 -60 60 0 51 77 83
100 41z m312 2 c24 -21 23 -58 -2 -83 -39 -39 -100 -14 -100 41 0 53 61 79
102 42z m194 -40 c2 -47 0 -53 -17 -53 -16 0 -19 7 -19 56 0 46 3 55 17 52 12
-2 17 -16 19 -55z m-3849 -35 c-2 -18 -4 -6 -4 27 0 33 2 48 4 33 2 -15 2 -42
0 -60z m63 -73 c0 -8 -4 -15 -10 -15 -5 0 -10 7 -10 15 0 8 5 15 10 15 6 0 10
-7 10 -15z m130 -11 c0 -8 -5 -12 -10 -9 -6 4 -8 11 -5 16 9 14 15 11 15 -7z
m6010 6 c0 -5 -4 -10 -10 -10 -5 0 -10 5 -10 10 0 6 5 10 10 10 6 0 10 -4 10
-10z m-6100 -57 c0 -7 -6 -13 -14 -13 -18 0 -39 26 -31 39 8 13 45 -9 45 -26z
m5987 22 c8 -22 -6 -33 -17 -15 -13 20 -12 30 0 30 6 0 13 -7 17 -15z m-6187
-167 c14 -17 51 -51 82 -74 58 -43 59 -58 1 -42 -39 10 -89 59 -108 105 -17
41 -18 43 -7 43 4 0 18 -14 32 -32z m2307 -184 c-3 -3 -12 -4 -19 -1 -8 3 -5
6 6 6 11 1 17 -2 13 -5z"/>
<path d="M2275 5820 c-7 -12 -3 -13 50 -10 67 3 77 19 13 20 -31 0 -60 -4 -63
-10z"/>
<path d="M2135 5785 c17 -8 23 -14 15 -15 -13 0 -13 -1 0 -10 8 -5 22 -10 30
-10 12 0 12 2 2 9 -10 6 -8 10 8 14 37 10 12 27 -38 26 l-47 -1 30 -13z"/>
<path d="M2355 5790 c6 -9 254 -4 264 6 2 2 -57 4 -133 4 -88 0 -135 -4 -131
-10z"/>
<path d="M2290 5786 c0 -10 28 -13 41 -5 10 6 7 9 -13 9 -16 0 -28 -2 -28 -4z"/>
<path d="M2978 5643 c12 -2 30 -2 40 0 9 3 -1 5 -23 4 -22 0 -30 -2 -17 -4z"/>
<path d="M3058 5643 c6 -2 18 -2 25 0 6 3 1 5 -13 5 -14 0 -19 -2 -12 -5z"/>
<path d="M2130 5630 c-13 -8 -12 -10 3 -10 9 0 17 5 17 10 0 12 -1 12 -20 0z"/>
<path d="M2324 5633 c9 -9 176 -10 176 -2 0 5 -41 8 -91 8 -50 -1 -88 -3 -85
-6z"/>
<path d="M2518 5633 c6 -2 18 -2 25 0 6 3 1 5 -13 5 -14 0 -19 -2 -12 -5z"/>
<path d="M2628 5633 c6 -2 18 -2 25 0 6 3 1 5 -13 5 -14 0 -19 -2 -12 -5z"/>
<path d="M2688 5633 c7 -3 16 -2 19 1 4 3 -2 6 -13 5 -11 0 -14 -3 -6 -6z"/>
<path d="M2743 5633 c9 -2 23 -2 30 0 6 3 -1 5 -18 5 -16 0 -22 -2 -12 -5z"/>
<path d="M2868 5633 c6 -2 18 -2 25 0 6 3 1 5 -13 5 -14 0 -19 -2 -12 -5z"/>
<path d="M1948 5623 c6 -2 18 -2 25 0 6 3 1 5 -13 5 -14 0 -19 -2 -12 -5z"/>
<path d="M1848 5611 c12 -7 62 -4 62 5 0 2 -17 4 -37 4 -24 0 -33 -3 -25 -9z"/>
<path d="M2585 5600 c-3 -5 1 -10 9 -10 8 0 18 5 21 10 3 6 -1 10 -9 10 -8 0
-18 -4 -21 -10z"/>
<path d="M2523 5585 c0 -8 4 -15 9 -15 4 0 8 7 8 15 0 8 -4 15 -8 15 -5 0 -9
-7 -9 -15z"/>
<path d="M1898 5583 c6 -2 18 -2 25 0 6 3 1 5 -13 5 -14 0 -19 -2 -12 -5z"/>
<path d="M2380 5580 c-13 -9 -13 -10 0 -11 51 -5 70 -4 70 4 0 5 -11 6 -24 3
-13 -3 -26 -2 -28 4 -2 6 -8 6 -18 0z"/>
<path d="M2720 5580 c20 -5 39 -5 45 1 5 5 -8 9 -35 8 l-45 -1 35 -8z"/>
<path d="M2015 5570 c-7 -11 7 -13 80 -9 28 1 87 2 133 2 45 -1 85 3 88 8 3 5
-59 9 -145 9 -89 0 -152 -4 -156 -10z"/>
<path d="M2470 5570 c0 -5 7 -7 15 -4 8 4 15 8 15 10 0 2 -7 4 -15 4 -8 0 -15
-4 -15 -10z"/>
<path d="M2687 5554 c-1 -2 -52 -6 -112 -9 -60 -3 -111 -8 -113 -10 -3 -2 70
-4 161 -4 149 -1 196 6 168 23 -5 4 -11 2 -13 -3 -2 -6 -21 -6 -45 -2 -23 5
-44 7 -46 5z"/>
<path d="M2416 5485 c-7 -19 3 -45 16 -45 6 0 5 6 -2 15 -10 12 -10 18 0 30 7
9 8 15 2 15 -5 0 -12 -7 -16 -15z"/>
<path d="M2532 5470 c0 -19 2 -27 5 -17 2 9 2 25 0 35 -3 9 -5 1 -5 -18z"/>
<path d="M2650 5497 c0 -3 11 -17 25 -31 14 -14 25 -22 25 -17 0 4 -11 18 -25
31 -14 13 -25 21 -25 17z"/>
<path d="M2730 5493 c1 -9 50 -47 50 -38 0 6 -38 45 -45 45 -3 0 -5 -3 -5 -7z"/>
<path d="M2492 5460 c0 -14 2 -19 5 -12 2 6 2 18 0 25 -3 6 -5 1 -5 -13z"/>
<path d="M2976 5455 c-3 -8 -1 -15 4 -15 6 0 10 7 10 15 0 8 -2 15 -4 15 -2 0
-6 -7 -10 -15z"/>
<path d="M2880 5450 c0 -6 7 -10 15 -10 8 0 15 2 15 4 0 2 -7 6 -15 10 -8 3
-15 1 -15 -4z"/>
<path d="M2828 5443 c7 -3 16 -2 19 1 4 3 -2 6 -13 5 -11 0 -14 -3 -6 -6z"/>
<path d="M3679 5494 c-16 -19 -1 -48 27 -51 14 -2 15 -1 4 4 -34 14 -38 40 -7
53 15 6 17 9 6 9 -9 1 -22 -6 -30 -15z"/>
<path d="M3788 5492 c-3 -9 -1 -26 3 -37 6 -15 8 -11 8 18 1 40 -4 48 -11 19z"/>
<path d="M3841 5487 c-6 -16 -11 -29 -11 -30 0 -1 11 -2 25 -2 29 0 29 1 10
35 l-13 25 -11 -28z"/>
<path d="M3910 5491 c0 -13 3 -21 7 -18 3 4 15 0 25 -10 17 -15 18 -14 17 18
-1 27 -3 29 -6 10 l-5 -25 -19 25 -19 24 0 -24z"/>
<path d="M3991 5479 c0 -25 2 -29 8 -16 6 17 8 17 20 3 21 -25 31 -19 30 17
-1 17 -3 24 -6 15 -6 -22 -12 -22 -35 -1 -17 15 -18 14 -17 -18z"/>
<path d="M4072 5478 c2 -24 9 -34 23 -36 l20 -4 -20 16 c-13 10 -15 15 -6 16
10 0 11 3 2 14 -10 11 -8 15 6 19 14 4 13 5 -5 6 -20 1 -23 -3 -20 -31z"/>
<path d="M4141 5478 c-1 -30 3 -38 17 -38 11 0 13 3 5 8 -6 4 -13 21 -16 37
-4 27 -4 27 -6 -7z"/>
<path d="M4240 5500 c12 -8 12 -11 -3 -28 -16 -18 -14 -32 6 -32 5 0 7 7 4 15
-4 8 -2 17 3 20 17 10 11 35 -7 35 -15 0 -16 -2 -3 -10z"/>
<path d="M3750 5473 c0 -21 3 -24 9 -14 5 8 7 20 4 28 -8 21 -13 15 -13 -14z"/>
<path d="M5653 5465 c-24 -17 -31 -45 -12 -45 6 0 17 7 26 15 22 22 47 14 51
-16 2 -18 -10 -41 -43 -81 -63 -77 -61 -88 20 -88 51 0 65 3 65 15 0 11 -11
15 -40 15 -22 0 -40 3 -40 6 0 3 18 29 40 56 41 52 49 82 28 111 -19 25 -69
31 -95 12z"/>
<path d="M5868 5383 c-2 -20 -9 -29 -25 -31 -31 -5 -29 -22 2 -22 21 0 25 -5
25 -30 0 -39 27 -41 32 -2 2 21 9 28 31 30 15 2 27 7 27 12 0 5 -12 10 -27 12
-22 2 -29 9 -31 31 -2 15 -9 27 -17 27 -8 0 -15 -12 -17 -27z"/>
<path d="M2646 5335 c-11 -8 -15 -15 -10 -15 6 0 19 7 30 15 10 8 15 14 9 14
-5 0 -19 -6 -29 -14z"/>
<path d="M2419 5308 c-35 -13 -14 -21 36 -13 26 3 44 10 40 13 -9 10 -50 9
-76 0z"/>
<path d="M2038 5303 c7 -3 16 -2 19 1 4 3 -2 6 -13 5 -11 0 -14 -3 -6 -6z"/>
<path d="M2348 5303 c6 -2 18 -2 25 0 6 3 1 5 -13 5 -14 0 -19 -2 -12 -5z"/>
<path d="M2845 5270 c3 -5 8 -10 11 -10 2 0 4 5 4 10 0 6 -5 10 -11 10 -5 0
-7 -4 -4 -10z"/>
<path d="M6680 5335 c0 -8 7 -15 15 -15 8 0 15 7 15 15 0 8 -7 15 -15 15 -8 0
-15 -7 -15 -15z"/>
<path d="M6916 5353 c-12 -12 -6 -33 9 -33 8 0 15 6 15 14 0 17 -14 28 -24 19z"/>
<path d="M1948 5233 c7 -3 16 -2 19 1 4 3 -2 6 -13 5 -11 0 -14 -3 -6 -6z"/>
<path d="M1918 5213 c6 -2 18 -2 25 0 6 3 1 5 -13 5 -14 0 -19 -2 -12 -5z"/>
<path d="M2637 5160 c-3 -11 -1 -23 4 -26 5 -3 9 6 9 20 0 31 -6 34 -13 6z"/>
<path d="M6540 5165 c0 -8 7 -15 15 -15 8 0 15 7 15 15 0 8 -7 15 -15 15 -8 0
-15 -7 -15 -15z"/>
<path d="M2371 5164 c0 -11 3 -14 6 -6 3 7 2 16 -1 19 -3 4 -6 -2 -5 -13z"/>
<path d="M2062 5153 c-11 -11 -7 -13 18 -13 33 0 41 15 12 22 -10 3 -23 -1
-30 -9z"/>
<path d="M5260 5105 c0 -8 5 -15 10 -15 6 0 10 7 10 15 0 8 -4 15 -10 15 -5 0
-10 -7 -10 -15z"/>
<path d="M5360 5105 c0 -8 5 -15 10 -15 6 0 10 7 10 15 0 8 -4 15 -10 15 -5 0
-10 -7 -10 -15z"/>
<path d="M2460 4630 c0 -5 5 -10 10 -10 6 0 10 5 10 10 0 6 -4 10 -10 10 -5 0
-10 -4 -10 -10z"/>
<path d="M3730 4634 c0 -8 5 -12 10 -9 6 4 8 11 5 16 -9 14 -15 11 -15 -7z"/>
<path d="M2460 4505 c0 -8 5 -15 10 -15 6 0 10 7 10 15 0 8 -4 15 -10 15 -5 0
-10 -7 -10 -15z"/>
<path d="M3730 4510 c0 -5 5 -10 10 -10 6 0 10 5 10 10 0 6 -4 10 -10 10 -5 0
-10 -4 -10 -10z"/>
<path d="M3730 4384 c0 -8 5 -12 10 -9 6 4 8 11 5 16 -9 14 -15 11 -15 -7z"/>
<path d="M2460 4380 c0 -5 5 -10 10 -10 6 0 10 5 10 10 0 6 -4 10 -10 10 -5 0
-10 -4 -10 -10z"/>
<path d="M6830 4316 c0 -8 4 -17 9 -20 11 -7 33 18 24 27 -12 12 -33 7 -33 -7z"/>
<path d="M2460 4260 c0 -5 5 -10 10 -10 6 0 10 5 10 10 0 6 -4 10 -10 10 -5 0
-10 -4 -10 -10z"/>
<path d="M3730 4266 c0 -9 5 -16 10 -16 6 0 10 4 10 9 0 6 -4 13 -10 16 -5 3
-10 -1 -10 -9z"/>
<path d="M5397 4249 c-39 -22 -4 -79 35 -58 10 5 18 18 18 29 0 25 -30 41 -53
29z m41 -26 c5 -17 -26 -29 -40 -15 -6 6 -7 15 -3 22 9 14 37 9 43 -7z"/>
<path d="M5643 4253 c-7 -2 -13 -18 -13 -34 0 -23 4 -29 23 -29 12 0 18 4 12
8 -13 9 -16 42 -4 42 5 0 9 5 9 10 0 11 -7 12 -27 3z"/>
<path d="M5777 4253 c-4 -3 -7 -19 -7 -35 0 -22 4 -28 23 -28 16 0 18 3 8 9
-10 6 -10 10 -1 16 9 6 9 10 -1 16 -10 6 -11 9 -1 9 6 0 12 5 12 10 0 11 -23
14 -33 3z"/>
<path d="M5011 4220 c0 -28 2 -31 9 -15 7 18 8 19 15 3 7 -19 25 -15 25 4 0 6
-3 9 -6 5 -4 -3 -15 4 -25 16 l-18 22 0 -35z"/>
<path d="M5067 4243 c-8 -13 3 -53 14 -53 11 0 11 31 0 49 -5 7 -11 9 -14 4z"/>
<path d="M5117 4243 c-12 -11 -8 -40 7 -52 28 -23 68 17 45 45 -12 15 -41 19
-52 7z m43 -23 c0 -13 -7 -20 -20 -20 -13 0 -20 7 -20 20 0 13 7 20 20 20 13
0 20 -7 20 -20z"/>
<path d="M5201 4219 c0 -25 2 -29 8 -16 6 17 8 17 20 3 20 -24 31 -19 31 14 0
17 -4 30 -10 30 -5 0 -10 -7 -10 -17 0 -14 -2 -14 -20 2 -20 18 -20 17 -19
-16z"/>
<path d="M5282 4220 c0 -19 2 -27 5 -17 2 9 2 25 0 35 -3 9 -5 1 -5 -18z"/>
<path d="M5328 4220 c2 -16 8 -30 12 -30 4 0 10 14 12 30 4 23 1 30 -12 30
-13 0 -16 -7 -12 -30z"/>
<path d="M5470 4219 c0 -27 2 -30 15 -19 10 9 15 9 15 1 0 -6 4 -11 8 -11 4 0
8 12 7 28 0 20 -6 28 -22 30 -20 3 -23 -1 -23 -29z m30 11 c0 -5 -2 -10 -4
-10 -3 0 -8 5 -11 10 -3 6 -1 10 4 10 6 0 11 -4 11 -10z"/>
<path d="M5570 4220 c0 -25 4 -30 23 -29 12 0 16 3 10 6 -7 2 -13 16 -13 29 0
13 -4 24 -10 24 -5 0 -10 -13 -10 -30z"/>
<path d="M5701 4223 c6 -18 14 -33 18 -33 11 0 33 51 26 58 -3 4 -9 -4 -12
-17 l-6 -24 -18 24 -19 24 11 -32z"/>
<path d="M5838 4220 c3 -20 10 -30 21 -29 10 0 11 2 4 6 -7 2 -13 16 -13 29 0
13 -4 24 -8 24 -5 0 -7 -13 -4 -30z"/>
<path d="M6910 4165 c-66 -30 -79 -50 -74 -114 10 -100 60 -151 150 -151 41 0
51 5 85 39 35 35 39 44 39 89 0 28 -4 62 -9 75 -23 60 -123 92 -191 62z m53
-105 c23 -21 -16 -16 -66 9 -39 19 -53 31 -46 38 7 7 25 3 57 -14 26 -14 51
-28 55 -33z"/>
<path d="M2460 4134 c0 -8 5 -12 10 -9 6 4 8 11 5 16 -9 14 -15 11 -15 -7z"/>
<path d="M3730 4140 c0 -5 5 -10 10 -10 6 0 10 5 10 10 0 6 -4 10 -10 10 -5 0
-10 -4 -10 -10z"/>
<path d="M5404 3925 c16 -17 30 -20 21 -6 -3 5 5 12 17 14 14 3 8 5 -15 6 -34
1 -37 -1 -23 -14z"/>
<path d="M5488 3933 c12 -2 30 -2 40 0 9 3 -1 5 -23 4 -22 0 -30 -2 -17 -4z"/>
<path d="M5346 3922 c-2 -4 4 -8 15 -8 10 0 19 4 19 8 0 4 -6 8 -14 8 -8 0
-17 -4 -20 -8z"/>
<path d="M5578 3923 c6 -2 18 -2 25 0 6 3 1 5 -13 5 -14 0 -19 -2 -12 -5z"/>
<path d="M5625 3910 c3 -5 8 -10 11 -10 2 0 4 5 4 10 0 6 -5 10 -11 10 -5 0
-7 -4 -4 -10z"/>
<path d="M5760 3801 c-47 -49 -54 -66 -10 -24 24 23 42 44 40 47 -3 2 -16 -8
-30 -23z"/>
<path d="M5684 3643 c-70 -82 -136 -158 -147 -170 -19 -22 -19 -22 2 -16 11 3
19 9 16 13 -7 11 20 31 30 22 5 -4 5 -2 2 4 -6 11 22 49 91 123 17 19 32 39
32 44 0 5 7 7 14 4 10 -4 13 -1 10 7 -3 7 9 25 26 40 17 14 29 26 26 26 -3 0
2 9 11 19 9 11 20 18 25 15 4 -3 8 0 8 5 0 26 -25 2 -146 -136z"/>
<path d="M5680 3709 c0 -5 5 -7 10 -4 6 3 10 8 10 11 0 2 -4 4 -10 4 -5 0 -10
-5 -10 -11z"/>
<path d="M5880 3701 c0 -5 7 -15 17 -22 15 -13 15 -12 4 9 -12 23 -21 28 -21
13z"/>
<path d="M5626 3650 c-17 -22 -36 -40 -43 -40 -7 0 -12 -3 -10 -8 3 -11 -39
-62 -53 -62 -6 0 -9 -4 -6 -8 3 -5 -8 -23 -25 -41 -16 -18 -25 -31 -20 -29 9
3 148 157 184 204 10 13 15 24 10 24 -4 0 -21 -18 -37 -40z"/>
<path d="M5850 3520 c0 -5 5 -10 11 -10 5 0 7 5 4 10 -3 6 -8 10 -11 10 -2 0
-4 -4 -4 -10z"/>
<path d="M5961 3514 c0 -11 3 -14 6 -6 3 7 2 16 -1 19 -3 4 -6 -2 -5 -13z"/>
<path d="M5640 3501 c0 -5 7 -12 16 -15 14 -5 15 -4 4 9 -14 17 -20 19 -20 6z"/>
<path d="M5770 3490 c-20 -6 -21 -8 -5 -8 11 0 29 3 40 8 25 11 -1 11 -35 0z"/>
<path d="M5927 3489 c7 -7 15 -10 18 -7 3 3 -2 9 -12 12 -14 6 -15 5 -6 -5z"/>
<path d="M5598 3453 c6 -2 18 -2 25 0 6 3 1 5 -13 5 -14 0 -19 -2 -12 -5z"/>
<path d="M5454 3435 c1 -8 9 -21 16 -28 8 -6 11 -8 7 -3 -4 6 5 16 20 23 18 8
20 11 6 7 -12 -2 -24 0 -28 6 -9 15 -24 12 -21 -5z"/>
<path d="M5540 3436 c0 -9 30 -14 35 -6 4 6 -3 10 -14 10 -12 0 -21 -2 -21 -4z"/>
<path d="M5620 3410 c-9 -6 -10 -10 -3 -10 6 0 15 5 18 10 8 12 4 12 -15 0z"/>
<path d="M5696 3376 c10 -8 21 -12 24 -10 5 6 -21 24 -34 24 -6 0 -1 -6 10
-14z"/>
<path d="M5745 3370 c3 -5 8 -10 11 -10 2 0 4 5 4 10 0 6 -5 10 -11 10 -5 0
-7 -4 -4 -10z"/>
<path d="M5371 3324 c0 -11 3 -14 6 -6 3 7 2 16 -1 19 -3 4 -6 -2 -5 -13z"/>
<path d="M5956 3323 c-6 -14 -5 -15 5 -6 7 7 10 15 7 18 -3 3 -9 -2 -12 -12z"/>
<path d="M5544 3279 c5 -13 8 -31 9 -40 1 -10 7 -15 15 -12 9 4 10 9 3 16 -6
6 -11 19 -11 28 0 10 -5 21 -12 25 -8 5 -9 0 -4 -17z"/>
<path d="M5650 3290 c0 -5 5 -10 11 -10 5 0 7 5 4 10 -3 6 -8 10 -11 10 -2 0
-4 -4 -4 -10z"/>
<path d="M5520 3261 c0 -6 4 -13 10 -16 6 -3 7 1 4 9 -7 18 -14 21 -14 7z"/>
<path d="M5676 3208 c3 -4 9 -8 15 -8 5 0 9 4 9 8 0 5 -7 9 -15 9 -8 0 -12 -4
-9 -9z"/>
<path d="M5580 3159 c0 -5 5 -7 10 -4 6 3 10 8 10 11 0 2 -4 4 -10 4 -5 0 -10
-5 -10 -11z"/>
<path d="M5864 3132 c-10 -7 -27 -42 -20 -42 2 0 11 11 20 25 17 26 17 29 0
17z"/>
<path d="M5430 3090 c0 -5 5 -10 11 -10 5 0 7 5 4 10 -3 6 -8 10 -11 10 -2 0
-4 -4 -4 -10z"/>
<path d="M5525 3080 c4 -6 11 -8 16 -5 14 9 11 15 -7 15 -8 0 -12 -5 -9 -10z"/>
<path d="M5784 3045 c-10 -8 -14 -15 -8 -15 6 0 17 7 24 15 16 19 9 19 -16 0z"/>
<path d="M5390 2966 c0 -2 7 -7 16 -10 8 -3 12 -2 9 4 -6 10 -25 14 -25 6z"/>
<path d="M5558 2943 c7 -3 16 -2 19 1 4 3 -2 6 -13 5 -11 0 -14 -3 -6 -6z"/>
<path d="M5443 2913 c15 -2 37 -2 50 0 12 2 0 4 -28 4 -27 0 -38 -2 -22 -4z"/>
<path d="M6800 3780 c0 -5 5 -10 10 -10 6 0 10 5 10 10 0 6 -4 10 -10 10 -5 0
-10 -4 -10 -10z"/>
<path d="M7070 3780 c0 -5 5 -10 10 -10 6 0 10 5 10 10 0 6 -4 10 -10 10 -5 0
-10 -4 -10 -10z"/>
<path d="M3878 3657 c-39 -15 -35 -31 17 -64 48 -30 62 -60 23 -47 -13 4 -35
16 -50 27 -34 25 -55 17 -56 -23 -2 -63 34 -118 95 -147 47 -22 99 -10 140 34
30 31 33 40 33 95 0 57 -2 63 -39 99 -35 35 -43 39 -87 38 -27 -1 -61 -6 -76
-12z"/>
<path d="M2561 3254 c0 -11 3 -14 6 -6 3 7 2 16 -1 19 -3 4 -6 -2 -5 -13z"/>
<path d="M2820 3260 c0 -5 5 -10 11 -10 5 0 7 5 4 10 -3 6 -8 10 -11 10 -2 0
-4 -4 -4 -10z"/>
<path d="M3835 3260 c3 -5 8 -10 11 -10 2 0 4 5 4 10 0 6 -5 10 -11 10 -5 0
-7 -4 -4 -10z"/>
<path d="M6725 3110 c-3 -5 -1 -10 4 -10 6 0 11 5 11 10 0 6 -2 10 -4 10 -3 0
-8 -4 -11 -10z"/>
<path d="M6857 3114 c-14 -14 -7 -35 11 -32 9 2 17 10 17 17 0 16 -18 25 -28
15z"/>
<path d="M5130 2820 c0 -11 5 -20 10 -20 6 0 10 9 10 20 0 11 -4 20 -10 20 -5
0 -10 -9 -10 -20z"/>
<path d="M7090 2560 c0 -5 5 -10 10 -10 6 0 10 5 10 10 0 6 -4 10 -10 10 -5 0
-10 -4 -10 -10z"/>
<path d="M4264 2216 c-8 -33 1 -56 21 -56 13 0 15 9 13 37 -4 43 -25 55 -34
19z"/>
<path d="M5300 2225 c0 -17 5 -25 13 -22 6 2 12 12 12 22 0 10 -6 20 -12 23
-8 2 -13 -6 -13 -23z"/>
<path d="M5290 2121 c0 -11 6 -21 13 -24 20 -7 37 4 37 24 0 14 -7 19 -25 19
-18 0 -25 -5 -25 -19z"/>
<path d="M3997 2221 c-7 -29 4 -71 19 -71 15 0 28 38 22 67 -5 25 -34 28 -41
4z"/>
<path d="M4663 2185 c-3 -9 -3 -18 0 -21 9 -9 27 6 27 22 0 19 -19 18 -27 -1z"/>
<path d="M4867 2243 c-13 -12 -7 -33 8 -33 8 0 15 9 15 20 0 20 -11 26 -23 13z"/>
<path d="M5177 2244 c-4 -4 -7 -25 -7 -46 0 -32 3 -39 18 -36 13 2 17 13 17
42 0 37 -13 55 -28 40z"/>
<path d="M1302 5770 c0 -14 2 -19 5 -12 2 6 2 18 0 25 -3 6 -5 1 -5 -13z"/>
<path d="M1303 5690 c0 -25 2 -35 4 -22 2 12 2 32 0 45 -2 12 -4 2 -4 -23z"/>
<path d="M1323 4760 c0 -25 2 -35 4 -22 2 12 2 32 0 45 -2 12 -4 2 -4 -23z"/>
<path d="M8044 3385 c0 -115 2 -161 3 -102 2 59 2 154 0 210 -1 56 -3 8 -3
-108z"/>
<path d="M8034 2890 c0 -102 2 -143 3 -92 2 50 2 134 0 185 -1 50 -3 9 -3 -93z"/>
</g>
</svg>
