<?xml version="1.0" standalone="no"?>
<!DOCTYPE svg PUBLIC "-//W3C//DTD SVG 20010904//EN"
 "http://www.w3.org/TR/2001/REC-SVG-20010904/DTD/svg10.dtd">
<svg version="1.0" xmlns="http://www.w3.org/2000/svg"
 width="940.000000pt" height="788.000000pt" viewBox="0 0 940.000000 788.000000"
 preserveAspectRatio="xMidYMid meet">

<g transform="translate(0.000000,788.000000) scale(0.100000,-0.100000)"
fill="#000000" stroke="none">
<path d="M5075 7131 c-196 -57 -390 -221 -623 -527 -120 -158 -294 -423 -327
-499 -22 -51 -55 -121 -140 -300 -202 -426 -399 -1008 -575 -1695 -65 -255
-65 -256 -129 -298 -79 -52 -226 -202 -290 -297 -30 -44 -85 -116 -122 -160
-223 -267 -333 -569 -333 -910 1 -379 147 -721 425 -991 117 -113 183 -160
331 -238 178 -94 360 -140 548 -139 132 1 228 19 346 64 l62 23 93 -27 c352
-101 735 -42 1154 177 66 34 152 85 191 113 40 28 85 58 102 67 60 31 232 177
287 243 91 109 274 407 351 568 150 315 217 649 185 924 -28 237 -88 381 -241
576 -22 28 -52 84 -67 125 -24 65 -28 90 -28 185 0 95 20 274 55 500 17 105
49 434 60 605 27 435 0 821 -81 1149 -26 107 -40 142 -99 245 -112 197 -214
294 -415 391 -125 62 -259 107 -376 130 -108 20 -267 18 -344 -4z m475 -701
c27 -15 37 -36 55 -121 102 -484 53 -1257 -112 -1764 -22 -69 -57 -150 -70
-165 -2 -2 -52 -5 -111 -7 -313 -9 -615 -128 -953 -379 -48 -35 -95 -64 -106
-64 -23 0 -144 39 -157 51 -22 20 54 369 150 682 76 249 195 560 324 847 113
253 122 269 159 297 33 25 307 298 392 389 58 63 173 164 187 164 6 0 12 5 12
10 0 6 9 10 20 10 10 0 23 8 29 17 5 10 12 15 16 11 4 -3 25 2 48 13 47 21 89
24 117 9z m70 -2201 c0 -10 69 -44 76 -37 5 6 -10 24 -31 37 -18 11 -17 12 10
6 33 -7 48 -23 37 -40 -4 -5 -7 -21 -7 -35 0 -21 -5 -26 -34 -28 -18 -2 -39 2
-45 8 -8 8 -4 10 13 8 37 -5 35 16 -4 35 -23 11 -35 24 -35 37 0 11 5 20 10
20 6 0 10 -5 10 -11z m238 -51 c28 -27 28 -62 0 -82 -33 -23 -64 -19 -99 12
-25 23 -31 34 -26 54 13 49 79 58 125 16z m90 -26 c9 -10 22 -27 29 -38 11
-18 12 -17 12 8 1 21 5 25 21 21 11 -3 20 -6 20 -7 -3 -24 -30 -91 -38 -94 -7
-2 -21 13 -33 32 -24 42 -43 47 -37 11 4 -21 1 -25 -18 -25 -26 0 -30 10 -14
26 6 6 11 27 12 47 1 41 18 48 46 19z m153 -60 c9 -24 10 -24 29 -7 11 10 20
14 20 8 0 -5 -9 -18 -20 -28 -11 -10 -20 -26 -20 -37 0 -11 -7 -18 -20 -18
-16 0 -19 5 -14 24 3 13 -1 37 -10 54 -8 16 -13 32 -10 35 11 11 36 -6 45 -31z
m-253 -725 c36 -12 68 -28 70 -36 5 -15 8 -16 -118 18 -41 11 -87 23 -102 26
-16 3 -28 10 -28 17 0 16 97 3 178 -25z"/>
<path d="M5774 4166 c-12 -31 0 -51 31 -51 27 0 30 3 30 30 0 25 -4 30 -28 33
-17 2 -29 -2 -33 -12z"/>
</g>
</svg>
