<?xml version="1.0" standalone="no"?>
<!DOCTYPE svg PUBLIC "-//W3C//DTD SVG 20010904//EN"
 "http://www.w3.org/TR/2001/REC-SVG-20010904/DTD/svg10.dtd">
<svg version="1.0" xmlns="http://www.w3.org/2000/svg"
 width="4128.000000pt" height="1947.000000pt" viewBox="0 0 4128.000000 1947.000000"
 preserveAspectRatio="xMidYMid meet">

<g transform="translate(0.000000,1947.000000) scale(0.100000,-0.100000)"
fill="#000000" stroke="none">
<path d="M0 14974 c0 -2473 3 -4494 8 -4492 4 2 25 12 47 23 140 64 564 -16
612 -115 7 -14 18 -58 24 -98 10 -58 9 -84 -1 -127 -7 -30 -16 -55 -19 -55 -4
0 -15 -13 -24 -29 -21 -36 -84 -80 -150 -105 -64 -24 -222 -19 -282 10 -57 27
-166 94 -193 117 l-22 20 0 -3701 c0 -2036 1 -3702 3 -3702 9 -2 475 -22 782
-35 204 -8 483 -19 620 -25 138 -6 358 -15 490 -20 132 -6 291 -13 353 -16
l114 -7 -7 -36 c-4 -20 -9 -39 -12 -44 -4 -7 -271 -185 -329 -219 -16 -10 -58
-36 -94 -59 -36 -23 -78 -49 -95 -59 -16 -10 -63 -37 -103 -60 l-73 -42 -127
6 c-173 9 -401 24 -552 36 -69 6 -258 19 -420 30 -162 12 -344 25 -405 30 -60
6 -118 10 -127 10 -17 0 -18 -59 -18 -1105 l0 -1105 20640 0 20640 0 0 8830
c0 8743 0 8831 -19 8820 -11 -5 -23 -15 -26 -20 -3 -6 -13 -10 -22 -10 -13 0
-13 3 -2 16 7 8 25 22 41 30 l28 15 0 894 0 895 -19974 0 -19973 0 -6 -38 c-4
-20 -18 -53 -32 -72 -26 -36 -93 -80 -121 -80 -8 0 -22 -7 -30 -15 -9 -8 -24
-15 -35 -15 -10 0 -19 -4 -19 -10 0 -15 -100 -12 -156 4 -27 8 -69 20 -94 26
-73 19 -148 77 -216 166 l-26 34 -299 0 -299 0 0 -4496z m4405 1995 c-8 -12
-35 -12 -35 0 0 11 22 20 33 14 4 -2 5 -9 2 -14z m190 -1057 c137 -38 225 -91
272 -164 21 -34 28 -61 34 -128 11 -140 -27 -255 -111 -334 -101 -94 -236
-133 -381 -110 -105 17 -180 47 -252 101 -68 52 -158 162 -193 235 -14 29 -29
61 -35 70 -5 10 -9 49 -9 88 0 58 4 77 25 110 49 78 124 124 240 146 97 19
317 11 410 -14z m1525 -921 c117 -40 189 -92 242 -177 34 -54 38 -69 42 -141
4 -62 1 -85 -9 -93 -8 -6 -27 -35 -44 -65 -54 -96 -159 -141 -326 -139 -91 1
-105 4 -161 32 -75 38 -77 44 -64 250 15 230 30 323 59 356 24 27 140 17 261
-23z m1057 -348 c4 -11 -87 -43 -120 -43 -43 0 -13 45 39 59 33 9 76 0 81 -16z
m29379 -91 c116 -59 148 -181 71 -269 -59 -67 -240 -129 -310 -106 -40 13 -86
10 -97 -6 -6 -10 -12 -10 -28 -2 -11 6 -33 11 -49 11 -37 1 -58 18 -77 63 -13
31 -19 37 -38 33 -13 -3 -144 -26 -293 -51 -148 -26 -342 -60 -430 -76 -88
-16 -198 -36 -245 -45 -47 -8 -101 -19 -120 -24 -19 -5 -73 -14 -120 -20 -161
-22 -207 -48 -262 -153 -20 -36 -23 -56 -21 -142 0 -55 8 -158 17 -230 9 -71
23 -191 31 -265 26 -248 64 -534 85 -630 39 -184 90 -340 111 -340 6 0 45 9
87 19 43 11 102 22 132 26 147 17 1025 157 1225 195 65 13 174 23 267 27 184
7 224 -3 282 -67 73 -81 53 -192 -45 -249 -69 -39 -216 -87 -309 -100 -68 -10
-742 -110 -885 -131 -33 -6 -159 -26 -280 -46 -282 -46 -334 -50 -414 -31 -35
8 -70 13 -78 10 -23 -9 -16 -232 16 -513 57 -494 63 -537 92 -705 32 -184 76
-366 112 -459 l22 -58 85 5 c47 3 189 20 315 36 127 17 354 47 505 67 151 19
366 48 477 65 151 22 237 29 345 29 183 -1 213 -7 261 -61 32 -36 37 -48 37
-91 0 -67 -21 -103 -78 -132 -46 -23 -168 -49 -287 -61 -98 -10 -709 -89 -925
-119 -58 -9 -161 -23 -230 -31 -69 -9 -160 -23 -204 -31 -138 -25 -224 -14
-314 39 -28 17 -44 19 -100 13 -198 -19 -236 -19 -254 0 -21 25 -38 88 -38
146 0 54 10 63 81 74 54 8 79 20 79 39 0 8 -17 54 -39 102 -76 174 -100 278
-126 538 -19 192 -31 304 -50 445 -73 545 -73 664 2 802 l26 47 -26 49 c-88
168 -123 292 -147 512 -23 213 -96 840 -111 942 -32 227 18 399 149 519 31 29
80 63 109 76 68 31 218 68 363 88 110 15 221 34 660 111 259 45 276 48 485 90
235 47 284 53 380 50 58 -2 91 -8 121 -24z m-29325 -67 c56 -57 75 -90 82
-140 2 -16 7 -37 11 -46 9 -20 -72 -61 -175 -87 -143 -38 -162 -36 -187 21
-15 35 -15 161 1 207 10 30 19 37 67 52 30 9 82 17 116 17 52 1 65 -3 85 -24z
m144 -630 c-45 -21 -260 -74 -300 -74 -35 0 34 25 135 49 52 12 109 25 125 30
52 14 74 11 40 -5z m25275 -44 c521 -117 894 -594 936 -1196 15 -221 -45 -506
-156 -730 -133 -272 -357 -485 -668 -637 -39 -19 -41 -22 -25 -34 10 -7 21
-14 25 -14 12 0 108 -60 150 -92 22 -18 57 -64 86 -116 83 -147 371 -557 522
-744 145 -180 145 -179 131 -233 -6 -24 -11 -69 -11 -99 0 -62 -4 -64 -61 -44
-99 33 -219 151 -345 338 -35 52 -89 131 -120 175 -31 44 -86 123 -122 175
-36 52 -71 100 -77 105 -6 6 -20 24 -30 40 -10 17 -59 81 -109 142 -63 79 -99
116 -120 122 -50 17 -145 20 -241 9 -49 -6 -99 -10 -110 -10 -11 0 -54 -6 -95
-13 -41 -7 -108 -16 -148 -20 -40 -3 -94 -12 -120 -20 -26 -8 -99 -21 -162
-29 -63 -9 -152 -21 -198 -27 -85 -12 -125 -8 -202 18 -59 20 -95 47 -131 96
-24 33 -29 50 -29 95 0 51 3 58 39 92 47 45 113 62 326 84 138 15 472 72 704
121 378 80 555 166 733 355 206 218 318 506 318 817 0 315 -120 614 -328 819
-124 123 -255 196 -418 235 -161 38 -404 18 -739 -61 -49 -11 -112 -25 -140
-29 -27 -5 -97 -19 -155 -31 -130 -27 -128 -27 -187 -36 -104 -15 -356 -75
-384 -91 -44 -26 -53 -67 -46 -217 4 -72 11 -174 16 -226 34 -339 44 -432 67
-665 13 -143 29 -312 34 -375 5 -63 14 -133 20 -155 5 -22 10 -66 10 -97 0
-69 36 -430 51 -508 5 -30 16 -140 25 -245 29 -380 85 -902 105 -992 11 -51
38 -138 60 -193 24 -61 42 -126 46 -164 5 -56 3 -66 -16 -85 -11 -11 -33 -21
-48 -21 -14 0 -34 -7 -44 -15 -24 -22 -65 -10 -93 29 -70 94 -156 354 -156
474 0 35 -16 208 -35 385 -56 521 -65 606 -75 732 -6 66 -12 129 -14 140 -2
11 -7 48 -11 82 -5 44 -10 60 -20 57 -25 -10 -28 81 -3 113 5 6 2 74 -7 168
-14 126 -14 163 -5 186 11 25 10 32 -5 49 -14 15 -21 60 -35 212 -10 106 -26
265 -35 353 -9 88 -20 212 -25 275 -5 63 -18 193 -30 288 -29 249 -24 355 23
462 44 101 188 197 328 219 37 6 212 40 390 75 418 82 534 103 644 116 50 6
124 17 165 25 95 18 263 12 380 -14z m-29720 -360 c161 -40 239 -83 275 -151
23 -45 47 -160 42 -203 -16 -137 -104 -253 -215 -285 -26 -8 -58 -18 -72 -24
-68 -27 -231 -8 -324 39 -63 32 -200 152 -241 212 -59 85 -68 111 -69 193 -1
69 2 80 29 120 33 47 109 94 185 114 25 7 97 13 160 13 94 1 136 -4 230 -28z
m26293 -256 c351 -62 609 -258 756 -576 62 -135 85 -210 131 -424 22 -104 34
-203 55 -475 8 -107 21 -256 27 -330 17 -183 17 -752 -1 -895 -16 -138 -55
-330 -83 -415 -33 -102 -120 -277 -180 -363 -94 -134 -202 -235 -331 -311 -63
-37 -127 -80 -142 -96 -27 -28 -27 -31 -15 -74 13 -48 8 -68 -15 -59 -11 4
-15 -2 -15 -23 0 -49 -11 -55 -131 -71 -123 -16 -304 -13 -373 8 -40 11 -130
8 -261 -10 -101 -13 -118 -2 -147 94 -22 71 -25 76 -58 85 -110 30 -338 295
-419 487 -74 175 -121 351 -146 539 -9 71 -27 208 -40 304 -14 96 -27 204 -30
240 -3 36 -22 225 -41 420 -35 354 -35 356 -25 600 12 285 22 336 106 526 74
166 146 287 234 394 179 215 452 366 766 424 98 19 274 19 378 1z m-2318 -486
c102 -19 155 -59 174 -133 21 -86 -23 -160 -121 -200 -43 -18 -179 -52 -248
-63 -44 -7 -54 -12 -52 -26 3 -19 -34 -25 -40 -6 -5 14 -245 -23 -318 -49 -30
-11 -82 -27 -114 -37 -102 -29 -103 -30 -111 -260 -7 -192 -6 -247 15 -520 6
-71 24 -317 40 -545 32 -453 50 -692 80 -1075 11 -137 24 -329 30 -425 17
-263 27 -345 47 -382 17 -31 37 -98 50 -162 3 -16 15 -38 25 -48 27 -27 9 -43
-45 -42 -91 2 -180 67 -232 169 -22 44 -29 76 -35 158 -5 56 -13 154 -19 217
-6 63 -29 367 -51 675 -22 308 -42 592 -45 630 -3 39 -14 196 -25 350 -11 154
-27 363 -35 465 -32 406 -37 496 -33 647 3 136 7 165 26 206 l22 49 -48 -5
c-43 -4 -155 -23 -277 -46 -27 -5 -76 -16 -108 -25 -32 -9 -78 -16 -102 -16
-24 0 -46 -4 -49 -9 -3 -5 -16 -9 -28 -9 -35 0 -203 -30 -292 -52 -109 -28
-122 -26 -135 11 -6 18 -11 43 -11 57 0 14 -6 41 -12 60 -12 31 -11 36 9 52
38 30 181 68 376 100 104 17 376 69 605 114 229 46 482 96 562 111 80 14 169
33 198 41 116 32 233 40 327 23z m-2980 -534 c33 -9 72 -19 86 -21 15 -3 73
-20 130 -38 l104 -33 40 -76 c22 -41 48 -85 58 -96 25 -26 18 -55 -13 -59 -41
-4 -328 69 -366 93 -26 16 -110 32 -224 40 -260 20 -533 -94 -732 -306 -37
-39 -74 -86 -83 -105 -8 -18 -21 -39 -28 -46 -19 -20 -69 -136 -85 -198 -28
-112 -31 -137 -31 -250 -1 -197 45 -326 155 -436 129 -130 211 -157 659 -224
316 -47 442 -82 580 -161 320 -183 518 -537 502 -899 -5 -113 -35 -267 -62
-320 -7 -14 -23 -45 -35 -70 -75 -154 -236 -332 -365 -404 -16 -9 -59 -33 -95
-52 -110 -61 -184 -80 -390 -100 -30 -2 -70 -10 -88 -15 -38 -13 -310 5 -374
23 -32 9 -41 8 -57 -7 -19 -16 -21 -16 -47 4 -15 12 -33 21 -41 21 -50 0 -324
186 -353 240 -27 51 3 135 59 165 58 29 92 20 197 -51 165 -113 288 -158 461
-170 247 -17 518 62 683 199 363 300 387 792 55 1122 -139 139 -246 181 -620
244 -66 11 -158 25 -205 31 -353 44 -577 173 -718 409 -110 186 -146 421 -102
658 43 228 136 406 295 568 188 192 379 288 675 339 58 10 317 -3 375 -19z
m615 -292 c0 -5 -4 -14 -9 -22 -11 -17 -32 -5 -24 14 5 15 33 21 33 8z
m-23121 -274 c108 -17 217 -58 262 -98 33 -29 44 -49 60 -106 44 -160 13 -262
-106 -350 -120 -89 -349 -94 -470 -12 -162 110 -216 168 -254 266 -19 50 -19
68 -5 138 6 32 59 89 108 118 85 50 257 69 405 44z m29351 -247 c0 -4 -5 -13
-12 -20 -9 -9 -9 -15 0 -24 9 -9 12 -9 12 0 0 21 27 13 33 -9 6 -24 -1 -49
-15 -49 -32 0 -73 81 -51 103 9 10 33 9 33 -1z m-11513 -150 c138 -38 250
-101 358 -202 33 -31 83 -73 111 -93 125 -90 253 -276 294 -428 15 -56 16
-176 1 -221 -25 -75 -138 -107 -224 -64 -76 38 -159 185 -201 357 -40 165 -73
230 -126 251 -100 38 -389 21 -680 -41 -116 -24 -200 -13 -232 30 -18 24 -24
26 -41 17 -29 -15 -45 -29 -76 -62 -14 -16 -43 -48 -63 -70 -21 -22 -38 -43
-38 -47 0 -3 -12 -19 -26 -35 -27 -28 -74 -118 -74 -141 0 -7 -4 -13 -8 -13
-4 0 -14 -21 -21 -47 -8 -27 -17 -52 -21 -58 -11 -17 -30 -89 -29 -115 0 -14
-5 -115 -11 -225 -12 -213 -17 -1426 -6 -1560 17 -234 35 -316 100 -456 27
-58 51 -90 113 -150 122 -119 214 -156 368 -146 194 12 381 105 551 275 112
112 229 297 289 455 75 200 161 297 265 297 93 0 142 -54 180 -201 15 -60 -1
-249 -21 -249 -5 0 -9 -7 -9 -15 0 -9 -9 -33 -20 -55 -16 -31 -28 -41 -60 -50
-56 -15 -138 -3 -145 21 -4 11 -9 19 -13 19 -10 -1 -63 -77 -93 -135 -75 -143
-232 -318 -347 -388 -30 -17 -77 -47 -105 -66 -57 -38 -236 -111 -272 -111
-14 0 -39 -9 -57 -20 -28 -17 -45 -19 -113 -14 -110 7 -234 24 -254 33 -9 5
-60 30 -114 55 -104 50 -205 133 -249 204 -12 21 -31 46 -41 57 -28 29 -102
189 -126 270 -57 194 -56 178 -55 1100 1 802 3 859 23 1011 31 243 92 405 216
579 181 255 456 420 780 469 65 10 252 -3 322 -22z m-1866 -429 c37 -22 42
-40 34 -108 -6 -46 -13 -60 -41 -83 -64 -53 -61 -15 -80 -1076 -2 -132 -6
-241 -9 -244 -2 -3 0 -14 6 -24 11 -21 9 -51 -9 -123 -5 -22 -13 -152 -16
-290 -3 -137 -10 -387 -15 -555 -15 -442 -17 -777 -7 -836 8 -49 7 -53 -18
-69 -20 -14 -37 -16 -86 -10 -72 8 -77 14 -115 130 -27 79 -27 83 -21 280 9
328 35 1033 47 1280 6 127 11 241 11 255 -1 270 35 1171 49 1225 35 135 139
253 232 264 5 1 22 -7 38 -16z m-1543 -224 c73 -19 185 -70 197 -88 3 -6 52
-33 109 -60 129 -62 203 -128 267 -237 60 -102 73 -143 66 -213 -5 -47 -11
-61 -40 -87 -23 -21 -48 -33 -78 -37 -130 -19 -224 68 -346 318 -26 53 -56
103 -68 111 -16 10 -37 11 -100 3 -44 -6 -98 -15 -120 -20 -77 -20 -221 -38
-336 -42 -64 -2 -124 -9 -133 -14 -30 -17 -116 -105 -116 -120 0 -7 -7 -16
-15 -19 -8 -4 -15 -12 -15 -19 0 -7 -8 -23 -18 -36 -18 -24 -56 -120 -86 -217
-17 -55 -24 -210 -11 -267 10 -46 56 -157 77 -185 11 -14 45 -51 76 -84 71
-72 139 -107 440 -227 389 -154 473 -204 580 -344 78 -102 116 -189 153 -347
18 -75 20 -109 15 -211 -7 -153 -14 -225 -27 -248 -5 -10 -9 -26 -9 -36 0 -31
-86 -228 -136 -313 -65 -108 -215 -283 -255 -295 -28 -9 -23 -25 9 -25 48 0
54 -11 41 -66 -6 -27 -15 -57 -20 -66 -5 -10 -9 -31 -9 -46 0 -51 -43 -72
-185 -91 -169 -22 -193 -24 -295 -23 -114 0 -175 13 -262 57 -29 15 -96 45
-148 66 -171 71 -278 159 -327 266 -79 172 -22 338 115 336 105 -1 179 -71
282 -265 43 -82 73 -127 90 -135 58 -29 236 -2 364 56 179 81 349 251 442 441
86 177 124 367 106 521 -13 101 -32 163 -78 246 -57 103 -115 143 -349 238
-49 20 -99 40 -110 45 -11 5 -47 19 -80 31 -33 13 -64 27 -70 31 -5 4 -16 8
-26 8 -9 0 -36 10 -60 23 -24 13 -60 29 -79 37 -66 26 -176 99 -243 160 -243
223 -318 595 -185 929 68 173 184 324 323 423 205 146 457 196 683 137z
m-1482 -379 c28 -121 19 -143 -66 -156 -26 -4 -53 -17 -70 -34 -33 -32 -38
-79 -40 -365 -1 -104 -3 -305 -5 -445 -2 -140 -6 -475 -9 -745 -3 -269 -8
-526 -12 -570 -8 -110 -46 -341 -63 -380 -5 -11 -19 -49 -31 -85 -12 -36 -28
-72 -34 -80 -7 -8 -27 -44 -45 -80 -18 -36 -37 -67 -41 -70 -4 -3 -19 -25 -35
-49 -15 -24 -63 -81 -107 -126 -58 -61 -92 -88 -129 -102 -54 -20 -131 -76
-149 -108 -27 -47 -115 -94 -225 -121 -33 -8 -73 -19 -90 -24 -98 -29 -299
-19 -367 18 -18 10 -56 25 -84 34 -88 28 -196 108 -269 198 -97 120 -168 321
-183 523 -9 106 -4 286 22 807 9 168 18 355 21 415 3 61 10 187 15 280 6 94
17 300 26 458 9 168 21 311 30 344 34 129 100 202 194 211 95 9 182 -64 220
-185 20 -64 43 -233 35 -254 -6 -16 -10 -74 -24 -384 -6 -126 -13 -252 -16
-280 -3 -27 -9 -106 -14 -175 -9 -130 -21 -170 -63 -210 -28 -26 -53 -25 -105
2 -42 22 -42 23 -57 3 -19 -26 -25 -76 -35 -320 -5 -110 -11 -225 -15 -255
-10 -96 -8 -463 4 -550 13 -95 48 -192 96 -265 47 -71 72 -96 143 -144 52 -34
77 -43 140 -52 158 -23 275 4 468 106 88 46 118 69 182 136 81 87 198 245 236
319 38 75 73 184 95 292 23 111 33 352 45 1033 13 799 27 1293 36 1328 15 55
80 123 137 141 72 23 82 24 156 23 l70 -2 12 -55z m20177 -67 c9 -5 9 -35 1
-57 -9 -23 -43 -20 -65 7 -21 26 -24 53 -6 60 12 5 54 -1 70 -10z m-22876
-374 c15 -6 39 -20 52 -32 33 -31 71 -115 71 -159 0 -20 5 -40 10 -43 6 -3 10
-13 10 -21 0 -8 -4 -13 -9 -10 -5 3 -8 0 -8 -7 5 -55 -45 -236 -75 -276 -19
-25 -24 -46 -9 -36 5 3 2 -9 -7 -27 -13 -26 -16 -60 -16 -153 1 -66 4 -142 7
-170 7 -57 21 -375 19 -420 -1 -16 3 -56 8 -87 11 -59 31 -351 36 -523 3 -96
20 -386 28 -470 2 -22 9 -121 15 -219 6 -99 15 -191 18 -205 4 -14 6 -34 4
-44 -1 -10 10 -53 25 -94 24 -65 34 -81 71 -106 36 -26 43 -36 43 -65 0 -52
-15 -70 -65 -78 -91 -13 -216 70 -262 175 -51 120 -58 176 -83 686 -26 528
-62 1008 -76 1022 -15 15 -14 16 -43 -64 -6 -18 -15 -45 -21 -60 -5 -16 -22
-68 -36 -116 -15 -49 -33 -91 -40 -94 -8 -3 -14 -18 -14 -35 0 -16 -9 -50 -19
-76 -34 -82 -77 -205 -91 -257 -7 -27 -19 -59 -27 -70 -7 -11 -13 -29 -13 -40
0 -11 -11 -42 -25 -70 -13 -27 -25 -58 -25 -67 0 -9 -13 -52 -29 -95 -46 -126
-49 -134 -72 -213 -12 -41 -33 -110 -46 -153 -15 -46 -23 -90 -19 -105 9 -45
25 -144 34 -214 10 -79 -5 -188 -25 -188 -7 0 -13 -7 -13 -15 0 -33 -35 -84
-71 -105 -66 -36 -151 -11 -209 63 -36 45 -50 104 -50 204 0 85 5 108 46 236
45 135 46 143 36 201 -6 34 -56 331 -112 661 -55 330 -114 674 -129 765 -16
91 -43 253 -61 360 -39 239 -79 380 -109 380 -21 0 -59 -98 -66 -170 -4 -41
-13 -90 -21 -109 -8 -18 -14 -46 -14 -62 0 -16 -4 -37 -9 -47 -6 -9 -19 -78
-30 -152 -32 -203 -50 -308 -69 -380 -9 -36 -17 -85 -18 -110 -1 -25 -8 -79
-17 -120 -8 -41 -23 -118 -32 -170 -17 -105 -26 -148 -49 -260 -9 -41 -17 -95
-19 -120 -1 -25 -7 -44 -13 -43 -10 2 -19 -67 -16 -135 0 -18 -3 -30 -7 -27
-5 2 -11 -24 -15 -58 -8 -83 -15 -125 -25 -167 -19 -71 -36 -171 -75 -433 -6
-43 -14 -75 -18 -71 -13 12 -9 -99 5 -125 19 -37 31 -30 47 30 9 33 20 54 27
52 6 -2 14 1 18 6 9 16 65 13 71 -3 3 -8 12 -12 20 -9 8 3 14 0 14 -5 0 -6 7
-17 15 -26 13 -13 14 -29 4 -112 -14 -129 -27 -153 -106 -197 -36 -20 -54 -21
-123 -6 -40 9 -64 23 -111 67 -67 62 -105 127 -120 206 -8 47 -2 93 51 392 34
186 83 467 111 624 27 157 63 362 80 455 16 94 38 220 49 280 10 61 35 200 55
310 19 110 57 327 84 483 49 278 65 336 111 395 11 14 32 28 46 31 15 4 34 16
43 28 12 14 33 22 69 26 99 9 192 -58 261 -188 17 -32 36 -60 41 -62 6 -2 12
-23 15 -47 6 -65 16 -101 26 -101 6 0 8 -18 3 -45 -4 -28 -2 -45 4 -45 5 0 13
-33 17 -72 3 -40 11 -87 16 -104 5 -17 12 -46 14 -65 2 -19 11 -70 20 -114 8
-44 20 -109 25 -145 6 -36 14 -90 20 -120 5 -30 16 -108 24 -174 9 -65 19
-123 25 -130 5 -6 11 -31 14 -56 8 -82 39 -245 47 -255 5 -6 9 -29 8 -51 0
-51 11 -124 20 -124 4 0 8 -16 9 -37 3 -47 20 -65 36 -38 19 32 46 100 104
265 115 325 186 529 228 650 24 69 73 211 110 315 140 397 127 343 120 490 -3
71 -8 170 -10 218 -8 148 27 251 95 288 40 21 95 24 137 8z m6153 -690 c0 -34
-15 -69 -30 -69 -11 0 -14 59 -4 84 11 28 34 18 34 -15z m-10393 -83 c71 -33
96 -63 97 -121 1 -115 -46 -141 -334 -184 -74 -11 -169 -27 -210 -35 -41 -8
-129 -21 -195 -30 -119 -17 -160 -26 -223 -53 -18 -8 -50 -17 -70 -20 -42 -7
-94 -38 -112 -66 -11 -18 -33 -157 -50 -312 -18 -168 -50 -457 -59 -535 -20
-165 -23 -225 -12 -252 9 -24 16 -28 49 -28 21 0 72 9 113 19 41 11 142 32
224 46 83 15 192 35 242 46 132 27 280 26 352 -4 30 -12 63 -34 74 -49 25 -34
34 -135 15 -158 -30 -36 -111 -71 -224 -96 -66 -14 -137 -30 -159 -35 -22 -6
-49 -11 -60 -13 -11 -2 -51 -11 -88 -20 -38 -9 -78 -16 -90 -16 -12 0 -35 -7
-51 -15 -16 -9 -36 -13 -44 -10 -8 3 -22 -1 -31 -8 -16 -15 -37 -21 -124 -37
-53 -10 -226 -89 -243 -111 -16 -21 -31 -84 -43 -174 -22 -169 -40 -314 -50
-405 -15 -136 -28 -242 -42 -346 -7 -51 -9 -99 -6 -108 7 -18 58 -21 122 -6
22 4 92 13 155 19 111 11 243 31 325 51 227 53 506 64 576 23 42 -24 67 -67
75 -127 6 -37 3 -50 -12 -67 -35 -39 -102 -62 -189 -63 -93 -1 -126 5 -176 29
-32 15 -48 16 -135 7 -55 -6 -139 -18 -189 -26 -49 -9 -106 -19 -125 -22 -19
-3 -44 -9 -55 -14 -11 -5 -58 -11 -105 -13 -47 -3 -116 -10 -155 -17 -188 -33
-318 31 -332 163 -3 30 8 160 27 312 37 308 43 354 70 590 11 99 25 196 30
216 18 66 91 154 179 216 2 1 -14 20 -36 42 -29 27 -47 58 -64 107 -29 84 -30
162 -5 354 9 74 21 173 26 220 59 529 69 599 95 671 15 41 29 82 32 91 4 13
-4 19 -35 27 -23 7 -47 22 -56 36 -18 27 -21 106 -6 135 12 23 77 43 215 65
55 9 141 24 190 35 50 10 142 26 205 35 161 23 285 44 355 60 38 9 102 13 175
12 102 -2 122 -6 177 -31z m-1803 -341 c9 -36 37 -65 62 -65 35 0 50 -26 36
-64 -7 -18 -12 -44 -12 -59 0 -14 -4 -28 -9 -31 -7 -5 -12 -40 -26 -208 -3
-25 -9 -68 -15 -95 -6 -26 -15 -93 -20 -148 -5 -55 -14 -152 -20 -215 -6 -63
-17 -137 -24 -165 -8 -27 -19 -99 -25 -160 -25 -245 -28 -224 37 -250 91 -37
160 -156 163 -282 1 -63 -19 -239 -41 -358 -5 -27 -20 -156 -35 -285 -14 -129
-30 -273 -37 -320 -6 -47 -12 -107 -12 -133 -1 -28 -7 -51 -14 -56 -8 -4 -15
-24 -16 -44 -2 -22 -17 -55 -40 -86 -20 -28 -36 -55 -36 -59 0 -15 -65 -79
-99 -96 -43 -23 -127 -23 -174 -1 -20 9 -48 32 -62 51 -64 84 -69 205 -25 549
17 127 44 340 62 475 17 135 32 277 32 315 l1 70 -70 -2 c-38 -1 -86 -6 -105
-12 -19 -5 -116 -22 -215 -36 -184 -27 -262 -48 -275 -75 -41 -83 -57 -148
-64 -265 -4 -60 -14 -159 -22 -220 -8 -60 -19 -146 -24 -190 -4 -44 -20 -165
-35 -270 -15 -104 -30 -235 -34 -291 -8 -100 -37 -194 -60 -194 -6 0 -11 -6
-11 -14 0 -20 -81 -96 -102 -96 -9 0 -20 -4 -23 -10 -11 -17 -127 -11 -170 9
-89 41 -129 113 -150 265 -9 71 -9 109 2 190 10 80 87 707 108 882 13 110 24
200 39 309 9 66 30 230 46 365 17 135 37 297 45 360 8 64 19 156 25 205 9 87
21 174 37 280 4 28 7 99 8 158 0 99 2 110 24 132 27 29 75 33 109 9 45 -31 66
-91 70 -203 2 -58 -1 -127 -7 -155 -11 -53 -25 -158 -41 -311 -5 -49 -14 -119
-20 -155 -10 -65 -60 -489 -80 -675 -6 -55 -15 -131 -20 -170 -5 -38 -18 -151
-29 -250 -11 -99 -25 -209 -31 -245 -6 -36 -19 -139 -30 -230 -10 -91 -27
-230 -36 -310 -19 -161 -15 -224 18 -266 l22 -27 18 23 c10 12 18 36 18 54 0
17 9 99 20 181 86 644 100 763 100 860 1 228 79 404 209 469 52 26 73 32 162
45 35 5 156 25 269 45 348 60 346 60 355 99 6 27 23 156 35 262 8 71 31 248
60 465 5 41 17 131 25 200 33 260 58 416 72 443 16 32 82 107 93 107 4 0 11
-11 14 -25z m-1740 -300 c4 -24 14 -58 22 -75 19 -36 13 -57 -18 -69 -33 -13
-162 -41 -189 -41 -12 0 -36 -4 -53 -9 -17 -6 -60 -14 -95 -20 -35 -6 -66 -13
-69 -16 -3 -3 -9 -36 -14 -73 -9 -73 -18 -85 -93 -122 -51 -25 -69 -39 -84
-68 -10 -19 -33 -168 -71 -462 -42 -327 -72 -556 -80 -610 -6 -36 -12 -78 -14
-95 -2 -16 -7 -50 -10 -75 -3 -25 -13 -103 -22 -175 -8 -71 -17 -139 -19 -150
-2 -11 -7 -42 -10 -70 -3 -27 -12 -97 -20 -155 -57 -417 -68 -524 -69 -667 -1
-106 3 -156 11 -164 9 -9 14 -7 23 12 24 54 107 69 160 29 23 -18 23 -19 10
-76 -17 -72 -43 -110 -94 -136 -77 -39 -225 1 -273 74 -35 53 -45 87 -54 187
-7 80 -4 122 21 295 16 110 36 260 44 331 9 72 22 182 31 245 9 63 20 149 25
190 15 123 28 221 40 295 6 39 15 113 20 165 6 52 12 104 15 115 3 11 12 74
20 140 8 66 19 149 25 185 5 36 19 142 30 235 12 94 25 194 31 224 11 68 12
128 0 135 -5 3 -71 8 -147 10 -237 9 -334 45 -347 130 -10 68 36 125 123 150
54 15 374 80 575 117 295 53 540 99 550 103 6 3 22 5 36 5 24 1 27 -3 33 -44z
m15896 -252 c0 -7 6 -10 15 -7 16 7 19 -4 7 -23 -9 -14 -31 1 -56 39 -13 20
-14 27 -4 31 14 5 38 -19 38 -40z m19877 -25 c-2 -13 -4 -3 -4 22 0 25 2 35 4
23 2 -13 2 -33 0 -45z m-26077 -1278 c0 -5 -5 -10 -11 -10 -5 0 -7 5 -4 10 3
6 8 10 11 10 2 0 4 -4 4 -10z m-3570 -70 c4 -14 2 -40 -4 -57 -7 -26 -12 -30
-23 -22 -7 6 -13 17 -13 25 0 7 -9 15 -19 19 -48 15 -29 68 23 63 23 -2 32 -9
36 -28z m-5545 -4920 c99 -11 206 -25 238 -31 31 -5 61 -7 66 -4 17 10 41 -26
41 -59 0 -69 -52 -86 -315 -106 -358 -27 -909 -1 -1145 54 -35 8 -66 13 -69
11 -2 -3 -11 1 -20 9 -9 7 -29 18 -46 23 -43 14 -38 37 10 44 22 4 65 14 95
22 30 9 78 18 105 21 121 14 232 26 260 30 17 1 158 4 315 4 225 2 323 -2 465
-18z m23690 -564 c50 -3 131 -7 180 -10 50 -3 135 -9 190 -12 55 -3 127 -7
160 -9 33 -2 107 -6 165 -9 58 -3 152 -8 210 -12 58 -3 148 -7 200 -10 142 -6
174 -10 195 -22 13 -7 26 -7 37 -1 14 7 20 6 24 -6 10 -25 -4 -45 -30 -45 -13
0 -26 -7 -30 -15 -4 -11 -13 -14 -30 -9 -14 3 -32 2 -40 -3 -9 -5 -43 -6 -77
-3 -33 3 -62 3 -65 -1 -6 -10 -479 -2 -679 10 -93 7 -330 21 -525 32 -337 19
-497 33 -508 44 -12 11 20 22 233 80 49 13 144 13 390 1z m-23426 -380 c18
-21 21 -155 4 -172 -28 -27 -159 -32 -186 -5 -16 16 -9 98 13 147 l19 44 69 0
c48 0 73 -4 81 -14z m-414 -27 c9 -26 8 -102 0 -128 -3 -12 -12 -21 -19 -21
-25 0 -49 -28 -55 -66 -7 -38 -7 -39 -48 -38 -50 1 -73 17 -73 53 0 40 -10 48
-73 55 -32 4 -82 16 -111 26 -29 9 -71 21 -94 25 -23 4 -42 11 -42 15 0 5 25
14 55 20 30 6 57 16 61 21 3 5 9 7 14 4 5 -3 30 2 57 11 51 18 290 53 310 46
7 -2 15 -13 18 -23z m19800 -348 c-7 -12 -65 -11 -65 1 0 4 16 8 36 8 19 0 33
-4 29 -9z m-840 -146 c33 -2 127 -6 210 -10 181 -8 234 -17 303 -51 59 -30 75
-61 51 -103 -37 -65 -206 -86 -624 -77 -374 9 -575 22 -619 40 -29 12 -40 12
-73 1 -46 -16 -85 -10 -135 22 -26 16 -38 31 -38 46 0 29 71 89 102 86 47 -4
75 2 94 19 46 44 45 43 364 37 168 -3 332 -8 365 -10z m-19096 -61 c3 -16 1
-17 -13 -5 -19 16 -21 34 -3 29 6 -3 14 -13 16 -24z m-34 -4 c3 -5 1 -10 -4
-10 -6 0 -11 5 -11 10 0 6 2 10 4 10 3 0 8 -4 11 -10z"/>
<path d="M28940 12980 c-293 -31 -575 -185 -727 -398 -56 -79 -114 -189 -138
-262 -10 -30 -24 -63 -33 -73 -8 -9 -21 -45 -28 -80 -7 -34 -23 -107 -35 -162
-28 -128 -31 -382 -6 -630 18 -173 58 -596 78 -805 31 -340 112 -666 205 -824
54 -93 212 -261 293 -313 29 -20 97 -50 150 -67 l96 -33 90 18 c232 45 414
117 579 228 291 197 431 461 488 921 17 135 17 733 0 925 -7 77 -19 223 -27
325 -16 198 -46 422 -70 529 -78 340 -250 558 -517 655 -113 41 -271 59 -398
46z"/>
<path d="M5523 6896 c3 -8 2 -30 -4 -48 -5 -18 -11 -82 -13 -143 -5 -117 0
-105 27 69 14 92 12 136 -5 136 -6 0 -8 -6 -5 -14z"/>
<path d="M5492 6570 c0 -14 2 -19 5 -12 2 6 2 18 0 25 -3 6 -5 1 -5 -13z"/>
<path d="M5475 6483 c-3 -27 -12 -77 -20 -113 -17 -82 -26 -168 -30 -291 -2
-53 -6 -112 -9 -130 -6 -31 -5 -32 5 -9 5 14 14 61 19 105 13 110 21 158 29
170 4 6 8 49 9 98 1 48 6 106 12 130 12 54 13 87 1 87 -6 0 -13 -21 -16 -47z"/>
<path d="M5397 5847 c-5 -27 -6 -51 -3 -54 8 -8 18 42 14 73 -3 24 -5 20 -11
-19z"/>
</g>
</svg>
