<?xml version="1.0" standalone="no"?>
<!DOCTYPE svg PUBLIC "-//W3C//DTD SVG 20010904//EN"
 "http://www.w3.org/TR/2001/REC-SVG-20010904/DTD/svg10.dtd">
<svg version="1.0" xmlns="http://www.w3.org/2000/svg"
 width="417.000000pt" height="379.000000pt" viewBox="0 0 417.000000 379.000000"
 preserveAspectRatio="xMidYMid meet">

<g transform="translate(0.000000,379.000000) scale(0.100000,-0.100000)"
fill="#000000" stroke="none">
<path d="M382 2158 c-25 -175 -11 -432 31 -593 l13 -50 539 -3 539 -2 -70 72
c-187 194 -363 463 -403 616 l-12 42 -313 0 -313 0 -11 -82z"/>
<path d="M1554 2182 c-74 -83 -79 -94 -55 -140 34 -66 141 -204 214 -276 91
-88 189 -157 302 -213 76 -37 98 -43 140 -41 l50 3 72 95 c87 115 98 123 144
117 43 -6 429 -191 429 -206 0 -8 82 -11 278 -9 l277 3 23 100 c30 129 41 383
22 526 l-12 99 -917 -1 -916 0 -51 -57z"/>
</g>
</svg>
